<?xml version="1.0" encoding="UTF-8" standalone="no"?>
<!DOCTYPE svg PUBLIC "-//W3C//DTD SVG 1.1//EN"
 "http://www.w3.org/Graphics/SVG/1.1/DTD/svg11.dtd">
<!-- Generated by graphviz version 2.38.0 (20140413.2041)
 -->
<!-- Title: Settings Pages: 1 -->
<svg width="350pt" height="28pt"
 viewBox="0.00 0.00 350.00 28.00" xmlns="http://www.w3.org/2000/svg" xmlns:xlink="http://www.w3.org/1999/xlink">
<g id="graph0" class="graph" transform="scale(1 1) rotate(0) translate(4 24)">
<title>Settings</title>
<polygon fill="white" stroke="none" points="-4,4 -4,-24 346,-24 346,4 -4,4"/>
<!-- Node1 -->
<g id="node1" class="node"><title>Node1</title>
<polygon fill="#bfbfbf" stroke="black" points="0,-0.5 0,-19.5 53,-19.5 53,-0.5 0,-0.5"/>
<text text-anchor="middle" x="26.5" y="-7.5" font-family="Helvetica,sans-Serif" font-size="10.00">Settings</text>
</g>
<!-- Node2 -->
<g id="node2" class="node"><title>Node2</title>
<g id="a_node2"><a xlink:href="_8ycm__extra__conf_8py.html#ab67345b7d68998fc3ccd383c6a726a22" target="_top" xlink:title="FindCorrespondingSourceFile">
<polygon fill="white" stroke="black" points="89,-0.5 89,-19.5 234,-19.5 234,-0.5 89,-0.5"/>
<text text-anchor="middle" x="161.5" y="-7.5" font-family="Helvetica,sans-Serif" font-size="10.00">FindCorrespondingSourceFile</text>
</a>
</g>
</g>
<!-- Node1&#45;&gt;Node2 -->
<g id="edge1" class="edge"><title>Node1&#45;&gt;Node2</title>
<path fill="none" stroke="midnightblue" d="M53.1437,-10C60.7382,-10 69.4934,-10 78.6599,-10"/>
<polygon fill="midnightblue" stroke="midnightblue" points="78.7325,-13.5001 88.7325,-10 78.7324,-6.5001 78.7325,-13.5001"/>
</g>
<!-- Node3 -->
<g id="node3" class="node"><title>Node3</title>
<g id="a_node3"><a xlink:href="_8ycm__extra__conf_8py.html#a6bb59f541be0dcbde53eba606d48ddf8" target="_top" xlink:title="IsHeaderFile">
<polygon fill="white" stroke="black" points="270,-0.5 270,-19.5 342,-19.5 342,-0.5 270,-0.5"/>
<text text-anchor="middle" x="306" y="-7.5" font-family="Helvetica,sans-Serif" font-size="10.00">IsHeaderFile</text>
</a>
</g>
</g>
<!-- Node2&#45;&gt;Node3 -->
<g id="edge2" class="edge"><title>Node2&#45;&gt;Node3</title>
<path fill="none" stroke="midnightblue" d="M234.167,-10C242.745,-10 251.315,-10 259.379,-10"/>
<polygon fill="midnightblue" stroke="midnightblue" points="259.648,-13.5001 269.648,-10 259.648,-6.5001 259.648,-13.5001"/>
</g>
</g>
</svg>
