<?xml version="1.0" encoding="UTF-8" standalone="no"?>
<!DOCTYPE svg PUBLIC "-//W3C//DTD SVG 1.1//EN"
 "http://www.w3.org/Graphics/SVG/1.1/DTD/svg11.dtd">
<!-- Generated by graphviz version 2.38.0 (20140413.2041)
 -->
<!-- Title: IsHeaderFile Pages: 1 -->
<svg width="350pt" height="28pt"
 viewBox="0.00 0.00 350.00 28.00" xmlns="http://www.w3.org/2000/svg" xmlns:xlink="http://www.w3.org/1999/xlink">
<g id="graph0" class="graph" transform="scale(1 1) rotate(0) translate(4 24)">
<title>IsHeaderFile</title>
<polygon fill="white" stroke="none" points="-4,4 -4,-24 346,-24 346,4 -4,4"/>
<!-- Node1 -->
<g id="node1" class="node"><title>Node1</title>
<polygon fill="#bfbfbf" stroke="black" points="0,-0.5 0,-19.5 72,-19.5 72,-0.5 0,-0.5"/>
<text text-anchor="middle" x="36" y="-7.5" font-family="Helvetica,sans-Serif" font-size="10.00">IsHeaderFile</text>
</g>
<!-- Node2 -->
<g id="node2" class="node"><title>Node2</title>
<g id="a_node2"><a xlink:href="_8ycm__extra__conf_8py.html#ab67345b7d68998fc3ccd383c6a726a22" target="_top" xlink:title="FindCorrespondingSourceFile">
<polygon fill="white" stroke="black" points="108,-0.5 108,-19.5 253,-19.5 253,-0.5 108,-0.5"/>
<text text-anchor="middle" x="180.5" y="-7.5" font-family="Helvetica,sans-Serif" font-size="10.00">FindCorrespondingSourceFile</text>
</a>
</g>
</g>
<!-- Node1&#45;&gt;Node2 -->
<g id="edge1" class="edge"><title>Node1&#45;&gt;Node2</title>
<path fill="none" stroke="midnightblue" d="M82.2767,-10C90.4676,-10 99.1891,-10 107.917,-10"/>
<polygon fill="midnightblue" stroke="midnightblue" points="82.2248,-6.5001 72.2247,-10 82.2247,-13.5001 82.2248,-6.5001"/>
</g>
<!-- Node3 -->
<g id="node3" class="node"><title>Node3</title>
<g id="a_node3"><a xlink:href="_8ycm__extra__conf_8py.html#a8989cb0b1047bef2c19aee16c05bbfa9" target="_top" xlink:title="This seems to be the entry point for newer YCM. ">
<polygon fill="white" stroke="black" points="289,-0.5 289,-19.5 342,-19.5 342,-0.5 289,-0.5"/>
<text text-anchor="middle" x="315.5" y="-7.5" font-family="Helvetica,sans-Serif" font-size="10.00">Settings</text>
</a>
</g>
</g>
<!-- Node2&#45;&gt;Node3 -->
<g id="edge2" class="edge"><title>Node2&#45;&gt;Node3</title>
<path fill="none" stroke="midnightblue" d="M263.163,-10C272.358,-10 281.145,-10 288.768,-10"/>
<polygon fill="midnightblue" stroke="midnightblue" points="263.061,-6.5001 253.061,-10 263.061,-13.5001 263.061,-6.5001"/>
</g>
</g>
</svg>
