<?xml version="1.0" encoding="UTF-8" standalone="no"?>
<!DOCTYPE svg PUBLIC "-//W3C//DTD SVG 1.1//EN"
 "http://www.w3.org/Graphics/SVG/1.1/DTD/svg11.dtd">
<!-- Generated by graphviz version 2.38.0 (20140413.2041)
 -->
<!-- Title: vnix::units::basic_dim::operator&#45; Pages: 1 -->
<svg width="392pt" height="911pt"
 viewBox="0.00 0.00 392.00 910.50" xmlns="http://www.w3.org/2000/svg" xmlns:xlink="http://www.w3.org/1999/xlink">
<g id="graph0" class="graph" transform="scale(1 1) rotate(0) translate(4 906.5)">
<title>vnix::units::basic_dim::operator&#45;</title>
<polygon fill="white" stroke="none" points="-4,4 -4,-906.5 388,-906.5 388,4 -4,4"/>
<!-- Node1 -->
<g id="node1" class="node"><title>Node1</title>
<polygon fill="#bfbfbf" stroke="black" points="0,-441.5 0,-471.5 91,-471.5 91,-441.5 0,-441.5"/>
<text text-anchor="start" x="8" y="-459.5" font-family="Helvetica,sans-Serif" font-size="10.00">vnix::units::basic</text>
<text text-anchor="middle" x="45.5" y="-448.5" font-family="Helvetica,sans-Serif" font-size="10.00">_dim::operator&#45;</text>
</g>
<!-- Node2 -->
<g id="node2" class="node"><title>Node2</title>
<g id="a_node2"><a xlink:href="dim-test_8cpp.html#a880e8bc45cf483023990dbbadf0a6726" target="_top" xlink:title="TEST_CASE">
<polygon fill="white" stroke="black" points="162.5,-883 162.5,-902 237.5,-902 237.5,-883 162.5,-883"/>
<text text-anchor="middle" x="200" y="-890" font-family="Helvetica,sans-Serif" font-size="10.00">TEST_CASE</text>
</a>
</g>
</g>
<!-- Node1&#45;&gt;Node2 -->
<g id="edge1" class="edge"><title>Node1&#45;&gt;Node2</title>
<path fill="none" stroke="midnightblue" d="M47.9433,-481.907C53.0804,-563.341 73.1381,-815.885 127,-873.5 136.094,-883.227 149.525,-888.203 162.332,-890.676"/>
<polygon fill="midnightblue" stroke="midnightblue" points="51.4165,-481.359 47.3155,-471.59 44.4294,-481.784 51.4165,-481.359"/>
</g>
<!-- Node3 -->
<g id="node3" class="node"><title>Node3</title>
<g id="a_node3"><a xlink:href="classvnix_1_1units_1_1dyndim__base.html#a46d50d29409c892178ad24597ceb33a6" target="_top" xlink:title="Dimension for reciprocal of dimensioned value. ">
<polygon fill="white" stroke="black" points="150.5,-833.5 150.5,-863.5 249.5,-863.5 249.5,-833.5 150.5,-833.5"/>
<text text-anchor="start" x="158.5" y="-851.5" font-family="Helvetica,sans-Serif" font-size="10.00">vnix::units::dyndim</text>
<text text-anchor="middle" x="200" y="-840.5" font-family="Helvetica,sans-Serif" font-size="10.00">_base::recip</text>
</a>
</g>
</g>
<!-- Node1&#45;&gt;Node3 -->
<g id="edge2" class="edge"><title>Node1&#45;&gt;Node3</title>
<path fill="none" stroke="midnightblue" d="M48.8448,-482.194C56.1718,-557.112 80.9441,-773.264 127,-824.5 133.254,-831.457 141.577,-836.402 150.341,-839.914"/>
<polygon fill="midnightblue" stroke="midnightblue" points="52.2885,-481.436 47.8538,-471.814 45.3202,-482.102 52.2885,-481.436"/>
</g>
<!-- Node5 -->
<g id="node5" class="node"><title>Node5</title>
<g id="a_node5"><a xlink:href="structvnix_1_1units_1_1statdim__base.html#a8b28e82a0bfa0f5f898fbdaa61029940" target="_top" xlink:title="Dimension for quotient of dimensioned values. ">
<polygon fill="white" stroke="black" points="137.5,-784.5 137.5,-814.5 262.5,-814.5 262.5,-784.5 137.5,-784.5"/>
<text text-anchor="start" x="145.5" y="-802.5" font-family="Helvetica,sans-Serif" font-size="10.00">vnix::units::statdim</text>
<text text-anchor="middle" x="200" y="-791.5" font-family="Helvetica,sans-Serif" font-size="10.00">_base&lt; nul_code &gt;::quot</text>
</a>
</g>
</g>
<!-- Node1&#45;&gt;Node5 -->
<g id="edge4" class="edge"><title>Node1&#45;&gt;Node5</title>
<path fill="none" stroke="midnightblue" d="M49.739,-481.881C58.8511,-549.549 86.6972,-732.074 127,-775.5 130.227,-778.977 133.97,-781.95 138.02,-784.493"/>
<polygon fill="midnightblue" stroke="midnightblue" points="53.1724,-481.147 48.3924,-471.692 46.2328,-482.064 53.1724,-481.147"/>
</g>
<!-- Node6 -->
<g id="node6" class="node"><title>Node6</title>
<g id="a_node6"><a xlink:href="structvnix_1_1units_1_1statdim__base.html#a243297d22c3c03affdbf112b2264664c" target="_top" xlink:title="Dimension for quotient of dimensioned values. ">
<polygon fill="white" stroke="black" points="150,-735.5 150,-765.5 250,-765.5 250,-735.5 150,-735.5"/>
<text text-anchor="start" x="158" y="-753.5" font-family="Helvetica,sans-Serif" font-size="10.00">vnix::units::statdim</text>
<text text-anchor="middle" x="200" y="-742.5" font-family="Helvetica,sans-Serif" font-size="10.00">_base::quot</text>
</a>
</g>
</g>
<!-- Node1&#45;&gt;Node6 -->
<g id="edge5" class="edge"><title>Node1&#45;&gt;Node6</title>
<path fill="none" stroke="midnightblue" d="M46.6745,-481.893C48.4304,-534.721 59.9653,-657.286 127,-726.5 133.325,-733.031 141.471,-737.784 149.997,-741.245"/>
<polygon fill="midnightblue" stroke="midnightblue" points="50.1694,-481.637 46.4317,-471.723 43.1714,-481.804 50.1694,-481.637"/>
</g>
<!-- Node8 -->
<g id="node8" class="node"><title>Node8</title>
<g id="a_node8"><a xlink:href="structvnix_1_1units_1_1impl_1_1newtons.html#a86bdc8cc8223dd92a350eee791da6b88" target="_top" xlink:title="Initialize from number of newtons. ">
<polygon fill="white" stroke="black" points="152,-686.5 152,-716.5 248,-716.5 248,-686.5 152,-686.5"/>
<text text-anchor="start" x="160" y="-704.5" font-family="Helvetica,sans-Serif" font-size="10.00">vnix::units::impl::</text>
<text text-anchor="middle" x="200" y="-693.5" font-family="Helvetica,sans-Serif" font-size="10.00">newtons::newtons</text>
</a>
</g>
</g>
<!-- Node1&#45;&gt;Node8 -->
<g id="edge7" class="edge"><title>Node1&#45;&gt;Node8</title>
<path fill="none" stroke="midnightblue" d="M48.6782,-481.984C53.926,-527.558 71.298,-623.313 127,-677.5 133.894,-684.207 142.712,-689.04 151.794,-692.523"/>
<polygon fill="midnightblue" stroke="midnightblue" points="52.133,-481.368 47.6128,-471.786 45.1709,-482.095 52.133,-481.368"/>
</g>
<!-- Node9 -->
<g id="node9" class="node"><title>Node9</title>
<g id="a_node9"><a xlink:href="structvnix_1_1units_1_1impl_1_1millinewtons.html#ac260fb05b138f861e949c114a29dd50a" target="_top" xlink:title="Initialize from number of millinewtons. ">
<polygon fill="white" stroke="black" points="134.5,-637.5 134.5,-667.5 265.5,-667.5 265.5,-637.5 134.5,-637.5"/>
<text text-anchor="start" x="142.5" y="-655.5" font-family="Helvetica,sans-Serif" font-size="10.00">vnix::units::impl::</text>
<text text-anchor="middle" x="200" y="-644.5" font-family="Helvetica,sans-Serif" font-size="10.00">millinewtons::millinewtons</text>
</a>
</g>
</g>
<!-- Node1&#45;&gt;Node9 -->
<g id="edge8" class="edge"><title>Node1&#45;&gt;Node9</title>
<path fill="none" stroke="midnightblue" d="M51.6178,-481.566C60.5039,-518.825 82.2864,-588.694 127,-628.5 130.838,-631.917 135.178,-634.85 139.777,-637.367"/>
<polygon fill="midnightblue" stroke="midnightblue" points="54.9716,-480.528 49.3537,-471.545 48.1438,-482.071 54.9716,-480.528"/>
</g>
<!-- Node10 -->
<g id="node10" class="node"><title>Node10</title>
<g id="a_node10"><a xlink:href="structvnix_1_1units_1_1impl_1_1micronewtons.html#ab77fa6b9c459a4975d90cb9bb6a5b6d2" target="_top" xlink:title="Initialize from number of micronewtons. ">
<polygon fill="white" stroke="black" points="128,-588.5 128,-618.5 272,-618.5 272,-588.5 128,-588.5"/>
<text text-anchor="start" x="136" y="-606.5" font-family="Helvetica,sans-Serif" font-size="10.00">vnix::units::impl::</text>
<text text-anchor="middle" x="200" y="-595.5" font-family="Helvetica,sans-Serif" font-size="10.00">micronewtons::micronewtons</text>
</a>
</g>
</g>
<!-- Node1&#45;&gt;Node10 -->
<g id="edge9" class="edge"><title>Node1&#45;&gt;Node10</title>
<path fill="none" stroke="midnightblue" d="M56.5837,-481.112C69.1435,-508.837 93.1513,-553.418 127,-579.5 131.488,-582.958 136.5,-585.932 141.732,-588.486"/>
<polygon fill="midnightblue" stroke="midnightblue" points="59.6922,-479.485 52.4774,-471.726 53.2791,-482.291 59.6922,-479.485"/>
</g>
<!-- Node11 -->
<g id="node11" class="node"><title>Node11</title>
<g id="a_node11"><a xlink:href="structvnix_1_1units_1_1impl_1_1kilonewtons.html#acaf4b9fded90dff6391efe4df8651365" target="_top" xlink:title="Initialize from number of kilonewtons. ">
<polygon fill="white" stroke="black" points="137,-539.5 137,-569.5 263,-569.5 263,-539.5 137,-539.5"/>
<text text-anchor="start" x="145" y="-557.5" font-family="Helvetica,sans-Serif" font-size="10.00">vnix::units::impl::</text>
<text text-anchor="middle" x="200" y="-546.5" font-family="Helvetica,sans-Serif" font-size="10.00">kilonewtons::kilonewtons</text>
</a>
</g>
</g>
<!-- Node1&#45;&gt;Node11 -->
<g id="edge10" class="edge"><title>Node1&#45;&gt;Node11</title>
<path fill="none" stroke="midnightblue" d="M66.1468,-479.087C81.3431,-495.345 103.669,-516.75 127,-530.5 132.676,-533.845 138.881,-536.799 145.192,-539.387"/>
<polygon fill="midnightblue" stroke="midnightblue" points="68.6144,-476.599 59.2864,-471.575 63.4456,-481.319 68.6144,-476.599"/>
</g>
<!-- Node12 -->
<g id="node12" class="node"><title>Node12</title>
<g id="a_node12"><a xlink:href="structvnix_1_1units_1_1impl_1_1meganewtons.html#af5586da6d8663052a8798271e5d73d58" target="_top" xlink:title="Initialize from number of meganewtons. ">
<polygon fill="white" stroke="black" points="128,-490.5 128,-520.5 272,-520.5 272,-490.5 128,-490.5"/>
<text text-anchor="start" x="136" y="-508.5" font-family="Helvetica,sans-Serif" font-size="10.00">vnix::units::impl::</text>
<text text-anchor="middle" x="200" y="-497.5" font-family="Helvetica,sans-Serif" font-size="10.00">meganewtons::meganewtons</text>
</a>
</g>
</g>
<!-- Node1&#45;&gt;Node12 -->
<g id="edge11" class="edge"><title>Node1&#45;&gt;Node12</title>
<path fill="none" stroke="midnightblue" d="M100.733,-473.926C117.586,-479.341 136.009,-485.26 152.302,-490.495"/>
<polygon fill="midnightblue" stroke="midnightblue" points="101.611,-470.531 91.0193,-470.805 99.4692,-477.196 101.611,-470.531"/>
</g>
<!-- Node13 -->
<g id="node13" class="node"><title>Node13</title>
<g id="a_node13"><a xlink:href="structvnix_1_1units_1_1impl_1_1dynes.html#ae6d880d929bce7137ff8a0f24dd84898" target="_top" xlink:title="Initialize from number of dynes. ">
<polygon fill="white" stroke="black" points="154,-441.5 154,-471.5 246,-471.5 246,-441.5 154,-441.5"/>
<text text-anchor="start" x="162" y="-459.5" font-family="Helvetica,sans-Serif" font-size="10.00">vnix::units::impl::</text>
<text text-anchor="middle" x="200" y="-448.5" font-family="Helvetica,sans-Serif" font-size="10.00">dynes::dynes</text>
</a>
</g>
</g>
<!-- Node1&#45;&gt;Node13 -->
<g id="edge12" class="edge"><title>Node1&#45;&gt;Node13</title>
<path fill="none" stroke="midnightblue" d="M101.491,-456.5C118.691,-456.5 137.46,-456.5 153.897,-456.5"/>
<polygon fill="midnightblue" stroke="midnightblue" points="101.019,-453 91.0193,-456.5 101.019,-460 101.019,-453"/>
</g>
<!-- Node14 -->
<g id="node14" class="node"><title>Node14</title>
<g id="a_node14"><a xlink:href="structvnix_1_1units_1_1impl_1_1watts.html#a63d99868e9e204ae2023d0c2a134657e" target="_top" xlink:title="Initialize from number of watts. ">
<polygon fill="white" stroke="black" points="154,-392.5 154,-422.5 246,-422.5 246,-392.5 154,-392.5"/>
<text text-anchor="start" x="162" y="-410.5" font-family="Helvetica,sans-Serif" font-size="10.00">vnix::units::impl::</text>
<text text-anchor="middle" x="200" y="-399.5" font-family="Helvetica,sans-Serif" font-size="10.00">watts::watts</text>
</a>
</g>
</g>
<!-- Node1&#45;&gt;Node14 -->
<g id="edge13" class="edge"><title>Node1&#45;&gt;Node14</title>
<path fill="none" stroke="midnightblue" d="M101.005,-438.987C118.337,-433.418 137.305,-427.323 153.897,-421.992"/>
<polygon fill="midnightblue" stroke="midnightblue" points="99.4692,-435.804 91.0193,-442.195 101.611,-442.469 99.4692,-435.804"/>
</g>
<!-- Node15 -->
<g id="node15" class="node"><title>Node15</title>
<g id="a_node15"><a xlink:href="structvnix_1_1units_1_1impl_1_1milliwatts.html#a46020e7ddda8217578cfe1dab07e1aa2" target="_top" xlink:title="Initialize from number of milliwatts. ">
<polygon fill="white" stroke="black" points="147.5,-343.5 147.5,-373.5 252.5,-373.5 252.5,-343.5 147.5,-343.5"/>
<text text-anchor="start" x="155.5" y="-361.5" font-family="Helvetica,sans-Serif" font-size="10.00">vnix::units::impl::</text>
<text text-anchor="middle" x="200" y="-350.5" font-family="Helvetica,sans-Serif" font-size="10.00">milliwatts::milliwatts</text>
</a>
</g>
</g>
<!-- Node1&#45;&gt;Node15 -->
<g id="edge14" class="edge"><title>Node1&#45;&gt;Node15</title>
<path fill="none" stroke="midnightblue" d="M66.5307,-434.027C81.7742,-418.073 103.991,-397.148 127,-383.5 133.373,-379.72 140.403,-376.397 147.498,-373.512"/>
<polygon fill="midnightblue" stroke="midnightblue" points="63.9057,-431.71 59.6348,-441.406 69.0199,-436.489 63.9057,-431.71"/>
</g>
<!-- Node16 -->
<g id="node16" class="node"><title>Node16</title>
<g id="a_node16"><a xlink:href="structvnix_1_1units_1_1impl_1_1microwatts.html#a3331a3875c9e014fd7ab7c43251408b6" target="_top" xlink:title="Initialize from number of microwatts. ">
<polygon fill="white" stroke="black" points="140.5,-294.5 140.5,-324.5 259.5,-324.5 259.5,-294.5 140.5,-294.5"/>
<text text-anchor="start" x="148.5" y="-312.5" font-family="Helvetica,sans-Serif" font-size="10.00">vnix::units::impl::</text>
<text text-anchor="middle" x="200" y="-301.5" font-family="Helvetica,sans-Serif" font-size="10.00">microwatts::microwatts</text>
</a>
</g>
</g>
<!-- Node1&#45;&gt;Node16 -->
<g id="edge15" class="edge"><title>Node1&#45;&gt;Node16</title>
<path fill="none" stroke="midnightblue" d="M56.6935,-432.163C69.355,-404.734 93.4568,-360.58 127,-334.5 131.91,-330.683 137.444,-327.424 143.207,-324.649"/>
<polygon fill="midnightblue" stroke="midnightblue" points="53.4294,-430.889 52.55,-441.447 59.8217,-433.742 53.4294,-430.889"/>
</g>
<!-- Node17 -->
<g id="node17" class="node"><title>Node17</title>
<g id="a_node17"><a xlink:href="structvnix_1_1units_1_1impl_1_1kilowatts.html#ac799ba4bc29b1f3289d582963f46597f" target="_top" xlink:title="Initialize from number of kilowatts. ">
<polygon fill="white" stroke="black" points="149.5,-245.5 149.5,-275.5 250.5,-275.5 250.5,-245.5 149.5,-245.5"/>
<text text-anchor="start" x="157.5" y="-263.5" font-family="Helvetica,sans-Serif" font-size="10.00">vnix::units::impl::</text>
<text text-anchor="middle" x="200" y="-252.5" font-family="Helvetica,sans-Serif" font-size="10.00">kilowatts::kilowatts</text>
</a>
</g>
</g>
<!-- Node1&#45;&gt;Node17 -->
<g id="edge16" class="edge"><title>Node1&#45;&gt;Node17</title>
<path fill="none" stroke="midnightblue" d="M51.7913,-431.37C60.8559,-394.346 82.8133,-325.243 127,-285.5 133.395,-279.748 141.184,-275.306 149.247,-271.878"/>
<polygon fill="midnightblue" stroke="midnightblue" points="48.3295,-430.804 49.4749,-441.337 55.1478,-432.389 48.3295,-430.804"/>
</g>
<!-- Node18 -->
<g id="node18" class="node"><title>Node18</title>
<g id="a_node18"><a xlink:href="structvnix_1_1units_1_1impl_1_1megawatts.html#ad5baba90922f36ba1d3f8bfceab8acb1" target="_top" xlink:title="Initialize from number of megawatts. ">
<polygon fill="white" stroke="black" points="140.5,-196.5 140.5,-226.5 259.5,-226.5 259.5,-196.5 140.5,-196.5"/>
<text text-anchor="start" x="148.5" y="-214.5" font-family="Helvetica,sans-Serif" font-size="10.00">vnix::units::impl::</text>
<text text-anchor="middle" x="200" y="-203.5" font-family="Helvetica,sans-Serif" font-size="10.00">megawatts::megawatts</text>
</a>
</g>
</g>
<!-- Node1&#45;&gt;Node18 -->
<g id="edge17" class="edge"><title>Node1&#45;&gt;Node18</title>
<path fill="none" stroke="midnightblue" d="M48.7809,-431.197C54.1927,-385.934 71.8178,-290.775 127,-236.5 130.962,-232.603 135.562,-229.312 140.484,-226.532"/>
<polygon fill="midnightblue" stroke="midnightblue" points="45.2813,-431.004 47.6771,-441.325 52.2401,-431.763 45.2813,-431.004"/>
</g>
<!-- Node19 -->
<g id="node19" class="node"><title>Node19</title>
<g id="a_node19"><a xlink:href="structvnix_1_1units_1_1impl_1_1gigawatts.html#aac3e42f94a9cea30bff1acce7fe1ec65" target="_top" xlink:title="Initialize from number of gigawatts. ">
<polygon fill="white" stroke="black" points="146.5,-147.5 146.5,-177.5 253.5,-177.5 253.5,-147.5 146.5,-147.5"/>
<text text-anchor="start" x="154.5" y="-165.5" font-family="Helvetica,sans-Serif" font-size="10.00">vnix::units::impl::</text>
<text text-anchor="middle" x="200" y="-154.5" font-family="Helvetica,sans-Serif" font-size="10.00">gigawatts::gigawatts</text>
</a>
</g>
</g>
<!-- Node1&#45;&gt;Node19 -->
<g id="edge18" class="edge"><title>Node1&#45;&gt;Node19</title>
<path fill="none" stroke="midnightblue" d="M46.7738,-431.265C48.7177,-378.754 60.5886,-256.86 127,-187.5 132.399,-181.861 139.134,-177.494 146.302,-174.111"/>
<polygon fill="midnightblue" stroke="midnightblue" points="43.2721,-431.28 46.4936,-441.373 50.2695,-431.474 43.2721,-431.28"/>
</g>
<!-- Node20 -->
<g id="node20" class="node"><title>Node20</title>
<g id="a_node20"><a xlink:href="structvnix_1_1units_1_1impl_1_1amperes.html#a1e48288384b1da2b666774d3e2cb557f" target="_top" xlink:title="Initialize from number of amperes. ">
<polygon fill="white" stroke="black" points="151,-98.5 151,-128.5 249,-128.5 249,-98.5 151,-98.5"/>
<text text-anchor="start" x="159" y="-116.5" font-family="Helvetica,sans-Serif" font-size="10.00">vnix::units::impl::</text>
<text text-anchor="middle" x="200" y="-105.5" font-family="Helvetica,sans-Serif" font-size="10.00">amperes::amperes</text>
</a>
</g>
</g>
<!-- Node1&#45;&gt;Node20 -->
<g id="edge19" class="edge"><title>Node1&#45;&gt;Node20</title>
<path fill="none" stroke="midnightblue" d="M49.7792,-431.224C58.9925,-363.834 87.07,-182.032 127,-138.5 133.44,-131.479 141.953,-126.43 150.863,-122.799"/>
<polygon fill="midnightblue" stroke="midnightblue" points="46.2786,-430.995 48.417,-441.372 53.2164,-431.926 46.2786,-430.995"/>
</g>
<!-- Node21 -->
<g id="node21" class="node"><title>Node21</title>
<g id="a_node21"><a xlink:href="structvnix_1_1units_1_1impl_1_1milliamperes.html#ab1b617aa3bedbfc0746f0bf7bfef313c" target="_top" xlink:title="Initialize from number of milliamperes. ">
<polygon fill="white" stroke="black" points="134,-49.5 134,-79.5 266,-79.5 266,-49.5 134,-49.5"/>
<text text-anchor="start" x="142" y="-67.5" font-family="Helvetica,sans-Serif" font-size="10.00">vnix::units::impl::</text>
<text text-anchor="middle" x="200" y="-56.5" font-family="Helvetica,sans-Serif" font-size="10.00">milliamperes::milliamperes</text>
</a>
</g>
</g>
<!-- Node1&#45;&gt;Node21 -->
<g id="edge20" class="edge"><title>Node1&#45;&gt;Node21</title>
<path fill="none" stroke="midnightblue" d="M48.8846,-430.902C56.3218,-356.26 81.3679,-140.875 127,-89.5 130.427,-85.6417 134.481,-82.3787 138.891,-79.6193"/>
<polygon fill="midnightblue" stroke="midnightblue" points="45.3634,-430.951 47.8781,-441.243 52.3305,-431.629 45.3634,-430.951"/>
</g>
<!-- Node22 -->
<g id="node22" class="node"><title>Node22</title>
<g id="a_node22"><a xlink:href="structvnix_1_1units_1_1impl_1_1microamperes.html#a0b8fe05fe15087b189b9d7b0efe5777f" target="_top" xlink:title="Initialize from number of microamperes. ">
<polygon fill="white" stroke="black" points="127,-0.5 127,-30.5 273,-30.5 273,-0.5 127,-0.5"/>
<text text-anchor="start" x="135" y="-18.5" font-family="Helvetica,sans-Serif" font-size="10.00">vnix::units::impl::</text>
<text text-anchor="middle" x="200" y="-7.5" font-family="Helvetica,sans-Serif" font-size="10.00">microamperes::microamperes</text>
</a>
</g>
</g>
<!-- Node1&#45;&gt;Node22 -->
<g id="edge21" class="edge"><title>Node1&#45;&gt;Node22</title>
<path fill="none" stroke="midnightblue" d="M48.1713,-430.772C53.9459,-349.454 75.5926,-99.8424 127,-40.5 130.379,-36.5995 134.399,-33.3073 138.787,-30.5284"/>
<polygon fill="midnightblue" stroke="midnightblue" points="44.6559,-430.876 47.4603,-441.092 51.6394,-431.357 44.6559,-430.876"/>
</g>
<!-- Node4 -->
<g id="node4" class="node"><title>Node4</title>
<g id="a_node4"><a xlink:href="dyndim-base-test_8cpp.html#a2bdace9cfce4ce05690e2ebfec41445f" target="_top" xlink:title="TEST_CASE">
<polygon fill="white" stroke="black" points="309,-839 309,-858 384,-858 384,-839 309,-839"/>
<text text-anchor="middle" x="346.5" y="-846" font-family="Helvetica,sans-Serif" font-size="10.00">TEST_CASE</text>
</a>
</g>
</g>
<!-- Node3&#45;&gt;Node4 -->
<g id="edge3" class="edge"><title>Node3&#45;&gt;Node4</title>
<path fill="none" stroke="midnightblue" d="M259.689,-848.5C276.282,-848.5 293.865,-848.5 308.765,-848.5"/>
<polygon fill="midnightblue" stroke="midnightblue" points="259.518,-845 249.518,-848.5 259.518,-852 259.518,-845"/>
</g>
<!-- Node7 -->
<g id="node7" class="node"><title>Node7</title>
<g id="a_node7"><a xlink:href="statdim-base-test_8cpp.html#a68e3a7a324c9e858052f4d2856df5163" target="_top" xlink:title="TEST_CASE">
<polygon fill="white" stroke="black" points="309,-741 309,-760 384,-760 384,-741 309,-741"/>
<text text-anchor="middle" x="346.5" y="-748" font-family="Helvetica,sans-Serif" font-size="10.00">TEST_CASE</text>
</a>
</g>
</g>
<!-- Node6&#45;&gt;Node7 -->
<g id="edge6" class="edge"><title>Node6&#45;&gt;Node7</title>
<path fill="none" stroke="midnightblue" d="M260.37,-750.5C276.743,-750.5 294.028,-750.5 308.714,-750.5"/>
<polygon fill="midnightblue" stroke="midnightblue" points="260.325,-747 250.325,-750.5 260.325,-754 260.325,-747"/>
</g>
</g>
</svg>
