<?xml version="1.0" encoding="UTF-8" standalone="no"?>
<!DOCTYPE svg PUBLIC "-//W3C//DTD SVG 1.1//EN"
 "http://www.w3.org/Graphics/SVG/1.1/DTD/svg11.dtd">
<!-- Generated by graphviz version 2.38.0 (20140413.2041)
 -->
<!-- Title: vnix::units::basic_dim::operator+ Pages: 1 -->
<svg width="390pt" height="764pt"
 viewBox="0.00 0.00 390.00 763.50" xmlns="http://www.w3.org/2000/svg" xmlns:xlink="http://www.w3.org/1999/xlink">
<g id="graph0" class="graph" transform="scale(1 1) rotate(0) translate(4 759.5)">
<title>vnix::units::basic_dim::operator+</title>
<polygon fill="white" stroke="none" points="-4,4 -4,-759.5 386,-759.5 386,4 -4,4"/>
<!-- Node1 -->
<g id="node1" class="node"><title>Node1</title>
<polygon fill="#bfbfbf" stroke="black" points="0,-367.5 0,-397.5 91,-397.5 91,-367.5 0,-367.5"/>
<text text-anchor="start" x="8" y="-385.5" font-family="Helvetica,sans-Serif" font-size="10.00">vnix::units::basic</text>
<text text-anchor="middle" x="45.5" y="-374.5" font-family="Helvetica,sans-Serif" font-size="10.00">_dim::operator+</text>
</g>
<!-- Node2 -->
<g id="node2" class="node"><title>Node2</title>
<g id="a_node2"><a xlink:href="dim-test_8cpp.html#a880e8bc45cf483023990dbbadf0a6726" target="_top" xlink:title="TEST_CASE">
<polygon fill="white" stroke="black" points="161.5,-736 161.5,-755 236.5,-755 236.5,-736 161.5,-736"/>
<text text-anchor="middle" x="199" y="-743" font-family="Helvetica,sans-Serif" font-size="10.00">TEST_CASE</text>
</a>
</g>
</g>
<!-- Node1&#45;&gt;Node2 -->
<g id="edge1" class="edge"><title>Node1&#45;&gt;Node2</title>
<path fill="none" stroke="midnightblue" d="M49.0999,-408.061C56.8947,-479.734 82.3347,-680.4 127,-726.5 135.968,-735.756 148.911,-740.666 161.297,-743.218"/>
<polygon fill="midnightblue" stroke="midnightblue" points="52.537,-407.283 48.0001,-397.709 45.5762,-408.023 52.537,-407.283"/>
</g>
<!-- Node3 -->
<g id="node3" class="node"><title>Node3</title>
<g id="a_node3"><a xlink:href="structvnix_1_1units_1_1statdim__base.html#a467c2dca759e36542934a8fb4fa6ee61" target="_top" xlink:title="Dimension for product of dimensioned values. ">
<polygon fill="white" stroke="black" points="136.5,-686.5 136.5,-716.5 261.5,-716.5 261.5,-686.5 136.5,-686.5"/>
<text text-anchor="start" x="144.5" y="-704.5" font-family="Helvetica,sans-Serif" font-size="10.00">vnix::units::statdim</text>
<text text-anchor="middle" x="199" y="-693.5" font-family="Helvetica,sans-Serif" font-size="10.00">_base&lt; nul_code &gt;::prod</text>
</a>
</g>
</g>
<!-- Node1&#45;&gt;Node3 -->
<g id="edge2" class="edge"><title>Node1&#45;&gt;Node3</title>
<path fill="none" stroke="midnightblue" d="M45.9194,-407.842C46.0388,-464.063 54.3055,-600.34 127,-677.5 130.212,-680.909 133.925,-683.834 137.934,-686.344"/>
<polygon fill="midnightblue" stroke="midnightblue" points="49.4201,-407.73 45.9875,-397.707 42.4203,-407.683 49.4201,-407.73"/>
</g>
<!-- Node4 -->
<g id="node4" class="node"><title>Node4</title>
<g id="a_node4"><a xlink:href="structvnix_1_1units_1_1statdim__base.html#afc4b5217b097b3e6cb47a2bc8ecad319" target="_top" xlink:title="Dimension for product of dimensioned values. ">
<polygon fill="white" stroke="black" points="149,-637.5 149,-667.5 249,-667.5 249,-637.5 149,-637.5"/>
<text text-anchor="start" x="157" y="-655.5" font-family="Helvetica,sans-Serif" font-size="10.00">vnix::units::statdim</text>
<text text-anchor="middle" x="199" y="-644.5" font-family="Helvetica,sans-Serif" font-size="10.00">_base::prod</text>
</a>
</g>
</g>
<!-- Node1&#45;&gt;Node4 -->
<g id="edge3" class="edge"><title>Node1&#45;&gt;Node4</title>
<path fill="none" stroke="midnightblue" d="M47.5675,-407.667C51.0114,-456.88 65.5601,-566.46 127,-628.5 133.043,-634.602 140.689,-639.153 148.71,-642.547"/>
<polygon fill="midnightblue" stroke="midnightblue" points="51.0552,-407.355 46.9612,-397.583 44.0678,-407.775 51.0552,-407.355"/>
</g>
<!-- Node6 -->
<g id="node6" class="node"><title>Node6</title>
<g id="a_node6"><a xlink:href="structvnix_1_1units_1_1impl_1_1newtons.html#a86bdc8cc8223dd92a350eee791da6b88" target="_top" xlink:title="Initialize from number of newtons. ">
<polygon fill="white" stroke="black" points="151,-588.5 151,-618.5 247,-618.5 247,-588.5 151,-588.5"/>
<text text-anchor="start" x="159" y="-606.5" font-family="Helvetica,sans-Serif" font-size="10.00">vnix::units::impl::</text>
<text text-anchor="middle" x="199" y="-595.5" font-family="Helvetica,sans-Serif" font-size="10.00">newtons::newtons</text>
</a>
</g>
</g>
<!-- Node1&#45;&gt;Node6 -->
<g id="edge5" class="edge"><title>Node1&#45;&gt;Node6</title>
<path fill="none" stroke="midnightblue" d="M49.9934,-407.843C57.0461,-449.457 76.8318,-532.347 127,-579.5 133.732,-585.827 142.191,-590.49 150.901,-593.927"/>
<polygon fill="midnightblue" stroke="midnightblue" points="53.4134,-407.061 48.3951,-397.73 46.4992,-408.154 53.4134,-407.061"/>
</g>
<!-- Node7 -->
<g id="node7" class="node"><title>Node7</title>
<g id="a_node7"><a xlink:href="structvnix_1_1units_1_1impl_1_1millinewtons.html#ac260fb05b138f861e949c114a29dd50a" target="_top" xlink:title="Initialize from number of millinewtons. ">
<polygon fill="white" stroke="black" points="133.5,-539.5 133.5,-569.5 264.5,-569.5 264.5,-539.5 133.5,-539.5"/>
<text text-anchor="start" x="141.5" y="-557.5" font-family="Helvetica,sans-Serif" font-size="10.00">vnix::units::impl::</text>
<text text-anchor="middle" x="199" y="-546.5" font-family="Helvetica,sans-Serif" font-size="10.00">millinewtons::millinewtons</text>
</a>
</g>
</g>
<!-- Node1&#45;&gt;Node7 -->
<g id="edge6" class="edge"><title>Node1&#45;&gt;Node7</title>
<path fill="none" stroke="midnightblue" d="M53.8023,-407.648C64.5789,-440.454 87.8153,-497.542 127,-530.5 131.083,-533.934 135.679,-536.883 140.519,-539.416"/>
<polygon fill="midnightblue" stroke="midnightblue" points="57.0783,-406.398 50.7367,-397.911 50.4014,-408.5 57.0783,-406.398"/>
</g>
<!-- Node8 -->
<g id="node8" class="node"><title>Node8</title>
<g id="a_node8"><a xlink:href="structvnix_1_1units_1_1impl_1_1micronewtons.html#ab77fa6b9c459a4975d90cb9bb6a5b6d2" target="_top" xlink:title="Initialize from number of micronewtons. ">
<polygon fill="white" stroke="black" points="127,-490.5 127,-520.5 271,-520.5 271,-490.5 127,-490.5"/>
<text text-anchor="start" x="135" y="-508.5" font-family="Helvetica,sans-Serif" font-size="10.00">vnix::units::impl::</text>
<text text-anchor="middle" x="199" y="-497.5" font-family="Helvetica,sans-Serif" font-size="10.00">micronewtons::micronewtons</text>
</a>
</g>
</g>
<!-- Node1&#45;&gt;Node8 -->
<g id="edge7" class="edge"><title>Node1&#45;&gt;Node8</title>
<path fill="none" stroke="midnightblue" d="M60.4017,-406.426C74.5307,-428.785 98.3753,-461.62 127,-481.5 131.916,-484.914 137.358,-487.876 142.978,-490.439"/>
<polygon fill="midnightblue" stroke="midnightblue" points="63.3449,-404.531 55.1279,-397.842 57.3807,-408.195 63.3449,-404.531"/>
</g>
<!-- Node9 -->
<g id="node9" class="node"><title>Node9</title>
<g id="a_node9"><a xlink:href="structvnix_1_1units_1_1impl_1_1kilonewtons.html#acaf4b9fded90dff6391efe4df8651365" target="_top" xlink:title="Initialize from number of kilonewtons. ">
<polygon fill="white" stroke="black" points="136,-441.5 136,-471.5 262,-471.5 262,-441.5 136,-441.5"/>
<text text-anchor="start" x="144" y="-459.5" font-family="Helvetica,sans-Serif" font-size="10.00">vnix::units::impl::</text>
<text text-anchor="middle" x="199" y="-448.5" font-family="Helvetica,sans-Serif" font-size="10.00">kilonewtons::kilonewtons</text>
</a>
</g>
</g>
<!-- Node1&#45;&gt;Node9 -->
<g id="edge8" class="edge"><title>Node1&#45;&gt;Node9</title>
<path fill="none" stroke="midnightblue" d="M76.6177,-403.508C91.3544,-413.181 109.627,-424.302 127,-432.5 133.825,-435.72 141.202,-438.714 148.53,-441.417"/>
<polygon fill="midnightblue" stroke="midnightblue" points="78.1984,-400.355 67.9386,-397.712 74.3108,-406.176 78.1984,-400.355"/>
</g>
<!-- Node10 -->
<g id="node10" class="node"><title>Node10</title>
<g id="a_node10"><a xlink:href="structvnix_1_1units_1_1impl_1_1meganewtons.html#af5586da6d8663052a8798271e5d73d58" target="_top" xlink:title="Initialize from number of meganewtons. ">
<polygon fill="white" stroke="black" points="127,-392.5 127,-422.5 271,-422.5 271,-392.5 127,-392.5"/>
<text text-anchor="start" x="135" y="-410.5" font-family="Helvetica,sans-Serif" font-size="10.00">vnix::units::impl::</text>
<text text-anchor="middle" x="199" y="-399.5" font-family="Helvetica,sans-Serif" font-size="10.00">meganewtons::meganewtons</text>
</a>
</g>
</g>
<!-- Node1&#45;&gt;Node10 -->
<g id="edge9" class="edge"><title>Node1&#45;&gt;Node10</title>
<path fill="none" stroke="midnightblue" d="M101.147,-391.518C109.532,-392.901 118.293,-394.347 126.97,-395.779"/>
<polygon fill="midnightblue" stroke="midnightblue" points="101.572,-388.041 91.1356,-389.866 100.432,-394.947 101.572,-388.041"/>
</g>
<!-- Node11 -->
<g id="node11" class="node"><title>Node11</title>
<g id="a_node11"><a xlink:href="structvnix_1_1units_1_1impl_1_1dynes.html#ae6d880d929bce7137ff8a0f24dd84898" target="_top" xlink:title="Initialize from number of dynes. ">
<polygon fill="white" stroke="black" points="153,-343.5 153,-373.5 245,-373.5 245,-343.5 153,-343.5"/>
<text text-anchor="start" x="161" y="-361.5" font-family="Helvetica,sans-Serif" font-size="10.00">vnix::units::impl::</text>
<text text-anchor="middle" x="199" y="-350.5" font-family="Helvetica,sans-Serif" font-size="10.00">dynes::dynes</text>
</a>
</g>
</g>
<!-- Node1&#45;&gt;Node11 -->
<g id="edge10" class="edge"><title>Node1&#45;&gt;Node11</title>
<path fill="none" stroke="midnightblue" d="M101.432,-373.798C118.334,-371.12 136.735,-368.205 152.898,-365.645"/>
<polygon fill="midnightblue" stroke="midnightblue" points="100.465,-370.407 91.1356,-375.429 101.56,-377.321 100.465,-370.407"/>
</g>
<!-- Node12 -->
<g id="node12" class="node"><title>Node12</title>
<g id="a_node12"><a xlink:href="structvnix_1_1units_1_1impl_1_1joules.html#abb135218b2ea2658f2a98c86ecd261b5" target="_top" xlink:title="Initialize from number of joules. ">
<polygon fill="white" stroke="black" points="153,-294.5 153,-324.5 245,-324.5 245,-294.5 153,-294.5"/>
<text text-anchor="start" x="161" y="-312.5" font-family="Helvetica,sans-Serif" font-size="10.00">vnix::units::impl::</text>
<text text-anchor="middle" x="199" y="-301.5" font-family="Helvetica,sans-Serif" font-size="10.00">joules::joules</text>
</a>
</g>
</g>
<!-- Node1&#45;&gt;Node12 -->
<g id="edge11" class="edge"><title>Node1&#45;&gt;Node12</title>
<path fill="none" stroke="midnightblue" d="M77.7145,-361.909C92.3139,-352.8 110.161,-342.389 127,-334.5 135.165,-330.675 144.087,-327.095 152.764,-323.907"/>
<polygon fill="midnightblue" stroke="midnightblue" points="75.6561,-359.07 69.0821,-367.379 79.4026,-364.983 75.6561,-359.07"/>
</g>
<!-- Node13 -->
<g id="node13" class="node"><title>Node13</title>
<g id="a_node13"><a xlink:href="structvnix_1_1units_1_1impl_1_1millijoules.html#a8182475936e9f5ea938db7a2027b243b" target="_top" xlink:title="Initialize from number of millijoules. ">
<polygon fill="white" stroke="black" points="145,-245.5 145,-275.5 253,-275.5 253,-245.5 145,-245.5"/>
<text text-anchor="start" x="153" y="-263.5" font-family="Helvetica,sans-Serif" font-size="10.00">vnix::units::impl::</text>
<text text-anchor="middle" x="199" y="-252.5" font-family="Helvetica,sans-Serif" font-size="10.00">millijoules::millijoules</text>
</a>
</g>
</g>
<!-- Node1&#45;&gt;Node13 -->
<g id="edge12" class="edge"><title>Node1&#45;&gt;Node13</title>
<path fill="none" stroke="midnightblue" d="M60.9982,-358.486C75.2968,-336.66 99.03,-304.979 127,-285.5 132.469,-281.691 138.577,-278.408 144.852,-275.591"/>
<polygon fill="midnightblue" stroke="midnightblue" points="57.8854,-356.858 55.463,-367.173 63.7887,-360.62 57.8854,-356.858"/>
</g>
<!-- Node14 -->
<g id="node14" class="node"><title>Node14</title>
<g id="a_node14"><a xlink:href="structvnix_1_1units_1_1impl_1_1microjoules.html#a61860e9d7daa56d0ce4b564dd3988d6b" target="_top" xlink:title="Initialize from number of microjoules. ">
<polygon fill="white" stroke="black" points="138,-196.5 138,-226.5 260,-226.5 260,-196.5 138,-196.5"/>
<text text-anchor="start" x="146" y="-214.5" font-family="Helvetica,sans-Serif" font-size="10.00">vnix::units::impl::</text>
<text text-anchor="middle" x="199" y="-203.5" font-family="Helvetica,sans-Serif" font-size="10.00">microjoules::microjoules</text>
</a>
</g>
</g>
<!-- Node1&#45;&gt;Node14 -->
<g id="edge13" class="edge"><title>Node1&#45;&gt;Node14</title>
<path fill="none" stroke="midnightblue" d="M53.9582,-357.763C64.9078,-325.478 88.3352,-269.248 127,-236.5 131.587,-232.615 136.818,-229.319 142.314,-226.525"/>
<polygon fill="midnightblue" stroke="midnightblue" points="50.6068,-356.751 50.8381,-367.343 57.2627,-358.919 50.6068,-356.751"/>
</g>
<!-- Node15 -->
<g id="node15" class="node"><title>Node15</title>
<g id="a_node15"><a xlink:href="structvnix_1_1units_1_1impl_1_1kilojoules.html#a777e5a6d44461e324dbcddec07d7ded2" target="_top" xlink:title="Initialize from number of kilojoules. ">
<polygon fill="white" stroke="black" points="147,-147.5 147,-177.5 251,-177.5 251,-147.5 147,-147.5"/>
<text text-anchor="start" x="155" y="-165.5" font-family="Helvetica,sans-Serif" font-size="10.00">vnix::units::impl::</text>
<text text-anchor="middle" x="199" y="-154.5" font-family="Helvetica,sans-Serif" font-size="10.00">kilojoules::kilojoules</text>
</a>
</g>
</g>
<!-- Node1&#45;&gt;Node15 -->
<g id="edge14" class="edge"><title>Node1&#45;&gt;Node15</title>
<path fill="none" stroke="midnightblue" d="M50.1371,-357.479C57.3982,-316.381 77.4787,-234.466 127,-187.5 132.689,-182.104 139.612,-177.865 146.877,-174.535"/>
<polygon fill="midnightblue" stroke="midnightblue" points="46.6642,-357.028 48.4857,-367.465 53.5704,-358.17 46.6642,-357.028"/>
</g>
<!-- Node16 -->
<g id="node16" class="node"><title>Node16</title>
<g id="a_node16"><a xlink:href="structvnix_1_1units_1_1impl_1_1megajoules.html#a8e232804834d3c3ce3a13e5214eca954" target="_top" xlink:title="Initialize from number of megajoules. ">
<polygon fill="white" stroke="black" points="138,-98.5 138,-128.5 260,-128.5 260,-98.5 138,-98.5"/>
<text text-anchor="start" x="146" y="-116.5" font-family="Helvetica,sans-Serif" font-size="10.00">vnix::units::impl::</text>
<text text-anchor="middle" x="199" y="-105.5" font-family="Helvetica,sans-Serif" font-size="10.00">megajoules::megajoules</text>
</a>
</g>
</g>
<!-- Node1&#45;&gt;Node16 -->
<g id="edge15" class="edge"><title>Node1&#45;&gt;Node16</title>
<path fill="none" stroke="midnightblue" d="M47.7273,-357.25C51.4518,-308.378 66.47,-200.246 127,-138.5 130.751,-134.674 135.121,-131.432 139.817,-128.686"/>
<polygon fill="midnightblue" stroke="midnightblue" points="44.232,-357.066 47.0613,-367.276 51.2166,-357.53 44.232,-357.066"/>
</g>
<!-- Node17 -->
<g id="node17" class="node"><title>Node17</title>
<g id="a_node17"><a xlink:href="structvnix_1_1units_1_1impl_1_1gigajoules.html#a7146419d76689900b5c3348affcbbc84" target="_top" xlink:title="Initialize from number of gigajoules. ">
<polygon fill="white" stroke="black" points="144,-49.5 144,-79.5 254,-79.5 254,-49.5 144,-49.5"/>
<text text-anchor="start" x="152" y="-67.5" font-family="Helvetica,sans-Serif" font-size="10.00">vnix::units::impl::</text>
<text text-anchor="middle" x="199" y="-56.5" font-family="Helvetica,sans-Serif" font-size="10.00">gigajoules::gigajoules</text>
</a>
</g>
</g>
<!-- Node1&#45;&gt;Node17 -->
<g id="edge16" class="edge"><title>Node1&#45;&gt;Node17</title>
<path fill="none" stroke="midnightblue" d="M46.0465,-357.392C46.424,-301.678 55.1812,-166.564 127,-89.5 131.722,-84.4331 137.532,-80.3926 143.777,-77.1708"/>
<polygon fill="midnightblue" stroke="midnightblue" points="42.5465,-357.442 46.0666,-367.435 49.5465,-357.428 42.5465,-357.442"/>
</g>
<!-- Node18 -->
<g id="node18" class="node"><title>Node18</title>
<g id="a_node18"><a xlink:href="structvnix_1_1units_1_1impl_1_1ergs.html#ae492c283304e67cf4589ffaf017a53c0" target="_top" xlink:title="Initialize from number of ergs. ">
<polygon fill="white" stroke="black" points="153,-0.5 153,-30.5 245,-30.5 245,-0.5 153,-0.5"/>
<text text-anchor="start" x="161" y="-18.5" font-family="Helvetica,sans-Serif" font-size="10.00">vnix::units::impl::</text>
<text text-anchor="middle" x="199" y="-7.5" font-family="Helvetica,sans-Serif" font-size="10.00">ergs::ergs</text>
</a>
</g>
</g>
<!-- Node1&#45;&gt;Node18 -->
<g id="edge17" class="edge"><title>Node1&#45;&gt;Node18</title>
<path fill="none" stroke="midnightblue" d="M49.301,-357.254C57.6298,-286.438 84.3494,-87.9954 127,-40.5 133.81,-32.9159 143.062,-27.6325 152.635,-23.9519"/>
<polygon fill="midnightblue" stroke="midnightblue" points="45.7903,-357.146 48.1226,-367.481 52.7443,-357.947 45.7903,-357.146"/>
</g>
<!-- Node5 -->
<g id="node5" class="node"><title>Node5</title>
<g id="a_node5"><a xlink:href="statdim-base-test_8cpp.html#a68e3a7a324c9e858052f4d2856df5163" target="_top" xlink:title="TEST_CASE">
<polygon fill="white" stroke="black" points="307,-643 307,-662 382,-662 382,-643 307,-643"/>
<text text-anchor="middle" x="344.5" y="-650" font-family="Helvetica,sans-Serif" font-size="10.00">TEST_CASE</text>
</a>
</g>
</g>
<!-- Node4&#45;&gt;Node5 -->
<g id="edge4" class="edge"><title>Node4&#45;&gt;Node5</title>
<path fill="none" stroke="midnightblue" d="M259.71,-652.5C275.654,-652.5 292.414,-652.5 306.72,-652.5"/>
<polygon fill="midnightblue" stroke="midnightblue" points="259.385,-649 249.385,-652.5 259.385,-656 259.385,-649"/>
</g>
</g>
</svg>
