<?xml version="1.0" encoding="UTF-8" standalone="no"?>
<!DOCTYPE svg PUBLIC "-//W3C//DTD SVG 1.1//EN"
 "http://www.w3.org/Graphics/SVG/1.1/DTD/svg11.dtd">
<!-- Generated by graphviz version 2.38.0 (20140413.2041)
 -->
<!-- Title: vnix::units::basic_dim::exp Pages: 1 -->
<svg width="249pt" height="170pt"
 viewBox="0.00 0.00 249.00 170.00" xmlns="http://www.w3.org/2000/svg" xmlns:xlink="http://www.w3.org/1999/xlink">
<g id="graph0" class="graph" transform="scale(1 1) rotate(0) translate(4 166)">
<title>vnix::units::basic_dim::exp</title>
<polygon fill="white" stroke="none" points="-4,4 -4,-166 245,-166 245,4 -4,4"/>
<!-- Node1 -->
<g id="node1" class="node"><title>Node1</title>
<polygon fill="#bfbfbf" stroke="black" points="0,-66 0,-96 91,-96 91,-66 0,-66"/>
<text text-anchor="start" x="8" y="-84" font-family="Helvetica,sans-Serif" font-size="10.00">vnix::units::basic</text>
<text text-anchor="middle" x="45.5" y="-73" font-family="Helvetica,sans-Serif" font-size="10.00">_dim::exp</text>
</g>
<!-- Node2 -->
<g id="node2" class="node"><title>Node2</title>
<g id="a_node2"><a xlink:href="classvnix_1_1units_1_1basic__dim.html#a44bc8daad90eea8f7d3d5f65366b8367" target="_top" xlink:title="Rational exponent at specified offset. ">
<polygon fill="white" stroke="black" points="127,-120.5 127,-161.5 241,-161.5 241,-120.5 127,-120.5"/>
<text text-anchor="start" x="135" y="-149.5" font-family="Helvetica,sans-Serif" font-size="10.00">vnix::units::basic</text>
<text text-anchor="start" x="135" y="-138.5" font-family="Helvetica,sans-Serif" font-size="10.00">_dim&lt; dim_base_off &gt;</text>
<text text-anchor="middle" x="184" y="-127.5" font-family="Helvetica,sans-Serif" font-size="10.00">::operator[]</text>
</a>
</g>
</g>
<!-- Node1&#45;&gt;Node2 -->
<g id="edge1" class="edge"><title>Node1&#45;&gt;Node2</title>
<path fill="none" stroke="midnightblue" d="M90.2881,-100.248C104.938,-106.687 121.321,-113.888 136.192,-120.425"/>
<polygon fill="midnightblue" stroke="midnightblue" points="91.5078,-96.9605 80.9447,-96.1405 88.6909,-103.369 91.5078,-96.9605"/>
</g>
<!-- Node3 -->
<g id="node3" class="node"><title>Node3</title>
<g id="a_node3"><a xlink:href="classvnix_1_1units_1_1basic__dim.html#ab8b3086da7d11dc2fd927524451b5de0" target="_top" xlink:title="Combine each exponent with corresponding other exponent via function. ">
<polygon fill="white" stroke="black" points="127,-60.5 127,-101.5 241,-101.5 241,-60.5 127,-60.5"/>
<text text-anchor="start" x="135" y="-89.5" font-family="Helvetica,sans-Serif" font-size="10.00">vnix::units::basic</text>
<text text-anchor="start" x="135" y="-78.5" font-family="Helvetica,sans-Serif" font-size="10.00">_dim&lt; dim_base_off &gt;</text>
<text text-anchor="middle" x="184" y="-67.5" font-family="Helvetica,sans-Serif" font-size="10.00">::combine</text>
</a>
</g>
</g>
<!-- Node1&#45;&gt;Node3 -->
<g id="edge2" class="edge"><title>Node1&#45;&gt;Node3</title>
<path fill="none" stroke="midnightblue" d="M101.252,-81C109.641,-81 118.314,-81 126.735,-81"/>
<polygon fill="midnightblue" stroke="midnightblue" points="101.195,-77.5001 91.1952,-81 101.195,-84.5001 101.195,-77.5001"/>
</g>
<!-- Node4 -->
<g id="node4" class="node"><title>Node4</title>
<g id="a_node4"><a xlink:href="classvnix_1_1units_1_1basic__dim.html#a9b9a5156731c34e2d3bdb01e31e8da82" target="_top" xlink:title="Transform each exponent according to a function. ">
<polygon fill="white" stroke="black" points="127,-0.5 127,-41.5 241,-41.5 241,-0.5 127,-0.5"/>
<text text-anchor="start" x="135" y="-29.5" font-family="Helvetica,sans-Serif" font-size="10.00">vnix::units::basic</text>
<text text-anchor="start" x="135" y="-18.5" font-family="Helvetica,sans-Serif" font-size="10.00">_dim&lt; dim_base_off &gt;</text>
<text text-anchor="middle" x="184" y="-7.5" font-family="Helvetica,sans-Serif" font-size="10.00">::transform</text>
</a>
</g>
</g>
<!-- Node1&#45;&gt;Node4 -->
<g id="edge3" class="edge"><title>Node1&#45;&gt;Node4</title>
<path fill="none" stroke="midnightblue" d="M90.2881,-61.7525C104.938,-55.313 121.321,-48.1118 136.192,-41.5751"/>
<polygon fill="midnightblue" stroke="midnightblue" points="88.6909,-58.6313 80.9447,-65.8595 91.5078,-65.0395 88.6909,-58.6313"/>
</g>
</g>
</svg>
