<?xml version="1.0" encoding="UTF-8" standalone="no"?>
<!DOCTYPE svg PUBLIC "-//W3C//DTD SVG 1.1//EN"
 "http://www.w3.org/Graphics/SVG/1.1/DTD/svg11.dtd">
<!-- Generated by graphviz version 2.38.0 (20140413.2041)
 -->
<!-- Title: vnix::rat::normalized_pair::normalized_pair Pages: 1 -->
<svg width="261pt" height="88pt"
 viewBox="0.00 0.00 261.00 88.00" xmlns="http://www.w3.org/2000/svg" xmlns:xlink="http://www.w3.org/1999/xlink">
<g id="graph0" class="graph" transform="scale(1 1) rotate(0) translate(4 84)">
<title>vnix::rat::normalized_pair::normalized_pair</title>
<polygon fill="white" stroke="none" points="-4,4 -4,-84 257,-84 257,4 -4,4"/>
<!-- Node1 -->
<g id="node1" class="node"><title>Node1</title>
<polygon fill="#bfbfbf" stroke="black" points="0,-24.5 0,-54.5 112,-54.5 112,-24.5 0,-24.5"/>
<text text-anchor="start" x="8" y="-42.5" font-family="Helvetica,sans-Serif" font-size="10.00">vnix::rat::normalized</text>
<text text-anchor="middle" x="56" y="-31.5" font-family="Helvetica,sans-Serif" font-size="10.00">_pair::normalized_pair</text>
</g>
<!-- Node2 -->
<g id="node2" class="node"><title>Node2</title>
<g id="a_node2"><a xlink:href="classvnix_1_1rat_1_1normalized__pair.html#a3216061712afe4430f435c1cb8368718" target="_top" xlink:title="Normalized numerator. ">
<polygon fill="white" stroke="black" points="148,-49.5 148,-79.5 253,-79.5 253,-49.5 148,-49.5"/>
<text text-anchor="start" x="156" y="-67.5" font-family="Helvetica,sans-Serif" font-size="10.00">vnix::rat::normalized</text>
<text text-anchor="middle" x="200.5" y="-56.5" font-family="Helvetica,sans-Serif" font-size="10.00">_pair::n</text>
</a>
</g>
</g>
<!-- Node1&#45;&gt;Node2 -->
<g id="edge1" class="edge"><title>Node1&#45;&gt;Node2</title>
<path fill="none" stroke="midnightblue" d="M112.094,-49.1657C120.538,-50.647 129.301,-52.1845 137.875,-53.6886"/>
<polygon fill="midnightblue" stroke="midnightblue" points="137.368,-57.1531 147.823,-55.4338 138.578,-50.2584 137.368,-57.1531"/>
</g>
<!-- Node3 -->
<g id="node3" class="node"><title>Node3</title>
<g id="a_node3"><a xlink:href="classvnix_1_1rat_1_1normalized__pair.html#abc64a716494fc3315ed774340ee17352" target="_top" xlink:title="Normalized denominator. ">
<polygon fill="white" stroke="black" points="148,-0.5 148,-30.5 253,-30.5 253,-0.5 148,-0.5"/>
<text text-anchor="start" x="156" y="-18.5" font-family="Helvetica,sans-Serif" font-size="10.00">vnix::rat::normalized</text>
<text text-anchor="middle" x="200.5" y="-7.5" font-family="Helvetica,sans-Serif" font-size="10.00">_pair::d</text>
</a>
</g>
</g>
<!-- Node1&#45;&gt;Node3 -->
<g id="edge2" class="edge"><title>Node1&#45;&gt;Node3</title>
<path fill="none" stroke="midnightblue" d="M112.094,-30.221C120.538,-28.7989 129.301,-27.3229 137.875,-25.8789"/>
<polygon fill="midnightblue" stroke="midnightblue" points="138.543,-29.3158 147.823,-24.2035 137.38,-22.413 138.543,-29.3158"/>
</g>
</g>
</svg>
