<?xml version="1.0" encoding="UTF-8" standalone="no"?>
<!DOCTYPE svg PUBLIC "-//W3C//DTD SVG 1.1//EN"
 "http://www.w3.org/Graphics/SVG/1.1/DTD/svg11.dtd">
<!-- Generated by graphviz version 2.38.0 (20140413.2041)
 -->
<!-- Title: vnix::units::basic_dim::operator/ Pages: 1 -->
<svg width="368pt" height="127pt"
 viewBox="0.00 0.00 368.00 126.50" xmlns="http://www.w3.org/2000/svg" xmlns:xlink="http://www.w3.org/1999/xlink">
<g id="graph0" class="graph" transform="scale(1 1) rotate(0) translate(4 122.5)">
<title>vnix::units::basic_dim::operator/</title>
<polygon fill="white" stroke="none" points="-4,4 -4,-122.5 364,-122.5 364,4 -4,4"/>
<!-- Node1 -->
<g id="node1" class="node"><title>Node1</title>
<polygon fill="#bfbfbf" stroke="black" points="0,-49.5 0,-79.5 91,-79.5 91,-49.5 0,-49.5"/>
<text text-anchor="start" x="8" y="-67.5" font-family="Helvetica,sans-Serif" font-size="10.00">vnix::units::basic</text>
<text text-anchor="middle" x="45.5" y="-56.5" font-family="Helvetica,sans-Serif" font-size="10.00">_dim::operator/</text>
</g>
<!-- Node2 -->
<g id="node2" class="node"><title>Node2</title>
<g id="a_node2"><a xlink:href="dim-test_8cpp.html#a77668883ebae8b86b529b7d7cfbc972a" target="_top" xlink:title="TEST_CASE">
<polygon fill="white" stroke="black" points="150.5,-99 150.5,-118 225.5,-118 225.5,-99 150.5,-99"/>
<text text-anchor="middle" x="188" y="-106" font-family="Helvetica,sans-Serif" font-size="10.00">TEST_CASE</text>
</a>
</g>
</g>
<!-- Node1&#45;&gt;Node2 -->
<g id="edge1" class="edge"><title>Node1&#45;&gt;Node2</title>
<path fill="none" stroke="midnightblue" d="M100.988,-81.5639C119.77,-87.4458 140.137,-93.8239 156.335,-98.8967"/>
<polygon fill="midnightblue" stroke="midnightblue" points="101.93,-78.1914 91.3414,-78.5428 99.8383,-84.8715 101.93,-78.1914"/>
</g>
<!-- Node3 -->
<g id="node3" class="node"><title>Node3</title>
<g id="a_node3"><a xlink:href="classvnix_1_1units_1_1dyndim__base.html#af8332e5813c5990b4b642aa1427af84c" target="_top" xlink:title="Dimension for square&#45;root of dimensioned value. ">
<polygon fill="white" stroke="black" points="138.5,-49.5 138.5,-79.5 237.5,-79.5 237.5,-49.5 138.5,-49.5"/>
<text text-anchor="start" x="146.5" y="-67.5" font-family="Helvetica,sans-Serif" font-size="10.00">vnix::units::dyndim</text>
<text text-anchor="middle" x="188" y="-56.5" font-family="Helvetica,sans-Serif" font-size="10.00">_base::sqrt</text>
</a>
</g>
</g>
<!-- Node1&#45;&gt;Node3 -->
<g id="edge2" class="edge"><title>Node1&#45;&gt;Node3</title>
<path fill="none" stroke="midnightblue" d="M101.364,-64.5C113.518,-64.5 126.318,-64.5 138.21,-64.5"/>
<polygon fill="midnightblue" stroke="midnightblue" points="101.341,-61.0001 91.3414,-64.5 101.341,-68.0001 101.341,-61.0001"/>
</g>
<!-- Node5 -->
<g id="node5" class="node"><title>Node5</title>
<g id="a_node5"><a xlink:href="structvnix_1_1units_1_1statdim__base.html#a583b008e4d47a3c43ac9a42c2e9c47a6" target="_top" xlink:title="Dimension for square&#45;root of dimensioned value. ">
<polygon fill="white" stroke="black" points="127,-0.5 127,-30.5 249,-30.5 249,-0.5 127,-0.5"/>
<text text-anchor="start" x="135" y="-18.5" font-family="Helvetica,sans-Serif" font-size="10.00">vnix::units::statdim</text>
<text text-anchor="middle" x="188" y="-7.5" font-family="Helvetica,sans-Serif" font-size="10.00">_base&lt; nul_code &gt;::sqrt</text>
</a>
</g>
</g>
<!-- Node1&#45;&gt;Node5 -->
<g id="edge4" class="edge"><title>Node1&#45;&gt;Node5</title>
<path fill="none" stroke="midnightblue" d="M99.6477,-45.9645C114.158,-40.9041 129.704,-35.4823 143.6,-30.6359"/>
<polygon fill="midnightblue" stroke="midnightblue" points="98.0907,-42.8007 89.8011,-49.3986 100.396,-49.4103 98.0907,-42.8007"/>
</g>
<!-- Node4 -->
<g id="node4" class="node"><title>Node4</title>
<g id="a_node4"><a xlink:href="dyndim-base-test_8cpp.html#a651290a9dc844b4c8231407ec8af1032" target="_top" xlink:title="TEST_CASE">
<polygon fill="white" stroke="black" points="285,-55 285,-74 360,-74 360,-55 285,-55"/>
<text text-anchor="middle" x="322.5" y="-62" font-family="Helvetica,sans-Serif" font-size="10.00">TEST_CASE</text>
</a>
</g>
</g>
<!-- Node3&#45;&gt;Node4 -->
<g id="edge3" class="edge"><title>Node3&#45;&gt;Node4</title>
<path fill="none" stroke="midnightblue" d="M247.648,-64.5C260.34,-64.5 273.409,-64.5 284.96,-64.5"/>
<polygon fill="midnightblue" stroke="midnightblue" points="247.586,-61.0001 237.586,-64.5 247.586,-68.0001 247.586,-61.0001"/>
</g>
</g>
</svg>
