<?xml version="1.0" encoding="UTF-8" standalone="no"?>
<!DOCTYPE svg PUBLIC "-//W3C//DTD SVG 1.1//EN"
 "http://www.w3.org/Graphics/SVG/1.1/DTD/svg11.dtd">
<!-- Generated by graphviz version 2.38.0 (20140413.2041)
 -->
<!-- Title: vnix::units::basic_statdim&lt; nul_code, T &gt; Pages: 1 -->
<svg width="732pt" height="122pt"
 viewBox="0.00 0.00 732.00 121.50" xmlns="http://www.w3.org/2000/svg" xmlns:xlink="http://www.w3.org/1999/xlink">
<g id="graph0" class="graph" transform="scale(1 1) rotate(0) translate(4 117.5)">
<title>vnix::units::basic_statdim&lt; nul_code, T &gt;</title>
<polygon fill="white" stroke="none" points="-4,4 -4,-117.5 728,-117.5 728,4 -4,4"/>
<!-- Node1 -->
<g id="node1" class="node"><title>Node1</title>
<polygon fill="#bfbfbf" stroke="black" points="601,-50.5 601,-80.5 724,-80.5 724,-50.5 601,-50.5"/>
<text text-anchor="start" x="609" y="-68.5" font-family="Helvetica,sans-Serif" font-size="10.00">vnix::units::basic</text>
<text text-anchor="middle" x="662.5" y="-57.5" font-family="Helvetica,sans-Serif" font-size="10.00">_statdim&lt; nul_code, T &gt;</text>
</g>
<!-- Node2 -->
<g id="node2" class="node"><title>Node2</title>
<g id="a_node2"><a xlink:href="classvnix_1_1units_1_1dimval.html" target="_top" xlink:title="vnix::units::dimval\l\&lt; T, statdim_base\&lt; nul\l_code \&gt; \&gt;">
<polygon fill="white" stroke="black" points="446,-45 446,-86 564,-86 564,-45 446,-45"/>
<text text-anchor="start" x="454" y="-74" font-family="Helvetica,sans-Serif" font-size="10.00">vnix::units::dimval</text>
<text text-anchor="start" x="454" y="-63" font-family="Helvetica,sans-Serif" font-size="10.00">&lt; T, statdim_base&lt; nul</text>
<text text-anchor="middle" x="505" y="-52" font-family="Helvetica,sans-Serif" font-size="10.00">_code &gt; &gt;</text>
</a>
</g>
</g>
<!-- Node2&#45;&gt;Node1 -->
<g id="edge1" class="edge"><title>Node2&#45;&gt;Node1</title>
<path fill="none" stroke="midnightblue" d="M574.506,-65.5C583.247,-65.5 592.145,-65.5 600.752,-65.5"/>
<polygon fill="midnightblue" stroke="midnightblue" points="574.345,-62.0001 564.345,-65.5 574.345,-69.0001 574.345,-62.0001"/>
</g>
<!-- Node3 -->
<g id="node3" class="node"><title>Node3</title>
<g id="a_node3"><a xlink:href="structvnix_1_1units_1_1number.html" target="_top" xlink:title="Generic template for wrapper to disambiguate scalar from dimval and protected storage for numeric val...">
<polygon fill="white" stroke="black" points="0,-94 0,-113 124,-113 124,-94 0,-94"/>
<text text-anchor="middle" x="62" y="-101" font-family="Helvetica,sans-Serif" font-size="10.00">vnix::units::number&lt; T &gt;</text>
</a>
</g>
</g>
<!-- Node3&#45;&gt;Node2 -->
<g id="edge2" class="edge"><title>Node3&#45;&gt;Node2</title>
<path fill="none" stroke="darkgreen" d="M134.444,-107.351C208.513,-109.902 327.34,-109.947 428,-91.5 435.27,-90.1678 442.787,-88.2727 450.138,-86.1051"/>
<polygon fill="darkgreen" stroke="darkgreen" points="134.418,-103.848 124.296,-106.976 134.16,-110.843 134.418,-103.848"/>
</g>
<!-- Node6 -->
<g id="node6" class="node"><title>Node6</title>
<g id="a_node6"><a xlink:href="classvnix_1_1units_1_1dimval.html" target="_top" xlink:title="Model of a physically dimensioned quantity. ">
<polygon fill="white" stroke="black" points="223,-50.5 223,-80.5 319,-80.5 319,-50.5 223,-50.5"/>
<text text-anchor="start" x="231" y="-68.5" font-family="Helvetica,sans-Serif" font-size="10.00">vnix::units::dimval</text>
<text text-anchor="middle" x="271" y="-57.5" font-family="Helvetica,sans-Serif" font-size="10.00">&lt; T, B &gt;</text>
</a>
</g>
</g>
<!-- Node3&#45;&gt;Node6 -->
<g id="edge6" class="edge"><title>Node3&#45;&gt;Node6</title>
<path fill="none" stroke="darkgreen" d="M124.939,-92.1295C156.373,-86.3591 193.939,-79.4629 222.966,-74.1342"/>
<polygon fill="darkgreen" stroke="darkgreen" points="124.171,-88.7119 114.968,-93.96 125.435,-95.5969 124.171,-88.7119"/>
</g>
<!-- Node4 -->
<g id="node4" class="node"><title>Node4</title>
<g id="a_node4"><a xlink:href="structvnix_1_1units_1_1statdim__base.html" target="_top" xlink:title="vnix::units::statdim\l_base\&lt; nul_code \&gt;">
<polygon fill="white" stroke="black" points="221,-1.5 221,-31.5 321,-31.5 321,-1.5 221,-1.5"/>
<text text-anchor="start" x="229" y="-19.5" font-family="Helvetica,sans-Serif" font-size="10.00">vnix::units::statdim</text>
<text text-anchor="middle" x="271" y="-8.5" font-family="Helvetica,sans-Serif" font-size="10.00">_base&lt; nul_code &gt;</text>
</a>
</g>
</g>
<!-- Node4&#45;&gt;Node2 -->
<g id="edge3" class="edge"><title>Node4&#45;&gt;Node2</title>
<path fill="none" stroke="midnightblue" d="M331.33,-29.0308C366.501,-36.4592 410.887,-45.8339 445.85,-53.2182"/>
<polygon fill="midnightblue" stroke="midnightblue" points="331.709,-25.5337 321.201,-26.8916 330.262,-32.3827 331.709,-25.5337"/>
</g>
<!-- Node5 -->
<g id="node5" class="node"><title>Node5</title>
<g id="a_node5"><a xlink:href="structvnix_1_1units_1_1statdim__base.html" target="_top" xlink:title="Base&#45;type for a dimensioned value whose dimension is specified statically at compile&#45;time by way of a...">
<polygon fill="white" stroke="black" points="12,-0.5 12,-30.5 112,-30.5 112,-0.5 12,-0.5"/>
<text text-anchor="start" x="20" y="-18.5" font-family="Helvetica,sans-Serif" font-size="10.00">vnix::units::statdim</text>
<text text-anchor="middle" x="62" y="-7.5" font-family="Helvetica,sans-Serif" font-size="10.00">_base&lt; D &gt;</text>
</a>
</g>
</g>
<!-- Node5&#45;&gt;Node4 -->
<g id="edge4" class="edge"><title>Node5&#45;&gt;Node4</title>
<path fill="none" stroke="orange" stroke-dasharray="5,2" d="M122.369,-15.7868C153.588,-15.9376 191.398,-16.1203 220.938,-16.263"/>
<polygon fill="orange" stroke="orange" points="122.073,-12.2854 112.056,-15.737 122.039,-19.2854 122.073,-12.2854"/>
<text text-anchor="middle" x="172.5" y="-19.5" font-family="Helvetica,sans-Serif" font-size="10.00"> &lt; nul_code &gt;</text>
</g>
<!-- Node6&#45;&gt;Node2 -->
<g id="edge5" class="edge"><title>Node6&#45;&gt;Node2</title>
<path fill="none" stroke="orange" stroke-dasharray="5,2" d="M329.411,-65.5C364.835,-65.5 410.143,-65.5 445.726,-65.5"/>
<polygon fill="orange" stroke="orange" points="329.228,-62.0001 319.228,-65.5 329.228,-69.0001 329.228,-62.0001"/>
<text text-anchor="start" x="339" y="-79.5" font-family="Helvetica,sans-Serif" font-size="10.00"> &lt; T, statdim_base&lt;</text>
<text text-anchor="middle" x="383.5" y="-68.5" font-family="Helvetica,sans-Serif" font-size="10.00"> nul_code &gt; &gt;</text>
</g>
<!-- Node7 -->
<g id="node7" class="node"><title>Node7</title>
<polygon fill="white" stroke="#bfbfbf" points="47.5,-50 47.5,-69 76.5,-69 76.5,-50 47.5,-50"/>
<text text-anchor="middle" x="62" y="-57" font-family="Helvetica,sans-Serif" font-size="10.00">B</text>
</g>
<!-- Node7&#45;&gt;Node6 -->
<g id="edge7" class="edge"><title>Node7&#45;&gt;Node6</title>
<path fill="none" stroke="midnightblue" d="M86.6506,-60.1855C119.653,-61.1421 180.238,-62.8982 222.705,-64.1291"/>
<polygon fill="midnightblue" stroke="midnightblue" points="86.6791,-56.685 76.5818,-59.8937 86.4762,-63.682 86.6791,-56.685"/>
</g>
</g>
</svg>
