<?xml version="1.0" encoding="UTF-8" standalone="no"?>
<!DOCTYPE svg PUBLIC "-//W3C//DTD SVG 1.1//EN"
 "http://www.w3.org/Graphics/SVG/1.1/DTD/svg11.dtd">
<!-- Generated by graphviz version 2.38.0 (20140413.2041)
 -->
<!-- Title: vnix::rat::rational::to_bool Pages: 1 -->
<svg width="247pt" height="88pt"
 viewBox="0.00 0.00 247.00 88.00" xmlns="http://www.w3.org/2000/svg" xmlns:xlink="http://www.w3.org/1999/xlink">
<g id="graph0" class="graph" transform="scale(1 1) rotate(0) translate(4 84)">
<title>vnix::rat::rational::to_bool</title>
<polygon fill="white" stroke="none" points="-4,4 -4,-84 243,-84 243,4 -4,4"/>
<!-- Node1 -->
<g id="node1" class="node"><title>Node1</title>
<polygon fill="#bfbfbf" stroke="black" points="0,-19 0,-49 89,-49 89,-19 0,-19"/>
<text text-anchor="start" x="8" y="-37" font-family="Helvetica,sans-Serif" font-size="10.00">vnix::rat::rational</text>
<text text-anchor="middle" x="44.5" y="-26" font-family="Helvetica,sans-Serif" font-size="10.00">::to_bool</text>
</g>
<!-- Node2 -->
<g id="node2" class="node"><title>Node2</title>
<g id="a_node2"><a xlink:href="classvnix_1_1units_1_1basic__dim.html#a747876034fa13586aebe43b780d8b933" target="_top" xlink:title="Print to output stream the symbolic contribution from a given unit. ">
<polygon fill="white" stroke="black" points="125,-38.5 125,-79.5 239,-79.5 239,-38.5 125,-38.5"/>
<text text-anchor="start" x="133" y="-67.5" font-family="Helvetica,sans-Serif" font-size="10.00">vnix::units::basic</text>
<text text-anchor="start" x="133" y="-56.5" font-family="Helvetica,sans-Serif" font-size="10.00">_dim&lt; dim_base_off &gt;</text>
<text text-anchor="middle" x="182" y="-45.5" font-family="Helvetica,sans-Serif" font-size="10.00">::print_unit</text>
</a>
</g>
</g>
<!-- Node1&#45;&gt;Node2 -->
<g id="edge1" class="edge"><title>Node1&#45;&gt;Node2</title>
<path fill="none" stroke="midnightblue" d="M99.1357,-43.8959C107.5,-45.439 116.164,-47.0376 124.587,-48.5918"/>
<polygon fill="midnightblue" stroke="midnightblue" points="99.588,-40.4203 89.1189,-42.0478 98.3179,-47.3042 99.588,-40.4203"/>
</g>
<!-- Node3 -->
<g id="node3" class="node"><title>Node3</title>
<g id="a_node3"><a xlink:href="rational-test_8cpp.html#a929fe5b1a039869aca708bc1a81b8acb" target="_top" xlink:title="TEST_CASE">
<polygon fill="white" stroke="black" points="144.5,-0.5 144.5,-19.5 219.5,-19.5 219.5,-0.5 144.5,-0.5"/>
<text text-anchor="middle" x="182" y="-7.5" font-family="Helvetica,sans-Serif" font-size="10.00">TEST_CASE</text>
</a>
</g>
</g>
<!-- Node1&#45;&gt;Node3 -->
<g id="edge2" class="edge"><title>Node1&#45;&gt;Node3</title>
<path fill="none" stroke="midnightblue" d="M99.3587,-24.4605C114.426,-21.7916 130.452,-18.9531 144.279,-16.5041"/>
<polygon fill="midnightblue" stroke="midnightblue" points="98.3552,-21.0836 89.1189,-26.2741 99.5761,-27.9763 98.3552,-21.0836"/>
</g>
</g>
</svg>
