<?xml version="1.0" encoding="UTF-8" standalone="no"?>
<!DOCTYPE svg PUBLIC "-//W3C//DTD SVG 1.1//EN"
 "http://www.w3.org/Graphics/SVG/1.1/DTD/svg11.dtd">
<!-- Generated by graphviz version 2.38.0 (20140413.2041)
 -->
<!-- Title: vnix::rat::rational::rational Pages: 1 -->
<svg width="368pt" height="284pt"
 viewBox="0.00 0.00 368.00 283.50" xmlns="http://www.w3.org/2000/svg" xmlns:xlink="http://www.w3.org/1999/xlink">
<g id="graph0" class="graph" transform="scale(1 1) rotate(0) translate(4 279.5)">
<title>vnix::rat::rational::rational</title>
<polygon fill="white" stroke="none" points="-4,4 -4,-279.5 364,-279.5 364,4 -4,4"/>
<!-- Node1 -->
<g id="node1" class="node"><title>Node1</title>
<polygon fill="#bfbfbf" stroke="black" points="0,-122.5 0,-152.5 89,-152.5 89,-122.5 0,-122.5"/>
<text text-anchor="start" x="8" y="-140.5" font-family="Helvetica,sans-Serif" font-size="10.00">vnix::rat::rational</text>
<text text-anchor="middle" x="44.5" y="-129.5" font-family="Helvetica,sans-Serif" font-size="10.00">::rational</text>
</g>
<!-- Node2 -->
<g id="node2" class="node"><title>Node2</title>
<g id="a_node2"><a xlink:href="common-denom-test_8cpp.html#a7555d19a29f792b9d6be847bdb19c345" target="_top" xlink:title="TEST_CASE">
<polygon fill="white" stroke="black" points="149.5,-256 149.5,-275 224.5,-275 224.5,-256 149.5,-256"/>
<text text-anchor="middle" x="187" y="-263" font-family="Helvetica,sans-Serif" font-size="10.00">TEST_CASE</text>
</a>
</g>
</g>
<!-- Node1&#45;&gt;Node2 -->
<g id="edge1" class="edge"><title>Node1&#45;&gt;Node2</title>
<path fill="none" stroke="midnightblue" d="M57.1984,-161.662C70.3786,-186.427 94.0634,-224.354 125,-246.5 132.215,-251.665 140.878,-255.458 149.379,-258.231"/>
<polygon fill="midnightblue" stroke="midnightblue" points="60.2027,-159.851 52.5125,-152.563 53.9795,-163.056 60.2027,-159.851"/>
</g>
<!-- Node3 -->
<g id="node3" class="node"><title>Node3</title>
<g id="a_node3"><a xlink:href="classvnix_1_1units_1_1basic__dim.html#a747876034fa13586aebe43b780d8b933" target="_top" xlink:title="Print to output stream the symbolic contribution from a given unit. ">
<polygon fill="white" stroke="black" points="130,-196 130,-237 244,-237 244,-196 130,-196"/>
<text text-anchor="start" x="138" y="-225" font-family="Helvetica,sans-Serif" font-size="10.00">vnix::units::basic</text>
<text text-anchor="start" x="138" y="-214" font-family="Helvetica,sans-Serif" font-size="10.00">_dim&lt; dim_base_off &gt;</text>
<text text-anchor="middle" x="187" y="-203" font-family="Helvetica,sans-Serif" font-size="10.00">::print_unit</text>
</a>
</g>
</g>
<!-- Node1&#45;&gt;Node3 -->
<g id="edge2" class="edge"><title>Node1&#45;&gt;Node3</title>
<path fill="none" stroke="midnightblue" d="M76.6033,-158.252C91.0778,-167.598 108.671,-178.524 125,-187.5 130.138,-190.324 135.596,-193.152 141.053,-195.873"/>
<polygon fill="midnightblue" stroke="midnightblue" points="78.3223,-155.194 68.0331,-152.668 74.5011,-161.059 78.3223,-155.194"/>
</g>
<!-- Node4 -->
<g id="node4" class="node"><title>Node4</title>
<g id="a_node4"><a xlink:href="classvnix_1_1units_1_1dyndim__base.html#a0aa047179ef5e795a338092e5c05a832" target="_top" xlink:title="Dimension for rational power of dimensioned value. ">
<polygon fill="white" stroke="black" points="137.5,-147.5 137.5,-177.5 236.5,-177.5 236.5,-147.5 137.5,-147.5"/>
<text text-anchor="start" x="145.5" y="-165.5" font-family="Helvetica,sans-Serif" font-size="10.00">vnix::units::dyndim</text>
<text text-anchor="middle" x="187" y="-154.5" font-family="Helvetica,sans-Serif" font-size="10.00">_base::pow</text>
</a>
</g>
</g>
<!-- Node1&#45;&gt;Node4 -->
<g id="edge3" class="edge"><title>Node1&#45;&gt;Node4</title>
<path fill="none" stroke="midnightblue" d="M99.1002,-147.037C111.709,-149.281 125.076,-151.659 137.448,-153.861"/>
<polygon fill="midnightblue" stroke="midnightblue" points="99.6434,-143.579 89.1849,-145.273 98.4171,-150.471 99.6434,-143.579"/>
</g>
<!-- Node6 -->
<g id="node6" class="node"><title>Node6</title>
<g id="a_node6"><a xlink:href="classvnix_1_1units_1_1dyndim__base.html#af8332e5813c5990b4b642aa1427af84c" target="_top" xlink:title="Dimension for square&#45;root of dimensioned value. ">
<polygon fill="white" stroke="black" points="137.5,-98.5 137.5,-128.5 236.5,-128.5 236.5,-98.5 137.5,-98.5"/>
<text text-anchor="start" x="145.5" y="-116.5" font-family="Helvetica,sans-Serif" font-size="10.00">vnix::units::dyndim</text>
<text text-anchor="middle" x="187" y="-105.5" font-family="Helvetica,sans-Serif" font-size="10.00">_base::sqrt</text>
</a>
</g>
</g>
<!-- Node1&#45;&gt;Node6 -->
<g id="edge5" class="edge"><title>Node1&#45;&gt;Node6</title>
<path fill="none" stroke="midnightblue" d="M99.1002,-128.344C111.709,-126.19 125.076,-123.907 137.448,-121.794"/>
<polygon fill="midnightblue" stroke="midnightblue" points="98.4528,-124.904 89.1849,-130.038 99.6315,-131.804 98.4528,-124.904"/>
</g>
<!-- Node7 -->
<g id="node7" class="node"><title>Node7</title>
<g id="a_node7"><a xlink:href="structvnix_1_1units_1_1statdim__base.html#aa926d3e97910964a5db96043a0003d80" target="_top" xlink:title="Dimension for rational power of dimensioned value. ">
<polygon fill="white" stroke="black" points="125,-49.5 125,-79.5 249,-79.5 249,-49.5 125,-49.5"/>
<text text-anchor="start" x="133" y="-67.5" font-family="Helvetica,sans-Serif" font-size="10.00">vnix::units::statdim</text>
<text text-anchor="middle" x="187" y="-56.5" font-family="Helvetica,sans-Serif" font-size="10.00">_base&lt; nul_code &gt;::pow</text>
</a>
</g>
</g>
<!-- Node1&#45;&gt;Node7 -->
<g id="edge7" class="edge"><title>Node1&#45;&gt;Node7</title>
<path fill="none" stroke="midnightblue" d="M76.7976,-117.072C91.188,-108.082 108.659,-97.72 125,-89.5 131.85,-86.054 139.293,-82.6994 146.549,-79.6243"/>
<polygon fill="midnightblue" stroke="midnightblue" points="74.8554,-114.159 68.2733,-122.461 78.5961,-120.076 74.8554,-114.159"/>
</g>
<!-- Node8 -->
<g id="node8" class="node"><title>Node8</title>
<g id="a_node8"><a xlink:href="structvnix_1_1units_1_1statdim__base.html#a583b008e4d47a3c43ac9a42c2e9c47a6" target="_top" xlink:title="Dimension for square&#45;root of dimensioned value. ">
<polygon fill="white" stroke="black" points="126,-0.5 126,-30.5 248,-30.5 248,-0.5 126,-0.5"/>
<text text-anchor="start" x="134" y="-18.5" font-family="Helvetica,sans-Serif" font-size="10.00">vnix::units::statdim</text>
<text text-anchor="middle" x="187" y="-7.5" font-family="Helvetica,sans-Serif" font-size="10.00">_base&lt; nul_code &gt;::sqrt</text>
</a>
</g>
</g>
<!-- Node1&#45;&gt;Node8 -->
<g id="edge8" class="edge"><title>Node1&#45;&gt;Node8</title>
<path fill="none" stroke="midnightblue" d="M59.9803,-113.799C74.2153,-92.1934 97.7301,-60.6595 125,-40.5 130.062,-36.758 135.764,-33.4699 141.598,-30.6135"/>
<polygon fill="midnightblue" stroke="midnightblue" points="56.9227,-112.084 54.4639,-122.389 62.8127,-115.866 56.9227,-112.084"/>
</g>
<!-- Node5 -->
<g id="node5" class="node"><title>Node5</title>
<g id="a_node5"><a xlink:href="dyndim-base-test_8cpp.html#a651290a9dc844b4c8231407ec8af1032" target="_top" xlink:title="TEST_CASE">
<polygon fill="white" stroke="black" points="285,-128 285,-147 360,-147 360,-128 285,-128"/>
<text text-anchor="middle" x="322.5" y="-135" font-family="Helvetica,sans-Serif" font-size="10.00">TEST_CASE</text>
</a>
</g>
</g>
<!-- Node4&#45;&gt;Node5 -->
<g id="edge4" class="edge"><title>Node4&#45;&gt;Node5</title>
<path fill="none" stroke="midnightblue" d="M246.448,-151.555C259.514,-149.108 273.011,-146.58 284.895,-144.355"/>
<polygon fill="midnightblue" stroke="midnightblue" points="245.759,-148.123 236.574,-153.404 247.048,-155.003 245.759,-148.123"/>
</g>
<!-- Node6&#45;&gt;Node5 -->
<g id="edge6" class="edge"><title>Node6&#45;&gt;Node5</title>
<path fill="none" stroke="midnightblue" d="M246.448,-124.008C259.514,-126.356 273.011,-128.783 284.895,-130.919"/>
<polygon fill="midnightblue" stroke="midnightblue" points="247.036,-120.557 236.574,-122.232 245.797,-127.447 247.036,-120.557"/>
</g>
</g>
</svg>
