<?xml version="1.0" encoding="UTF-8" standalone="no"?>
<!DOCTYPE svg PUBLIC "-//W3C//DTD SVG 1.1//EN"
 "http://www.w3.org/Graphics/SVG/1.1/DTD/svg11.dtd">
<!-- Generated by graphviz version 2.38.0 (20140413.2041)
 -->
<!-- Title: vnix::units::basic_dim::basic_dim Pages: 1 -->
<svg width="254pt" height="99pt"
 viewBox="0.00 0.00 254.00 98.50" xmlns="http://www.w3.org/2000/svg" xmlns:xlink="http://www.w3.org/1999/xlink">
<g id="graph0" class="graph" transform="scale(1 1) rotate(0) translate(4 94.5)">
<title>vnix::units::basic_dim::basic_dim</title>
<polygon fill="white" stroke="none" points="-4,4 -4,-94.5 250,-94.5 250,4 -4,4"/>
<!-- Node1 -->
<g id="node1" class="node"><title>Node1</title>
<polygon fill="#bfbfbf" stroke="black" points="0,-27.5 0,-57.5 91,-57.5 91,-27.5 0,-27.5"/>
<text text-anchor="start" x="8" y="-45.5" font-family="Helvetica,sans-Serif" font-size="10.00">vnix::units::basic</text>
<text text-anchor="middle" x="45.5" y="-34.5" font-family="Helvetica,sans-Serif" font-size="10.00">_dim::basic_dim</text>
</g>
<!-- Node2 -->
<g id="node2" class="node"><title>Node2</title>
<g id="a_node2"><a xlink:href="classvnix_1_1units_1_1dimval.html#a8b351533f4f3f1032326a1de0dede8ce" target="_top" xlink:title="Initialize from dimensionless number. ">
<polygon fill="white" stroke="black" points="127.5,-49 127.5,-90 245.5,-90 245.5,-49 127.5,-49"/>
<text text-anchor="start" x="135.5" y="-78" font-family="Helvetica,sans-Serif" font-size="10.00">vnix::units::dimval</text>
<text text-anchor="start" x="135.5" y="-67" font-family="Helvetica,sans-Serif" font-size="10.00">&lt; T, statdim_base&lt; nul</text>
<text text-anchor="middle" x="186.5" y="-56" font-family="Helvetica,sans-Serif" font-size="10.00">_code &gt; &gt;::dimval</text>
</a>
</g>
</g>
<!-- Node1&#45;&gt;Node2 -->
<g id="edge1" class="edge"><title>Node1&#45;&gt;Node2</title>
<path fill="none" stroke="midnightblue" d="M101.099,-53.1056C109.644,-54.7654 118.505,-56.4865 127.13,-58.162"/>
<polygon fill="midnightblue" stroke="midnightblue" points="101.73,-49.6627 91.2456,-51.1916 100.395,-56.5343 101.73,-49.6627"/>
</g>
<!-- Node3 -->
<g id="node3" class="node"><title>Node3</title>
<g id="a_node3"><a xlink:href="classvnix_1_1units_1_1basic__dyndim.html#ad5fcf955d18bdd679d07e4c9395a4b97" target="_top" xlink:title="Convert from number. ">
<polygon fill="white" stroke="black" points="127,-0.5 127,-30.5 246,-30.5 246,-0.5 127,-0.5"/>
<text text-anchor="start" x="135" y="-18.5" font-family="Helvetica,sans-Serif" font-size="10.00">vnix::units::basic</text>
<text text-anchor="middle" x="186.5" y="-7.5" font-family="Helvetica,sans-Serif" font-size="10.00">_dyndim::basic_dyndim</text>
</a>
</g>
</g>
<!-- Node1&#45;&gt;Node3 -->
<g id="edge2" class="edge"><title>Node1&#45;&gt;Node3</title>
<path fill="none" stroke="midnightblue" d="M101.306,-31.8542C109.705,-30.2228 118.403,-28.5332 126.88,-26.8865"/>
<polygon fill="midnightblue" stroke="midnightblue" points="100.395,-28.4657 91.2456,-33.8084 101.73,-35.3373 100.395,-28.4657"/>
</g>
</g>
</svg>
