<?xml version="1.0" encoding="UTF-8" standalone="no"?>
<!DOCTYPE svg PUBLIC "-//W3C//DTD SVG 1.1//EN"
 "http://www.w3.org/Graphics/SVG/1.1/DTD/svg11.dtd">
<!-- Generated by graphviz version 2.38.0 (20140413.2041)
 -->
<!-- Title: vnix::units::basic_dim::operator!= Pages: 1 -->
<svg width="410pt" height="284pt"
 viewBox="0.00 0.00 410.00 284.00" xmlns="http://www.w3.org/2000/svg" xmlns:xlink="http://www.w3.org/1999/xlink">
<g id="graph0" class="graph" transform="scale(1 1) rotate(0) translate(4 280)">
<title>vnix::units::basic_dim::operator!=</title>
<polygon fill="white" stroke="none" points="-4,4 -4,-280 406,-280 406,4 -4,4"/>
<!-- Node1 -->
<g id="node1" class="node"><title>Node1</title>
<polygon fill="#bfbfbf" stroke="black" points="0,-122.5 0,-152.5 91,-152.5 91,-122.5 0,-122.5"/>
<text text-anchor="start" x="8" y="-140.5" font-family="Helvetica,sans-Serif" font-size="10.00">vnix::units::basic</text>
<text text-anchor="middle" x="45.5" y="-129.5" font-family="Helvetica,sans-Serif" font-size="10.00">_dim::operator!=</text>
</g>
<!-- Node2 -->
<g id="node2" class="node"><title>Node2</title>
<g id="a_node2"><a xlink:href="classvnix_1_1units_1_1dyndim__base.html#ab768577582b85ed443b8ab727ccfed87" target="_top" xlink:title="Throw if dimension be non&#45;null. ">
<polygon fill="white" stroke="black" points="159.5,-245.5 159.5,-275.5 258.5,-275.5 258.5,-245.5 159.5,-245.5"/>
<text text-anchor="start" x="167.5" y="-263.5" font-family="Helvetica,sans-Serif" font-size="10.00">vnix::units::dyndim</text>
<text text-anchor="middle" x="209" y="-252.5" font-family="Helvetica,sans-Serif" font-size="10.00">_base::number</text>
</a>
</g>
</g>
<!-- Node1&#45;&gt;Node2 -->
<g id="edge1" class="edge"><title>Node1&#45;&gt;Node2</title>
<path fill="none" stroke="midnightblue" d="M60.0022,-161.293C73.9789,-183.837 97.8416,-217.058 127,-236.5 136.64,-242.928 148.044,-247.674 159.206,-251.164"/>
<polygon fill="midnightblue" stroke="midnightblue" points="62.9545,-159.411 54.8001,-152.647 56.9564,-163.02 62.9545,-159.411"/>
</g>
<!-- Node3 -->
<g id="node3" class="node"><title>Node3</title>
<g id="a_node3"><a xlink:href="structvnix_1_1units_1_1statdim__base.html#ad0dbe5878e8ffbad36abd4855c07a5b6" target="_top" xlink:title="Check for compatibility on contruction from dim. ">
<polygon fill="white" stroke="black" points="127,-196.5 127,-226.5 291,-226.5 291,-196.5 127,-196.5"/>
<text text-anchor="start" x="135" y="-214.5" font-family="Helvetica,sans-Serif" font-size="10.00">vnix::units::statdim</text>
<text text-anchor="middle" x="209" y="-203.5" font-family="Helvetica,sans-Serif" font-size="10.00">_base&lt; nul_code &gt;::statdim_base</text>
</a>
</g>
</g>
<!-- Node1&#45;&gt;Node3 -->
<g id="edge2" class="edge"><title>Node1&#45;&gt;Node3</title>
<path fill="none" stroke="midnightblue" d="M76.1703,-158.594C90.9294,-168.383 109.35,-179.577 127,-187.5 134.359,-190.804 142.295,-193.795 150.22,-196.457"/>
<polygon fill="midnightblue" stroke="midnightblue" points="77.737,-155.429 67.4934,-152.723 73.8141,-161.226 77.737,-155.429"/>
</g>
<!-- Node4 -->
<g id="node4" class="node"><title>Node4</title>
<g id="a_node4"><a xlink:href="structvnix_1_1units_1_1statdim__base.html#af7c50c56e88d8e886628f8085df1984e" target="_top" xlink:title="Throw if dimension be non&#45;null. ">
<polygon fill="white" stroke="black" points="140,-147.5 140,-177.5 278,-177.5 278,-147.5 140,-147.5"/>
<text text-anchor="start" x="148" y="-165.5" font-family="Helvetica,sans-Serif" font-size="10.00">vnix::units::statdim</text>
<text text-anchor="middle" x="209" y="-154.5" font-family="Helvetica,sans-Serif" font-size="10.00">_base&lt; nul_code &gt;::number</text>
</a>
</g>
</g>
<!-- Node1&#45;&gt;Node4 -->
<g id="edge3" class="edge"><title>Node1&#45;&gt;Node4</title>
<path fill="none" stroke="midnightblue" d="M101.261,-145.977C113.7,-147.902 127.061,-149.971 139.976,-151.97"/>
<polygon fill="midnightblue" stroke="midnightblue" points="101.476,-142.469 91.0581,-144.398 100.405,-149.386 101.476,-142.469"/>
</g>
<!-- Node5 -->
<g id="node5" class="node"><title>Node5</title>
<g id="a_node5"><a xlink:href="structvnix_1_1units_1_1statdim__base.html#a8f8abe8591ffd36b2b51d86ff5b40f99" target="_top" xlink:title="Test for comparison of dimensioned values. ">
<polygon fill="white" stroke="black" points="159,-98.5 159,-128.5 259,-128.5 259,-98.5 159,-98.5"/>
<text text-anchor="start" x="167" y="-116.5" font-family="Helvetica,sans-Serif" font-size="10.00">vnix::units::statdim</text>
<text text-anchor="middle" x="209" y="-105.5" font-family="Helvetica,sans-Serif" font-size="10.00">_base::comparison</text>
</a>
</g>
</g>
<!-- Node1&#45;&gt;Node5 -->
<g id="edge4" class="edge"><title>Node1&#45;&gt;Node5</title>
<path fill="none" stroke="midnightblue" d="M101.178,-129.375C119.831,-126.603 140.563,-123.522 158.762,-120.817"/>
<polygon fill="midnightblue" stroke="midnightblue" points="100.435,-125.946 91.0581,-130.878 101.464,-132.87 100.435,-125.946"/>
</g>
<!-- Node6 -->
<g id="node6" class="node"><title>Node6</title>
<g id="a_node6"><a xlink:href="structvnix_1_1units_1_1statdim__base.html#a1befd7a6604e4f170df45a7a634a4ac2" target="_top" xlink:title="Dimension for sum of dimensioned values. ">
<polygon fill="white" stroke="black" points="159,-49.5 159,-79.5 259,-79.5 259,-49.5 159,-49.5"/>
<text text-anchor="start" x="167" y="-67.5" font-family="Helvetica,sans-Serif" font-size="10.00">vnix::units::statdim</text>
<text text-anchor="middle" x="209" y="-56.5" font-family="Helvetica,sans-Serif" font-size="10.00">_base::sum</text>
</a>
</g>
</g>
<!-- Node1&#45;&gt;Node6 -->
<g id="edge5" class="edge"><title>Node1&#45;&gt;Node6</title>
<path fill="none" stroke="midnightblue" d="M77.2591,-116.804C91.8874,-107.583 109.886,-97.1121 127,-89.5 137.085,-85.0141 148.213,-81.0109 158.908,-77.5926"/>
<polygon fill="midnightblue" stroke="midnightblue" points="75.1495,-113.999 68.6247,-122.346 78.9308,-119.89 75.1495,-113.999"/>
</g>
<!-- Node8 -->
<g id="node8" class="node"><title>Node8</title>
<g id="a_node8"><a xlink:href="structvnix_1_1units_1_1statdim__base.html#a3ddefd8c3787a5a8830765b434cdabfc" target="_top" xlink:title="Dimension for difference of dimensioned values. ">
<polygon fill="white" stroke="black" points="159,-0.5 159,-30.5 259,-30.5 259,-0.5 159,-0.5"/>
<text text-anchor="start" x="167" y="-18.5" font-family="Helvetica,sans-Serif" font-size="10.00">vnix::units::statdim</text>
<text text-anchor="middle" x="209" y="-7.5" font-family="Helvetica,sans-Serif" font-size="10.00">_base::diff</text>
</a>
</g>
</g>
<!-- Node1&#45;&gt;Node8 -->
<g id="edge7" class="edge"><title>Node1&#45;&gt;Node8</title>
<path fill="none" stroke="midnightblue" d="M60.587,-113.602C74.7365,-91.586 98.4944,-59.5336 127,-40.5 136.547,-34.1255 147.796,-29.3146 158.823,-25.7063"/>
<polygon fill="midnightblue" stroke="midnightblue" points="57.4493,-112.019 55.1254,-122.356 63.3882,-115.725 57.4493,-112.019"/>
</g>
<!-- Node7 -->
<g id="node7" class="node"><title>Node7</title>
<g id="a_node7"><a xlink:href="statdim-base-test_8cpp.html#a95fc148edfd36651685893df8bb3eaaa" target="_top" xlink:title="TEST_CASE">
<polygon fill="white" stroke="black" points="327,-30 327,-49 402,-49 402,-30 327,-30"/>
<text text-anchor="middle" x="364.5" y="-37" font-family="Helvetica,sans-Serif" font-size="10.00">TEST_CASE</text>
</a>
</g>
</g>
<!-- Node6&#45;&gt;Node7 -->
<g id="edge6" class="edge"><title>Node6&#45;&gt;Node7</title>
<path fill="none" stroke="midnightblue" d="M269.368,-54.8309C288.73,-51.6775 309.65,-48.2704 326.84,-45.4707"/>
<polygon fill="midnightblue" stroke="midnightblue" points="268.721,-51.3902 259.413,-56.4522 269.846,-58.2991 268.721,-51.3902"/>
</g>
<!-- Node8&#45;&gt;Node7 -->
<g id="edge8" class="edge"><title>Node8&#45;&gt;Node7</title>
<path fill="none" stroke="midnightblue" d="M269.368,-24.7824C288.73,-27.8096 309.65,-31.0805 326.84,-33.7681"/>
<polygon fill="midnightblue" stroke="midnightblue" points="269.834,-21.3127 259.413,-23.2259 268.753,-28.2287 269.834,-21.3127"/>
</g>
</g>
</svg>
