<?xml version="1.0" encoding="UTF-8" standalone="no"?>
<!DOCTYPE svg PUBLIC "-//W3C//DTD SVG 1.1//EN"
 "http://www.w3.org/Graphics/SVG/1.1/DTD/svg11.dtd">
<!-- Generated by graphviz version 2.38.0 (20140413.2041)
 -->
<!-- Title: vnix::rat::rational&lt; NB, DB &gt; Pages: 1 -->
<svg width="151pt" height="263pt"
 viewBox="0.00 0.00 151.00 263.00" xmlns="http://www.w3.org/2000/svg" xmlns:xlink="http://www.w3.org/1999/xlink">
<g id="graph0" class="graph" transform="scale(1 1) rotate(0) translate(4 259)">
<title>vnix::rat::rational&lt; NB, DB &gt;</title>
<polygon fill="white" stroke="none" points="-4,4 -4,-259 147,-259 147,4 -4,4"/>
<!-- Node1 -->
<g id="node1" class="node"><title>Node1</title>
<polygon fill="#bfbfbf" stroke="black" points="27,-78.5 27,-108.5 116,-108.5 116,-78.5 27,-78.5"/>
<text text-anchor="start" x="35" y="-96.5" font-family="Helvetica,sans-Serif" font-size="10.00">vnix::rat::rational</text>
<text text-anchor="middle" x="71.5" y="-85.5" font-family="Helvetica,sans-Serif" font-size="10.00">&lt; NB, DB &gt;</text>
</g>
<!-- Node4 -->
<g id="node4" class="node"><title>Node4</title>
<g id="a_node4"><a xlink:href="classvnix_1_1rat_1_1rational.html" target="_top" xlink:title="vnix::rat::rational\l\&lt; 4, 2 \&gt;">
<polygon fill="white" stroke="black" points="27,-0.5 27,-30.5 116,-30.5 116,-0.5 27,-0.5"/>
<text text-anchor="start" x="35" y="-18.5" font-family="Helvetica,sans-Serif" font-size="10.00">vnix::rat::rational</text>
<text text-anchor="middle" x="71.5" y="-7.5" font-family="Helvetica,sans-Serif" font-size="10.00">&lt; 4, 2 &gt;</text>
</a>
</g>
</g>
<!-- Node1&#45;&gt;Node4 -->
<g id="edge3" class="edge"><title>Node1&#45;&gt;Node4</title>
<path fill="none" stroke="orange" stroke-dasharray="5,2" d="M71.5,-68.0898C71.5,-55.7565 71.5,-41.2237 71.5,-30.7309"/>
<polygon fill="orange" stroke="orange" points="68.0001,-68.2049 71.5,-78.205 75.0001,-68.205 68.0001,-68.2049"/>
<text text-anchor="middle" x="90.5" y="-52" font-family="Helvetica,sans-Serif" font-size="10.00"> &lt; 4, 2 &gt;</text>
</g>
<!-- Node2 -->
<g id="node2" class="node"><title>Node2</title>
<g id="a_node2"><a xlink:href="classvnix_1_1rat_1_1encoding.html" target="_top" xlink:title="vnix::rat::encoding\l\&lt; NB, DB \&gt;">
<polygon fill="white" stroke="black" points="23,-146.5 23,-176.5 120,-176.5 120,-146.5 23,-146.5"/>
<text text-anchor="start" x="31" y="-164.5" font-family="Helvetica,sans-Serif" font-size="10.00">vnix::rat::encoding</text>
<text text-anchor="middle" x="71.5" y="-153.5" font-family="Helvetica,sans-Serif" font-size="10.00">&lt; NB, DB &gt;</text>
</a>
</g>
</g>
<!-- Node2&#45;&gt;Node1 -->
<g id="edge1" class="edge"><title>Node2&#45;&gt;Node1</title>
<path fill="none" stroke="midnightblue" d="M71.5,-136.032C71.5,-126.861 71.5,-116.745 71.5,-108.793"/>
<polygon fill="midnightblue" stroke="midnightblue" points="68.0001,-136.179 71.5,-146.179 75.0001,-136.179 68.0001,-136.179"/>
</g>
<!-- Node3 -->
<g id="node3" class="node"><title>Node3</title>
<g id="a_node3"><a xlink:href="classvnix_1_1rat_1_1encoding.html" target="_top" xlink:title="Encoding of numerator and denominator into unsigned word. ">
<polygon fill="white" stroke="black" points="0,-224.5 0,-254.5 143,-254.5 143,-224.5 0,-224.5"/>
<text text-anchor="start" x="8" y="-242.5" font-family="Helvetica,sans-Serif" font-size="10.00">vnix::rat::encoding</text>
<text text-anchor="middle" x="71.5" y="-231.5" font-family="Helvetica,sans-Serif" font-size="10.00">&lt; NMR_BITS, DNM_BITS &gt;</text>
</a>
</g>
</g>
<!-- Node3&#45;&gt;Node2 -->
<g id="edge2" class="edge"><title>Node3&#45;&gt;Node2</title>
<path fill="none" stroke="orange" stroke-dasharray="5,2" d="M71.5,-214.09C71.5,-201.757 71.5,-187.224 71.5,-176.731"/>
<polygon fill="orange" stroke="orange" points="68.0001,-214.205 71.5,-224.205 75.0001,-214.205 68.0001,-214.205"/>
<text text-anchor="middle" x="99.5" y="-198" font-family="Helvetica,sans-Serif" font-size="10.00"> &lt; NB, DB &gt;</text>
</g>
</g>
</svg>
