<?xml version="1.0" encoding="UTF-8" standalone="no"?>
<!DOCTYPE svg PUBLIC "-//W3C//DTD SVG 1.1//EN"
 "http://www.w3.org/Graphics/SVG/1.1/DTD/svg11.dtd">
<!-- Generated by graphviz version 2.38.0 (20140413.2041)
 -->
<!-- Title: vnix::rat::rational::decode Pages: 1 -->
<svg width="269pt" height="78pt"
 viewBox="0.00 0.00 269.00 77.50" xmlns="http://www.w3.org/2000/svg" xmlns:xlink="http://www.w3.org/1999/xlink">
<g id="graph0" class="graph" transform="scale(1 1) rotate(0) translate(4 73.5)">
<title>vnix::rat::rational::decode</title>
<polygon fill="white" stroke="none" points="-4,4 -4,-73.5 265,-73.5 265,4 -4,4"/>
<!-- Node1 -->
<g id="node1" class="node"><title>Node1</title>
<polygon fill="#bfbfbf" stroke="black" points="0,-17 0,-47 89,-47 89,-17 0,-17"/>
<text text-anchor="start" x="8" y="-35" font-family="Helvetica,sans-Serif" font-size="10.00">vnix::rat::rational</text>
<text text-anchor="middle" x="44.5" y="-24" font-family="Helvetica,sans-Serif" font-size="10.00">::decode</text>
</g>
<!-- Node2 -->
<g id="node2" class="node"><title>Node2</title>
<g id="a_node2"><a xlink:href="classvnix_1_1units_1_1basic__dim.html#a70e4a0435f4734aaa7f744df5b03d932" target="_top" xlink:title="Rational exponent at specified offset. ">
<polygon fill="white" stroke="black" points="125,-39 125,-69 261,-69 261,-39 125,-39"/>
<text text-anchor="start" x="133" y="-57" font-family="Helvetica,sans-Serif" font-size="10.00">vnix::units::basic</text>
<text text-anchor="middle" x="193" y="-46" font-family="Helvetica,sans-Serif" font-size="10.00">_dim&lt; dim_base_off &gt;::exp</text>
</a>
</g>
</g>
<!-- Node1&#45;&gt;Node2 -->
<g id="edge1" class="edge"><title>Node1&#45;&gt;Node2</title>
<path fill="none" stroke="midnightblue" d="M99.0341,-40.0393C107.389,-41.294 116.114,-42.6042 124.729,-43.8978"/>
<polygon fill="midnightblue" stroke="midnightblue" points="99.4671,-36.5651 89.0582,-38.5412 98.4275,-43.4875 99.4671,-36.5651"/>
</g>
<!-- Node3 -->
<g id="node3" class="node"><title>Node3</title>
<g id="a_node3"><a xlink:href="rational-test_8cpp.html#abd36eab5391683cda7e1d62c8f7c0549" target="_top" xlink:title="TEST_CASE">
<polygon fill="white" stroke="black" points="155.5,-0.5 155.5,-19.5 230.5,-19.5 230.5,-0.5 155.5,-0.5"/>
<text text-anchor="middle" x="193" y="-7.5" font-family="Helvetica,sans-Serif" font-size="10.00">TEST_CASE</text>
</a>
</g>
</g>
<!-- Node1&#45;&gt;Node3 -->
<g id="edge2" class="edge"><title>Node1&#45;&gt;Node3</title>
<path fill="none" stroke="midnightblue" d="M99.1978,-23.9362C117.848,-21.1355 138.323,-18.0608 155.284,-15.5136"/>
<polygon fill="midnightblue" stroke="midnightblue" points="98.4275,-20.5125 89.0582,-25.4588 99.4671,-27.4349 98.4275,-20.5125"/>
</g>
</g>
</svg>
