<?xml version="1.0" encoding="UTF-8" standalone="no"?>
<!DOCTYPE svg PUBLIC "-//W3C//DTD SVG 1.1//EN"
 "http://www.w3.org/Graphics/SVG/1.1/DTD/svg11.dtd">
<!-- Generated by graphviz version 2.38.0 (20140413.2041)
 -->
<!-- Title: vnix::rat::rational::to_double Pages: 1 -->
<svg width="251pt" height="88pt"
 viewBox="0.00 0.00 251.00 88.00" xmlns="http://www.w3.org/2000/svg" xmlns:xlink="http://www.w3.org/1999/xlink">
<g id="graph0" class="graph" transform="scale(1 1) rotate(0) translate(4 84)">
<title>vnix::rat::rational::to_double</title>
<polygon fill="white" stroke="none" points="-4,4 -4,-84 247,-84 247,4 -4,4"/>
<!-- Node1 -->
<g id="node1" class="node"><title>Node1</title>
<polygon fill="#bfbfbf" stroke="black" points="0,-19 0,-49 89,-49 89,-19 0,-19"/>
<text text-anchor="start" x="8" y="-37" font-family="Helvetica,sans-Serif" font-size="10.00">vnix::rat::rational</text>
<text text-anchor="middle" x="44.5" y="-26" font-family="Helvetica,sans-Serif" font-size="10.00">::to_double</text>
</g>
<!-- Node2 -->
<g id="node2" class="node"><title>Node2</title>
<g id="a_node2"><a xlink:href="classvnix_1_1units_1_1dimval.html#a2f9b8128463a1780f437eac7290fb40e" target="_top" xlink:title="Raise dimensioned value to rational power. ">
<polygon fill="white" stroke="black" points="125,-38.5 125,-79.5 243,-79.5 243,-38.5 125,-38.5"/>
<text text-anchor="start" x="133" y="-67.5" font-family="Helvetica,sans-Serif" font-size="10.00">vnix::units::dimval</text>
<text text-anchor="start" x="133" y="-56.5" font-family="Helvetica,sans-Serif" font-size="10.00">&lt; T, statdim_base&lt; nul</text>
<text text-anchor="middle" x="184" y="-45.5" font-family="Helvetica,sans-Serif" font-size="10.00">_code &gt; &gt;::power</text>
</a>
</g>
</g>
<!-- Node1&#45;&gt;Node2 -->
<g id="edge1" class="edge"><title>Node1&#45;&gt;Node2</title>
<path fill="none" stroke="midnightblue" d="M99.061,-43.7384C107.463,-45.2661 116.185,-46.8517 124.688,-48.3977"/>
<polygon fill="midnightblue" stroke="midnightblue" points="99.4707,-40.2555 89.0059,-41.9102 98.2184,-47.1426 99.4707,-40.2555"/>
</g>
<!-- Node3 -->
<g id="node3" class="node"><title>Node3</title>
<g id="a_node3"><a xlink:href="rational-test_8cpp.html#a929fe5b1a039869aca708bc1a81b8acb" target="_top" xlink:title="TEST_CASE">
<polygon fill="white" stroke="black" points="146.5,-0.5 146.5,-19.5 221.5,-19.5 221.5,-0.5 146.5,-0.5"/>
<text text-anchor="middle" x="184" y="-7.5" font-family="Helvetica,sans-Serif" font-size="10.00">TEST_CASE</text>
</a>
</g>
</g>
<!-- Node1&#45;&gt;Node3 -->
<g id="edge2" class="edge"><title>Node1&#45;&gt;Node3</title>
<path fill="none" stroke="midnightblue" d="M99.1649,-24.633C114.924,-21.8823 131.796,-18.9373 146.243,-16.4158"/>
<polygon fill="midnightblue" stroke="midnightblue" points="98.2551,-21.2388 89.0059,-26.4062 99.4588,-28.1346 98.2551,-21.2388"/>
</g>
</g>
</svg>
