<?xml version="1.0" encoding="UTF-8" standalone="no"?>
<!DOCTYPE svg PUBLIC "-//W3C//DTD SVG 1.1//EN"
 "http://www.w3.org/Graphics/SVG/1.1/DTD/svg11.dtd">
<!-- Generated by graphviz version 2.38.0 (20140413.2041)
 -->
<!-- Title: vnix::units::basic_dim::operator* Pages: 1 -->
<svg width="370pt" height="176pt"
 viewBox="0.00 0.00 370.00 175.50" xmlns="http://www.w3.org/2000/svg" xmlns:xlink="http://www.w3.org/1999/xlink">
<g id="graph0" class="graph" transform="scale(1 1) rotate(0) translate(4 171.5)">
<title>vnix::units::basic_dim::operator*</title>
<polygon fill="white" stroke="none" points="-4,4 -4,-171.5 366,-171.5 366,4 -4,4"/>
<!-- Node1 -->
<g id="node1" class="node"><title>Node1</title>
<polygon fill="#bfbfbf" stroke="black" points="0,-73.5 0,-103.5 91,-103.5 91,-73.5 0,-73.5"/>
<text text-anchor="start" x="8" y="-91.5" font-family="Helvetica,sans-Serif" font-size="10.00">vnix::units::basic</text>
<text text-anchor="middle" x="45.5" y="-80.5" font-family="Helvetica,sans-Serif" font-size="10.00">_dim::operator*</text>
</g>
<!-- Node2 -->
<g id="node2" class="node"><title>Node2</title>
<g id="a_node2"><a xlink:href="dim-test_8cpp.html#a77668883ebae8b86b529b7d7cfbc972a" target="_top" xlink:title="TEST_CASE">
<polygon fill="white" stroke="black" points="151.5,-148 151.5,-167 226.5,-167 226.5,-148 151.5,-148"/>
<text text-anchor="middle" x="189" y="-155" font-family="Helvetica,sans-Serif" font-size="10.00">TEST_CASE</text>
</a>
</g>
</g>
<!-- Node1&#45;&gt;Node2 -->
<g id="edge1" class="edge"><title>Node1&#45;&gt;Node2</title>
<path fill="none" stroke="midnightblue" d="M76.2189,-109.487C90.9894,-119.25 109.406,-130.455 127,-138.5 134.868,-142.098 143.605,-145.267 151.95,-147.935"/>
<polygon fill="midnightblue" stroke="midnightblue" points="77.7823,-106.32 67.5333,-103.635 73.871,-112.125 77.7823,-106.32"/>
</g>
<!-- Node3 -->
<g id="node3" class="node"><title>Node3</title>
<g id="a_node3"><a xlink:href="classvnix_1_1units_1_1dyndim__base.html#a0aa047179ef5e795a338092e5c05a832" target="_top" xlink:title="Dimension for rational power of dimensioned value. ">
<polygon fill="white" stroke="black" points="139.5,-98.5 139.5,-128.5 238.5,-128.5 238.5,-98.5 139.5,-98.5"/>
<text text-anchor="start" x="147.5" y="-116.5" font-family="Helvetica,sans-Serif" font-size="10.00">vnix::units::dyndim</text>
<text text-anchor="middle" x="189" y="-105.5" font-family="Helvetica,sans-Serif" font-size="10.00">_base::pow</text>
</a>
</g>
</g>
<!-- Node1&#45;&gt;Node3 -->
<g id="edge2" class="edge"><title>Node1&#45;&gt;Node3</title>
<path fill="none" stroke="midnightblue" d="M101.121,-98.1503C113.632,-100.361 126.853,-102.697 139.106,-104.861"/>
<polygon fill="midnightblue" stroke="midnightblue" points="101.728,-94.7035 91.2715,-96.4102 100.51,-101.597 101.728,-94.7035"/>
</g>
<!-- Node5 -->
<g id="node5" class="node"><title>Node5</title>
<g id="a_node5"><a xlink:href="structvnix_1_1units_1_1statdim__base.html#aa926d3e97910964a5db96043a0003d80" target="_top" xlink:title="Dimension for rational power of dimensioned value. ">
<polygon fill="white" stroke="black" points="127,-49.5 127,-79.5 251,-79.5 251,-49.5 127,-49.5"/>
<text text-anchor="start" x="135" y="-67.5" font-family="Helvetica,sans-Serif" font-size="10.00">vnix::units::statdim</text>
<text text-anchor="middle" x="189" y="-56.5" font-family="Helvetica,sans-Serif" font-size="10.00">_base&lt; nul_code &gt;::pow</text>
</a>
</g>
</g>
<!-- Node1&#45;&gt;Node5 -->
<g id="edge4" class="edge"><title>Node1&#45;&gt;Node5</title>
<path fill="none" stroke="midnightblue" d="M101.326,-79.2008C109.726,-77.7762 118.441,-76.298 126.965,-74.8523"/>
<polygon fill="midnightblue" stroke="midnightblue" points="100.545,-75.7832 91.2715,-80.9062 101.716,-82.6847 100.545,-75.7832"/>
</g>
<!-- Node6 -->
<g id="node6" class="node"><title>Node6</title>
<g id="a_node6"><a xlink:href="structvnix_1_1units_1_1statdim__base.html#aed21dfa8317daf91d9a0b9c5d893f57b" target="_top" xlink:title="Dimension for rational power of dimensioned value. ">
<polygon fill="white" stroke="black" points="139,-0.5 139,-30.5 239,-30.5 239,-0.5 139,-0.5"/>
<text text-anchor="start" x="147" y="-18.5" font-family="Helvetica,sans-Serif" font-size="10.00">vnix::units::statdim</text>
<text text-anchor="middle" x="189" y="-7.5" font-family="Helvetica,sans-Serif" font-size="10.00">_base::pow</text>
</a>
</g>
</g>
<!-- Node1&#45;&gt;Node6 -->
<g id="edge5" class="edge"><title>Node1&#45;&gt;Node6</title>
<path fill="none" stroke="midnightblue" d="M78.2209,-68.1004C92.7981,-59.1154 110.486,-48.7504 127,-40.5 133.962,-37.0218 141.53,-33.6274 148.89,-30.5178"/>
<polygon fill="midnightblue" stroke="midnightblue" points="76.2185,-65.2243 69.5847,-73.4853 79.9222,-71.1642 76.2185,-65.2243"/>
</g>
<!-- Node4 -->
<g id="node4" class="node"><title>Node4</title>
<g id="a_node4"><a xlink:href="dyndim-base-test_8cpp.html#a651290a9dc844b4c8231407ec8af1032" target="_top" xlink:title="TEST_CASE">
<polygon fill="white" stroke="black" points="287,-104 287,-123 362,-123 362,-104 287,-104"/>
<text text-anchor="middle" x="324.5" y="-111" font-family="Helvetica,sans-Serif" font-size="10.00">TEST_CASE</text>
</a>
</g>
</g>
<!-- Node3&#45;&gt;Node4 -->
<g id="edge3" class="edge"><title>Node3&#45;&gt;Node4</title>
<path fill="none" stroke="midnightblue" d="M248.833,-113.5C261.779,-113.5 275.128,-113.5 286.895,-113.5"/>
<polygon fill="midnightblue" stroke="midnightblue" points="248.574,-110 238.574,-113.5 248.574,-117 248.574,-110"/>
</g>
<!-- Node7 -->
<g id="node7" class="node"><title>Node7</title>
<g id="a_node7"><a xlink:href="statdim-base-test_8cpp.html#a770fa09337bbabe5784759483b7cf967" target="_top" xlink:title="TEST_CASE">
<polygon fill="white" stroke="black" points="287,-6 287,-25 362,-25 362,-6 287,-6"/>
<text text-anchor="middle" x="324.5" y="-13" font-family="Helvetica,sans-Serif" font-size="10.00">TEST_CASE</text>
</a>
</g>
</g>
<!-- Node6&#45;&gt;Node7 -->
<g id="edge6" class="edge"><title>Node6&#45;&gt;Node7</title>
<path fill="none" stroke="midnightblue" d="M249.445,-15.5C262.198,-15.5 275.31,-15.5 286.891,-15.5"/>
<polygon fill="midnightblue" stroke="midnightblue" points="249.331,-12.0001 239.331,-15.5 249.331,-19.0001 249.331,-12.0001"/>
</g>
</g>
</svg>
