<?xml version="1.0" encoding="UTF-8" standalone="no"?>
<!DOCTYPE svg PUBLIC "-//W3C//DTD SVG 1.1//EN"
 "http://www.w3.org/Graphics/SVG/1.1/DTD/svg11.dtd">
<!-- Generated by graphviz version 2.38.0 (20140413.2041)
 -->
<!-- Title: vnix::rat::encoding::d Pages: 1 -->
<svg width="266pt" height="88pt"
 viewBox="0.00 0.00 266.00 88.00" xmlns="http://www.w3.org/2000/svg" xmlns:xlink="http://www.w3.org/1999/xlink">
<g id="graph0" class="graph" transform="scale(1 1) rotate(0) translate(4 84)">
<title>vnix::rat::encoding::d</title>
<polygon fill="white" stroke="none" points="-4,4 -4,-84 262,-84 262,4 -4,4"/>
<!-- Node1 -->
<g id="node1" class="node"><title>Node1</title>
<polygon fill="#bfbfbf" stroke="black" points="0,-24.5 0,-43.5 108,-43.5 108,-24.5 0,-24.5"/>
<text text-anchor="middle" x="54" y="-31.5" font-family="Helvetica,sans-Serif" font-size="10.00">vnix::rat::encoding::d</text>
</g>
<!-- Node2 -->
<g id="node2" class="node"><title>Node2</title>
<g id="a_node2"><a xlink:href="classvnix_1_1units_1_1basic__dim.html#a747876034fa13586aebe43b780d8b933" target="_top" xlink:title="Print to output stream the symbolic contribution from a given unit. ">
<polygon fill="white" stroke="black" points="144,-38.5 144,-79.5 258,-79.5 258,-38.5 144,-38.5"/>
<text text-anchor="start" x="152" y="-67.5" font-family="Helvetica,sans-Serif" font-size="10.00">vnix::units::basic</text>
<text text-anchor="start" x="152" y="-56.5" font-family="Helvetica,sans-Serif" font-size="10.00">_dim&lt; dim_base_off &gt;</text>
<text text-anchor="middle" x="201" y="-45.5" font-family="Helvetica,sans-Serif" font-size="10.00">::print_unit</text>
</a>
</g>
</g>
<!-- Node1&#45;&gt;Node2 -->
<g id="edge1" class="edge"><title>Node1&#45;&gt;Node2</title>
<path fill="none" stroke="midnightblue" d="M118.13,-44.8845C126.71,-46.3639 135.469,-47.8739 143.913,-49.3299"/>
<polygon fill="midnightblue" stroke="midnightblue" points="118.619,-41.4172 108.169,-43.1671 117.429,-48.3154 118.619,-41.4172"/>
</g>
<!-- Node3 -->
<g id="node3" class="node"><title>Node3</title>
<g id="a_node3"><a xlink:href="encoding-test_8cpp.html#aaed1010514931abe85a7096040f05b97" target="_top" xlink:title="TEST_CASE">
<polygon fill="white" stroke="black" points="163.5,-0.5 163.5,-19.5 238.5,-19.5 238.5,-0.5 163.5,-0.5"/>
<text text-anchor="middle" x="201" y="-7.5" font-family="Helvetica,sans-Serif" font-size="10.00">TEST_CASE</text>
</a>
</g>
</g>
<!-- Node1&#45;&gt;Node3 -->
<g id="edge2" class="edge"><title>Node1&#45;&gt;Node3</title>
<path fill="none" stroke="midnightblue" d="M118.158,-23.5463C133.527,-21.0024 149.466,-18.3642 163.15,-16.0994"/>
<polygon fill="midnightblue" stroke="midnightblue" points="117.464,-20.1135 108.169,-25.1996 118.607,-27.0195 117.464,-20.1135"/>
</g>
</g>
</svg>
