<?xml version="1.0" encoding="UTF-8" standalone="no"?>
<!DOCTYPE svg PUBLIC "-//W3C//DTD SVG 1.1//EN"
 "http://www.w3.org/Graphics/SVG/1.1/DTD/svg11.dtd">
<!-- Generated by graphviz version 2.38.0 (20140413.2041)
 -->
<!-- Title: vnix::units::basic_dyndim&lt; T &gt; Pages: 1 -->
<svg width="382pt" height="486pt"
 viewBox="0.00 0.00 382.00 486.00" xmlns="http://www.w3.org/2000/svg" xmlns:xlink="http://www.w3.org/1999/xlink">
<g id="graph0" class="graph" transform="scale(1 1) rotate(0) translate(4 482)">
<title>vnix::units::basic_dyndim&lt; T &gt;</title>
<polygon fill="white" stroke="none" points="-4,4 -4,-482 378,-482 378,4 -4,4"/>
<!-- Node1 -->
<g id="node1" class="node"><title>Node1</title>
<polygon fill="#bfbfbf" stroke="black" points="92.5,-0.5 92.5,-30.5 183.5,-30.5 183.5,-0.5 92.5,-0.5"/>
<text text-anchor="start" x="100.5" y="-18.5" font-family="Helvetica,sans-Serif" font-size="10.00">vnix::units::basic</text>
<text text-anchor="middle" x="138" y="-7.5" font-family="Helvetica,sans-Serif" font-size="10.00">_dyndim&lt; T &gt;</text>
</g>
<!-- Node2 -->
<g id="node2" class="node"><title>Node2</title>
<g id="a_node2"><a xlink:href="classvnix_1_1units_1_1dimval.html" target="_top" xlink:title="vnix::units::dimval\l\&lt; T, dyndim_base \&gt;">
<polygon fill="white" stroke="black" points="86,-68.5 86,-98.5 190,-98.5 190,-68.5 86,-68.5"/>
<text text-anchor="start" x="94" y="-86.5" font-family="Helvetica,sans-Serif" font-size="10.00">vnix::units::dimval</text>
<text text-anchor="middle" x="138" y="-75.5" font-family="Helvetica,sans-Serif" font-size="10.00">&lt; T, dyndim_base &gt;</text>
</a>
</g>
</g>
<!-- Node2&#45;&gt;Node1 -->
<g id="edge1" class="edge"><title>Node2&#45;&gt;Node1</title>
<path fill="none" stroke="midnightblue" d="M138,-58.0322C138,-48.8606 138,-38.7449 138,-30.7931"/>
<polygon fill="midnightblue" stroke="midnightblue" points="134.5,-58.1789 138,-68.179 141.5,-58.179 134.5,-58.1789"/>
</g>
<!-- Node3 -->
<g id="node3" class="node"><title>Node3</title>
<g id="a_node3"><a xlink:href="structvnix_1_1units_1_1number.html" target="_top" xlink:title="Generic template for wrapper to disambiguate scalar from dimval and protected storage for numeric val...">
<polygon fill="white" stroke="black" points="0,-230 0,-249 124,-249 124,-230 0,-230"/>
<text text-anchor="middle" x="62" y="-237" font-family="Helvetica,sans-Serif" font-size="10.00">vnix::units::number&lt; T &gt;</text>
</a>
</g>
</g>
<!-- Node3&#45;&gt;Node2 -->
<g id="edge2" class="edge"><title>Node3&#45;&gt;Node2</title>
<path fill="none" stroke="darkgreen" d="M62.908,-219.586C64.503,-200.164 68.8972,-169.533 81,-146 90.6541,-127.228 107.658,-109.991 120.589,-98.5726"/>
<polygon fill="darkgreen" stroke="darkgreen" points="59.3984,-219.623 62.2439,-229.828 66.3837,-220.076 59.3984,-219.623"/>
</g>
<!-- Node9 -->
<g id="node9" class="node"><title>Node9</title>
<g id="a_node9"><a xlink:href="classvnix_1_1units_1_1dimval.html" target="_top" xlink:title="Model of a physically dimensioned quantity. ">
<polygon fill="white" stroke="black" points="90,-146.5 90,-176.5 186,-176.5 186,-146.5 90,-146.5"/>
<text text-anchor="start" x="98" y="-164.5" font-family="Helvetica,sans-Serif" font-size="10.00">vnix::units::dimval</text>
<text text-anchor="middle" x="138" y="-153.5" font-family="Helvetica,sans-Serif" font-size="10.00">&lt; T, B &gt;</text>
</a>
</g>
</g>
<!-- Node3&#45;&gt;Node9 -->
<g id="edge10" class="edge"><title>Node3&#45;&gt;Node9</title>
<path fill="none" stroke="darkgreen" d="M77.9762,-222.524C91.589,-208.911 110.96,-189.54 123.98,-176.52"/>
<polygon fill="darkgreen" stroke="darkgreen" points="75.3144,-220.236 70.7182,-229.782 80.2641,-225.186 75.3144,-220.236"/>
</g>
<!-- Node4 -->
<g id="node4" class="node"><title>Node4</title>
<g id="a_node4"><a xlink:href="classvnix_1_1units_1_1dyndim__base.html" target="_top" xlink:title="Base&#45;type for a dimensioned value whose dimension is specified, perhaps dynamically at run&#45;time...">
<polygon fill="white" stroke="black" points="204.5,-152 204.5,-171 329.5,-171 329.5,-152 204.5,-152"/>
<text text-anchor="middle" x="267" y="-159" font-family="Helvetica,sans-Serif" font-size="10.00">vnix::units::dyndim_base</text>
</a>
</g>
</g>
<!-- Node4&#45;&gt;Node2 -->
<g id="edge3" class="edge"><title>Node4&#45;&gt;Node2</title>
<path fill="none" stroke="midnightblue" d="M257.026,-143.376C251.055,-134.428 242.738,-123.93 233,-117 220.36,-108.005 205.026,-101.336 190.4,-96.4631"/>
<polygon fill="midnightblue" stroke="midnightblue" points="254.097,-145.293 262.36,-151.923 260.035,-141.587 254.097,-145.293"/>
</g>
<!-- Node5 -->
<g id="node5" class="node"><title>Node5</title>
<g id="a_node5"><a xlink:href="classvnix_1_1units_1_1basic__dim.html" target="_top" xlink:title="vnix::units::basic\l_dim\&lt; dim_base_off \&gt;">
<polygon fill="white" stroke="black" points="210,-224.5 210,-254.5 324,-254.5 324,-224.5 210,-224.5"/>
<text text-anchor="start" x="218" y="-242.5" font-family="Helvetica,sans-Serif" font-size="10.00">vnix::units::basic</text>
<text text-anchor="middle" x="267" y="-231.5" font-family="Helvetica,sans-Serif" font-size="10.00">_dim&lt; dim_base_off &gt;</text>
</a>
</g>
</g>
<!-- Node5&#45;&gt;Node4 -->
<g id="edge4" class="edge"><title>Node5&#45;&gt;Node4</title>
<path fill="none" stroke="#9a32cd" stroke-dasharray="5,2" d="M267,-214.165C267,-199.396 267,-181.448 267,-171.064"/>
<polygon fill="#9a32cd" stroke="#9a32cd" points="263.5,-214.205 267,-224.205 270.5,-214.205 263.5,-214.205"/>
<text text-anchor="middle" x="274" y="-198" font-family="Helvetica,sans-Serif" font-size="10.00"> d_</text>
</g>
<!-- Node6 -->
<g id="node6" class="node"><title>Node6</title>
<g id="a_node6"><a xlink:href="structvnix_1_1int__types.html" target="_top" xlink:title="vnix::int_types\&lt; NUM\l_BITS \&gt;">
<polygon fill="white" stroke="black" points="198.5,-380.5 198.5,-410.5 311.5,-410.5 311.5,-380.5 198.5,-380.5"/>
<text text-anchor="start" x="206.5" y="-398.5" font-family="Helvetica,sans-Serif" font-size="10.00">vnix::int_types&lt; NUM</text>
<text text-anchor="middle" x="255" y="-387.5" font-family="Helvetica,sans-Serif" font-size="10.00">_BITS &gt;</text>
</a>
</g>
</g>
<!-- Node6&#45;&gt;Node5 -->
<g id="edge5" class="edge"><title>Node6&#45;&gt;Node5</title>
<path fill="none" stroke="#9a32cd" stroke-dasharray="5,2" d="M250.706,-370.289C248.041,-351.566 245.698,-325.037 249,-302 251.368,-285.481 257.141,-267.206 261.515,-254.904"/>
<polygon fill="#9a32cd" stroke="#9a32cd" points="247.272,-370.985 252.271,-380.326 254.188,-369.906 247.272,-370.985"/>
<text text-anchor="middle" x="256" y="-315" font-family="Helvetica,sans-Serif" font-size="10.00"> e_</text>
</g>
<!-- Node8 -->
<g id="node8" class="node"><title>Node8</title>
<g id="a_node8"><a xlink:href="classvnix_1_1units_1_1basic__dim.html" target="_top" xlink:title="Rational exponent for each basis&#45;element of dimension. ">
<polygon fill="white" stroke="black" points="271.5,-302.5 271.5,-332.5 362.5,-332.5 362.5,-302.5 271.5,-302.5"/>
<text text-anchor="start" x="279.5" y="-320.5" font-family="Helvetica,sans-Serif" font-size="10.00">vnix::units::basic</text>
<text text-anchor="middle" x="317" y="-309.5" font-family="Helvetica,sans-Serif" font-size="10.00">_dim&lt; DBO &gt;</text>
</a>
</g>
</g>
<!-- Node6&#45;&gt;Node8 -->
<g id="edge8" class="edge"><title>Node6&#45;&gt;Node8</title>
<path fill="none" stroke="#9a32cd" stroke-dasharray="5,2" d="M273.105,-372.307C283.526,-359.533 296.312,-343.86 305.391,-332.731"/>
<polygon fill="#9a32cd" stroke="#9a32cd" points="270.271,-370.244 266.662,-380.205 275.695,-374.669 270.271,-370.244"/>
<text text-anchor="middle" x="296" y="-354" font-family="Helvetica,sans-Serif" font-size="10.00"> e_</text>
</g>
<!-- Node7 -->
<g id="node7" class="node"><title>Node7</title>
<g id="a_node7"><a xlink:href="structvnix_1_1int__types.html" target="_top" xlink:title="Smallest integer types for holding certain number of bits. ">
<polygon fill="white" stroke="black" points="198.5,-458.5 198.5,-477.5 311.5,-477.5 311.5,-458.5 198.5,-458.5"/>
<text text-anchor="middle" x="255" y="-465.5" font-family="Helvetica,sans-Serif" font-size="10.00">vnix::int_types&lt; NB &gt;</text>
</a>
</g>
</g>
<!-- Node7&#45;&gt;Node6 -->
<g id="edge6" class="edge"><title>Node7&#45;&gt;Node6</title>
<path fill="none" stroke="orange" stroke-dasharray="5,2" d="M255,-448.236C255,-436.408 255,-421.383 255,-410.576"/>
<polygon fill="orange" stroke="orange" points="251.5,-448.355 255,-458.355 258.5,-448.355 251.5,-448.355"/>
<text text-anchor="middle" x="291.5" y="-432" font-family="Helvetica,sans-Serif" font-size="10.00"> &lt; NUM_BITS &gt;</text>
</g>
<!-- Node8&#45;&gt;Node5 -->
<g id="edge7" class="edge"><title>Node8&#45;&gt;Node5</title>
<path fill="none" stroke="orange" stroke-dasharray="5,2" d="M301.917,-293.574C293.604,-280.937 283.544,-265.648 276.362,-254.731"/>
<polygon fill="orange" stroke="orange" points="299.175,-295.774 307.595,-302.205 305.023,-291.927 299.175,-295.774"/>
<text text-anchor="middle" x="334" y="-276" font-family="Helvetica,sans-Serif" font-size="10.00"> &lt; dim_base_off &gt;</text>
</g>
<!-- Node9&#45;&gt;Node2 -->
<g id="edge9" class="edge"><title>Node9&#45;&gt;Node2</title>
<path fill="none" stroke="orange" stroke-dasharray="5,2" d="M138,-136.09C138,-123.757 138,-109.224 138,-98.7309"/>
<polygon fill="orange" stroke="orange" points="134.5,-136.205 138,-146.205 141.5,-136.205 134.5,-136.205"/>
<text text-anchor="middle" x="183.5" y="-120" font-family="Helvetica,sans-Serif" font-size="10.00"> &lt; T, dyndim_base &gt;</text>
</g>
<!-- Node10 -->
<g id="node10" class="node"><title>Node10</title>
<polygon fill="white" stroke="#bfbfbf" points="141.5,-230 141.5,-249 170.5,-249 170.5,-230 141.5,-230"/>
<text text-anchor="middle" x="156" y="-237" font-family="Helvetica,sans-Serif" font-size="10.00">B</text>
</g>
<!-- Node10&#45;&gt;Node9 -->
<g id="edge11" class="edge"><title>Node10&#45;&gt;Node9</title>
<path fill="none" stroke="midnightblue" d="M151.567,-219.782C148.398,-206.404 144.202,-188.688 141.32,-176.52"/>
<polygon fill="midnightblue" stroke="midnightblue" points="148.225,-220.858 153.935,-229.782 155.036,-219.244 148.225,-220.858"/>
</g>
</g>
</svg>
