<?xml version="1.0" encoding="UTF-8" standalone="no"?>
<!DOCTYPE svg PUBLIC "-//W3C//DTD SVG 1.1//EN"
 "http://www.w3.org/Graphics/SVG/1.1/DTD/svg11.dtd">
<!-- Generated by graphviz version 2.38.0 (20140413.2041)
 -->
<!-- Title: vnix::rat::rational::encode Pages: 1 -->
<svg width="267pt" height="137pt"
 viewBox="0.00 0.00 267.00 136.50" xmlns="http://www.w3.org/2000/svg" xmlns:xlink="http://www.w3.org/1999/xlink">
<g id="graph0" class="graph" transform="scale(1 1) rotate(0) translate(4 132.5)">
<title>vnix::rat::rational::encode</title>
<polygon fill="white" stroke="none" points="-4,4 -4,-132.5 263,-132.5 263,4 -4,4"/>
<!-- Node1 -->
<g id="node1" class="node"><title>Node1</title>
<polygon fill="#bfbfbf" stroke="black" points="0,-54.5 0,-84.5 89,-84.5 89,-54.5 0,-54.5"/>
<text text-anchor="start" x="8" y="-72.5" font-family="Helvetica,sans-Serif" font-size="10.00">vnix::rat::rational</text>
<text text-anchor="middle" x="44.5" y="-61.5" font-family="Helvetica,sans-Serif" font-size="10.00">::encode</text>
</g>
<!-- Node2 -->
<g id="node2" class="node"><title>Node2</title>
<g id="a_node2"><a xlink:href="dim-test_8cpp.html#a52aecd015947a2c9adf76d0abc4b4536" target="_top" xlink:title="TEST_CASE">
<polygon fill="white" stroke="black" points="154.5,-109 154.5,-128 229.5,-128 229.5,-109 154.5,-109"/>
<text text-anchor="middle" x="192" y="-116" font-family="Helvetica,sans-Serif" font-size="10.00">TEST_CASE</text>
</a>
</g>
</g>
<!-- Node1&#45;&gt;Node2 -->
<g id="edge1" class="edge"><title>Node1&#45;&gt;Node2</title>
<path fill="none" stroke="midnightblue" d="M93.0903,-88.1713C103.547,-92.0738 114.602,-96.0478 125,-99.5 134.958,-102.806 145.869,-106.085 155.901,-108.964"/>
<polygon fill="midnightblue" stroke="midnightblue" points="94.2834,-84.8807 83.6917,-84.6245 91.8119,-91.4299 94.2834,-84.8807"/>
</g>
<!-- Node3 -->
<g id="node3" class="node"><title>Node3</title>
<g id="a_node3"><a xlink:href="classvnix_1_1units_1_1basic__dim.html#a72f40a82bfd52f117b04e897f6f2fa60" target="_top" xlink:title="Encode exponent associated with highest DBO at highest bit&#45;offsets. ">
<polygon fill="white" stroke="black" points="135,-49 135,-90 249,-90 249,-49 135,-49"/>
<text text-anchor="start" x="143" y="-78" font-family="Helvetica,sans-Serif" font-size="10.00">vnix::units::basic</text>
<text text-anchor="start" x="143" y="-67" font-family="Helvetica,sans-Serif" font-size="10.00">_dim&lt; dim_base_off &gt;</text>
<text text-anchor="middle" x="192" y="-56" font-family="Helvetica,sans-Serif" font-size="10.00">::encode</text>
</a>
</g>
</g>
<!-- Node1&#45;&gt;Node3 -->
<g id="edge2" class="edge"><title>Node1&#45;&gt;Node3</title>
<path fill="none" stroke="midnightblue" d="M99.1878,-69.5C110.848,-69.5 123.212,-69.5 134.961,-69.5"/>
<polygon fill="midnightblue" stroke="midnightblue" points="99.1548,-66.0001 89.1548,-69.5 99.1548,-73.0001 99.1548,-66.0001"/>
</g>
<!-- Node4 -->
<g id="node4" class="node"><title>Node4</title>
<g id="a_node4"><a xlink:href="classvnix_1_1units_1_1basic__dim.html#a626492b20c508b30c07859da7b2360b5" target="_top" xlink:title="Set rational exponent at specified offset. ">
<polygon fill="white" stroke="black" points="125,-0.5 125,-30.5 259,-30.5 259,-0.5 125,-0.5"/>
<text text-anchor="start" x="133" y="-18.5" font-family="Helvetica,sans-Serif" font-size="10.00">vnix::units::basic</text>
<text text-anchor="middle" x="192" y="-7.5" font-family="Helvetica,sans-Serif" font-size="10.00">_dim&lt; dim_base_off &gt;::set</text>
</a>
</g>
</g>
<!-- Node1&#45;&gt;Node4 -->
<g id="edge3" class="edge"><title>Node1&#45;&gt;Node4</title>
<path fill="none" stroke="midnightblue" d="M94.5599,-50.881C104.62,-47.0926 115.146,-43.1507 125,-39.5 132.889,-36.5774 141.32,-33.4867 149.427,-30.5308"/>
<polygon fill="midnightblue" stroke="midnightblue" points="93.2151,-47.6474 85.0939,-54.4515 95.6857,-54.197 93.2151,-47.6474"/>
</g>
</g>
</svg>
