<?xml version="1.0" encoding="UTF-8" standalone="no"?>
<!DOCTYPE svg PUBLIC "-//W3C//DTD SVG 1.1//EN"
 "http://www.w3.org/Graphics/SVG/1.1/DTD/svg11.dtd">
<!-- Generated by graphviz version 2.38.0 (20140413.2041)
 -->
<!-- Title: vnix::units::dyndim_base::sqrt Pages: 1 -->
<svg width="234pt" height="88pt"
 viewBox="0.00 0.00 234.00 88.00" xmlns="http://www.w3.org/2000/svg" xmlns:xlink="http://www.w3.org/1999/xlink">
<g id="graph0" class="graph" transform="scale(1 1) rotate(0) translate(4 84)">
<title>vnix::units::dyndim_base::sqrt</title>
<polygon fill="white" stroke="none" points="-4,4 -4,-84 230,-84 230,4 -4,4"/>
<!-- Node1 -->
<g id="node1" class="node"><title>Node1</title>
<polygon fill="#bfbfbf" stroke="black" points="0,-24.5 0,-54.5 99,-54.5 99,-24.5 0,-24.5"/>
<text text-anchor="start" x="8" y="-42.5" font-family="Helvetica,sans-Serif" font-size="10.00">vnix::units::dyndim</text>
<text text-anchor="middle" x="49.5" y="-31.5" font-family="Helvetica,sans-Serif" font-size="10.00">_base::sqrt</text>
</g>
<!-- Node2 -->
<g id="node2" class="node"><title>Node2</title>
<g id="a_node2"><a xlink:href="classvnix_1_1units_1_1basic__dim.html#a30729a1e75cf170eaaa19351897e27f0" target="_top" xlink:title="Divide exponents by rational factor. ">
<polygon fill="white" stroke="black" points="135,-49.5 135,-79.5 226,-79.5 226,-49.5 135,-49.5"/>
<text text-anchor="start" x="143" y="-67.5" font-family="Helvetica,sans-Serif" font-size="10.00">vnix::units::basic</text>
<text text-anchor="middle" x="180.5" y="-56.5" font-family="Helvetica,sans-Serif" font-size="10.00">_dim::operator/</text>
</a>
</g>
</g>
<!-- Node1&#45;&gt;Node2 -->
<g id="edge1" class="edge"><title>Node1&#45;&gt;Node2</title>
<path fill="none" stroke="midnightblue" d="M99.2694,-48.9514C107.68,-50.5813 116.47,-52.2849 125.019,-53.9417"/>
<polygon fill="midnightblue" stroke="midnightblue" points="124.425,-57.3915 134.908,-55.8581 125.757,-50.5194 124.425,-57.3915"/>
</g>
<!-- Node3 -->
<g id="node3" class="node"><title>Node3</title>
<g id="a_node3"><a xlink:href="classvnix_1_1rat_1_1rational.html#ad2dd31ac28cbf26fd322b4a02c14a9c5" target="_top" xlink:title="Initialize from numerator and denominator. ">
<polygon fill="white" stroke="black" points="136,-0.5 136,-30.5 225,-30.5 225,-0.5 136,-0.5"/>
<text text-anchor="start" x="144" y="-18.5" font-family="Helvetica,sans-Serif" font-size="10.00">vnix::rat::rational</text>
<text text-anchor="middle" x="180.5" y="-7.5" font-family="Helvetica,sans-Serif" font-size="10.00">::rational</text>
</a>
</g>
</g>
<!-- Node1&#45;&gt;Node3 -->
<g id="edge2" class="edge"><title>Node1&#45;&gt;Node3</title>
<path fill="none" stroke="midnightblue" d="M99.2694,-30.4266C107.885,-28.8238 116.899,-27.1467 125.644,-25.5196"/>
<polygon fill="midnightblue" stroke="midnightblue" points="126.557,-28.9101 135.748,-23.64 125.276,-22.0282 126.557,-28.9101"/>
</g>
</g>
</svg>
