<?xml version="1.0" encoding="UTF-8" standalone="no"?>
<!DOCTYPE svg PUBLIC "-//W3C//DTD SVG 1.1//EN"
 "http://www.w3.org/Graphics/SVG/1.1/DTD/svg11.dtd">
<!-- Generated by graphviz version 2.38.0 (20140413.2041)
 -->
<!-- Title: vnix::units::dyndim_base Pages: 1 -->
<svg width="133pt" height="162pt"
 viewBox="0.00 0.00 133.00 162.00" xmlns="http://www.w3.org/2000/svg" xmlns:xlink="http://www.w3.org/1999/xlink">
<g id="graph0" class="graph" transform="scale(1 1) rotate(0) translate(4 158)">
<title>vnix::units::dyndim_base</title>
<polygon fill="white" stroke="none" points="-4,4 -4,-158 129,-158 129,4 -4,4"/>
<!-- Node1 -->
<g id="node1" class="node"><title>Node1</title>
<polygon fill="#bfbfbf" stroke="black" points="-7.10543e-15,-134.5 -7.10543e-15,-153.5 125,-153.5 125,-134.5 -7.10543e-15,-134.5"/>
<text text-anchor="middle" x="62.5" y="-141.5" font-family="Helvetica,sans-Serif" font-size="10.00">vnix::units::dyndim_base</text>
</g>
<!-- Node2 -->
<g id="node2" class="node"><title>Node2</title>
<g id="a_node2"><a xlink:href="classvnix_1_1units_1_1dimval.html" target="_top" xlink:title="vnix::units::dimval\l\&lt; T, dyndim_base \&gt;">
<polygon fill="white" stroke="black" points="10.5,-67.5 10.5,-97.5 114.5,-97.5 114.5,-67.5 10.5,-67.5"/>
<text text-anchor="start" x="18.5" y="-85.5" font-family="Helvetica,sans-Serif" font-size="10.00">vnix::units::dimval</text>
<text text-anchor="middle" x="62.5" y="-74.5" font-family="Helvetica,sans-Serif" font-size="10.00">&lt; T, dyndim_base &gt;</text>
</a>
</g>
</g>
<!-- Node1&#45;&gt;Node2 -->
<g id="edge1" class="edge"><title>Node1&#45;&gt;Node2</title>
<path fill="none" stroke="midnightblue" d="M62.5,-124.235C62.5,-115.586 62.5,-105.497 62.5,-97.523"/>
<polygon fill="midnightblue" stroke="midnightblue" points="59.0001,-124.475 62.5,-134.475 66.0001,-124.475 59.0001,-124.475"/>
</g>
<!-- Node3 -->
<g id="node3" class="node"><title>Node3</title>
<g id="a_node3"><a xlink:href="classvnix_1_1units_1_1basic__dyndim.html" target="_top" xlink:title="Model of a dynamically dimensioned physical quantity. ">
<polygon fill="white" stroke="black" points="17,-0.5 17,-30.5 108,-30.5 108,-0.5 17,-0.5"/>
<text text-anchor="start" x="25" y="-18.5" font-family="Helvetica,sans-Serif" font-size="10.00">vnix::units::basic</text>
<text text-anchor="middle" x="62.5" y="-7.5" font-family="Helvetica,sans-Serif" font-size="10.00">_dyndim&lt; T &gt;</text>
</a>
</g>
</g>
<!-- Node2&#45;&gt;Node3 -->
<g id="edge2" class="edge"><title>Node2&#45;&gt;Node3</title>
<path fill="none" stroke="midnightblue" d="M62.5,-57.1081C62.5,-48.1539 62.5,-38.3227 62.5,-30.5765"/>
<polygon fill="midnightblue" stroke="midnightblue" points="59.0001,-57.3959 62.5,-67.396 66.0001,-57.396 59.0001,-57.3959"/>
</g>
</g>
</svg>
