<?xml version="1.0" encoding="UTF-8" standalone="no"?>
<!DOCTYPE svg PUBLIC "-//W3C//DTD SVG 1.1//EN"
 "http://www.w3.org/Graphics/SVG/1.1/DTD/svg11.dtd">
<!-- Generated by graphviz version 2.38.0 (20140413.2041)
 -->
<!-- Title: vnix::units::basic_dyndim&lt; T &gt; Pages: 1 -->
<svg width="338pt" height="242pt"
 viewBox="0.00 0.00 337.50 242.00" xmlns="http://www.w3.org/2000/svg" xmlns:xlink="http://www.w3.org/1999/xlink">
<g id="graph0" class="graph" transform="scale(1 1) rotate(0) translate(4 238)">
<title>vnix::units::basic_dyndim&lt; T &gt;</title>
<polygon fill="white" stroke="none" points="-4,4 -4,-238 333.5,-238 333.5,4 -4,4"/>
<!-- Node1 -->
<g id="node1" class="node"><title>Node1</title>
<polygon fill="#bfbfbf" stroke="black" points="92.5,-0.5 92.5,-30.5 183.5,-30.5 183.5,-0.5 92.5,-0.5"/>
<text text-anchor="start" x="100.5" y="-18.5" font-family="Helvetica,sans-Serif" font-size="10.00">vnix::units::basic</text>
<text text-anchor="middle" x="138" y="-7.5" font-family="Helvetica,sans-Serif" font-size="10.00">_dyndim&lt; T &gt;</text>
</g>
<!-- Node2 -->
<g id="node2" class="node"><title>Node2</title>
<g id="a_node2"><a xlink:href="classvnix_1_1units_1_1dimval.html" target="_top" xlink:title="vnix::units::dimval\l\&lt; T, dyndim_base \&gt;">
<polygon fill="white" stroke="black" points="86,-68.5 86,-98.5 190,-98.5 190,-68.5 86,-68.5"/>
<text text-anchor="start" x="94" y="-86.5" font-family="Helvetica,sans-Serif" font-size="10.00">vnix::units::dimval</text>
<text text-anchor="middle" x="138" y="-75.5" font-family="Helvetica,sans-Serif" font-size="10.00">&lt; T, dyndim_base &gt;</text>
</a>
</g>
</g>
<!-- Node2&#45;&gt;Node1 -->
<g id="edge1" class="edge"><title>Node2&#45;&gt;Node1</title>
<path fill="none" stroke="midnightblue" d="M138,-58.0322C138,-48.8606 138,-38.7449 138,-30.7931"/>
<polygon fill="midnightblue" stroke="midnightblue" points="134.5,-58.1789 138,-68.179 141.5,-58.179 134.5,-58.1789"/>
</g>
<!-- Node3 -->
<g id="node3" class="node"><title>Node3</title>
<g id="a_node3"><a xlink:href="structvnix_1_1units_1_1number.html" target="_top" xlink:title="Generic template for wrapper to disambiguate scalar from dimval and protected storage for numeric val...">
<polygon fill="white" stroke="black" points="0,-214.5 0,-233.5 124,-233.5 124,-214.5 0,-214.5"/>
<text text-anchor="middle" x="62" y="-221.5" font-family="Helvetica,sans-Serif" font-size="10.00">vnix::units::number&lt; T &gt;</text>
</a>
</g>
</g>
<!-- Node3&#45;&gt;Node2 -->
<g id="edge2" class="edge"><title>Node3&#45;&gt;Node2</title>
<path fill="none" stroke="darkgreen" d="M63.9726,-204.091C66.2746,-187.888 71.111,-164.333 81,-146 91.0214,-127.422 107.977,-110.159 120.797,-98.6817"/>
<polygon fill="darkgreen" stroke="darkgreen" points="60.4504,-204.059 62.7083,-214.41 67.3985,-204.91 60.4504,-204.059"/>
</g>
<!-- Node5 -->
<g id="node5" class="node"><title>Node5</title>
<g id="a_node5"><a xlink:href="classvnix_1_1units_1_1dimval.html" target="_top" xlink:title="Model of a physically dimensioned quantity. ">
<polygon fill="white" stroke="black" points="90,-146.5 90,-176.5 186,-176.5 186,-146.5 90,-146.5"/>
<text text-anchor="start" x="98" y="-164.5" font-family="Helvetica,sans-Serif" font-size="10.00">vnix::units::dimval</text>
<text text-anchor="middle" x="138" y="-153.5" font-family="Helvetica,sans-Serif" font-size="10.00">&lt; T, B &gt;</text>
</a>
</g>
</g>
<!-- Node3&#45;&gt;Node5 -->
<g id="edge5" class="edge"><title>Node3&#45;&gt;Node5</title>
<path fill="none" stroke="darkgreen" d="M80.9682,-207.9C93.0436,-198.288 108.575,-185.923 120.381,-176.526"/>
<polygon fill="darkgreen" stroke="darkgreen" points="78.5329,-205.365 72.8889,-214.332 82.8925,-210.842 78.5329,-205.365"/>
</g>
<!-- Node4 -->
<g id="node4" class="node"><title>Node4</title>
<g id="a_node4"><a xlink:href="classvnix_1_1units_1_1dyndim__base.html" target="_top" xlink:title="Base&#45;type for a dimensioned value whose dimension is specified, perhaps dynamically at run&#45;time...">
<polygon fill="white" stroke="black" points="204.5,-152 204.5,-171 329.5,-171 329.5,-152 204.5,-152"/>
<text text-anchor="middle" x="267" y="-159" font-family="Helvetica,sans-Serif" font-size="10.00">vnix::units::dyndim_base</text>
</a>
</g>
</g>
<!-- Node4&#45;&gt;Node2 -->
<g id="edge3" class="edge"><title>Node4&#45;&gt;Node2</title>
<path fill="none" stroke="midnightblue" d="M257.026,-143.376C251.055,-134.428 242.738,-123.93 233,-117 220.36,-108.005 205.026,-101.336 190.4,-96.4631"/>
<polygon fill="midnightblue" stroke="midnightblue" points="254.097,-145.293 262.36,-151.923 260.035,-141.587 254.097,-145.293"/>
</g>
<!-- Node5&#45;&gt;Node2 -->
<g id="edge4" class="edge"><title>Node5&#45;&gt;Node2</title>
<path fill="none" stroke="orange" stroke-dasharray="5,2" d="M138,-136.09C138,-123.757 138,-109.224 138,-98.7309"/>
<polygon fill="orange" stroke="orange" points="134.5,-136.205 138,-146.205 141.5,-136.205 134.5,-136.205"/>
<text text-anchor="middle" x="183.5" y="-120" font-family="Helvetica,sans-Serif" font-size="10.00"> &lt; T, dyndim_base &gt;</text>
</g>
<!-- Node6 -->
<g id="node6" class="node"><title>Node6</title>
<polygon fill="white" stroke="#bfbfbf" points="141.5,-214.5 141.5,-233.5 170.5,-233.5 170.5,-214.5 141.5,-214.5"/>
<text text-anchor="middle" x="156" y="-221.5" font-family="Helvetica,sans-Serif" font-size="10.00">B</text>
</g>
<!-- Node6&#45;&gt;Node5 -->
<g id="edge6" class="edge"><title>Node6&#45;&gt;Node5</title>
<path fill="none" stroke="midnightblue" d="M150.499,-204.51C147.844,-195.588 144.709,-185.049 142.242,-176.759"/>
<polygon fill="midnightblue" stroke="midnightblue" points="147.215,-205.745 153.421,-214.332 153.924,-203.749 147.215,-205.745"/>
</g>
</g>
</svg>
