<?xml version="1.0" encoding="UTF-8" standalone="no"?>
<!DOCTYPE svg PUBLIC "-//W3C//DTD SVG 1.1//EN"
 "http://www.w3.org/Graphics/SVG/1.1/DTD/svg11.dtd">
<!-- Generated by graphviz version 2.38.0 (20140413.2041)
 -->
<!-- Title: vnix::rat::normalized_pair::n Pages: 1 -->
<svg width="372pt" height="78pt"
 viewBox="0.00 0.00 372.00 77.50" xmlns="http://www.w3.org/2000/svg" xmlns:xlink="http://www.w3.org/1999/xlink">
<g id="graph0" class="graph" transform="scale(1 1) rotate(0) translate(4 73.5)">
<title>vnix::rat::normalized_pair::n</title>
<polygon fill="white" stroke="none" points="-4,4 -4,-73.5 368,-73.5 368,4 -4,4"/>
<!-- Node1 -->
<g id="node1" class="node"><title>Node1</title>
<polygon fill="#bfbfbf" stroke="black" points="0,-17 0,-47 105,-47 105,-17 0,-17"/>
<text text-anchor="start" x="8" y="-35" font-family="Helvetica,sans-Serif" font-size="10.00">vnix::rat::normalized</text>
<text text-anchor="middle" x="52.5" y="-24" font-family="Helvetica,sans-Serif" font-size="10.00">_pair::n</text>
</g>
<!-- Node2 -->
<g id="node2" class="node"><title>Node2</title>
<g id="a_node2"><a xlink:href="classvnix_1_1rat_1_1normalized__pair.html#a4a5c1783bd3b6271deb1a71d4a07cdb3" target="_top" xlink:title="Initialize normalized numerator and denominator for encoding of rational number. ">
<polygon fill="white" stroke="black" points="141,-39 141,-69 253,-69 253,-39 141,-39"/>
<text text-anchor="start" x="149" y="-57" font-family="Helvetica,sans-Serif" font-size="10.00">vnix::rat::normalized</text>
<text text-anchor="middle" x="197" y="-46" font-family="Helvetica,sans-Serif" font-size="10.00">_pair::normalized_pair</text>
</a>
</g>
</g>
<!-- Node1&#45;&gt;Node2 -->
<g id="edge1" class="edge"><title>Node1&#45;&gt;Node2</title>
<path fill="none" stroke="midnightblue" d="M115.436,-41.5621C123.803,-42.8538 132.344,-44.1724 140.587,-45.445"/>
<polygon fill="midnightblue" stroke="midnightblue" points="115.766,-38.0716 105.349,-40.0047 114.698,-44.9896 115.766,-38.0716"/>
</g>
<!-- Node4 -->
<g id="node4" class="node"><title>Node4</title>
<g id="a_node4"><a xlink:href="normalized-pair-test_8cpp.html#a1538b671515003c8761c33bd0f277ff3" target="_top" xlink:title="TEST_CASE">
<polygon fill="white" stroke="black" points="159.5,-0.5 159.5,-19.5 234.5,-19.5 234.5,-0.5 159.5,-0.5"/>
<text text-anchor="middle" x="197" y="-7.5" font-family="Helvetica,sans-Serif" font-size="10.00">TEST_CASE</text>
</a>
</g>
</g>
<!-- Node1&#45;&gt;Node4 -->
<g id="edge3" class="edge"><title>Node1&#45;&gt;Node4</title>
<path fill="none" stroke="midnightblue" d="M115.528,-22.4237C130.405,-20.127 145.826,-17.7461 159.141,-15.6906"/>
<polygon fill="midnightblue" stroke="midnightblue" points="114.698,-19.0104 105.349,-23.9953 115.766,-25.9284 114.698,-19.0104"/>
</g>
<!-- Node3 -->
<g id="node3" class="node"><title>Node3</title>
<g id="a_node3"><a xlink:href="encoding-test_8cpp.html#aaed1010514931abe85a7096040f05b97" target="_top" xlink:title="TEST_CASE">
<polygon fill="white" stroke="black" points="289,-44.5 289,-63.5 364,-63.5 364,-44.5 289,-44.5"/>
<text text-anchor="middle" x="326.5" y="-51.5" font-family="Helvetica,sans-Serif" font-size="10.00">TEST_CASE</text>
</a>
</g>
</g>
<!-- Node2&#45;&gt;Node3 -->
<g id="edge2" class="edge"><title>Node2&#45;&gt;Node3</title>
<path fill="none" stroke="midnightblue" d="M263.463,-54C272.238,-54 280.97,-54 288.993,-54"/>
<polygon fill="midnightblue" stroke="midnightblue" points="263.182,-50.5001 253.182,-54 263.182,-57.5001 263.182,-50.5001"/>
</g>
</g>
</svg>
