<?xml version="1.0" encoding="UTF-8" standalone="no"?>
<!DOCTYPE svg PUBLIC "-//W3C//DTD SVG 1.1//EN"
 "http://www.w3.org/Graphics/SVG/1.1/DTD/svg11.dtd">
<!-- Generated by graphviz version 2.38.0 (20140413.2041)
 -->
<!-- Title: vnix::rat::rational&lt; NB, DB &gt; Pages: 1 -->
<svg width="228pt" height="319pt"
 viewBox="0.00 0.00 228.00 319.00" xmlns="http://www.w3.org/2000/svg" xmlns:xlink="http://www.w3.org/1999/xlink">
<g id="graph0" class="graph" transform="scale(1 1) rotate(0) translate(4 315)">
<title>vnix::rat::rational&lt; NB, DB &gt;</title>
<polygon fill="white" stroke="none" points="-4,4 -4,-315 224,-315 224,4 -4,4"/>
<!-- Node1 -->
<g id="node1" class="node"><title>Node1</title>
<polygon fill="#bfbfbf" stroke="black" points="34,-0.5 34,-30.5 123,-30.5 123,-0.5 34,-0.5"/>
<text text-anchor="start" x="42" y="-18.5" font-family="Helvetica,sans-Serif" font-size="10.00">vnix::rat::rational</text>
<text text-anchor="middle" x="78.5" y="-7.5" font-family="Helvetica,sans-Serif" font-size="10.00">&lt; NB, DB &gt;</text>
</g>
<!-- Node2 -->
<g id="node2" class="node"><title>Node2</title>
<g id="a_node2"><a xlink:href="classvnix_1_1rat_1_1encoding.html" target="_top" xlink:title="vnix::rat::encoding\l\&lt; NB, DB \&gt;">
<polygon fill="white" stroke="black" points="30,-68.5 30,-98.5 127,-98.5 127,-68.5 30,-68.5"/>
<text text-anchor="start" x="38" y="-86.5" font-family="Helvetica,sans-Serif" font-size="10.00">vnix::rat::encoding</text>
<text text-anchor="middle" x="78.5" y="-75.5" font-family="Helvetica,sans-Serif" font-size="10.00">&lt; NB, DB &gt;</text>
</a>
</g>
</g>
<!-- Node2&#45;&gt;Node1 -->
<g id="edge1" class="edge"><title>Node2&#45;&gt;Node1</title>
<path fill="none" stroke="midnightblue" d="M78.5,-58.0322C78.5,-48.8606 78.5,-38.7449 78.5,-30.7931"/>
<polygon fill="midnightblue" stroke="midnightblue" points="75.0001,-58.1789 78.5,-68.179 82.0001,-58.179 75.0001,-58.1789"/>
</g>
<!-- Node3 -->
<g id="node3" class="node"><title>Node3</title>
<g id="a_node3"><a xlink:href="structvnix_1_1int__types.html" target="_top" xlink:title="vnix::int_types\&lt; BITS \&gt;">
<polygon fill="white" stroke="black" points="0,-224.5 0,-243.5 121,-243.5 121,-224.5 0,-224.5"/>
<text text-anchor="middle" x="60.5" y="-231.5" font-family="Helvetica,sans-Serif" font-size="10.00">vnix::int_types&lt; BITS &gt;</text>
</a>
</g>
</g>
<!-- Node3&#45;&gt;Node2 -->
<g id="edge2" class="edge"><title>Node3&#45;&gt;Node2</title>
<path fill="none" stroke="#9a32cd" stroke-dasharray="5,2" d="M56.0945,-214.37C52.5841,-196.641 48.9474,-169.289 53.5,-146 56.8168,-129.033 64.8298,-110.835 70.8969,-98.6734"/>
<polygon fill="#9a32cd" stroke="#9a32cd" points="52.7013,-215.238 58.2427,-224.268 59.542,-213.753 52.7013,-215.238"/>
<text text-anchor="middle" x="60.5" y="-159" font-family="Helvetica,sans-Serif" font-size="10.00"> c_</text>
</g>
<!-- Node5 -->
<g id="node5" class="node"><title>Node5</title>
<g id="a_node5"><a xlink:href="classvnix_1_1rat_1_1encoding.html" target="_top" xlink:title="Encoding of numerator and denominator into unsigned word. ">
<polygon fill="white" stroke="black" points="77,-146.5 77,-176.5 220,-176.5 220,-146.5 77,-146.5"/>
<text text-anchor="start" x="85" y="-164.5" font-family="Helvetica,sans-Serif" font-size="10.00">vnix::rat::encoding</text>
<text text-anchor="middle" x="148.5" y="-153.5" font-family="Helvetica,sans-Serif" font-size="10.00">&lt; NMR_BITS, DNM_BITS &gt;</text>
</a>
</g>
</g>
<!-- Node3&#45;&gt;Node5 -->
<g id="edge5" class="edge"><title>Node3&#45;&gt;Node5</title>
<path fill="none" stroke="#9a32cd" stroke-dasharray="5,2" d="M79.4925,-217.784C94.763,-205.551 116.05,-188.497 130.93,-176.576"/>
<polygon fill="#9a32cd" stroke="#9a32cd" points="76.9066,-215.371 71.2905,-224.355 81.2832,-220.834 76.9066,-215.371"/>
<text text-anchor="middle" x="113.5" y="-198" font-family="Helvetica,sans-Serif" font-size="10.00"> c_</text>
</g>
<!-- Node4 -->
<g id="node4" class="node"><title>Node4</title>
<g id="a_node4"><a xlink:href="structvnix_1_1int__types.html" target="_top" xlink:title="Smallest integer types for holding certain number of bits. ">
<polygon fill="white" stroke="black" points="4,-291.5 4,-310.5 117,-310.5 117,-291.5 4,-291.5"/>
<text text-anchor="middle" x="60.5" y="-298.5" font-family="Helvetica,sans-Serif" font-size="10.00">vnix::int_types&lt; NB &gt;</text>
</a>
</g>
</g>
<!-- Node4&#45;&gt;Node3 -->
<g id="edge3" class="edge"><title>Node4&#45;&gt;Node3</title>
<path fill="none" stroke="orange" stroke-dasharray="5,2" d="M60.5,-281.037C60.5,-268.67 60.5,-253.12 60.5,-243.627"/>
<polygon fill="orange" stroke="orange" points="57.0001,-281.234 60.5,-291.234 64.0001,-281.234 57.0001,-281.234"/>
<text text-anchor="middle" x="82.5" y="-265" font-family="Helvetica,sans-Serif" font-size="10.00"> &lt; BITS &gt;</text>
</g>
<!-- Node5&#45;&gt;Node2 -->
<g id="edge4" class="edge"><title>Node5&#45;&gt;Node2</title>
<path fill="none" stroke="orange" stroke-dasharray="5,2" d="M128.394,-138.671C116.569,-125.832 101.955,-109.966 91.6074,-98.7309"/>
<polygon fill="orange" stroke="orange" points="125.984,-141.221 135.334,-146.205 131.133,-136.478 125.984,-141.221"/>
<text text-anchor="middle" x="145.5" y="-120" font-family="Helvetica,sans-Serif" font-size="10.00"> &lt; NB, DB &gt;</text>
</g>
</g>
</svg>
