<?xml version="1.0" encoding="UTF-8" standalone="no"?>
<!DOCTYPE svg PUBLIC "-//W3C//DTD SVG 1.1//EN"
 "http://www.w3.org/Graphics/SVG/1.1/DTD/svg11.dtd">
<!-- Generated by graphviz version 2.38.0 (20140413.2041)
 -->
<!-- Title: vnix::units::basic_dim&lt; DBO &gt; Pages: 1 -->
<svg width="138pt" height="184pt"
 viewBox="0.00 0.00 137.50 184.00" xmlns="http://www.w3.org/2000/svg" xmlns:xlink="http://www.w3.org/1999/xlink">
<g id="graph0" class="graph" transform="scale(1 1) rotate(0) translate(4 180)">
<title>vnix::units::basic_dim&lt; DBO &gt;</title>
<polygon fill="white" stroke="none" points="-4,4 -4,-180 133.5,-180 133.5,4 -4,4"/>
<!-- Node1 -->
<g id="node1" class="node"><title>Node1</title>
<polygon fill="#bfbfbf" stroke="black" points="11,-0.5 11,-30.5 102,-30.5 102,-0.5 11,-0.5"/>
<text text-anchor="start" x="19" y="-18.5" font-family="Helvetica,sans-Serif" font-size="10.00">vnix::units::basic</text>
<text text-anchor="middle" x="56.5" y="-7.5" font-family="Helvetica,sans-Serif" font-size="10.00">_dim&lt; DBO &gt;</text>
</g>
<!-- Node2 -->
<g id="node2" class="node"><title>Node2</title>
<g id="a_node2"><a xlink:href="structvnix_1_1int__types.html" target="_top" xlink:title="vnix::int_types\&lt; NUM\l_BITS \&gt;">
<polygon fill="white" stroke="black" points="0,-78.5 0,-108.5 113,-108.5 113,-78.5 0,-78.5"/>
<text text-anchor="start" x="8" y="-96.5" font-family="Helvetica,sans-Serif" font-size="10.00">vnix::int_types&lt; NUM</text>
<text text-anchor="middle" x="56.5" y="-85.5" font-family="Helvetica,sans-Serif" font-size="10.00">_BITS &gt;</text>
</a>
</g>
</g>
<!-- Node2&#45;&gt;Node1 -->
<g id="edge1" class="edge"><title>Node2&#45;&gt;Node1</title>
<path fill="none" stroke="#9a32cd" stroke-dasharray="5,2" d="M56.5,-68.0898C56.5,-55.7565 56.5,-41.2237 56.5,-30.7309"/>
<polygon fill="#9a32cd" stroke="#9a32cd" points="53.0001,-68.2049 56.5,-78.205 60.0001,-68.205 53.0001,-68.2049"/>
<text text-anchor="middle" x="63.5" y="-52" font-family="Helvetica,sans-Serif" font-size="10.00"> e_</text>
</g>
<!-- Node3 -->
<g id="node3" class="node"><title>Node3</title>
<g id="a_node3"><a xlink:href="structvnix_1_1int__types.html" target="_top" xlink:title="Smallest integer types for holding certain number of bits. ">
<polygon fill="white" stroke="black" points="0,-156.5 0,-175.5 113,-175.5 113,-156.5 0,-156.5"/>
<text text-anchor="middle" x="56.5" y="-163.5" font-family="Helvetica,sans-Serif" font-size="10.00">vnix::int_types&lt; NB &gt;</text>
</a>
</g>
</g>
<!-- Node3&#45;&gt;Node2 -->
<g id="edge2" class="edge"><title>Node3&#45;&gt;Node2</title>
<path fill="none" stroke="orange" stroke-dasharray="5,2" d="M56.5,-146.236C56.5,-134.408 56.5,-119.383 56.5,-108.576"/>
<polygon fill="orange" stroke="orange" points="53.0001,-146.355 56.5,-156.355 60.0001,-146.355 53.0001,-146.355"/>
<text text-anchor="middle" x="93" y="-130" font-family="Helvetica,sans-Serif" font-size="10.00"> &lt; NUM_BITS &gt;</text>
</g>
</g>
</svg>
