<?xml version="1.0" encoding="UTF-8" standalone="no"?>
<!DOCTYPE svg PUBLIC "-//W3C//DTD SVG 1.1//EN"
 "http://www.w3.org/Graphics/SVG/1.1/DTD/svg11.dtd">
<!-- Generated by graphviz version 2.38.0 (20140413.2041)
 -->
<!-- Title: vnix::mv::mref::operator= Pages: 1 -->
<svg width="280pt" height="66pt"
 viewBox="0.00 0.00 280.00 66.00" xmlns="http://www.w3.org/2000/svg" xmlns:xlink="http://www.w3.org/1999/xlink">
<g id="graph0" class="graph" transform="scale(1 1) rotate(0) translate(4 62)">
<title>vnix::mv::mref::operator=</title>
<polygon fill="white" stroke="none" points="-4,4 -4,-62 276,-62 276,4 -4,4"/>
<!-- Node1 -->
<g id="node1" class="node"><title>Node1</title>
<polygon fill="#bfbfbf" stroke="black" points="0,-19.5 0,-38.5 127,-38.5 127,-19.5 0,-19.5"/>
<text text-anchor="middle" x="63.5" y="-26.5" font-family="Helvetica,sans-Serif" font-size="10.00">vnix::mv::mref::operator=</text>
</g>
<!-- Node2 -->
<g id="node2" class="node"><title>Node2</title>
<g id="a_node2"><a xlink:href="classvnix_1_1mv_1_1mref.html#a08150022a851774540fa24e215a7e2e1" target="_top" xlink:title="First element. ">
<polygon fill="white" stroke="black" points="163,-38.5 163,-57.5 272,-57.5 272,-38.5 163,-38.5"/>
<text text-anchor="middle" x="217.5" y="-45.5" font-family="Helvetica,sans-Serif" font-size="10.00">vnix::mv::mref::begin</text>
</a>
</g>
</g>
<!-- Node1&#45;&gt;Node2 -->
<g id="edge1" class="edge"><title>Node1&#45;&gt;Node2</title>
<path fill="none" stroke="midnightblue" d="M127.202,-36.8377C135.574,-37.8842 144.168,-38.9585 152.561,-40.0076"/>
<polygon fill="midnightblue" stroke="midnightblue" points="152.313,-43.5038 162.67,-41.2712 153.181,-36.5578 152.313,-43.5038"/>
</g>
<!-- Node3 -->
<g id="node3" class="node"><title>Node3</title>
<g id="a_node3"><a xlink:href="classvnix_1_1mv_1_1mref.html#abb1f98e5d866e7e759e8b12d3175542d" target="_top" xlink:title="Pointer to element that is S elements past last element identified by mref. ">
<polygon fill="white" stroke="black" points="167,-0.5 167,-19.5 268,-19.5 268,-0.5 167,-0.5"/>
<text text-anchor="middle" x="217.5" y="-7.5" font-family="Helvetica,sans-Serif" font-size="10.00">vnix::mv::mref::end</text>
</a>
</g>
</g>
<!-- Node1&#45;&gt;Node3 -->
<g id="edge2" class="edge"><title>Node1&#45;&gt;Node3</title>
<path fill="none" stroke="midnightblue" d="M127.202,-21.1623C137.034,-19.9332 147.173,-18.6658 156.933,-17.4459"/>
<polygon fill="midnightblue" stroke="midnightblue" points="157.448,-20.9088 166.937,-16.1954 156.58,-13.9629 157.448,-20.9088"/>
</g>
</g>
</svg>
