<?xml version="1.0" encoding="UTF-8" standalone="no"?>
<!DOCTYPE svg PUBLIC "-//W3C//DTD SVG 1.1//EN"
 "http://www.w3.org/Graphics/SVG/1.1/DTD/svg11.dtd">
<!-- Generated by graphviz version 2.38.0 (20140413.2041)
 -->
<!-- Title: vnix::units::dyndim_base::d Pages: 1 -->
<svg width="354pt" height="323pt"
 viewBox="0.00 0.00 354.00 322.50" xmlns="http://www.w3.org/2000/svg" xmlns:xlink="http://www.w3.org/1999/xlink">
<g id="graph0" class="graph" transform="scale(1 1) rotate(0) translate(4 318.5)">
<title>vnix::units::dyndim_base::d</title>
<polygon fill="white" stroke="none" points="-4,4 -4,-318.5 350,-318.5 350,4 -4,4"/>
<!-- Node1 -->
<g id="node1" class="node"><title>Node1</title>
<polygon fill="#bfbfbf" stroke="black" points="0,-137 0,-167 99,-167 99,-137 0,-137"/>
<text text-anchor="start" x="8" y="-155" font-family="Helvetica,sans-Serif" font-size="10.00">vnix::units::dyndim</text>
<text text-anchor="middle" x="49.5" y="-144" font-family="Helvetica,sans-Serif" font-size="10.00">_base::d</text>
</g>
<!-- Node2 -->
<g id="node2" class="node"><title>Node2</title>
<g id="a_node2"><a xlink:href="classvnix_1_1units_1_1dyndim__base.html#ab768577582b85ed443b8ab727ccfed87" target="_top" xlink:title="Throw if dimension be non&#45;null. ">
<polygon fill="white" stroke="black" points="135.5,-284 135.5,-314 234.5,-314 234.5,-284 135.5,-284"/>
<text text-anchor="start" x="143.5" y="-302" font-family="Helvetica,sans-Serif" font-size="10.00">vnix::units::dyndim</text>
<text text-anchor="middle" x="185" y="-291" font-family="Helvetica,sans-Serif" font-size="10.00">_base::number</text>
</a>
</g>
</g>
<!-- Node1&#45;&gt;Node2 -->
<g id="edge1" class="edge"><title>Node1&#45;&gt;Node2</title>
<path fill="none" stroke="midnightblue" d="M62.2779,-176.231C76.41,-203.236 102.338,-246.804 135,-275 138.872,-278.343 143.291,-281.343 147.853,-283.997"/>
<polygon fill="midnightblue" stroke="midnightblue" points="65.2768,-174.407 57.6144,-167.09 59.0414,-177.588 65.2768,-174.407"/>
</g>
<!-- Node3 -->
<g id="node3" class="node"><title>Node3</title>
<g id="a_node3"><a xlink:href="structvnix_1_1units_1_1statdim__base.html#a8f8abe8591ffd36b2b51d86ff5b40f99" target="_top" xlink:title="Test for comparison of dimensioned values. ">
<polygon fill="white" stroke="black" points="135,-235 135,-265 235,-265 235,-235 135,-235"/>
<text text-anchor="start" x="143" y="-253" font-family="Helvetica,sans-Serif" font-size="10.00">vnix::units::statdim</text>
<text text-anchor="middle" x="185" y="-242" font-family="Helvetica,sans-Serif" font-size="10.00">_base::comparison</text>
</a>
</g>
</g>
<!-- Node1&#45;&gt;Node3 -->
<g id="edge2" class="edge"><title>Node1&#45;&gt;Node3</title>
<path fill="none" stroke="midnightblue" d="M72.8007,-174.467C89.1078,-190.135 112.262,-210.863 135,-226 139.731,-229.15 144.936,-232.141 150.133,-234.876"/>
<polygon fill="midnightblue" stroke="midnightblue" points="74.9805,-171.704 65.3773,-167.229 70.0935,-176.716 74.9805,-171.704"/>
</g>
<!-- Node4 -->
<g id="node4" class="node"><title>Node4</title>
<g id="a_node4"><a xlink:href="structvnix_1_1units_1_1statdim__base.html#a1befd7a6604e4f170df45a7a634a4ac2" target="_top" xlink:title="Dimension for sum of dimensioned values. ">
<polygon fill="white" stroke="black" points="135,-186 135,-216 235,-216 235,-186 135,-186"/>
<text text-anchor="start" x="143" y="-204" font-family="Helvetica,sans-Serif" font-size="10.00">vnix::units::statdim</text>
<text text-anchor="middle" x="185" y="-193" font-family="Helvetica,sans-Serif" font-size="10.00">_base::sum</text>
</a>
</g>
</g>
<!-- Node1&#45;&gt;Node4 -->
<g id="edge3" class="edge"><title>Node1&#45;&gt;Node4</title>
<path fill="none" stroke="midnightblue" d="M101.398,-170.682C115.071,-175.7 129.685,-181.064 142.762,-185.864"/>
<polygon fill="midnightblue" stroke="midnightblue" points="102.237,-167.261 91.6437,-167.101 99.8254,-173.833 102.237,-167.261"/>
</g>
<!-- Node6 -->
<g id="node6" class="node"><title>Node6</title>
<g id="a_node6"><a xlink:href="structvnix_1_1units_1_1statdim__base.html#a3ddefd8c3787a5a8830765b434cdabfc" target="_top" xlink:title="Dimension for difference of dimensioned values. ">
<polygon fill="white" stroke="black" points="135,-137 135,-167 235,-167 235,-137 135,-137"/>
<text text-anchor="start" x="143" y="-155" font-family="Helvetica,sans-Serif" font-size="10.00">vnix::units::statdim</text>
<text text-anchor="middle" x="185" y="-144" font-family="Helvetica,sans-Serif" font-size="10.00">_base::diff</text>
</a>
</g>
</g>
<!-- Node1&#45;&gt;Node6 -->
<g id="edge5" class="edge"><title>Node1&#45;&gt;Node6</title>
<path fill="none" stroke="midnightblue" d="M109.322,-152C117.825,-152 126.502,-152 134.79,-152"/>
<polygon fill="midnightblue" stroke="midnightblue" points="109.074,-148.5 99.0742,-152 109.074,-155.5 109.074,-148.5"/>
</g>
<!-- Node7 -->
<g id="node7" class="node"><title>Node7</title>
<g id="a_node7"><a xlink:href="structvnix_1_1units_1_1statdim__base.html#afc4b5217b097b3e6cb47a2bc8ecad319" target="_top" xlink:title="Dimension for product of dimensioned values. ">
<polygon fill="white" stroke="black" points="135,-88 135,-118 235,-118 235,-88 135,-88"/>
<text text-anchor="start" x="143" y="-106" font-family="Helvetica,sans-Serif" font-size="10.00">vnix::units::statdim</text>
<text text-anchor="middle" x="185" y="-95" font-family="Helvetica,sans-Serif" font-size="10.00">_base::prod</text>
</a>
</g>
</g>
<!-- Node1&#45;&gt;Node7 -->
<g id="edge7" class="edge"><title>Node1&#45;&gt;Node7</title>
<path fill="none" stroke="midnightblue" d="M101.398,-133.318C115.071,-128.3 129.685,-122.936 142.762,-118.136"/>
<polygon fill="midnightblue" stroke="midnightblue" points="99.8254,-130.167 91.6437,-136.899 102.237,-136.739 99.8254,-130.167"/>
</g>
<!-- Node9 -->
<g id="node9" class="node"><title>Node9</title>
<g id="a_node9"><a xlink:href="structvnix_1_1units_1_1statdim__base.html#a243297d22c3c03affdbf112b2264664c" target="_top" xlink:title="Dimension for quotient of dimensioned values. ">
<polygon fill="white" stroke="black" points="135,-39 135,-69 235,-69 235,-39 135,-39"/>
<text text-anchor="start" x="143" y="-57" font-family="Helvetica,sans-Serif" font-size="10.00">vnix::units::statdim</text>
<text text-anchor="middle" x="185" y="-46" font-family="Helvetica,sans-Serif" font-size="10.00">_base::quot</text>
</a>
</g>
</g>
<!-- Node1&#45;&gt;Node9 -->
<g id="edge9" class="edge"><title>Node1&#45;&gt;Node9</title>
<path fill="none" stroke="midnightblue" d="M73.229,-129.691C89.578,-114.333 112.606,-94.064 135,-79 140.23,-75.482 146.02,-72.1162 151.734,-69.0581"/>
<polygon fill="midnightblue" stroke="midnightblue" points="70.6004,-127.361 65.7716,-136.791 75.4274,-132.43 70.6004,-127.361"/>
</g>
<!-- Node10 -->
<g id="node10" class="node"><title>Node10</title>
<g id="a_node10"><a xlink:href="dyndim-base-test_8cpp.html#a57415854a4b2564e0f551e85f902969d" target="_top" xlink:title="TEST_CASE">
<polygon fill="white" stroke="black" points="147.5,-0.5 147.5,-19.5 222.5,-19.5 222.5,-0.5 147.5,-0.5"/>
<text text-anchor="middle" x="185" y="-7.5" font-family="Helvetica,sans-Serif" font-size="10.00">TEST_CASE</text>
</a>
</g>
</g>
<!-- Node1&#45;&gt;Node10 -->
<g id="edge11" class="edge"><title>Node1&#45;&gt;Node10</title>
<path fill="none" stroke="midnightblue" d="M61.9832,-127.56C75.8477,-100.406 101.534,-56.8576 135,-30 140.231,-25.8018 146.463,-22.3716 152.7,-19.6128"/>
<polygon fill="midnightblue" stroke="midnightblue" points="58.7272,-126.247 57.4175,-136.761 64.9977,-129.359 58.7272,-126.247"/>
</g>
<!-- Node5 -->
<g id="node5" class="node"><title>Node5</title>
<g id="a_node5"><a xlink:href="statdim-base-test_8cpp.html#a95fc148edfd36651685893df8bb3eaaa" target="_top" xlink:title="TEST_CASE">
<polygon fill="white" stroke="black" points="271,-166.5 271,-185.5 346,-185.5 346,-166.5 271,-166.5"/>
<text text-anchor="middle" x="308.5" y="-173.5" font-family="Helvetica,sans-Serif" font-size="10.00">TEST_CASE</text>
</a>
</g>
</g>
<!-- Node4&#45;&gt;Node5 -->
<g id="edge4" class="edge"><title>Node4&#45;&gt;Node5</title>
<path fill="none" stroke="midnightblue" d="M245.003,-188.86C253.856,-187.038 262.758,-185.206 270.957,-183.519"/>
<polygon fill="midnightblue" stroke="midnightblue" points="244.158,-185.46 235.068,-190.904 245.569,-192.316 244.158,-185.46"/>
</g>
<!-- Node6&#45;&gt;Node5 -->
<g id="edge6" class="edge"><title>Node6&#45;&gt;Node5</title>
<path fill="none" stroke="midnightblue" d="M245.003,-163.655C253.856,-165.404 262.758,-167.162 270.957,-168.782"/>
<polygon fill="midnightblue" stroke="midnightblue" points="245.557,-160.197 235.068,-161.693 244.201,-167.064 245.557,-160.197"/>
</g>
<!-- Node8 -->
<g id="node8" class="node"><title>Node8</title>
<g id="a_node8"><a xlink:href="statdim-base-test_8cpp.html#a68e3a7a324c9e858052f4d2856df5163" target="_top" xlink:title="TEST_CASE">
<polygon fill="white" stroke="black" points="271,-69.5 271,-88.5 346,-88.5 346,-69.5 271,-69.5"/>
<text text-anchor="middle" x="308.5" y="-76.5" font-family="Helvetica,sans-Serif" font-size="10.00">TEST_CASE</text>
</a>
</g>
</g>
<!-- Node7&#45;&gt;Node8 -->
<g id="edge8" class="edge"><title>Node7&#45;&gt;Node8</title>
<path fill="none" stroke="midnightblue" d="M245.003,-91.3452C253.856,-89.5964 262.758,-87.8379 270.957,-86.2183"/>
<polygon fill="midnightblue" stroke="midnightblue" points="244.201,-87.9359 235.068,-93.3075 245.557,-94.8032 244.201,-87.9359"/>
</g>
<!-- Node9&#45;&gt;Node8 -->
<g id="edge10" class="edge"><title>Node9&#45;&gt;Node8</title>
<path fill="none" stroke="midnightblue" d="M245.003,-66.1405C253.856,-67.962 262.758,-69.7938 270.957,-71.4809"/>
<polygon fill="midnightblue" stroke="midnightblue" points="245.569,-62.6837 235.068,-64.0964 244.158,-69.54 245.569,-62.6837"/>
</g>
</g>
</svg>
