<?xml version="1.0" encoding="UTF-8" standalone="no"?>
<!DOCTYPE svg PUBLIC "-//W3C//DTD SVG 1.1//EN"
 "http://www.w3.org/Graphics/SVG/1.1/DTD/svg11.dtd">
<!-- Generated by graphviz version 2.38.0 (20140413.2041)
 -->
<!-- Title: vnix::rat::encoding&lt; NMR_BITS, DNM_BITS &gt; Pages: 1 -->
<svg width="173pt" height="263pt"
 viewBox="0.00 0.00 173.00 263.00" xmlns="http://www.w3.org/2000/svg" xmlns:xlink="http://www.w3.org/1999/xlink">
<g id="graph0" class="graph" transform="scale(1 1) rotate(0) translate(4 259)">
<title>vnix::rat::encoding&lt; NMR_BITS, DNM_BITS &gt;</title>
<polygon fill="white" stroke="none" points="-4,4 -4,-259 169,-259 169,4 -4,4"/>
<!-- Node1 -->
<g id="node1" class="node"><title>Node1</title>
<polygon fill="#bfbfbf" stroke="black" points="0,-224.5 0,-254.5 143,-254.5 143,-224.5 0,-224.5"/>
<text text-anchor="start" x="8" y="-242.5" font-family="Helvetica,sans-Serif" font-size="10.00">vnix::rat::encoding</text>
<text text-anchor="middle" x="71.5" y="-231.5" font-family="Helvetica,sans-Serif" font-size="10.00">&lt; NMR_BITS, DNM_BITS &gt;</text>
</g>
<!-- Node2 -->
<g id="node2" class="node"><title>Node2</title>
<g id="a_node2"><a xlink:href="classvnix_1_1rat_1_1encoding.html" target="_top" xlink:title="vnix::rat::encoding\l\&lt; NB, DB \&gt;">
<polygon fill="white" stroke="black" points="23,-146.5 23,-176.5 120,-176.5 120,-146.5 23,-146.5"/>
<text text-anchor="start" x="31" y="-164.5" font-family="Helvetica,sans-Serif" font-size="10.00">vnix::rat::encoding</text>
<text text-anchor="middle" x="71.5" y="-153.5" font-family="Helvetica,sans-Serif" font-size="10.00">&lt; NB, DB &gt;</text>
</a>
</g>
</g>
<!-- Node1&#45;&gt;Node2 -->
<g id="edge1" class="edge"><title>Node1&#45;&gt;Node2</title>
<path fill="none" stroke="orange" stroke-dasharray="5,2" d="M71.5,-214.09C71.5,-201.757 71.5,-187.224 71.5,-176.731"/>
<polygon fill="orange" stroke="orange" points="68.0001,-214.205 71.5,-224.205 75.0001,-214.205 68.0001,-214.205"/>
<text text-anchor="middle" x="99.5" y="-198" font-family="Helvetica,sans-Serif" font-size="10.00"> &lt; NB, DB &gt;</text>
</g>
<!-- Node3 -->
<g id="node3" class="node"><title>Node3</title>
<g id="a_node3"><a xlink:href="classvnix_1_1rat_1_1rational.html" target="_top" xlink:title="vnix::rat::rational\l\&lt; 4, 2 \&gt;">
<polygon fill="white" stroke="black" points="29,-0.5 29,-30.5 118,-30.5 118,-0.5 29,-0.5"/>
<text text-anchor="start" x="37" y="-18.5" font-family="Helvetica,sans-Serif" font-size="10.00">vnix::rat::rational</text>
<text text-anchor="middle" x="73.5" y="-7.5" font-family="Helvetica,sans-Serif" font-size="10.00">&lt; 4, 2 &gt;</text>
</a>
</g>
</g>
<!-- Node2&#45;&gt;Node3 -->
<g id="edge2" class="edge"><title>Node2&#45;&gt;Node3</title>
<path fill="none" stroke="midnightblue" d="M69.2082,-136.013C68.5125,-127.473 67.8421,-117.821 67.5,-109 66.9661,-95.2326 66.8303,-91.7615 67.5,-78 68.2926,-61.7131 70.2592,-43.0857 71.7263,-30.639"/>
<polygon fill="midnightblue" stroke="midnightblue" points="65.7309,-136.427 70.0801,-146.088 72.7048,-135.824 65.7309,-136.427"/>
</g>
<!-- Node4 -->
<g id="node4" class="node"><title>Node4</title>
<g id="a_node4"><a xlink:href="classvnix_1_1rat_1_1rational.html" target="_top" xlink:title="Model of a fixed&#45;precision rational number. ">
<polygon fill="white" stroke="black" points="76,-78.5 76,-108.5 165,-108.5 165,-78.5 76,-78.5"/>
<text text-anchor="start" x="84" y="-96.5" font-family="Helvetica,sans-Serif" font-size="10.00">vnix::rat::rational</text>
<text text-anchor="middle" x="120.5" y="-85.5" font-family="Helvetica,sans-Serif" font-size="10.00">&lt; NB, DB &gt;</text>
</a>
</g>
</g>
<!-- Node2&#45;&gt;Node4 -->
<g id="edge3" class="edge"><title>Node2&#45;&gt;Node4</title>
<path fill="none" stroke="midnightblue" d="M88.1244,-138.108C95.3226,-128.412 103.536,-117.35 109.888,-108.793"/>
<polygon fill="midnightblue" stroke="midnightblue" points="85.2831,-136.063 82.1323,-146.179 90.9035,-140.236 85.2831,-136.063"/>
</g>
<!-- Node4&#45;&gt;Node3 -->
<g id="edge4" class="edge"><title>Node4&#45;&gt;Node3</title>
<path fill="none" stroke="orange" stroke-dasharray="5,2" d="M106.322,-69.5735C98.5074,-56.9375 89.0518,-41.6476 82.3007,-30.7309"/>
<polygon fill="orange" stroke="orange" points="103.423,-71.5408 111.66,-78.205 109.377,-67.859 103.423,-71.5408"/>
<text text-anchor="middle" x="119.5" y="-52" font-family="Helvetica,sans-Serif" font-size="10.00"> &lt; 4, 2 &gt;</text>
</g>
</g>
</svg>
