<?xml version="1.0" encoding="UTF-8" standalone="no"?>
<!DOCTYPE svg PUBLIC "-//W3C//DTD SVG 1.1//EN"
 "http://www.w3.org/Graphics/SVG/1.1/DTD/svg11.dtd">
<!-- Generated by graphviz version 2.38.0 (20140413.2041)
 -->
<!-- Title: vnix::units::basic_dyndim::basic_dyndim Pages: 1 -->
<svg width="254pt" height="39pt"
 viewBox="0.00 0.00 254.00 39.00" xmlns="http://www.w3.org/2000/svg" xmlns:xlink="http://www.w3.org/1999/xlink">
<g id="graph0" class="graph" transform="scale(1 1) rotate(0) translate(4 35)">
<title>vnix::units::basic_dyndim::basic_dyndim</title>
<polygon fill="white" stroke="none" points="-4,4 -4,-35 250,-35 250,4 -4,4"/>
<!-- Node1 -->
<g id="node1" class="node"><title>Node1</title>
<polygon fill="#bfbfbf" stroke="black" points="0,-0.5 0,-30.5 119,-30.5 119,-0.5 0,-0.5"/>
<text text-anchor="start" x="8" y="-18.5" font-family="Helvetica,sans-Serif" font-size="10.00">vnix::units::basic</text>
<text text-anchor="middle" x="59.5" y="-7.5" font-family="Helvetica,sans-Serif" font-size="10.00">_dyndim::basic_dyndim</text>
</g>
<!-- Node2 -->
<g id="node2" class="node"><title>Node2</title>
<g id="a_node2"><a xlink:href="classvnix_1_1units_1_1basic__dim.html#aeb6a7ca2b4d90e873b7a824c149581f0" target="_top" xlink:title="vnix::units::basic\l_dim::basic_dim">
<polygon fill="white" stroke="black" points="155,-0.5 155,-30.5 246,-30.5 246,-0.5 155,-0.5"/>
<text text-anchor="start" x="163" y="-18.5" font-family="Helvetica,sans-Serif" font-size="10.00">vnix::units::basic</text>
<text text-anchor="middle" x="200.5" y="-7.5" font-family="Helvetica,sans-Serif" font-size="10.00">_dim::basic_dim</text>
</a>
</g>
</g>
<!-- Node1&#45;&gt;Node2 -->
<g id="edge1" class="edge"><title>Node1&#45;&gt;Node2</title>
<path fill="none" stroke="midnightblue" d="M119.046,-15.5C127.591,-15.5 136.363,-15.5 144.827,-15.5"/>
<polygon fill="midnightblue" stroke="midnightblue" points="144.962,-19.0001 154.962,-15.5 144.962,-12.0001 144.962,-19.0001"/>
</g>
</g>
</svg>
