<?xml version="1.0" encoding="UTF-8" standalone="no"?>
<!DOCTYPE svg PUBLIC "-//W3C//DTD SVG 1.1//EN"
 "http://www.w3.org/Graphics/SVG/1.1/DTD/svg11.dtd">
<!-- Generated by graphviz version 2.38.0 (20140413.2041)
 -->
<!-- Title: vnix::units::dyndim_base Pages: 1 -->
<svg width="184pt" height="329pt"
 viewBox="0.00 0.00 183.50 329.00" xmlns="http://www.w3.org/2000/svg" xmlns:xlink="http://www.w3.org/1999/xlink">
<g id="graph0" class="graph" transform="scale(1 1) rotate(0) translate(4 325)">
<title>vnix::units::dyndim_base</title>
<polygon fill="white" stroke="none" points="-4,4 -4,-325 179.5,-325 179.5,4 -4,4"/>
<!-- Node1 -->
<g id="node1" class="node"><title>Node1</title>
<polygon fill="#bfbfbf" stroke="black" points="5,-0.5 5,-19.5 130,-19.5 130,-0.5 5,-0.5"/>
<text text-anchor="middle" x="67.5" y="-7.5" font-family="Helvetica,sans-Serif" font-size="10.00">vnix::units::dyndim_base</text>
</g>
<!-- Node2 -->
<g id="node2" class="node"><title>Node2</title>
<g id="a_node2"><a xlink:href="classvnix_1_1units_1_1basic__dim.html" target="_top" xlink:title="vnix::units::basic\l_dim\&lt; dim_base_off \&gt;">
<polygon fill="white" stroke="black" points="10.5,-67.5 10.5,-97.5 124.5,-97.5 124.5,-67.5 10.5,-67.5"/>
<text text-anchor="start" x="18.5" y="-85.5" font-family="Helvetica,sans-Serif" font-size="10.00">vnix::units::basic</text>
<text text-anchor="middle" x="67.5" y="-74.5" font-family="Helvetica,sans-Serif" font-size="10.00">_dim&lt; dim_base_off &gt;</text>
</a>
</g>
</g>
<!-- Node2&#45;&gt;Node1 -->
<g id="edge1" class="edge"><title>Node2&#45;&gt;Node1</title>
<path fill="none" stroke="#9a32cd" stroke-dasharray="5,2" d="M67.5,-57.0913C67.5,-44.2136 67.5,-29.1974 67.5,-19.8932"/>
<polygon fill="#9a32cd" stroke="#9a32cd" points="64.0001,-57.2332 67.5,-67.2333 71.0001,-57.2333 64.0001,-57.2332"/>
<text text-anchor="middle" x="74.5" y="-41" font-family="Helvetica,sans-Serif" font-size="10.00"> d_</text>
</g>
<!-- Node3 -->
<g id="node3" class="node"><title>Node3</title>
<g id="a_node3"><a xlink:href="structvnix_1_1int__types.html" target="_top" xlink:title="vnix::int_types\&lt; NUM\l_BITS \&gt;">
<polygon fill="white" stroke="black" points="0,-223.5 0,-253.5 113,-253.5 113,-223.5 0,-223.5"/>
<text text-anchor="start" x="8" y="-241.5" font-family="Helvetica,sans-Serif" font-size="10.00">vnix::int_types&lt; NUM</text>
<text text-anchor="middle" x="56.5" y="-230.5" font-family="Helvetica,sans-Serif" font-size="10.00">_BITS &gt;</text>
</a>
</g>
</g>
<!-- Node3&#45;&gt;Node2 -->
<g id="edge2" class="edge"><title>Node3&#45;&gt;Node2</title>
<path fill="none" stroke="#9a32cd" stroke-dasharray="5,2" d="M51.801,-213.299C48.8583,-194.581 46.1954,-168.055 49.5,-145 51.8677,-128.481 57.6406,-110.206 62.0153,-97.9041"/>
<polygon fill="#9a32cd" stroke="#9a32cd" points="48.3819,-214.068 53.523,-223.332 55.281,-212.884 48.3819,-214.068"/>
<text text-anchor="middle" x="56.5" y="-158" font-family="Helvetica,sans-Serif" font-size="10.00"> e_</text>
</g>
<!-- Node5 -->
<g id="node5" class="node"><title>Node5</title>
<g id="a_node5"><a xlink:href="classvnix_1_1units_1_1basic__dim.html" target="_top" xlink:title="Rational exponent for each basis&#45;element of dimension. ">
<polygon fill="white" stroke="black" points="73,-145.5 73,-175.5 164,-175.5 164,-145.5 73,-145.5"/>
<text text-anchor="start" x="81" y="-163.5" font-family="Helvetica,sans-Serif" font-size="10.00">vnix::units::basic</text>
<text text-anchor="middle" x="118.5" y="-152.5" font-family="Helvetica,sans-Serif" font-size="10.00">_dim&lt; DBO &gt;</text>
</a>
</g>
</g>
<!-- Node3&#45;&gt;Node5 -->
<g id="edge5" class="edge"><title>Node3&#45;&gt;Node5</title>
<path fill="none" stroke="#9a32cd" stroke-dasharray="5,2" d="M74.6052,-215.307C85.0258,-202.533 97.8119,-186.86 106.891,-175.731"/>
<polygon fill="#9a32cd" stroke="#9a32cd" points="71.771,-213.244 68.1617,-223.205 77.1951,-217.669 71.771,-213.244"/>
<text text-anchor="middle" x="97.5" y="-197" font-family="Helvetica,sans-Serif" font-size="10.00"> e_</text>
</g>
<!-- Node4 -->
<g id="node4" class="node"><title>Node4</title>
<g id="a_node4"><a xlink:href="structvnix_1_1int__types.html" target="_top" xlink:title="Smallest integer types for holding certain number of bits. ">
<polygon fill="white" stroke="black" points="0,-301.5 0,-320.5 113,-320.5 113,-301.5 0,-301.5"/>
<text text-anchor="middle" x="56.5" y="-308.5" font-family="Helvetica,sans-Serif" font-size="10.00">vnix::int_types&lt; NB &gt;</text>
</a>
</g>
</g>
<!-- Node4&#45;&gt;Node3 -->
<g id="edge3" class="edge"><title>Node4&#45;&gt;Node3</title>
<path fill="none" stroke="orange" stroke-dasharray="5,2" d="M56.5,-291.236C56.5,-279.408 56.5,-264.383 56.5,-253.576"/>
<polygon fill="orange" stroke="orange" points="53.0001,-291.355 56.5,-301.355 60.0001,-291.355 53.0001,-291.355"/>
<text text-anchor="middle" x="93" y="-275" font-family="Helvetica,sans-Serif" font-size="10.00"> &lt; NUM_BITS &gt;</text>
</g>
<!-- Node5&#45;&gt;Node2 -->
<g id="edge4" class="edge"><title>Node5&#45;&gt;Node2</title>
<path fill="none" stroke="orange" stroke-dasharray="5,2" d="M103.115,-136.574C94.6357,-123.937 84.3754,-108.648 77.0497,-97.7309"/>
<polygon fill="orange" stroke="orange" points="100.429,-138.852 108.907,-145.205 106.241,-134.951 100.429,-138.852"/>
<text text-anchor="middle" x="135.5" y="-119" font-family="Helvetica,sans-Serif" font-size="10.00"> &lt; dim_base_off &gt;</text>
</g>
</g>
</svg>
