<?xml version="1.0" encoding="UTF-8" standalone="no"?>
<!DOCTYPE svg PUBLIC "-//W3C//DTD SVG 1.1//EN"
 "http://www.w3.org/Graphics/SVG/1.1/DTD/svg11.dtd">
<!-- Generated by graphviz version 2.38.0 (20140413.2041)
 -->
<!-- Title: vnix Pages: 1 -->
<svg width="166pt" height="148pt"
 viewBox="0.00 0.00 166.00 148.00" xmlns="http://www.w3.org/2000/svg" xmlns:xlink="http://www.w3.org/1999/xlink">
<g id="graph0" class="graph" transform="scale(1 1) rotate(0) translate(4 144)">
<title>vnix</title>
<polygon fill="white" stroke="none" points="-4,4 -4,-144 162,-144 162,4 -4,4"/>
<g id="clust1" class="cluster"><title>clusterdir_6427337def67d0505f709ff9867a78f1</title>
<g id="a_clust1"><a xlink:href="dir_6427337def67d0505f709ff9867a78f1.html" target="_top">
<polygon fill="#eeeeff" stroke="black" points="8,-8 8,-132 150,-132 150,-8 8,-8"/>
</a>
</g>
</g>
<!-- dir_6427337def67d0505f709ff9867a78f1 -->
<g id="node1" class="node"><title>dir_6427337def67d0505f709ff9867a78f1</title>
<text text-anchor="middle" x="79" y="-103.5" font-family="Helvetica,sans-Serif" font-size="10.00">vnix</text>
</g>
<!-- dir_93b5f98d607ae3a9633552af96b713ac -->
<g id="node2" class="node"><title>dir_93b5f98d607ae3a9633552af96b713ac</title>
<g id="a_node2"><a xlink:href="dir_93b5f98d607ae3a9633552af96b713ac.html" target="_top" xlink:title="rat">
<polygon fill="white" stroke="black" points="70,-52 16,-52 16,-16 70,-16 70,-52"/>
<text text-anchor="middle" x="43" y="-31.5" font-family="Helvetica,sans-Serif" font-size="10.00">rat</text>
</a>
</g>
</g>
<!-- dir_6427337def67d0505f709ff9867a78f1&#45;&gt;dir_93b5f98d607ae3a9633552af96b713ac -->
<g id="edge2" class="edge"><title>dir_6427337def67d0505f709ff9867a78f1&#45;&gt;dir_93b5f98d607ae3a9633552af96b713ac</title>
<path fill="none" stroke="black" d="M70.1011,-87.6966C66.0032,-79.7284 61.0512,-70.0995 56.5073,-61.2641"/>
<polygon fill="black" stroke="black" points="59.4826,-59.3965 51.7965,-52.1043 53.2575,-62.598 59.4826,-59.3965"/>
<g id="a_edge2&#45;headlabel"><a xlink:href="dir_000001_000002.html" target="_top" xlink:title="1">
<text text-anchor="middle" x="63.6514" y="-58.7946" font-family="Helvetica,sans-Serif" font-size="10.00">1</text>
</a>
</g>
</g>
<!-- dir_8d09e3702fb8af253b63aef1b08d6d95 -->
<g id="node3" class="node"><title>dir_8d09e3702fb8af253b63aef1b08d6d95</title>
<g id="a_node3"><a xlink:href="dir_8d09e3702fb8af253b63aef1b08d6d95.html" target="_top" xlink:title="units">
<polygon fill="white" stroke="black" points="142,-52 88,-52 88,-16 142,-16 142,-52"/>
<text text-anchor="middle" x="115" y="-31.5" font-family="Helvetica,sans-Serif" font-size="10.00">units</text>
</a>
</g>
</g>
<!-- dir_6427337def67d0505f709ff9867a78f1&#45;&gt;dir_8d09e3702fb8af253b63aef1b08d6d95 -->
<g id="edge1" class="edge"><title>dir_6427337def67d0505f709ff9867a78f1&#45;&gt;dir_8d09e3702fb8af253b63aef1b08d6d95</title>
<path fill="none" stroke="black" d="M87.8989,-87.6966C91.9968,-79.7284 96.9488,-70.0995 101.493,-61.2641"/>
<polygon fill="black" stroke="black" points="104.742,-62.598 106.203,-52.1043 98.5174,-59.3965 104.742,-62.598"/>
<g id="a_edge1&#45;headlabel"><a xlink:href="dir_000001_000003.html" target="_top" xlink:title="1">
<text text-anchor="middle" x="105.623" y="-64.5931" font-family="Helvetica,sans-Serif" font-size="10.00">1</text>
</a>
</g>
</g>
</g>
</svg>
