<?xml version="1.0" encoding="UTF-8" standalone="no"?>
<!DOCTYPE svg PUBLIC "-//W3C//DTD SVG 1.1//EN"
 "http://www.w3.org/Graphics/SVG/1.1/DTD/svg11.dtd">
<!-- Generated by graphviz version 2.38.0 (20140413.2041)
 -->
<!-- Title: vnix/units/dyndim&#45;base.hpp Pages: 1 -->
<svg width="548pt" height="263pt"
 viewBox="0.00 0.00 548.00 263.00" xmlns="http://www.w3.org/2000/svg" xmlns:xlink="http://www.w3.org/1999/xlink">
<g id="graph0" class="graph" transform="scale(1 1) rotate(0) translate(4 259)">
<title>vnix/units/dyndim&#45;base.hpp</title>
<polygon fill="white" stroke="none" points="-4,4 -4,-259 544,-259 544,4 -4,4"/>
<!-- Node1 -->
<g id="node1" class="node"><title>Node1</title>
<polygon fill="#bfbfbf" stroke="black" points="188.5,-235.5 188.5,-254.5 324.5,-254.5 324.5,-235.5 188.5,-235.5"/>
<text text-anchor="middle" x="256.5" y="-242.5" font-family="Helvetica,sans-Serif" font-size="10.00">vnix/units/dyndim&#45;base.hpp</text>
</g>
<!-- Node2 -->
<g id="node2" class="node"><title>Node2</title>
<g id="a_node2"><a xlink:href="dimval_8hpp.html" target="_top" xlink:title="Definition of vnix::units::dimval, descendants, and typedefs. ">
<polygon fill="white" stroke="black" points="133,-112.5 133,-131.5 242,-131.5 242,-112.5 133,-112.5"/>
<text text-anchor="middle" x="187.5" y="-119.5" font-family="Helvetica,sans-Serif" font-size="10.00">vnix/units/dimval.hpp</text>
</a>
</g>
</g>
<!-- Node1&#45;&gt;Node2 -->
<g id="edge1" class="edge"><title>Node1&#45;&gt;Node2</title>
<path fill="none" stroke="midnightblue" d="M246.465,-226.402C231.44,-200.053 203.662,-151.342 192.417,-131.623"/>
<polygon fill="midnightblue" stroke="midnightblue" points="243.544,-228.345 251.538,-235.298 249.624,-224.877 243.544,-228.345"/>
</g>
<!-- Node7 -->
<g id="node7" class="node"><title>Node7</title>
<g id="a_node7"><a xlink:href="statdim-base_8hpp.html" target="_top" xlink:title="Definition of vnix::units::statdim_base. ">
<polygon fill="white" stroke="black" points="262.5,-168.5 262.5,-198.5 356.5,-198.5 356.5,-168.5 262.5,-168.5"/>
<text text-anchor="start" x="270.5" y="-186.5" font-family="Helvetica,sans-Serif" font-size="10.00">vnix/units/statdim</text>
<text text-anchor="middle" x="309.5" y="-175.5" font-family="Helvetica,sans-Serif" font-size="10.00">&#45;base.hpp</text>
</a>
</g>
</g>
<!-- Node1&#45;&gt;Node7 -->
<g id="edge6" class="edge"><title>Node1&#45;&gt;Node7</title>
<path fill="none" stroke="midnightblue" d="M270.921,-227.811C279.082,-218.649 289.188,-207.303 297.009,-198.523"/>
<polygon fill="midnightblue" stroke="midnightblue" points="268.132,-225.68 264.094,-235.475 273.359,-230.336 268.132,-225.68"/>
</g>
<!-- Node3 -->
<g id="node3" class="node"><title>Node3</title>
<g id="a_node3"><a xlink:href="units_8hpp.html" target="_top" xlink:title="Definition of various units in namespaces vnix::units::flt, vnix::units::dbl, and vnix::units::ldbl...">
<polygon fill="white" stroke="black" points="149,-56.5 149,-75.5 226,-75.5 226,-56.5 149,-56.5"/>
<text text-anchor="middle" x="187.5" y="-63.5" font-family="Helvetica,sans-Serif" font-size="10.00">vnix/units.hpp</text>
</a>
</g>
</g>
<!-- Node2&#45;&gt;Node3 -->
<g id="edge2" class="edge"><title>Node2&#45;&gt;Node3</title>
<path fill="none" stroke="midnightblue" d="M187.5,-101.805C187.5,-92.9102 187.5,-82.7798 187.5,-75.7511"/>
<polygon fill="midnightblue" stroke="midnightblue" points="184,-102.083 187.5,-112.083 191,-102.083 184,-102.083"/>
</g>
<!-- Node4 -->
<g id="node4" class="node"><title>Node4</title>
<g id="a_node4"><a xlink:href="dimval-test_8cpp.html" target="_top" xlink:title="Test&#45;cases for vnix::units::dimval. ">
<polygon fill="white" stroke="black" points="0,-0.5 0,-19.5 103,-19.5 103,-0.5 0,-0.5"/>
<text text-anchor="middle" x="51.5" y="-7.5" font-family="Helvetica,sans-Serif" font-size="10.00">test/dimval&#45;test.cpp</text>
</a>
</g>
</g>
<!-- Node3&#45;&gt;Node4 -->
<g id="edge3" class="edge"><title>Node3&#45;&gt;Node4</title>
<path fill="none" stroke="midnightblue" d="M156.365,-52.6377C130.843,-42.504 95.3913,-28.4274 72.9488,-19.5164"/>
<polygon fill="midnightblue" stroke="midnightblue" points="155.365,-56.0061 165.95,-56.4435 157.948,-49.5002 155.365,-56.0061"/>
</g>
<!-- Node5 -->
<g id="node5" class="node"><title>Node5</title>
<g id="a_node5"><a xlink:href="eigen-compat-test_8cpp.html" target="_top" xlink:title="Test&#45;cases for compatibility with Eigen. ">
<polygon fill="white" stroke="black" points="121,-0.5 121,-19.5 254,-19.5 254,-0.5 121,-0.5"/>
<text text-anchor="middle" x="187.5" y="-7.5" font-family="Helvetica,sans-Serif" font-size="10.00">test/eigen&#45;compat&#45;test.cpp</text>
</a>
</g>
</g>
<!-- Node3&#45;&gt;Node5 -->
<g id="edge4" class="edge"><title>Node3&#45;&gt;Node5</title>
<path fill="none" stroke="midnightblue" d="M187.5,-45.8045C187.5,-36.9102 187.5,-26.7798 187.5,-19.7511"/>
<polygon fill="midnightblue" stroke="midnightblue" points="184,-46.083 187.5,-56.083 191,-46.083 184,-46.083"/>
</g>
<!-- Node6 -->
<g id="node6" class="node"><title>Node6</title>
<g id="a_node6"><a xlink:href="example1_8cpp.html" target="_top" xlink:title="test/example1.cpp">
<polygon fill="white" stroke="black" points="272,-0.5 272,-19.5 369,-19.5 369,-0.5 272,-0.5"/>
<text text-anchor="middle" x="320.5" y="-7.5" font-family="Helvetica,sans-Serif" font-size="10.00">test/example1.cpp</text>
</a>
</g>
</g>
<!-- Node3&#45;&gt;Node6 -->
<g id="edge5" class="edge"><title>Node3&#45;&gt;Node6</title>
<path fill="none" stroke="midnightblue" d="M217.948,-52.6377C242.907,-42.504 277.577,-28.4274 299.524,-19.5164"/>
<polygon fill="midnightblue" stroke="midnightblue" points="216.523,-49.4387 208.574,-56.4435 219.156,-55.9245 216.523,-49.4387"/>
</g>
<!-- Node7&#45;&gt;Node2 -->
<g id="edge7" class="edge"><title>Node7&#45;&gt;Node2</title>
<path fill="none" stroke="midnightblue" d="M271.444,-163.94C249.34,-153.159 222.53,-140.084 205.252,-131.658"/>
<polygon fill="midnightblue" stroke="midnightblue" points="270.065,-167.162 280.588,-168.399 273.134,-160.87 270.065,-167.162"/>
</g>
<!-- Node8 -->
<g id="node8" class="node"><title>Node8</title>
<g id="a_node8"><a xlink:href="dyndim-base-test_8cpp.html" target="_top" xlink:title="Test&#45;cases for vnix::units::dyndim_base. ">
<polygon fill="white" stroke="black" points="260.5,-112.5 260.5,-131.5 390.5,-131.5 390.5,-112.5 260.5,-112.5"/>
<text text-anchor="middle" x="325.5" y="-119.5" font-family="Helvetica,sans-Serif" font-size="10.00">test/dyndim&#45;base&#45;test.cpp</text>
</a>
</g>
</g>
<!-- Node7&#45;&gt;Node8 -->
<g id="edge8" class="edge"><title>Node7&#45;&gt;Node8</title>
<path fill="none" stroke="midnightblue" d="M315.929,-158.593C318.488,-149.077 321.27,-138.73 323.172,-131.658"/>
<polygon fill="midnightblue" stroke="midnightblue" points="312.509,-157.833 313.292,-168.399 319.269,-159.651 312.509,-157.833"/>
</g>
<!-- Node9 -->
<g id="node9" class="node"><title>Node9</title>
<g id="a_node9"><a xlink:href="statdim-base-test_8cpp.html" target="_top" xlink:title="Test&#45;cases for vnix::units::statdim_base. ">
<polygon fill="white" stroke="black" points="409,-112.5 409,-131.5 540,-131.5 540,-112.5 409,-112.5"/>
<text text-anchor="middle" x="474.5" y="-119.5" font-family="Helvetica,sans-Serif" font-size="10.00">test/statdim&#45;base&#45;test.cpp</text>
</a>
</g>
</g>
<!-- Node7&#45;&gt;Node9 -->
<g id="edge9" class="edge"><title>Node7&#45;&gt;Node9</title>
<path fill="none" stroke="midnightblue" d="M358.186,-164.944C388.586,-153.981 426.393,-140.348 450.491,-131.658"/>
<polygon fill="midnightblue" stroke="midnightblue" points="356.822,-161.715 348.603,-168.399 359.197,-168.299 356.822,-161.715"/>
</g>
</g>
</svg>
