<?xml version="1.0" encoding="UTF-8" standalone="no"?>
<!DOCTYPE svg PUBLIC "-//W3C//DTD SVG 1.1//EN"
 "http://www.w3.org/Graphics/SVG/1.1/DTD/svg11.dtd">
<!-- Generated by graphviz version 2.38.0 (20140413.2041)
 -->
<!-- Title: vnix/rat/encoding.hpp Pages: 1 -->
<svg width="318pt" height="207pt"
 viewBox="0.00 0.00 318.00 207.00" xmlns="http://www.w3.org/2000/svg" xmlns:xlink="http://www.w3.org/1999/xlink">
<g id="graph0" class="graph" transform="scale(1 1) rotate(0) translate(4 203)">
<title>vnix/rat/encoding.hpp</title>
<polygon fill="white" stroke="none" points="-4,4 -4,-203 314,-203 314,4 -4,4"/>
<!-- Node1 -->
<g id="node1" class="node"><title>Node1</title>
<polygon fill="#bfbfbf" stroke="black" points="49,-179.5 49,-198.5 159,-198.5 159,-179.5 49,-179.5"/>
<text text-anchor="middle" x="104" y="-186.5" font-family="Helvetica,sans-Serif" font-size="10.00">vnix/rat/encoding.hpp</text>
</g>
<!-- Node2 -->
<g id="node2" class="node"><title>Node2</title>
<g id="a_node2"><a xlink:href="bit-range_8hpp.html" target="_top" xlink:title="Definition of vnix::bit, vnix::bit_range. ">
<polygon fill="white" stroke="black" points="0,-118 0,-137 94,-137 94,-118 0,-118"/>
<text text-anchor="middle" x="47" y="-125" font-family="Helvetica,sans-Serif" font-size="10.00">vnix/bit&#45;range.hpp</text>
</a>
</g>
</g>
<!-- Node1&#45;&gt;Node2 -->
<g id="edge1" class="edge"><title>Node1&#45;&gt;Node2</title>
<path fill="none" stroke="midnightblue" d="M95.8333,-179.475C87.1139,-170.373 73.0964,-155.741 62.3114,-144.483"/>
<polygon fill="midnightblue" stroke="midnightblue" points="64.5967,-141.809 55.1516,-137.009 59.5419,-146.651 64.5967,-141.809"/>
</g>
<!-- Node3 -->
<g id="node3" class="node"><title>Node3</title>
<g id="a_node3"><a xlink:href="normalized-pair_8hpp.html" target="_top" xlink:title="Definition of vnix::rat::normalized_pair. ">
<polygon fill="white" stroke="black" points="112.5,-112.5 112.5,-142.5 211.5,-142.5 211.5,-112.5 112.5,-112.5"/>
<text text-anchor="start" x="120.5" y="-130.5" font-family="Helvetica,sans-Serif" font-size="10.00">vnix/rat/normalized</text>
<text text-anchor="middle" x="162" y="-119.5" font-family="Helvetica,sans-Serif" font-size="10.00">&#45;pair.hpp</text>
</a>
</g>
</g>
<!-- Node1&#45;&gt;Node3 -->
<g id="edge2" class="edge"><title>Node1&#45;&gt;Node3</title>
<path fill="none" stroke="midnightblue" d="M112.31,-179.475C119.798,-171.793 131.127,-160.172 141.077,-149.964"/>
<polygon fill="midnightblue" stroke="midnightblue" points="143.857,-152.127 148.331,-142.523 138.844,-147.241 143.857,-152.127"/>
</g>
<!-- Node4 -->
<g id="node4" class="node"><title>Node4</title>
<polygon fill="white" stroke="#bfbfbf" points="68,-56.5 68,-75.5 108,-75.5 108,-56.5 68,-56.5"/>
<text text-anchor="middle" x="88" y="-63.5" font-family="Helvetica,sans-Serif" font-size="10.00">utility</text>
</g>
<!-- Node3&#45;&gt;Node4 -->
<g id="edge3" class="edge"><title>Node3&#45;&gt;Node4</title>
<path fill="none" stroke="midnightblue" d="M144.463,-112.399C133.156,-103.308 118.458,-91.4899 106.893,-82.1909"/>
<polygon fill="midnightblue" stroke="midnightblue" points="108.754,-79.1964 98.7677,-75.6578 104.368,-84.6517 108.754,-79.1964"/>
</g>
<!-- Node5 -->
<g id="node5" class="node"><title>Node5</title>
<g id="a_node5"><a xlink:href="gcd_8hpp.html" target="_top" xlink:title="Definition of vnix::gcd. ">
<polygon fill="white" stroke="black" points="126,-56.5 126,-75.5 198,-75.5 198,-56.5 126,-56.5"/>
<text text-anchor="middle" x="162" y="-63.5" font-family="Helvetica,sans-Serif" font-size="10.00">vnix/gcd.hpp</text>
</a>
</g>
</g>
<!-- Node3&#45;&gt;Node5 -->
<g id="edge4" class="edge"><title>Node3&#45;&gt;Node5</title>
<path fill="none" stroke="midnightblue" d="M162,-112.399C162,-104.466 162,-94.458 162,-85.8583"/>
<polygon fill="midnightblue" stroke="midnightblue" points="165.5,-85.6577 162,-75.6578 158.5,-85.6578 165.5,-85.6577"/>
</g>
<!-- Node6 -->
<g id="node6" class="node"><title>Node6</title>
<g id="a_node6"><a xlink:href="int-types_8hpp.html" target="_top" xlink:title="Definition of vnix::int_types. ">
<polygon fill="white" stroke="black" points="216,-56.5 216,-75.5 310,-75.5 310,-56.5 216,-56.5"/>
<text text-anchor="middle" x="263" y="-63.5" font-family="Helvetica,sans-Serif" font-size="10.00">vnix/int&#45;types.hpp</text>
</a>
</g>
</g>
<!-- Node3&#45;&gt;Node6 -->
<g id="edge5" class="edge"><title>Node3&#45;&gt;Node6</title>
<path fill="none" stroke="midnightblue" d="M185.936,-112.399C202.125,-102.862 223.407,-90.3248 239.503,-80.8422"/>
<polygon fill="midnightblue" stroke="midnightblue" points="241.464,-83.7492 248.304,-75.6578 237.911,-77.718 241.464,-83.7492"/>
</g>
<!-- Node7 -->
<g id="node7" class="node"><title>Node7</title>
<polygon fill="white" stroke="#bfbfbf" points="240,-0.5 240,-19.5 286,-19.5 286,-0.5 240,-0.5"/>
<text text-anchor="middle" x="263" y="-7.5" font-family="Helvetica,sans-Serif" font-size="10.00">cstdint</text>
</g>
<!-- Node6&#45;&gt;Node7 -->
<g id="edge6" class="edge"><title>Node6&#45;&gt;Node7</title>
<path fill="none" stroke="midnightblue" d="M263,-56.083C263,-49.0059 263,-38.8611 263,-29.9865"/>
<polygon fill="midnightblue" stroke="midnightblue" points="266.5,-29.751 263,-19.7511 259.5,-29.7511 266.5,-29.751"/>
</g>
</g>
</svg>
