<?xml version="1.0" encoding="UTF-8" standalone="no"?>
<!DOCTYPE svg PUBLIC "-//W3C//DTD SVG 1.1//EN"
 "http://www.w3.org/Graphics/SVG/1.1/DTD/svg11.dtd">
<!-- Generated by graphviz version 2.38.0 (20140413.2041)
 -->
<!-- Title: test/example1.cpp Pages: 1 -->
<!--zoomable 677 -->
<svg id="main" version="1.1" xmlns="http://www.w3.org/2000/svg" xmlns:xlink="http://www.w3.org/1999/xlink" xml:space="preserve" onload="init(evt)">
<style type="text/css"><![CDATA[
.edge:hover path { stroke: red; }
.edge:hover polygon { stroke: red; fill: red; }
]]></style>
<script type="text/javascript"><![CDATA[
var edges = document.getElementsByTagName('g');
if (edges && edges.length) {
  for (var i=0;i<edges.length;i++) {
    if (edges[i].id.substr(0,4)=='edge') {
      edges[i].setAttribute('class','edge');
    }
  }
}
]]></script>
        <defs>
                <circle id="rim" cx="0" cy="0" r="7"/>
                <circle id="rim2" cx="0" cy="0" r="3.5"/>
                <g id="zoomPlus">
                        <use xlink:href="#rim" fill="#404040">
                                <set attributeName="fill" to="#808080" begin="zoomplus.mouseover" end="zoomplus.mouseout"/>
                        </use>
                        <path d="M-4,0h8M0,-4v8" fill="none" stroke="white" stroke-width="1.5" pointer-events="none"/>
                </g>
                <g id="zoomMin">
                        <use xlink:href="#rim" fill="#404040">
                                <set attributeName="fill" to="#808080" begin="zoomminus.mouseover" end="zoomminus.mouseout"/>
                        </use>
                        <path d="M-4,0h8" fill="none" stroke="white" stroke-width="1.5" pointer-events="none"/>
                </g>
                <g id="dirArrow">
                        <path fill="none" stroke="white" stroke-width="1.5" d="M0,-3.0v7 M-2.5,-0.5L0,-3.0L2.5,-0.5"/>
                </g>
               <g id="resetDef">
                       <use xlink:href="#rim2" fill="#404040">
                               <set attributeName="fill" to="#808080" begin="reset.mouseover" end="reset.mouseout"/>
                       </use>
               </g>
        </defs>

<script type="text/javascript">
var viewWidth = 675;
var viewHeight = 677;
var sectionId = 'dynsection-0';
</script>
<script xlink:href="svgpan.js"/>
<svg id="graph" class="graph">
<g id="viewport">
<title>test/example1.cpp</title>
<polygon fill="white" stroke="none" points="-4,4 -4,-673 671.064,-673 671.064,4 -4,4"/>
<!-- Node1 -->
<g id="node1" class="node"><title>Node1</title>
<polygon fill="#bfbfbf" stroke="black" points="157.194,-649.5 157.194,-668.5 254.194,-668.5 254.194,-649.5 157.194,-649.5"/>
<text text-anchor="middle" x="205.694" y="-656.5" font-family="Helvetica,sans-Serif" font-size="10.00">test/example1.cpp</text>
</g>
<!-- Node2 -->
<g id="node2" class="node"><title>Node2</title>
<polygon fill="white" stroke="#bfbfbf" points="310.694,-235.5 310.694,-254.5 348.694,-254.5 348.694,-235.5 310.694,-235.5"/>
<text text-anchor="middle" x="329.694" y="-242.5" font-family="Helvetica,sans-Serif" font-size="10.00">array</text>
</g>
<!-- Node1&#45;&gt;Node2 -->
<g id="edge1" class="edge"><title>Node1&#45;&gt;Node2</title>
<path fill="none" stroke="midnightblue" d="M226.688,-649.419C242.36,-641.987 263.151,-629.779 275.694,-613 293.715,-588.893 294.694,-578.098 294.694,-548 294.694,-548 294.694,-548 294.694,-367 294.694,-329.072 310.759,-286.998 321.121,-263.804"/>
<polygon fill="midnightblue" stroke="midnightblue" points="324.376,-265.103 325.402,-254.558 318.024,-262.162 324.376,-265.103"/>
</g>
<!-- Node3 -->
<g id="node3" class="node"><title>Node3</title>
<polygon fill="white" stroke="#bfbfbf" points="29.1942,-593.5 29.1942,-612.5 148.194,-612.5 148.194,-593.5 29.1942,-593.5"/>
<text text-anchor="middle" x="88.6942" y="-600.5" font-family="Helvetica,sans-Serif" font-size="10.00">eigen3/Eigen/Geometry</text>
</g>
<!-- Node1&#45;&gt;Node3 -->
<g id="edge2" class="edge"><title>Node1&#45;&gt;Node3</title>
<path fill="none" stroke="midnightblue" d="M187.155,-649.444C168.071,-640.636 138.119,-626.812 116.258,-616.722"/>
<polygon fill="midnightblue" stroke="midnightblue" points="117.693,-613.529 107.146,-612.516 114.759,-619.885 117.693,-613.529"/>
</g>
<!-- Node4 -->
<g id="node4" class="node"><title>Node4</title>
<polygon fill="white" stroke="#bfbfbf" points="153.694,-179.5 153.694,-198.5 207.694,-198.5 207.694,-179.5 153.694,-179.5"/>
<text text-anchor="middle" x="180.694" y="-186.5" font-family="Helvetica,sans-Serif" font-size="10.00">iostream</text>
</g>
<!-- Node1&#45;&gt;Node4 -->
<g id="edge3" class="edge"><title>Node1&#45;&gt;Node4</title>
<path fill="none" stroke="midnightblue" d="M201.783,-649.365C193.867,-631.073 176.694,-586.907 176.694,-548 176.694,-548 176.694,-548 176.694,-305.5 176.694,-271.343 178.463,-231.539 179.648,-208.702"/>
<polygon fill="midnightblue" stroke="midnightblue" points="183.144,-208.864 180.188,-198.69 176.155,-208.487 183.144,-208.864"/>
</g>
<!-- Node5 -->
<g id="node5" class="node"><title>Node5</title>
<polygon fill="white" stroke="#bfbfbf" points="204.694,-593.5 204.694,-612.5 266.694,-612.5 266.694,-593.5 204.694,-593.5"/>
<text text-anchor="middle" x="235.694" y="-600.5" font-family="Helvetica,sans-Serif" font-size="10.00">type_traits</text>
</g>
<!-- Node1&#45;&gt;Node5 -->
<g id="edge4" class="edge"><title>Node1&#45;&gt;Node5</title>
<path fill="none" stroke="midnightblue" d="M210.648,-649.083C214.798,-641.613 220.847,-630.724 225.961,-621.52"/>
<polygon fill="midnightblue" stroke="midnightblue" points="229.036,-623.192 230.832,-612.751 222.916,-619.793 229.036,-623.192"/>
</g>
<!-- Node6 -->
<g id="node6" class="node"><title>Node6</title>
<polygon fill="white" stroke="#bfbfbf" points="42.6942,-56.5 42.6942,-75.5 82.6942,-75.5 82.6942,-56.5 42.6942,-56.5"/>
<text text-anchor="middle" x="62.6942" y="-63.5" font-family="Helvetica,sans-Serif" font-size="10.00">utility</text>
</g>
<!-- Node1&#45;&gt;Node6 -->
<g id="edge5" class="edge"><title>Node1&#45;&gt;Node6</title>
<path fill="none" stroke="midnightblue" d="M156.753,-651.768C108.477,-644.662 39.165,-631.576 19.6942,-613 -2.0825,-592.224 0.694167,-578.098 0.694167,-548 0.694167,-548 0.694167,-548 0.694167,-188 0.694167,-146.741 29.5996,-105.413 47.9371,-83.346"/>
<polygon fill="midnightblue" stroke="midnightblue" points="50.7156,-85.4832 54.5887,-75.6217 45.4113,-80.9155 50.7156,-85.4832"/>
</g>
<!-- Node7 -->
<g id="node7" class="node"><title>Node7</title>
<g id="a_node7"><a xlink:href="units_8hpp.html" target="_top" xlink:title="Definition of various units in namespaces vnix::units::flt, vnix::units::dbl, and vnix::units::ldbl...">
<polygon fill="white" stroke="black" points="380.194,-593.5 380.194,-612.5 457.194,-612.5 457.194,-593.5 380.194,-593.5"/>
<text text-anchor="middle" x="418.694" y="-600.5" font-family="Helvetica,sans-Serif" font-size="10.00">vnix/units.hpp</text>
</a>
</g>
</g>
<!-- Node1&#45;&gt;Node7 -->
<g id="edge6" class="edge"><title>Node1&#45;&gt;Node7</title>
<path fill="none" stroke="midnightblue" d="M239.445,-649.444C276.212,-640.122 335.14,-625.183 375.316,-614.997"/>
<polygon fill="midnightblue" stroke="midnightblue" points="376.268,-618.367 385.102,-612.516 374.548,-611.581 376.268,-618.367"/>
</g>
<!-- Node8 -->
<g id="node8" class="node"><title>Node8</title>
<g id="a_node8"><a xlink:href="dimval_8hpp.html" target="_top" xlink:title="Definition of vnix::units::dimval, descendants, and typedefs. ">
<polygon fill="white" stroke="black" points="447.194,-537.5 447.194,-556.5 556.194,-556.5 556.194,-537.5 447.194,-537.5"/>
<text text-anchor="middle" x="501.694" y="-544.5" font-family="Helvetica,sans-Serif" font-size="10.00">vnix/units/dimval.hpp</text>
</a>
</g>
</g>
<!-- Node7&#45;&gt;Node8 -->
<g id="edge7" class="edge"><title>Node7&#45;&gt;Node8</title>
<path fill="none" stroke="midnightblue" d="M432.03,-593.324C444.856,-584.979 464.479,-572.212 479.634,-562.352"/>
<polygon fill="midnightblue" stroke="midnightblue" points="481.918,-565.042 488.392,-556.655 478.101,-559.174 481.918,-565.042"/>
</g>
<!-- Node9 -->
<g id="node9" class="node"><title>Node9</title>
<polygon fill="white" stroke="#bfbfbf" points="454.694,-476 454.694,-495 498.694,-495 498.694,-476 454.694,-476"/>
<text text-anchor="middle" x="476.694" y="-483" font-family="Helvetica,sans-Serif" font-size="10.00">cmath</text>
</g>
<!-- Node8&#45;&gt;Node9 -->
<g id="edge8" class="edge"><title>Node8&#45;&gt;Node9</title>
<path fill="none" stroke="midnightblue" d="M498.112,-537.475C494.511,-528.904 488.848,-515.427 484.25,-504.483"/>
<polygon fill="midnightblue" stroke="midnightblue" points="487.37,-502.873 480.269,-495.009 480.916,-505.584 487.37,-502.873"/>
</g>
<!-- Node10 -->
<g id="node10" class="node"><title>Node10</title>
<g id="a_node10"><a xlink:href="dim_8hpp.html" target="_top" xlink:title="Definition of vnix::units::dim. ">
<polygon fill="white" stroke="black" points="466.694,-358.5 466.694,-377.5 562.694,-377.5 562.694,-358.5 466.694,-358.5"/>
<text text-anchor="middle" x="514.694" y="-365.5" font-family="Helvetica,sans-Serif" font-size="10.00">vnix/units/dim.hpp</text>
</a>
</g>
</g>
<!-- Node8&#45;&gt;Node10 -->
<g id="edge9" class="edge"><title>Node8&#45;&gt;Node10</title>
<path fill="none" stroke="midnightblue" d="M555.681,-537.477C595.65,-529.936 645.239,-517.556 657.694,-501 695.842,-450.293 601.051,-402.942 547.847,-381.314"/>
<polygon fill="midnightblue" stroke="midnightblue" points="549.023,-378.016 538.438,-377.58 546.441,-384.522 549.023,-378.016"/>
</g>
<!-- Node21 -->
<g id="node21" class="node"><title>Node21</title>
<g id="a_node21"><a xlink:href="dyndim-base_8hpp.html" target="_top" xlink:title="Definition of vnix::units::dyndim_base. ">
<polygon fill="white" stroke="black" points="446.694,-414.5 446.694,-433.5 582.694,-433.5 582.694,-414.5 446.694,-414.5"/>
<text text-anchor="middle" x="514.694" y="-421.5" font-family="Helvetica,sans-Serif" font-size="10.00">vnix/units/dyndim&#45;base.hpp</text>
</a>
</g>
</g>
<!-- Node8&#45;&gt;Node21 -->
<g id="edge26" class="edge"><title>Node8&#45;&gt;Node21</title>
<path fill="none" stroke="midnightblue" d="M502.949,-537.386C504.242,-528.338 506.265,-513.688 507.694,-501 509.869,-481.694 511.849,-459.572 513.144,-444.192"/>
<polygon fill="midnightblue" stroke="midnightblue" points="516.659,-444.158 513.992,-433.904 509.682,-443.583 516.659,-444.158"/>
</g>
<!-- Node22 -->
<g id="node22" class="node"><title>Node22</title>
<g id="a_node22"><a xlink:href="number_8hpp.html" target="_top" xlink:title="Definition of vnix::units::number. ">
<polygon fill="white" stroke="black" points="323.194,-476 323.194,-495 436.194,-495 436.194,-476 323.194,-476"/>
<text text-anchor="middle" x="379.694" y="-483" font-family="Helvetica,sans-Serif" font-size="10.00">vnix/units/number.hpp</text>
</a>
</g>
</g>
<!-- Node8&#45;&gt;Node22 -->
<g id="edge28" class="edge"><title>Node8&#45;&gt;Node22</title>
<path fill="none" stroke="midnightblue" d="M484.215,-537.475C463.831,-527.534 429.919,-510.995 406.27,-499.461"/>
<polygon fill="midnightblue" stroke="midnightblue" points="407.664,-496.247 397.141,-495.009 404.595,-502.538 407.664,-496.247"/>
</g>
<!-- Node24 -->
<g id="node24" class="node"><title>Node24</title>
<g id="a_node24"><a xlink:href="statdim-base_8hpp.html" target="_top" xlink:title="Definition of vnix::units::statdim_base. ">
<polygon fill="white" stroke="black" points="554.694,-470.5 554.694,-500.5 648.694,-500.5 648.694,-470.5 554.694,-470.5"/>
<text text-anchor="start" x="562.694" y="-488.5" font-family="Helvetica,sans-Serif" font-size="10.00">vnix/units/statdim</text>
<text text-anchor="middle" x="601.694" y="-477.5" font-family="Helvetica,sans-Serif" font-size="10.00">&#45;base.hpp</text>
</a>
</g>
</g>
<!-- Node8&#45;&gt;Node24 -->
<g id="edge30" class="edge"><title>Node8&#45;&gt;Node24</title>
<path fill="none" stroke="midnightblue" d="M516.022,-537.475C529.818,-529.266 551.176,-516.558 569.115,-505.885"/>
<polygon fill="midnightblue" stroke="midnightblue" points="571.322,-508.644 578.126,-500.523 567.743,-502.629 571.322,-508.644"/>
</g>
<!-- Node10&#45;&gt;Node2 -->
<g id="edge10" class="edge"><title>Node10&#45;&gt;Node2</title>
<path fill="none" stroke="midnightblue" d="M466.417,-365.827C430.251,-362.377 381.98,-351.913 351.694,-322 336.528,-307.021 331.665,-282.274 330.186,-265.106"/>
<polygon fill="midnightblue" stroke="midnightblue" points="333.655,-264.441 329.619,-254.645 326.666,-264.82 333.655,-264.441"/>
</g>
<!-- Node11 -->
<g id="node11" class="node"><title>Node11</title>
<g id="a_node11"><a xlink:href="rat_8hpp.html" target="_top" xlink:title="Typedefs for class vnix::rat::rational. ">
<polygon fill="white" stroke="black" points="480.694,-297 480.694,-316 548.694,-316 548.694,-297 480.694,-297"/>
<text text-anchor="middle" x="514.694" y="-304" font-family="Helvetica,sans-Serif" font-size="10.00">vnix/rat.hpp</text>
</a>
</g>
</g>
<!-- Node10&#45;&gt;Node11 -->
<g id="edge11" class="edge"><title>Node10&#45;&gt;Node11</title>
<path fill="none" stroke="midnightblue" d="M514.694,-358.475C514.694,-350.08 514.694,-336.981 514.694,-326.163"/>
<polygon fill="midnightblue" stroke="midnightblue" points="518.194,-326.009 514.694,-316.009 511.194,-326.009 518.194,-326.009"/>
</g>
<!-- Node20 -->
<g id="node20" class="node"><title>Node20</title>
<g id="a_node20"><a xlink:href="dim-base-off_8hpp.html" target="_top" xlink:title="Definition of dim_base_off. ">
<polygon fill="white" stroke="black" points="361.194,-291.5 361.194,-321.5 462.194,-321.5 462.194,-291.5 361.194,-291.5"/>
<text text-anchor="start" x="369.194" y="-309.5" font-family="Helvetica,sans-Serif" font-size="10.00">vnix/units/dim&#45;base</text>
<text text-anchor="middle" x="411.694" y="-298.5" font-family="Helvetica,sans-Serif" font-size="10.00">&#45;off.hpp</text>
</a>
</g>
</g>
<!-- Node10&#45;&gt;Node20 -->
<g id="edge24" class="edge"><title>Node10&#45;&gt;Node20</title>
<path fill="none" stroke="midnightblue" d="M499.937,-358.475C485.596,-350.191 463.323,-337.325 444.743,-326.591"/>
<polygon fill="midnightblue" stroke="midnightblue" points="446.379,-323.494 435.969,-321.523 442.878,-329.556 446.379,-323.494"/>
</g>
<!-- Node12 -->
<g id="node12" class="node"><title>Node12</title>
<g id="a_node12"><a xlink:href="rational_8hpp.html" target="_top" xlink:title="Definition of vnix::rat::rational and operators for it. ">
<polygon fill="white" stroke="black" points="366.694,-235.5 366.694,-254.5 468.694,-254.5 468.694,-235.5 366.694,-235.5"/>
<text text-anchor="middle" x="417.694" y="-242.5" font-family="Helvetica,sans-Serif" font-size="10.00">vnix/rat/rational.hpp</text>
</a>
</g>
</g>
<!-- Node11&#45;&gt;Node12 -->
<g id="edge12" class="edge"><title>Node11&#45;&gt;Node12</title>
<path fill="none" stroke="midnightblue" d="M500.796,-296.975C485.022,-287.299 459.057,-271.372 440.345,-259.894"/>
<polygon fill="midnightblue" stroke="midnightblue" points="441.92,-256.754 431.566,-254.509 438.26,-262.721 441.92,-256.754"/>
</g>
<!-- Node12&#45;&gt;Node4 -->
<g id="edge13" class="edge"><title>Node12&#45;&gt;Node4</title>
<path fill="none" stroke="midnightblue" d="M379.518,-235.488C339.438,-226.524 274.598,-211.941 218.694,-199 218.48,-198.95 218.264,-198.9 218.048,-198.85"/>
<polygon fill="midnightblue" stroke="midnightblue" points="218.619,-195.389 208.084,-196.522 217.026,-202.206 218.619,-195.389"/>
</g>
<!-- Node13 -->
<g id="node13" class="node"><title>Node13</title>
<g id="a_node13"><a xlink:href="common-denom_8hpp.html" target="_top" xlink:title="Definition of vnix::rat::common_denom. ">
<polygon fill="white" stroke="black" points="347.694,-118 347.694,-137 487.694,-137 487.694,-118 347.694,-118"/>
<text text-anchor="middle" x="417.694" y="-125" font-family="Helvetica,sans-Serif" font-size="10.00">vnix/rat/common&#45;denom.hpp</text>
</a>
</g>
</g>
<!-- Node12&#45;&gt;Node13 -->
<g id="edge14" class="edge"><title>Node12&#45;&gt;Node13</title>
<path fill="none" stroke="midnightblue" d="M417.694,-235.319C417.694,-216.757 417.694,-172.839 417.694,-147.473"/>
<polygon fill="midnightblue" stroke="midnightblue" points="421.194,-147.282 417.694,-137.282 414.194,-147.282 421.194,-147.282"/>
</g>
<!-- Node17 -->
<g id="node17" class="node"><title>Node17</title>
<g id="a_node17"><a xlink:href="encoding_8hpp.html" target="_top" xlink:title="Definition of vnix::rat::encoding. ">
<polygon fill="white" stroke="black" points="227.694,-179.5 227.694,-198.5 337.694,-198.5 337.694,-179.5 227.694,-179.5"/>
<text text-anchor="middle" x="282.694" y="-186.5" font-family="Helvetica,sans-Serif" font-size="10.00">vnix/rat/encoding.hpp</text>
</a>
</g>
</g>
<!-- Node12&#45;&gt;Node17 -->
<g id="edge18" class="edge"><title>Node12&#45;&gt;Node17</title>
<path fill="none" stroke="midnightblue" d="M396.303,-235.444C373.987,-226.517 338.791,-212.439 313.486,-202.317"/>
<polygon fill="midnightblue" stroke="midnightblue" points="314.57,-198.981 303.985,-198.516 311.97,-205.48 314.57,-198.981"/>
</g>
<!-- Node14 -->
<g id="node14" class="node"><title>Node14</title>
<g id="a_node14"><a xlink:href="gcd_8hpp.html" target="_top" xlink:title="Definition of vnix::gcd. ">
<polygon fill="white" stroke="black" points="327.694,-56.5 327.694,-75.5 399.694,-75.5 399.694,-56.5 327.694,-56.5"/>
<text text-anchor="middle" x="363.694" y="-63.5" font-family="Helvetica,sans-Serif" font-size="10.00">vnix/gcd.hpp</text>
</a>
</g>
</g>
<!-- Node13&#45;&gt;Node14 -->
<g id="edge15" class="edge"><title>Node13&#45;&gt;Node14</title>
<path fill="none" stroke="midnightblue" d="M409.957,-117.975C401.697,-108.873 388.417,-94.241 378.2,-82.983"/>
<polygon fill="midnightblue" stroke="midnightblue" points="380.729,-80.5619 371.417,-75.5091 375.545,-85.2663 380.729,-80.5619"/>
</g>
<!-- Node15 -->
<g id="node15" class="node"><title>Node15</title>
<g id="a_node15"><a xlink:href="int-types_8hpp.html" target="_top" xlink:title="Definition of vnix::int_types. ">
<polygon fill="white" stroke="black" points="162.694,-56.5 162.694,-75.5 256.694,-75.5 256.694,-56.5 162.694,-56.5"/>
<text text-anchor="middle" x="209.694" y="-63.5" font-family="Helvetica,sans-Serif" font-size="10.00">vnix/int&#45;types.hpp</text>
</a>
</g>
</g>
<!-- Node13&#45;&gt;Node15 -->
<g id="edge16" class="edge"><title>Node13&#45;&gt;Node15</title>
<path fill="none" stroke="midnightblue" d="M387.893,-117.975C351.441,-107.548 289.614,-89.8618 249.22,-78.3066"/>
<polygon fill="midnightblue" stroke="midnightblue" points="250.017,-74.8944 239.44,-75.5091 248.092,-81.6244 250.017,-74.8944"/>
</g>
<!-- Node16 -->
<g id="node16" class="node"><title>Node16</title>
<polygon fill="white" stroke="#bfbfbf" points="186.694,-0.5 186.694,-19.5 232.694,-19.5 232.694,-0.5 186.694,-0.5"/>
<text text-anchor="middle" x="209.694" y="-7.5" font-family="Helvetica,sans-Serif" font-size="10.00">cstdint</text>
</g>
<!-- Node15&#45;&gt;Node16 -->
<g id="edge17" class="edge"><title>Node15&#45;&gt;Node16</title>
<path fill="none" stroke="midnightblue" d="M209.694,-56.083C209.694,-49.0059 209.694,-38.8611 209.694,-29.9865"/>
<polygon fill="midnightblue" stroke="midnightblue" points="213.194,-29.751 209.694,-19.7511 206.194,-29.7511 213.194,-29.751"/>
</g>
<!-- Node18 -->
<g id="node18" class="node"><title>Node18</title>
<g id="a_node18"><a xlink:href="bit-range_8hpp.html" target="_top" xlink:title="Definition of vnix::bit, vnix::bit_range. ">
<polygon fill="white" stroke="black" points="235.694,-118 235.694,-137 329.694,-137 329.694,-118 235.694,-118"/>
<text text-anchor="middle" x="282.694" y="-125" font-family="Helvetica,sans-Serif" font-size="10.00">vnix/bit&#45;range.hpp</text>
</a>
</g>
</g>
<!-- Node17&#45;&gt;Node18 -->
<g id="edge19" class="edge"><title>Node17&#45;&gt;Node18</title>
<path fill="none" stroke="midnightblue" d="M282.694,-179.475C282.694,-171.08 282.694,-157.981 282.694,-147.163"/>
<polygon fill="midnightblue" stroke="midnightblue" points="286.194,-147.009 282.694,-137.009 279.194,-147.009 286.194,-147.009"/>
</g>
<!-- Node19 -->
<g id="node19" class="node"><title>Node19</title>
<g id="a_node19"><a xlink:href="normalized-pair_8hpp.html" target="_top" xlink:title="Definition of vnix::rat::normalized_pair. ">
<polygon fill="white" stroke="black" points="118.194,-112.5 118.194,-142.5 217.194,-142.5 217.194,-112.5 118.194,-112.5"/>
<text text-anchor="start" x="126.194" y="-130.5" font-family="Helvetica,sans-Serif" font-size="10.00">vnix/rat/normalized</text>
<text text-anchor="middle" x="167.694" y="-119.5" font-family="Helvetica,sans-Serif" font-size="10.00">&#45;pair.hpp</text>
</a>
</g>
</g>
<!-- Node17&#45;&gt;Node19 -->
<g id="edge20" class="edge"><title>Node17&#45;&gt;Node19</title>
<path fill="none" stroke="midnightblue" d="M266.217,-179.475C249.987,-171.078 224.658,-157.973 203.747,-147.153"/>
<polygon fill="midnightblue" stroke="midnightblue" points="205.287,-144.01 194.797,-142.523 202.071,-150.227 205.287,-144.01"/>
</g>
<!-- Node19&#45;&gt;Node6 -->
<g id="edge21" class="edge"><title>Node19&#45;&gt;Node6</title>
<path fill="none" stroke="midnightblue" d="M142.811,-112.399C125.98,-102.862 103.856,-90.3248 87.1216,-80.8422"/>
<polygon fill="midnightblue" stroke="midnightblue" points="88.3984,-77.5429 77.9726,-75.6578 84.9473,-83.633 88.3984,-77.5429"/>
</g>
<!-- Node19&#45;&gt;Node14 -->
<g id="edge22" class="edge"><title>Node19&#45;&gt;Node14</title>
<path fill="none" stroke="midnightblue" d="M214.143,-112.399C248.159,-102.073 293.757,-88.2309 325.628,-78.5559"/>
<polygon fill="midnightblue" stroke="midnightblue" points="326.908,-81.8249 335.461,-75.5709 324.875,-75.1267 326.908,-81.8249"/>
</g>
<!-- Node19&#45;&gt;Node15 -->
<g id="edge23" class="edge"><title>Node19&#45;&gt;Node15</title>
<path fill="none" stroke="midnightblue" d="M177.648,-112.399C183.688,-103.842 191.432,-92.8708 197.795,-83.857"/>
<polygon fill="midnightblue" stroke="midnightblue" points="200.675,-85.8459 203.583,-75.6578 194.957,-81.8091 200.675,-85.8459"/>
</g>
<!-- Node20&#45;&gt;Node2 -->
<g id="edge25" class="edge"><title>Node20&#45;&gt;Node2</title>
<path fill="none" stroke="midnightblue" d="M392.261,-291.399C379.486,-282.129 362.805,-270.025 349.88,-260.647"/>
<polygon fill="midnightblue" stroke="midnightblue" points="351.775,-257.698 341.626,-254.658 347.664,-263.364 351.775,-257.698"/>
</g>
<!-- Node21&#45;&gt;Node10 -->
<g id="edge27" class="edge"><title>Node21&#45;&gt;Node10</title>
<path fill="none" stroke="midnightblue" d="M514.694,-414.083C514.694,-407.006 514.694,-396.861 514.694,-387.986"/>
<polygon fill="midnightblue" stroke="midnightblue" points="518.194,-387.751 514.694,-377.751 511.194,-387.751 518.194,-387.751"/>
</g>
<!-- Node23 -->
<g id="node23" class="node"><title>Node23</title>
<polygon fill="white" stroke="#bfbfbf" points="357.194,-414.5 357.194,-433.5 402.194,-433.5 402.194,-414.5 357.194,-414.5"/>
<text text-anchor="middle" x="379.694" y="-421.5" font-family="Helvetica,sans-Serif" font-size="10.00">cstdlib</text>
</g>
<!-- Node22&#45;&gt;Node23 -->
<g id="edge29" class="edge"><title>Node22&#45;&gt;Node23</title>
<path fill="none" stroke="midnightblue" d="M379.694,-475.975C379.694,-467.58 379.694,-454.481 379.694,-443.663"/>
<polygon fill="midnightblue" stroke="midnightblue" points="383.194,-443.509 379.694,-433.509 376.194,-443.509 383.194,-443.509"/>
</g>
<!-- Node24&#45;&gt;Node10 -->
<g id="edge31" class="edge"><title>Node24&#45;&gt;Node10</title>
<path fill="none" stroke="midnightblue" d="M603.127,-470.25C603.922,-455.03 602.997,-430.83 591.694,-414 581.829,-399.311 565.427,-388.768 550.29,-381.598"/>
<polygon fill="midnightblue" stroke="midnightblue" points="551.662,-378.378 541.098,-377.563 548.848,-384.788 551.662,-378.378"/>
</g>
<!-- Node24&#45;&gt;Node21 -->
<g id="edge32" class="edge"><title>Node24&#45;&gt;Node21</title>
<path fill="none" stroke="midnightblue" d="M581.076,-470.399C567.392,-461.04 549.483,-448.792 535.716,-439.377"/>
<polygon fill="midnightblue" stroke="midnightblue" points="537.584,-436.414 527.353,-433.658 533.632,-442.192 537.584,-436.414"/>
</g>
</g>
</svg>
        <g id="navigator" transform="translate(0 0)" fill="#404254">
                <rect fill="#f2f5e9" fill-opacity="0.5" stroke="#606060" stroke-width=".5" x="0" y="0" width="60" height="60"/>
                <use id="zoomplus" xlink:href="#zoomPlus" x="17" y="9" onmousedown="handleZoom(evt,'in')"/>
                <use id="zoomminus" xlink:href="#zoomMin" x="42" y="9" onmousedown="handleZoom(evt,'out')"/>
                <use id="reset" xlink:href="#resetDef" x="30" y="36" onmousedown="handleReset()"/>
                <g id="arrowUp" xlink:href="#dirArrow" transform="translate(30 24)" onmousedown="handlePan(0,-1)">
                  <use xlink:href="#rim" fill="#404040">
                        <set attributeName="fill" to="#808080" begin="arrowUp.mouseover" end="arrowUp.mouseout"/>
                  </use>
                  <path fill="none" stroke="white" stroke-width="1.5" d="M0,-3.0v7 M-2.5,-0.5L0,-3.0L2.5,-0.5"/>
                </g>
                <g id="arrowRight" xlink:href="#dirArrow" transform="rotate(90) translate(36 -43)" onmousedown="handlePan(1,0)">
                  <use xlink:href="#rim" fill="#404040">
                        <set attributeName="fill" to="#808080" begin="arrowRight.mouseover" end="arrowRight.mouseout"/>
                  </use>
                  <path fill="none" stroke="white" stroke-width="1.5" d="M0,-3.0v7 M-2.5,-0.5L0,-3.0L2.5,-0.5"/>
                </g>
                <g id="arrowDown" xlink:href="#dirArrow" transform="rotate(180) translate(-30 -48)" onmousedown="handlePan(0,1)">
                  <use xlink:href="#rim" fill="#404040">
                        <set attributeName="fill" to="#808080" begin="arrowDown.mouseover" end="arrowDown.mouseout"/>
                  </use>
                  <path fill="none" stroke="white" stroke-width="1.5" d="M0,-3.0v7 M-2.5,-0.5L0,-3.0L2.5,-0.5"/>
                </g>
                <g id="arrowLeft" xlink:href="#dirArrow" transform="rotate(270) translate(-36 17)" onmousedown="handlePan(-1,0)">
                  <use xlink:href="#rim" fill="#404040">
                        <set attributeName="fill" to="#808080" begin="arrowLeft.mouseover" end="arrowLeft.mouseout"/>
                  </use>
                  <path fill="none" stroke="white" stroke-width="1.5" d="M0,-3.0v7 M-2.5,-0.5L0,-3.0L2.5,-0.5"/>
                </g>
        </g>
        <svg viewBox="0 0 15 15" width="100%" height="30px" preserveAspectRatio="xMaxYMin meet">
         <g id="arrow_out" transform="scale(0.3 0.3)">
          <a xlink:href="example1_8cpp__incl_org.svg" target="_base">
           <rect id="button" ry="5" rx="5" y="6" x="6" height="38" width="38"
                fill="#f2f5e9" fill-opacity="0.5" stroke="#606060" stroke-width="1.0"/>
           <path id="arrow"
             d="M 11.500037,31.436501 C 11.940474,20.09759 22.043105,11.32322 32.158766,21.979434 L 37.068811,17.246167 C 37.068811,17.246167 37.088388,32 37.088388,32 L 22.160133,31.978069 C 22.160133,31.978069 26.997745,27.140456 26.997745,27.140456 C 18.528582,18.264221 13.291696,25.230495 11.500037,31.436501 z"
             style="fill:#404040;"/>
          </a>
         </g>
        </svg>
</svg>
