<?xml version="1.0" encoding="UTF-8" standalone="no"?>
<!DOCTYPE svg PUBLIC "-//W3C//DTD SVG 1.1//EN"
 "http://www.w3.org/Graphics/SVG/1.1/DTD/svg11.dtd">
<!-- Generated by graphviz version 2.38.0 (20140413.2041)
 -->
<!-- Title: main Pages: 1 -->
<svg width="354pt" height="180pt"
 viewBox="0.00 0.00 354.00 180.00" xmlns="http://www.w3.org/2000/svg" xmlns:xlink="http://www.w3.org/1999/xlink">
<g id="graph0" class="graph" transform="scale(1 1) rotate(0) translate(4 176)">
<title>main</title>
<polygon fill="white" stroke="none" points="-4,4 -4,-176 350,-176 350,4 -4,4"/>
<!-- Node1 -->
<g id="node1" class="node"><title>Node1</title>
<polygon fill="#bfbfbf" stroke="black" points="0,-76.5 0,-95.5 38,-95.5 38,-76.5 0,-76.5"/>
<text text-anchor="middle" x="19" y="-83.5" font-family="Helvetica,sans-Serif" font-size="10.00">main</text>
</g>
<!-- Node2 -->
<g id="node2" class="node"><title>Node2</title>
<g id="a_node2"><a xlink:href="structvnix_1_1mv_1_1mat.html#af69df0a8b608c37b5442d82306bc2bf7" target="_top" xlink:title="Reference to mutable row. ">
<polygon fill="white" stroke="black" points="88.5,-152.5 88.5,-171.5 186.5,-171.5 186.5,-152.5 88.5,-152.5"/>
<text text-anchor="middle" x="137.5" y="-159.5" font-family="Helvetica,sans-Serif" font-size="10.00">vnix::mv::mat::row</text>
</a>
</g>
</g>
<!-- Node1&#45;&gt;Node2 -->
<g id="edge1" class="edge"><title>Node1&#45;&gt;Node2</title>
<path fill="none" stroke="midnightblue" d="M26.5461,-95.5238C35.7229,-108.173 53.5941,-130.383 74,-143 77.3761,-145.087 80.9973,-146.959 84.7335,-148.635"/>
<polygon fill="midnightblue" stroke="midnightblue" points="83.5985,-151.951 94.1834,-152.41 86.1951,-145.45 83.5985,-151.951"/>
</g>
<!-- Node3 -->
<g id="node3" class="node"><title>Node3</title>
<g id="a_node3"><a xlink:href="classvnix_1_1mv_1_1mref.html#a9ddeac89af8f43a661d15ddeee305417" target="_top" xlink:title="Assign from list. ">
<polygon fill="white" stroke="black" points="74,-114.5 74,-133.5 201,-133.5 201,-114.5 74,-114.5"/>
<text text-anchor="middle" x="137.5" y="-121.5" font-family="Helvetica,sans-Serif" font-size="10.00">vnix::mv::mref::operator=</text>
</a>
</g>
</g>
<!-- Node1&#45;&gt;Node3 -->
<g id="edge2" class="edge"><title>Node1&#45;&gt;Node3</title>
<path fill="none" stroke="midnightblue" d="M38.4271,-92.7054C48.8331,-96.4362 62.1005,-101.1 74,-105 80.5167,-107.136 87.4419,-109.323 94.219,-111.418"/>
<polygon fill="midnightblue" stroke="midnightblue" points="93.3911,-114.824 103.978,-114.404 95.4395,-108.131 93.3911,-114.824"/>
</g>
<!-- Node6 -->
<g id="node6" class="node"><title>Node6</title>
<g id="a_node6"><a xlink:href="namespacevnix_1_1units.html#aa5cd7d9320ec622e43ccc42f91a6d71e" target="_top" xlink:title="Produce dimensioned quantity from number of newtons. ">
<polygon fill="white" stroke="black" points="85.5,-76.5 85.5,-95.5 189.5,-95.5 189.5,-76.5 85.5,-76.5"/>
<text text-anchor="middle" x="137.5" y="-83.5" font-family="Helvetica,sans-Serif" font-size="10.00">vnix::units::newtons</text>
</a>
</g>
</g>
<!-- Node1&#45;&gt;Node6 -->
<g id="edge5" class="edge"><title>Node1&#45;&gt;Node6</title>
<path fill="none" stroke="midnightblue" d="M38.2031,-86C48.3514,-86 61.6428,-86 75.1569,-86"/>
<polygon fill="midnightblue" stroke="midnightblue" points="75.4862,-89.5001 85.4861,-86 75.4861,-82.5001 75.4862,-89.5001"/>
</g>
<!-- Node7 -->
<g id="node7" class="node"><title>Node7</title>
<g id="a_node7"><a xlink:href="namespacevnix_1_1units.html#ab5e94eb62f5b73a35ed937f2b23933ff" target="_top" xlink:title="Produce dimensioned quantity from number of kilometers. ">
<polygon fill="white" stroke="black" points="81,-38.5 81,-57.5 194,-57.5 194,-38.5 81,-38.5"/>
<text text-anchor="middle" x="137.5" y="-45.5" font-family="Helvetica,sans-Serif" font-size="10.00">vnix::units::kilometers</text>
</a>
</g>
</g>
<!-- Node1&#45;&gt;Node7 -->
<g id="edge6" class="edge"><title>Node1&#45;&gt;Node7</title>
<path fill="none" stroke="midnightblue" d="M38.4271,-79.2946C48.8331,-75.5638 62.1005,-70.9001 74,-67 80.5167,-64.8641 87.4419,-62.6772 94.219,-60.5825"/>
<polygon fill="midnightblue" stroke="midnightblue" points="95.4395,-63.8693 103.978,-57.5962 93.3911,-57.1757 95.4395,-63.8693"/>
</g>
<!-- Node8 -->
<g id="node8" class="node"><title>Node8</title>
<g id="a_node8"><a xlink:href="namespacevnix_1_1mv.html#a7f454de33fcb6bcfabc52fe2c29ff727" target="_top" xlink:title="Multiply two matrices. ">
<polygon fill="white" stroke="black" points="88,-0.5 88,-19.5 187,-19.5 187,-0.5 88,-0.5"/>
<text text-anchor="middle" x="137.5" y="-7.5" font-family="Helvetica,sans-Serif" font-size="10.00">vnix::mv::operator*</text>
</a>
</g>
</g>
<!-- Node1&#45;&gt;Node8 -->
<g id="edge7" class="edge"><title>Node1&#45;&gt;Node8</title>
<path fill="none" stroke="midnightblue" d="M26.5461,-76.4762C35.7229,-63.8271 53.5941,-41.6171 74,-29 77.3761,-26.9125 80.9973,-25.0407 84.7335,-23.3646"/>
<polygon fill="midnightblue" stroke="midnightblue" points="86.1951,-26.5497 94.1834,-19.5899 83.5985,-20.0491 86.1951,-26.5497"/>
</g>
<!-- Node4 -->
<g id="node4" class="node"><title>Node4</title>
<g id="a_node4"><a xlink:href="classvnix_1_1mv_1_1mref.html#a08150022a851774540fa24e215a7e2e1" target="_top" xlink:title="First element. ">
<polygon fill="white" stroke="black" points="237,-133.5 237,-152.5 346,-152.5 346,-133.5 237,-133.5"/>
<text text-anchor="middle" x="291.5" y="-140.5" font-family="Helvetica,sans-Serif" font-size="10.00">vnix::mv::mref::begin</text>
</a>
</g>
</g>
<!-- Node3&#45;&gt;Node4 -->
<g id="edge3" class="edge"><title>Node3&#45;&gt;Node4</title>
<path fill="none" stroke="midnightblue" d="M201.202,-131.838C209.574,-132.884 218.168,-133.958 226.561,-135.008"/>
<polygon fill="midnightblue" stroke="midnightblue" points="226.313,-138.504 236.67,-136.271 227.181,-131.558 226.313,-138.504"/>
</g>
<!-- Node5 -->
<g id="node5" class="node"><title>Node5</title>
<g id="a_node5"><a xlink:href="classvnix_1_1mv_1_1mref.html#abb1f98e5d866e7e759e8b12d3175542d" target="_top" xlink:title="Pointer to element that is S elements past last element identified by mref. ">
<polygon fill="white" stroke="black" points="241,-95.5 241,-114.5 342,-114.5 342,-95.5 241,-95.5"/>
<text text-anchor="middle" x="291.5" y="-102.5" font-family="Helvetica,sans-Serif" font-size="10.00">vnix::mv::mref::end</text>
</a>
</g>
</g>
<!-- Node3&#45;&gt;Node5 -->
<g id="edge4" class="edge"><title>Node3&#45;&gt;Node5</title>
<path fill="none" stroke="midnightblue" d="M201.202,-116.162C211.034,-114.933 221.173,-113.666 230.933,-112.446"/>
<polygon fill="midnightblue" stroke="midnightblue" points="231.448,-115.909 240.937,-111.195 230.58,-108.963 231.448,-115.909"/>
</g>
</g>
</svg>
