<?xml version="1.0" encoding="UTF-8" standalone="no"?>
<!DOCTYPE svg PUBLIC "-//W3C//DTD SVG 1.1//EN"
 "http://www.w3.org/Graphics/SVG/1.1/DTD/svg11.dtd">
<!-- Generated by graphviz version 2.38.0 (20140413.2041)
 -->
<!-- Title: vnix/gcd.hpp Pages: 1 -->
<svg width="548pt" height="621pt"
 viewBox="0.00 0.00 548.00 621.00" xmlns="http://www.w3.org/2000/svg" xmlns:xlink="http://www.w3.org/1999/xlink">
<g id="graph0" class="graph" transform="scale(1 1) rotate(0) translate(4 617)">
<title>vnix/gcd.hpp</title>
<polygon fill="white" stroke="none" points="-4,4 -4,-617 544,-617 544,4 -4,4"/>
<!-- Node1 -->
<g id="node1" class="node"><title>Node1</title>
<polygon fill="#bfbfbf" stroke="black" points="311.5,-593.5 311.5,-612.5 383.5,-612.5 383.5,-593.5 311.5,-593.5"/>
<text text-anchor="middle" x="347.5" y="-600.5" font-family="Helvetica,sans-Serif" font-size="10.00">vnix/gcd.hpp</text>
</g>
<!-- Node2 -->
<g id="node2" class="node"><title>Node2</title>
<g id="a_node2"><a xlink:href="common-denom_8hpp.html" target="_top" xlink:title="Definition of vnix::rat::common_denom. ">
<polygon fill="white" stroke="black" points="134.5,-465 134.5,-484 274.5,-484 274.5,-465 134.5,-465"/>
<text text-anchor="middle" x="204.5" y="-472" font-family="Helvetica,sans-Serif" font-size="10.00">vnix/rat/common&#45;denom.hpp</text>
</a>
</g>
</g>
<!-- Node1&#45;&gt;Node2 -->
<g id="edge1" class="edge"><title>Node1&#45;&gt;Node2</title>
<path fill="none" stroke="midnightblue" d="M327.235,-587.47C315.63,-578.922 300.946,-567.718 288.5,-557 259.554,-532.072 227.821,-499.804 213.005,-484.42"/>
<polygon fill="midnightblue" stroke="midnightblue" points="325.278,-590.375 335.421,-593.436 329.401,-584.718 325.278,-590.375"/>
</g>
<!-- Node18 -->
<g id="node18" class="node"><title>Node18</title>
<g id="a_node18"><a xlink:href="normalized-pair_8hpp.html" target="_top" xlink:title="Definition of vnix::rat::normalized_pair. ">
<polygon fill="white" stroke="black" points="298,-526.5 298,-556.5 397,-556.5 397,-526.5 298,-526.5"/>
<text text-anchor="start" x="306" y="-544.5" font-family="Helvetica,sans-Serif" font-size="10.00">vnix/rat/normalized</text>
<text text-anchor="middle" x="347.5" y="-533.5" font-family="Helvetica,sans-Serif" font-size="10.00">&#45;pair.hpp</text>
</a>
</g>
</g>
<!-- Node1&#45;&gt;Node18 -->
<g id="edge20" class="edge"><title>Node1&#45;&gt;Node18</title>
<path fill="none" stroke="midnightblue" d="M347.5,-583.235C347.5,-574.586 347.5,-564.497 347.5,-556.523"/>
<polygon fill="midnightblue" stroke="midnightblue" points="344,-583.475 347.5,-593.475 351,-583.475 344,-583.475"/>
</g>
<!-- Node22 -->
<g id="node22" class="node"><title>Node22</title>
<g id="a_node22"><a xlink:href="gcd-test_8cpp.html" target="_top" xlink:title="Test&#45;cases for vnix::gcd. ">
<polygon fill="white" stroke="black" points="415.5,-532 415.5,-551 505.5,-551 505.5,-532 415.5,-532"/>
<text text-anchor="middle" x="460.5" y="-539" font-family="Helvetica,sans-Serif" font-size="10.00">test/gcd&#45;test.cpp</text>
</a>
</g>
</g>
<!-- Node1&#45;&gt;Node22 -->
<g id="edge25" class="edge"><title>Node1&#45;&gt;Node22</title>
<path fill="none" stroke="midnightblue" d="M372.736,-588.712C394.622,-577.188 425.641,-560.855 444.34,-551.009"/>
<polygon fill="midnightblue" stroke="midnightblue" points="370.908,-585.719 363.69,-593.475 374.169,-591.913 370.908,-585.719"/>
</g>
<!-- Node3 -->
<g id="node3" class="node"><title>Node3</title>
<g id="a_node3"><a xlink:href="rational_8hpp.html" target="_top" xlink:title="Definition of vnix::rat::rational and operators for it. ">
<polygon fill="white" stroke="black" points="162.5,-403.5 162.5,-422.5 264.5,-422.5 264.5,-403.5 162.5,-403.5"/>
<text text-anchor="middle" x="213.5" y="-410.5" font-family="Helvetica,sans-Serif" font-size="10.00">vnix/rat/rational.hpp</text>
</a>
</g>
</g>
<!-- Node2&#45;&gt;Node3 -->
<g id="edge2" class="edge"><title>Node2&#45;&gt;Node3</title>
<path fill="none" stroke="midnightblue" d="M207.326,-454.817C208.963,-443.996 210.944,-430.898 212.213,-422.509"/>
<polygon fill="midnightblue" stroke="midnightblue" points="203.825,-454.564 205.789,-464.975 210.746,-455.611 203.825,-454.564"/>
</g>
<!-- Node4 -->
<g id="node4" class="node"><title>Node4</title>
<g id="a_node4"><a xlink:href="rat_8hpp.html" target="_top" xlink:title="Typedefs for class vnix::rat::rational. ">
<polygon fill="white" stroke="black" points="179.5,-347.5 179.5,-366.5 247.5,-366.5 247.5,-347.5 179.5,-347.5"/>
<text text-anchor="middle" x="213.5" y="-354.5" font-family="Helvetica,sans-Serif" font-size="10.00">vnix/rat.hpp</text>
</a>
</g>
</g>
<!-- Node3&#45;&gt;Node4 -->
<g id="edge3" class="edge"><title>Node3&#45;&gt;Node4</title>
<path fill="none" stroke="midnightblue" d="M213.5,-392.805C213.5,-383.91 213.5,-373.78 213.5,-366.751"/>
<polygon fill="midnightblue" stroke="midnightblue" points="210,-393.083 213.5,-403.083 217,-393.083 210,-393.083"/>
</g>
<!-- Node5 -->
<g id="node5" class="node"><title>Node5</title>
<g id="a_node5"><a xlink:href="common-denom-test_8cpp.html" target="_top" xlink:title="Test&#45;case for vnix::common_denom_params. ">
<polygon fill="white" stroke="black" points="3.5,-291.5 3.5,-310.5 147.5,-310.5 147.5,-291.5 3.5,-291.5"/>
<text text-anchor="middle" x="75.5" y="-298.5" font-family="Helvetica,sans-Serif" font-size="10.00">test/common&#45;denom&#45;test.cpp</text>
</a>
</g>
</g>
<!-- Node4&#45;&gt;Node5 -->
<g id="edge4" class="edge"><title>Node4&#45;&gt;Node5</title>
<path fill="none" stroke="midnightblue" d="M182.251,-343.772C156.329,-333.629 120.138,-319.467 97.2642,-310.516"/>
<polygon fill="midnightblue" stroke="midnightblue" points="181.046,-347.059 191.633,-347.444 183.596,-340.54 181.046,-347.059"/>
</g>
<!-- Node6 -->
<g id="node6" class="node"><title>Node6</title>
<g id="a_node6"><a xlink:href="dim_8hpp.html" target="_top" xlink:title="Definition of vnix::units::dim. ">
<polygon fill="white" stroke="black" points="165.5,-291.5 165.5,-310.5 261.5,-310.5 261.5,-291.5 165.5,-291.5"/>
<text text-anchor="middle" x="213.5" y="-298.5" font-family="Helvetica,sans-Serif" font-size="10.00">vnix/units/dim.hpp</text>
</a>
</g>
</g>
<!-- Node4&#45;&gt;Node6 -->
<g id="edge5" class="edge"><title>Node4&#45;&gt;Node6</title>
<path fill="none" stroke="midnightblue" d="M213.5,-336.805C213.5,-327.91 213.5,-317.78 213.5,-310.751"/>
<polygon fill="midnightblue" stroke="midnightblue" points="210,-337.083 213.5,-347.083 217,-337.083 210,-337.083"/>
</g>
<!-- Node17 -->
<g id="node17" class="node"><title>Node17</title>
<g id="a_node17"><a xlink:href="rational-test_8cpp.html" target="_top" xlink:title="Test&#45;cases for vnix::rat::rational. ">
<polygon fill="white" stroke="black" points="279.5,-291.5 279.5,-310.5 385.5,-310.5 385.5,-291.5 279.5,-291.5"/>
<text text-anchor="middle" x="332.5" y="-298.5" font-family="Helvetica,sans-Serif" font-size="10.00">test/rational&#45;test.cpp</text>
</a>
</g>
</g>
<!-- Node4&#45;&gt;Node17 -->
<g id="edge19" class="edge"><title>Node4&#45;&gt;Node17</title>
<path fill="none" stroke="midnightblue" d="M241.637,-343.232C263.896,-333.131 294.356,-319.309 313.732,-310.516"/>
<polygon fill="midnightblue" stroke="midnightblue" points="240.016,-340.124 232.356,-347.444 242.909,-346.498 240.016,-340.124"/>
</g>
<!-- Node7 -->
<g id="node7" class="node"><title>Node7</title>
<g id="a_node7"><a xlink:href="dim-test_8cpp.html" target="_top" xlink:title="Test&#45;cases for vnix::units::dim. ">
<polygon fill="white" stroke="black" points="47.5,-235.5 47.5,-254.5 137.5,-254.5 137.5,-235.5 47.5,-235.5"/>
<text text-anchor="middle" x="92.5" y="-242.5" font-family="Helvetica,sans-Serif" font-size="10.00">test/dim&#45;test.cpp</text>
</a>
</g>
</g>
<!-- Node6&#45;&gt;Node7 -->
<g id="edge6" class="edge"><title>Node6&#45;&gt;Node7</title>
<path fill="none" stroke="midnightblue" d="M185.194,-287.368C162.535,-277.255 131.374,-263.349 111.583,-254.516"/>
<polygon fill="midnightblue" stroke="midnightblue" points="183.769,-290.564 194.327,-291.444 186.622,-284.172 183.769,-290.564"/>
</g>
<!-- Node8 -->
<g id="node8" class="node"><title>Node8</title>
<g id="a_node8"><a xlink:href="dimval_8hpp.html" target="_top" xlink:title="Definition of vnix::units::dimval, descendants, and typedefs. ">
<polygon fill="white" stroke="black" points="133,-112.5 133,-131.5 242,-131.5 242,-112.5 133,-112.5"/>
<text text-anchor="middle" x="187.5" y="-119.5" font-family="Helvetica,sans-Serif" font-size="10.00">vnix/units/dimval.hpp</text>
</a>
</g>
</g>
<!-- Node6&#45;&gt;Node8 -->
<g id="edge7" class="edge"><title>Node6&#45;&gt;Node8</title>
<path fill="none" stroke="midnightblue" d="M199.514,-283.373C193.655,-275.34 187.512,-265.235 184.5,-255 171.297,-210.14 181.041,-152.955 185.545,-131.574"/>
<polygon fill="midnightblue" stroke="midnightblue" points="196.914,-285.731 205.827,-291.459 202.432,-281.423 196.914,-285.731"/>
</g>
<!-- Node13 -->
<g id="node13" class="node"><title>Node13</title>
<g id="a_node13"><a xlink:href="dyndim-base_8hpp.html" target="_top" xlink:title="Definition of vnix::units::dyndim_base. ">
<polygon fill="white" stroke="black" points="193.5,-235.5 193.5,-254.5 329.5,-254.5 329.5,-235.5 193.5,-235.5"/>
<text text-anchor="middle" x="261.5" y="-242.5" font-family="Helvetica,sans-Serif" font-size="10.00">vnix/units/dyndim&#45;base.hpp</text>
</a>
</g>
</g>
<!-- Node6&#45;&gt;Node13 -->
<g id="edge12" class="edge"><title>Node6&#45;&gt;Node13</title>
<path fill="none" stroke="midnightblue" d="M228.228,-283.431C236.64,-273.967 246.849,-262.483 253.721,-254.751"/>
<polygon fill="midnightblue" stroke="midnightblue" points="225.454,-281.284 221.426,-291.083 230.686,-285.934 225.454,-281.284"/>
</g>
<!-- Node14 -->
<g id="node14" class="node"><title>Node14</title>
<g id="a_node14"><a xlink:href="statdim-base_8hpp.html" target="_top" xlink:title="Definition of vnix::units::statdim_base. ">
<polygon fill="white" stroke="black" points="278.5,-168.5 278.5,-198.5 372.5,-198.5 372.5,-168.5 278.5,-168.5"/>
<text text-anchor="start" x="286.5" y="-186.5" font-family="Helvetica,sans-Serif" font-size="10.00">vnix/units/statdim</text>
<text text-anchor="middle" x="325.5" y="-175.5" font-family="Helvetica,sans-Serif" font-size="10.00">&#45;base.hpp</text>
</a>
</g>
</g>
<!-- Node6&#45;&gt;Node14 -->
<g id="edge18" class="edge"><title>Node6&#45;&gt;Node14</title>
<path fill="none" stroke="midnightblue" d="M261.308,-288.848C292.538,-280.484 329.195,-268.239 338.5,-255 350.308,-238.199 341.495,-213.768 333.736,-198.523"/>
<polygon fill="midnightblue" stroke="midnightblue" points="260.198,-285.52 251.401,-291.423 261.96,-292.294 260.198,-285.52"/>
</g>
<!-- Node9 -->
<g id="node9" class="node"><title>Node9</title>
<g id="a_node9"><a xlink:href="units_8hpp.html" target="_top" xlink:title="Definition of various units in namespaces vnix::units::flt, vnix::units::dbl, and vnix::units::ldbl...">
<polygon fill="white" stroke="black" points="149,-56.5 149,-75.5 226,-75.5 226,-56.5 149,-56.5"/>
<text text-anchor="middle" x="187.5" y="-63.5" font-family="Helvetica,sans-Serif" font-size="10.00">vnix/units.hpp</text>
</a>
</g>
</g>
<!-- Node8&#45;&gt;Node9 -->
<g id="edge8" class="edge"><title>Node8&#45;&gt;Node9</title>
<path fill="none" stroke="midnightblue" d="M187.5,-101.805C187.5,-92.9102 187.5,-82.7798 187.5,-75.7511"/>
<polygon fill="midnightblue" stroke="midnightblue" points="184,-102.083 187.5,-112.083 191,-102.083 184,-102.083"/>
</g>
<!-- Node10 -->
<g id="node10" class="node"><title>Node10</title>
<g id="a_node10"><a xlink:href="dimval-test_8cpp.html" target="_top" xlink:title="Test&#45;cases for vnix::units::dimval. ">
<polygon fill="white" stroke="black" points="0,-0.5 0,-19.5 103,-19.5 103,-0.5 0,-0.5"/>
<text text-anchor="middle" x="51.5" y="-7.5" font-family="Helvetica,sans-Serif" font-size="10.00">test/dimval&#45;test.cpp</text>
</a>
</g>
</g>
<!-- Node9&#45;&gt;Node10 -->
<g id="edge9" class="edge"><title>Node9&#45;&gt;Node10</title>
<path fill="none" stroke="midnightblue" d="M156.365,-52.6377C130.843,-42.504 95.3913,-28.4274 72.9488,-19.5164"/>
<polygon fill="midnightblue" stroke="midnightblue" points="155.365,-56.0061 165.95,-56.4435 157.948,-49.5002 155.365,-56.0061"/>
</g>
<!-- Node11 -->
<g id="node11" class="node"><title>Node11</title>
<g id="a_node11"><a xlink:href="eigen-compat-test_8cpp.html" target="_top" xlink:title="Test&#45;cases for compatibility with Eigen. ">
<polygon fill="white" stroke="black" points="121,-0.5 121,-19.5 254,-19.5 254,-0.5 121,-0.5"/>
<text text-anchor="middle" x="187.5" y="-7.5" font-family="Helvetica,sans-Serif" font-size="10.00">test/eigen&#45;compat&#45;test.cpp</text>
</a>
</g>
</g>
<!-- Node9&#45;&gt;Node11 -->
<g id="edge10" class="edge"><title>Node9&#45;&gt;Node11</title>
<path fill="none" stroke="midnightblue" d="M187.5,-45.8045C187.5,-36.9102 187.5,-26.7798 187.5,-19.7511"/>
<polygon fill="midnightblue" stroke="midnightblue" points="184,-46.083 187.5,-56.083 191,-46.083 184,-46.083"/>
</g>
<!-- Node12 -->
<g id="node12" class="node"><title>Node12</title>
<g id="a_node12"><a xlink:href="example1_8cpp.html" target="_top" xlink:title="test/example1.cpp">
<polygon fill="white" stroke="black" points="272,-0.5 272,-19.5 369,-19.5 369,-0.5 272,-0.5"/>
<text text-anchor="middle" x="320.5" y="-7.5" font-family="Helvetica,sans-Serif" font-size="10.00">test/example1.cpp</text>
</a>
</g>
</g>
<!-- Node9&#45;&gt;Node12 -->
<g id="edge11" class="edge"><title>Node9&#45;&gt;Node12</title>
<path fill="none" stroke="midnightblue" d="M217.948,-52.6377C242.907,-42.504 277.577,-28.4274 299.524,-19.5164"/>
<polygon fill="midnightblue" stroke="midnightblue" points="216.523,-49.4387 208.574,-56.4435 219.156,-55.9245 216.523,-49.4387"/>
</g>
<!-- Node13&#45;&gt;Node8 -->
<g id="edge13" class="edge"><title>Node13&#45;&gt;Node8</title>
<path fill="none" stroke="midnightblue" d="M250.95,-226.749C234.886,-200.483 204.887,-151.429 192.774,-131.623"/>
<polygon fill="midnightblue" stroke="midnightblue" points="247.975,-228.593 256.178,-235.298 253.947,-224.941 247.975,-228.593"/>
</g>
<!-- Node13&#45;&gt;Node14 -->
<g id="edge14" class="edge"><title>Node13&#45;&gt;Node14</title>
<path fill="none" stroke="midnightblue" d="M278.015,-228.646C288.019,-219.346 300.683,-207.572 310.416,-198.523"/>
<polygon fill="midnightblue" stroke="midnightblue" points="275.61,-226.103 270.67,-235.475 280.377,-231.23 275.61,-226.103"/>
</g>
<!-- Node14&#45;&gt;Node8 -->
<g id="edge15" class="edge"><title>Node14&#45;&gt;Node8</title>
<path fill="none" stroke="midnightblue" d="M283.455,-164.372C258.264,-153.511 227.386,-140.197 207.58,-131.658"/>
<polygon fill="midnightblue" stroke="midnightblue" points="282.227,-167.654 292.796,-168.399 284.999,-161.226 282.227,-167.654"/>
</g>
<!-- Node15 -->
<g id="node15" class="node"><title>Node15</title>
<g id="a_node15"><a xlink:href="dyndim-base-test_8cpp.html" target="_top" xlink:title="Test&#45;cases for vnix::units::dyndim_base. ">
<polygon fill="white" stroke="black" points="260.5,-112.5 260.5,-131.5 390.5,-131.5 390.5,-112.5 260.5,-112.5"/>
<text text-anchor="middle" x="325.5" y="-119.5" font-family="Helvetica,sans-Serif" font-size="10.00">test/dyndim&#45;base&#45;test.cpp</text>
</a>
</g>
</g>
<!-- Node14&#45;&gt;Node15 -->
<g id="edge16" class="edge"><title>Node14&#45;&gt;Node15</title>
<path fill="none" stroke="midnightblue" d="M325.5,-158.289C325.5,-148.857 325.5,-138.655 325.5,-131.658"/>
<polygon fill="midnightblue" stroke="midnightblue" points="322,-158.399 325.5,-168.399 329,-158.399 322,-158.399"/>
</g>
<!-- Node16 -->
<g id="node16" class="node"><title>Node16</title>
<g id="a_node16"><a xlink:href="statdim-base-test_8cpp.html" target="_top" xlink:title="Test&#45;cases for vnix::units::statdim_base. ">
<polygon fill="white" stroke="black" points="409,-112.5 409,-131.5 540,-131.5 540,-112.5 409,-112.5"/>
<text text-anchor="middle" x="474.5" y="-119.5" font-family="Helvetica,sans-Serif" font-size="10.00">test/statdim&#45;base&#45;test.cpp</text>
</a>
</g>
</g>
<!-- Node14&#45;&gt;Node16 -->
<g id="edge17" class="edge"><title>Node14&#45;&gt;Node16</title>
<path fill="none" stroke="midnightblue" d="M370.179,-164.658C397.507,-153.746 431.246,-140.272 452.819,-131.658"/>
<polygon fill="midnightblue" stroke="midnightblue" points="368.8,-161.44 360.811,-168.399 371.396,-167.941 368.8,-161.44"/>
</g>
<!-- Node19 -->
<g id="node19" class="node"><title>Node19</title>
<g id="a_node19"><a xlink:href="encoding_8hpp.html" target="_top" xlink:title="Definition of vnix::rat::encoding. ">
<polygon fill="white" stroke="black" points="292.5,-465 292.5,-484 402.5,-484 402.5,-465 292.5,-465"/>
<text text-anchor="middle" x="347.5" y="-472" font-family="Helvetica,sans-Serif" font-size="10.00">vnix/rat/encoding.hpp</text>
</a>
</g>
</g>
<!-- Node18&#45;&gt;Node19 -->
<g id="edge21" class="edge"><title>Node18&#45;&gt;Node19</title>
<path fill="none" stroke="midnightblue" d="M347.5,-516.25C347.5,-505.017 347.5,-492.377 347.5,-484.195"/>
<polygon fill="midnightblue" stroke="midnightblue" points="344,-516.396 347.5,-526.396 351,-516.396 344,-516.396"/>
</g>
<!-- Node21 -->
<g id="node21" class="node"><title>Node21</title>
<g id="a_node21"><a xlink:href="normalized-pair-test_8cpp.html" target="_top" xlink:title="Test&#45;cases for vnix::rat::normalized_pair. ">
<polygon fill="white" stroke="black" points="420.5,-459.5 420.5,-489.5 522.5,-489.5 522.5,-459.5 420.5,-459.5"/>
<text text-anchor="start" x="428.5" y="-477.5" font-family="Helvetica,sans-Serif" font-size="10.00">test/normalized&#45;pair</text>
<text text-anchor="middle" x="471.5" y="-466.5" font-family="Helvetica,sans-Serif" font-size="10.00">&#45;test.cpp</text>
</a>
</g>
</g>
<!-- Node18&#45;&gt;Node21 -->
<g id="edge24" class="edge"><title>Node18&#45;&gt;Node21</title>
<path fill="none" stroke="midnightblue" d="M383.337,-521.714C402.894,-511.463 426.702,-498.983 444.646,-489.577"/>
<polygon fill="midnightblue" stroke="midnightblue" points="381.638,-518.653 374.406,-526.396 384.888,-524.853 381.638,-518.653"/>
</g>
<!-- Node19&#45;&gt;Node3 -->
<g id="edge22" class="edge"><title>Node19&#45;&gt;Node3</title>
<path fill="none" stroke="midnightblue" d="M318.96,-460.827C292.945,-449.276 255.235,-432.532 232.663,-422.509"/>
<polygon fill="midnightblue" stroke="midnightblue" points="317.741,-464.116 328.301,-464.975 320.582,-457.718 317.741,-464.116"/>
</g>
<!-- Node20 -->
<g id="node20" class="node"><title>Node20</title>
<g id="a_node20"><a xlink:href="encoding-test_8cpp.html" target="_top" xlink:title="Test&#45;cases for vnix::rat::encoding. ">
<polygon fill="white" stroke="black" points="291,-403.5 291,-422.5 404,-422.5 404,-403.5 291,-403.5"/>
<text text-anchor="middle" x="347.5" y="-410.5" font-family="Helvetica,sans-Serif" font-size="10.00">test/encoding&#45;test.cpp</text>
</a>
</g>
</g>
<!-- Node19&#45;&gt;Node20 -->
<g id="edge23" class="edge"><title>Node19&#45;&gt;Node20</title>
<path fill="none" stroke="midnightblue" d="M347.5,-454.817C347.5,-443.996 347.5,-430.898 347.5,-422.509"/>
<polygon fill="midnightblue" stroke="midnightblue" points="344,-454.975 347.5,-464.975 351,-454.975 344,-454.975"/>
</g>
</g>
</svg>
