<?xml version="1.0" encoding="UTF-8" standalone="no"?>
<!DOCTYPE svg PUBLIC "-//W3C//DTD SVG 1.1//EN"
 "http://www.w3.org/Graphics/SVG/1.1/DTD/svg11.dtd">
<!-- Generated by graphviz version 2.38.0 (20140413.2041)
 -->
<!-- Title: Graphical Class Hierarchy Pages: 1 -->
<svg width="272pt" height="39pt"
 viewBox="0.00 0.00 272.00 39.00" xmlns="http://www.w3.org/2000/svg" xmlns:xlink="http://www.w3.org/1999/xlink">
<g id="graph0" class="graph" transform="scale(1 1) rotate(0) translate(4 35)">
<title>Graphical Class Hierarchy</title>
<polygon fill="white" stroke="none" points="-4,4 -4,-35 268,-35 268,4 -4,4"/>
<!-- Node1 -->
<g id="node1" class="node"><title>Node1</title>
<g id="a_node1"><a xlink:href="structvnix_1_1units_1_1basic__number.html" target="_top" xlink:title="vnix::units::basic\l_number\&lt; float const &amp; \&gt;">
<polygon fill="white" stroke="black" points="0,-0.5 0,-30.5 128,-30.5 128,-0.5 0,-0.5"/>
<text text-anchor="start" x="8" y="-18.5" font-family="Helvetica,sans-Serif" font-size="10.00">vnix::units::basic</text>
<text text-anchor="middle" x="64" y="-7.5" font-family="Helvetica,sans-Serif" font-size="10.00">_number&lt; float const &amp; &gt;</text>
</a>
</g>
</g>
<!-- Node2 -->
<g id="node2" class="node"><title>Node2</title>
<g id="a_node2"><a xlink:href="structvnix_1_1units_1_1number_3_01float_01const_01_6_01_4.html" target="_top" xlink:title="Specialization of scalar for float. ">
<polygon fill="white" stroke="black" points="164,-0.5 164,-30.5 264,-30.5 264,-0.5 164,-0.5"/>
<text text-anchor="start" x="172" y="-18.5" font-family="Helvetica,sans-Serif" font-size="10.00">vnix::units::number</text>
<text text-anchor="middle" x="214" y="-7.5" font-family="Helvetica,sans-Serif" font-size="10.00">&lt; float const &amp; &gt;</text>
</a>
</g>
</g>
<!-- Node1&#45;&gt;Node2 -->
<g id="edge1" class="edge"><title>Node1&#45;&gt;Node2</title>
<path fill="none" stroke="midnightblue" d="M138.333,-15.5C146.999,-15.5 155.677,-15.5 163.892,-15.5"/>
<polygon fill="midnightblue" stroke="midnightblue" points="138.195,-12.0001 128.195,-15.5 138.195,-19.0001 138.195,-12.0001"/>
</g>
</g>
</svg>
