<?xml version="1.0" encoding="UTF-8" standalone="no"?>
<!DOCTYPE svg PUBLIC "-//W3C//DTD SVG 1.1//EN"
 "http://www.w3.org/Graphics/SVG/1.1/DTD/svg11.dtd">
<!-- Generated by graphviz version 2.38.0 (20140413.2041)
 -->
<!-- Title: Graphical Class Hierarchy Pages: 1 -->
<svg width="279pt" height="50pt"
 viewBox="0.00 0.00 279.00 50.00" xmlns="http://www.w3.org/2000/svg" xmlns:xlink="http://www.w3.org/1999/xlink">
<g id="graph0" class="graph" transform="scale(1 1) rotate(0) translate(4 46)">
<title>Graphical Class Hierarchy</title>
<polygon fill="white" stroke="none" points="-4,4 -4,-46 275,-46 275,4 -4,4"/>
<!-- Node1 -->
<g id="node1" class="node"><title>Node1</title>
<g id="a_node1"><a xlink:href="structvnix_1_1units_1_1basic__number.html" target="_top" xlink:title="vnix::units::basic\l_number\&lt; Eigen::Product\l\&lt; L, R, OPT \&gt; \&gt;">
<polygon fill="white" stroke="black" points="0,-0.5 0,-41.5 128,-41.5 128,-0.5 0,-0.5"/>
<text text-anchor="start" x="8" y="-29.5" font-family="Helvetica,sans-Serif" font-size="10.00">vnix::units::basic</text>
<text text-anchor="start" x="8" y="-18.5" font-family="Helvetica,sans-Serif" font-size="10.00">_number&lt; Eigen::Product</text>
<text text-anchor="middle" x="64" y="-7.5" font-family="Helvetica,sans-Serif" font-size="10.00">&lt; L, R, OPT &gt; &gt;</text>
</a>
</g>
</g>
<!-- Node2 -->
<g id="node2" class="node"><title>Node2</title>
<g id="a_node2"><a xlink:href="structvnix_1_1units_1_1number_3_01Eigen_1_1Product_3_01L_00_01R_00_01OPT_01_4_01_4.html" target="_top" xlink:title="Specialization of scalar for Eigen::Product. ">
<polygon fill="white" stroke="black" points="164,-0.5 164,-41.5 271,-41.5 271,-0.5 164,-0.5"/>
<text text-anchor="start" x="172" y="-29.5" font-family="Helvetica,sans-Serif" font-size="10.00">vnix::units::number</text>
<text text-anchor="start" x="172" y="-18.5" font-family="Helvetica,sans-Serif" font-size="10.00">&lt; Eigen::Product&lt; L,</text>
<text text-anchor="middle" x="217.5" y="-7.5" font-family="Helvetica,sans-Serif" font-size="10.00"> R, OPT &gt; &gt;</text>
</a>
</g>
</g>
<!-- Node1&#45;&gt;Node2 -->
<g id="edge1" class="edge"><title>Node1&#45;&gt;Node2</title>
<path fill="none" stroke="midnightblue" d="M138.432,-21C147.04,-21 155.688,-21 163.931,-21"/>
<polygon fill="midnightblue" stroke="midnightblue" points="138.372,-17.5001 128.372,-21 138.372,-24.5001 138.372,-17.5001"/>
</g>
</g>
</svg>
