<?xml version="1.0" encoding="UTF-8" standalone="no"?>
<!DOCTYPE svg PUBLIC "-//W3C//DTD SVG 1.1//EN"
 "http://www.w3.org/Graphics/SVG/1.1/DTD/svg11.dtd">
<!-- Generated by graphviz version 2.38.0 (20140413.2041)
 -->
<!-- Title: Graphical Class Hierarchy Pages: 1 -->
<svg width="281pt" height="39pt"
 viewBox="0.00 0.00 281.00 39.00" xmlns="http://www.w3.org/2000/svg" xmlns:xlink="http://www.w3.org/1999/xlink">
<g id="graph0" class="graph" transform="scale(1 1) rotate(0) translate(4 35)">
<title>Graphical Class Hierarchy</title>
<polygon fill="white" stroke="none" points="-4,4 -4,-35 277,-35 277,4 -4,4"/>
<!-- Node1 -->
<g id="node1" class="node"><title>Node1</title>
<g id="a_node1"><a xlink:href="structvnix_1_1units_1_1basic__number.html" target="_top" xlink:title="vnix::units::basic\l_number\&lt; double const &amp; \&gt;">
<polygon fill="white" stroke="black" points="0,-0.5 0,-30.5 137,-30.5 137,-0.5 0,-0.5"/>
<text text-anchor="start" x="8" y="-18.5" font-family="Helvetica,sans-Serif" font-size="10.00">vnix::units::basic</text>
<text text-anchor="middle" x="68.5" y="-7.5" font-family="Helvetica,sans-Serif" font-size="10.00">_number&lt; double const &amp; &gt;</text>
</a>
</g>
</g>
<!-- Node2 -->
<g id="node2" class="node"><title>Node2</title>
<g id="a_node2"><a xlink:href="structvnix_1_1units_1_1number_3_01double_01const_01_6_01_4.html" target="_top" xlink:title="Specialization of scalar for double. ">
<polygon fill="white" stroke="black" points="173,-0.5 173,-30.5 273,-30.5 273,-0.5 173,-0.5"/>
<text text-anchor="start" x="181" y="-18.5" font-family="Helvetica,sans-Serif" font-size="10.00">vnix::units::number</text>
<text text-anchor="middle" x="223" y="-7.5" font-family="Helvetica,sans-Serif" font-size="10.00">&lt; double const &amp; &gt;</text>
</a>
</g>
</g>
<!-- Node1&#45;&gt;Node2 -->
<g id="edge1" class="edge"><title>Node1&#45;&gt;Node2</title>
<path fill="none" stroke="midnightblue" d="M147.385,-15.5C156.007,-15.5 164.601,-15.5 172.726,-15.5"/>
<polygon fill="midnightblue" stroke="midnightblue" points="147.277,-12.0001 137.277,-15.5 147.277,-19.0001 147.277,-12.0001"/>
</g>
</g>
</svg>
