<?xml version="1.0" encoding="UTF-8" standalone="no"?>
<!DOCTYPE svg PUBLIC "-//W3C//DTD SVG 1.1//EN"
 "http://www.w3.org/Graphics/SVG/1.1/DTD/svg11.dtd">
<!-- Generated by graphviz version 2.38.0 (20140413.2041)
 -->
<!-- Title: Graphical Class Hierarchy Pages: 1 -->
<svg width="298pt" height="50pt"
 viewBox="0.00 0.00 298.00 50.00" xmlns="http://www.w3.org/2000/svg" xmlns:xlink="http://www.w3.org/1999/xlink">
<g id="graph0" class="graph" transform="scale(1 1) rotate(0) translate(4 46)">
<title>Graphical Class Hierarchy</title>
<polygon fill="white" stroke="none" points="-4,4 -4,-46 294,-46 294,4 -4,4"/>
<!-- Node1 -->
<g id="node1" class="node"><title>Node1</title>
<g id="a_node1"><a xlink:href="structvnix_1_1units_1_1basic__number.html" target="_top" xlink:title="vnix::units::basic\l_number\&lt; mv::mat\&lt; T,\l NR, NC \&gt; \&gt;">
<polygon fill="white" stroke="black" points="0,-0.5 0,-41.5 117,-41.5 117,-0.5 0,-0.5"/>
<text text-anchor="start" x="8" y="-29.5" font-family="Helvetica,sans-Serif" font-size="10.00">vnix::units::basic</text>
<text text-anchor="start" x="8" y="-18.5" font-family="Helvetica,sans-Serif" font-size="10.00">_number&lt; mv::mat&lt; T,</text>
<text text-anchor="middle" x="58.5" y="-7.5" font-family="Helvetica,sans-Serif" font-size="10.00"> NR, NC &gt; &gt;</text>
</a>
</g>
</g>
<!-- Node2 -->
<g id="node2" class="node"><title>Node2</title>
<g id="a_node2"><a xlink:href="structvnix_1_1units_1_1number_3_01mv_1_1mat_3_01T_00_01NR_00_01NC_01_4_01_4.html" target="_top" xlink:title="Specialization of scalar for vnix::mv::mat. ">
<polygon fill="white" stroke="black" points="153,-6 153,-36 290,-36 290,-6 153,-6"/>
<text text-anchor="start" x="161" y="-24" font-family="Helvetica,sans-Serif" font-size="10.00">vnix::units::number</text>
<text text-anchor="middle" x="221.5" y="-13" font-family="Helvetica,sans-Serif" font-size="10.00">&lt; mv::mat&lt; T, NR, NC &gt; &gt;</text>
</a>
</g>
</g>
<!-- Node1&#45;&gt;Node2 -->
<g id="edge1" class="edge"><title>Node1&#45;&gt;Node2</title>
<path fill="none" stroke="midnightblue" d="M127.331,-21C135.76,-21 144.378,-21 152.805,-21"/>
<polygon fill="midnightblue" stroke="midnightblue" points="127.17,-17.5001 117.17,-21 127.17,-24.5001 127.17,-17.5001"/>
</g>
</g>
</svg>
