<?xml version="1.0" encoding="UTF-8" standalone="no"?>
<!DOCTYPE svg PUBLIC "-//W3C//DTD SVG 1.1//EN"
 "http://www.w3.org/Graphics/SVG/1.1/DTD/svg11.dtd">
<!-- Generated by graphviz version 2.38.0 (20140413.2041)
 -->
<!-- Title: vnix::units::mass_dim Pages: 1 -->
<svg width="282pt" height="333pt"
 viewBox="0.00 0.00 282.00 333.00" xmlns="http://www.w3.org/2000/svg" xmlns:xlink="http://www.w3.org/1999/xlink">
<g id="graph0" class="graph" transform="scale(1 1) rotate(0) translate(4 329)">
<title>vnix::units::mass_dim</title>
<polygon fill="white" stroke="none" points="-4,4 -4,-329 278,-329 278,4 -4,4"/>
<!-- Node1 -->
<g id="node1" class="node"><title>Node1</title>
<polygon fill="#bfbfbf" stroke="black" points="0,-153 0,-172 113,-172 113,-153 0,-153"/>
<text text-anchor="middle" x="56.5" y="-160" font-family="Helvetica,sans-Serif" font-size="10.00">vnix::units::mass_dim</text>
</g>
<!-- Node2 -->
<g id="node2" class="node"><title>Node2</title>
<g id="a_node2"><a xlink:href="structvnix_1_1units_1_1impl_1_1grams.html#ac107fe119f7a4a5648eddd629bb8cffe" target="_top" xlink:title="Initialize from number of grams. ">
<polygon fill="white" stroke="black" points="165.5,-294.5 165.5,-324.5 257.5,-324.5 257.5,-294.5 165.5,-294.5"/>
<text text-anchor="start" x="173.5" y="-312.5" font-family="Helvetica,sans-Serif" font-size="10.00">vnix::units::impl::</text>
<text text-anchor="middle" x="211.5" y="-301.5" font-family="Helvetica,sans-Serif" font-size="10.00">grams::grams</text>
</a>
</g>
</g>
<!-- Node1&#45;&gt;Node2 -->
<g id="edge1" class="edge"><title>Node1&#45;&gt;Node2</title>
<path fill="none" stroke="midnightblue" d="M67.0453,-181.295C81.4399,-207.92 111.097,-256.588 149,-285.5 153.921,-289.254 159.502,-292.492 165.246,-295.264"/>
<polygon fill="midnightblue" stroke="midnightblue" points="70.044,-179.477 62.2904,-172.257 63.8491,-182.737 70.044,-179.477"/>
</g>
<!-- Node3 -->
<g id="node3" class="node"><title>Node3</title>
<g id="a_node3"><a xlink:href="structvnix_1_1units_1_1impl_1_1milligrams.html#aa3a3ad4d23f9b1d0474d1647e2ecde6b" target="_top" xlink:title="Initialize from number of milligrams. ">
<polygon fill="white" stroke="black" points="156,-245.5 156,-275.5 267,-275.5 267,-245.5 156,-245.5"/>
<text text-anchor="start" x="164" y="-263.5" font-family="Helvetica,sans-Serif" font-size="10.00">vnix::units::impl::</text>
<text text-anchor="middle" x="211.5" y="-252.5" font-family="Helvetica,sans-Serif" font-size="10.00">milligrams::milligrams</text>
</a>
</g>
</g>
<!-- Node1&#45;&gt;Node3 -->
<g id="edge2" class="edge"><title>Node1&#45;&gt;Node3</title>
<path fill="none" stroke="midnightblue" d="M74.8605,-179.301C92.4203,-195.598 120.911,-220.19 149,-236.5 154.65,-239.78 160.832,-242.79 167.031,-245.486"/>
<polygon fill="midnightblue" stroke="midnightblue" points="76.8424,-176.359 67.1679,-172.039 72.0373,-181.449 76.8424,-176.359"/>
</g>
<!-- Node4 -->
<g id="node4" class="node"><title>Node4</title>
<g id="a_node4"><a xlink:href="structvnix_1_1units_1_1impl_1_1micrograms.html#aab4a780e5c7b4ab9172af799cc218768" target="_top" xlink:title="Initialize from number of micrograms. ">
<polygon fill="white" stroke="black" points="149,-196.5 149,-226.5 274,-226.5 274,-196.5 149,-196.5"/>
<text text-anchor="start" x="157" y="-214.5" font-family="Helvetica,sans-Serif" font-size="10.00">vnix::units::impl::</text>
<text text-anchor="middle" x="211.5" y="-203.5" font-family="Helvetica,sans-Serif" font-size="10.00">micrograms::micrograms</text>
</a>
</g>
</g>
<!-- Node1&#45;&gt;Node4 -->
<g id="edge3" class="edge"><title>Node1&#45;&gt;Node4</title>
<path fill="none" stroke="midnightblue" d="M96.9407,-175.131C117.278,-181.645 142.223,-189.633 163.548,-196.463"/>
<polygon fill="midnightblue" stroke="midnightblue" points="97.9542,-171.781 87.3631,-172.064 95.8191,-178.447 97.9542,-171.781"/>
</g>
<!-- Node5 -->
<g id="node5" class="node"><title>Node5</title>
<g id="a_node5"><a xlink:href="structvnix_1_1units_1_1impl_1_1nanograms.html#a4110c91de84a59640bcdaa6e9126a85e" target="_top" xlink:title="Initialize from number of nanograms. ">
<polygon fill="white" stroke="black" points="152,-147.5 152,-177.5 271,-177.5 271,-147.5 152,-147.5"/>
<text text-anchor="start" x="160" y="-165.5" font-family="Helvetica,sans-Serif" font-size="10.00">vnix::units::impl::</text>
<text text-anchor="middle" x="211.5" y="-154.5" font-family="Helvetica,sans-Serif" font-size="10.00">nanograms::nanograms</text>
</a>
</g>
</g>
<!-- Node1&#45;&gt;Node5 -->
<g id="edge4" class="edge"><title>Node1&#45;&gt;Node5</title>
<path fill="none" stroke="midnightblue" d="M123.322,-162.5C132.784,-162.5 142.469,-162.5 151.781,-162.5"/>
<polygon fill="midnightblue" stroke="midnightblue" points="123.169,-159 113.169,-162.5 123.169,-166 123.169,-159"/>
</g>
<!-- Node6 -->
<g id="node6" class="node"><title>Node6</title>
<g id="a_node6"><a xlink:href="structvnix_1_1units_1_1impl_1_1picograms.html#ad16dfd16110c939908637dff9c8b22b3" target="_top" xlink:title="Initialize from number of picograms. ">
<polygon fill="white" stroke="black" points="155,-98.5 155,-128.5 268,-128.5 268,-98.5 155,-98.5"/>
<text text-anchor="start" x="163" y="-116.5" font-family="Helvetica,sans-Serif" font-size="10.00">vnix::units::impl::</text>
<text text-anchor="middle" x="211.5" y="-105.5" font-family="Helvetica,sans-Serif" font-size="10.00">picograms::picograms</text>
</a>
</g>
</g>
<!-- Node1&#45;&gt;Node6 -->
<g id="edge5" class="edge"><title>Node1&#45;&gt;Node6</title>
<path fill="none" stroke="midnightblue" d="M96.9407,-149.869C117.278,-143.355 142.223,-135.367 163.548,-128.537"/>
<polygon fill="midnightblue" stroke="midnightblue" points="95.8191,-146.553 87.3631,-152.936 97.9542,-153.219 95.8191,-146.553"/>
</g>
<!-- Node7 -->
<g id="node7" class="node"><title>Node7</title>
<g id="a_node7"><a xlink:href="structvnix_1_1units_1_1impl_1_1kilograms.html#a5948132eb94d48c6e24a28027c9a2440" target="_top" xlink:title="Initialize from number of kilograms. ">
<polygon fill="white" stroke="black" points="158,-49.5 158,-79.5 265,-79.5 265,-49.5 158,-49.5"/>
<text text-anchor="start" x="166" y="-67.5" font-family="Helvetica,sans-Serif" font-size="10.00">vnix::units::impl::</text>
<text text-anchor="middle" x="211.5" y="-56.5" font-family="Helvetica,sans-Serif" font-size="10.00">kilograms::kilograms</text>
</a>
</g>
</g>
<!-- Node1&#45;&gt;Node7 -->
<g id="edge6" class="edge"><title>Node1&#45;&gt;Node7</title>
<path fill="none" stroke="midnightblue" d="M75.2376,-145.768C92.8877,-129.767 121.271,-105.738 149,-89.5 155.166,-85.8891 161.953,-82.5608 168.698,-79.5901"/>
<polygon fill="midnightblue" stroke="midnightblue" points="72.4693,-143.559 67.4851,-152.909 77.2117,-148.708 72.4693,-143.559"/>
</g>
<!-- Node8 -->
<g id="node8" class="node"><title>Node8</title>
<g id="a_node8"><a xlink:href="structvnix_1_1units_1_1impl_1_1megagrams.html#ae705a971add53d1a798141a5bc24527d" target="_top" xlink:title="Initialize from number of megagrams. ">
<polygon fill="white" stroke="black" points="149,-0.5 149,-30.5 274,-30.5 274,-0.5 149,-0.5"/>
<text text-anchor="start" x="157" y="-18.5" font-family="Helvetica,sans-Serif" font-size="10.00">vnix::units::impl::</text>
<text text-anchor="middle" x="211.5" y="-7.5" font-family="Helvetica,sans-Serif" font-size="10.00">megagrams::megagrams</text>
</a>
</g>
</g>
<!-- Node1&#45;&gt;Node8 -->
<g id="edge7" class="edge"><title>Node1&#45;&gt;Node8</title>
<path fill="none" stroke="midnightblue" d="M67.1384,-143.932C81.6466,-117.615 111.441,-69.4517 149,-40.5 153.929,-36.7003 159.516,-33.3913 165.262,-30.535"/>
<polygon fill="midnightblue" stroke="midnightblue" points="63.9899,-142.397 62.3422,-152.863 70.1569,-145.709 63.9899,-142.397"/>
</g>
</g>
</svg>
