<?xml version="1.0" encoding="UTF-8" standalone="no"?>
<!DOCTYPE svg PUBLIC "-//W3C//DTD SVG 1.1//EN"
 "http://www.w3.org/Graphics/SVG/1.1/DTD/svg11.dtd">
<!-- Generated by graphviz version 2.38.0 (20140413.2041)
 -->
<!-- Title: vnix::units::nanograms Pages: 1 -->
<svg width="305pt" height="116pt"
 viewBox="0.00 0.00 305.00 115.50" xmlns="http://www.w3.org/2000/svg" xmlns:xlink="http://www.w3.org/1999/xlink">
<g id="graph0" class="graph" transform="scale(1 1) rotate(0) translate(4 111.5)">
<title>vnix::units::nanograms</title>
<polygon fill="white" stroke="none" points="-4,4 -4,-111.5 301,-111.5 301,4 -4,4"/>
<!-- Node1 -->
<g id="node1" class="node"><title>Node1</title>
<polygon fill="#bfbfbf" stroke="black" points="0,-50 0,-69 116,-69 116,-50 0,-50"/>
<text text-anchor="middle" x="58" y="-57" font-family="Helvetica,sans-Serif" font-size="10.00">vnix::units::nanograms</text>
</g>
<!-- Node2 -->
<g id="node2" class="node"><title>Node2</title>
<g id="a_node2"><a xlink:href="namespacevnix_1_1units_1_1flt.html#a0e2319318080adb01b1a396fe7c2d70c" target="_top" xlink:title="Interpret a number, suffixed with &#39;_ng&#39;, as a (literal) number of nanograms. ">
<polygon fill="white" stroke="black" points="154.5,-88 154.5,-107 294.5,-107 294.5,-88 154.5,-88"/>
<text text-anchor="middle" x="224.5" y="-95" font-family="Helvetica,sans-Serif" font-size="10.00">vnix::units::flt::operator&quot;&quot;_ng</text>
</a>
</g>
</g>
<!-- Node1&#45;&gt;Node2 -->
<g id="edge1" class="edge"><title>Node1&#45;&gt;Node2</title>
<path fill="none" stroke="midnightblue" d="M110.497,-71.3961C133.62,-76.7374 160.53,-82.9537 182.288,-87.9799"/>
<polygon fill="midnightblue" stroke="midnightblue" points="111.042,-67.9296 100.51,-69.089 109.466,-74.75 111.042,-67.9296"/>
</g>
<!-- Node3 -->
<g id="node3" class="node"><title>Node3</title>
<g id="a_node3"><a xlink:href="namespacevnix_1_1units_1_1dbl.html#a87b62b66501d07564360f35331605b03" target="_top" xlink:title="Interpret a number, suffixed with &#39;_ng&#39;, as a (literal) number of nanograms. ">
<polygon fill="white" stroke="black" points="152,-50 152,-69 297,-69 297,-50 152,-50"/>
<text text-anchor="middle" x="224.5" y="-57" font-family="Helvetica,sans-Serif" font-size="10.00">vnix::units::dbl::operator&quot;&quot;_ng</text>
</a>
</g>
</g>
<!-- Node1&#45;&gt;Node3 -->
<g id="edge2" class="edge"><title>Node1&#45;&gt;Node3</title>
<path fill="none" stroke="midnightblue" d="M126.208,-59.5C134.627,-59.5 143.263,-59.5 151.748,-59.5"/>
<polygon fill="midnightblue" stroke="midnightblue" points="126.072,-56.0001 116.072,-59.5 126.072,-63.0001 126.072,-56.0001"/>
</g>
<!-- Node4 -->
<g id="node4" class="node"><title>Node4</title>
<g id="a_node4"><a xlink:href="namespacevnix_1_1units_1_1ldbl.html#ae697fd900075591be60a2ad39d20667c" target="_top" xlink:title="Interpret a number, suffixed with &#39;_ng&#39;, as a (literal) number of nanograms. ">
<polygon fill="white" stroke="black" points="180,-0.5 180,-30.5 269,-30.5 269,-0.5 180,-0.5"/>
<text text-anchor="start" x="188" y="-18.5" font-family="Helvetica,sans-Serif" font-size="10.00">vnix::units::ldbl::</text>
<text text-anchor="middle" x="224.5" y="-7.5" font-family="Helvetica,sans-Serif" font-size="10.00">operator&quot;&quot;_ng</text>
</a>
</g>
</g>
<!-- Node1&#45;&gt;Node4 -->
<g id="edge3" class="edge"><title>Node1&#45;&gt;Node4</title>
<path fill="none" stroke="midnightblue" d="M104.456,-47.3415C128.032,-41.0356 156.687,-33.371 179.975,-27.1419"/>
<polygon fill="midnightblue" stroke="midnightblue" points="103.45,-43.9875 94.6941,-49.9527 105.259,-50.7498 103.45,-43.9875"/>
</g>
</g>
</svg>
