<?xml version="1.0" encoding="UTF-8" standalone="no"?>
<!DOCTYPE svg PUBLIC "-//W3C//DTD SVG 1.1//EN"
 "http://www.w3.org/Graphics/SVG/1.1/DTD/svg11.dtd">
<!-- Generated by graphviz version 2.38.0 (20140413.2041)
 -->
<!-- Title: vnix::units::length_dim Pages: 1 -->
<svg width="291pt" height="431pt"
 viewBox="0.00 0.00 291.00 431.00" xmlns="http://www.w3.org/2000/svg" xmlns:xlink="http://www.w3.org/1999/xlink">
<g id="graph0" class="graph" transform="scale(1 1) rotate(0) translate(4 427)">
<title>vnix::units::length_dim</title>
<polygon fill="white" stroke="none" points="-4,4 -4,-427 287,-427 287,4 -4,4"/>
<!-- Node1 -->
<g id="node1" class="node"><title>Node1</title>
<polygon fill="#bfbfbf" stroke="black" points="0,-202 0,-221 115,-221 115,-202 0,-202"/>
<text text-anchor="middle" x="57.5" y="-209" font-family="Helvetica,sans-Serif" font-size="10.00">vnix::units::length_dim</text>
</g>
<!-- Node2 -->
<g id="node2" class="node"><title>Node2</title>
<g id="a_node2"><a xlink:href="structvnix_1_1units_1_1impl_1_1meters.html#a80d27ec2769dfc433a3555b053bc7abf" target="_top" xlink:title="Initialize from number of meters. ">
<polygon fill="white" stroke="black" points="171,-392.5 171,-422.5 263,-422.5 263,-392.5 171,-392.5"/>
<text text-anchor="start" x="179" y="-410.5" font-family="Helvetica,sans-Serif" font-size="10.00">vnix::units::impl::</text>
<text text-anchor="middle" x="217" y="-399.5" font-family="Helvetica,sans-Serif" font-size="10.00">meters::meters</text>
</a>
</g>
</g>
<!-- Node1&#45;&gt;Node2 -->
<g id="edge1" class="edge"><title>Node1&#45;&gt;Node2</title>
<path fill="none" stroke="midnightblue" d="M64.0118,-231.255C74.8634,-266.656 102.278,-341.151 151,-383.5 156.811,-388.551 163.778,-392.576 170.962,-395.773"/>
<polygon fill="midnightblue" stroke="midnightblue" points="67.2419,-229.833 61.0645,-221.225 60.5259,-231.806 67.2419,-229.833"/>
</g>
<!-- Node3 -->
<g id="node3" class="node"><title>Node3</title>
<g id="a_node3"><a xlink:href="structvnix_1_1units_1_1impl_1_1centimeters.html#a213a64994abaed26316d7bcb34b96e64" target="_top" xlink:title="Initialize from number of centimeters. ">
<polygon fill="white" stroke="black" points="154.5,-343.5 154.5,-373.5 279.5,-373.5 279.5,-343.5 154.5,-343.5"/>
<text text-anchor="start" x="162.5" y="-361.5" font-family="Helvetica,sans-Serif" font-size="10.00">vnix::units::impl::</text>
<text text-anchor="middle" x="217" y="-350.5" font-family="Helvetica,sans-Serif" font-size="10.00">centimeters::centimeters</text>
</a>
</g>
</g>
<!-- Node1&#45;&gt;Node3 -->
<g id="edge2" class="edge"><title>Node1&#45;&gt;Node3</title>
<path fill="none" stroke="midnightblue" d="M68.1298,-230.386C82.6575,-257.122 112.609,-305.925 151,-334.5 155.535,-337.876 160.596,-340.821 165.837,-343.38"/>
<polygon fill="midnightblue" stroke="midnightblue" points="71.0989,-228.514 63.3317,-221.308 64.9101,-231.785 71.0989,-228.514"/>
</g>
<!-- Node4 -->
<g id="node4" class="node"><title>Node4</title>
<g id="a_node4"><a xlink:href="structvnix_1_1units_1_1impl_1_1millimeters.html#addd44695cc4f3f871981402239d47927" target="_top" xlink:title="Initialize from number of millimeters. ">
<polygon fill="white" stroke="black" points="158.5,-294.5 158.5,-324.5 275.5,-324.5 275.5,-294.5 158.5,-294.5"/>
<text text-anchor="start" x="166.5" y="-312.5" font-family="Helvetica,sans-Serif" font-size="10.00">vnix::units::impl::</text>
<text text-anchor="middle" x="217" y="-301.5" font-family="Helvetica,sans-Serif" font-size="10.00">millimeters::millimeters</text>
</a>
</g>
</g>
<!-- Node1&#45;&gt;Node4 -->
<g id="edge3" class="edge"><title>Node1&#45;&gt;Node4</title>
<path fill="none" stroke="midnightblue" d="M75.5387,-227.955C93.2244,-244.322 122.274,-269.272 151,-285.5 156.761,-288.754 163.046,-291.718 169.365,-294.366"/>
<polygon fill="midnightblue" stroke="midnightblue" points="77.9358,-225.404 68.2544,-221.101 73.1389,-230.502 77.9358,-225.404"/>
</g>
<!-- Node5 -->
<g id="node5" class="node"><title>Node5</title>
<g id="a_node5"><a xlink:href="structvnix_1_1units_1_1impl_1_1micrometers.html#a03f84511f88a26e17dfc014d2f323b36" target="_top" xlink:title="Initialize from number of micrometers. ">
<polygon fill="white" stroke="black" points="151.5,-245.5 151.5,-275.5 282.5,-275.5 282.5,-245.5 151.5,-245.5"/>
<text text-anchor="start" x="159.5" y="-263.5" font-family="Helvetica,sans-Serif" font-size="10.00">vnix::units::impl::</text>
<text text-anchor="middle" x="217" y="-252.5" font-family="Helvetica,sans-Serif" font-size="10.00">micrometers::micrometers</text>
</a>
</g>
</g>
<!-- Node1&#45;&gt;Node5 -->
<g id="edge4" class="edge"><title>Node1&#45;&gt;Node5</title>
<path fill="none" stroke="midnightblue" d="M98.8155,-224.043C119.803,-230.572 145.615,-238.602 167.667,-245.463"/>
<polygon fill="midnightblue" stroke="midnightblue" points="99.8298,-220.693 89.2415,-221.064 97.7503,-227.377 99.8298,-220.693"/>
</g>
<!-- Node6 -->
<g id="node6" class="node"><title>Node6</title>
<g id="a_node6"><a xlink:href="structvnix_1_1units_1_1impl_1_1nanometers.html#a031a5bad0d42fd0198d4236e7f358f19" target="_top" xlink:title="Initialize from number of nanometers. ">
<polygon fill="white" stroke="black" points="154.5,-196.5 154.5,-226.5 279.5,-226.5 279.5,-196.5 154.5,-196.5"/>
<text text-anchor="start" x="162.5" y="-214.5" font-family="Helvetica,sans-Serif" font-size="10.00">vnix::units::impl::</text>
<text text-anchor="middle" x="217" y="-203.5" font-family="Helvetica,sans-Serif" font-size="10.00">nanometers::nanometers</text>
</a>
</g>
</g>
<!-- Node1&#45;&gt;Node6 -->
<g id="edge5" class="edge"><title>Node1&#45;&gt;Node6</title>
<path fill="none" stroke="midnightblue" d="M125.619,-211.5C135.182,-211.5 144.979,-211.5 154.43,-211.5"/>
<polygon fill="midnightblue" stroke="midnightblue" points="125.361,-208 115.361,-211.5 125.361,-215 125.361,-208"/>
</g>
<!-- Node7 -->
<g id="node7" class="node"><title>Node7</title>
<g id="a_node7"><a xlink:href="structvnix_1_1units_1_1impl_1_1picometers.html#a21e579c49e62060b068c15f25d71a1e0" target="_top" xlink:title="Initialize from number of picometers. ">
<polygon fill="white" stroke="black" points="157.5,-147.5 157.5,-177.5 276.5,-177.5 276.5,-147.5 157.5,-147.5"/>
<text text-anchor="start" x="165.5" y="-165.5" font-family="Helvetica,sans-Serif" font-size="10.00">vnix::units::impl::</text>
<text text-anchor="middle" x="217" y="-154.5" font-family="Helvetica,sans-Serif" font-size="10.00">picometers::picometers</text>
</a>
</g>
</g>
<!-- Node1&#45;&gt;Node7 -->
<g id="edge6" class="edge"><title>Node1&#45;&gt;Node7</title>
<path fill="none" stroke="midnightblue" d="M98.8155,-198.957C119.803,-192.428 145.615,-184.398 167.667,-177.537"/>
<polygon fill="midnightblue" stroke="midnightblue" points="97.7503,-195.623 89.2415,-201.936 99.8298,-202.307 97.7503,-195.623"/>
</g>
<!-- Node8 -->
<g id="node8" class="node"><title>Node8</title>
<g id="a_node8"><a xlink:href="structvnix_1_1units_1_1impl_1_1femtometers.html#a6ab2f1a58ed0a7d672a192ab70c52425" target="_top" xlink:title="Initialize from number of femtometers. ">
<polygon fill="white" stroke="black" points="151,-98.5 151,-128.5 283,-128.5 283,-98.5 151,-98.5"/>
<text text-anchor="start" x="159" y="-116.5" font-family="Helvetica,sans-Serif" font-size="10.00">vnix::units::impl::</text>
<text text-anchor="middle" x="217" y="-105.5" font-family="Helvetica,sans-Serif" font-size="10.00">femtometers::femtometers</text>
</a>
</g>
</g>
<!-- Node1&#45;&gt;Node8 -->
<g id="edge7" class="edge"><title>Node1&#45;&gt;Node8</title>
<path fill="none" stroke="midnightblue" d="M76.3971,-194.667C94.2144,-178.591 122.89,-154.507 151,-138.5 157.409,-134.85 164.454,-131.521 171.469,-128.566"/>
<polygon fill="midnightblue" stroke="midnightblue" points="73.5755,-192.506 68.5726,-201.845 78.3076,-197.664 73.5755,-192.506"/>
</g>
<!-- Node9 -->
<g id="node9" class="node"><title>Node9</title>
<g id="a_node9"><a xlink:href="structvnix_1_1units_1_1impl_1_1kilometers.html#ab7beeabb3540e553a4dc2ddecae2c6b8" target="_top" xlink:title="Initialize from number of kilometers. ">
<polygon fill="white" stroke="black" points="160.5,-49.5 160.5,-79.5 273.5,-79.5 273.5,-49.5 160.5,-49.5"/>
<text text-anchor="start" x="168.5" y="-67.5" font-family="Helvetica,sans-Serif" font-size="10.00">vnix::units::impl::</text>
<text text-anchor="middle" x="217" y="-56.5" font-family="Helvetica,sans-Serif" font-size="10.00">kilometers::kilometers</text>
</a>
</g>
</g>
<!-- Node1&#45;&gt;Node9 -->
<g id="edge8" class="edge"><title>Node1&#45;&gt;Node9</title>
<path fill="none" stroke="midnightblue" d="M68.2205,-192.839C82.8588,-166.408 112.944,-118.109 151,-89.5 156.025,-85.7221 161.691,-82.4475 167.53,-79.6275"/>
<polygon fill="midnightblue" stroke="midnightblue" points="65.0479,-191.349 63.3821,-201.812 71.2092,-194.671 65.0479,-191.349"/>
</g>
<!-- Node10 -->
<g id="node10" class="node"><title>Node10</title>
<g id="a_node10"><a xlink:href="structvnix_1_1units_1_1impl_1_1megameters.html#adcb9df185b86ca1a5b556fd10add674f" target="_top" xlink:title="Initialize from number of megameters. ">
<polygon fill="white" stroke="black" points="151.5,-0.5 151.5,-30.5 282.5,-30.5 282.5,-0.5 151.5,-0.5"/>
<text text-anchor="start" x="159.5" y="-18.5" font-family="Helvetica,sans-Serif" font-size="10.00">vnix::units::impl::</text>
<text text-anchor="middle" x="217" y="-7.5" font-family="Helvetica,sans-Serif" font-size="10.00">megameters::megameters</text>
</a>
</g>
</g>
<!-- Node1&#45;&gt;Node10 -->
<g id="edge9" class="edge"><title>Node1&#45;&gt;Node10</title>
<path fill="none" stroke="midnightblue" d="M64.101,-191.924C75.0955,-156.83 102.731,-82.9252 151,-40.5 155.359,-36.6687 160.369,-33.3952 165.632,-30.605"/>
<polygon fill="midnightblue" stroke="midnightblue" points="60.6397,-191.28 61.1111,-201.865 67.343,-193.297 60.6397,-191.28"/>
</g>
</g>
</svg>
