<?xml version="1.0" encoding="UTF-8" standalone="no"?>
<!DOCTYPE svg PUBLIC "-//W3C//DTD SVG 1.1//EN"
 "http://www.w3.org/Graphics/SVG/1.1/DTD/svg11.dtd">
<!-- Generated by graphviz version 2.38.0 (20140413.2041)
 -->
<!-- Title: vnix::units::nanokelvins Pages: 1 -->
<svg width="309pt" height="116pt"
 viewBox="0.00 0.00 309.00 115.50" xmlns="http://www.w3.org/2000/svg" xmlns:xlink="http://www.w3.org/1999/xlink">
<g id="graph0" class="graph" transform="scale(1 1) rotate(0) translate(4 111.5)">
<title>vnix::units::nanokelvins</title>
<polygon fill="white" stroke="none" points="-4,4 -4,-111.5 305,-111.5 305,4 -4,4"/>
<!-- Node1 -->
<g id="node1" class="node"><title>Node1</title>
<polygon fill="#bfbfbf" stroke="black" points="0,-50 0,-69 119,-69 119,-50 0,-50"/>
<text text-anchor="middle" x="59.5" y="-57" font-family="Helvetica,sans-Serif" font-size="10.00">vnix::units::nanokelvins</text>
</g>
<!-- Node2 -->
<g id="node2" class="node"><title>Node2</title>
<g id="a_node2"><a xlink:href="namespacevnix_1_1units_1_1flt.html#a2c09d5654a3c108d4b235b287b68bfe2" target="_top" xlink:title="Interpret a number, suffixed with &#39;_nK&#39;, as a (literal) number of nanokelvins. ">
<polygon fill="white" stroke="black" points="157,-88 157,-107 299,-107 299,-88 157,-88"/>
<text text-anchor="middle" x="228" y="-95" font-family="Helvetica,sans-Serif" font-size="10.00">vnix::units::flt::operator&quot;&quot;_nK</text>
</a>
</g>
</g>
<!-- Node1&#45;&gt;Node2 -->
<g id="edge1" class="edge"><title>Node1&#45;&gt;Node2</title>
<path fill="none" stroke="midnightblue" d="M112.309,-71.3243C135.783,-76.6816 163.165,-82.9311 185.287,-87.9799"/>
<polygon fill="midnightblue" stroke="midnightblue" points="113.043,-67.9019 102.515,-69.089 111.485,-74.7264 113.043,-67.9019"/>
</g>
<!-- Node3 -->
<g id="node3" class="node"><title>Node3</title>
<g id="a_node3"><a xlink:href="namespacevnix_1_1units_1_1dbl.html#a2d696dda303ecfd6d7c5ce07d2e0fcef" target="_top" xlink:title="Interpret a number, suffixed with &#39;_nK&#39;, as a (literal) number of nanokelvins. ">
<polygon fill="white" stroke="black" points="155,-50 155,-69 301,-69 301,-50 155,-50"/>
<text text-anchor="middle" x="228" y="-57" font-family="Helvetica,sans-Serif" font-size="10.00">vnix::units::dbl::operator&quot;&quot;_nK</text>
</a>
</g>
</g>
<!-- Node1&#45;&gt;Node3 -->
<g id="edge2" class="edge"><title>Node1&#45;&gt;Node3</title>
<path fill="none" stroke="midnightblue" d="M129.337,-59.5C137.748,-59.5 146.361,-59.5 154.819,-59.5"/>
<polygon fill="midnightblue" stroke="midnightblue" points="129.202,-56.0001 119.202,-59.5 129.202,-63.0001 129.202,-56.0001"/>
</g>
<!-- Node4 -->
<g id="node4" class="node"><title>Node4</title>
<g id="a_node4"><a xlink:href="namespacevnix_1_1units_1_1ldbl.html#a425be63fa82bbb8bdabb92d836588f20" target="_top" xlink:title="Interpret a number, suffixed with &#39;_nK&#39;, as a (literal) number of nanokelvins. ">
<polygon fill="white" stroke="black" points="183.5,-0.5 183.5,-30.5 272.5,-30.5 272.5,-0.5 183.5,-0.5"/>
<text text-anchor="start" x="191.5" y="-18.5" font-family="Helvetica,sans-Serif" font-size="10.00">vnix::units::ldbl::</text>
<text text-anchor="middle" x="228" y="-7.5" font-family="Helvetica,sans-Serif" font-size="10.00">operator&quot;&quot;_nK</text>
</a>
</g>
</g>
<!-- Node1&#45;&gt;Node4 -->
<g id="edge3" class="edge"><title>Node1&#45;&gt;Node4</title>
<path fill="none" stroke="midnightblue" d="M106.548,-47.3313C130.505,-41.0001 159.638,-33.3015 183.251,-27.0614"/>
<polygon fill="midnightblue" stroke="midnightblue" points="105.402,-44.0138 96.628,-49.9527 107.19,-50.7815 105.402,-44.0138"/>
</g>
</g>
</svg>
