<?xml version="1.0" encoding="UTF-8" standalone="no"?>
<!DOCTYPE svg PUBLIC "-//W3C//DTD SVG 1.1//EN"
 "http://www.w3.org/Graphics/SVG/1.1/DTD/svg11.dtd">
<!-- Generated by graphviz version 2.38.0 (20140413.2041)
 -->
<!-- Title: vnix::units::meters Pages: 1 -->
<svg width="285pt" height="116pt"
 viewBox="0.00 0.00 285.00 115.50" xmlns="http://www.w3.org/2000/svg" xmlns:xlink="http://www.w3.org/1999/xlink">
<g id="graph0" class="graph" transform="scale(1 1) rotate(0) translate(4 111.5)">
<title>vnix::units::meters</title>
<polygon fill="white" stroke="none" points="-4,4 -4,-111.5 281,-111.5 281,4 -4,4"/>
<!-- Node1 -->
<g id="node1" class="node"><title>Node1</title>
<polygon fill="#bfbfbf" stroke="black" points="0,-50 0,-69 98,-69 98,-50 0,-50"/>
<text text-anchor="middle" x="49" y="-57" font-family="Helvetica,sans-Serif" font-size="10.00">vnix::units::meters</text>
</g>
<!-- Node2 -->
<g id="node2" class="node"><title>Node2</title>
<g id="a_node2"><a xlink:href="namespacevnix_1_1units_1_1flt.html#a36afb115c9fc6dfba761a1bec212e5be" target="_top" xlink:title="Interpret a number, suffixed with &#39;_m&#39;, as a (literal) number of meters. ">
<polygon fill="white" stroke="black" points="136.5,-88 136.5,-107 274.5,-107 274.5,-88 136.5,-88"/>
<text text-anchor="middle" x="205.5" y="-95" font-family="Helvetica,sans-Serif" font-size="10.00">vnix::units::flt::operator&quot;&quot;_m</text>
</a>
</g>
</g>
<!-- Node1&#45;&gt;Node2 -->
<g id="edge1" class="edge"><title>Node1&#45;&gt;Node2</title>
<path fill="none" stroke="midnightblue" d="M98.9521,-71.54C120.536,-76.8488 145.541,-82.9988 165.793,-87.9799"/>
<polygon fill="midnightblue" stroke="midnightblue" points="99.5334,-68.0787 88.9869,-69.089 97.8615,-74.8762 99.5334,-68.0787"/>
</g>
<!-- Node3 -->
<g id="node3" class="node"><title>Node3</title>
<g id="a_node3"><a xlink:href="namespacevnix_1_1units_1_1dbl.html#ab7892feff15471a1a0f89a4516c0deb4" target="_top" xlink:title="Interpret a number, suffixed with &#39;_m&#39;, as a (literal) number of meters. ">
<polygon fill="white" stroke="black" points="134,-50 134,-69 277,-69 277,-50 134,-50"/>
<text text-anchor="middle" x="205.5" y="-57" font-family="Helvetica,sans-Serif" font-size="10.00">vnix::units::dbl::operator&quot;&quot;_m</text>
</a>
</g>
</g>
<!-- Node1&#45;&gt;Node3 -->
<g id="edge2" class="edge"><title>Node1&#45;&gt;Node3</title>
<path fill="none" stroke="midnightblue" d="M108.088,-59.5C116.483,-59.5 125.199,-59.5 133.806,-59.5"/>
<polygon fill="midnightblue" stroke="midnightblue" points="108.038,-56.0001 98.0379,-59.5 108.038,-63.0001 108.038,-56.0001"/>
</g>
<!-- Node4 -->
<g id="node4" class="node"><title>Node4</title>
<g id="a_node4"><a xlink:href="namespacevnix_1_1units_1_1ldbl.html#a469deb76e943a275627094fd9c0a513a" target="_top" xlink:title="Interpret a number, suffixed with &#39;_m&#39;, as a (literal) number of meters. ">
<polygon fill="white" stroke="black" points="161,-0.5 161,-30.5 250,-30.5 250,-0.5 161,-0.5"/>
<text text-anchor="start" x="169" y="-18.5" font-family="Helvetica,sans-Serif" font-size="10.00">vnix::units::ldbl::</text>
<text text-anchor="middle" x="205.5" y="-7.5" font-family="Helvetica,sans-Serif" font-size="10.00">operator&quot;&quot;_m</text>
</a>
</g>
</g>
<!-- Node1&#45;&gt;Node4 -->
<g id="edge3" class="edge"><title>Node1&#45;&gt;Node4</title>
<path fill="none" stroke="midnightblue" d="M93.1918,-47.1994C114.28,-41.1936 139.603,-33.982 160.764,-27.9556"/>
<polygon fill="midnightblue" stroke="midnightblue" points="92.1831,-43.8474 83.5242,-49.9527 94.1005,-50.5798 92.1831,-43.8474"/>
</g>
</g>
</svg>
