<?xml version="1.0" encoding="UTF-8" standalone="no"?>
<!DOCTYPE svg PUBLIC "-//W3C//DTD SVG 1.1//EN"
 "http://www.w3.org/Graphics/SVG/1.1/DTD/svg11.dtd">
<!-- Generated by graphviz version 2.38.0 (20140413.2041)
 -->
<!-- Title: vnix::rat::operator!= Pages: 1 -->
<svg width="260pt" height="88pt"
 viewBox="0.00 0.00 260.00 88.00" xmlns="http://www.w3.org/2000/svg" xmlns:xlink="http://www.w3.org/1999/xlink">
<g id="graph0" class="graph" transform="scale(1 1) rotate(0) translate(4 84)">
<title>vnix::rat::operator!=</title>
<polygon fill="white" stroke="none" points="-4,4 -4,-84 256,-84 256,4 -4,4"/>
<!-- Node1 -->
<g id="node1" class="node"><title>Node1</title>
<polygon fill="#bfbfbf" stroke="black" points="0,-24.5 0,-43.5 102,-43.5 102,-24.5 0,-24.5"/>
<text text-anchor="middle" x="51" y="-31.5" font-family="Helvetica,sans-Serif" font-size="10.00">vnix::rat::operator!=</text>
</g>
<!-- Node2 -->
<g id="node2" class="node"><title>Node2</title>
<g id="a_node2"><a xlink:href="classvnix_1_1units_1_1basic__dim.html#a747876034fa13586aebe43b780d8b933" target="_top" xlink:title="Print to output stream the symbolic contribution from a given unit. ">
<polygon fill="white" stroke="black" points="138,-38.5 138,-79.5 252,-79.5 252,-38.5 138,-38.5"/>
<text text-anchor="start" x="146" y="-67.5" font-family="Helvetica,sans-Serif" font-size="10.00">vnix::units::basic</text>
<text text-anchor="start" x="146" y="-56.5" font-family="Helvetica,sans-Serif" font-size="10.00">_dim&lt; dim_base_off &gt;</text>
<text text-anchor="middle" x="195" y="-45.5" font-family="Helvetica,sans-Serif" font-size="10.00">::print_unit</text>
</a>
</g>
</g>
<!-- Node1&#45;&gt;Node2 -->
<g id="edge1" class="edge"><title>Node1&#45;&gt;Node2</title>
<path fill="none" stroke="midnightblue" d="M111.926,-44.5504C120.438,-46.049 129.168,-47.586 137.61,-49.0722"/>
<polygon fill="midnightblue" stroke="midnightblue" points="112.519,-41.1011 102.064,-42.8141 111.306,-47.995 112.519,-41.1011"/>
</g>
<!-- Node3 -->
<g id="node3" class="node"><title>Node3</title>
<g id="a_node3"><a xlink:href="rational-test_8cpp.html#a76a998f01a3b8cd6a0170ee1c6e362d6" target="_top" xlink:title="TEST_CASE">
<polygon fill="white" stroke="black" points="157.5,-0.5 157.5,-19.5 232.5,-19.5 232.5,-0.5 157.5,-0.5"/>
<text text-anchor="middle" x="195" y="-7.5" font-family="Helvetica,sans-Serif" font-size="10.00">TEST_CASE</text>
</a>
</g>
</g>
<!-- Node1&#45;&gt;Node3 -->
<g id="edge2" class="edge"><title>Node1&#45;&gt;Node3</title>
<path fill="none" stroke="midnightblue" d="M112.042,-23.8521C127.427,-21.2517 143.517,-18.5324 157.325,-16.1986"/>
<polygon fill="midnightblue" stroke="midnightblue" points="111.341,-20.4209 102.064,-25.5385 112.507,-27.323 111.341,-20.4209"/>
</g>
</g>
</svg>
