<?xml version="1.0" encoding="UTF-8" standalone="no"?>
<!DOCTYPE svg PUBLIC "-//W3C//DTD SVG 1.1//EN"
 "http://www.w3.org/Graphics/SVG/1.1/DTD/svg11.dtd">
<!-- Generated by graphviz version 2.38.0 (20140413.2041)
 -->
<!-- Title: vnix::units::picoseconds Pages: 1 -->
<svg width="311pt" height="116pt"
 viewBox="0.00 0.00 311.00 115.50" xmlns="http://www.w3.org/2000/svg" xmlns:xlink="http://www.w3.org/1999/xlink">
<g id="graph0" class="graph" transform="scale(1 1) rotate(0) translate(4 111.5)">
<title>vnix::units::picoseconds</title>
<polygon fill="white" stroke="none" points="-4,4 -4,-111.5 307,-111.5 307,4 -4,4"/>
<!-- Node1 -->
<g id="node1" class="node"><title>Node1</title>
<polygon fill="#bfbfbf" stroke="black" points="0,-50 0,-69 122,-69 122,-50 0,-50"/>
<text text-anchor="middle" x="61" y="-57" font-family="Helvetica,sans-Serif" font-size="10.00">vnix::units::picoseconds</text>
</g>
<!-- Node2 -->
<g id="node2" class="node"><title>Node2</title>
<g id="a_node2"><a xlink:href="namespacevnix_1_1units_1_1flt.html#abc6198fbcb2fc5c5db55e06926a39c00" target="_top" xlink:title="Interpret a number, suffixed with &#39;_ps&#39;, as a (literal) number of picoseconds. ">
<polygon fill="white" stroke="black" points="160.5,-88 160.5,-107 300.5,-107 300.5,-88 160.5,-88"/>
<text text-anchor="middle" x="230.5" y="-95" font-family="Helvetica,sans-Serif" font-size="10.00">vnix::units::flt::operator&quot;&quot;_ps</text>
</a>
</g>
</g>
<!-- Node1&#45;&gt;Node2 -->
<g id="edge1" class="edge"><title>Node1&#45;&gt;Node2</title>
<path fill="none" stroke="midnightblue" d="M114.12,-71.3243C137.735,-76.6816 165.282,-82.9311 187.537,-87.9799"/>
<polygon fill="midnightblue" stroke="midnightblue" points="114.794,-67.8883 104.267,-69.089 113.245,-74.7148 114.794,-67.8883"/>
</g>
<!-- Node3 -->
<g id="node3" class="node"><title>Node3</title>
<g id="a_node3"><a xlink:href="namespacevnix_1_1units_1_1dbl.html#a352c5baf4b8924f5395886137a80ffc4" target="_top" xlink:title="Interpret a number, suffixed with &#39;_ps&#39;, as a (literal) number of picoseconds. ">
<polygon fill="white" stroke="black" points="158,-50 158,-69 303,-69 303,-50 158,-50"/>
<text text-anchor="middle" x="230.5" y="-57" font-family="Helvetica,sans-Serif" font-size="10.00">vnix::units::dbl::operator&quot;&quot;_ps</text>
</a>
</g>
</g>
<!-- Node1&#45;&gt;Node3 -->
<g id="edge2" class="edge"><title>Node1&#45;&gt;Node3</title>
<path fill="none" stroke="midnightblue" d="M132.603,-59.5C141.002,-59.5 149.583,-59.5 157.994,-59.5"/>
<polygon fill="midnightblue" stroke="midnightblue" points="132.471,-56.0001 122.471,-59.5 132.471,-63.0001 132.471,-56.0001"/>
</g>
<!-- Node4 -->
<g id="node4" class="node"><title>Node4</title>
<g id="a_node4"><a xlink:href="namespacevnix_1_1units_1_1ldbl.html#a1f4bccbd6f2b4b61128bbba0f7ea7307" target="_top" xlink:title="Interpret a number, suffixed with &#39;_ps&#39;, as a (literal) number of picoseconds. ">
<polygon fill="white" stroke="black" points="186,-0.5 186,-30.5 275,-30.5 275,-0.5 186,-0.5"/>
<text text-anchor="start" x="194" y="-18.5" font-family="Helvetica,sans-Serif" font-size="10.00">vnix::units::ldbl::</text>
<text text-anchor="middle" x="230.5" y="-7.5" font-family="Helvetica,sans-Serif" font-size="10.00">operator&quot;&quot;_ps</text>
</a>
</g>
</g>
<!-- Node1&#45;&gt;Node4 -->
<g id="edge3" class="edge"><title>Node1&#45;&gt;Node4</title>
<path fill="none" stroke="midnightblue" d="M108.039,-47.4061C132.298,-41.0337 161.891,-33.2599 185.794,-26.981"/>
<polygon fill="midnightblue" stroke="midnightblue" points="107.128,-44.0268 98.345,-49.9527 108.906,-50.7971 107.128,-44.0268"/>
</g>
</g>
</svg>
