<?xml version="1.0" encoding="UTF-8" standalone="no"?>
<!DOCTYPE svg PUBLIC "-//W3C//DTD SVG 1.1//EN"
 "http://www.w3.org/Graphics/SVG/1.1/DTD/svg11.dtd">
<!-- Generated by graphviz version 2.38.0 (20140413.2041)
 -->
<!-- Title: vnix::units::millicoulombs Pages: 1 -->
<svg width="321pt" height="116pt"
 viewBox="0.00 0.00 321.00 115.50" xmlns="http://www.w3.org/2000/svg" xmlns:xlink="http://www.w3.org/1999/xlink">
<g id="graph0" class="graph" transform="scale(1 1) rotate(0) translate(4 111.5)">
<title>vnix::units::millicoulombs</title>
<polygon fill="white" stroke="none" points="-4,4 -4,-111.5 317,-111.5 317,4 -4,4"/>
<!-- Node1 -->
<g id="node1" class="node"><title>Node1</title>
<polygon fill="#bfbfbf" stroke="black" points="0,-50 0,-69 127,-69 127,-50 0,-50"/>
<text text-anchor="middle" x="63.5" y="-57" font-family="Helvetica,sans-Serif" font-size="10.00">vnix::units::millicoulombs</text>
</g>
<!-- Node2 -->
<g id="node2" class="node"><title>Node2</title>
<g id="a_node2"><a xlink:href="namespacevnix_1_1units_1_1flt.html#ae6bfec61777c142e951863ec0d974974" target="_top" xlink:title="Interpret a number, suffixed with &#39;_mC&#39;, as a (literal) number of millicoulombs. ">
<polygon fill="white" stroke="black" points="165,-88 165,-107 311,-107 311,-88 165,-88"/>
<text text-anchor="middle" x="238" y="-95" font-family="Helvetica,sans-Serif" font-size="10.00">vnix::units::flt::operator&quot;&quot;_mC</text>
</a>
</g>
</g>
<!-- Node1&#45;&gt;Node2 -->
<g id="edge1" class="edge"><title>Node1&#45;&gt;Node2</title>
<path fill="none" stroke="midnightblue" d="M117.851,-71.2526C142.242,-76.6258 170.763,-82.9086 193.784,-87.9799"/>
<polygon fill="midnightblue" stroke="midnightblue" points="118.548,-67.8224 108.029,-69.089 117.042,-74.6584 118.548,-67.8224"/>
</g>
<!-- Node3 -->
<g id="node3" class="node"><title>Node3</title>
<g id="a_node3"><a xlink:href="namespacevnix_1_1units_1_1dbl.html#a1d3d96b56a840be2777ebf1ab8b6461a" target="_top" xlink:title="Interpret a number, suffixed with &#39;_mC&#39;, as a (literal) number of millicoulombs. ">
<polygon fill="white" stroke="black" points="163,-50 163,-69 313,-69 313,-50 163,-50"/>
<text text-anchor="middle" x="238" y="-57" font-family="Helvetica,sans-Serif" font-size="10.00">vnix::units::dbl::operator&quot;&quot;_mC</text>
</a>
</g>
</g>
<!-- Node1&#45;&gt;Node3 -->
<g id="edge2" class="edge"><title>Node1&#45;&gt;Node3</title>
<path fill="none" stroke="midnightblue" d="M137.419,-59.5C145.834,-59.5 154.421,-59.5 162.851,-59.5"/>
<polygon fill="midnightblue" stroke="midnightblue" points="137.264,-56.0001 127.264,-59.5 137.264,-63.0001 137.264,-56.0001"/>
</g>
<!-- Node4 -->
<g id="node4" class="node"><title>Node4</title>
<g id="a_node4"><a xlink:href="namespacevnix_1_1units_1_1ldbl.html#a4c0515d3a0b39ed70fd4cf785d3ed92b" target="_top" xlink:title="Interpret a number, suffixed with &#39;_mC&#39;, as a (literal) number of millicoulombs. ">
<polygon fill="white" stroke="black" points="193.5,-0.5 193.5,-30.5 282.5,-30.5 282.5,-0.5 193.5,-0.5"/>
<text text-anchor="start" x="201.5" y="-18.5" font-family="Helvetica,sans-Serif" font-size="10.00">vnix::units::ldbl::</text>
<text text-anchor="middle" x="238" y="-7.5" font-family="Helvetica,sans-Serif" font-size="10.00">operator&quot;&quot;_mC</text>
</a>
</g>
</g>
<!-- Node1&#45;&gt;Node4 -->
<g id="edge3" class="edge"><title>Node1&#45;&gt;Node4</title>
<path fill="none" stroke="midnightblue" d="M111.73,-47.4529C137.172,-40.9633 168.354,-33.0097 193.243,-26.6613"/>
<polygon fill="midnightblue" stroke="midnightblue" points="110.755,-44.0896 101.93,-49.9527 112.485,-50.8724 110.755,-44.0896"/>
</g>
</g>
</svg>
