<?xml version="1.0" encoding="UTF-8" standalone="no"?>
<!DOCTYPE svg PUBLIC "-//W3C//DTD SVG 1.1//EN"
 "http://www.w3.org/Graphics/SVG/1.1/DTD/svg11.dtd">
<!-- Generated by graphviz version 2.38.0 (20140413.2041)
 -->
<!-- Title: vnix::units::temperature_dim Pages: 1 -->
<svg width="316pt" height="186pt"
 viewBox="0.00 0.00 316.00 186.00" xmlns="http://www.w3.org/2000/svg" xmlns:xlink="http://www.w3.org/1999/xlink">
<g id="graph0" class="graph" transform="scale(1 1) rotate(0) translate(4 182)">
<title>vnix::units::temperature_dim</title>
<polygon fill="white" stroke="none" points="-4,4 -4,-182 312,-182 312,4 -4,4"/>
<!-- Node1 -->
<g id="node1" class="node"><title>Node1</title>
<polygon fill="#bfbfbf" stroke="black" points="0,-79 0,-98 140,-98 140,-79 0,-79"/>
<text text-anchor="middle" x="70" y="-86" font-family="Helvetica,sans-Serif" font-size="10.00">vnix::units::temperature_dim</text>
</g>
<!-- Node2 -->
<g id="node2" class="node"><title>Node2</title>
<g id="a_node2"><a xlink:href="structvnix_1_1units_1_1impl_1_1kelvins.html#a45e63ceb3de5835d33268a33d42b0b8a" target="_top" xlink:title="Initialize from number of kelvins. ">
<polygon fill="white" stroke="black" points="196,-147.5 196,-177.5 288,-177.5 288,-147.5 196,-147.5"/>
<text text-anchor="start" x="204" y="-165.5" font-family="Helvetica,sans-Serif" font-size="10.00">vnix::units::impl::</text>
<text text-anchor="middle" x="242" y="-154.5" font-family="Helvetica,sans-Serif" font-size="10.00">kelvins::kelvins</text>
</a>
</g>
</g>
<!-- Node1&#45;&gt;Node2 -->
<g id="edge1" class="edge"><title>Node1&#45;&gt;Node2</title>
<path fill="none" stroke="midnightblue" d="M98.7255,-102.549C119.715,-112.978 149.38,-127.275 176,-138.5 183.205,-141.538 190.941,-144.581 198.475,-147.43"/>
<polygon fill="midnightblue" stroke="midnightblue" points="100.244,-99.3955 89.7341,-98.0552 97.1141,-105.657 100.244,-99.3955"/>
</g>
<!-- Node3 -->
<g id="node3" class="node"><title>Node3</title>
<g id="a_node3"><a xlink:href="structvnix_1_1units_1_1impl_1_1millikelvins.html#a6dcb452a364d37e785b1e51d8a08e51d" target="_top" xlink:title="Initialize from number of millikelvins. ">
<polygon fill="white" stroke="black" points="182.5,-98.5 182.5,-128.5 301.5,-128.5 301.5,-98.5 182.5,-98.5"/>
<text text-anchor="start" x="190.5" y="-116.5" font-family="Helvetica,sans-Serif" font-size="10.00">vnix::units::impl::</text>
<text text-anchor="middle" x="242" y="-105.5" font-family="Helvetica,sans-Serif" font-size="10.00">millikelvins::millikelvins</text>
</a>
</g>
</g>
<!-- Node1&#45;&gt;Node3 -->
<g id="edge2" class="edge"><title>Node1&#45;&gt;Node3</title>
<path fill="none" stroke="midnightblue" d="M145.903,-99.5151C158.089,-101.307 170.556,-103.141 182.283,-104.865"/>
<polygon fill="midnightblue" stroke="midnightblue" points="146.158,-96.015 135.755,-98.0227 145.139,-102.941 146.158,-96.015"/>
</g>
<!-- Node4 -->
<g id="node4" class="node"><title>Node4</title>
<g id="a_node4"><a xlink:href="structvnix_1_1units_1_1impl_1_1microkelvins.html#a6c879c7272aa80421cf5b330f72323c5" target="_top" xlink:title="Initialize from number of microkelvins. ">
<polygon fill="white" stroke="black" points="176,-49.5 176,-79.5 308,-79.5 308,-49.5 176,-49.5"/>
<text text-anchor="start" x="184" y="-67.5" font-family="Helvetica,sans-Serif" font-size="10.00">vnix::units::impl::</text>
<text text-anchor="middle" x="242" y="-56.5" font-family="Helvetica,sans-Serif" font-size="10.00">microkelvins::microkelvins</text>
</a>
</g>
</g>
<!-- Node1&#45;&gt;Node4 -->
<g id="edge3" class="edge"><title>Node1&#45;&gt;Node4</title>
<path fill="none" stroke="midnightblue" d="M148.793,-77.5174C157.814,-76.244 166.943,-74.9551 175.771,-73.7088"/>
<polygon fill="midnightblue" stroke="midnightblue" points="148.089,-74.082 138.677,-78.9456 149.068,-81.0133 148.089,-74.082"/>
</g>
<!-- Node5 -->
<g id="node5" class="node"><title>Node5</title>
<g id="a_node5"><a xlink:href="structvnix_1_1units_1_1impl_1_1nanokelvins.html#a014a3cfb06058b1e7c0dfb1b3e230075" target="_top" xlink:title="Initialize from number of nanokelvins. ">
<polygon fill="white" stroke="black" points="179,-0.5 179,-30.5 305,-30.5 305,-0.5 179,-0.5"/>
<text text-anchor="start" x="187" y="-18.5" font-family="Helvetica,sans-Serif" font-size="10.00">vnix::units::impl::</text>
<text text-anchor="middle" x="242" y="-7.5" font-family="Helvetica,sans-Serif" font-size="10.00">nanokelvins::nanokelvins</text>
</a>
</g>
</g>
<!-- Node1&#45;&gt;Node5 -->
<g id="edge4" class="edge"><title>Node1&#45;&gt;Node5</title>
<path fill="none" stroke="midnightblue" d="M100.272,-74.5325C121.216,-64.6828 150.159,-51.3636 176,-40.5 183.913,-37.1731 192.437,-33.7686 200.624,-30.5855"/>
<polygon fill="midnightblue" stroke="midnightblue" points="98.5139,-71.4919 90.9667,-78.9276 101.504,-77.8213 98.5139,-71.4919"/>
</g>
</g>
</svg>
