<?xml version="1.0" encoding="UTF-8" standalone="no"?>
<!DOCTYPE svg PUBLIC "-//W3C//DTD SVG 1.1//EN"
 "http://www.w3.org/Graphics/SVG/1.1/DTD/svg11.dtd">
<!-- Generated by graphviz version 2.38.0 (20140413.2041)
 -->
<!-- Title: vnix::units::microcoulombs Pages: 1 -->
<svg width="333pt" height="116pt"
 viewBox="0.00 0.00 333.00 115.50" xmlns="http://www.w3.org/2000/svg" xmlns:xlink="http://www.w3.org/1999/xlink">
<g id="graph0" class="graph" transform="scale(1 1) rotate(0) translate(4 111.5)">
<title>vnix::units::microcoulombs</title>
<polygon fill="white" stroke="none" points="-4,4 -4,-111.5 329,-111.5 329,4 -4,4"/>
<!-- Node1 -->
<g id="node1" class="node"><title>Node1</title>
<polygon fill="#bfbfbf" stroke="black" points="0,-50 0,-69 134,-69 134,-50 0,-50"/>
<text text-anchor="middle" x="67" y="-57" font-family="Helvetica,sans-Serif" font-size="10.00">vnix::units::microcoulombs</text>
</g>
<!-- Node2 -->
<g id="node2" class="node"><title>Node2</title>
<g id="a_node2"><a xlink:href="namespacevnix_1_1units_1_1flt.html#ae907cf1eac92ea75adceb83e0f606a2d" target="_top" xlink:title="Interpret a number, suffixed with &#39;_muC&#39;, as a (literal) number of microcoulombs. ...">
<polygon fill="white" stroke="black" points="172,-88 172,-107 323,-107 323,-88 172,-88"/>
<text text-anchor="middle" x="247.5" y="-95" font-family="Helvetica,sans-Serif" font-size="10.00">vnix::units::flt::operator&quot;&quot;_muC</text>
</a>
</g>
</g>
<!-- Node1&#45;&gt;Node2 -->
<g id="edge1" class="edge"><title>Node1&#45;&gt;Node2</title>
<path fill="none" stroke="midnightblue" d="M122.87,-71.181C148.184,-76.5699 177.853,-82.8861 201.781,-87.9799"/>
<polygon fill="midnightblue" stroke="midnightblue" points="123.553,-67.748 113.043,-69.089 122.095,-74.5946 123.553,-67.748"/>
</g>
<!-- Node3 -->
<g id="node3" class="node"><title>Node3</title>
<g id="a_node3"><a xlink:href="namespacevnix_1_1units_1_1dbl.html#aa6e0a27397c9b081f56969c177ba193e" target="_top" xlink:title="Interpret a number, suffixed with &#39;_muC&#39;, as a (literal) number of microcoulombs. ...">
<polygon fill="white" stroke="black" points="170,-50 170,-69 325,-69 325,-50 170,-50"/>
<text text-anchor="middle" x="247.5" y="-57" font-family="Helvetica,sans-Serif" font-size="10.00">vnix::units::dbl::operator&quot;&quot;_muC</text>
</a>
</g>
</g>
<!-- Node1&#45;&gt;Node3 -->
<g id="edge2" class="edge"><title>Node1&#45;&gt;Node3</title>
<path fill="none" stroke="midnightblue" d="M144.399,-59.5C152.83,-59.5 161.417,-59.5 169.852,-59.5"/>
<polygon fill="midnightblue" stroke="midnightblue" points="144.213,-56.0001 134.213,-59.5 144.213,-63.0001 144.213,-56.0001"/>
</g>
<!-- Node4 -->
<g id="node4" class="node"><title>Node4</title>
<g id="a_node4"><a xlink:href="namespacevnix_1_1units_1_1ldbl.html#a942313fccd0f41fc6f6ce3102048664c" target="_top" xlink:title="Interpret a number, suffixed with &#39;_muC&#39;, as a (literal) number of microcoulombs. ...">
<polygon fill="white" stroke="black" points="203,-0.5 203,-30.5 292,-30.5 292,-0.5 203,-0.5"/>
<text text-anchor="start" x="211" y="-18.5" font-family="Helvetica,sans-Serif" font-size="10.00">vnix::units::ldbl::</text>
<text text-anchor="middle" x="247.5" y="-7.5" font-family="Helvetica,sans-Serif" font-size="10.00">operator&quot;&quot;_muC</text>
</a>
</g>
</g>
<!-- Node1&#45;&gt;Node4 -->
<g id="edge3" class="edge"><title>Node1&#45;&gt;Node4</title>
<path fill="none" stroke="midnightblue" d="M116.711,-47.4929C143.617,-40.8605 176.765,-32.6895 202.827,-26.2654"/>
<polygon fill="midnightblue" stroke="midnightblue" points="115.604,-44.161 106.732,-49.9527 117.279,-50.9575 115.604,-44.161"/>
</g>
</g>
</svg>
