<?xml version="1.0" encoding="UTF-8" standalone="no"?>
<!DOCTYPE svg PUBLIC "-//W3C//DTD SVG 1.1//EN"
 "http://www.w3.org/Graphics/SVG/1.1/DTD/svg11.dtd">
<!-- Generated by graphviz version 2.38.0 (20140413.2041)
 -->
<!-- Title: vnix::units::megameters Pages: 1 -->
<svg width="317pt" height="116pt"
 viewBox="0.00 0.00 317.00 115.50" xmlns="http://www.w3.org/2000/svg" xmlns:xlink="http://www.w3.org/1999/xlink">
<g id="graph0" class="graph" transform="scale(1 1) rotate(0) translate(4 111.5)">
<title>vnix::units::megameters</title>
<polygon fill="white" stroke="none" points="-4,4 -4,-111.5 313,-111.5 313,4 -4,4"/>
<!-- Node1 -->
<g id="node1" class="node"><title>Node1</title>
<polygon fill="#bfbfbf" stroke="black" points="0,-50 0,-69 122,-69 122,-50 0,-50"/>
<text text-anchor="middle" x="61" y="-57" font-family="Helvetica,sans-Serif" font-size="10.00">vnix::units::megameters</text>
</g>
<!-- Node2 -->
<g id="node2" class="node"><title>Node2</title>
<g id="a_node2"><a xlink:href="namespacevnix_1_1units_1_1flt.html#a9ecc0321cfad4ed14726c11479b4d8f9" target="_top" xlink:title="Interpret a number, suffixed with &#39;_Mm&#39;, as a (literal) number of megameters. ">
<polygon fill="white" stroke="black" points="160.5,-88 160.5,-107 306.5,-107 306.5,-88 160.5,-88"/>
<text text-anchor="middle" x="233.5" y="-95" font-family="Helvetica,sans-Serif" font-size="10.00">vnix::units::flt::operator&quot;&quot;_Mm</text>
</a>
</g>
</g>
<!-- Node1&#45;&gt;Node2 -->
<g id="edge1" class="edge"><title>Node1&#45;&gt;Node2</title>
<path fill="none" stroke="midnightblue" d="M115.054,-71.3243C139.091,-76.6816 167.132,-82.9311 189.785,-87.9799"/>
<polygon fill="midnightblue" stroke="midnightblue" points="115.546,-67.8483 105.024,-69.089 114.023,-74.6806 115.546,-67.8483"/>
</g>
<!-- Node3 -->
<g id="node3" class="node"><title>Node3</title>
<g id="a_node3"><a xlink:href="namespacevnix_1_1units_1_1dbl.html#aefd47633b2f60643f88248fcb46aee44" target="_top" xlink:title="Interpret a number, suffixed with &#39;_Mm&#39;, as a (literal) number of megameters. ">
<polygon fill="white" stroke="black" points="158,-50 158,-69 309,-69 309,-50 158,-50"/>
<text text-anchor="middle" x="233.5" y="-57" font-family="Helvetica,sans-Serif" font-size="10.00">vnix::units::dbl::operator&quot;&quot;_Mm</text>
</a>
</g>
</g>
<!-- Node1&#45;&gt;Node3 -->
<g id="edge2" class="edge"><title>Node1&#45;&gt;Node3</title>
<path fill="none" stroke="midnightblue" d="M132.32,-59.5C140.79,-59.5 149.463,-59.5 157.99,-59.5"/>
<polygon fill="midnightblue" stroke="midnightblue" points="132.112,-56.0001 122.112,-59.5 132.112,-63.0001 132.112,-56.0001"/>
</g>
<!-- Node4 -->
<g id="node4" class="node"><title>Node4</title>
<g id="a_node4"><a xlink:href="namespacevnix_1_1units_1_1ldbl.html#ab7be5a95aafc055cb1993b73f63858d7" target="_top" xlink:title="Interpret a number, suffixed with &#39;_Mm&#39;, as a (literal) number of megameters. ">
<polygon fill="white" stroke="black" points="189,-0.5 189,-30.5 278,-30.5 278,-0.5 189,-0.5"/>
<text text-anchor="start" x="197" y="-18.5" font-family="Helvetica,sans-Serif" font-size="10.00">vnix::units::ldbl::</text>
<text text-anchor="middle" x="233.5" y="-7.5" font-family="Helvetica,sans-Serif" font-size="10.00">operator&quot;&quot;_Mm</text>
</a>
</g>
</g>
<!-- Node1&#45;&gt;Node4 -->
<g id="edge3" class="edge"><title>Node1&#45;&gt;Node4</title>
<path fill="none" stroke="midnightblue" d="M108.978,-47.3765C133.966,-40.9282 164.489,-33.0512 188.941,-26.741"/>
<polygon fill="midnightblue" stroke="midnightblue" points="107.804,-44.0648 98.996,-49.9527 109.553,-50.8428 107.804,-44.0648"/>
</g>
</g>
</svg>
