<?xml version="1.0" encoding="UTF-8" standalone="no"?>
<!DOCTYPE svg PUBLIC "-//W3C//DTD SVG 1.1//EN"
 "http://www.w3.org/Graphics/SVG/1.1/DTD/svg11.dtd">
<!-- Generated by graphviz version 2.38.0 (20140413.2041)
 -->
<!-- Title: vnix::units::millikelvins Pages: 1 -->
<svg width="309pt" height="116pt"
 viewBox="0.00 0.00 309.00 115.50" xmlns="http://www.w3.org/2000/svg" xmlns:xlink="http://www.w3.org/1999/xlink">
<g id="graph0" class="graph" transform="scale(1 1) rotate(0) translate(4 111.5)">
<title>vnix::units::millikelvins</title>
<polygon fill="white" stroke="none" points="-4,4 -4,-111.5 305,-111.5 305,4 -4,4"/>
<!-- Node1 -->
<g id="node1" class="node"><title>Node1</title>
<polygon fill="#bfbfbf" stroke="black" points="0,-50 0,-69 116,-69 116,-50 0,-50"/>
<text text-anchor="middle" x="58" y="-57" font-family="Helvetica,sans-Serif" font-size="10.00">vnix::units::millikelvins</text>
</g>
<!-- Node2 -->
<g id="node2" class="node"><title>Node2</title>
<g id="a_node2"><a xlink:href="namespacevnix_1_1units_1_1flt.html#a3a2176c77bd3f8a4c67d000d1c1ccba5" target="_top" xlink:title="Interpret a number, suffixed with &#39;_mK&#39;, as a (literal) number of millikelvins. ">
<polygon fill="white" stroke="black" points="154,-88 154,-107 299,-107 299,-88 154,-88"/>
<text text-anchor="middle" x="226.5" y="-95" font-family="Helvetica,sans-Serif" font-size="10.00">vnix::units::flt::operator&quot;&quot;_mK</text>
</a>
</g>
</g>
<!-- Node1&#45;&gt;Node2 -->
<g id="edge1" class="edge"><title>Node1&#45;&gt;Node2</title>
<path fill="none" stroke="midnightblue" d="M110.809,-71.3243C134.283,-76.6816 161.665,-82.9311 183.787,-87.9799"/>
<polygon fill="midnightblue" stroke="midnightblue" points="111.543,-67.9019 101.015,-69.089 109.985,-74.7264 111.543,-67.9019"/>
</g>
<!-- Node3 -->
<g id="node3" class="node"><title>Node3</title>
<g id="a_node3"><a xlink:href="namespacevnix_1_1units_1_1dbl.html#a5c8e1d07ba658462b90370a078909b97" target="_top" xlink:title="Interpret a number, suffixed with &#39;_mK&#39;, as a (literal) number of millikelvins. ">
<polygon fill="white" stroke="black" points="152,-50 152,-69 301,-69 301,-50 152,-50"/>
<text text-anchor="middle" x="226.5" y="-57" font-family="Helvetica,sans-Serif" font-size="10.00">vnix::units::dbl::operator&quot;&quot;_mK</text>
</a>
</g>
</g>
<!-- Node1&#45;&gt;Node3 -->
<g id="edge2" class="edge"><title>Node1&#45;&gt;Node3</title>
<path fill="none" stroke="midnightblue" d="M126.411,-59.5C134.811,-59.5 143.434,-59.5 151.922,-59.5"/>
<polygon fill="midnightblue" stroke="midnightblue" points="126.3,-56.0001 116.3,-59.5 126.3,-63.0001 126.3,-56.0001"/>
</g>
<!-- Node4 -->
<g id="node4" class="node"><title>Node4</title>
<g id="a_node4"><a xlink:href="namespacevnix_1_1units_1_1ldbl.html#a8c99472a8033b03ed0d5a4fce00460ff" target="_top" xlink:title="Interpret a number, suffixed with &#39;_mK&#39;, as a (literal) number of millikelvins. ">
<polygon fill="white" stroke="black" points="182,-0.5 182,-30.5 271,-30.5 271,-0.5 182,-0.5"/>
<text text-anchor="start" x="190" y="-18.5" font-family="Helvetica,sans-Serif" font-size="10.00">vnix::units::ldbl::</text>
<text text-anchor="middle" x="226.5" y="-7.5" font-family="Helvetica,sans-Serif" font-size="10.00">operator&quot;&quot;_mK</text>
</a>
</g>
</g>
<!-- Node1&#45;&gt;Node4 -->
<g id="edge3" class="edge"><title>Node1&#45;&gt;Node4</title>
<path fill="none" stroke="midnightblue" d="M105.048,-47.3313C129.005,-41.0001 158.138,-33.3015 181.751,-27.0614"/>
<polygon fill="midnightblue" stroke="midnightblue" points="103.902,-44.0138 95.128,-49.9527 105.69,-50.7815 103.902,-44.0138"/>
</g>
</g>
</svg>
