<?xml version="1.0" encoding="UTF-8" standalone="no"?>
<!DOCTYPE svg PUBLIC "-//W3C//DTD SVG 1.1//EN"
 "http://www.w3.org/Graphics/SVG/1.1/DTD/svg11.dtd">
<!-- Generated by graphviz version 2.38.0 (20140413.2041)
 -->
<!-- Title: vnix::units::kilograms Pages: 1 -->
<svg width="299pt" height="116pt"
 viewBox="0.00 0.00 299.00 115.50" xmlns="http://www.w3.org/2000/svg" xmlns:xlink="http://www.w3.org/1999/xlink">
<g id="graph0" class="graph" transform="scale(1 1) rotate(0) translate(4 111.5)">
<title>vnix::units::kilograms</title>
<polygon fill="white" stroke="none" points="-4,4 -4,-111.5 295,-111.5 295,4 -4,4"/>
<!-- Node1 -->
<g id="node1" class="node"><title>Node1</title>
<polygon fill="#bfbfbf" stroke="black" points="0,-50 0,-69 110,-69 110,-50 0,-50"/>
<text text-anchor="middle" x="55" y="-57" font-family="Helvetica,sans-Serif" font-size="10.00">vnix::units::kilograms</text>
</g>
<!-- Node2 -->
<g id="node2" class="node"><title>Node2</title>
<g id="a_node2"><a xlink:href="namespacevnix_1_1units_1_1flt.html#a04ef5f42916bfb88fcc66a82182324f8" target="_top" xlink:title="Interpret a number, suffixed with &#39;_kg&#39;, as a (literal) number of kilograms. ">
<polygon fill="white" stroke="black" points="148.5,-88 148.5,-107 288.5,-107 288.5,-88 148.5,-88"/>
<text text-anchor="middle" x="218.5" y="-95" font-family="Helvetica,sans-Serif" font-size="10.00">vnix::units::flt::operator&quot;&quot;_kg</text>
</a>
</g>
</g>
<!-- Node1&#45;&gt;Node2 -->
<g id="edge1" class="edge"><title>Node1&#45;&gt;Node2</title>
<path fill="none" stroke="midnightblue" d="M106.558,-71.3961C129.259,-76.7374 155.678,-82.9537 177.04,-87.9799"/>
<polygon fill="midnightblue" stroke="midnightblue" points="107.289,-67.9725 96.7533,-69.089 105.686,-74.7864 107.289,-67.9725"/>
</g>
<!-- Node3 -->
<g id="node3" class="node"><title>Node3</title>
<g id="a_node3"><a xlink:href="namespacevnix_1_1units_1_1dbl.html#aa1f40a8b252b4356aa03abaae471bd33" target="_top" xlink:title="Interpret a number, suffixed with &#39;_kg&#39;, as a (literal) number of kilograms. ">
<polygon fill="white" stroke="black" points="146,-50 146,-69 291,-69 291,-50 146,-50"/>
<text text-anchor="middle" x="218.5" y="-57" font-family="Helvetica,sans-Serif" font-size="10.00">vnix::units::dbl::operator&quot;&quot;_kg</text>
</a>
</g>
</g>
<!-- Node1&#45;&gt;Node3 -->
<g id="edge2" class="edge"><title>Node1&#45;&gt;Node3</title>
<path fill="none" stroke="midnightblue" d="M120.334,-59.5C128.743,-59.5 137.4,-59.5 145.919,-59.5"/>
<polygon fill="midnightblue" stroke="midnightblue" points="120.226,-56.0001 110.226,-59.5 120.226,-63.0001 120.226,-56.0001"/>
</g>
<!-- Node4 -->
<g id="node4" class="node"><title>Node4</title>
<g id="a_node4"><a xlink:href="namespacevnix_1_1units_1_1ldbl.html#a392e45e82b92ee41a9a30debadf62219" target="_top" xlink:title="Interpret a number, suffixed with &#39;_kg&#39;, as a (literal) number of kilograms. ">
<polygon fill="white" stroke="black" points="174,-0.5 174,-30.5 263,-30.5 263,-0.5 174,-0.5"/>
<text text-anchor="start" x="182" y="-18.5" font-family="Helvetica,sans-Serif" font-size="10.00">vnix::units::ldbl::</text>
<text text-anchor="middle" x="218.5" y="-7.5" font-family="Helvetica,sans-Serif" font-size="10.00">operator&quot;&quot;_kg</text>
</a>
</g>
</g>
<!-- Node1&#45;&gt;Node4 -->
<g id="edge3" class="edge"><title>Node1&#45;&gt;Node4</title>
<path fill="none" stroke="midnightblue" d="M100.822,-47.2885C123.63,-41.0744 151.243,-33.5516 173.879,-27.3844"/>
<polygon fill="midnightblue" stroke="midnightblue" points="99.7714,-43.947 91.0431,-49.9527 101.611,-50.7009 99.7714,-43.947"/>
</g>
</g>
</svg>
