<?xml version="1.0" encoding="UTF-8" standalone="no"?>
<!DOCTYPE svg PUBLIC "-//W3C//DTD SVG 1.1//EN"
 "http://www.w3.org/Graphics/SVG/1.1/DTD/svg11.dtd">
<!-- Generated by graphviz version 2.38.0 (20140413.2041)
 -->
<!-- Title: vnix::units::femtoseconds Pages: 1 -->
<svg width="316pt" height="116pt"
 viewBox="0.00 0.00 316.00 115.50" xmlns="http://www.w3.org/2000/svg" xmlns:xlink="http://www.w3.org/1999/xlink">
<g id="graph0" class="graph" transform="scale(1 1) rotate(0) translate(4 111.5)">
<title>vnix::units::femtoseconds</title>
<polygon fill="white" stroke="none" points="-4,4 -4,-111.5 312,-111.5 312,4 -4,4"/>
<!-- Node1 -->
<g id="node1" class="node"><title>Node1</title>
<polygon fill="#bfbfbf" stroke="black" points="0,-50 0,-69 129,-69 129,-50 0,-50"/>
<text text-anchor="middle" x="64.5" y="-57" font-family="Helvetica,sans-Serif" font-size="10.00">vnix::units::femtoseconds</text>
</g>
<!-- Node2 -->
<g id="node2" class="node"><title>Node2</title>
<g id="a_node2"><a xlink:href="namespacevnix_1_1units_1_1flt.html#a789209764933722d3354cfbb8d7d23fd" target="_top" xlink:title="Interpret a number, suffixed with &#39;_fs&#39;, as a (literal) number of femtoseconds. ">
<polygon fill="white" stroke="black" points="167.5,-88 167.5,-107 305.5,-107 305.5,-88 167.5,-88"/>
<text text-anchor="middle" x="236.5" y="-95" font-family="Helvetica,sans-Serif" font-size="10.00">vnix::units::flt::operator&quot;&quot;_fs</text>
</a>
</g>
</g>
<!-- Node1&#45;&gt;Node2 -->
<g id="edge1" class="edge"><title>Node1&#45;&gt;Node2</title>
<path fill="none" stroke="midnightblue" d="M118.398,-71.3243C142.365,-76.6816 170.324,-82.9311 192.91,-87.9799"/>
<polygon fill="midnightblue" stroke="midnightblue" points="118.921,-67.8548 108.398,-69.089 117.394,-74.6862 118.921,-67.8548"/>
</g>
<!-- Node3 -->
<g id="node3" class="node"><title>Node3</title>
<g id="a_node3"><a xlink:href="namespacevnix_1_1units_1_1dbl.html#ab5e37747bdb7c623c1ea21acc9dbd794" target="_top" xlink:title="Interpret a number, suffixed with &#39;_fs&#39;, as a (literal) number of femtoseconds. ">
<polygon fill="white" stroke="black" points="165,-50 165,-69 308,-69 308,-50 165,-50"/>
<text text-anchor="middle" x="236.5" y="-57" font-family="Helvetica,sans-Serif" font-size="10.00">vnix::units::dbl::operator&quot;&quot;_fs</text>
</a>
</g>
</g>
<!-- Node1&#45;&gt;Node3 -->
<g id="edge2" class="edge"><title>Node1&#45;&gt;Node3</title>
<path fill="none" stroke="midnightblue" d="M139.453,-59.5C147.867,-59.5 156.428,-59.5 164.798,-59.5"/>
<polygon fill="midnightblue" stroke="midnightblue" points="139.285,-56.0001 129.285,-59.5 139.285,-63.0001 139.285,-56.0001"/>
</g>
<!-- Node4 -->
<g id="node4" class="node"><title>Node4</title>
<g id="a_node4"><a xlink:href="namespacevnix_1_1units_1_1ldbl.html#a11c638e8c0ca567eb9f7ea4069d018c8" target="_top" xlink:title="Interpret a number, suffixed with &#39;_fs&#39;, as a (literal) number of femtoseconds. ">
<polygon fill="white" stroke="black" points="192,-0.5 192,-30.5 281,-30.5 281,-0.5 192,-0.5"/>
<text text-anchor="start" x="200" y="-18.5" font-family="Helvetica,sans-Serif" font-size="10.00">vnix::units::ldbl::</text>
<text text-anchor="middle" x="236.5" y="-7.5" font-family="Helvetica,sans-Serif" font-size="10.00">operator&quot;&quot;_fs</text>
</a>
</g>
</g>
<!-- Node1&#45;&gt;Node4 -->
<g id="edge3" class="edge"><title>Node1&#45;&gt;Node4</title>
<path fill="none" stroke="midnightblue" d="M112.303,-47.3864C137.119,-40.9634 167.42,-33.1208 191.76,-26.8208"/>
<polygon fill="midnightblue" stroke="midnightblue" points="111.191,-44.0586 102.387,-49.9527 112.945,-50.8353 111.191,-44.0586"/>
</g>
</g>
</svg>
