<?xml version="1.0" encoding="UTF-8" standalone="no"?>
<!DOCTYPE svg PUBLIC "-//W3C//DTD SVG 1.1//EN"
 "http://www.w3.org/Graphics/SVG/1.1/DTD/svg11.dtd">
<!-- Generated by graphviz version 2.38.0 (20140413.2041)
 -->
<!-- Title: vnix::units::picograms Pages: 1 -->
<svg width="302pt" height="116pt"
 viewBox="0.00 0.00 302.00 115.50" xmlns="http://www.w3.org/2000/svg" xmlns:xlink="http://www.w3.org/1999/xlink">
<g id="graph0" class="graph" transform="scale(1 1) rotate(0) translate(4 111.5)">
<title>vnix::units::picograms</title>
<polygon fill="white" stroke="none" points="-4,4 -4,-111.5 298,-111.5 298,4 -4,4"/>
<!-- Node1 -->
<g id="node1" class="node"><title>Node1</title>
<polygon fill="#bfbfbf" stroke="black" points="0,-50 0,-69 113,-69 113,-50 0,-50"/>
<text text-anchor="middle" x="56.5" y="-57" font-family="Helvetica,sans-Serif" font-size="10.00">vnix::units::picograms</text>
</g>
<!-- Node2 -->
<g id="node2" class="node"><title>Node2</title>
<g id="a_node2"><a xlink:href="namespacevnix_1_1units_1_1flt.html#ad861b9dd8e519c32c7771f860bf4dd58" target="_top" xlink:title="Interpret a number, suffixed with &#39;_pg&#39;, as a (literal) number of picograms. ">
<polygon fill="white" stroke="black" points="151.5,-88 151.5,-107 291.5,-107 291.5,-88 151.5,-88"/>
<text text-anchor="middle" x="221.5" y="-95" font-family="Helvetica,sans-Serif" font-size="10.00">vnix::units::flt::operator&quot;&quot;_pg</text>
</a>
</g>
</g>
<!-- Node1&#45;&gt;Node2 -->
<g id="edge1" class="edge"><title>Node1&#45;&gt;Node2</title>
<path fill="none" stroke="midnightblue" d="M108.528,-71.3961C131.439,-76.7374 158.104,-82.9537 179.664,-87.9799"/>
<polygon fill="midnightblue" stroke="midnightblue" points="109.165,-67.9509 98.6318,-69.089 107.576,-74.7681 109.165,-67.9509"/>
</g>
<!-- Node3 -->
<g id="node3" class="node"><title>Node3</title>
<g id="a_node3"><a xlink:href="namespacevnix_1_1units_1_1dbl.html#ac12cb54f9d02111433d31feef4f02cfa" target="_top" xlink:title="Interpret a number, suffixed with &#39;_pg&#39;, as a (literal) number of picograms. ">
<polygon fill="white" stroke="black" points="149,-50 149,-69 294,-69 294,-50 149,-50"/>
<text text-anchor="middle" x="221.5" y="-57" font-family="Helvetica,sans-Serif" font-size="10.00">vnix::units::dbl::operator&quot;&quot;_pg</text>
</a>
</g>
</g>
<!-- Node1&#45;&gt;Node3 -->
<g id="edge2" class="edge"><title>Node1&#45;&gt;Node3</title>
<path fill="none" stroke="midnightblue" d="M123.304,-59.5C131.753,-59.5 140.436,-59.5 148.972,-59.5"/>
<polygon fill="midnightblue" stroke="midnightblue" points="123.139,-56.0001 113.139,-59.5 123.139,-63.0001 123.139,-56.0001"/>
</g>
<!-- Node4 -->
<g id="node4" class="node"><title>Node4</title>
<g id="a_node4"><a xlink:href="namespacevnix_1_1units_1_1ldbl.html#a6c07faf2e4790fc456a9ed272457b9e9" target="_top" xlink:title="Interpret a number, suffixed with &#39;_pg&#39;, as a (literal) number of picograms. ">
<polygon fill="white" stroke="black" points="177,-0.5 177,-30.5 266,-30.5 266,-0.5 177,-0.5"/>
<text text-anchor="start" x="185" y="-18.5" font-family="Helvetica,sans-Serif" font-size="10.00">vnix::units::ldbl::</text>
<text text-anchor="middle" x="221.5" y="-7.5" font-family="Helvetica,sans-Serif" font-size="10.00">operator&quot;&quot;_pg</text>
</a>
</g>
</g>
<!-- Node1&#45;&gt;Node4 -->
<g id="edge3" class="edge"><title>Node1&#45;&gt;Node4</title>
<path fill="none" stroke="midnightblue" d="M102.777,-47.278C125.891,-41.0387 153.884,-33.4821 176.774,-27.3034"/>
<polygon fill="midnightblue" stroke="midnightblue" points="101.611,-43.9674 92.8686,-49.9527 103.435,-50.7255 101.611,-43.9674"/>
</g>
</g>
</svg>
