<?xml version="1.0" encoding="UTF-8" standalone="no"?>
<!DOCTYPE svg PUBLIC "-//W3C//DTD SVG 1.1//EN"
 "http://www.w3.org/Graphics/SVG/1.1/DTD/svg11.dtd">
<!-- Generated by graphviz version 2.38.0 (20140413.2041)
 -->
<!-- Title: vnix::units::kilometers Pages: 1 -->
<svg width="305pt" height="154pt"
 viewBox="0.00 0.00 305.00 153.50" xmlns="http://www.w3.org/2000/svg" xmlns:xlink="http://www.w3.org/1999/xlink">
<g id="graph0" class="graph" transform="scale(1 1) rotate(0) translate(4 149.5)">
<title>vnix::units::kilometers</title>
<polygon fill="white" stroke="none" points="-4,4 -4,-149.5 301,-149.5 301,4 -4,4"/>
<!-- Node1 -->
<g id="node1" class="node"><title>Node1</title>
<polygon fill="#bfbfbf" stroke="black" points="0,-69 0,-88 113,-88 113,-69 0,-69"/>
<text text-anchor="middle" x="56.5" y="-76" font-family="Helvetica,sans-Serif" font-size="10.00">vnix::units::kilometers</text>
</g>
<!-- Node2 -->
<g id="node2" class="node"><title>Node2</title>
<g id="a_node2"><a xlink:href="example1_8cpp.html#ae66f6b31b5ad750f1fe042a706a4e3d4" target="_top" xlink:title="main">
<polygon fill="white" stroke="black" points="204,-126 204,-145 242,-145 242,-126 204,-126"/>
<text text-anchor="middle" x="223" y="-133" font-family="Helvetica,sans-Serif" font-size="10.00">main</text>
</a>
</g>
</g>
<!-- Node1&#45;&gt;Node2 -->
<g id="edge1" class="edge"><title>Node1&#45;&gt;Node2</title>
<path fill="none" stroke="midnightblue" d="M87.4936,-92.1956C105.165,-99.9509 128.089,-109.474 149,-116.5 167.373,-122.673 188.901,-128.059 203.795,-131.504"/>
<polygon fill="midnightblue" stroke="midnightblue" points="88.8225,-88.9562 78.2627,-88.0961 85.9814,-95.3537 88.8225,-88.9562"/>
</g>
<!-- Node3 -->
<g id="node3" class="node"><title>Node3</title>
<g id="a_node3"><a xlink:href="namespacevnix_1_1units_1_1flt.html#a5d44c1f392ef7c318837f3c2b9376ddd" target="_top" xlink:title="Interpret a number, suffixed with &#39;_km&#39;, as a (literal) number of kilometers. ">
<polygon fill="white" stroke="black" points="151.5,-88 151.5,-107 294.5,-107 294.5,-88 151.5,-88"/>
<text text-anchor="middle" x="223" y="-95" font-family="Helvetica,sans-Serif" font-size="10.00">vnix::units::flt::operator&quot;&quot;_km</text>
</a>
</g>
</g>
<!-- Node1&#45;&gt;Node3 -->
<g id="edge2" class="edge"><title>Node1&#45;&gt;Node3</title>
<path fill="none" stroke="midnightblue" d="M123.161,-86.0839C132.476,-87.1599 142.088,-88.2701 151.491,-89.3562"/>
<polygon fill="midnightblue" stroke="midnightblue" points="123.528,-82.6031 113.192,-84.9325 122.725,-89.5569 123.528,-82.6031"/>
</g>
<!-- Node4 -->
<g id="node4" class="node"><title>Node4</title>
<g id="a_node4"><a xlink:href="namespacevnix_1_1units_1_1dbl.html#a05daa46b39c1c441b49dc00a027baa96" target="_top" xlink:title="Interpret a number, suffixed with &#39;_km&#39;, as a (literal) number of kilometers. ">
<polygon fill="white" stroke="black" points="149,-50 149,-69 297,-69 297,-50 149,-50"/>
<text text-anchor="middle" x="223" y="-57" font-family="Helvetica,sans-Serif" font-size="10.00">vnix::units::dbl::operator&quot;&quot;_km</text>
</a>
</g>
</g>
<!-- Node1&#45;&gt;Node4 -->
<g id="edge3" class="edge"><title>Node1&#45;&gt;Node4</title>
<path fill="none" stroke="midnightblue" d="M123.303,-70.8997C131.709,-69.9288 140.354,-68.9302 148.867,-67.9469"/>
<polygon fill="midnightblue" stroke="midnightblue" points="122.725,-67.4431 113.192,-72.0675 123.528,-74.3969 122.725,-67.4431"/>
</g>
<!-- Node5 -->
<g id="node5" class="node"><title>Node5</title>
<g id="a_node5"><a xlink:href="namespacevnix_1_1units_1_1ldbl.html#ae8f7a6f92b6ec7c861b24f994b51b64b" target="_top" xlink:title="Interpret a number, suffixed with &#39;_km&#39;, as a (literal) number of kilometers. ">
<polygon fill="white" stroke="black" points="178.5,-0.5 178.5,-30.5 267.5,-30.5 267.5,-0.5 178.5,-0.5"/>
<text text-anchor="start" x="186.5" y="-18.5" font-family="Helvetica,sans-Serif" font-size="10.00">vnix::units::ldbl::</text>
<text text-anchor="middle" x="223" y="-7.5" font-family="Helvetica,sans-Serif" font-size="10.00">operator&quot;&quot;_km</text>
</a>
</g>
</g>
<!-- Node1&#45;&gt;Node5 -->
<g id="edge4" class="edge"><title>Node1&#45;&gt;Node5</title>
<path fill="none" stroke="midnightblue" d="M88.7588,-64.939C106.348,-57.4548 128.775,-48.154 149,-40.5 158.397,-36.9438 168.553,-33.3256 178.218,-29.9869"/>
<polygon fill="midnightblue" stroke="midnightblue" points="87.3465,-61.7363 79.5296,-68.8881 90.1002,-68.172 87.3465,-61.7363"/>
</g>
</g>
</svg>
