<?xml version="1.0" encoding="UTF-8" standalone="no"?>
<!DOCTYPE svg PUBLIC "-//W3C//DTD SVG 1.1//EN"
 "http://www.w3.org/Graphics/SVG/1.1/DTD/svg11.dtd">
<!-- Generated by graphviz version 2.38.0 (20140413.2041)
 -->
<!-- Title: vnix::units::milliseconds Pages: 1 -->
<svg width="314pt" height="116pt"
 viewBox="0.00 0.00 314.00 115.50" xmlns="http://www.w3.org/2000/svg" xmlns:xlink="http://www.w3.org/1999/xlink">
<g id="graph0" class="graph" transform="scale(1 1) rotate(0) translate(4 111.5)">
<title>vnix::units::milliseconds</title>
<polygon fill="white" stroke="none" points="-4,4 -4,-111.5 310,-111.5 310,4 -4,4"/>
<!-- Node1 -->
<g id="node1" class="node"><title>Node1</title>
<polygon fill="#bfbfbf" stroke="black" points="0,-50 0,-69 122,-69 122,-50 0,-50"/>
<text text-anchor="middle" x="61" y="-57" font-family="Helvetica,sans-Serif" font-size="10.00">vnix::units::milliseconds</text>
</g>
<!-- Node2 -->
<g id="node2" class="node"><title>Node2</title>
<g id="a_node2"><a xlink:href="namespacevnix_1_1units_1_1flt.html#ab77245fd5433d5b7a6e77cd3c36a0734" target="_top" xlink:title="Interpret a number, suffixed with &#39;_ms&#39;, as a (literal) number of milliseconds. ">
<polygon fill="white" stroke="black" points="160.5,-88 160.5,-107 303.5,-107 303.5,-88 160.5,-88"/>
<text text-anchor="middle" x="232" y="-95" font-family="Helvetica,sans-Serif" font-size="10.00">vnix::units::flt::operator&quot;&quot;_ms</text>
</a>
</g>
</g>
<!-- Node1&#45;&gt;Node2 -->
<g id="edge1" class="edge"><title>Node1&#45;&gt;Node2</title>
<path fill="none" stroke="midnightblue" d="M114.587,-71.3243C138.413,-76.6816 166.207,-82.9311 188.661,-87.9799"/>
<polygon fill="midnightblue" stroke="midnightblue" points="115.17,-67.8681 104.646,-69.089 113.634,-74.6976 115.17,-67.8681"/>
</g>
<!-- Node3 -->
<g id="node3" class="node"><title>Node3</title>
<g id="a_node3"><a xlink:href="namespacevnix_1_1units_1_1dbl.html#a8846d7d4317106035d8bcd891edddc48" target="_top" xlink:title="Interpret a number, suffixed with &#39;_ms&#39;, as a (literal) number of milliseconds. ">
<polygon fill="white" stroke="black" points="158,-50 158,-69 306,-69 306,-50 158,-50"/>
<text text-anchor="middle" x="232" y="-57" font-family="Helvetica,sans-Serif" font-size="10.00">vnix::units::dbl::operator&quot;&quot;_ms</text>
</a>
</g>
</g>
<!-- Node1&#45;&gt;Node3 -->
<g id="edge2" class="edge"><title>Node1&#45;&gt;Node3</title>
<path fill="none" stroke="midnightblue" d="M132.241,-59.5C140.687,-59.5 149.328,-59.5 157.815,-59.5"/>
<polygon fill="midnightblue" stroke="midnightblue" points="132.059,-56.0001 122.059,-59.5 132.059,-63.0001 132.059,-56.0001"/>
</g>
<!-- Node4 -->
<g id="node4" class="node"><title>Node4</title>
<g id="a_node4"><a xlink:href="namespacevnix_1_1units_1_1ldbl.html#a185153af547d8802db452dce9b29496d" target="_top" xlink:title="Interpret a number, suffixed with &#39;_ms&#39;, as a (literal) number of milliseconds. ">
<polygon fill="white" stroke="black" points="187.5,-0.5 187.5,-30.5 276.5,-30.5 276.5,-0.5 187.5,-0.5"/>
<text text-anchor="start" x="195.5" y="-18.5" font-family="Helvetica,sans-Serif" font-size="10.00">vnix::units::ldbl::</text>
<text text-anchor="middle" x="232" y="-7.5" font-family="Helvetica,sans-Serif" font-size="10.00">operator&quot;&quot;_ms</text>
</a>
</g>
</g>
<!-- Node1&#45;&gt;Node4 -->
<g id="edge3" class="edge"><title>Node1&#45;&gt;Node4</title>
<path fill="none" stroke="midnightblue" d="M108.489,-47.3963C133.062,-40.9986 163.053,-33.1904 187.21,-26.9008"/>
<polygon fill="midnightblue" stroke="midnightblue" points="107.466,-44.0459 98.6705,-49.9527 109.23,-50.8201 107.466,-44.0459"/>
</g>
</g>
</svg>
