<?xml version="1.0" encoding="UTF-8" standalone="no"?>
<!DOCTYPE svg PUBLIC "-//W3C//DTD SVG 1.1//EN"
 "http://www.w3.org/Graphics/SVG/1.1/DTD/svg11.dtd">
<!-- Generated by graphviz version 2.38.0 (20140413.2041)
 -->
<!-- Title: vnix::units::milligrams Pages: 1 -->
<svg width="304pt" height="116pt"
 viewBox="0.00 0.00 304.00 115.50" xmlns="http://www.w3.org/2000/svg" xmlns:xlink="http://www.w3.org/1999/xlink">
<g id="graph0" class="graph" transform="scale(1 1) rotate(0) translate(4 111.5)">
<title>vnix::units::milligrams</title>
<polygon fill="white" stroke="none" points="-4,4 -4,-111.5 300,-111.5 300,4 -4,4"/>
<!-- Node1 -->
<g id="node1" class="node"><title>Node1</title>
<polygon fill="#bfbfbf" stroke="black" points="0,-50 0,-69 112,-69 112,-50 0,-50"/>
<text text-anchor="middle" x="56" y="-57" font-family="Helvetica,sans-Serif" font-size="10.00">vnix::units::milligrams</text>
</g>
<!-- Node2 -->
<g id="node2" class="node"><title>Node2</title>
<g id="a_node2"><a xlink:href="namespacevnix_1_1units_1_1flt.html#acca9221302d6a14493268fab5a0ebd42" target="_top" xlink:title="Interpret a number, suffixed with &#39;_mg&#39;, as a (literal) number of milligrams. ">
<polygon fill="white" stroke="black" points="150.5,-88 150.5,-107 293.5,-107 293.5,-88 150.5,-88"/>
<text text-anchor="middle" x="222" y="-95" font-family="Helvetica,sans-Serif" font-size="10.00">vnix::units::flt::operator&quot;&quot;_mg</text>
</a>
</g>
</g>
<!-- Node1&#45;&gt;Node2 -->
<g id="edge1" class="edge"><title>Node1&#45;&gt;Node2</title>
<path fill="none" stroke="midnightblue" d="M108.341,-71.3961C131.393,-76.7374 158.221,-82.9537 179.913,-87.9799"/>
<polygon fill="midnightblue" stroke="midnightblue" points="108.916,-67.9367 98.3841,-69.089 107.336,-74.756 108.916,-67.9367"/>
</g>
<!-- Node3 -->
<g id="node3" class="node"><title>Node3</title>
<g id="a_node3"><a xlink:href="namespacevnix_1_1units_1_1dbl.html#aad4270565a03967905c0352717f822c2" target="_top" xlink:title="Interpret a number, suffixed with &#39;_mg&#39;, as a (literal) number of milligrams. ">
<polygon fill="white" stroke="black" points="148,-50 148,-69 296,-69 296,-50 148,-50"/>
<text text-anchor="middle" x="222" y="-57" font-family="Helvetica,sans-Serif" font-size="10.00">vnix::units::dbl::operator&quot;&quot;_mg</text>
</a>
</g>
</g>
<!-- Node1&#45;&gt;Node3 -->
<g id="edge2" class="edge"><title>Node1&#45;&gt;Node3</title>
<path fill="none" stroke="midnightblue" d="M122.164,-59.5C130.563,-59.5 139.208,-59.5 147.727,-59.5"/>
<polygon fill="midnightblue" stroke="midnightblue" points="122.066,-56.0001 112.066,-59.5 122.066,-63.0001 122.066,-56.0001"/>
</g>
<!-- Node4 -->
<g id="node4" class="node"><title>Node4</title>
<g id="a_node4"><a xlink:href="namespacevnix_1_1units_1_1ldbl.html#a496b4269b9bc1f9a0dcbe712bff0d7a8" target="_top" xlink:title="Interpret a number, suffixed with &#39;_mg&#39;, as a (literal) number of milligrams. ">
<polygon fill="white" stroke="black" points="177.5,-0.5 177.5,-30.5 266.5,-30.5 266.5,-0.5 177.5,-0.5"/>
<text text-anchor="start" x="185.5" y="-18.5" font-family="Helvetica,sans-Serif" font-size="10.00">vnix::units::ldbl::</text>
<text text-anchor="middle" x="222" y="-7.5" font-family="Helvetica,sans-Serif" font-size="10.00">operator&quot;&quot;_mg</text>
</a>
</g>
</g>
<!-- Node1&#45;&gt;Node4 -->
<g id="edge3" class="edge"><title>Node1&#45;&gt;Node4</title>
<path fill="none" stroke="midnightblue" d="M102.28,-47.3517C125.69,-41.0711 154.131,-33.4404 177.307,-27.2226"/>
<polygon fill="midnightblue" stroke="midnightblue" points="101.337,-43.9808 92.5856,-49.9527 103.151,-50.7417 101.337,-43.9808"/>
</g>
</g>
</svg>
