<?xml version="1.0" encoding="UTF-8" standalone="no"?>
<!DOCTYPE svg PUBLIC "-//W3C//DTD SVG 1.1//EN"
 "http://www.w3.org/Graphics/SVG/1.1/DTD/svg11.dtd">
<!-- Generated by graphviz version 2.38.0 (20140413.2041)
 -->
<!-- Title: vnix::units::grams Pages: 1 -->
<svg width="279pt" height="116pt"
 viewBox="0.00 0.00 279.00 115.50" xmlns="http://www.w3.org/2000/svg" xmlns:xlink="http://www.w3.org/1999/xlink">
<g id="graph0" class="graph" transform="scale(1 1) rotate(0) translate(4 111.5)">
<title>vnix::units::grams</title>
<polygon fill="white" stroke="none" points="-4,4 -4,-111.5 275,-111.5 275,4 -4,4"/>
<!-- Node1 -->
<g id="node1" class="node"><title>Node1</title>
<polygon fill="#bfbfbf" stroke="black" points="0,-50 0,-69 95,-69 95,-50 0,-50"/>
<text text-anchor="middle" x="47.5" y="-57" font-family="Helvetica,sans-Serif" font-size="10.00">vnix::units::grams</text>
</g>
<!-- Node2 -->
<g id="node2" class="node"><title>Node2</title>
<g id="a_node2"><a xlink:href="namespacevnix_1_1units_1_1flt.html#a11267936ecffdeab8a0fb69e1c3cf435" target="_top" xlink:title="Interpret a number, suffixed with &#39;_g&#39;, as a (literal) number of grams. ">
<polygon fill="white" stroke="black" points="133.5,-88 133.5,-107 268.5,-107 268.5,-88 133.5,-88"/>
<text text-anchor="middle" x="201" y="-95" font-family="Helvetica,sans-Serif" font-size="10.00">vnix::units::flt::operator&quot;&quot;_g</text>
</a>
</g>
</g>
<!-- Node1&#45;&gt;Node2 -->
<g id="edge1" class="edge"><title>Node1&#45;&gt;Node2</title>
<path fill="none" stroke="midnightblue" d="M96.5016,-71.54C117.667,-76.8488 142.186,-82.9988 162.045,-87.9799"/>
<polygon fill="midnightblue" stroke="midnightblue" points="97.2809,-68.1271 86.7298,-69.089 95.5779,-74.9168 97.2809,-68.1271"/>
</g>
<!-- Node3 -->
<g id="node3" class="node"><title>Node3</title>
<g id="a_node3"><a xlink:href="namespacevnix_1_1units_1_1dbl.html#a7c377ecfc59d387d3b7e37858bdc95ad" target="_top" xlink:title="Interpret a number, suffixed with &#39;_g&#39;, as a (literal) number of grams. ">
<polygon fill="white" stroke="black" points="131,-50 131,-69 271,-69 271,-50 131,-50"/>
<text text-anchor="middle" x="201" y="-57" font-family="Helvetica,sans-Serif" font-size="10.00">vnix::units::dbl::operator&quot;&quot;_g</text>
</a>
</g>
</g>
<!-- Node1&#45;&gt;Node3 -->
<g id="edge2" class="edge"><title>Node1&#45;&gt;Node3</title>
<path fill="none" stroke="midnightblue" d="M105.217,-59.5C113.597,-59.5 122.309,-59.5 130.905,-59.5"/>
<polygon fill="midnightblue" stroke="midnightblue" points="105.191,-56.0001 95.1912,-59.5 105.191,-63.0001 105.191,-56.0001"/>
</g>
<!-- Node4 -->
<g id="node4" class="node"><title>Node4</title>
<g id="a_node4"><a xlink:href="namespacevnix_1_1units_1_1ldbl.html#a46353da89b8b223da8a3774ab72d9c39" target="_top" xlink:title="Interpret a number, suffixed with &#39;_g&#39;, as a (literal) number of grams. ">
<polygon fill="white" stroke="black" points="156.5,-0.5 156.5,-30.5 245.5,-30.5 245.5,-0.5 156.5,-0.5"/>
<text text-anchor="start" x="164.5" y="-18.5" font-family="Helvetica,sans-Serif" font-size="10.00">vnix::units::ldbl::</text>
<text text-anchor="middle" x="201" y="-7.5" font-family="Helvetica,sans-Serif" font-size="10.00">operator&quot;&quot;_g</text>
</a>
</g>
</g>
<!-- Node1&#45;&gt;Node4 -->
<g id="edge3" class="edge"><title>Node1&#45;&gt;Node4</title>
<path fill="none" stroke="midnightblue" d="M91.015,-47.1524C111.38,-41.2379 135.742,-34.1625 156.263,-28.2026"/>
<polygon fill="midnightblue" stroke="midnightblue" points="90.0002,-43.8024 81.3732,-49.9527 91.9526,-50.5247 90.0002,-43.8024"/>
</g>
</g>
</svg>
