<?xml version="1.0" encoding="UTF-8" standalone="no"?>
<!DOCTYPE svg PUBLIC "-//W3C//DTD SVG 1.1//EN"
 "http://www.w3.org/Graphics/SVG/1.1/DTD/svg11.dtd">
<!-- Generated by graphviz version 2.38.0 (20140413.2041)
 -->
<!-- Title: vnix::units::femtometers Pages: 1 -->
<svg width="312pt" height="116pt"
 viewBox="0.00 0.00 312.00 115.50" xmlns="http://www.w3.org/2000/svg" xmlns:xlink="http://www.w3.org/1999/xlink">
<g id="graph0" class="graph" transform="scale(1 1) rotate(0) translate(4 111.5)">
<title>vnix::units::femtometers</title>
<polygon fill="white" stroke="none" points="-4,4 -4,-111.5 308,-111.5 308,4 -4,4"/>
<!-- Node1 -->
<g id="node1" class="node"><title>Node1</title>
<polygon fill="#bfbfbf" stroke="black" points="0,-50 0,-69 122,-69 122,-50 0,-50"/>
<text text-anchor="middle" x="61" y="-57" font-family="Helvetica,sans-Serif" font-size="10.00">vnix::units::femtometers</text>
</g>
<!-- Node2 -->
<g id="node2" class="node"><title>Node2</title>
<g id="a_node2"><a xlink:href="namespacevnix_1_1units_1_1flt.html#a6cc3040784d61e4255f27880b5f3769e" target="_top" xlink:title="Interpret a number, suffixed with &#39;_fm&#39;, as a (literal) number of femtometers. ">
<polygon fill="white" stroke="black" points="160.5,-88 160.5,-107 301.5,-107 301.5,-88 160.5,-88"/>
<text text-anchor="middle" x="231" y="-95" font-family="Helvetica,sans-Serif" font-size="10.00">vnix::units::flt::operator&quot;&quot;_fm</text>
</a>
</g>
</g>
<!-- Node1&#45;&gt;Node2 -->
<g id="edge1" class="edge"><title>Node1&#45;&gt;Node2</title>
<path fill="none" stroke="midnightblue" d="M114.276,-71.3243C137.961,-76.6816 165.59,-82.9311 187.911,-87.9799"/>
<polygon fill="midnightblue" stroke="midnightblue" points="114.919,-67.8815 104.393,-69.089 113.375,-74.709 114.919,-67.8815"/>
</g>
<!-- Node3 -->
<g id="node3" class="node"><title>Node3</title>
<g id="a_node3"><a xlink:href="namespacevnix_1_1units_1_1dbl.html#abeff77303998861a21b9c87281ce98f9" target="_top" xlink:title="Interpret a number, suffixed with &#39;_fm&#39;, as a (literal) number of femtometers. ">
<polygon fill="white" stroke="black" points="158,-50 158,-69 304,-69 304,-50 158,-50"/>
<text text-anchor="middle" x="231" y="-57" font-family="Helvetica,sans-Serif" font-size="10.00">vnix::units::dbl::operator&quot;&quot;_fm</text>
</a>
</g>
</g>
<!-- Node1&#45;&gt;Node3 -->
<g id="edge2" class="edge"><title>Node1&#45;&gt;Node3</title>
<path fill="none" stroke="midnightblue" d="M132.361,-59.5C140.807,-59.5 149.441,-59.5 157.91,-59.5"/>
<polygon fill="midnightblue" stroke="midnightblue" points="132.177,-56.0001 122.177,-59.5 132.177,-63.0001 132.177,-56.0001"/>
</g>
<!-- Node4 -->
<g id="node4" class="node"><title>Node4</title>
<g id="a_node4"><a xlink:href="namespacevnix_1_1units_1_1ldbl.html#a94b3c8eb58f0358371ae35e69c4cfea0" target="_top" xlink:title="Interpret a number, suffixed with &#39;_fm&#39;, as a (literal) number of femtometers. ">
<polygon fill="white" stroke="black" points="186.5,-0.5 186.5,-30.5 275.5,-30.5 275.5,-0.5 186.5,-0.5"/>
<text text-anchor="start" x="194.5" y="-18.5" font-family="Helvetica,sans-Serif" font-size="10.00">vnix::units::ldbl::</text>
<text text-anchor="middle" x="231" y="-7.5" font-family="Helvetica,sans-Serif" font-size="10.00">operator&quot;&quot;_fm</text>
</a>
</g>
</g>
<!-- Node1&#45;&gt;Node4 -->
<g id="edge3" class="edge"><title>Node1&#45;&gt;Node4</title>
<path fill="none" stroke="midnightblue" d="M108.214,-47.3963C132.642,-40.9986 162.455,-33.1904 186.47,-26.9008"/>
<polygon fill="midnightblue" stroke="midnightblue" points="107.24,-44.0332 98.4535,-49.9527 109.014,-50.8048 107.24,-44.0332"/>
</g>
</g>
</svg>
