<?xml version="1.0" encoding="UTF-8" standalone="no"?>
<!DOCTYPE svg PUBLIC "-//W3C//DTD SVG 1.1//EN"
 "http://www.w3.org/Graphics/SVG/1.1/DTD/svg11.dtd">
<!-- Generated by graphviz version 2.38.0 (20140413.2041)
 -->
<!-- Title: vnix::units::time_dim Pages: 1 -->
<svg width="297pt" height="284pt"
 viewBox="0.00 0.00 297.00 284.00" xmlns="http://www.w3.org/2000/svg" xmlns:xlink="http://www.w3.org/1999/xlink">
<g id="graph0" class="graph" transform="scale(1 1) rotate(0) translate(4 280)">
<title>vnix::units::time_dim</title>
<polygon fill="white" stroke="none" points="-4,4 -4,-280 293,-280 293,4 -4,4"/>
<!-- Node1 -->
<g id="node1" class="node"><title>Node1</title>
<polygon fill="#bfbfbf" stroke="black" points="0,-128 0,-147 107,-147 107,-128 0,-128"/>
<text text-anchor="middle" x="53.5" y="-135" font-family="Helvetica,sans-Serif" font-size="10.00">vnix::units::time_dim</text>
</g>
<!-- Node2 -->
<g id="node2" class="node"><title>Node2</title>
<g id="a_node2"><a xlink:href="structvnix_1_1units_1_1impl_1_1seconds.html#a3005448508c3c06c108b09687d00cb67" target="_top" xlink:title="Initialize from number of seconds. ">
<polygon fill="white" stroke="black" points="168,-245.5 168,-275.5 264,-275.5 264,-245.5 168,-245.5"/>
<text text-anchor="start" x="176" y="-263.5" font-family="Helvetica,sans-Serif" font-size="10.00">vnix::units::impl::</text>
<text text-anchor="middle" x="216" y="-252.5" font-family="Helvetica,sans-Serif" font-size="10.00">seconds::seconds</text>
</a>
</g>
</g>
<!-- Node1&#45;&gt;Node2 -->
<g id="edge1" class="edge"><title>Node1&#45;&gt;Node2</title>
<path fill="none" stroke="midnightblue" d="M66.2626,-155.639C81.4714,-177.732 109.962,-214.781 143,-236.5 150.487,-241.422 159.077,-245.422 167.655,-248.643"/>
<polygon fill="midnightblue" stroke="midnightblue" points="69.0615,-153.529 60.5833,-147.175 63.2488,-157.429 69.0615,-153.529"/>
</g>
<!-- Node3 -->
<g id="node3" class="node"><title>Node3</title>
<g id="a_node3"><a xlink:href="structvnix_1_1units_1_1impl_1_1milliseconds.html#a5ecd52979ad49aa05ac8b1f3ca0729c8" target="_top" xlink:title="Initialize from number of milliseconds. ">
<polygon fill="white" stroke="black" points="150.5,-196.5 150.5,-226.5 281.5,-226.5 281.5,-196.5 150.5,-196.5"/>
<text text-anchor="start" x="158.5" y="-214.5" font-family="Helvetica,sans-Serif" font-size="10.00">vnix::units::impl::</text>
<text text-anchor="middle" x="216" y="-203.5" font-family="Helvetica,sans-Serif" font-size="10.00">milliseconds::milliseconds</text>
</a>
</g>
</g>
<!-- Node1&#45;&gt;Node3 -->
<g id="edge2" class="edge"><title>Node1&#45;&gt;Node3</title>
<path fill="none" stroke="midnightblue" d="M78.3001,-152.611C95.7547,-163.276 120.275,-177.406 143,-187.5 150.225,-190.709 158.018,-193.733 165.717,-196.481"/>
<polygon fill="midnightblue" stroke="midnightblue" points="79.7307,-149.38 69.3863,-147.09 76.0448,-155.331 79.7307,-149.38"/>
</g>
<!-- Node4 -->
<g id="node4" class="node"><title>Node4</title>
<g id="a_node4"><a xlink:href="structvnix_1_1units_1_1impl_1_1microseconds.html#afadd3ba3f8dd17033c4faff0fc7e5941" target="_top" xlink:title="Initialize from number of microseconds. ">
<polygon fill="white" stroke="black" points="144,-147.5 144,-177.5 288,-177.5 288,-147.5 144,-147.5"/>
<text text-anchor="start" x="152" y="-165.5" font-family="Helvetica,sans-Serif" font-size="10.00">vnix::units::impl::</text>
<text text-anchor="middle" x="216" y="-154.5" font-family="Helvetica,sans-Serif" font-size="10.00">microseconds::microseconds</text>
</a>
</g>
</g>
<!-- Node1&#45;&gt;Node4 -->
<g id="edge3" class="edge"><title>Node1&#45;&gt;Node4</title>
<path fill="none" stroke="midnightblue" d="M117.194,-147.265C125.969,-148.632 135.04,-150.045 143.956,-151.434"/>
<polygon fill="midnightblue" stroke="midnightblue" points="117.473,-143.767 107.054,-145.686 116.396,-150.683 117.473,-143.767"/>
</g>
<!-- Node5 -->
<g id="node5" class="node"><title>Node5</title>
<g id="a_node5"><a xlink:href="structvnix_1_1units_1_1impl_1_1nanoseconds.html#a1aff76cb05ac052ec3be1f6ec128c84c" target="_top" xlink:title="Initialize from number of nanoseconds. ">
<polygon fill="white" stroke="black" points="147,-98.5 147,-128.5 285,-128.5 285,-98.5 147,-98.5"/>
<text text-anchor="start" x="155" y="-116.5" font-family="Helvetica,sans-Serif" font-size="10.00">vnix::units::impl::</text>
<text text-anchor="middle" x="216" y="-105.5" font-family="Helvetica,sans-Serif" font-size="10.00">nanoseconds::nanoseconds</text>
</a>
</g>
</g>
<!-- Node1&#45;&gt;Node5 -->
<g id="edge4" class="edge"><title>Node1&#45;&gt;Node5</title>
<path fill="none" stroke="midnightblue" d="M117.067,-128.144C126.828,-126.685 136.957,-125.17 146.835,-123.693"/>
<polygon fill="midnightblue" stroke="midnightblue" points="116.426,-124.701 107.054,-129.642 117.461,-131.624 116.426,-124.701"/>
</g>
<!-- Node6 -->
<g id="node6" class="node"><title>Node6</title>
<g id="a_node6"><a xlink:href="structvnix_1_1units_1_1impl_1_1picoseconds.html#a62e49c5db311b7e2a674e01a570ff42c" target="_top" xlink:title="Initialize from number of picoseconds. ">
<polygon fill="white" stroke="black" points="150,-49.5 150,-79.5 282,-79.5 282,-49.5 150,-49.5"/>
<text text-anchor="start" x="158" y="-67.5" font-family="Helvetica,sans-Serif" font-size="10.00">vnix::units::impl::</text>
<text text-anchor="middle" x="216" y="-56.5" font-family="Helvetica,sans-Serif" font-size="10.00">picoseconds::picoseconds</text>
</a>
</g>
</g>
<!-- Node1&#45;&gt;Node6 -->
<g id="edge5" class="edge"><title>Node1&#45;&gt;Node6</title>
<path fill="none" stroke="midnightblue" d="M79.3672,-122.596C96.8087,-112.497 120.872,-99.2647 143,-89.5 150.99,-85.9742 159.646,-82.6047 168.093,-79.5453"/>
<polygon fill="midnightblue" stroke="midnightblue" points="77.2721,-119.767 70.4131,-127.842 80.8107,-125.807 77.2721,-119.767"/>
</g>
<!-- Node7 -->
<g id="node7" class="node"><title>Node7</title>
<g id="a_node7"><a xlink:href="structvnix_1_1units_1_1impl_1_1femtoseconds.html#aca7560c23475c9129038e7c1185229e5" target="_top" xlink:title="Initialize from number of femtoseconds. ">
<polygon fill="white" stroke="black" points="143,-0.5 143,-30.5 289,-30.5 289,-0.5 143,-0.5"/>
<text text-anchor="start" x="151" y="-18.5" font-family="Helvetica,sans-Serif" font-size="10.00">vnix::units::impl::</text>
<text text-anchor="middle" x="216" y="-7.5" font-family="Helvetica,sans-Serif" font-size="10.00">femtoseconds::femtoseconds</text>
</a>
</g>
</g>
<!-- Node1&#45;&gt;Node7 -->
<g id="edge6" class="edge"><title>Node1&#45;&gt;Node7</title>
<path fill="none" stroke="midnightblue" d="M66.6272,-119.472C82.0236,-97.866 110.523,-61.9035 143,-40.5 148.745,-36.7137 155.127,-33.4341 161.65,-30.6116"/>
<polygon fill="midnightblue" stroke="midnightblue" points="63.6936,-117.561 60.8576,-127.769 69.4405,-121.557 63.6936,-117.561"/>
</g>
</g>
</svg>
