<?xml version="1.0" encoding="UTF-8" standalone="no"?>
<!DOCTYPE svg PUBLIC "-//W3C//DTD SVG 1.1//EN"
 "http://www.w3.org/Graphics/SVG/1.1/DTD/svg11.dtd">
<!-- Generated by graphviz version 2.38.0 (20140413.2041)
 -->
<!-- Title: vnix::rat::operator&#45; Pages: 1 -->
<svg width="254pt" height="88pt"
 viewBox="0.00 0.00 254.00 88.00" xmlns="http://www.w3.org/2000/svg" xmlns:xlink="http://www.w3.org/1999/xlink">
<g id="graph0" class="graph" transform="scale(1 1) rotate(0) translate(4 84)">
<title>vnix::rat::operator&#45;</title>
<polygon fill="white" stroke="none" points="-4,4 -4,-84 250,-84 250,4 -4,4"/>
<!-- Node1 -->
<g id="node1" class="node"><title>Node1</title>
<polygon fill="#bfbfbf" stroke="black" points="0,-35.5 0,-54.5 96,-54.5 96,-35.5 0,-35.5"/>
<text text-anchor="middle" x="48" y="-42.5" font-family="Helvetica,sans-Serif" font-size="10.00">vnix::rat::operator&#45;</text>
</g>
<!-- Node2 -->
<g id="node2" class="node"><title>Node2</title>
<g id="a_node2"><a xlink:href="dim-test_8cpp.html#a880e8bc45cf483023990dbbadf0a6726" target="_top" xlink:title="TEST_CASE">
<polygon fill="white" stroke="black" points="151.5,-60.5 151.5,-79.5 226.5,-79.5 226.5,-60.5 151.5,-60.5"/>
<text text-anchor="middle" x="189" y="-67.5" font-family="Helvetica,sans-Serif" font-size="10.00">TEST_CASE</text>
</a>
</g>
</g>
<!-- Node1&#45;&gt;Node2 -->
<g id="edge1" class="edge"><title>Node1&#45;&gt;Node2</title>
<path fill="none" stroke="midnightblue" d="M105.924,-55.2381C121.167,-57.9797 137.246,-60.8715 151.093,-63.362"/>
<polygon fill="midnightblue" stroke="midnightblue" points="106.521,-51.7894 96.0591,-53.4639 105.282,-58.6788 106.521,-51.7894"/>
</g>
<!-- Node3 -->
<g id="node3" class="node"><title>Node3</title>
<g id="a_node3"><a xlink:href="classvnix_1_1units_1_1basic__dim.html#affbbbb97c690226024377dd1ffe67415" target="_top" xlink:title="Function used to subtract corresponding exponents. ">
<polygon fill="white" stroke="black" points="132,-0.5 132,-41.5 246,-41.5 246,-0.5 132,-0.5"/>
<text text-anchor="start" x="140" y="-29.5" font-family="Helvetica,sans-Serif" font-size="10.00">vnix::units::basic</text>
<text text-anchor="start" x="140" y="-18.5" font-family="Helvetica,sans-Serif" font-size="10.00">_dim&lt; dim_base_off &gt;</text>
<text text-anchor="middle" x="189" y="-7.5" font-family="Helvetica,sans-Serif" font-size="10.00">::sbtrct</text>
</a>
</g>
</g>
<!-- Node1&#45;&gt;Node3 -->
<g id="edge2" class="edge"><title>Node1&#45;&gt;Node3</title>
<path fill="none" stroke="midnightblue" d="M105.947,-35.1675C114.5,-33.6907 123.315,-32.1686 131.852,-30.6947"/>
<polygon fill="midnightblue" stroke="midnightblue" points="105.318,-31.7242 96.0591,-36.8747 106.509,-38.6221 105.318,-31.7242"/>
</g>
</g>
</svg>
