<?xml version="1.0" encoding="UTF-8" standalone="no"?>
<!DOCTYPE svg PUBLIC "-//W3C//DTD SVG 1.1//EN"
 "http://www.w3.org/Graphics/SVG/1.1/DTD/svg11.dtd">
<!-- Generated by graphviz version 2.38.0 (20140413.2041)
 -->
<!-- Title: vnix::units::microseconds Pages: 1 -->
<svg width="325pt" height="116pt"
 viewBox="0.00 0.00 325.00 115.50" xmlns="http://www.w3.org/2000/svg" xmlns:xlink="http://www.w3.org/1999/xlink">
<g id="graph0" class="graph" transform="scale(1 1) rotate(0) translate(4 111.5)">
<title>vnix::units::microseconds</title>
<polygon fill="white" stroke="none" points="-4,4 -4,-111.5 321,-111.5 321,4 -4,4"/>
<!-- Node1 -->
<g id="node1" class="node"><title>Node1</title>
<polygon fill="#bfbfbf" stroke="black" points="0,-50 0,-69 128,-69 128,-50 0,-50"/>
<text text-anchor="middle" x="64" y="-57" font-family="Helvetica,sans-Serif" font-size="10.00">vnix::units::microseconds</text>
</g>
<!-- Node2 -->
<g id="node2" class="node"><title>Node2</title>
<g id="a_node2"><a xlink:href="namespacevnix_1_1units_1_1flt.html#a9a574632752e8ee46ef098d36551332c" target="_top" xlink:title="Interpret a number, suffixed with &#39;_mus&#39;, as a (literal) number of microseconds. ">
<polygon fill="white" stroke="black" points="166,-88 166,-107 315,-107 315,-88 166,-88"/>
<text text-anchor="middle" x="240.5" y="-95" font-family="Helvetica,sans-Serif" font-size="10.00">vnix::units::flt::operator&quot;&quot;_mus</text>
</a>
</g>
</g>
<!-- Node1&#45;&gt;Node2 -->
<g id="edge1" class="edge"><title>Node1&#45;&gt;Node2</title>
<path fill="none" stroke="midnightblue" d="M118.969,-71.2526C143.643,-76.6258 172.495,-82.9086 195.783,-87.9799"/>
<polygon fill="midnightblue" stroke="midnightblue" points="119.549,-67.797 109.034,-69.089 118.06,-74.6367 119.549,-67.797"/>
</g>
<!-- Node3 -->
<g id="node3" class="node"><title>Node3</title>
<g id="a_node3"><a xlink:href="namespacevnix_1_1units_1_1dbl.html#a1b735459370fdd73cd9ef1ecdd93033d" target="_top" xlink:title="Interpret a number, suffixed with &#39;_mus&#39;, as a (literal) number of microseconds. ">
<polygon fill="white" stroke="black" points="164,-50 164,-69 317,-69 317,-50 164,-50"/>
<text text-anchor="middle" x="240.5" y="-57" font-family="Helvetica,sans-Serif" font-size="10.00">vnix::units::dbl::operator&quot;&quot;_mus</text>
</a>
</g>
</g>
<!-- Node1&#45;&gt;Node3 -->
<g id="edge2" class="edge"><title>Node1&#45;&gt;Node3</title>
<path fill="none" stroke="midnightblue" d="M138.592,-59.5C146.959,-59.5 155.499,-59.5 163.891,-59.5"/>
<polygon fill="midnightblue" stroke="midnightblue" points="138.492,-56.0001 128.492,-59.5 138.492,-63.0001 138.492,-56.0001"/>
</g>
<!-- Node4 -->
<g id="node4" class="node"><title>Node4</title>
<g id="a_node4"><a xlink:href="namespacevnix_1_1units_1_1ldbl.html#a578811bc4fcd4047c9818cffe6f46616" target="_top" xlink:title="Interpret a number, suffixed with &#39;_mus&#39;, as a (literal) number of microseconds. ">
<polygon fill="white" stroke="black" points="196,-0.5 196,-30.5 285,-30.5 285,-0.5 196,-0.5"/>
<text text-anchor="start" x="204" y="-18.5" font-family="Helvetica,sans-Serif" font-size="10.00">vnix::units::ldbl::</text>
<text text-anchor="middle" x="240.5" y="-7.5" font-family="Helvetica,sans-Serif" font-size="10.00">operator&quot;&quot;_mus</text>
</a>
</g>
</g>
<!-- Node1&#45;&gt;Node4 -->
<g id="edge3" class="edge"><title>Node1&#45;&gt;Node4</title>
<path fill="none" stroke="midnightblue" d="M112.853,-47.4338C138.792,-40.8934 170.611,-32.8704 195.865,-26.5024"/>
<polygon fill="midnightblue" stroke="midnightblue" points="111.705,-44.1138 102.864,-49.9527 113.416,-50.9014 111.705,-44.1138"/>
</g>
</g>
</svg>
