<?xml version="1.0" encoding="UTF-8" standalone="no"?>
<!DOCTYPE svg PUBLIC "-//W3C//DTD SVG 1.1//EN"
 "http://www.w3.org/Graphics/SVG/1.1/DTD/svg11.dtd">
<!-- Generated by graphviz version 2.38.0 (20140413.2041)
 -->
<!-- Title: vnix::units::nanocoulombs Pages: 1 -->
<svg width="322pt" height="116pt"
 viewBox="0.00 0.00 322.00 115.50" xmlns="http://www.w3.org/2000/svg" xmlns:xlink="http://www.w3.org/1999/xlink">
<g id="graph0" class="graph" transform="scale(1 1) rotate(0) translate(4 111.5)">
<title>vnix::units::nanocoulombs</title>
<polygon fill="white" stroke="none" points="-4,4 -4,-111.5 318,-111.5 318,4 -4,4"/>
<!-- Node1 -->
<g id="node1" class="node"><title>Node1</title>
<polygon fill="#bfbfbf" stroke="black" points="0,-50 0,-69 131,-69 131,-50 0,-50"/>
<text text-anchor="middle" x="65.5" y="-57" font-family="Helvetica,sans-Serif" font-size="10.00">vnix::units::nanocoulombs</text>
</g>
<!-- Node2 -->
<g id="node2" class="node"><title>Node2</title>
<g id="a_node2"><a xlink:href="namespacevnix_1_1units_1_1flt.html#a3b8e0b884ec254fb1c6c12f16b12b7c3" target="_top" xlink:title="Interpret a number, suffixed with &#39;_nC&#39;, as a (literal) number of nanocoulombs. ">
<polygon fill="white" stroke="black" points="169,-88 169,-107 312,-107 312,-88 169,-88"/>
<text text-anchor="middle" x="240.5" y="-95" font-family="Helvetica,sans-Serif" font-size="10.00">vnix::units::flt::operator&quot;&quot;_nC</text>
</a>
</g>
</g>
<!-- Node1&#45;&gt;Node2 -->
<g id="edge1" class="edge"><title>Node1&#45;&gt;Node2</title>
<path fill="none" stroke="midnightblue" d="M120.005,-71.2526C144.467,-76.6258 173.071,-82.9086 196.159,-87.9799"/>
<polygon fill="midnightblue" stroke="midnightblue" points="120.673,-67.816 110.155,-69.089 119.171,-74.653 120.673,-67.816"/>
</g>
<!-- Node3 -->
<g id="node3" class="node"><title>Node3</title>
<g id="a_node3"><a xlink:href="namespacevnix_1_1units_1_1dbl.html#a27114a21cd2e3c4b219ba5f81297d8c1" target="_top" xlink:title="Interpret a number, suffixed with &#39;_nC&#39;, as a (literal) number of nanocoulombs. ">
<polygon fill="white" stroke="black" points="167,-50 167,-69 314,-69 314,-50 167,-50"/>
<text text-anchor="middle" x="240.5" y="-57" font-family="Helvetica,sans-Serif" font-size="10.00">vnix::units::dbl::operator&quot;&quot;_nC</text>
</a>
</g>
</g>
<!-- Node1&#45;&gt;Node3 -->
<g id="edge2" class="edge"><title>Node1&#45;&gt;Node3</title>
<path fill="none" stroke="midnightblue" d="M141.588,-59.5C150.009,-59.5 158.577,-59.5 166.966,-59.5"/>
<polygon fill="midnightblue" stroke="midnightblue" points="141.411,-56.0001 131.411,-59.5 141.411,-63.0001 141.411,-56.0001"/>
</g>
<!-- Node4 -->
<g id="node4" class="node"><title>Node4</title>
<g id="a_node4"><a xlink:href="namespacevnix_1_1units_1_1ldbl.html#a8433f253c30aadaf446bb8f2781d3bc8" target="_top" xlink:title="Interpret a number, suffixed with &#39;_nC&#39;, as a (literal) number of nanocoulombs. ">
<polygon fill="white" stroke="black" points="196,-0.5 196,-30.5 285,-30.5 285,-0.5 196,-0.5"/>
<text text-anchor="start" x="204" y="-18.5" font-family="Helvetica,sans-Serif" font-size="10.00">vnix::units::ldbl::</text>
<text text-anchor="middle" x="240.5" y="-7.5" font-family="Helvetica,sans-Serif" font-size="10.00">operator&quot;&quot;_nC</text>
</a>
</g>
</g>
<!-- Node1&#45;&gt;Node4 -->
<g id="edge3" class="edge"><title>Node1&#45;&gt;Node4</title>
<path fill="none" stroke="midnightblue" d="M113.905,-47.4433C139.52,-40.9284 170.929,-32.9401 195.929,-26.5818"/>
<polygon fill="midnightblue" stroke="midnightblue" points="112.867,-44.0957 104.038,-49.9527 114.593,-50.8797 112.867,-44.0957"/>
</g>
</g>
</svg>
