<?xml version="1.0" encoding="UTF-8" standalone="no"?>
<!DOCTYPE svg PUBLIC "-//W3C//DTD SVG 1.1//EN"
 "http://www.w3.org/Graphics/SVG/1.1/DTD/svg11.dtd">
<!-- Generated by graphviz version 2.38.0 (20140413.2041)
 -->
<!-- Title: vnix::units::nanoseconds Pages: 1 -->
<svg width="314pt" height="116pt"
 viewBox="0.00 0.00 314.00 115.50" xmlns="http://www.w3.org/2000/svg" xmlns:xlink="http://www.w3.org/1999/xlink">
<g id="graph0" class="graph" transform="scale(1 1) rotate(0) translate(4 111.5)">
<title>vnix::units::nanoseconds</title>
<polygon fill="white" stroke="none" points="-4,4 -4,-111.5 310,-111.5 310,4 -4,4"/>
<!-- Node1 -->
<g id="node1" class="node"><title>Node1</title>
<polygon fill="#bfbfbf" stroke="black" points="0,-50 0,-69 125,-69 125,-50 0,-50"/>
<text text-anchor="middle" x="62.5" y="-57" font-family="Helvetica,sans-Serif" font-size="10.00">vnix::units::nanoseconds</text>
</g>
<!-- Node2 -->
<g id="node2" class="node"><title>Node2</title>
<g id="a_node2"><a xlink:href="namespacevnix_1_1units_1_1flt.html#a0274b9b49939ef5ce02e8d36f4f40896" target="_top" xlink:title="Interpret a number, suffixed with &#39;_ns&#39;, as a (literal) number of nanoseconds. ">
<polygon fill="white" stroke="black" points="163.5,-88 163.5,-107 303.5,-107 303.5,-88 163.5,-88"/>
<text text-anchor="middle" x="233.5" y="-95" font-family="Helvetica,sans-Serif" font-size="10.00">vnix::units::flt::operator&quot;&quot;_ns</text>
</a>
</g>
</g>
<!-- Node1&#45;&gt;Node2 -->
<g id="edge1" class="edge"><title>Node1&#45;&gt;Node2</title>
<path fill="none" stroke="midnightblue" d="M116.087,-71.3243C139.913,-76.6816 167.707,-82.9311 190.161,-87.9799"/>
<polygon fill="midnightblue" stroke="midnightblue" points="116.67,-67.8681 106.146,-69.089 115.134,-74.6976 116.67,-67.8681"/>
</g>
<!-- Node3 -->
<g id="node3" class="node"><title>Node3</title>
<g id="a_node3"><a xlink:href="namespacevnix_1_1units_1_1dbl.html#a1b55380d7d1d77f354e08ebe67167529" target="_top" xlink:title="Interpret a number, suffixed with &#39;_ns&#39;, as a (literal) number of nanoseconds. ">
<polygon fill="white" stroke="black" points="161,-50 161,-69 306,-69 306,-50 161,-50"/>
<text text-anchor="middle" x="233.5" y="-57" font-family="Helvetica,sans-Serif" font-size="10.00">vnix::units::dbl::operator&quot;&quot;_ns</text>
</a>
</g>
</g>
<!-- Node1&#45;&gt;Node3 -->
<g id="edge2" class="edge"><title>Node1&#45;&gt;Node3</title>
<path fill="none" stroke="midnightblue" d="M135.564,-59.5C143.925,-59.5 152.453,-59.5 160.81,-59.5"/>
<polygon fill="midnightblue" stroke="midnightblue" points="135.47,-56.0001 125.47,-59.5 135.47,-63.0001 135.47,-56.0001"/>
</g>
<!-- Node4 -->
<g id="node4" class="node"><title>Node4</title>
<g id="a_node4"><a xlink:href="namespacevnix_1_1units_1_1ldbl.html#a84f43933930c172fa0a72177e0a826e2" target="_top" xlink:title="Interpret a number, suffixed with &#39;_ns&#39;, as a (literal) number of nanoseconds. ">
<polygon fill="white" stroke="black" points="189,-0.5 189,-30.5 278,-30.5 278,-0.5 189,-0.5"/>
<text text-anchor="start" x="197" y="-18.5" font-family="Helvetica,sans-Serif" font-size="10.00">vnix::units::ldbl::</text>
<text text-anchor="middle" x="233.5" y="-7.5" font-family="Helvetica,sans-Serif" font-size="10.00">operator&quot;&quot;_ns</text>
</a>
</g>
</g>
<!-- Node1&#45;&gt;Node4 -->
<g id="edge3" class="edge"><title>Node1&#45;&gt;Node4</title>
<path fill="none" stroke="midnightblue" d="M109.989,-47.3963C134.562,-40.9986 164.553,-33.1904 188.71,-26.9008"/>
<polygon fill="midnightblue" stroke="midnightblue" points="108.966,-44.0459 100.17,-49.9527 110.73,-50.8201 108.966,-44.0459"/>
</g>
</g>
</svg>
