<?xml version="1.0" encoding="UTF-8" standalone="no"?>
<!DOCTYPE svg PUBLIC "-//W3C//DTD SVG 1.1//EN"
 "http://www.w3.org/Graphics/SVG/1.1/DTD/svg11.dtd">
<!-- Generated by graphviz version 2.38.0 (20140413.2041)
 -->
<!-- Title: vnix::units::micrograms Pages: 1 -->
<svg width="316pt" height="116pt"
 viewBox="0.00 0.00 316.00 115.50" xmlns="http://www.w3.org/2000/svg" xmlns:xlink="http://www.w3.org/1999/xlink">
<g id="graph0" class="graph" transform="scale(1 1) rotate(0) translate(4 111.5)">
<title>vnix::units::micrograms</title>
<polygon fill="white" stroke="none" points="-4,4 -4,-111.5 312,-111.5 312,4 -4,4"/>
<!-- Node1 -->
<g id="node1" class="node"><title>Node1</title>
<polygon fill="#bfbfbf" stroke="black" points="0,-50 0,-69 119,-69 119,-50 0,-50"/>
<text text-anchor="middle" x="59.5" y="-57" font-family="Helvetica,sans-Serif" font-size="10.00">vnix::units::micrograms</text>
</g>
<!-- Node2 -->
<g id="node2" class="node"><title>Node2</title>
<g id="a_node2"><a xlink:href="namespacevnix_1_1units_1_1flt.html#ab5121001af700d9d98baa6f877516455" target="_top" xlink:title="Interpret a number, suffixed with &#39;_mug&#39;, as a (literal) number of micrograms. ">
<polygon fill="white" stroke="black" points="157,-88 157,-107 306,-107 306,-88 157,-88"/>
<text text-anchor="middle" x="231.5" y="-95" font-family="Helvetica,sans-Serif" font-size="10.00">vnix::units::flt::operator&quot;&quot;_mug</text>
</a>
</g>
</g>
<!-- Node1&#45;&gt;Node2 -->
<g id="edge1" class="edge"><title>Node1&#45;&gt;Node2</title>
<path fill="none" stroke="midnightblue" d="M113.398,-71.3243C137.365,-76.6816 165.324,-82.9311 187.91,-87.9799"/>
<polygon fill="midnightblue" stroke="midnightblue" points="113.921,-67.8548 103.398,-69.089 112.394,-74.6862 113.921,-67.8548"/>
</g>
<!-- Node3 -->
<g id="node3" class="node"><title>Node3</title>
<g id="a_node3"><a xlink:href="namespacevnix_1_1units_1_1dbl.html#afd87d2db4858a8ddd72349e4a28c4409" target="_top" xlink:title="Interpret a number, suffixed with &#39;_mug&#39;, as a (literal) number of micrograms. ">
<polygon fill="white" stroke="black" points="155,-50 155,-69 308,-69 308,-50 155,-50"/>
<text text-anchor="middle" x="231.5" y="-57" font-family="Helvetica,sans-Serif" font-size="10.00">vnix::units::dbl::operator&quot;&quot;_mug</text>
</a>
</g>
</g>
<!-- Node1&#45;&gt;Node3 -->
<g id="edge2" class="edge"><title>Node1&#45;&gt;Node3</title>
<path fill="none" stroke="midnightblue" d="M129.157,-59.5C137.589,-59.5 146.245,-59.5 154.775,-59.5"/>
<polygon fill="midnightblue" stroke="midnightblue" points="129.004,-56.0001 119.004,-59.5 129.004,-63.0001 129.004,-56.0001"/>
</g>
<!-- Node4 -->
<g id="node4" class="node"><title>Node4</title>
<g id="a_node4"><a xlink:href="namespacevnix_1_1units_1_1ldbl.html#a8b8a4656fff697f7002fdc7c9e1abc37" target="_top" xlink:title="Interpret a number, suffixed with &#39;_mug&#39;, as a (literal) number of micrograms. ">
<polygon fill="white" stroke="black" points="187,-0.5 187,-30.5 276,-30.5 276,-0.5 187,-0.5"/>
<text text-anchor="start" x="195" y="-18.5" font-family="Helvetica,sans-Serif" font-size="10.00">vnix::units::ldbl::</text>
<text text-anchor="middle" x="231.5" y="-7.5" font-family="Helvetica,sans-Serif" font-size="10.00">operator&quot;&quot;_mug</text>
</a>
</g>
</g>
<!-- Node1&#45;&gt;Node4 -->
<g id="edge3" class="edge"><title>Node1&#45;&gt;Node4</title>
<path fill="none" stroke="midnightblue" d="M107.303,-47.3864C132.119,-40.9634 162.42,-33.1208 186.76,-26.8208"/>
<polygon fill="midnightblue" stroke="midnightblue" points="106.191,-44.0586 97.3875,-49.9527 107.945,-50.8353 106.191,-44.0586"/>
</g>
</g>
</svg>
