<?xml version="1.0" encoding="UTF-8" standalone="no"?>
<!DOCTYPE svg PUBLIC "-//W3C//DTD SVG 1.1//EN"
 "http://www.w3.org/Graphics/SVG/1.1/DTD/svg11.dtd">
<!-- Generated by graphviz version 2.38.0 (20140413.2041)
 -->
<!-- Title: vnix::units::picometers Pages: 1 -->
<svg width="308pt" height="116pt"
 viewBox="0.00 0.00 308.00 115.50" xmlns="http://www.w3.org/2000/svg" xmlns:xlink="http://www.w3.org/1999/xlink">
<g id="graph0" class="graph" transform="scale(1 1) rotate(0) translate(4 111.5)">
<title>vnix::units::picometers</title>
<polygon fill="white" stroke="none" points="-4,4 -4,-111.5 304,-111.5 304,4 -4,4"/>
<!-- Node1 -->
<g id="node1" class="node"><title>Node1</title>
<polygon fill="#bfbfbf" stroke="black" points="0,-50 0,-69 116,-69 116,-50 0,-50"/>
<text text-anchor="middle" x="58" y="-57" font-family="Helvetica,sans-Serif" font-size="10.00">vnix::units::picometers</text>
</g>
<!-- Node2 -->
<g id="node2" class="node"><title>Node2</title>
<g id="a_node2"><a xlink:href="namespacevnix_1_1units_1_1flt.html#aa98e4730cb19f6a69145af86e1ec98df" target="_top" xlink:title="Interpret a number, suffixed with &#39;_pm&#39;, as a (literal) number of picometers. ">
<polygon fill="white" stroke="black" points="154.5,-88 154.5,-107 297.5,-107 297.5,-88 154.5,-88"/>
<text text-anchor="middle" x="226" y="-95" font-family="Helvetica,sans-Serif" font-size="10.00">vnix::units::flt::operator&quot;&quot;_pm</text>
</a>
</g>
</g>
<!-- Node1&#45;&gt;Node2 -->
<g id="edge1" class="edge"><title>Node1&#45;&gt;Node2</title>
<path fill="none" stroke="midnightblue" d="M110.653,-71.3243C134.056,-76.6816 161.357,-82.9311 183.412,-87.9799"/>
<polygon fill="midnightblue" stroke="midnightblue" points="111.418,-67.9088 100.889,-69.089 109.856,-74.7323 111.418,-67.9088"/>
</g>
<!-- Node3 -->
<g id="node3" class="node"><title>Node3</title>
<g id="a_node3"><a xlink:href="namespacevnix_1_1units_1_1dbl.html#aaed90162d0a958f868d8cb5765923d8c" target="_top" xlink:title="Interpret a number, suffixed with &#39;_pm&#39;, as a (literal) number of picometers. ">
<polygon fill="white" stroke="black" points="152,-50 152,-69 300,-69 300,-50 152,-50"/>
<text text-anchor="middle" x="226" y="-57" font-family="Helvetica,sans-Serif" font-size="10.00">vnix::units::dbl::operator&quot;&quot;_pm</text>
</a>
</g>
</g>
<!-- Node1&#45;&gt;Node3 -->
<g id="edge2" class="edge"><title>Node1&#45;&gt;Node3</title>
<path fill="none" stroke="midnightblue" d="M126.292,-59.5C134.737,-59.5 143.407,-59.5 151.935,-59.5"/>
<polygon fill="midnightblue" stroke="midnightblue" points="126.128,-56.0001 116.128,-59.5 126.128,-63.0001 126.128,-56.0001"/>
</g>
<!-- Node4 -->
<g id="node4" class="node"><title>Node4</title>
<g id="a_node4"><a xlink:href="namespacevnix_1_1units_1_1ldbl.html#a5d24e467cb5c75152e6beea31e9a5dba" target="_top" xlink:title="Interpret a number, suffixed with &#39;_pm&#39;, as a (literal) number of picometers. ">
<polygon fill="white" stroke="black" points="181.5,-0.5 181.5,-30.5 270.5,-30.5 270.5,-0.5 181.5,-0.5"/>
<text text-anchor="start" x="189.5" y="-18.5" font-family="Helvetica,sans-Serif" font-size="10.00">vnix::units::ldbl::</text>
<text text-anchor="middle" x="226" y="-7.5" font-family="Helvetica,sans-Serif" font-size="10.00">operator&quot;&quot;_pm</text>
</a>
</g>
</g>
<!-- Node1&#45;&gt;Node4 -->
<g id="edge3" class="edge"><title>Node1&#45;&gt;Node4</title>
<path fill="none" stroke="midnightblue" d="M104.909,-47.3313C128.795,-41.0001 157.84,-33.3015 181.382,-27.0614"/>
<polygon fill="midnightblue" stroke="midnightblue" points="103.789,-44.0073 95.0195,-49.9527 105.583,-50.7736 103.789,-44.0073"/>
</g>
</g>
</svg>
