<?xml version="1.0" encoding="UTF-8" standalone="no"?>
<!DOCTYPE svg PUBLIC "-//W3C//DTD SVG 1.1//EN"
 "http://www.w3.org/Graphics/SVG/1.1/DTD/svg11.dtd">
<!-- Generated by graphviz version 2.38.0 (20140413.2041)
 -->
<!-- Title: vnix::rat::operator+ Pages: 1 -->
<svg width="279pt" height="78pt"
 viewBox="0.00 0.00 279.00 77.50" xmlns="http://www.w3.org/2000/svg" xmlns:xlink="http://www.w3.org/1999/xlink">
<g id="graph0" class="graph" transform="scale(1 1) rotate(0) translate(4 73.5)">
<title>vnix::rat::operator+</title>
<polygon fill="white" stroke="none" points="-4,4 -4,-73.5 275,-73.5 275,4 -4,4"/>
<!-- Node1 -->
<g id="node1" class="node"><title>Node1</title>
<polygon fill="#bfbfbf" stroke="black" points="0,-28 0,-47 99,-47 99,-28 0,-28"/>
<text text-anchor="middle" x="49.5" y="-35" font-family="Helvetica,sans-Serif" font-size="10.00">vnix::rat::operator+</text>
</g>
<!-- Node2 -->
<g id="node2" class="node"><title>Node2</title>
<g id="a_node2"><a xlink:href="dim-test_8cpp.html#a880e8bc45cf483023990dbbadf0a6726" target="_top" xlink:title="TEST_CASE">
<polygon fill="white" stroke="black" points="165.5,-50 165.5,-69 240.5,-69 240.5,-50 165.5,-50"/>
<text text-anchor="middle" x="203" y="-57" font-family="Helvetica,sans-Serif" font-size="10.00">TEST_CASE</text>
</a>
</g>
</g>
<!-- Node1&#45;&gt;Node2 -->
<g id="edge1" class="edge"><title>Node1&#45;&gt;Node2</title>
<path fill="none" stroke="midnightblue" d="M109.276,-46.0351C128.155,-48.7767 148.518,-51.7336 165.338,-54.1762"/>
<polygon fill="midnightblue" stroke="midnightblue" points="109.669,-42.5555 99.2695,-44.582 108.663,-49.4829 109.669,-42.5555"/>
</g>
<!-- Node3 -->
<g id="node3" class="node"><title>Node3</title>
<g id="a_node3"><a xlink:href="classvnix_1_1units_1_1basic__dim.html#ac577fbc4dbec83494e47bed879674353" target="_top" xlink:title="Function used to add corresponding exponents. ">
<polygon fill="white" stroke="black" points="135,-0.5 135,-30.5 271,-30.5 271,-0.5 135,-0.5"/>
<text text-anchor="start" x="143" y="-18.5" font-family="Helvetica,sans-Serif" font-size="10.00">vnix::units::basic</text>
<text text-anchor="middle" x="203" y="-7.5" font-family="Helvetica,sans-Serif" font-size="10.00">_dim&lt; dim_base_off &gt;::add</text>
</a>
</g>
</g>
<!-- Node1&#45;&gt;Node3 -->
<g id="edge2" class="edge"><title>Node1&#45;&gt;Node3</title>
<path fill="none" stroke="midnightblue" d="M109.299,-28.9615C117.664,-27.7469 126.319,-26.49 134.828,-25.2544"/>
<polygon fill="midnightblue" stroke="midnightblue" points="108.663,-25.5171 99.2695,-30.418 109.669,-32.4445 108.663,-25.5171"/>
</g>
</g>
</svg>
