<?xml version="1.0" encoding="UTF-8" standalone="no"?>
<!DOCTYPE svg PUBLIC "-//W3C//DTD SVG 1.1//EN"
 "http://www.w3.org/Graphics/SVG/1.1/DTD/svg11.dtd">
<!-- Generated by graphviz version 2.38.0 (20140413.2041)
 -->
<!-- Title: vnix::units::micrometers Pages: 1 -->
<svg width="322pt" height="116pt"
 viewBox="0.00 0.00 322.00 115.50" xmlns="http://www.w3.org/2000/svg" xmlns:xlink="http://www.w3.org/1999/xlink">
<g id="graph0" class="graph" transform="scale(1 1) rotate(0) translate(4 111.5)">
<title>vnix::units::micrometers</title>
<polygon fill="white" stroke="none" points="-4,4 -4,-111.5 318,-111.5 318,4 -4,4"/>
<!-- Node1 -->
<g id="node1" class="node"><title>Node1</title>
<polygon fill="#bfbfbf" stroke="black" points="0,-50 0,-69 122,-69 122,-50 0,-50"/>
<text text-anchor="middle" x="61" y="-57" font-family="Helvetica,sans-Serif" font-size="10.00">vnix::units::micrometers</text>
</g>
<!-- Node2 -->
<g id="node2" class="node"><title>Node2</title>
<g id="a_node2"><a xlink:href="namespacevnix_1_1units_1_1flt.html#aa2261280d2565e94e11026f456424e8d" target="_top" xlink:title="Interpret a number, suffixed with &#39;_mum&#39;, as a (literal) number of micrometers. ">
<polygon fill="white" stroke="black" points="160,-88 160,-107 312,-107 312,-88 160,-88"/>
<text text-anchor="middle" x="236" y="-95" font-family="Helvetica,sans-Serif" font-size="10.00">vnix::units::flt::operator&quot;&quot;_mum</text>
</a>
</g>
</g>
<!-- Node1&#45;&gt;Node2 -->
<g id="edge1" class="edge"><title>Node1&#45;&gt;Node2</title>
<path fill="none" stroke="midnightblue" d="M115.505,-71.2526C139.967,-76.6258 168.571,-82.9086 191.659,-87.9799"/>
<polygon fill="midnightblue" stroke="midnightblue" points="116.173,-67.816 105.655,-69.089 114.671,-74.653 116.173,-67.816"/>
</g>
<!-- Node3 -->
<g id="node3" class="node"><title>Node3</title>
<g id="a_node3"><a xlink:href="namespacevnix_1_1units_1_1dbl.html#ad8e80c9795df432f3bb8f834a59b3ee9" target="_top" xlink:title="Interpret a number, suffixed with &#39;_mum&#39;, as a (literal) number of micrometers. ">
<polygon fill="white" stroke="black" points="158,-50 158,-69 314,-69 314,-50 158,-50"/>
<text text-anchor="middle" x="236" y="-57" font-family="Helvetica,sans-Serif" font-size="10.00">vnix::units::dbl::operator&quot;&quot;_mum</text>
</a>
</g>
</g>
<!-- Node1&#45;&gt;Node3 -->
<g id="edge2" class="edge"><title>Node1&#45;&gt;Node3</title>
<path fill="none" stroke="midnightblue" d="M132.159,-59.5C140.575,-59.5 149.206,-59.5 157.716,-59.5"/>
<polygon fill="midnightblue" stroke="midnightblue" points="132.022,-56.0001 122.021,-59.5 132.021,-63.0001 132.022,-56.0001"/>
</g>
<!-- Node4 -->
<g id="node4" class="node"><title>Node4</title>
<g id="a_node4"><a xlink:href="namespacevnix_1_1units_1_1ldbl.html#a56fdc93c17faaedf2870dbdeb54fd6d8" target="_top" xlink:title="Interpret a number, suffixed with &#39;_mum&#39;, as a (literal) number of micrometers. ">
<polygon fill="white" stroke="black" points="191.5,-0.5 191.5,-30.5 280.5,-30.5 280.5,-0.5 191.5,-0.5"/>
<text text-anchor="start" x="199.5" y="-18.5" font-family="Helvetica,sans-Serif" font-size="10.00">vnix::units::ldbl::</text>
<text text-anchor="middle" x="236" y="-7.5" font-family="Helvetica,sans-Serif" font-size="10.00">operator&quot;&quot;_mum</text>
</a>
</g>
</g>
<!-- Node1&#45;&gt;Node4 -->
<g id="edge3" class="edge"><title>Node1&#45;&gt;Node4</title>
<path fill="none" stroke="midnightblue" d="M109.405,-47.4433C135.02,-40.9284 166.429,-32.9401 191.429,-26.5818"/>
<polygon fill="midnightblue" stroke="midnightblue" points="108.367,-44.0957 99.5384,-49.9527 110.093,-50.8797 108.367,-44.0957"/>
</g>
</g>
</svg>
