<?xml version="1.0" encoding="UTF-8" standalone="no"?>
<!DOCTYPE svg PUBLIC "-//W3C//DTD SVG 1.1//EN"
 "http://www.w3.org/Graphics/SVG/1.1/DTD/svg11.dtd">
<!-- Generated by graphviz version 2.38.0 (20140413.2041)
 -->
<!-- Title: vnix::units::picocoulombs Pages: 1 -->
<svg width="319pt" height="116pt"
 viewBox="0.00 0.00 319.00 115.50" xmlns="http://www.w3.org/2000/svg" xmlns:xlink="http://www.w3.org/1999/xlink">
<g id="graph0" class="graph" transform="scale(1 1) rotate(0) translate(4 111.5)">
<title>vnix::units::picocoulombs</title>
<polygon fill="white" stroke="none" points="-4,4 -4,-111.5 315,-111.5 315,4 -4,4"/>
<!-- Node1 -->
<g id="node1" class="node"><title>Node1</title>
<polygon fill="#bfbfbf" stroke="black" points="0,-50 0,-69 128,-69 128,-50 0,-50"/>
<text text-anchor="middle" x="64" y="-57" font-family="Helvetica,sans-Serif" font-size="10.00">vnix::units::picocoulombs</text>
</g>
<!-- Node2 -->
<g id="node2" class="node"><title>Node2</title>
<g id="a_node2"><a xlink:href="namespacevnix_1_1units_1_1flt.html#af2e633b66ee196dcd5237940dc18a73b" target="_top" xlink:title="Interpret a number, suffixed with &#39;_pC&#39;, as a (literal) number of picocoulombs. ">
<polygon fill="white" stroke="black" points="166,-88 166,-107 309,-107 309,-88 166,-88"/>
<text text-anchor="middle" x="237.5" y="-95" font-family="Helvetica,sans-Serif" font-size="10.00">vnix::units::flt::operator&quot;&quot;_pC</text>
</a>
</g>
</g>
<!-- Node1&#45;&gt;Node2 -->
<g id="edge1" class="edge"><title>Node1&#45;&gt;Node2</title>
<path fill="none" stroke="midnightblue" d="M118.041,-71.2526C142.291,-76.6258 170.647,-82.9086 193.535,-87.9799"/>
<polygon fill="midnightblue" stroke="midnightblue" points="118.797,-67.8352 108.277,-69.089 117.283,-74.6695 118.797,-67.8352"/>
</g>
<!-- Node3 -->
<g id="node3" class="node"><title>Node3</title>
<g id="a_node3"><a xlink:href="namespacevnix_1_1units_1_1dbl.html#a43d3f6b4c5a18083e73332ab23ef30af" target="_top" xlink:title="Interpret a number, suffixed with &#39;_pC&#39;, as a (literal) number of picocoulombs. ">
<polygon fill="white" stroke="black" points="164,-50 164,-69 311,-69 311,-50 164,-50"/>
<text text-anchor="middle" x="237.5" y="-57" font-family="Helvetica,sans-Serif" font-size="10.00">vnix::units::dbl::operator&quot;&quot;_pC</text>
</a>
</g>
</g>
<!-- Node1&#45;&gt;Node3 -->
<g id="edge2" class="edge"><title>Node1&#45;&gt;Node3</title>
<path fill="none" stroke="midnightblue" d="M138.509,-59.5C146.902,-59.5 155.454,-59.5 163.836,-59.5"/>
<polygon fill="midnightblue" stroke="midnightblue" points="138.373,-56.0001 128.373,-59.5 138.373,-63.0001 138.373,-56.0001"/>
</g>
<!-- Node4 -->
<g id="node4" class="node"><title>Node4</title>
<g id="a_node4"><a xlink:href="namespacevnix_1_1units_1_1ldbl.html#a4c6c4e41b1bbecb31bc7efa6a0f54174" target="_top" xlink:title="Interpret a number, suffixed with &#39;_pC&#39;, as a (literal) number of picocoulombs. ">
<polygon fill="white" stroke="black" points="193,-0.5 193,-30.5 282,-30.5 282,-0.5 193,-0.5"/>
<text text-anchor="start" x="201" y="-18.5" font-family="Helvetica,sans-Serif" font-size="10.00">vnix::units::ldbl::</text>
<text text-anchor="middle" x="237.5" y="-7.5" font-family="Helvetica,sans-Serif" font-size="10.00">operator&quot;&quot;_pC</text>
</a>
</g>
</g>
<!-- Node1&#45;&gt;Node4 -->
<g id="edge3" class="edge"><title>Node1&#45;&gt;Node4</title>
<path fill="none" stroke="midnightblue" d="M111.956,-47.4529C137.251,-40.9633 168.252,-33.0097 192.996,-26.6613"/>
<polygon fill="midnightblue" stroke="midnightblue" points="111.029,-44.0773 102.213,-49.9527 112.769,-50.8577 111.029,-44.0773"/>
</g>
</g>
</svg>
