<?xml version="1.0" encoding="UTF-8" standalone="no"?>
<!DOCTYPE svg PUBLIC "-//W3C//DTD SVG 1.1//EN"
 "http://www.w3.org/Graphics/SVG/1.1/DTD/svg11.dtd">
<!-- Generated by graphviz version 2.38.0 (20140413.2041)
 -->
<!-- Title: vnix::units::microkelvins Pages: 1 -->
<svg width="321pt" height="116pt"
 viewBox="0.00 0.00 321.00 115.50" xmlns="http://www.w3.org/2000/svg" xmlns:xlink="http://www.w3.org/1999/xlink">
<g id="graph0" class="graph" transform="scale(1 1) rotate(0) translate(4 111.5)">
<title>vnix::units::microkelvins</title>
<polygon fill="white" stroke="none" points="-4,4 -4,-111.5 317,-111.5 317,4 -4,4"/>
<!-- Node1 -->
<g id="node1" class="node"><title>Node1</title>
<polygon fill="#bfbfbf" stroke="black" points="0,-50 0,-69 122,-69 122,-50 0,-50"/>
<text text-anchor="middle" x="61" y="-57" font-family="Helvetica,sans-Serif" font-size="10.00">vnix::units::microkelvins</text>
</g>
<!-- Node2 -->
<g id="node2" class="node"><title>Node2</title>
<g id="a_node2"><a xlink:href="namespacevnix_1_1units_1_1flt.html#a6d3a5a619ac9d8a3f037b363fa2e4a00" target="_top" xlink:title="Interpret a number, suffixed with &#39;_muK&#39;, as a (literal) number of microkelvins. ">
<polygon fill="white" stroke="black" points="160.5,-88 160.5,-107 310.5,-107 310.5,-88 160.5,-88"/>
<text text-anchor="middle" x="235.5" y="-95" font-family="Helvetica,sans-Serif" font-size="10.00">vnix::units::flt::operator&quot;&quot;_muK</text>
</a>
</g>
</g>
<!-- Node1&#45;&gt;Node2 -->
<g id="edge1" class="edge"><title>Node1&#45;&gt;Node2</title>
<path fill="none" stroke="midnightblue" d="M115.351,-71.2526C139.742,-76.6258 168.263,-82.9086 191.284,-87.9799"/>
<polygon fill="midnightblue" stroke="midnightblue" points="116.048,-67.8224 105.529,-69.089 114.542,-74.6584 116.048,-67.8224"/>
</g>
<!-- Node3 -->
<g id="node3" class="node"><title>Node3</title>
<g id="a_node3"><a xlink:href="namespacevnix_1_1units_1_1dbl.html#ad648592a97e711b84f1453cf76da37b8" target="_top" xlink:title="Interpret a number, suffixed with &#39;_muK&#39;, as a (literal) number of microkelvins. ">
<polygon fill="white" stroke="black" points="158,-50 158,-69 313,-69 313,-50 158,-50"/>
<text text-anchor="middle" x="235.5" y="-57" font-family="Helvetica,sans-Serif" font-size="10.00">vnix::units::dbl::operator&quot;&quot;_muK</text>
</a>
</g>
</g>
<!-- Node1&#45;&gt;Node3 -->
<g id="edge2" class="edge"><title>Node1&#45;&gt;Node3</title>
<path fill="none" stroke="midnightblue" d="M132.421,-59.5C140.793,-59.5 149.372,-59.5 157.827,-59.5"/>
<polygon fill="midnightblue" stroke="midnightblue" points="132.332,-56.0001 122.332,-59.5 132.332,-63.0001 132.332,-56.0001"/>
</g>
<!-- Node4 -->
<g id="node4" class="node"><title>Node4</title>
<g id="a_node4"><a xlink:href="namespacevnix_1_1units_1_1ldbl.html#a5f932ede3c31f49c0815ef51ba2bb03f" target="_top" xlink:title="Interpret a number, suffixed with &#39;_muK&#39;, as a (literal) number of microkelvins. ">
<polygon fill="white" stroke="black" points="191,-0.5 191,-30.5 280,-30.5 280,-0.5 191,-0.5"/>
<text text-anchor="start" x="199" y="-18.5" font-family="Helvetica,sans-Serif" font-size="10.00">vnix::units::ldbl::</text>
<text text-anchor="middle" x="235.5" y="-7.5" font-family="Helvetica,sans-Serif" font-size="10.00">operator&quot;&quot;_muK</text>
</a>
</g>
</g>
<!-- Node1&#45;&gt;Node4 -->
<g id="edge3" class="edge"><title>Node1&#45;&gt;Node4</title>
<path fill="none" stroke="midnightblue" d="M109.23,-47.4529C134.672,-40.9633 165.854,-33.0097 190.743,-26.6613"/>
<polygon fill="midnightblue" stroke="midnightblue" points="108.255,-44.0896 99.4299,-49.9527 109.985,-50.8724 108.255,-44.0896"/>
</g>
</g>
</svg>
