<?xml version="1.0" encoding="UTF-8" standalone="no"?>
<!DOCTYPE svg PUBLIC "-//W3C//DTD SVG 1.1//EN"
 "http://www.w3.org/Graphics/SVG/1.1/DTD/svg11.dtd">
<!-- Generated by graphviz version 2.38.0 (20140413.2041)
 -->
<!-- Title: vnix::units::centimeters Pages: 1 -->
<svg width="311pt" height="116pt"
 viewBox="0.00 0.00 311.00 115.50" xmlns="http://www.w3.org/2000/svg" xmlns:xlink="http://www.w3.org/1999/xlink">
<g id="graph0" class="graph" transform="scale(1 1) rotate(0) translate(4 111.5)">
<title>vnix::units::centimeters</title>
<polygon fill="white" stroke="none" points="-4,4 -4,-111.5 307,-111.5 307,4 -4,4"/>
<!-- Node1 -->
<g id="node1" class="node"><title>Node1</title>
<polygon fill="#bfbfbf" stroke="black" points="0,-50 0,-69 119,-69 119,-50 0,-50"/>
<text text-anchor="middle" x="59.5" y="-57" font-family="Helvetica,sans-Serif" font-size="10.00">vnix::units::centimeters</text>
</g>
<!-- Node2 -->
<g id="node2" class="node"><title>Node2</title>
<g id="a_node2"><a xlink:href="namespacevnix_1_1units_1_1flt.html#ae9e16ca5be48c2a1e0992a8b25c8a514" target="_top" xlink:title="Interpret a number, suffixed with &#39;_cm&#39;, as a (literal) number of centimeters. ">
<polygon fill="white" stroke="black" points="157.5,-88 157.5,-107 300.5,-107 300.5,-88 157.5,-88"/>
<text text-anchor="middle" x="229" y="-95" font-family="Helvetica,sans-Serif" font-size="10.00">vnix::units::flt::operator&quot;&quot;_cm</text>
</a>
</g>
</g>
<!-- Node1&#45;&gt;Node2 -->
<g id="edge1" class="edge"><title>Node1&#45;&gt;Node2</title>
<path fill="none" stroke="midnightblue" d="M112.62,-71.3243C136.235,-76.6816 163.782,-82.9311 186.037,-87.9799"/>
<polygon fill="midnightblue" stroke="midnightblue" points="113.294,-67.8883 102.767,-69.089 111.745,-74.7148 113.294,-67.8883"/>
</g>
<!-- Node3 -->
<g id="node3" class="node"><title>Node3</title>
<g id="a_node3"><a xlink:href="namespacevnix_1_1units_1_1dbl.html#a855c1dea510fa9105e08c3081da40539" target="_top" xlink:title="Interpret a number, suffixed with &#39;_cm&#39;, as a (literal) number of centimeters. ">
<polygon fill="white" stroke="black" points="155,-50 155,-69 303,-69 303,-50 155,-50"/>
<text text-anchor="middle" x="229" y="-57" font-family="Helvetica,sans-Serif" font-size="10.00">vnix::units::dbl::operator&quot;&quot;_cm</text>
</a>
</g>
</g>
<!-- Node1&#45;&gt;Node3 -->
<g id="edge2" class="edge"><title>Node1&#45;&gt;Node3</title>
<path fill="none" stroke="midnightblue" d="M129.216,-59.5C137.627,-59.5 146.247,-59.5 154.722,-59.5"/>
<polygon fill="midnightblue" stroke="midnightblue" points="129.083,-56.0001 119.083,-59.5 129.083,-63.0001 129.083,-56.0001"/>
</g>
<!-- Node4 -->
<g id="node4" class="node"><title>Node4</title>
<g id="a_node4"><a xlink:href="namespacevnix_1_1units_1_1ldbl.html#a142a7a712a0b1fe825c2ef103f2ec0f3" target="_top" xlink:title="Interpret a number, suffixed with &#39;_cm&#39;, as a (literal) number of centimeters. ">
<polygon fill="white" stroke="black" points="184.5,-0.5 184.5,-30.5 273.5,-30.5 273.5,-0.5 184.5,-0.5"/>
<text text-anchor="start" x="192.5" y="-18.5" font-family="Helvetica,sans-Serif" font-size="10.00">vnix::units::ldbl::</text>
<text text-anchor="middle" x="229" y="-7.5" font-family="Helvetica,sans-Serif" font-size="10.00">operator&quot;&quot;_cm</text>
</a>
</g>
</g>
<!-- Node1&#45;&gt;Node4 -->
<g id="edge3" class="edge"><title>Node1&#45;&gt;Node4</title>
<path fill="none" stroke="midnightblue" d="M106.539,-47.4061C130.798,-41.0337 160.391,-33.2599 184.294,-26.981"/>
<polygon fill="midnightblue" stroke="midnightblue" points="105.628,-44.0268 96.845,-49.9527 107.406,-50.7971 105.628,-44.0268"/>
</g>
</g>
</svg>
