<?xml version="1.0" encoding="UTF-8" standalone="no"?>
<!DOCTYPE svg PUBLIC "-//W3C//DTD SVG 1.1//EN"
 "http://www.w3.org/Graphics/SVG/1.1/DTD/svg11.dtd">
<!-- Generated by graphviz version 2.38.0 (20140413.2041)
 -->
<!-- Title: vnix::units::seconds Pages: 1 -->
<svg width="288pt" height="116pt"
 viewBox="0.00 0.00 288.00 115.50" xmlns="http://www.w3.org/2000/svg" xmlns:xlink="http://www.w3.org/1999/xlink">
<g id="graph0" class="graph" transform="scale(1 1) rotate(0) translate(4 111.5)">
<title>vnix::units::seconds</title>
<polygon fill="white" stroke="none" points="-4,4 -4,-111.5 284,-111.5 284,4 -4,4"/>
<!-- Node1 -->
<g id="node1" class="node"><title>Node1</title>
<polygon fill="#bfbfbf" stroke="black" points="0,-50 0,-69 104,-69 104,-50 0,-50"/>
<text text-anchor="middle" x="52" y="-57" font-family="Helvetica,sans-Serif" font-size="10.00">vnix::units::seconds</text>
</g>
<!-- Node2 -->
<g id="node2" class="node"><title>Node2</title>
<g id="a_node2"><a xlink:href="namespacevnix_1_1units_1_1flt.html#a2b730fd28dc4c6f381a23d8d3f15c3b8" target="_top" xlink:title="Interpret a number, suffixed with &#39;_s&#39;, as a (literal) number of seconds. ">
<polygon fill="white" stroke="black" points="142.5,-88 142.5,-107 277.5,-107 277.5,-88 142.5,-88"/>
<text text-anchor="middle" x="210" y="-95" font-family="Helvetica,sans-Serif" font-size="10.00">vnix::units::flt::operator&quot;&quot;_s</text>
</a>
</g>
</g>
<!-- Node1&#45;&gt;Node2 -->
<g id="edge1" class="edge"><title>Node1&#45;&gt;Node2</title>
<path fill="none" stroke="midnightblue" d="M102.132,-71.468C123.993,-76.7931 149.376,-82.9762 169.918,-87.9799"/>
<polygon fill="midnightblue" stroke="midnightblue" points="102.91,-68.0552 92.3654,-69.089 101.253,-74.8563 102.91,-68.0552"/>
</g>
<!-- Node3 -->
<g id="node3" class="node"><title>Node3</title>
<g id="a_node3"><a xlink:href="namespacevnix_1_1units_1_1dbl.html#a19cbc85cb11ad4964c58eaf804a291e0" target="_top" xlink:title="Interpret a number, suffixed with &#39;_s&#39;, as a (literal) number of seconds. ">
<polygon fill="white" stroke="black" points="140,-50 140,-69 280,-69 280,-50 140,-50"/>
<text text-anchor="middle" x="210" y="-57" font-family="Helvetica,sans-Serif" font-size="10.00">vnix::units::dbl::operator&quot;&quot;_s</text>
</a>
</g>
</g>
<!-- Node1&#45;&gt;Node3 -->
<g id="edge2" class="edge"><title>Node1&#45;&gt;Node3</title>
<path fill="none" stroke="midnightblue" d="M114.214,-59.5C122.657,-59.5 131.376,-59.5 139.948,-59.5"/>
<polygon fill="midnightblue" stroke="midnightblue" points="114.08,-56.0001 104.08,-59.5 114.08,-63.0001 114.08,-56.0001"/>
</g>
<!-- Node4 -->
<g id="node4" class="node"><title>Node4</title>
<g id="a_node4"><a xlink:href="namespacevnix_1_1units_1_1ldbl.html#afa7a53584d320462c87642885387a06d" target="_top" xlink:title="Interpret a number, suffixed with &#39;_s&#39;, as a (literal) number of seconds. ">
<polygon fill="white" stroke="black" points="165.5,-0.5 165.5,-30.5 254.5,-30.5 254.5,-0.5 165.5,-0.5"/>
<text text-anchor="start" x="173.5" y="-18.5" font-family="Helvetica,sans-Serif" font-size="10.00">vnix::units::ldbl::</text>
<text text-anchor="middle" x="210" y="-7.5" font-family="Helvetica,sans-Serif" font-size="10.00">operator&quot;&quot;_s</text>
</a>
</g>
</g>
<!-- Node1&#45;&gt;Node4 -->
<g id="edge3" class="edge"><title>Node1&#45;&gt;Node4</title>
<path fill="none" stroke="midnightblue" d="M96.6905,-47.177C118.162,-41.1211 143.964,-33.8434 165.421,-27.7916"/>
<polygon fill="midnightblue" stroke="midnightblue" points="95.524,-43.8694 86.8497,-49.9527 97.4243,-50.6066 95.524,-43.8694"/>
</g>
</g>
</svg>
