<?xml version="1.0" encoding="UTF-8" standalone="no"?>
<!DOCTYPE svg PUBLIC "-//W3C//DTD SVG 1.1//EN"
 "http://www.w3.org/Graphics/SVG/1.1/DTD/svg11.dtd">
<!-- Generated by graphviz version 2.38.0 (20140413.2041)
 -->
<!-- Title: vnix::units::kelvins Pages: 1 -->
<svg width="283pt" height="116pt"
 viewBox="0.00 0.00 283.00 115.50" xmlns="http://www.w3.org/2000/svg" xmlns:xlink="http://www.w3.org/1999/xlink">
<g id="graph0" class="graph" transform="scale(1 1) rotate(0) translate(4 111.5)">
<title>vnix::units::kelvins</title>
<polygon fill="white" stroke="none" points="-4,4 -4,-111.5 279,-111.5 279,4 -4,4"/>
<!-- Node1 -->
<g id="node1" class="node"><title>Node1</title>
<polygon fill="#bfbfbf" stroke="black" points="0,-50 0,-69 98,-69 98,-50 0,-50"/>
<text text-anchor="middle" x="49" y="-57" font-family="Helvetica,sans-Serif" font-size="10.00">vnix::units::kelvins</text>
</g>
<!-- Node2 -->
<g id="node2" class="node"><title>Node2</title>
<g id="a_node2"><a xlink:href="namespacevnix_1_1units_1_1flt.html#ae969635a78db978af76804a4a04852fb" target="_top" xlink:title="Interpret a number, suffixed with &#39;_K&#39;, as a (literal) number of kelvins. ">
<polygon fill="white" stroke="black" points="136,-88 136,-107 273,-107 273,-88 136,-88"/>
<text text-anchor="middle" x="204.5" y="-95" font-family="Helvetica,sans-Serif" font-size="10.00">vnix::units::flt::operator&quot;&quot;_K</text>
</a>
</g>
</g>
<!-- Node1&#45;&gt;Node2 -->
<g id="edge1" class="edge"><title>Node1&#45;&gt;Node2</title>
<path fill="none" stroke="midnightblue" d="M98.6352,-71.54C120.08,-76.8488 144.923,-82.9988 165.044,-87.9799"/>
<polygon fill="midnightblue" stroke="midnightblue" points="99.2826,-68.0947 88.7345,-69.089 97.6004,-74.8896 99.2826,-68.0947"/>
</g>
<!-- Node3 -->
<g id="node3" class="node"><title>Node3</title>
<g id="a_node3"><a xlink:href="namespacevnix_1_1units_1_1dbl.html#acdd6696fd3b8567c58addc919ea67df8" target="_top" xlink:title="Interpret a number, suffixed with &#39;_K&#39;, as a (literal) number of kelvins. ">
<polygon fill="white" stroke="black" points="134,-50 134,-69 275,-69 275,-50 134,-50"/>
<text text-anchor="middle" x="204.5" y="-57" font-family="Helvetica,sans-Serif" font-size="10.00">vnix::units::dbl::operator&quot;&quot;_K</text>
</a>
</g>
</g>
<!-- Node1&#45;&gt;Node3 -->
<g id="edge2" class="edge"><title>Node1&#45;&gt;Node3</title>
<path fill="none" stroke="midnightblue" d="M108.197,-59.5C116.589,-59.5 125.295,-59.5 133.881,-59.5"/>
<polygon fill="midnightblue" stroke="midnightblue" points="108.147,-56.0001 98.1472,-59.5 108.147,-63.0001 108.147,-56.0001"/>
</g>
<!-- Node4 -->
<g id="node4" class="node"><title>Node4</title>
<g id="a_node4"><a xlink:href="namespacevnix_1_1units_1_1ldbl.html#a1a7cabc36537442a9c953e97c8bba599" target="_top" xlink:title="Interpret a number, suffixed with &#39;_K&#39;, as a (literal) number of kelvins. ">
<polygon fill="white" stroke="black" points="160,-0.5 160,-30.5 249,-30.5 249,-0.5 160,-0.5"/>
<text text-anchor="start" x="168" y="-18.5" font-family="Helvetica,sans-Serif" font-size="10.00">vnix::units::ldbl::</text>
<text text-anchor="middle" x="204.5" y="-7.5" font-family="Helvetica,sans-Serif" font-size="10.00">operator&quot;&quot;_K</text>
</a>
</g>
</g>
<!-- Node1&#45;&gt;Node4 -->
<g id="edge3" class="edge"><title>Node1&#45;&gt;Node4</title>
<path fill="none" stroke="midnightblue" d="M93.1567,-47.1294C113.965,-41.1649 138.876,-34.024 159.76,-28.0378"/>
<polygon fill="midnightblue" stroke="midnightblue" points="91.9556,-43.8326 83.3072,-49.9527 93.8845,-50.5616 91.9556,-43.8326"/>
</g>
</g>
</svg>
