<?xml version="1.0" encoding="UTF-8" standalone="no"?>
<!DOCTYPE svg PUBLIC "-//W3C//DTD SVG 1.1//EN"
 "http://www.w3.org/Graphics/SVG/1.1/DTD/svg11.dtd">
<!-- Generated by graphviz version 2.38.0 (20140413.2041)
 -->
<!-- Title: vnix::units::charge_dim Pages: 1 -->
<svg width="317pt" height="235pt"
 viewBox="0.00 0.00 317.00 235.00" xmlns="http://www.w3.org/2000/svg" xmlns:xlink="http://www.w3.org/1999/xlink">
<g id="graph0" class="graph" transform="scale(1 1) rotate(0) translate(4 231)">
<title>vnix::units::charge_dim</title>
<polygon fill="white" stroke="none" points="-4,4 -4,-231 313,-231 313,4 -4,4"/>
<!-- Node1 -->
<g id="node1" class="node"><title>Node1</title>
<polygon fill="#bfbfbf" stroke="black" points="0,-104 0,-123 118,-123 118,-104 0,-104"/>
<text text-anchor="middle" x="59" y="-111" font-family="Helvetica,sans-Serif" font-size="10.00">vnix::units::charge_dim</text>
</g>
<!-- Node2 -->
<g id="node2" class="node"><title>Node2</title>
<g id="a_node2"><a xlink:href="structvnix_1_1units_1_1impl_1_1coulombs.html#abffe75a6db133e1ac66734dfa6cf1cce" target="_top" xlink:title="Initialize from number of coulombs. ">
<polygon fill="white" stroke="black" points="178,-196.5 178,-226.5 285,-226.5 285,-196.5 178,-196.5"/>
<text text-anchor="start" x="186" y="-214.5" font-family="Helvetica,sans-Serif" font-size="10.00">vnix::units::impl::</text>
<text text-anchor="middle" x="231.5" y="-203.5" font-family="Helvetica,sans-Serif" font-size="10.00">coulombs::coulombs</text>
</a>
</g>
</g>
<!-- Node1&#45;&gt;Node2 -->
<g id="edge1" class="edge"><title>Node1&#45;&gt;Node2</title>
<path fill="none" stroke="midnightblue" d="M76.9096,-129.971C94.7612,-146.558 124.37,-171.868 154,-187.5 161.387,-191.397 169.513,-194.786 177.627,-197.69"/>
<polygon fill="midnightblue" stroke="midnightblue" points="79.2454,-127.362 69.577,-123.029 74.4332,-132.446 79.2454,-127.362"/>
</g>
<!-- Node3 -->
<g id="node3" class="node"><title>Node3</title>
<g id="a_node3"><a xlink:href="structvnix_1_1units_1_1impl_1_1millicoulombs.html#a2df1b5e848ee318e6f4fd5ff2abb92fa" target="_top" xlink:title="Initialize from number of millicoulombs. ">
<polygon fill="white" stroke="black" points="161,-147.5 161,-177.5 302,-177.5 302,-147.5 161,-147.5"/>
<text text-anchor="start" x="169" y="-165.5" font-family="Helvetica,sans-Serif" font-size="10.00">vnix::units::impl::</text>
<text text-anchor="middle" x="231.5" y="-154.5" font-family="Helvetica,sans-Serif" font-size="10.00">millicoulombs::millicoulombs</text>
</a>
</g>
</g>
<!-- Node1&#45;&gt;Node3 -->
<g id="edge2" class="edge"><title>Node1&#45;&gt;Node3</title>
<path fill="none" stroke="midnightblue" d="M103.028,-125.866C125.856,-132.426 154.089,-140.54 178.178,-147.463"/>
<polygon fill="midnightblue" stroke="midnightblue" points="103.857,-122.462 93.2789,-123.064 101.923,-129.19 103.857,-122.462"/>
</g>
<!-- Node4 -->
<g id="node4" class="node"><title>Node4</title>
<g id="a_node4"><a xlink:href="structvnix_1_1units_1_1impl_1_1microcoulombs.html#aea2fb5920a8862dd9283f70af193ab63" target="_top" xlink:title="Initialize from number of microcoulombs. ">
<polygon fill="white" stroke="black" points="154,-98.5 154,-128.5 309,-128.5 309,-98.5 154,-98.5"/>
<text text-anchor="start" x="162" y="-116.5" font-family="Helvetica,sans-Serif" font-size="10.00">vnix::units::impl::</text>
<text text-anchor="middle" x="231.5" y="-105.5" font-family="Helvetica,sans-Serif" font-size="10.00">microcoulombs::microcoulombs</text>
</a>
</g>
</g>
<!-- Node1&#45;&gt;Node4 -->
<g id="edge3" class="edge"><title>Node1&#45;&gt;Node4</title>
<path fill="none" stroke="midnightblue" d="M128.315,-113.5C136.719,-113.5 145.353,-113.5 153.87,-113.5"/>
<polygon fill="midnightblue" stroke="midnightblue" points="128.2,-110 118.2,-113.5 128.2,-117 128.2,-110"/>
</g>
<!-- Node5 -->
<g id="node5" class="node"><title>Node5</title>
<g id="a_node5"><a xlink:href="structvnix_1_1units_1_1impl_1_1nanocoulombs.html#a5aa44dd316e387f557f79178c228aaec" target="_top" xlink:title="Initialize from number of nanocoulombs. ">
<polygon fill="white" stroke="black" points="157,-49.5 157,-79.5 306,-79.5 306,-49.5 157,-49.5"/>
<text text-anchor="start" x="165" y="-67.5" font-family="Helvetica,sans-Serif" font-size="10.00">vnix::units::impl::</text>
<text text-anchor="middle" x="231.5" y="-56.5" font-family="Helvetica,sans-Serif" font-size="10.00">nanocoulombs::nanocoulombs</text>
</a>
</g>
</g>
<!-- Node1&#45;&gt;Node5 -->
<g id="edge4" class="edge"><title>Node1&#45;&gt;Node5</title>
<path fill="none" stroke="midnightblue" d="M103.028,-101.134C125.856,-94.5735 154.089,-86.4597 178.178,-79.537"/>
<polygon fill="midnightblue" stroke="midnightblue" points="101.923,-97.81 93.2789,-103.936 103.857,-104.538 101.923,-97.81"/>
</g>
<!-- Node6 -->
<g id="node6" class="node"><title>Node6</title>
<g id="a_node6"><a xlink:href="structvnix_1_1units_1_1impl_1_1picocoulombs.html#aec5eb36a02da30039d7f85eb794fcde9" target="_top" xlink:title="Initialize from number of picocoulombs. ">
<polygon fill="white" stroke="black" points="160,-0.5 160,-30.5 303,-30.5 303,-0.5 160,-0.5"/>
<text text-anchor="start" x="168" y="-18.5" font-family="Helvetica,sans-Serif" font-size="10.00">vnix::units::impl::</text>
<text text-anchor="middle" x="231.5" y="-7.5" font-family="Helvetica,sans-Serif" font-size="10.00">picocoulombs::picocoulombs</text>
</a>
</g>
</g>
<!-- Node1&#45;&gt;Node6 -->
<g id="edge5" class="edge"><title>Node1&#45;&gt;Node6</title>
<path fill="none" stroke="midnightblue" d="M77.279,-97.0738C95.2233,-80.7753 124.722,-56.0446 154,-40.5 161.034,-36.7653 168.729,-33.4543 176.441,-30.5635"/>
<polygon fill="midnightblue" stroke="midnightblue" points="74.8563,-94.5471 69.8897,-103.906 79.6084,-99.6869 74.8563,-94.5471"/>
</g>
</g>
</svg>
