<?xml version="1.0" encoding="UTF-8" standalone="no"?>
<!DOCTYPE svg PUBLIC "-//W3C//DTD SVG 1.1//EN"
 "http://www.w3.org/Graphics/SVG/1.1/DTD/svg11.dtd">
<!-- Generated by graphviz version 2.38.0 (20140413.2041)
 -->
<!-- Title: vnix::units::millimeters Pages: 1 -->
<svg width="310pt" height="116pt"
 viewBox="0.00 0.00 310.00 115.50" xmlns="http://www.w3.org/2000/svg" xmlns:xlink="http://www.w3.org/1999/xlink">
<g id="graph0" class="graph" transform="scale(1 1) rotate(0) translate(4 111.5)">
<title>vnix::units::millimeters</title>
<polygon fill="white" stroke="none" points="-4,4 -4,-111.5 306,-111.5 306,4 -4,4"/>
<!-- Node1 -->
<g id="node1" class="node"><title>Node1</title>
<polygon fill="#bfbfbf" stroke="black" points="0,-50 0,-69 115,-69 115,-50 0,-50"/>
<text text-anchor="middle" x="57.5" y="-57" font-family="Helvetica,sans-Serif" font-size="10.00">vnix::units::millimeters</text>
</g>
<!-- Node2 -->
<g id="node2" class="node"><title>Node2</title>
<g id="a_node2"><a xlink:href="namespacevnix_1_1units_1_1flt.html#abf2334279ae58349e2fc91557090f40f" target="_top" xlink:title="Interpret a number, suffixed with &#39;_mm&#39;, as a (literal) number of millimeters. ">
<polygon fill="white" stroke="black" points="153.5,-88 153.5,-107 299.5,-107 299.5,-88 153.5,-88"/>
<text text-anchor="middle" x="226.5" y="-95" font-family="Helvetica,sans-Serif" font-size="10.00">vnix::units::flt::operator&quot;&quot;_mm</text>
</a>
</g>
</g>
<!-- Node1&#45;&gt;Node2 -->
<g id="edge1" class="edge"><title>Node1&#45;&gt;Node2</title>
<path fill="none" stroke="midnightblue" d="M110.465,-71.3243C134.009,-76.6816 161.474,-82.9311 183.662,-87.9799"/>
<polygon fill="midnightblue" stroke="midnightblue" points="111.168,-67.8951 100.641,-69.089 109.615,-74.7206 111.168,-67.8951"/>
</g>
<!-- Node3 -->
<g id="node3" class="node"><title>Node3</title>
<g id="a_node3"><a xlink:href="namespacevnix_1_1units_1_1dbl.html#aedab19b180cfb1257d774cc53e77340a" target="_top" xlink:title="Interpret a number, suffixed with &#39;_mm&#39;, as a (literal) number of millimeters. ">
<polygon fill="white" stroke="black" points="151,-50 151,-69 302,-69 302,-50 151,-50"/>
<text text-anchor="middle" x="226.5" y="-57" font-family="Helvetica,sans-Serif" font-size="10.00">vnix::units::dbl::operator&quot;&quot;_mm</text>
</a>
</g>
</g>
<!-- Node1&#45;&gt;Node3 -->
<g id="edge2" class="edge"><title>Node1&#45;&gt;Node3</title>
<path fill="none" stroke="midnightblue" d="M125.218,-59.5C133.681,-59.5 142.384,-59.5 150.959,-59.5"/>
<polygon fill="midnightblue" stroke="midnightblue" points="125.039,-56.0001 115.039,-59.5 125.039,-63.0001 125.039,-56.0001"/>
</g>
<!-- Node4 -->
<g id="node4" class="node"><title>Node4</title>
<g id="a_node4"><a xlink:href="namespacevnix_1_1units_1_1ldbl.html#ac5ea486251a032cff9cabe315f50d3d2" target="_top" xlink:title="Interpret a number, suffixed with &#39;_mm&#39;, as a (literal) number of millimeters. ">
<polygon fill="white" stroke="black" points="182,-0.5 182,-30.5 271,-30.5 271,-0.5 182,-0.5"/>
<text text-anchor="start" x="190" y="-18.5" font-family="Helvetica,sans-Serif" font-size="10.00">vnix::units::ldbl::</text>
<text text-anchor="middle" x="226.5" y="-7.5" font-family="Helvetica,sans-Serif" font-size="10.00">operator&quot;&quot;_mm</text>
</a>
</g>
</g>
<!-- Node1&#45;&gt;Node4 -->
<g id="edge3" class="edge"><title>Node1&#45;&gt;Node4</title>
<path fill="none" stroke="midnightblue" d="M104.725,-47.3211C128.85,-40.9647 158.199,-33.232 181.924,-26.981"/>
<polygon fill="midnightblue" stroke="midnightblue" points="103.515,-44.0203 94.7365,-49.9527 105.298,-50.7893 103.515,-44.0203"/>
</g>
</g>
</svg>
