<?xml version="1.0" encoding="UTF-8" standalone="no"?>
<!DOCTYPE svg PUBLIC "-//W3C//DTD SVG 1.1//EN"
 "http://www.w3.org/Graphics/SVG/1.1/DTD/svg11.dtd">
<!-- Generated by graphviz version 2.38.0 (20140413.2041)
 -->
<!-- Title: vnix::units::coulombs Pages: 1 -->
<svg width="296pt" height="116pt"
 viewBox="0.00 0.00 296.00 115.50" xmlns="http://www.w3.org/2000/svg" xmlns:xlink="http://www.w3.org/1999/xlink">
<g id="graph0" class="graph" transform="scale(1 1) rotate(0) translate(4 111.5)">
<title>vnix::units::coulombs</title>
<polygon fill="white" stroke="none" points="-4,4 -4,-111.5 292,-111.5 292,4 -4,4"/>
<!-- Node1 -->
<g id="node1" class="node"><title>Node1</title>
<polygon fill="#bfbfbf" stroke="black" points="0,-50 0,-69 110,-69 110,-50 0,-50"/>
<text text-anchor="middle" x="55" y="-57" font-family="Helvetica,sans-Serif" font-size="10.00">vnix::units::coulombs</text>
</g>
<!-- Node2 -->
<g id="node2" class="node"><title>Node2</title>
<g id="a_node2"><a xlink:href="namespacevnix_1_1units_1_1flt.html#a947b76494885524eb57c4e45cb9943d8" target="_top" xlink:title="Interpret a number, suffixed with &#39;_C&#39;, as a (literal) number of coulombs. ">
<polygon fill="white" stroke="black" points="148.5,-88 148.5,-107 285.5,-107 285.5,-88 148.5,-88"/>
<text text-anchor="middle" x="217" y="-95" font-family="Helvetica,sans-Serif" font-size="10.00">vnix::units::flt::operator&quot;&quot;_C</text>
</a>
</g>
</g>
<!-- Node1&#45;&gt;Node2 -->
<g id="edge1" class="edge"><title>Node1&#45;&gt;Node2</title>
<path fill="none" stroke="midnightblue" d="M106.392,-71.468C128.813,-76.7931 154.847,-82.9762 175.916,-87.9799"/>
<polygon fill="midnightblue" stroke="midnightblue" points="106.913,-67.9945 96.3748,-69.089 105.295,-74.8051 106.913,-67.9945"/>
</g>
<!-- Node3 -->
<g id="node3" class="node"><title>Node3</title>
<g id="a_node3"><a xlink:href="namespacevnix_1_1units_1_1dbl.html#a1cefb333a5741bdecfa314348b74054e" target="_top" xlink:title="Interpret a number, suffixed with &#39;_C&#39;, as a (literal) number of coulombs. ">
<polygon fill="white" stroke="black" points="146,-50 146,-69 288,-69 288,-50 146,-50"/>
<text text-anchor="middle" x="217" y="-57" font-family="Helvetica,sans-Serif" font-size="10.00">vnix::units::dbl::operator&quot;&quot;_C</text>
</a>
</g>
</g>
<!-- Node1&#45;&gt;Node3 -->
<g id="edge2" class="edge"><title>Node1&#45;&gt;Node3</title>
<path fill="none" stroke="midnightblue" d="M120.246,-59.5C128.626,-59.5 137.247,-59.5 145.72,-59.5"/>
<polygon fill="midnightblue" stroke="midnightblue" points="120.169,-56.0001 110.169,-59.5 120.169,-63.0001 120.169,-56.0001"/>
</g>
<!-- Node4 -->
<g id="node4" class="node"><title>Node4</title>
<g id="a_node4"><a xlink:href="namespacevnix_1_1units_1_1ldbl.html#a8b41de18c6e9f1f84994837c2d9bdc3a" target="_top" xlink:title="Interpret a number, suffixed with &#39;_C&#39;, as a (literal) number of coulombs. ">
<polygon fill="white" stroke="black" points="172.5,-0.5 172.5,-30.5 261.5,-30.5 261.5,-0.5 172.5,-0.5"/>
<text text-anchor="start" x="180.5" y="-18.5" font-family="Helvetica,sans-Serif" font-size="10.00">vnix::units::ldbl::</text>
<text text-anchor="middle" x="217" y="-7.5" font-family="Helvetica,sans-Serif" font-size="10.00">operator&quot;&quot;_C</text>
</a>
</g>
</g>
<!-- Node1&#45;&gt;Node4 -->
<g id="edge3" class="edge"><title>Node1&#45;&gt;Node4</title>
<path fill="none" stroke="midnightblue" d="M100.367,-47.2991C122.872,-41.1102 150.106,-33.621 172.489,-27.4655"/>
<polygon fill="midnightblue" stroke="midnightblue" points="99.4316,-43.9263 90.7176,-49.9527 101.288,-50.6757 99.4316,-43.9263"/>
</g>
</g>
</svg>
