<?xml version="1.0" encoding="UTF-8" standalone="no"?>
<!DOCTYPE svg PUBLIC "-//W3C//DTD SVG 1.1//EN"
 "http://www.w3.org/Graphics/SVG/1.1/DTD/svg11.dtd">
<!-- Generated by graphviz version 2.38.0 (20140413.2041)
 -->
<!-- Title: vnix/rat/normalized&#45;pair.hpp Pages: 1 -->
<svg width="250pt" height="151pt"
 viewBox="0.00 0.00 250.00 151.00" xmlns="http://www.w3.org/2000/svg" xmlns:xlink="http://www.w3.org/1999/xlink">
<g id="graph0" class="graph" transform="scale(1 1) rotate(0) translate(4 147)">
<title>vnix/rat/normalized&#45;pair.hpp</title>
<polygon fill="white" stroke="none" points="-4,4 -4,-147 246,-147 246,4 -4,4"/>
<!-- Node1 -->
<g id="node1" class="node"><title>Node1</title>
<polygon fill="#bfbfbf" stroke="black" points="44.5,-112.5 44.5,-142.5 143.5,-142.5 143.5,-112.5 44.5,-112.5"/>
<text text-anchor="start" x="52.5" y="-130.5" font-family="Helvetica,sans-Serif" font-size="10.00">vnix/rat/normalized</text>
<text text-anchor="middle" x="94" y="-119.5" font-family="Helvetica,sans-Serif" font-size="10.00">&#45;pair.hpp</text>
</g>
<!-- Node2 -->
<g id="node2" class="node"><title>Node2</title>
<polygon fill="white" stroke="#bfbfbf" points="0,-56.5 0,-75.5 40,-75.5 40,-56.5 0,-56.5"/>
<text text-anchor="middle" x="20" y="-63.5" font-family="Helvetica,sans-Serif" font-size="10.00">utility</text>
</g>
<!-- Node1&#45;&gt;Node2 -->
<g id="edge1" class="edge"><title>Node1&#45;&gt;Node2</title>
<path fill="none" stroke="midnightblue" d="M76.463,-112.399C65.1557,-103.308 50.4581,-91.4899 38.8929,-82.1909"/>
<polygon fill="midnightblue" stroke="midnightblue" points="40.7541,-79.1964 30.7677,-75.6578 36.3677,-84.6517 40.7541,-79.1964"/>
</g>
<!-- Node3 -->
<g id="node3" class="node"><title>Node3</title>
<g id="a_node3"><a xlink:href="gcd_8hpp.html" target="_top" xlink:title="Definition of vnix::gcd. ">
<polygon fill="white" stroke="black" points="58,-56.5 58,-75.5 130,-75.5 130,-56.5 58,-56.5"/>
<text text-anchor="middle" x="94" y="-63.5" font-family="Helvetica,sans-Serif" font-size="10.00">vnix/gcd.hpp</text>
</a>
</g>
</g>
<!-- Node1&#45;&gt;Node3 -->
<g id="edge2" class="edge"><title>Node1&#45;&gt;Node3</title>
<path fill="none" stroke="midnightblue" d="M94,-112.399C94,-104.466 94,-94.458 94,-85.8583"/>
<polygon fill="midnightblue" stroke="midnightblue" points="97.5001,-85.6577 94,-75.6578 90.5001,-85.6578 97.5001,-85.6577"/>
</g>
<!-- Node4 -->
<g id="node4" class="node"><title>Node4</title>
<g id="a_node4"><a xlink:href="int-types_8hpp.html" target="_top" xlink:title="Definition of vnix::int_types. ">
<polygon fill="white" stroke="black" points="148,-56.5 148,-75.5 242,-75.5 242,-56.5 148,-56.5"/>
<text text-anchor="middle" x="195" y="-63.5" font-family="Helvetica,sans-Serif" font-size="10.00">vnix/int&#45;types.hpp</text>
</a>
</g>
</g>
<!-- Node1&#45;&gt;Node4 -->
<g id="edge3" class="edge"><title>Node1&#45;&gt;Node4</title>
<path fill="none" stroke="midnightblue" d="M117.936,-112.399C134.125,-102.862 155.407,-90.3248 171.503,-80.8422"/>
<polygon fill="midnightblue" stroke="midnightblue" points="173.464,-83.7492 180.304,-75.6578 169.911,-77.718 173.464,-83.7492"/>
</g>
<!-- Node5 -->
<g id="node5" class="node"><title>Node5</title>
<polygon fill="white" stroke="#bfbfbf" points="172,-0.5 172,-19.5 218,-19.5 218,-0.5 172,-0.5"/>
<text text-anchor="middle" x="195" y="-7.5" font-family="Helvetica,sans-Serif" font-size="10.00">cstdint</text>
</g>
<!-- Node4&#45;&gt;Node5 -->
<g id="edge4" class="edge"><title>Node4&#45;&gt;Node5</title>
<path fill="none" stroke="midnightblue" d="M195,-56.083C195,-49.0059 195,-38.8611 195,-29.9865"/>
<polygon fill="midnightblue" stroke="midnightblue" points="198.5,-29.751 195,-19.7511 191.5,-29.7511 198.5,-29.751"/>
</g>
</g>
</svg>
