<?xml version="1.0" encoding="UTF-8" standalone="no"?>
<!DOCTYPE svg PUBLIC "-//W3C//DTD SVG 1.1//EN"
 "http://www.w3.org/Graphics/SVG/1.1/DTD/svg11.dtd">
<!-- Generated by graphviz version 2.38.0 (20140413.2041)
 -->
<!-- Title: vnix/rat.hpp Pages: 1 -->
<svg width="378pt" height="319pt"
 viewBox="0.00 0.00 377.50 319.00" xmlns="http://www.w3.org/2000/svg" xmlns:xlink="http://www.w3.org/1999/xlink">
<g id="graph0" class="graph" transform="scale(1 1) rotate(0) translate(4 315)">
<title>vnix/rat.hpp</title>
<polygon fill="white" stroke="none" points="-4,4 -4,-315 373.5,-315 373.5,4 -4,4"/>
<!-- Node1 -->
<g id="node1" class="node"><title>Node1</title>
<polygon fill="#bfbfbf" stroke="black" points="62,-291.5 62,-310.5 130,-310.5 130,-291.5 62,-291.5"/>
<text text-anchor="middle" x="96" y="-298.5" font-family="Helvetica,sans-Serif" font-size="10.00">vnix/rat.hpp</text>
</g>
<!-- Node2 -->
<g id="node2" class="node"><title>Node2</title>
<g id="a_node2"><a xlink:href="rational_8hpp.html" target="_top" xlink:title="Definition of vnix::rat::rational and operators for it. ">
<polygon fill="white" stroke="black" points="45,-235.5 45,-254.5 147,-254.5 147,-235.5 45,-235.5"/>
<text text-anchor="middle" x="96" y="-242.5" font-family="Helvetica,sans-Serif" font-size="10.00">vnix/rat/rational.hpp</text>
</a>
</g>
</g>
<!-- Node1&#45;&gt;Node2 -->
<g id="edge1" class="edge"><title>Node1&#45;&gt;Node2</title>
<path fill="none" stroke="midnightblue" d="M96,-291.083C96,-284.006 96,-273.861 96,-264.986"/>
<polygon fill="midnightblue" stroke="midnightblue" points="99.5001,-264.751 96,-254.751 92.5001,-264.751 99.5001,-264.751"/>
</g>
<!-- Node3 -->
<g id="node3" class="node"><title>Node3</title>
<polygon fill="white" stroke="#bfbfbf" points="14,-179.5 14,-198.5 68,-198.5 68,-179.5 14,-179.5"/>
<text text-anchor="middle" x="41" y="-186.5" font-family="Helvetica,sans-Serif" font-size="10.00">iostream</text>
</g>
<!-- Node2&#45;&gt;Node3 -->
<g id="edge2" class="edge"><title>Node2&#45;&gt;Node3</title>
<path fill="none" stroke="midnightblue" d="M86.9179,-235.083C78.8287,-227.141 66.8046,-215.335 57.0898,-205.797"/>
<polygon fill="midnightblue" stroke="midnightblue" points="59.5009,-203.26 49.9131,-198.751 54.5967,-208.254 59.5009,-203.26"/>
</g>
<!-- Node4 -->
<g id="node4" class="node"><title>Node4</title>
<g id="a_node4"><a xlink:href="common-denom_8hpp.html" target="_top" xlink:title="Definition of vnix::rat::common_denom. ">
<polygon fill="white" stroke="black" points="0,-118 0,-137 140,-137 140,-118 0,-118"/>
<text text-anchor="middle" x="70" y="-125" font-family="Helvetica,sans-Serif" font-size="10.00">vnix/rat/common&#45;denom.hpp</text>
</a>
</g>
</g>
<!-- Node2&#45;&gt;Node4 -->
<g id="edge3" class="edge"><title>Node2&#45;&gt;Node4</title>
<path fill="none" stroke="midnightblue" d="M94.0458,-235.319C89.8485,-216.673 79.8919,-172.443 74.1942,-147.132"/>
<polygon fill="midnightblue" stroke="midnightblue" points="77.5877,-146.269 71.9769,-137.282 70.7586,-147.807 77.5877,-146.269"/>
</g>
<!-- Node8 -->
<g id="node8" class="node"><title>Node8</title>
<g id="a_node8"><a xlink:href="encoding_8hpp.html" target="_top" xlink:title="Definition of vnix::rat::encoding. ">
<polygon fill="white" stroke="black" points="150,-179.5 150,-198.5 260,-198.5 260,-179.5 150,-179.5"/>
<text text-anchor="middle" x="205" y="-186.5" font-family="Helvetica,sans-Serif" font-size="10.00">vnix/rat/encoding.hpp</text>
</a>
</g>
</g>
<!-- Node2&#45;&gt;Node8 -->
<g id="edge7" class="edge"><title>Node2&#45;&gt;Node8</title>
<path fill="none" stroke="midnightblue" d="M113.513,-235.324C131.072,-226.625 158.331,-213.12 178.531,-203.113"/>
<polygon fill="midnightblue" stroke="midnightblue" points="180.124,-206.23 187.531,-198.655 177.016,-199.958 180.124,-206.23"/>
</g>
<!-- Node5 -->
<g id="node5" class="node"><title>Node5</title>
<g id="a_node5"><a xlink:href="gcd_8hpp.html" target="_top" xlink:title="Definition of vnix::gcd. ">
<polygon fill="white" stroke="black" points="191,-56.5 191,-75.5 263,-75.5 263,-56.5 191,-56.5"/>
<text text-anchor="middle" x="227" y="-63.5" font-family="Helvetica,sans-Serif" font-size="10.00">vnix/gcd.hpp</text>
</a>
</g>
</g>
<!-- Node4&#45;&gt;Node5 -->
<g id="edge4" class="edge"><title>Node4&#45;&gt;Node5</title>
<path fill="none" stroke="midnightblue" d="M92.4943,-117.975C119.309,-107.813 164.315,-90.7564 194.809,-79.1996"/>
<polygon fill="midnightblue" stroke="midnightblue" points="196.437,-82.3258 204.547,-75.5091 193.956,-75.7801 196.437,-82.3258"/>
</g>
<!-- Node6 -->
<g id="node6" class="node"><title>Node6</title>
<g id="a_node6"><a xlink:href="int-types_8hpp.html" target="_top" xlink:title="Definition of vnix::int_types. ">
<polygon fill="white" stroke="black" points="42,-56.5 42,-75.5 136,-75.5 136,-56.5 42,-56.5"/>
<text text-anchor="middle" x="89" y="-63.5" font-family="Helvetica,sans-Serif" font-size="10.00">vnix/int&#45;types.hpp</text>
</a>
</g>
</g>
<!-- Node4&#45;&gt;Node6 -->
<g id="edge5" class="edge"><title>Node4&#45;&gt;Node6</title>
<path fill="none" stroke="midnightblue" d="M72.7222,-117.975C75.4312,-109.492 79.6743,-96.2043 83.1492,-85.3222"/>
<polygon fill="midnightblue" stroke="midnightblue" points="86.5749,-86.0999 86.2828,-75.5091 79.9067,-83.9705 86.5749,-86.0999"/>
</g>
<!-- Node7 -->
<g id="node7" class="node"><title>Node7</title>
<polygon fill="white" stroke="#bfbfbf" points="66,-0.5 66,-19.5 112,-19.5 112,-0.5 66,-0.5"/>
<text text-anchor="middle" x="89" y="-7.5" font-family="Helvetica,sans-Serif" font-size="10.00">cstdint</text>
</g>
<!-- Node6&#45;&gt;Node7 -->
<g id="edge6" class="edge"><title>Node6&#45;&gt;Node7</title>
<path fill="none" stroke="midnightblue" d="M89,-56.083C89,-49.0059 89,-38.8611 89,-29.9865"/>
<polygon fill="midnightblue" stroke="midnightblue" points="92.5001,-29.751 89,-19.7511 85.5001,-29.7511 92.5001,-29.751"/>
</g>
<!-- Node9 -->
<g id="node9" class="node"><title>Node9</title>
<g id="a_node9"><a xlink:href="bit-range_8hpp.html" target="_top" xlink:title="Definition of vnix::bit, vnix::bit_range. ">
<polygon fill="white" stroke="black" points="158,-118 158,-137 252,-137 252,-118 158,-118"/>
<text text-anchor="middle" x="205" y="-125" font-family="Helvetica,sans-Serif" font-size="10.00">vnix/bit&#45;range.hpp</text>
</a>
</g>
</g>
<!-- Node8&#45;&gt;Node9 -->
<g id="edge8" class="edge"><title>Node8&#45;&gt;Node9</title>
<path fill="none" stroke="midnightblue" d="M205,-179.475C205,-171.08 205,-157.981 205,-147.163"/>
<polygon fill="midnightblue" stroke="midnightblue" points="208.5,-147.009 205,-137.009 201.5,-147.009 208.5,-147.009"/>
</g>
<!-- Node10 -->
<g id="node10" class="node"><title>Node10</title>
<g id="a_node10"><a xlink:href="normalized-pair_8hpp.html" target="_top" xlink:title="Definition of vnix::rat::normalized_pair. ">
<polygon fill="white" stroke="black" points="270.5,-112.5 270.5,-142.5 369.5,-142.5 369.5,-112.5 270.5,-112.5"/>
<text text-anchor="start" x="278.5" y="-130.5" font-family="Helvetica,sans-Serif" font-size="10.00">vnix/rat/normalized</text>
<text text-anchor="middle" x="320" y="-119.5" font-family="Helvetica,sans-Serif" font-size="10.00">&#45;pair.hpp</text>
</a>
</g>
</g>
<!-- Node8&#45;&gt;Node10 -->
<g id="edge9" class="edge"><title>Node8&#45;&gt;Node10</title>
<path fill="none" stroke="midnightblue" d="M221.477,-179.475C237.707,-171.078 263.036,-157.973 283.947,-147.153"/>
<polygon fill="midnightblue" stroke="midnightblue" points="285.623,-150.227 292.897,-142.523 282.407,-144.01 285.623,-150.227"/>
</g>
<!-- Node10&#45;&gt;Node5 -->
<g id="edge11" class="edge"><title>Node10&#45;&gt;Node5</title>
<path fill="none" stroke="midnightblue" d="M297.96,-112.399C283.192,-102.951 263.823,-90.5589 249.053,-81.1089"/>
<polygon fill="midnightblue" stroke="midnightblue" points="250.842,-78.0988 240.532,-75.6578 247.07,-83.9953 250.842,-78.0988"/>
</g>
<!-- Node10&#45;&gt;Node6 -->
<g id="edge12" class="edge"><title>Node10&#45;&gt;Node6</title>
<path fill="none" stroke="midnightblue" d="M270.445,-113.736C229.225,-103.118 171.152,-88.1604 131.898,-78.0496"/>
<polygon fill="midnightblue" stroke="midnightblue" points="132.656,-74.6304 122.099,-75.5254 130.909,-81.4092 132.656,-74.6304"/>
</g>
<!-- Node11 -->
<g id="node11" class="node"><title>Node11</title>
<polygon fill="white" stroke="#bfbfbf" points="300,-56.5 300,-75.5 340,-75.5 340,-56.5 300,-56.5"/>
<text text-anchor="middle" x="320" y="-63.5" font-family="Helvetica,sans-Serif" font-size="10.00">utility</text>
</g>
<!-- Node10&#45;&gt;Node11 -->
<g id="edge10" class="edge"><title>Node10&#45;&gt;Node11</title>
<path fill="none" stroke="midnightblue" d="M320,-112.399C320,-104.466 320,-94.458 320,-85.8583"/>
<polygon fill="midnightblue" stroke="midnightblue" points="323.5,-85.6577 320,-75.6578 316.5,-85.6578 323.5,-85.6577"/>
</g>
</g>
</svg>
