<?xml version="1.0" encoding="UTF-8" standalone="no"?>
<!DOCTYPE svg PUBLIC "-//W3C//DTD SVG 1.1//EN"
 "http://www.w3.org/Graphics/SVG/1.1/DTD/svg11.dtd">
<!-- Generated by graphviz version 2.38.0 (20140413.2041)
 -->
<!-- Title: vnix/rat/rational.hpp Pages: 1 -->
<svg width="548pt" height="431pt"
 viewBox="0.00 0.00 548.00 431.00" xmlns="http://www.w3.org/2000/svg" xmlns:xlink="http://www.w3.org/1999/xlink">
<g id="graph0" class="graph" transform="scale(1 1) rotate(0) translate(4 427)">
<title>vnix/rat/rational.hpp</title>
<polygon fill="white" stroke="none" points="-4,4 -4,-427 544,-427 544,4 -4,4"/>
<!-- Node1 -->
<g id="node1" class="node"><title>Node1</title>
<polygon fill="#bfbfbf" stroke="black" points="159.5,-403.5 159.5,-422.5 261.5,-422.5 261.5,-403.5 159.5,-403.5"/>
<text text-anchor="middle" x="210.5" y="-410.5" font-family="Helvetica,sans-Serif" font-size="10.00">vnix/rat/rational.hpp</text>
</g>
<!-- Node2 -->
<g id="node2" class="node"><title>Node2</title>
<g id="a_node2"><a xlink:href="rat_8hpp.html" target="_top" xlink:title="Typedefs for class vnix::rat::rational. ">
<polygon fill="white" stroke="black" points="176.5,-347.5 176.5,-366.5 244.5,-366.5 244.5,-347.5 176.5,-347.5"/>
<text text-anchor="middle" x="210.5" y="-354.5" font-family="Helvetica,sans-Serif" font-size="10.00">vnix/rat.hpp</text>
</a>
</g>
</g>
<!-- Node1&#45;&gt;Node2 -->
<g id="edge1" class="edge"><title>Node1&#45;&gt;Node2</title>
<path fill="none" stroke="midnightblue" d="M210.5,-392.805C210.5,-383.91 210.5,-373.78 210.5,-366.751"/>
<polygon fill="midnightblue" stroke="midnightblue" points="207,-393.083 210.5,-403.083 214,-393.083 207,-393.083"/>
</g>
<!-- Node3 -->
<g id="node3" class="node"><title>Node3</title>
<g id="a_node3"><a xlink:href="common-denom-test_8cpp.html" target="_top" xlink:title="Test&#45;case for vnix::common_denom_params. ">
<polygon fill="white" stroke="black" points="0.5,-291.5 0.5,-310.5 144.5,-310.5 144.5,-291.5 0.5,-291.5"/>
<text text-anchor="middle" x="72.5" y="-298.5" font-family="Helvetica,sans-Serif" font-size="10.00">test/common&#45;denom&#45;test.cpp</text>
</a>
</g>
</g>
<!-- Node2&#45;&gt;Node3 -->
<g id="edge2" class="edge"><title>Node2&#45;&gt;Node3</title>
<path fill="none" stroke="midnightblue" d="M179.251,-343.772C153.329,-333.629 117.138,-319.467 94.2642,-310.516"/>
<polygon fill="midnightblue" stroke="midnightblue" points="178.046,-347.059 188.633,-347.444 180.596,-340.54 178.046,-347.059"/>
</g>
<!-- Node4 -->
<g id="node4" class="node"><title>Node4</title>
<g id="a_node4"><a xlink:href="dim_8hpp.html" target="_top" xlink:title="Definition of vnix::units::dim. ">
<polygon fill="white" stroke="black" points="162.5,-291.5 162.5,-310.5 258.5,-310.5 258.5,-291.5 162.5,-291.5"/>
<text text-anchor="middle" x="210.5" y="-298.5" font-family="Helvetica,sans-Serif" font-size="10.00">vnix/units/dim.hpp</text>
</a>
</g>
</g>
<!-- Node2&#45;&gt;Node4 -->
<g id="edge3" class="edge"><title>Node2&#45;&gt;Node4</title>
<path fill="none" stroke="midnightblue" d="M210.5,-336.805C210.5,-327.91 210.5,-317.78 210.5,-310.751"/>
<polygon fill="midnightblue" stroke="midnightblue" points="207,-337.083 210.5,-347.083 214,-337.083 207,-337.083"/>
</g>
<!-- Node15 -->
<g id="node15" class="node"><title>Node15</title>
<g id="a_node15"><a xlink:href="rational-test_8cpp.html" target="_top" xlink:title="Test&#45;cases for vnix::rat::rational. ">
<polygon fill="white" stroke="black" points="276.5,-291.5 276.5,-310.5 382.5,-310.5 382.5,-291.5 276.5,-291.5"/>
<text text-anchor="middle" x="329.5" y="-298.5" font-family="Helvetica,sans-Serif" font-size="10.00">test/rational&#45;test.cpp</text>
</a>
</g>
</g>
<!-- Node2&#45;&gt;Node15 -->
<g id="edge17" class="edge"><title>Node2&#45;&gt;Node15</title>
<path fill="none" stroke="midnightblue" d="M238.637,-343.232C260.896,-333.131 291.356,-319.309 310.732,-310.516"/>
<polygon fill="midnightblue" stroke="midnightblue" points="237.016,-340.124 229.356,-347.444 239.909,-346.498 237.016,-340.124"/>
</g>
<!-- Node5 -->
<g id="node5" class="node"><title>Node5</title>
<g id="a_node5"><a xlink:href="dim-test_8cpp.html" target="_top" xlink:title="Test&#45;cases for vnix::units::dim. ">
<polygon fill="white" stroke="black" points="44.5,-235.5 44.5,-254.5 134.5,-254.5 134.5,-235.5 44.5,-235.5"/>
<text text-anchor="middle" x="89.5" y="-242.5" font-family="Helvetica,sans-Serif" font-size="10.00">test/dim&#45;test.cpp</text>
</a>
</g>
</g>
<!-- Node4&#45;&gt;Node5 -->
<g id="edge4" class="edge"><title>Node4&#45;&gt;Node5</title>
<path fill="none" stroke="midnightblue" d="M182.194,-287.368C159.535,-277.255 128.374,-263.349 108.583,-254.516"/>
<polygon fill="midnightblue" stroke="midnightblue" points="180.769,-290.564 191.327,-291.444 183.622,-284.172 180.769,-290.564"/>
</g>
<!-- Node6 -->
<g id="node6" class="node"><title>Node6</title>
<g id="a_node6"><a xlink:href="dimval_8hpp.html" target="_top" xlink:title="Definition of vnix::units::dimval, descendants, and typedefs. ">
<polygon fill="white" stroke="black" points="133,-112.5 133,-131.5 242,-131.5 242,-112.5 133,-112.5"/>
<text text-anchor="middle" x="187.5" y="-119.5" font-family="Helvetica,sans-Serif" font-size="10.00">vnix/units/dimval.hpp</text>
</a>
</g>
</g>
<!-- Node4&#45;&gt;Node6 -->
<g id="edge5" class="edge"><title>Node4&#45;&gt;Node6</title>
<path fill="none" stroke="midnightblue" d="M196.514,-283.373C190.655,-275.34 184.512,-265.235 181.5,-255 168.287,-210.106 179.942,-152.94 185.222,-131.569"/>
<polygon fill="midnightblue" stroke="midnightblue" points="193.914,-285.731 202.827,-291.459 199.432,-281.423 193.914,-285.731"/>
</g>
<!-- Node11 -->
<g id="node11" class="node"><title>Node11</title>
<g id="a_node11"><a xlink:href="dyndim-base_8hpp.html" target="_top" xlink:title="Definition of vnix::units::dyndim_base. ">
<polygon fill="white" stroke="black" points="190.5,-235.5 190.5,-254.5 326.5,-254.5 326.5,-235.5 190.5,-235.5"/>
<text text-anchor="middle" x="258.5" y="-242.5" font-family="Helvetica,sans-Serif" font-size="10.00">vnix/units/dyndim&#45;base.hpp</text>
</a>
</g>
</g>
<!-- Node4&#45;&gt;Node11 -->
<g id="edge10" class="edge"><title>Node4&#45;&gt;Node11</title>
<path fill="none" stroke="midnightblue" d="M225.228,-283.431C233.64,-273.967 243.849,-262.483 250.721,-254.751"/>
<polygon fill="midnightblue" stroke="midnightblue" points="222.454,-281.284 218.426,-291.083 227.686,-285.934 222.454,-281.284"/>
</g>
<!-- Node12 -->
<g id="node12" class="node"><title>Node12</title>
<g id="a_node12"><a xlink:href="statdim-base_8hpp.html" target="_top" xlink:title="Definition of vnix::units::statdim_base. ">
<polygon fill="white" stroke="black" points="278.5,-168.5 278.5,-198.5 372.5,-198.5 372.5,-168.5 278.5,-168.5"/>
<text text-anchor="start" x="286.5" y="-186.5" font-family="Helvetica,sans-Serif" font-size="10.00">vnix/units/statdim</text>
<text text-anchor="middle" x="325.5" y="-175.5" font-family="Helvetica,sans-Serif" font-size="10.00">&#45;base.hpp</text>
</a>
</g>
</g>
<!-- Node4&#45;&gt;Node12 -->
<g id="edge16" class="edge"><title>Node4&#45;&gt;Node12</title>
<path fill="none" stroke="midnightblue" d="M258.308,-288.848C289.538,-280.484 326.195,-268.239 335.5,-255 347.229,-238.312 339.684,-213.849 332.839,-198.566"/>
<polygon fill="midnightblue" stroke="midnightblue" points="257.198,-285.52 248.401,-291.423 258.96,-292.294 257.198,-285.52"/>
</g>
<!-- Node7 -->
<g id="node7" class="node"><title>Node7</title>
<g id="a_node7"><a xlink:href="units_8hpp.html" target="_top" xlink:title="Definition of various units in namespaces vnix::units::flt, vnix::units::dbl, and vnix::units::ldbl...">
<polygon fill="white" stroke="black" points="149,-56.5 149,-75.5 226,-75.5 226,-56.5 149,-56.5"/>
<text text-anchor="middle" x="187.5" y="-63.5" font-family="Helvetica,sans-Serif" font-size="10.00">vnix/units.hpp</text>
</a>
</g>
</g>
<!-- Node6&#45;&gt;Node7 -->
<g id="edge6" class="edge"><title>Node6&#45;&gt;Node7</title>
<path fill="none" stroke="midnightblue" d="M187.5,-101.805C187.5,-92.9102 187.5,-82.7798 187.5,-75.7511"/>
<polygon fill="midnightblue" stroke="midnightblue" points="184,-102.083 187.5,-112.083 191,-102.083 184,-102.083"/>
</g>
<!-- Node8 -->
<g id="node8" class="node"><title>Node8</title>
<g id="a_node8"><a xlink:href="dimval-test_8cpp.html" target="_top" xlink:title="Test&#45;cases for vnix::units::dimval. ">
<polygon fill="white" stroke="black" points="0,-0.5 0,-19.5 103,-19.5 103,-0.5 0,-0.5"/>
<text text-anchor="middle" x="51.5" y="-7.5" font-family="Helvetica,sans-Serif" font-size="10.00">test/dimval&#45;test.cpp</text>
</a>
</g>
</g>
<!-- Node7&#45;&gt;Node8 -->
<g id="edge7" class="edge"><title>Node7&#45;&gt;Node8</title>
<path fill="none" stroke="midnightblue" d="M156.365,-52.6377C130.843,-42.504 95.3913,-28.4274 72.9488,-19.5164"/>
<polygon fill="midnightblue" stroke="midnightblue" points="155.365,-56.0061 165.95,-56.4435 157.948,-49.5002 155.365,-56.0061"/>
</g>
<!-- Node9 -->
<g id="node9" class="node"><title>Node9</title>
<g id="a_node9"><a xlink:href="eigen-compat-test_8cpp.html" target="_top" xlink:title="Test&#45;cases for compatibility with Eigen. ">
<polygon fill="white" stroke="black" points="121,-0.5 121,-19.5 254,-19.5 254,-0.5 121,-0.5"/>
<text text-anchor="middle" x="187.5" y="-7.5" font-family="Helvetica,sans-Serif" font-size="10.00">test/eigen&#45;compat&#45;test.cpp</text>
</a>
</g>
</g>
<!-- Node7&#45;&gt;Node9 -->
<g id="edge8" class="edge"><title>Node7&#45;&gt;Node9</title>
<path fill="none" stroke="midnightblue" d="M187.5,-45.8045C187.5,-36.9102 187.5,-26.7798 187.5,-19.7511"/>
<polygon fill="midnightblue" stroke="midnightblue" points="184,-46.083 187.5,-56.083 191,-46.083 184,-46.083"/>
</g>
<!-- Node10 -->
<g id="node10" class="node"><title>Node10</title>
<g id="a_node10"><a xlink:href="example1_8cpp.html" target="_top" xlink:title="test/example1.cpp">
<polygon fill="white" stroke="black" points="272,-0.5 272,-19.5 369,-19.5 369,-0.5 272,-0.5"/>
<text text-anchor="middle" x="320.5" y="-7.5" font-family="Helvetica,sans-Serif" font-size="10.00">test/example1.cpp</text>
</a>
</g>
</g>
<!-- Node7&#45;&gt;Node10 -->
<g id="edge9" class="edge"><title>Node7&#45;&gt;Node10</title>
<path fill="none" stroke="midnightblue" d="M217.948,-52.6377C242.907,-42.504 277.577,-28.4274 299.524,-19.5164"/>
<polygon fill="midnightblue" stroke="midnightblue" points="216.523,-49.4387 208.574,-56.4435 219.156,-55.9245 216.523,-49.4387"/>
</g>
<!-- Node11&#45;&gt;Node6 -->
<g id="edge11" class="edge"><title>Node11&#45;&gt;Node6</title>
<path fill="none" stroke="midnightblue" d="M248.174,-226.402C232.713,-200.053 204.131,-151.342 192.56,-131.623"/>
<polygon fill="midnightblue" stroke="midnightblue" points="245.314,-228.444 253.394,-235.298 251.352,-224.902 245.314,-228.444"/>
</g>
<!-- Node11&#45;&gt;Node12 -->
<g id="edge12" class="edge"><title>Node11&#45;&gt;Node12</title>
<path fill="none" stroke="midnightblue" d="M275.789,-228.646C286.262,-219.346 299.52,-207.572 309.709,-198.523"/>
<polygon fill="midnightblue" stroke="midnightblue" points="273.253,-226.218 268.099,-235.475 277.901,-231.452 273.253,-226.218"/>
</g>
<!-- Node12&#45;&gt;Node6 -->
<g id="edge13" class="edge"><title>Node12&#45;&gt;Node6</title>
<path fill="none" stroke="midnightblue" d="M283.455,-164.372C258.264,-153.511 227.386,-140.197 207.58,-131.658"/>
<polygon fill="midnightblue" stroke="midnightblue" points="282.227,-167.654 292.796,-168.399 284.999,-161.226 282.227,-167.654"/>
</g>
<!-- Node13 -->
<g id="node13" class="node"><title>Node13</title>
<g id="a_node13"><a xlink:href="dyndim-base-test_8cpp.html" target="_top" xlink:title="Test&#45;cases for vnix::units::dyndim_base. ">
<polygon fill="white" stroke="black" points="260.5,-112.5 260.5,-131.5 390.5,-131.5 390.5,-112.5 260.5,-112.5"/>
<text text-anchor="middle" x="325.5" y="-119.5" font-family="Helvetica,sans-Serif" font-size="10.00">test/dyndim&#45;base&#45;test.cpp</text>
</a>
</g>
</g>
<!-- Node12&#45;&gt;Node13 -->
<g id="edge14" class="edge"><title>Node12&#45;&gt;Node13</title>
<path fill="none" stroke="midnightblue" d="M325.5,-158.289C325.5,-148.857 325.5,-138.655 325.5,-131.658"/>
<polygon fill="midnightblue" stroke="midnightblue" points="322,-158.399 325.5,-168.399 329,-158.399 322,-158.399"/>
</g>
<!-- Node14 -->
<g id="node14" class="node"><title>Node14</title>
<g id="a_node14"><a xlink:href="statdim-base-test_8cpp.html" target="_top" xlink:title="Test&#45;cases for vnix::units::statdim_base. ">
<polygon fill="white" stroke="black" points="409,-112.5 409,-131.5 540,-131.5 540,-112.5 409,-112.5"/>
<text text-anchor="middle" x="474.5" y="-119.5" font-family="Helvetica,sans-Serif" font-size="10.00">test/statdim&#45;base&#45;test.cpp</text>
</a>
</g>
</g>
<!-- Node12&#45;&gt;Node14 -->
<g id="edge15" class="edge"><title>Node12&#45;&gt;Node14</title>
<path fill="none" stroke="midnightblue" d="M370.179,-164.658C397.507,-153.746 431.246,-140.272 452.819,-131.658"/>
<polygon fill="midnightblue" stroke="midnightblue" points="368.8,-161.44 360.811,-168.399 371.396,-167.941 368.8,-161.44"/>
</g>
</g>
</svg>
