<?xml version="1.0" encoding="UTF-8" standalone="no"?>
<!DOCTYPE svg PUBLIC "-//W3C//DTD SVG 1.1//EN"
 "http://www.w3.org/Graphics/SVG/1.1/DTD/svg11.dtd">
<!-- Generated by graphviz version 2.38.0 (20140413.2041)
 -->
<!-- Title: vnix/units/statdim&#45;base.hpp Pages: 1 -->
<!--zoomable 509 -->
<svg id="main" version="1.1" xmlns="http://www.w3.org/2000/svg" xmlns:xlink="http://www.w3.org/1999/xlink" xml:space="preserve" onload="init(evt)">
<style type="text/css"><![CDATA[
.edge:hover path { stroke: red; }
.edge:hover polygon { stroke: red; fill: red; }
]]></style>
<script type="text/javascript"><![CDATA[
var edges = document.getElementsByTagName('g');
if (edges && edges.length) {
  for (var i=0;i<edges.length;i++) {
    if (edges[i].id.substr(0,4)=='edge') {
      edges[i].setAttribute('class','edge');
    }
  }
}
]]></script>
        <defs>
                <circle id="rim" cx="0" cy="0" r="7"/>
                <circle id="rim2" cx="0" cy="0" r="3.5"/>
                <g id="zoomPlus">
                        <use xlink:href="#rim" fill="#404040">
                                <set attributeName="fill" to="#808080" begin="zoomplus.mouseover" end="zoomplus.mouseout"/>
                        </use>
                        <path d="M-4,0h8M0,-4v8" fill="none" stroke="white" stroke-width="1.5" pointer-events="none"/>
                </g>
                <g id="zoomMin">
                        <use xlink:href="#rim" fill="#404040">
                                <set attributeName="fill" to="#808080" begin="zoomminus.mouseover" end="zoomminus.mouseout"/>
                        </use>
                        <path d="M-4,0h8" fill="none" stroke="white" stroke-width="1.5" pointer-events="none"/>
                </g>
                <g id="dirArrow">
                        <path fill="none" stroke="white" stroke-width="1.5" d="M0,-3.0v7 M-2.5,-0.5L0,-3.0L2.5,-0.5"/>
                </g>
               <g id="resetDef">
                       <use xlink:href="#rim2" fill="#404040">
                               <set attributeName="fill" to="#808080" begin="reset.mouseover" end="reset.mouseout"/>
                       </use>
               </g>
        </defs>

<script type="text/javascript">
var viewWidth = 473;
var viewHeight = 509;
var sectionId = 'dynsection-0';
</script>
<script xlink:href="svgpan.js"/>
<svg id="graph" class="graph">
<g id="viewport">
<title>vnix/units/statdim&#45;base.hpp</title>
<polygon fill="white" stroke="none" points="-4,4 -4,-505 469,-505 469,4 -4,4"/>
<!-- Node1 -->
<g id="node1" class="node"><title>Node1</title>
<polygon fill="#bfbfbf" stroke="black" points="82.5,-470.5 82.5,-500.5 176.5,-500.5 176.5,-470.5 82.5,-470.5"/>
<text text-anchor="start" x="90.5" y="-488.5" font-family="Helvetica,sans-Serif" font-size="10.00">vnix/units/statdim</text>
<text text-anchor="middle" x="129.5" y="-477.5" font-family="Helvetica,sans-Serif" font-size="10.00">&#45;base.hpp</text>
</g>
<!-- Node2 -->
<g id="node2" class="node"><title>Node2</title>
<g id="a_node2"><a xlink:href="dim_8hpp.html" target="_top" xlink:title="Definition of vnix::units::dim. ">
<polygon fill="white" stroke="black" points="81.5,-358.5 81.5,-377.5 177.5,-377.5 177.5,-358.5 81.5,-358.5"/>
<text text-anchor="middle" x="129.5" y="-365.5" font-family="Helvetica,sans-Serif" font-size="10.00">vnix/units/dim.hpp</text>
</a>
</g>
</g>
<!-- Node1&#45;&gt;Node2 -->
<g id="edge1" class="edge"><title>Node1&#45;&gt;Node2</title>
<path fill="none" stroke="midnightblue" d="M117.409,-470.235C107.027,-456.213 94.5961,-434.06 100.5,-414 103.512,-403.765 109.655,-393.66 115.514,-385.627"/>
<polygon fill="midnightblue" stroke="midnightblue" points="118.432,-387.577 121.827,-377.541 112.914,-383.269 118.432,-387.577"/>
</g>
<!-- Node16 -->
<g id="node16" class="node"><title>Node16</title>
<g id="a_node16"><a xlink:href="dyndim-base_8hpp.html" target="_top" xlink:title="Definition of vnix::units::dyndim_base. ">
<polygon fill="white" stroke="black" points="109.5,-414.5 109.5,-433.5 245.5,-433.5 245.5,-414.5 109.5,-414.5"/>
<text text-anchor="middle" x="177.5" y="-421.5" font-family="Helvetica,sans-Serif" font-size="10.00">vnix/units/dyndim&#45;base.hpp</text>
</a>
</g>
</g>
<!-- Node1&#45;&gt;Node16 -->
<g id="edge18" class="edge"><title>Node1&#45;&gt;Node16</title>
<path fill="none" stroke="midnightblue" d="M140.875,-470.399C147.85,-461.753 156.814,-450.642 164.128,-441.576"/>
<polygon fill="midnightblue" stroke="midnightblue" points="166.961,-443.638 170.516,-433.658 161.513,-439.243 166.961,-443.638"/>
</g>
<!-- Node3 -->
<g id="node3" class="node"><title>Node3</title>
<polygon fill="white" stroke="#bfbfbf" points="58.5,-235.5 58.5,-254.5 96.5,-254.5 96.5,-235.5 58.5,-235.5"/>
<text text-anchor="middle" x="77.5" y="-242.5" font-family="Helvetica,sans-Serif" font-size="10.00">array</text>
</g>
<!-- Node2&#45;&gt;Node3 -->
<g id="edge2" class="edge"><title>Node2&#45;&gt;Node3</title>
<path fill="none" stroke="midnightblue" d="M128.245,-358.216C125.941,-343.69 120.257,-313.985 109.5,-291 104.785,-280.926 97.7703,-270.739 91.5091,-262.612"/>
<polygon fill="midnightblue" stroke="midnightblue" points="94.1472,-260.307 85.1553,-254.704 88.6903,-264.691 94.1472,-260.307"/>
</g>
<!-- Node4 -->
<g id="node4" class="node"><title>Node4</title>
<g id="a_node4"><a xlink:href="rat_8hpp.html" target="_top" xlink:title="Typedefs for class vnix::rat::rational. ">
<polygon fill="white" stroke="black" points="157.5,-297 157.5,-316 225.5,-316 225.5,-297 157.5,-297"/>
<text text-anchor="middle" x="191.5" y="-304" font-family="Helvetica,sans-Serif" font-size="10.00">vnix/rat.hpp</text>
</a>
</g>
</g>
<!-- Node2&#45;&gt;Node4 -->
<g id="edge3" class="edge"><title>Node2&#45;&gt;Node4</title>
<path fill="none" stroke="midnightblue" d="M138.383,-358.475C147.959,-349.285 163.411,-334.456 175.186,-323.156"/>
<polygon fill="midnightblue" stroke="midnightblue" points="177.842,-325.458 182.633,-316.009 172.995,-320.408 177.842,-325.458"/>
</g>
<!-- Node15 -->
<g id="node15" class="node"><title>Node15</title>
<g id="a_node15"><a xlink:href="dim-base-off_8hpp.html" target="_top" xlink:title="Definition of dim_base_off. ">
<polygon fill="white" stroke="black" points="0,-291.5 0,-321.5 101,-321.5 101,-291.5 0,-291.5"/>
<text text-anchor="start" x="8" y="-309.5" font-family="Helvetica,sans-Serif" font-size="10.00">vnix/units/dim&#45;base</text>
<text text-anchor="middle" x="50.5" y="-298.5" font-family="Helvetica,sans-Serif" font-size="10.00">&#45;off.hpp</text>
</a>
</g>
</g>
<!-- Node2&#45;&gt;Node15 -->
<g id="edge16" class="edge"><title>Node2&#45;&gt;Node15</title>
<path fill="none" stroke="midnightblue" d="M118.181,-358.475C107.582,-350.492 91.3333,-338.254 77.4135,-327.77"/>
<polygon fill="midnightblue" stroke="midnightblue" points="79.2123,-324.743 69.1187,-321.523 75.0009,-330.335 79.2123,-324.743"/>
</g>
<!-- Node5 -->
<g id="node5" class="node"><title>Node5</title>
<g id="a_node5"><a xlink:href="rational_8hpp.html" target="_top" xlink:title="Definition of vnix::rat::rational and operators for it. ">
<polygon fill="white" stroke="black" points="140.5,-235.5 140.5,-254.5 242.5,-254.5 242.5,-235.5 140.5,-235.5"/>
<text text-anchor="middle" x="191.5" y="-242.5" font-family="Helvetica,sans-Serif" font-size="10.00">vnix/rat/rational.hpp</text>
</a>
</g>
</g>
<!-- Node4&#45;&gt;Node5 -->
<g id="edge4" class="edge"><title>Node4&#45;&gt;Node5</title>
<path fill="none" stroke="midnightblue" d="M191.5,-296.975C191.5,-288.58 191.5,-275.481 191.5,-264.663"/>
<polygon fill="midnightblue" stroke="midnightblue" points="195,-264.509 191.5,-254.509 188,-264.509 195,-264.509"/>
</g>
<!-- Node6 -->
<g id="node6" class="node"><title>Node6</title>
<polygon fill="white" stroke="#bfbfbf" points="109.5,-179.5 109.5,-198.5 163.5,-198.5 163.5,-179.5 109.5,-179.5"/>
<text text-anchor="middle" x="136.5" y="-186.5" font-family="Helvetica,sans-Serif" font-size="10.00">iostream</text>
</g>
<!-- Node5&#45;&gt;Node6 -->
<g id="edge5" class="edge"><title>Node5&#45;&gt;Node6</title>
<path fill="none" stroke="midnightblue" d="M182.418,-235.083C174.329,-227.141 162.305,-215.335 152.59,-205.797"/>
<polygon fill="midnightblue" stroke="midnightblue" points="155.001,-203.26 145.413,-198.751 150.097,-208.254 155.001,-203.26"/>
</g>
<!-- Node7 -->
<g id="node7" class="node"><title>Node7</title>
<g id="a_node7"><a xlink:href="common-denom_8hpp.html" target="_top" xlink:title="Definition of vnix::rat::common_denom. ">
<polygon fill="white" stroke="black" points="95.5,-118 95.5,-137 235.5,-137 235.5,-118 95.5,-118"/>
<text text-anchor="middle" x="165.5" y="-125" font-family="Helvetica,sans-Serif" font-size="10.00">vnix/rat/common&#45;denom.hpp</text>
</a>
</g>
</g>
<!-- Node5&#45;&gt;Node7 -->
<g id="edge6" class="edge"><title>Node5&#45;&gt;Node7</title>
<path fill="none" stroke="midnightblue" d="M189.546,-235.319C185.349,-216.673 175.392,-172.443 169.694,-147.132"/>
<polygon fill="midnightblue" stroke="midnightblue" points="173.088,-146.269 167.477,-137.282 166.259,-147.807 173.088,-146.269"/>
</g>
<!-- Node11 -->
<g id="node11" class="node"><title>Node11</title>
<g id="a_node11"><a xlink:href="encoding_8hpp.html" target="_top" xlink:title="Definition of vnix::rat::encoding. ">
<polygon fill="white" stroke="black" points="245.5,-179.5 245.5,-198.5 355.5,-198.5 355.5,-179.5 245.5,-179.5"/>
<text text-anchor="middle" x="300.5" y="-186.5" font-family="Helvetica,sans-Serif" font-size="10.00">vnix/rat/encoding.hpp</text>
</a>
</g>
</g>
<!-- Node5&#45;&gt;Node11 -->
<g id="edge10" class="edge"><title>Node5&#45;&gt;Node11</title>
<path fill="none" stroke="midnightblue" d="M209.013,-235.324C226.572,-226.625 253.831,-213.12 274.031,-203.113"/>
<polygon fill="midnightblue" stroke="midnightblue" points="275.624,-206.23 283.031,-198.655 272.516,-199.958 275.624,-206.23"/>
</g>
<!-- Node8 -->
<g id="node8" class="node"><title>Node8</title>
<g id="a_node8"><a xlink:href="gcd_8hpp.html" target="_top" xlink:title="Definition of vnix::gcd. ">
<polygon fill="white" stroke="black" points="286.5,-56.5 286.5,-75.5 358.5,-75.5 358.5,-56.5 286.5,-56.5"/>
<text text-anchor="middle" x="322.5" y="-63.5" font-family="Helvetica,sans-Serif" font-size="10.00">vnix/gcd.hpp</text>
</a>
</g>
</g>
<!-- Node7&#45;&gt;Node8 -->
<g id="edge7" class="edge"><title>Node7&#45;&gt;Node8</title>
<path fill="none" stroke="midnightblue" d="M187.994,-117.975C214.809,-107.813 259.815,-90.7564 290.309,-79.1996"/>
<polygon fill="midnightblue" stroke="midnightblue" points="291.937,-82.3258 300.047,-75.5091 289.456,-75.7801 291.937,-82.3258"/>
</g>
<!-- Node9 -->
<g id="node9" class="node"><title>Node9</title>
<g id="a_node9"><a xlink:href="int-types_8hpp.html" target="_top" xlink:title="Definition of vnix::int_types. ">
<polygon fill="white" stroke="black" points="137.5,-56.5 137.5,-75.5 231.5,-75.5 231.5,-56.5 137.5,-56.5"/>
<text text-anchor="middle" x="184.5" y="-63.5" font-family="Helvetica,sans-Serif" font-size="10.00">vnix/int&#45;types.hpp</text>
</a>
</g>
</g>
<!-- Node7&#45;&gt;Node9 -->
<g id="edge8" class="edge"><title>Node7&#45;&gt;Node9</title>
<path fill="none" stroke="midnightblue" d="M168.222,-117.975C170.931,-109.492 175.174,-96.2043 178.649,-85.3222"/>
<polygon fill="midnightblue" stroke="midnightblue" points="182.075,-86.0999 181.783,-75.5091 175.407,-83.9705 182.075,-86.0999"/>
</g>
<!-- Node10 -->
<g id="node10" class="node"><title>Node10</title>
<polygon fill="white" stroke="#bfbfbf" points="161.5,-0.5 161.5,-19.5 207.5,-19.5 207.5,-0.5 161.5,-0.5"/>
<text text-anchor="middle" x="184.5" y="-7.5" font-family="Helvetica,sans-Serif" font-size="10.00">cstdint</text>
</g>
<!-- Node9&#45;&gt;Node10 -->
<g id="edge9" class="edge"><title>Node9&#45;&gt;Node10</title>
<path fill="none" stroke="midnightblue" d="M184.5,-56.083C184.5,-49.0059 184.5,-38.8611 184.5,-29.9865"/>
<polygon fill="midnightblue" stroke="midnightblue" points="188,-29.751 184.5,-19.7511 181,-29.7511 188,-29.751"/>
</g>
<!-- Node12 -->
<g id="node12" class="node"><title>Node12</title>
<g id="a_node12"><a xlink:href="bit-range_8hpp.html" target="_top" xlink:title="Definition of vnix::bit, vnix::bit_range. ">
<polygon fill="white" stroke="black" points="253.5,-118 253.5,-137 347.5,-137 347.5,-118 253.5,-118"/>
<text text-anchor="middle" x="300.5" y="-125" font-family="Helvetica,sans-Serif" font-size="10.00">vnix/bit&#45;range.hpp</text>
</a>
</g>
</g>
<!-- Node11&#45;&gt;Node12 -->
<g id="edge11" class="edge"><title>Node11&#45;&gt;Node12</title>
<path fill="none" stroke="midnightblue" d="M300.5,-179.475C300.5,-171.08 300.5,-157.981 300.5,-147.163"/>
<polygon fill="midnightblue" stroke="midnightblue" points="304,-147.009 300.5,-137.009 297,-147.009 304,-147.009"/>
</g>
<!-- Node13 -->
<g id="node13" class="node"><title>Node13</title>
<g id="a_node13"><a xlink:href="normalized-pair_8hpp.html" target="_top" xlink:title="Definition of vnix::rat::normalized_pair. ">
<polygon fill="white" stroke="black" points="366,-112.5 366,-142.5 465,-142.5 465,-112.5 366,-112.5"/>
<text text-anchor="start" x="374" y="-130.5" font-family="Helvetica,sans-Serif" font-size="10.00">vnix/rat/normalized</text>
<text text-anchor="middle" x="415.5" y="-119.5" font-family="Helvetica,sans-Serif" font-size="10.00">&#45;pair.hpp</text>
</a>
</g>
</g>
<!-- Node11&#45;&gt;Node13 -->
<g id="edge12" class="edge"><title>Node11&#45;&gt;Node13</title>
<path fill="none" stroke="midnightblue" d="M316.977,-179.475C333.207,-171.078 358.536,-157.973 379.447,-147.153"/>
<polygon fill="midnightblue" stroke="midnightblue" points="381.123,-150.227 388.397,-142.523 377.907,-144.01 381.123,-150.227"/>
</g>
<!-- Node13&#45;&gt;Node8 -->
<g id="edge14" class="edge"><title>Node13&#45;&gt;Node8</title>
<path fill="none" stroke="midnightblue" d="M393.46,-112.399C378.692,-102.951 359.323,-90.5589 344.553,-81.1089"/>
<polygon fill="midnightblue" stroke="midnightblue" points="346.342,-78.0988 336.032,-75.6578 342.57,-83.9953 346.342,-78.0988"/>
</g>
<!-- Node13&#45;&gt;Node9 -->
<g id="edge15" class="edge"><title>Node13&#45;&gt;Node9</title>
<path fill="none" stroke="midnightblue" d="M365.945,-113.736C324.725,-103.118 266.652,-88.1604 227.398,-78.0496"/>
<polygon fill="midnightblue" stroke="midnightblue" points="228.156,-74.6304 217.599,-75.5254 226.409,-81.4092 228.156,-74.6304"/>
</g>
<!-- Node14 -->
<g id="node14" class="node"><title>Node14</title>
<polygon fill="white" stroke="#bfbfbf" points="395.5,-56.5 395.5,-75.5 435.5,-75.5 435.5,-56.5 395.5,-56.5"/>
<text text-anchor="middle" x="415.5" y="-63.5" font-family="Helvetica,sans-Serif" font-size="10.00">utility</text>
</g>
<!-- Node13&#45;&gt;Node14 -->
<g id="edge13" class="edge"><title>Node13&#45;&gt;Node14</title>
<path fill="none" stroke="midnightblue" d="M415.5,-112.399C415.5,-104.466 415.5,-94.458 415.5,-85.8583"/>
<polygon fill="midnightblue" stroke="midnightblue" points="419,-85.6577 415.5,-75.6578 412,-85.6578 419,-85.6577"/>
</g>
<!-- Node15&#45;&gt;Node3 -->
<g id="edge17" class="edge"><title>Node15&#45;&gt;Node3</title>
<path fill="none" stroke="midnightblue" d="M56.8986,-291.399C60.6198,-283.199 65.3473,-272.781 69.3348,-263.994"/>
<polygon fill="midnightblue" stroke="midnightblue" points="72.6261,-265.21 73.5713,-254.658 66.2517,-262.318 72.6261,-265.21"/>
</g>
<!-- Node16&#45;&gt;Node2 -->
<g id="edge19" class="edge"><title>Node16&#45;&gt;Node2</title>
<path fill="none" stroke="midnightblue" d="M169.574,-414.083C162.654,-406.298 152.435,-394.801 144.048,-385.367"/>
<polygon fill="midnightblue" stroke="midnightblue" points="146.538,-382.9 137.279,-377.751 141.306,-387.55 146.538,-382.9"/>
</g>
</g>
</svg>
        <g id="navigator" transform="translate(0 0)" fill="#404254">
                <rect fill="#f2f5e9" fill-opacity="0.5" stroke="#606060" stroke-width=".5" x="0" y="0" width="60" height="60"/>
                <use id="zoomplus" xlink:href="#zoomPlus" x="17" y="9" onmousedown="handleZoom(evt,'in')"/>
                <use id="zoomminus" xlink:href="#zoomMin" x="42" y="9" onmousedown="handleZoom(evt,'out')"/>
                <use id="reset" xlink:href="#resetDef" x="30" y="36" onmousedown="handleReset()"/>
                <g id="arrowUp" xlink:href="#dirArrow" transform="translate(30 24)" onmousedown="handlePan(0,-1)">
                  <use xlink:href="#rim" fill="#404040">
                        <set attributeName="fill" to="#808080" begin="arrowUp.mouseover" end="arrowUp.mouseout"/>
                  </use>
                  <path fill="none" stroke="white" stroke-width="1.5" d="M0,-3.0v7 M-2.5,-0.5L0,-3.0L2.5,-0.5"/>
                </g>
                <g id="arrowRight" xlink:href="#dirArrow" transform="rotate(90) translate(36 -43)" onmousedown="handlePan(1,0)">
                  <use xlink:href="#rim" fill="#404040">
                        <set attributeName="fill" to="#808080" begin="arrowRight.mouseover" end="arrowRight.mouseout"/>
                  </use>
                  <path fill="none" stroke="white" stroke-width="1.5" d="M0,-3.0v7 M-2.5,-0.5L0,-3.0L2.5,-0.5"/>
                </g>
                <g id="arrowDown" xlink:href="#dirArrow" transform="rotate(180) translate(-30 -48)" onmousedown="handlePan(0,1)">
                  <use xlink:href="#rim" fill="#404040">
                        <set attributeName="fill" to="#808080" begin="arrowDown.mouseover" end="arrowDown.mouseout"/>
                  </use>
                  <path fill="none" stroke="white" stroke-width="1.5" d="M0,-3.0v7 M-2.5,-0.5L0,-3.0L2.5,-0.5"/>
                </g>
                <g id="arrowLeft" xlink:href="#dirArrow" transform="rotate(270) translate(-36 17)" onmousedown="handlePan(-1,0)">
                  <use xlink:href="#rim" fill="#404040">
                        <set attributeName="fill" to="#808080" begin="arrowLeft.mouseover" end="arrowLeft.mouseout"/>
                  </use>
                  <path fill="none" stroke="white" stroke-width="1.5" d="M0,-3.0v7 M-2.5,-0.5L0,-3.0L2.5,-0.5"/>
                </g>
        </g>
        <svg viewBox="0 0 15 15" width="100%" height="30px" preserveAspectRatio="xMaxYMin meet">
         <g id="arrow_out" transform="scale(0.3 0.3)">
          <a xlink:href="statdim-base_8hpp__incl_org.svg" target="_base">
           <rect id="button" ry="5" rx="5" y="6" x="6" height="38" width="38"
                fill="#f2f5e9" fill-opacity="0.5" stroke="#606060" stroke-width="1.0"/>
           <path id="arrow"
             d="M 11.500037,31.436501 C 11.940474,20.09759 22.043105,11.32322 32.158766,21.979434 L 37.068811,17.246167 C 37.068811,17.246167 37.088388,32 37.088388,32 L 22.160133,31.978069 C 22.160133,31.978069 26.997745,27.140456 26.997745,27.140456 C 18.528582,18.264221 13.291696,25.230495 11.500037,31.436501 z"
             style="fill:#404040;"/>
          </a>
         </g>
        </svg>
</svg>
