<?xml version="1.0" encoding="UTF-8" standalone="no"?>
<!DOCTYPE svg PUBLIC "-//W3C//DTD SVG 1.1//EN"
 "http://www.w3.org/Graphics/SVG/1.1/DTD/svg11.dtd">
<!-- Generated by graphviz version 2.38.0 (20140413.2041)
 -->
<!-- Title: vnix::units::impl::ergs&lt; T &gt; Pages: 1 -->
<svg width="1035pt" height="121pt"
 viewBox="0.00 0.00 1035.00 120.50" xmlns="http://www.w3.org/2000/svg" xmlns:xlink="http://www.w3.org/1999/xlink">
<g id="graph0" class="graph" transform="scale(1 1) rotate(0) translate(4 116.5)">
<title>vnix::units::impl::ergs&lt; T &gt;</title>
<polygon fill="white" stroke="none" points="-4,4 -4,-116.5 1031,-116.5 1031,4 -4,4"/>
<!-- Node1 -->
<g id="node1" class="node"><title>Node1</title>
<polygon fill="#bfbfbf" stroke="black" points="935,-36.5 935,-66.5 1027,-66.5 1027,-36.5 935,-36.5"/>
<text text-anchor="start" x="943" y="-54.5" font-family="Helvetica,sans-Serif" font-size="10.00">vnix::units::impl::</text>
<text text-anchor="middle" x="981" y="-43.5" font-family="Helvetica,sans-Serif" font-size="10.00">ergs&lt; T &gt;</text>
</g>
<!-- Node2 -->
<g id="node2" class="node"><title>Node2</title>
<g id="a_node2"><a xlink:href="classvnix_1_1units_1_1basic__statdim.html" target="_top" xlink:title="vnix::units::basic\l_statdim\&lt;(dyn\&lt; float\l \&gt;.d()+cm\&lt; float \&gt;.d\l()).encode(), T \&gt;">
<polygon fill="white" stroke="black" points="791,-25.5 791,-77.5 898,-77.5 898,-25.5 791,-25.5"/>
<text text-anchor="start" x="799" y="-65.5" font-family="Helvetica,sans-Serif" font-size="10.00">vnix::units::basic</text>
<text text-anchor="start" x="799" y="-54.5" font-family="Helvetica,sans-Serif" font-size="10.00">_statdim&lt;(dyn&lt; float</text>
<text text-anchor="start" x="799" y="-43.5" font-family="Helvetica,sans-Serif" font-size="10.00"> &gt;.d()+cm&lt; float &gt;.d</text>
<text text-anchor="middle" x="844.5" y="-32.5" font-family="Helvetica,sans-Serif" font-size="10.00">()).encode(), T &gt;</text>
</a>
</g>
</g>
<!-- Node2&#45;&gt;Node1 -->
<g id="edge1" class="edge"><title>Node2&#45;&gt;Node1</title>
<path fill="none" stroke="midnightblue" d="M908.285,-51.5C917.224,-51.5 926.269,-51.5 934.784,-51.5"/>
<polygon fill="midnightblue" stroke="midnightblue" points="908.272,-48.0001 898.272,-51.5 908.272,-55.0001 908.272,-48.0001"/>
</g>
<!-- Node3 -->
<g id="node3" class="node"><title>Node3</title>
<g id="a_node3"><a xlink:href="classvnix_1_1units_1_1dimval.html" target="_top" xlink:title="vnix::units::dimval\l\&lt; T, statdim_base\&lt; D \&gt; \&gt;">
<polygon fill="white" stroke="black" points="386,-49.5 386,-79.5 517,-79.5 517,-49.5 386,-49.5"/>
<text text-anchor="start" x="394" y="-67.5" font-family="Helvetica,sans-Serif" font-size="10.00">vnix::units::dimval</text>
<text text-anchor="middle" x="451.5" y="-56.5" font-family="Helvetica,sans-Serif" font-size="10.00">&lt; T, statdim_base&lt; D &gt; &gt;</text>
</a>
</g>
</g>
<!-- Node3&#45;&gt;Node2 -->
<g id="edge2" class="edge"><title>Node3&#45;&gt;Node2</title>
<path fill="none" stroke="midnightblue" d="M527.22,-66.5739C592.25,-67.7169 688.991,-67.8237 773,-61.5 778.794,-61.0639 784.837,-60.4508 790.841,-59.7405"/>
<polygon fill="midnightblue" stroke="midnightblue" points="527.126,-63.0716 517.062,-66.3824 526.994,-70.0704 527.126,-63.0716"/>
</g>
<!-- Node8 -->
<g id="node8" class="node"><title>Node8</title>
<g id="a_node8"><a xlink:href="classvnix_1_1units_1_1basic__statdim.html" target="_top" xlink:title="Model of a statically dimensioned physical quantity. ">
<polygon fill="white" stroke="black" points="554,-14.5 554,-44.5 646,-44.5 646,-14.5 554,-14.5"/>
<text text-anchor="start" x="562" y="-32.5" font-family="Helvetica,sans-Serif" font-size="10.00">vnix::units::basic</text>
<text text-anchor="middle" x="600" y="-21.5" font-family="Helvetica,sans-Serif" font-size="10.00">_statdim&lt; D, T &gt;</text>
</a>
</g>
</g>
<!-- Node3&#45;&gt;Node8 -->
<g id="edge9" class="edge"><title>Node3&#45;&gt;Node8</title>
<path fill="none" stroke="midnightblue" d="M525.494,-47.0611C535.134,-44.7582 544.779,-42.4538 553.762,-40.3076"/>
<polygon fill="midnightblue" stroke="midnightblue" points="524.392,-43.7258 515.479,-49.4537 526.019,-50.5342 524.392,-43.7258"/>
</g>
<!-- Node4 -->
<g id="node4" class="node"><title>Node4</title>
<g id="a_node4"><a xlink:href="structvnix_1_1units_1_1number.html" target="_top" xlink:title="Generic template for wrapper to disambiguate scalar from dimval and protected storage for numeric val...">
<polygon fill="white" stroke="black" points="0,-93 0,-112 124,-112 124,-93 0,-93"/>
<text text-anchor="middle" x="62" y="-100" font-family="Helvetica,sans-Serif" font-size="10.00">vnix::units::number&lt; T &gt;</text>
</a>
</g>
</g>
<!-- Node4&#45;&gt;Node3 -->
<g id="edge3" class="edge"><title>Node4&#45;&gt;Node3</title>
<path fill="none" stroke="darkgreen" d="M134.359,-105.014C196.532,-105.942 288.873,-104.271 368,-90.5 382.055,-88.0539 397.04,-83.8428 410.329,-79.5135"/>
<polygon fill="darkgreen" stroke="darkgreen" points="134.324,-101.513 124.264,-104.836 134.201,-108.512 134.324,-101.513"/>
</g>
<!-- Node6 -->
<g id="node6" class="node"><title>Node6</title>
<g id="a_node6"><a xlink:href="classvnix_1_1units_1_1dimval.html" target="_top" xlink:title="Model of a physically dimensioned quantity. ">
<polygon fill="white" stroke="black" points="163,-49.5 163,-79.5 259,-79.5 259,-49.5 163,-49.5"/>
<text text-anchor="start" x="171" y="-67.5" font-family="Helvetica,sans-Serif" font-size="10.00">vnix::units::dimval</text>
<text text-anchor="middle" x="211" y="-56.5" font-family="Helvetica,sans-Serif" font-size="10.00">&lt; T, B &gt;</text>
</a>
</g>
</g>
<!-- Node4&#45;&gt;Node6 -->
<g id="edge6" class="edge"><title>Node4&#45;&gt;Node6</title>
<path fill="none" stroke="darkgreen" d="M109.791,-90.4043C126.747,-86.0212 145.898,-81.0706 162.882,-76.6802"/>
<polygon fill="darkgreen" stroke="darkgreen" points="108.9,-87.0195 100.094,-92.911 110.652,-93.7968 108.9,-87.0195"/>
</g>
<!-- Node5 -->
<g id="node5" class="node"><title>Node5</title>
<g id="a_node5"><a xlink:href="structvnix_1_1units_1_1statdim__base.html" target="_top" xlink:title="Base&#45;type for a dimensioned value whose dimension is specified statically at compile&#45;time by way of a...">
<polygon fill="white" stroke="black" points="161,-0.5 161,-30.5 261,-30.5 261,-0.5 161,-0.5"/>
<text text-anchor="start" x="169" y="-18.5" font-family="Helvetica,sans-Serif" font-size="10.00">vnix::units::statdim</text>
<text text-anchor="middle" x="211" y="-7.5" font-family="Helvetica,sans-Serif" font-size="10.00">_base&lt; D &gt;</text>
</a>
</g>
</g>
<!-- Node5&#45;&gt;Node3 -->
<g id="edge4" class="edge"><title>Node5&#45;&gt;Node3</title>
<path fill="none" stroke="midnightblue" d="M271.135,-27.6492C305.892,-34.7902 349.876,-43.8268 385.59,-51.1641"/>
<polygon fill="midnightblue" stroke="midnightblue" points="271.628,-24.1776 261.128,-25.5934 270.219,-31.0344 271.628,-24.1776"/>
</g>
<!-- Node6&#45;&gt;Node3 -->
<g id="edge5" class="edge"><title>Node6&#45;&gt;Node3</title>
<path fill="none" stroke="orange" stroke-dasharray="5,2" d="M269.216,-64.5C304.354,-64.5 349.449,-64.5 385.872,-64.5"/>
<polygon fill="orange" stroke="orange" points="269.12,-61.0001 259.12,-64.5 269.12,-68.0001 269.12,-61.0001"/>
<text text-anchor="start" x="279" y="-78.5" font-family="Helvetica,sans-Serif" font-size="10.00"> &lt; T, statdim_base&lt;</text>
<text text-anchor="middle" x="323.5" y="-67.5" font-family="Helvetica,sans-Serif" font-size="10.00"> D &gt; &gt;</text>
</g>
<!-- Node7 -->
<g id="node7" class="node"><title>Node7</title>
<polygon fill="white" stroke="#bfbfbf" points="47.5,-49 47.5,-68 76.5,-68 76.5,-49 47.5,-49"/>
<text text-anchor="middle" x="62" y="-56" font-family="Helvetica,sans-Serif" font-size="10.00">B</text>
</g>
<!-- Node7&#45;&gt;Node6 -->
<g id="edge7" class="edge"><title>Node7&#45;&gt;Node6</title>
<path fill="none" stroke="midnightblue" d="M86.5905,-59.4629C107.109,-60.3004 137.463,-61.5393 162.932,-62.5789"/>
<polygon fill="midnightblue" stroke="midnightblue" points="86.7004,-55.9645 76.5659,-59.0537 86.4148,-62.9587 86.7004,-55.9645"/>
</g>
<!-- Node8&#45;&gt;Node2 -->
<g id="edge8" class="edge"><title>Node8&#45;&gt;Node2</title>
<path fill="none" stroke="orange" stroke-dasharray="5,2" d="M656.381,-24.6221C690.264,-22.7629 734.38,-22.3596 773,-28.5 778.849,-29.4299 784.872,-30.7683 790.818,-32.3383"/>
<polygon fill="orange" stroke="orange" points="655.98,-21.1398 646.211,-25.2401 656.405,-28.1269 655.98,-21.1398"/>
<text text-anchor="start" x="664" y="-53.5" font-family="Helvetica,sans-Serif" font-size="10.00"> &lt;(dyn&lt; float &gt;.d()</text>
<text text-anchor="start" x="664" y="-42.5" font-family="Helvetica,sans-Serif" font-size="10.00">+cm&lt; float &gt;.d()).encode</text>
<text text-anchor="middle" x="718.5" y="-31.5" font-family="Helvetica,sans-Serif" font-size="10.00">(), T &gt;</text>
</g>
</g>
</svg>
