<?xml version="1.0" encoding="UTF-8" standalone="no"?>
<!DOCTYPE svg PUBLIC "-//W3C//DTD SVG 1.1//EN"
 "http://www.w3.org/Graphics/SVG/1.1/DTD/svg11.dtd">
<!-- Generated by graphviz version 2.38.0 (20140413.2041)
 -->
<!-- Title: vnix::units::impl::centimeters::centimeters Pages: 1 -->
<svg width="284pt" height="78pt"
 viewBox="0.00 0.00 284.00 77.50" xmlns="http://www.w3.org/2000/svg" xmlns:xlink="http://www.w3.org/1999/xlink">
<g id="graph0" class="graph" transform="scale(1 1) rotate(0) translate(4 73.5)">
<title>vnix::units::impl::centimeters::centimeters</title>
<polygon fill="white" stroke="none" points="-4,4 -4,-73.5 280,-73.5 280,4 -4,4"/>
<!-- Node1 -->
<g id="node1" class="node"><title>Node1</title>
<polygon fill="#bfbfbf" stroke="black" points="0,-22.5 0,-52.5 125,-52.5 125,-22.5 0,-22.5"/>
<text text-anchor="start" x="8" y="-40.5" font-family="Helvetica,sans-Serif" font-size="10.00">vnix::units::impl::</text>
<text text-anchor="middle" x="62.5" y="-29.5" font-family="Helvetica,sans-Serif" font-size="10.00">centimeters::centimeters</text>
</g>
<!-- Node2 -->
<g id="node2" class="node"><title>Node2</title>
<g id="a_node2"><a xlink:href="namespacevnix_1_1units.html#a650217999c720672e8da47c579bb4211" target="_top" xlink:title="Exponents for length. ">
<polygon fill="white" stroke="black" points="161,-50 161,-69 276,-69 276,-50 161,-50"/>
<text text-anchor="middle" x="218.5" y="-57" font-family="Helvetica,sans-Serif" font-size="10.00">vnix::units::length_dim</text>
</a>
</g>
</g>
<!-- Node1&#45;&gt;Node2 -->
<g id="edge1" class="edge"><title>Node1&#45;&gt;Node2</title>
<path fill="none" stroke="midnightblue" d="M125.25,-46.3215C133.579,-47.5113 142.156,-48.7365 150.569,-49.9385"/>
<polygon fill="midnightblue" stroke="midnightblue" points="150.329,-53.4396 160.723,-51.3891 151.319,-46.5099 150.329,-53.4396"/>
</g>
<!-- Node3 -->
<g id="node3" class="node"><title>Node3</title>
<g id="a_node3"><a xlink:href="classvnix_1_1units_1_1basic__dim.html#a14314170633ec56f7a71b977f1d6d13e" target="_top" xlink:title="Encode data for this dim into a word. ">
<polygon fill="white" stroke="black" points="173,-0.5 173,-30.5 264,-30.5 264,-0.5 173,-0.5"/>
<text text-anchor="start" x="181" y="-18.5" font-family="Helvetica,sans-Serif" font-size="10.00">vnix::units::basic</text>
<text text-anchor="middle" x="218.5" y="-7.5" font-family="Helvetica,sans-Serif" font-size="10.00">_dim::encode</text>
</a>
</g>
</g>
<!-- Node1&#45;&gt;Node3 -->
<g id="edge2" class="edge"><title>Node1&#45;&gt;Node3</title>
<path fill="none" stroke="midnightblue" d="M125.25,-28.6785C137.672,-26.9041 150.644,-25.0508 162.805,-23.3136"/>
<polygon fill="midnightblue" stroke="midnightblue" points="163.394,-26.7651 172.798,-21.8859 162.404,-19.8354 163.394,-26.7651"/>
</g>
</g>
</svg>
