<?xml version="1.0" encoding="UTF-8" standalone="no"?>
<!DOCTYPE svg PUBLIC "-//W3C//DTD SVG 1.1//EN"
 "http://www.w3.org/Graphics/SVG/1.1/DTD/svg11.dtd">
<!-- Generated by graphviz version 2.38.0 (20140413.2041)
 -->
<!-- Title: vnix::units::impl::picoseconds::picoseconds Pages: 1 -->
<svg width="283pt" height="78pt"
 viewBox="0.00 0.00 283.00 77.50" xmlns="http://www.w3.org/2000/svg" xmlns:xlink="http://www.w3.org/1999/xlink">
<g id="graph0" class="graph" transform="scale(1 1) rotate(0) translate(4 73.5)">
<title>vnix::units::impl::picoseconds::picoseconds</title>
<polygon fill="white" stroke="none" points="-4,4 -4,-73.5 279,-73.5 279,4 -4,4"/>
<!-- Node1 -->
<g id="node1" class="node"><title>Node1</title>
<polygon fill="#bfbfbf" stroke="black" points="0,-22.5 0,-52.5 132,-52.5 132,-22.5 0,-22.5"/>
<text text-anchor="start" x="8" y="-40.5" font-family="Helvetica,sans-Serif" font-size="10.00">vnix::units::impl::</text>
<text text-anchor="middle" x="66" y="-29.5" font-family="Helvetica,sans-Serif" font-size="10.00">picoseconds::picoseconds</text>
</g>
<!-- Node2 -->
<g id="node2" class="node"><title>Node2</title>
<g id="a_node2"><a xlink:href="namespacevnix_1_1units.html#a4a057e7f5504a728b74e59d250fb77a4" target="_top" xlink:title="Exponents for time. ">
<polygon fill="white" stroke="black" points="168,-50 168,-69 275,-69 275,-50 168,-50"/>
<text text-anchor="middle" x="221.5" y="-57" font-family="Helvetica,sans-Serif" font-size="10.00">vnix::units::time_dim</text>
</a>
</g>
</g>
<!-- Node1&#45;&gt;Node2 -->
<g id="edge1" class="edge"><title>Node1&#45;&gt;Node2</title>
<path fill="none" stroke="midnightblue" d="M132.098,-46.83C140.579,-48.0456 149.255,-49.289 157.698,-50.499"/>
<polygon fill="midnightblue" stroke="midnightblue" points="157.456,-54.0001 167.852,-51.9543 158.45,-47.0709 157.456,-54.0001"/>
</g>
<!-- Node3 -->
<g id="node3" class="node"><title>Node3</title>
<g id="a_node3"><a xlink:href="classvnix_1_1units_1_1basic__dim.html#a14314170633ec56f7a71b977f1d6d13e" target="_top" xlink:title="Encode data for this dim into a word. ">
<polygon fill="white" stroke="black" points="176,-0.5 176,-30.5 267,-30.5 267,-0.5 176,-0.5"/>
<text text-anchor="start" x="184" y="-18.5" font-family="Helvetica,sans-Serif" font-size="10.00">vnix::units::basic</text>
<text text-anchor="middle" x="221.5" y="-7.5" font-family="Helvetica,sans-Serif" font-size="10.00">_dim::encode</text>
</a>
</g>
</g>
<!-- Node1&#45;&gt;Node3 -->
<g id="edge2" class="edge"><title>Node1&#45;&gt;Node3</title>
<path fill="none" stroke="midnightblue" d="M132.098,-28.17C143.244,-26.5725 154.725,-24.927 165.573,-23.3723"/>
<polygon fill="midnightblue" stroke="midnightblue" points="166.345,-26.7975 175.747,-21.9141 165.351,-19.8683 166.345,-26.7975"/>
</g>
</g>
</svg>
