<?xml version="1.0" encoding="UTF-8" standalone="no"?>
<!DOCTYPE svg PUBLIC "-//W3C//DTD SVG 1.1//EN"
 "http://www.w3.org/Graphics/SVG/1.1/DTD/svg11.dtd">
<!-- Generated by graphviz version 2.38.0 (20140413.2041)
 -->
<!-- Title: vnix::units::impl::kilometers::kilometers Pages: 1 -->
<svg width="272pt" height="78pt"
 viewBox="0.00 0.00 272.00 77.50" xmlns="http://www.w3.org/2000/svg" xmlns:xlink="http://www.w3.org/1999/xlink">
<g id="graph0" class="graph" transform="scale(1 1) rotate(0) translate(4 73.5)">
<title>vnix::units::impl::kilometers::kilometers</title>
<polygon fill="white" stroke="none" points="-4,4 -4,-73.5 268,-73.5 268,4 -4,4"/>
<!-- Node1 -->
<g id="node1" class="node"><title>Node1</title>
<polygon fill="#bfbfbf" stroke="black" points="0,-22.5 0,-52.5 113,-52.5 113,-22.5 0,-22.5"/>
<text text-anchor="start" x="8" y="-40.5" font-family="Helvetica,sans-Serif" font-size="10.00">vnix::units::impl::</text>
<text text-anchor="middle" x="56.5" y="-29.5" font-family="Helvetica,sans-Serif" font-size="10.00">kilometers::kilometers</text>
</g>
<!-- Node2 -->
<g id="node2" class="node"><title>Node2</title>
<g id="a_node2"><a xlink:href="namespacevnix_1_1units.html#a650217999c720672e8da47c579bb4211" target="_top" xlink:title="Exponents for length. ">
<polygon fill="white" stroke="black" points="149,-50 149,-69 264,-69 264,-50 149,-50"/>
<text text-anchor="middle" x="206.5" y="-57" font-family="Helvetica,sans-Serif" font-size="10.00">vnix::units::length_dim</text>
</a>
</g>
</g>
<!-- Node1&#45;&gt;Node2 -->
<g id="edge1" class="edge"><title>Node1&#45;&gt;Node2</title>
<path fill="none" stroke="midnightblue" d="M113.031,-45.7546C121.402,-46.999 130.111,-48.2935 138.689,-49.5686"/>
<polygon fill="midnightblue" stroke="midnightblue" points="138.265,-53.044 148.671,-51.0525 139.295,-46.1201 138.265,-53.044"/>
</g>
<!-- Node3 -->
<g id="node3" class="node"><title>Node3</title>
<g id="a_node3"><a xlink:href="classvnix_1_1units_1_1basic__dim.html#a14314170633ec56f7a71b977f1d6d13e" target="_top" xlink:title="Encode data for this dim into a word. ">
<polygon fill="white" stroke="black" points="161,-0.5 161,-30.5 252,-30.5 252,-0.5 161,-0.5"/>
<text text-anchor="start" x="169" y="-18.5" font-family="Helvetica,sans-Serif" font-size="10.00">vnix::units::basic</text>
<text text-anchor="middle" x="206.5" y="-7.5" font-family="Helvetica,sans-Serif" font-size="10.00">_dim::encode</text>
</a>
</g>
</g>
<!-- Node1&#45;&gt;Node3 -->
<g id="edge2" class="edge"><title>Node1&#45;&gt;Node3</title>
<path fill="none" stroke="midnightblue" d="M113.031,-29.2454C125.334,-27.4165 138.365,-25.4795 150.642,-23.6546"/>
<polygon fill="midnightblue" stroke="midnightblue" points="151.367,-27.0853 160.744,-22.153 150.338,-20.1614 151.367,-27.0853"/>
</g>
</g>
</svg>
