<?xml version="1.0" encoding="UTF-8" standalone="no"?>
<!DOCTYPE svg PUBLIC "-//W3C//DTD SVG 1.1//EN"
 "http://www.w3.org/Graphics/SVG/1.1/DTD/svg11.dtd">
<!-- Generated by graphviz version 2.38.0 (20140413.2041)
 -->
<!-- Title: vnix::units::impl::grams::grams Pages: 1 -->
<svg width="249pt" height="78pt"
 viewBox="0.00 0.00 249.00 77.50" xmlns="http://www.w3.org/2000/svg" xmlns:xlink="http://www.w3.org/1999/xlink">
<g id="graph0" class="graph" transform="scale(1 1) rotate(0) translate(4 73.5)">
<title>vnix::units::impl::grams::grams</title>
<polygon fill="white" stroke="none" points="-4,4 -4,-73.5 245,-73.5 245,4 -4,4"/>
<!-- Node1 -->
<g id="node1" class="node"><title>Node1</title>
<polygon fill="#bfbfbf" stroke="black" points="0,-22.5 0,-52.5 92,-52.5 92,-22.5 0,-22.5"/>
<text text-anchor="start" x="8" y="-40.5" font-family="Helvetica,sans-Serif" font-size="10.00">vnix::units::impl::</text>
<text text-anchor="middle" x="46" y="-29.5" font-family="Helvetica,sans-Serif" font-size="10.00">grams::grams</text>
</g>
<!-- Node2 -->
<g id="node2" class="node"><title>Node2</title>
<g id="a_node2"><a xlink:href="namespacevnix_1_1units.html#af575ed32786db17128ea88a742574599" target="_top" xlink:title="Exponents for mass. ">
<polygon fill="white" stroke="black" points="128,-50 128,-69 241,-69 241,-50 128,-50"/>
<text text-anchor="middle" x="184.5" y="-57" font-family="Helvetica,sans-Serif" font-size="10.00">vnix::units::mass_dim</text>
</a>
</g>
</g>
<!-- Node1&#45;&gt;Node2 -->
<g id="edge1" class="edge"><title>Node1&#45;&gt;Node2</title>
<path fill="none" stroke="midnightblue" d="M92.0735,-44.7646C100.222,-46.078 108.872,-47.472 117.474,-48.8584"/>
<polygon fill="midnightblue" stroke="midnightblue" points="117.088,-52.3413 127.517,-50.4771 118.201,-45.4304 117.088,-52.3413"/>
</g>
<!-- Node3 -->
<g id="node3" class="node"><title>Node3</title>
<g id="a_node3"><a xlink:href="classvnix_1_1units_1_1basic__dim.html#a14314170633ec56f7a71b977f1d6d13e" target="_top" xlink:title="Encode data for this dim into a word. ">
<polygon fill="white" stroke="black" points="139,-0.5 139,-30.5 230,-30.5 230,-0.5 139,-0.5"/>
<text text-anchor="start" x="147" y="-18.5" font-family="Helvetica,sans-Serif" font-size="10.00">vnix::units::basic</text>
<text text-anchor="middle" x="184.5" y="-7.5" font-family="Helvetica,sans-Serif" font-size="10.00">_dim::encode</text>
</a>
</g>
</g>
<!-- Node1&#45;&gt;Node3 -->
<g id="edge2" class="edge"><title>Node1&#45;&gt;Node3</title>
<path fill="none" stroke="midnightblue" d="M92.0735,-30.2354C103.843,-28.3385 116.656,-26.2734 128.864,-24.3059"/>
<polygon fill="midnightblue" stroke="midnightblue" points="129.623,-27.7287 138.939,-22.682 128.51,-20.8178 129.623,-27.7287"/>
</g>
</g>
</svg>
