<?xml version="1.0" encoding="UTF-8" standalone="no"?>
<!DOCTYPE svg PUBLIC "-//W3C//DTD SVG 1.1//EN"
 "http://www.w3.org/Graphics/SVG/1.1/DTD/svg11.dtd">
<!-- Generated by graphviz version 2.38.0 (20140413.2041)
 -->
<!-- Title: vnix::units::number&lt; long double const &amp; &gt; Pages: 1 -->
<svg width="177pt" height="263pt"
 viewBox="0.00 0.00 176.50 263.00" xmlns="http://www.w3.org/2000/svg" xmlns:xlink="http://www.w3.org/1999/xlink">
<g id="graph0" class="graph" transform="scale(1 1) rotate(0) translate(4 259)">
<title>vnix::units::number&lt; long double const &amp; &gt;</title>
<polygon fill="white" stroke="none" points="-4,4 -4,-259 172.5,-259 172.5,4 -4,4"/>
<!-- Node1 -->
<g id="node1" class="node"><title>Node1</title>
<polygon fill="#bfbfbf" stroke="black" points="-7.10543e-15,-0.5 -7.10543e-15,-30.5 121,-30.5 121,-0.5 -7.10543e-15,-0.5"/>
<text text-anchor="start" x="8" y="-18.5" font-family="Helvetica,sans-Serif" font-size="10.00">vnix::units::number</text>
<text text-anchor="middle" x="60.5" y="-7.5" font-family="Helvetica,sans-Serif" font-size="10.00">&lt; long double const &amp; &gt;</text>
</g>
<!-- Node2 -->
<g id="node2" class="node"><title>Node2</title>
<g id="a_node2"><a xlink:href="structvnix_1_1units_1_1basic__number.html" target="_top" xlink:title="vnix::units::basic\l_number\&lt; long double\l const &amp; \&gt;">
<polygon fill="white" stroke="black" points="4,-68.5 4,-109.5 117,-109.5 117,-68.5 4,-68.5"/>
<text text-anchor="start" x="12" y="-97.5" font-family="Helvetica,sans-Serif" font-size="10.00">vnix::units::basic</text>
<text text-anchor="start" x="12" y="-86.5" font-family="Helvetica,sans-Serif" font-size="10.00">_number&lt; long double</text>
<text text-anchor="middle" x="60.5" y="-75.5" font-family="Helvetica,sans-Serif" font-size="10.00"> const &amp; &gt;</text>
</a>
</g>
</g>
<!-- Node2&#45;&gt;Node1 -->
<g id="edge1" class="edge"><title>Node2&#45;&gt;Node1</title>
<path fill="none" stroke="midnightblue" d="M60.5,-58.1581C60.5,-48.6872 60.5,-38.6473 60.5,-30.7972"/>
<polygon fill="midnightblue" stroke="midnightblue" points="57.0001,-58.4623 60.5,-68.4623 64.0001,-58.4623 57.0001,-58.4623"/>
</g>
<!-- Node3 -->
<g id="node3" class="node"><title>Node3</title>
<g id="a_node3"><a xlink:href="structvnix_1_1units_1_1basic__number.html" target="_top" xlink:title="Base&#45;struct for wrapper to disambiguate scalar from dimval and protected storage for numeric value as...">
<polygon fill="white" stroke="black" points="15,-157.5 15,-187.5 106,-187.5 106,-157.5 15,-157.5"/>
<text text-anchor="start" x="23" y="-175.5" font-family="Helvetica,sans-Serif" font-size="10.00">vnix::units::basic</text>
<text text-anchor="middle" x="60.5" y="-164.5" font-family="Helvetica,sans-Serif" font-size="10.00">_number&lt; T &gt;</text>
</a>
</g>
</g>
<!-- Node3&#45;&gt;Node2 -->
<g id="edge2" class="edge"><title>Node3&#45;&gt;Node2</title>
<path fill="none" stroke="orange" stroke-dasharray="5,2" d="M60.5,-147.066C60.5,-135.061 60.5,-120.794 60.5,-109.528"/>
<polygon fill="orange" stroke="orange" points="57.0001,-147.304 60.5,-157.304 64.0001,-147.304 57.0001,-147.304"/>
<text text-anchor="middle" x="114.5" y="-131" font-family="Helvetica,sans-Serif" font-size="10.00"> &lt; long double const &amp; &gt;</text>
</g>
<!-- Node4 -->
<g id="node4" class="node"><title>Node4</title>
<polygon fill="white" stroke="#bfbfbf" points="46,-235.5 46,-254.5 75,-254.5 75,-235.5 46,-235.5"/>
<text text-anchor="middle" x="60.5" y="-242.5" font-family="Helvetica,sans-Serif" font-size="10.00">T</text>
</g>
<!-- Node4&#45;&gt;Node3 -->
<g id="edge3" class="edge"><title>Node4&#45;&gt;Node3</title>
<path fill="none" stroke="#9a32cd" stroke-dasharray="5,2" d="M60.5,-225.236C60.5,-213.408 60.5,-198.383 60.5,-187.576"/>
<polygon fill="#9a32cd" stroke="#9a32cd" points="57.0001,-225.355 60.5,-235.355 64.0001,-225.355 57.0001,-225.355"/>
<text text-anchor="middle" x="67.5" y="-209" font-family="Helvetica,sans-Serif" font-size="10.00"> v_</text>
</g>
</g>
</svg>
