<?xml version="1.0" encoding="UTF-8" standalone="no"?>
<!DOCTYPE svg PUBLIC "-//W3C//DTD SVG 1.1//EN"
 "http://www.w3.org/Graphics/SVG/1.1/DTD/svg11.dtd">
<!-- Generated by graphviz version 2.38.0 (20140413.2041)
 -->
<!-- Title: vnix::units::impl::dynes&lt; T &gt; Pages: 1 -->
<svg width="1019pt" height="121pt"
 viewBox="0.00 0.00 1019.00 120.50" xmlns="http://www.w3.org/2000/svg" xmlns:xlink="http://www.w3.org/1999/xlink">
<g id="graph0" class="graph" transform="scale(1 1) rotate(0) translate(4 116.5)">
<title>vnix::units::impl::dynes&lt; T &gt;</title>
<polygon fill="white" stroke="none" points="-4,4 -4,-116.5 1015,-116.5 1015,4 -4,4"/>
<!-- Node1 -->
<g id="node1" class="node"><title>Node1</title>
<polygon fill="#bfbfbf" stroke="black" points="919,-27.5 919,-57.5 1011,-57.5 1011,-27.5 919,-27.5"/>
<text text-anchor="start" x="927" y="-45.5" font-family="Helvetica,sans-Serif" font-size="10.00">vnix::units::impl::</text>
<text text-anchor="middle" x="965" y="-34.5" font-family="Helvetica,sans-Serif" font-size="10.00">dynes&lt; T &gt;</text>
</g>
<!-- Node2 -->
<g id="node2" class="node"><title>Node2</title>
<g id="a_node2"><a xlink:href="classvnix_1_1units_1_1basic__statdim.html" target="_top" xlink:title="vnix::units::basic\l_statdim\&lt;(g\&lt; float \&gt;\l.d()+cm\&lt; float \&gt;.d()\l&#45;s\&lt; float \&gt;.d()&#45;s\&lt; float\l \&gt;.d()).encode(), T \&gt;">
<polygon fill="white" stroke="black" points="770,-11 770,-74 882,-74 882,-11 770,-11"/>
<text text-anchor="start" x="778" y="-62" font-family="Helvetica,sans-Serif" font-size="10.00">vnix::units::basic</text>
<text text-anchor="start" x="778" y="-51" font-family="Helvetica,sans-Serif" font-size="10.00">_statdim&lt;(g&lt; float &gt;</text>
<text text-anchor="start" x="778" y="-40" font-family="Helvetica,sans-Serif" font-size="10.00">.d()+cm&lt; float &gt;.d()</text>
<text text-anchor="start" x="778" y="-29" font-family="Helvetica,sans-Serif" font-size="10.00">&#45;s&lt; float &gt;.d()&#45;s&lt; float</text>
<text text-anchor="middle" x="826" y="-18" font-family="Helvetica,sans-Serif" font-size="10.00"> &gt;.d()).encode(), T &gt;</text>
</a>
</g>
</g>
<!-- Node2&#45;&gt;Node1 -->
<g id="edge1" class="edge"><title>Node2&#45;&gt;Node1</title>
<path fill="none" stroke="midnightblue" d="M892.415,-42.5C901.406,-42.5 910.467,-42.5 918.978,-42.5"/>
<polygon fill="midnightblue" stroke="midnightblue" points="892.328,-39.0001 882.328,-42.5 892.328,-46.0001 892.328,-39.0001"/>
</g>
<!-- Node3 -->
<g id="node3" class="node"><title>Node3</title>
<g id="a_node3"><a xlink:href="classvnix_1_1units_1_1dimval.html" target="_top" xlink:title="vnix::units::dimval\l\&lt; T, statdim_base\&lt; D \&gt; \&gt;">
<polygon fill="white" stroke="black" points="386,-49.5 386,-79.5 517,-79.5 517,-49.5 386,-49.5"/>
<text text-anchor="start" x="394" y="-67.5" font-family="Helvetica,sans-Serif" font-size="10.00">vnix::units::dimval</text>
<text text-anchor="middle" x="451.5" y="-56.5" font-family="Helvetica,sans-Serif" font-size="10.00">&lt; T, statdim_base&lt; D &gt; &gt;</text>
</a>
</g>
</g>
<!-- Node3&#45;&gt;Node2 -->
<g id="edge2" class="edge"><title>Node3&#45;&gt;Node2</title>
<path fill="none" stroke="midnightblue" d="M527.282,-67.0434C588.038,-68.1401 675.838,-67.5212 752,-58.5 757.798,-57.8132 763.813,-56.8735 769.79,-55.791"/>
<polygon fill="midnightblue" stroke="midnightblue" points="527.084,-63.5388 517.016,-66.8371 526.944,-70.5374 527.084,-63.5388"/>
</g>
<!-- Node8 -->
<g id="node8" class="node"><title>Node8</title>
<g id="a_node8"><a xlink:href="classvnix_1_1units_1_1basic__statdim.html" target="_top" xlink:title="Model of a statically dimensioned physical quantity. ">
<polygon fill="white" stroke="black" points="554,-5.5 554,-35.5 646,-35.5 646,-5.5 554,-5.5"/>
<text text-anchor="start" x="562" y="-23.5" font-family="Helvetica,sans-Serif" font-size="10.00">vnix::units::basic</text>
<text text-anchor="middle" x="600" y="-12.5" font-family="Helvetica,sans-Serif" font-size="10.00">_statdim&lt; D, T &gt;</text>
</a>
</g>
</g>
<!-- Node3&#45;&gt;Node8 -->
<g id="edge9" class="edge"><title>Node3&#45;&gt;Node8</title>
<path fill="none" stroke="midnightblue" d="M512.395,-46.5112C526.172,-42.3734 540.601,-38.0396 553.644,-34.1224"/>
<polygon fill="midnightblue" stroke="midnightblue" points="511.078,-43.2521 502.507,-49.4808 513.091,-49.9563 511.078,-43.2521"/>
</g>
<!-- Node4 -->
<g id="node4" class="node"><title>Node4</title>
<g id="a_node4"><a xlink:href="structvnix_1_1units_1_1number.html" target="_top" xlink:title="Generic template for wrapper to disambiguate scalar from dimval and protected storage for numeric val...">
<polygon fill="white" stroke="black" points="0,-93 0,-112 124,-112 124,-93 0,-93"/>
<text text-anchor="middle" x="62" y="-100" font-family="Helvetica,sans-Serif" font-size="10.00">vnix::units::number&lt; T &gt;</text>
</a>
</g>
</g>
<!-- Node4&#45;&gt;Node3 -->
<g id="edge3" class="edge"><title>Node4&#45;&gt;Node3</title>
<path fill="none" stroke="darkgreen" d="M134.359,-105.014C196.532,-105.942 288.873,-104.271 368,-90.5 382.055,-88.0539 397.04,-83.8428 410.329,-79.5135"/>
<polygon fill="darkgreen" stroke="darkgreen" points="134.324,-101.513 124.264,-104.836 134.201,-108.512 134.324,-101.513"/>
</g>
<!-- Node6 -->
<g id="node6" class="node"><title>Node6</title>
<g id="a_node6"><a xlink:href="classvnix_1_1units_1_1dimval.html" target="_top" xlink:title="Model of a physically dimensioned quantity. ">
<polygon fill="white" stroke="black" points="163,-49.5 163,-79.5 259,-79.5 259,-49.5 163,-49.5"/>
<text text-anchor="start" x="171" y="-67.5" font-family="Helvetica,sans-Serif" font-size="10.00">vnix::units::dimval</text>
<text text-anchor="middle" x="211" y="-56.5" font-family="Helvetica,sans-Serif" font-size="10.00">&lt; T, B &gt;</text>
</a>
</g>
</g>
<!-- Node4&#45;&gt;Node6 -->
<g id="edge6" class="edge"><title>Node4&#45;&gt;Node6</title>
<path fill="none" stroke="darkgreen" d="M109.791,-90.4043C126.747,-86.0212 145.898,-81.0706 162.882,-76.6802"/>
<polygon fill="darkgreen" stroke="darkgreen" points="108.9,-87.0195 100.094,-92.911 110.652,-93.7968 108.9,-87.0195"/>
</g>
<!-- Node5 -->
<g id="node5" class="node"><title>Node5</title>
<g id="a_node5"><a xlink:href="structvnix_1_1units_1_1statdim__base.html" target="_top" xlink:title="Base&#45;type for a dimensioned value whose dimension is specified statically at compile&#45;time by way of a...">
<polygon fill="white" stroke="black" points="161,-0.5 161,-30.5 261,-30.5 261,-0.5 161,-0.5"/>
<text text-anchor="start" x="169" y="-18.5" font-family="Helvetica,sans-Serif" font-size="10.00">vnix::units::statdim</text>
<text text-anchor="middle" x="211" y="-7.5" font-family="Helvetica,sans-Serif" font-size="10.00">_base&lt; D &gt;</text>
</a>
</g>
</g>
<!-- Node5&#45;&gt;Node3 -->
<g id="edge4" class="edge"><title>Node5&#45;&gt;Node3</title>
<path fill="none" stroke="midnightblue" d="M271.135,-27.6492C305.892,-34.7902 349.876,-43.8268 385.59,-51.1641"/>
<polygon fill="midnightblue" stroke="midnightblue" points="271.628,-24.1776 261.128,-25.5934 270.219,-31.0344 271.628,-24.1776"/>
</g>
<!-- Node6&#45;&gt;Node3 -->
<g id="edge5" class="edge"><title>Node6&#45;&gt;Node3</title>
<path fill="none" stroke="orange" stroke-dasharray="5,2" d="M269.216,-64.5C304.354,-64.5 349.449,-64.5 385.872,-64.5"/>
<polygon fill="orange" stroke="orange" points="269.12,-61.0001 259.12,-64.5 269.12,-68.0001 269.12,-61.0001"/>
<text text-anchor="start" x="279" y="-78.5" font-family="Helvetica,sans-Serif" font-size="10.00"> &lt; T, statdim_base&lt;</text>
<text text-anchor="middle" x="323.5" y="-67.5" font-family="Helvetica,sans-Serif" font-size="10.00"> D &gt; &gt;</text>
</g>
<!-- Node7 -->
<g id="node7" class="node"><title>Node7</title>
<polygon fill="white" stroke="#bfbfbf" points="47.5,-49 47.5,-68 76.5,-68 76.5,-49 47.5,-49"/>
<text text-anchor="middle" x="62" y="-56" font-family="Helvetica,sans-Serif" font-size="10.00">B</text>
</g>
<!-- Node7&#45;&gt;Node6 -->
<g id="edge7" class="edge"><title>Node7&#45;&gt;Node6</title>
<path fill="none" stroke="midnightblue" d="M86.5905,-59.4629C107.109,-60.3004 137.463,-61.5393 162.932,-62.5789"/>
<polygon fill="midnightblue" stroke="midnightblue" points="86.7004,-55.9645 76.5659,-59.0537 86.4148,-62.9587 86.7004,-55.9645"/>
</g>
<!-- Node8&#45;&gt;Node2 -->
<g id="edge8" class="edge"><title>Node8&#45;&gt;Node2</title>
<path fill="none" stroke="orange" stroke-dasharray="5,2" d="M656.557,-12.4395C685.271,-9.74535 720.753,-8.71298 752,-14.5 757.873,-15.5876 763.883,-17.1285 769.81,-18.9348"/>
<polygon fill="orange" stroke="orange" points="655.892,-8.98942 646.304,-13.4977 656.611,-15.9524 655.892,-8.98942"/>
<text text-anchor="start" x="664" y="-50.5" font-family="Helvetica,sans-Serif" font-size="10.00"> &lt;(g&lt; float &gt;.d()+cm</text>
<text text-anchor="start" x="664" y="-39.5" font-family="Helvetica,sans-Serif" font-size="10.00">&lt; float &gt;.d()&#45;s&lt; float</text>
<text text-anchor="start" x="664" y="-28.5" font-family="Helvetica,sans-Serif" font-size="10.00"> &gt;.d()&#45;s&lt; float &gt;.d())</text>
<text text-anchor="middle" x="708" y="-17.5" font-family="Helvetica,sans-Serif" font-size="10.00">.encode(), T &gt;</text>
</g>
</g>
</svg>
