<?xml version="1.0" encoding="UTF-8" standalone="no"?>
<!DOCTYPE svg PUBLIC "-//W3C//DTD SVG 1.1//EN"
 "http://www.w3.org/Graphics/SVG/1.1/DTD/svg11.dtd">
<!-- Generated by graphviz version 2.38.0 (20140413.2041)
 -->
<!-- Title: vnix::units::impl::kelvins::kelvins Pages: 1 -->
<svg width="276pt" height="78pt"
 viewBox="0.00 0.00 276.00 77.50" xmlns="http://www.w3.org/2000/svg" xmlns:xlink="http://www.w3.org/1999/xlink">
<g id="graph0" class="graph" transform="scale(1 1) rotate(0) translate(4 73.5)">
<title>vnix::units::impl::kelvins::kelvins</title>
<polygon fill="white" stroke="none" points="-4,4 -4,-73.5 272,-73.5 272,4 -4,4"/>
<!-- Node1 -->
<g id="node1" class="node"><title>Node1</title>
<polygon fill="#bfbfbf" stroke="black" points="0,-22.5 0,-52.5 92,-52.5 92,-22.5 0,-22.5"/>
<text text-anchor="start" x="8" y="-40.5" font-family="Helvetica,sans-Serif" font-size="10.00">vnix::units::impl::</text>
<text text-anchor="middle" x="46" y="-29.5" font-family="Helvetica,sans-Serif" font-size="10.00">kelvins::kelvins</text>
</g>
<!-- Node2 -->
<g id="node2" class="node"><title>Node2</title>
<g id="a_node2"><a xlink:href="namespacevnix_1_1units.html#af7c82f08a947ec69ecb063c91fa1a208" target="_top" xlink:title="Exponents for temperature. ">
<polygon fill="white" stroke="black" points="128,-50 128,-69 268,-69 268,-50 128,-50"/>
<text text-anchor="middle" x="198" y="-57" font-family="Helvetica,sans-Serif" font-size="10.00">vnix::units::temperature_dim</text>
</a>
</g>
</g>
<!-- Node1&#45;&gt;Node2 -->
<g id="edge1" class="edge"><title>Node1&#45;&gt;Node2</title>
<path fill="none" stroke="midnightblue" d="M92.0049,-44.1007C101.454,-45.4866 111.664,-46.9841 121.877,-48.482"/>
<polygon fill="midnightblue" stroke="midnightblue" points="121.661,-51.9877 132.063,-49.9759 122.677,-45.0618 121.661,-51.9877"/>
</g>
<!-- Node3 -->
<g id="node3" class="node"><title>Node3</title>
<g id="a_node3"><a xlink:href="classvnix_1_1units_1_1basic__dim.html#a14314170633ec56f7a71b977f1d6d13e" target="_top" xlink:title="Encode data for this dim into a word. ">
<polygon fill="white" stroke="black" points="152.5,-0.5 152.5,-30.5 243.5,-30.5 243.5,-0.5 152.5,-0.5"/>
<text text-anchor="start" x="160.5" y="-18.5" font-family="Helvetica,sans-Serif" font-size="10.00">vnix::units::basic</text>
<text text-anchor="middle" x="198" y="-7.5" font-family="Helvetica,sans-Serif" font-size="10.00">_dim::encode</text>
</a>
</g>
</g>
<!-- Node1&#45;&gt;Node3 -->
<g id="edge2" class="edge"><title>Node1&#45;&gt;Node3</title>
<path fill="none" stroke="midnightblue" d="M92.0049,-30.8993C107.798,-28.5829 125.717,-25.9549 142.222,-23.5341"/>
<polygon fill="midnightblue" stroke="midnightblue" points="142.899,-26.9723 152.285,-22.0581 141.883,-20.0464 142.899,-26.9723"/>
</g>
</g>
</svg>
