<?xml version="1.0" encoding="UTF-8" standalone="no"?>
<!DOCTYPE svg PUBLIC "-//W3C//DTD SVG 1.1//EN"
 "http://www.w3.org/Graphics/SVG/1.1/DTD/svg11.dtd">
<!-- Generated by graphviz version 2.38.0 (20140413.2041)
 -->
<!-- Title: vnix::units::basic_number&lt; T &gt; Pages: 1 -->
<svg width="582pt" height="827pt"
 viewBox="0.00 0.00 582.00 826.50" xmlns="http://www.w3.org/2000/svg" xmlns:xlink="http://www.w3.org/1999/xlink">
<g id="graph0" class="graph" transform="scale(1 1) rotate(0) translate(4 822.5)">
<title>vnix::units::basic_number&lt; T &gt;</title>
<polygon fill="white" stroke="none" points="-4,4 -4,-822.5 578,-822.5 578,4 -4,4"/>
<!-- Node1 -->
<g id="node1" class="node"><title>Node1</title>
<polygon fill="#bfbfbf" stroke="black" points="0,-400.5 0,-430.5 91,-430.5 91,-400.5 0,-400.5"/>
<text text-anchor="start" x="8" y="-418.5" font-family="Helvetica,sans-Serif" font-size="10.00">vnix::units::basic</text>
<text text-anchor="middle" x="45.5" y="-407.5" font-family="Helvetica,sans-Serif" font-size="10.00">_number&lt; T &gt;</text>
</g>
<!-- Node2 -->
<g id="node2" class="node"><title>Node2</title>
<g id="a_node2"><a xlink:href="structvnix_1_1units_1_1basic__number.html" target="_top" xlink:title="vnix::units::basic\l_number\&lt; float &amp; \&gt;">
<polygon fill="white" stroke="black" points="275,-786.5 275,-816.5 376,-816.5 376,-786.5 275,-786.5"/>
<text text-anchor="start" x="283" y="-804.5" font-family="Helvetica,sans-Serif" font-size="10.00">vnix::units::basic</text>
<text text-anchor="middle" x="325.5" y="-793.5" font-family="Helvetica,sans-Serif" font-size="10.00">_number&lt; float &amp; &gt;</text>
</a>
</g>
</g>
<!-- Node1&#45;&gt;Node2 -->
<g id="edge1" class="edge"><title>Node1&#45;&gt;Node2</title>
<path fill="none" stroke="orange" stroke-dasharray="5,2" d="M47.3979,-440.548C50.5132,-512.566 63.3078,-717.952 109,-763.5 152.184,-806.547 225.926,-810.554 274.935,-807.553"/>
<polygon fill="orange" stroke="orange" points="50.8949,-440.4 46.9915,-430.551 43.9007,-440.684 50.8949,-440.4"/>
<text text-anchor="middle" x="171" y="-810.5" font-family="Helvetica,sans-Serif" font-size="10.00"> &lt; float &amp; &gt;</text>
</g>
<!-- Node4 -->
<g id="node4" class="node"><title>Node4</title>
<g id="a_node4"><a xlink:href="structvnix_1_1units_1_1basic__number.html" target="_top" xlink:title="vnix::units::basic\l_number\&lt; float const &amp; \&gt;">
<polygon fill="white" stroke="black" points="261.5,-737.5 261.5,-767.5 389.5,-767.5 389.5,-737.5 261.5,-737.5"/>
<text text-anchor="start" x="269.5" y="-755.5" font-family="Helvetica,sans-Serif" font-size="10.00">vnix::units::basic</text>
<text text-anchor="middle" x="325.5" y="-744.5" font-family="Helvetica,sans-Serif" font-size="10.00">_number&lt; float const &amp; &gt;</text>
</a>
</g>
</g>
<!-- Node1&#45;&gt;Node4 -->
<g id="edge3" class="edge"><title>Node1&#45;&gt;Node4</title>
<path fill="none" stroke="orange" stroke-dasharray="5,2" d="M48.0801,-440.855C52.7309,-506.789 68.6651,-681.164 109,-719.5 130.399,-739.838 205.741,-747.644 261.337,-750.638"/>
<polygon fill="orange" stroke="orange" points="51.55,-440.289 47.3837,-430.548 44.5659,-440.761 51.55,-440.289"/>
<text text-anchor="middle" x="171" y="-751.5" font-family="Helvetica,sans-Serif" font-size="10.00"> &lt; float const &amp; &gt;</text>
</g>
<!-- Node6 -->
<g id="node6" class="node"><title>Node6</title>
<g id="a_node6"><a xlink:href="structvnix_1_1units_1_1basic__number.html" target="_top" xlink:title="vnix::units::basic\l_number\&lt; double \&gt;">
<polygon fill="white" stroke="black" points="275,-688.5 275,-718.5 376,-718.5 376,-688.5 275,-688.5"/>
<text text-anchor="start" x="283" y="-706.5" font-family="Helvetica,sans-Serif" font-size="10.00">vnix::units::basic</text>
<text text-anchor="middle" x="325.5" y="-695.5" font-family="Helvetica,sans-Serif" font-size="10.00">_number&lt; double &gt;</text>
</a>
</g>
</g>
<!-- Node1&#45;&gt;Node6 -->
<g id="edge5" class="edge"><title>Node1&#45;&gt;Node6</title>
<path fill="none" stroke="orange" stroke-dasharray="5,2" d="M49.4049,-440.658C56.4812,-497.435 76.4558,-632.955 109,-663.5 153.254,-705.036 226.018,-710.342 274.587,-708.44"/>
<polygon fill="orange" stroke="orange" points="52.877,-440.215 48.1976,-430.71 45.928,-441.059 52.877,-440.215"/>
<text text-anchor="middle" x="171" y="-710.5" font-family="Helvetica,sans-Serif" font-size="10.00"> &lt; double &gt;</text>
</g>
<!-- Node8 -->
<g id="node8" class="node"><title>Node8</title>
<g id="a_node8"><a xlink:href="structvnix_1_1units_1_1basic__number.html" target="_top" xlink:title="vnix::units::basic\l_number\&lt; float \&gt;">
<polygon fill="white" stroke="black" points="280,-639.5 280,-669.5 371,-669.5 371,-639.5 280,-639.5"/>
<text text-anchor="start" x="288" y="-657.5" font-family="Helvetica,sans-Serif" font-size="10.00">vnix::units::basic</text>
<text text-anchor="middle" x="325.5" y="-646.5" font-family="Helvetica,sans-Serif" font-size="10.00">_number&lt; float &gt;</text>
</a>
</g>
</g>
<!-- Node1&#45;&gt;Node8 -->
<g id="edge7" class="edge"><title>Node1&#45;&gt;Node8</title>
<path fill="none" stroke="orange" stroke-dasharray="5,2" d="M46.1974,-440.805C47.1571,-484.626 55.9356,-574.363 109,-620.5 133.867,-642.121 224.486,-650.058 279.988,-652.924"/>
<polygon fill="orange" stroke="orange" points="49.6964,-440.673 46.0997,-430.708 42.6967,-440.741 49.6964,-440.673"/>
<text text-anchor="middle" x="171" y="-651.5" font-family="Helvetica,sans-Serif" font-size="10.00"> &lt; float &gt;</text>
</g>
<!-- Node10 -->
<g id="node10" class="node"><title>Node10</title>
<g id="a_node10"><a xlink:href="structvnix_1_1units_1_1basic__number.html" target="_top" xlink:title="vnix::units::basic\l_number\&lt; long double &amp; \&gt;">
<polygon fill="white" stroke="black" points="260,-590.5 260,-620.5 391,-620.5 391,-590.5 260,-590.5"/>
<text text-anchor="start" x="268" y="-608.5" font-family="Helvetica,sans-Serif" font-size="10.00">vnix::units::basic</text>
<text text-anchor="middle" x="325.5" y="-597.5" font-family="Helvetica,sans-Serif" font-size="10.00">_number&lt; long double &amp; &gt;</text>
</a>
</g>
</g>
<!-- Node1&#45;&gt;Node10 -->
<g id="edge9" class="edge"><title>Node1&#45;&gt;Node10</title>
<path fill="none" stroke="orange" stroke-dasharray="5,2" d="M49.8341,-440.787C55.6456,-474.239 70.896,-532.57 109,-563.5 151.172,-597.732 213.167,-606.868 259.85,-608.24"/>
<polygon fill="orange" stroke="orange" points="53.2841,-440.195 48.2619,-430.866 46.3704,-441.291 53.2841,-440.195"/>
<text text-anchor="middle" x="171" y="-608.5" font-family="Helvetica,sans-Serif" font-size="10.00"> &lt; long double &amp; &gt;</text>
</g>
<!-- Node12 -->
<g id="node12" class="node"><title>Node12</title>
<g id="a_node12"><a xlink:href="structvnix_1_1units_1_1basic__number.html" target="_top" xlink:title="vnix::units::basic\l_number\&lt; int \&gt;">
<polygon fill="white" stroke="black" points="280,-541.5 280,-571.5 371,-571.5 371,-541.5 280,-541.5"/>
<text text-anchor="start" x="288" y="-559.5" font-family="Helvetica,sans-Serif" font-size="10.00">vnix::units::basic</text>
<text text-anchor="middle" x="325.5" y="-548.5" font-family="Helvetica,sans-Serif" font-size="10.00">_number&lt; int &gt;</text>
</a>
</g>
</g>
<!-- Node1&#45;&gt;Node12 -->
<g id="edge11" class="edge"><title>Node1&#45;&gt;Node12</title>
<path fill="none" stroke="orange" stroke-dasharray="5,2" d="M57.0703,-439.606C67.3663,-460.24 84.9784,-489.133 109,-505.5 160.631,-540.678 233.545,-551.746 279.92,-555.138"/>
<polygon fill="orange" stroke="orange" points="60.195,-438.027 52.7326,-430.506 53.8761,-441.039 60.195,-438.027"/>
<text text-anchor="middle" x="171" y="-551.5" font-family="Helvetica,sans-Serif" font-size="10.00"> &lt; int &gt;</text>
</g>
<!-- Node14 -->
<g id="node14" class="node"><title>Node14</title>
<g id="a_node14"><a xlink:href="structvnix_1_1units_1_1basic__number.html" target="_top" xlink:title="vnix::units::basic\l_number\&lt; mv::mat\&lt; T,\l NR, NC \&gt; \&gt;">
<polygon fill="white" stroke="black" points="267,-482 267,-523 384,-523 384,-482 267,-482"/>
<text text-anchor="start" x="275" y="-511" font-family="Helvetica,sans-Serif" font-size="10.00">vnix::units::basic</text>
<text text-anchor="start" x="275" y="-500" font-family="Helvetica,sans-Serif" font-size="10.00">_number&lt; mv::mat&lt; T,</text>
<text text-anchor="middle" x="325.5" y="-489" font-family="Helvetica,sans-Serif" font-size="10.00"> NR, NC &gt; &gt;</text>
</a>
</g>
</g>
<!-- Node1&#45;&gt;Node14 -->
<g id="edge13" class="edge"><title>Node1&#45;&gt;Node14</title>
<path fill="none" stroke="orange" stroke-dasharray="5,2" d="M72.3355,-436.746C83.1007,-444.644 96.0886,-453.01 109,-458.5 159.954,-480.164 222.323,-491.403 266.828,-497.076"/>
<polygon fill="orange" stroke="orange" points="74.3008,-433.843 64.2225,-430.575 70.0633,-439.415 74.3008,-433.843"/>
<text text-anchor="middle" x="171" y="-493.5" font-family="Helvetica,sans-Serif" font-size="10.00"> &lt; mv::mat&lt; T, NR, NC &gt; &gt;</text>
</g>
<!-- Node16 -->
<g id="node16" class="node"><title>Node16</title>
<g id="a_node16"><a xlink:href="structvnix_1_1units_1_1basic__number.html" target="_top" xlink:title="vnix::units::basic\l_number\&lt; Eigen::CwiseBinary\lOp\&lt; B, L, R \&gt; \&gt;">
<polygon fill="white" stroke="black" points="251,-422 251,-463 400,-463 400,-422 251,-422"/>
<text text-anchor="start" x="259" y="-451" font-family="Helvetica,sans-Serif" font-size="10.00">vnix::units::basic</text>
<text text-anchor="start" x="259" y="-440" font-family="Helvetica,sans-Serif" font-size="10.00">_number&lt; Eigen::CwiseBinary</text>
<text text-anchor="middle" x="325.5" y="-429" font-family="Helvetica,sans-Serif" font-size="10.00">Op&lt; B, L, R &gt; &gt;</text>
</a>
</g>
</g>
<!-- Node1&#45;&gt;Node16 -->
<g id="edge15" class="edge"><title>Node1&#45;&gt;Node16</title>
<path fill="none" stroke="orange" stroke-dasharray="5,2" d="M101.385,-420.831C144.172,-424.986 204.001,-430.797 250.934,-435.355"/>
<polygon fill="orange" stroke="orange" points="101.457,-417.321 91.1655,-419.838 100.78,-424.288 101.457,-417.321"/>
<text text-anchor="start" x="115" y="-446.5" font-family="Helvetica,sans-Serif" font-size="10.00"> &lt; Eigen::CwiseBinaryOp</text>
<text text-anchor="middle" x="171" y="-435.5" font-family="Helvetica,sans-Serif" font-size="10.00">&lt; B, L, R &gt; &gt;</text>
</g>
<!-- Node18 -->
<g id="node18" class="node"><title>Node18</title>
<g id="a_node18"><a xlink:href="structvnix_1_1units_1_1basic__number.html" target="_top" xlink:title="vnix::units::basic\l_number\&lt; double const &amp; \&gt;">
<polygon fill="white" stroke="black" points="257,-373.5 257,-403.5 394,-403.5 394,-373.5 257,-373.5"/>
<text text-anchor="start" x="265" y="-391.5" font-family="Helvetica,sans-Serif" font-size="10.00">vnix::units::basic</text>
<text text-anchor="middle" x="325.5" y="-380.5" font-family="Helvetica,sans-Serif" font-size="10.00">_number&lt; double const &amp; &gt;</text>
</a>
</g>
</g>
<!-- Node1&#45;&gt;Node18 -->
<g id="edge17" class="edge"><title>Node1&#45;&gt;Node18</title>
<path fill="none" stroke="orange" stroke-dasharray="5,2" d="M101.288,-407.42C103.893,-407.096 106.474,-406.787 109,-406.5 158.427,-400.882 214.419,-396.258 256.939,-393.103"/>
<polygon fill="orange" stroke="orange" points="100.647,-403.974 91.1824,-408.735 101.55,-410.916 100.647,-403.974"/>
<text text-anchor="middle" x="171" y="-409.5" font-family="Helvetica,sans-Serif" font-size="10.00"> &lt; double const &amp; &gt;</text>
</g>
<!-- Node20 -->
<g id="node20" class="node"><title>Node20</title>
<g id="a_node20"><a xlink:href="structvnix_1_1units_1_1basic__number.html" target="_top" xlink:title="vnix::units::basic\l_number\&lt; Eigen::Matrix\l\&lt; S, R, C, OPT, MR, MC \&gt; \&gt;">
<polygon fill="white" stroke="black" points="252,-314 252,-355 399,-355 399,-314 252,-314"/>
<text text-anchor="start" x="260" y="-343" font-family="Helvetica,sans-Serif" font-size="10.00">vnix::units::basic</text>
<text text-anchor="start" x="260" y="-332" font-family="Helvetica,sans-Serif" font-size="10.00">_number&lt; Eigen::Matrix</text>
<text text-anchor="middle" x="325.5" y="-321" font-family="Helvetica,sans-Serif" font-size="10.00">&lt; S, R, C, OPT, MR, MC &gt; &gt;</text>
</a>
</g>
</g>
<!-- Node1&#45;&gt;Node20 -->
<g id="edge19" class="edge"><title>Node1&#45;&gt;Node20</title>
<path fill="none" stroke="orange" stroke-dasharray="5,2" d="M69.9486,-393.527C81.0023,-384.369 94.8539,-374.491 109,-368.5 154.165,-349.371 208.781,-340.895 251.729,-337.189"/>
<polygon fill="orange" stroke="orange" points="67.368,-391.131 62.0827,-400.313 71.9406,-396.431 67.368,-391.131"/>
<text text-anchor="start" x="115" y="-382.5" font-family="Helvetica,sans-Serif" font-size="10.00"> &lt; Eigen::Matrix&lt; S,</text>
<text text-anchor="middle" x="171" y="-371.5" font-family="Helvetica,sans-Serif" font-size="10.00"> R, C, OPT, MR, MC &gt; &gt;</text>
</g>
<!-- Node22 -->
<g id="node22" class="node"><title>Node22</title>
<g id="a_node22"><a xlink:href="structvnix_1_1units_1_1basic__number.html" target="_top" xlink:title="vnix::units::basic\l_number\&lt; double &amp; \&gt;">
<polygon fill="white" stroke="black" points="270.5,-265.5 270.5,-295.5 380.5,-295.5 380.5,-265.5 270.5,-265.5"/>
<text text-anchor="start" x="278.5" y="-283.5" font-family="Helvetica,sans-Serif" font-size="10.00">vnix::units::basic</text>
<text text-anchor="middle" x="325.5" y="-272.5" font-family="Helvetica,sans-Serif" font-size="10.00">_number&lt; double &amp; &gt;</text>
</a>
</g>
</g>
<!-- Node1&#45;&gt;Node22 -->
<g id="edge21" class="edge"><title>Node1&#45;&gt;Node22</title>
<path fill="none" stroke="orange" stroke-dasharray="5,2" d="M56.8796,-390.945C67.0509,-369.962 84.5872,-340.676 109,-324.5 134.982,-307.284 215.461,-294.132 270.366,-286.862"/>
<polygon fill="orange" stroke="orange" points="53.6186,-389.658 52.6032,-400.204 59.9736,-392.593 53.6186,-389.658"/>
<text text-anchor="middle" x="171" y="-327.5" font-family="Helvetica,sans-Serif" font-size="10.00"> &lt; double &amp; &gt;</text>
</g>
<!-- Node24 -->
<g id="node24" class="node"><title>Node24</title>
<g id="a_node24"><a xlink:href="structvnix_1_1units_1_1basic__number.html" target="_top" xlink:title="vnix::units::basic\l_number\&lt; long double \&gt;">
<polygon fill="white" stroke="black" points="264.5,-216.5 264.5,-246.5 386.5,-246.5 386.5,-216.5 264.5,-216.5"/>
<text text-anchor="start" x="272.5" y="-234.5" font-family="Helvetica,sans-Serif" font-size="10.00">vnix::units::basic</text>
<text text-anchor="middle" x="325.5" y="-223.5" font-family="Helvetica,sans-Serif" font-size="10.00">_number&lt; long double &gt;</text>
</a>
</g>
</g>
<!-- Node1&#45;&gt;Node24 -->
<g id="edge23" class="edge"><title>Node1&#45;&gt;Node24</title>
<path fill="none" stroke="orange" stroke-dasharray="5,2" d="M50.7393,-389.989C57.3886,-358.355 73.3956,-305.119 109,-276.5 115.144,-271.561 202.891,-254.295 264.498,-242.644"/>
<polygon fill="orange" stroke="orange" points="47.2267,-389.718 48.7609,-400.202 54.099,-391.05 47.2267,-389.718"/>
<text text-anchor="middle" x="171" y="-279.5" font-family="Helvetica,sans-Serif" font-size="10.00"> &lt; long double &gt;</text>
</g>
<!-- Node26 -->
<g id="node26" class="node"><title>Node26</title>
<g id="a_node26"><a xlink:href="structvnix_1_1units_1_1basic__number.html" target="_top" xlink:title="vnix::units::basic\l_number\&lt; long double\l const &amp; \&gt;">
<polygon fill="white" stroke="black" points="269,-157 269,-198 382,-198 382,-157 269,-157"/>
<text text-anchor="start" x="277" y="-186" font-family="Helvetica,sans-Serif" font-size="10.00">vnix::units::basic</text>
<text text-anchor="start" x="277" y="-175" font-family="Helvetica,sans-Serif" font-size="10.00">_number&lt; long double</text>
<text text-anchor="middle" x="325.5" y="-164" font-family="Helvetica,sans-Serif" font-size="10.00"> const &amp; &gt;</text>
</a>
</g>
</g>
<!-- Node1&#45;&gt;Node26 -->
<g id="edge25" class="edge"><title>Node1&#45;&gt;Node26</title>
<path fill="none" stroke="orange" stroke-dasharray="5,2" d="M47.8381,-390.439C51.3195,-351.169 63.8566,-275.313 109,-233.5 112.013,-230.709 206.055,-206.93 268.9,-191.268"/>
<polygon fill="orange" stroke="orange" points="44.3425,-390.25 47.0768,-400.486 51.3225,-390.779 44.3425,-390.25"/>
<text text-anchor="middle" x="171" y="-236.5" font-family="Helvetica,sans-Serif" font-size="10.00"> &lt; long double const &amp; &gt;</text>
</g>
<!-- Node28 -->
<g id="node28" class="node"><title>Node28</title>
<g id="a_node28"><a xlink:href="structvnix_1_1units_1_1basic__number.html" target="_top" xlink:title="vnix::units::basic\l_number\&lt; int const &amp; \&gt;">
<polygon fill="white" stroke="black" points="266,-108.5 266,-138.5 385,-138.5 385,-108.5 266,-108.5"/>
<text text-anchor="start" x="274" y="-126.5" font-family="Helvetica,sans-Serif" font-size="10.00">vnix::units::basic</text>
<text text-anchor="middle" x="325.5" y="-115.5" font-family="Helvetica,sans-Serif" font-size="10.00">_number&lt; int const &amp; &gt;</text>
</a>
</g>
</g>
<!-- Node1&#45;&gt;Node28 -->
<g id="edge27" class="edge"><title>Node1&#45;&gt;Node28</title>
<path fill="none" stroke="orange" stroke-dasharray="5,2" d="M45.8104,-390.247C45.9562,-343.276 53.211,-242.121 109,-185.5 130.893,-163.28 209.82,-144.584 265.798,-133.707"/>
<polygon fill="orange" stroke="orange" points="42.312,-390.476 45.891,-400.448 49.3118,-390.42 42.312,-390.476"/>
<text text-anchor="middle" x="171" y="-188.5" font-family="Helvetica,sans-Serif" font-size="10.00"> &lt; int const &amp; &gt;</text>
</g>
<!-- Node30 -->
<g id="node30" class="node"><title>Node30</title>
<g id="a_node30"><a xlink:href="structvnix_1_1units_1_1basic__number.html" target="_top" xlink:title="vnix::units::basic\l_number\&lt; Eigen::Product\l\&lt; L, R, OPT \&gt; \&gt;">
<polygon fill="white" stroke="black" points="261.5,-49 261.5,-90 389.5,-90 389.5,-49 261.5,-49"/>
<text text-anchor="start" x="269.5" y="-78" font-family="Helvetica,sans-Serif" font-size="10.00">vnix::units::basic</text>
<text text-anchor="start" x="269.5" y="-67" font-family="Helvetica,sans-Serif" font-size="10.00">_number&lt; Eigen::Product</text>
<text text-anchor="middle" x="325.5" y="-56" font-family="Helvetica,sans-Serif" font-size="10.00">&lt; L, R, OPT &gt; &gt;</text>
</a>
</g>
</g>
<!-- Node1&#45;&gt;Node30 -->
<g id="edge29" class="edge"><title>Node1&#45;&gt;Node30</title>
<path fill="none" stroke="orange" stroke-dasharray="5,2" d="M48.2695,-390.064C53.3415,-324.727 70.1356,-153.408 109,-114.5 148.435,-75.0202 212.983,-65.9355 261.172,-65.4176"/>
<polygon fill="orange" stroke="orange" points="44.7601,-390.06 47.5049,-400.293 51.7406,-390.582 44.7601,-390.06"/>
<text text-anchor="start" x="124" y="-128.5" font-family="Helvetica,sans-Serif" font-size="10.00"> &lt; Eigen::Product&lt; L,</text>
<text text-anchor="middle" x="171" y="-117.5" font-family="Helvetica,sans-Serif" font-size="10.00"> R, OPT &gt; &gt;</text>
</g>
<!-- Node32 -->
<g id="node32" class="node"><title>Node32</title>
<g id="a_node32"><a xlink:href="structvnix_1_1units_1_1basic__number.html" target="_top" xlink:title="vnix::units::basic\l_number\&lt; int &amp; \&gt;">
<polygon fill="white" stroke="black" points="279.5,-0.5 279.5,-30.5 371.5,-30.5 371.5,-0.5 279.5,-0.5"/>
<text text-anchor="start" x="287.5" y="-18.5" font-family="Helvetica,sans-Serif" font-size="10.00">vnix::units::basic</text>
<text text-anchor="middle" x="325.5" y="-7.5" font-family="Helvetica,sans-Serif" font-size="10.00">_number&lt; int &amp; &gt;</text>
</a>
</g>
</g>
<!-- Node1&#45;&gt;Node32 -->
<g id="edge31" class="edge"><title>Node1&#45;&gt;Node32</title>
<path fill="none" stroke="orange" stroke-dasharray="5,2" d="M47.182,-389.801C49.7214,-314.91 61.1309,-99.1532 109,-51.5 153.49,-7.21049 230.522,-5.14002 279.427,-9.21114"/>
<polygon fill="orange" stroke="orange" points="43.6718,-390.074 46.8573,-400.179 50.6684,-390.293 43.6718,-390.074"/>
<text text-anchor="middle" x="171" y="-54.5" font-family="Helvetica,sans-Serif" font-size="10.00"> &lt; int &amp; &gt;</text>
</g>
<!-- Node3 -->
<g id="node3" class="node"><title>Node3</title>
<g id="a_node3"><a xlink:href="structvnix_1_1units_1_1number_3_01float_01_6_01_4.html" target="_top" xlink:title="Specialization of scalar for float. ">
<polygon fill="white" stroke="black" points="455.5,-786.5 455.5,-816.5 555.5,-816.5 555.5,-786.5 455.5,-786.5"/>
<text text-anchor="start" x="463.5" y="-804.5" font-family="Helvetica,sans-Serif" font-size="10.00">vnix::units::number</text>
<text text-anchor="middle" x="505.5" y="-793.5" font-family="Helvetica,sans-Serif" font-size="10.00">&lt; float &amp; &gt;</text>
</a>
</g>
</g>
<!-- Node2&#45;&gt;Node3 -->
<g id="edge2" class="edge"><title>Node2&#45;&gt;Node3</title>
<path fill="none" stroke="midnightblue" d="M386.207,-801.5C408.726,-801.5 434.061,-801.5 455.491,-801.5"/>
<polygon fill="midnightblue" stroke="midnightblue" points="386.083,-798 376.083,-801.5 386.083,-805 386.083,-798"/>
</g>
<!-- Node5 -->
<g id="node5" class="node"><title>Node5</title>
<g id="a_node5"><a xlink:href="structvnix_1_1units_1_1number_3_01float_01const_01_6_01_4.html" target="_top" xlink:title="Specialization of scalar for float. ">
<polygon fill="white" stroke="black" points="455.5,-737.5 455.5,-767.5 555.5,-767.5 555.5,-737.5 455.5,-737.5"/>
<text text-anchor="start" x="463.5" y="-755.5" font-family="Helvetica,sans-Serif" font-size="10.00">vnix::units::number</text>
<text text-anchor="middle" x="505.5" y="-744.5" font-family="Helvetica,sans-Serif" font-size="10.00">&lt; float const &amp; &gt;</text>
</a>
</g>
</g>
<!-- Node4&#45;&gt;Node5 -->
<g id="edge4" class="edge"><title>Node4&#45;&gt;Node5</title>
<path fill="none" stroke="midnightblue" d="M399.515,-752.5C418.292,-752.5 438.05,-752.5 455.297,-752.5"/>
<polygon fill="midnightblue" stroke="midnightblue" points="399.507,-749 389.507,-752.5 399.507,-756 399.507,-749"/>
</g>
<!-- Node7 -->
<g id="node7" class="node"><title>Node7</title>
<g id="a_node7"><a xlink:href="structvnix_1_1units_1_1number_3_01double_01_4.html" target="_top" xlink:title="Specialization of scalar for double. ">
<polygon fill="white" stroke="black" points="455.5,-688.5 455.5,-718.5 555.5,-718.5 555.5,-688.5 455.5,-688.5"/>
<text text-anchor="start" x="463.5" y="-706.5" font-family="Helvetica,sans-Serif" font-size="10.00">vnix::units::number</text>
<text text-anchor="middle" x="505.5" y="-695.5" font-family="Helvetica,sans-Serif" font-size="10.00">&lt; double &gt;</text>
</a>
</g>
</g>
<!-- Node6&#45;&gt;Node7 -->
<g id="edge6" class="edge"><title>Node6&#45;&gt;Node7</title>
<path fill="none" stroke="midnightblue" d="M386.207,-703.5C408.726,-703.5 434.061,-703.5 455.491,-703.5"/>
<polygon fill="midnightblue" stroke="midnightblue" points="386.083,-700 376.083,-703.5 386.083,-707 386.083,-700"/>
</g>
<!-- Node9 -->
<g id="node9" class="node"><title>Node9</title>
<g id="a_node9"><a xlink:href="structvnix_1_1units_1_1number_3_01float_01_4.html" target="_top" xlink:title="Specialization of scalar for float. ">
<polygon fill="white" stroke="black" points="455.5,-639.5 455.5,-669.5 555.5,-669.5 555.5,-639.5 455.5,-639.5"/>
<text text-anchor="start" x="463.5" y="-657.5" font-family="Helvetica,sans-Serif" font-size="10.00">vnix::units::number</text>
<text text-anchor="middle" x="505.5" y="-646.5" font-family="Helvetica,sans-Serif" font-size="10.00">&lt; float &gt;</text>
</a>
</g>
</g>
<!-- Node8&#45;&gt;Node9 -->
<g id="edge8" class="edge"><title>Node8&#45;&gt;Node9</title>
<path fill="none" stroke="midnightblue" d="M381.591,-654.5C405.118,-654.5 432.362,-654.5 455.213,-654.5"/>
<polygon fill="midnightblue" stroke="midnightblue" points="381.417,-651 371.417,-654.5 381.417,-658 381.417,-651"/>
</g>
<!-- Node11 -->
<g id="node11" class="node"><title>Node11</title>
<g id="a_node11"><a xlink:href="structvnix_1_1units_1_1number_3_01long_01double_01_6_01_4.html" target="_top" xlink:title="Specialization of scalar for long double. ">
<polygon fill="white" stroke="black" points="455.5,-590.5 455.5,-620.5 555.5,-620.5 555.5,-590.5 455.5,-590.5"/>
<text text-anchor="start" x="463.5" y="-608.5" font-family="Helvetica,sans-Serif" font-size="10.00">vnix::units::number</text>
<text text-anchor="middle" x="505.5" y="-597.5" font-family="Helvetica,sans-Serif" font-size="10.00">&lt; long double &amp; &gt;</text>
</a>
</g>
</g>
<!-- Node10&#45;&gt;Node11 -->
<g id="edge10" class="edge"><title>Node10&#45;&gt;Node11</title>
<path fill="none" stroke="midnightblue" d="M401.074,-605.5C419.375,-605.5 438.511,-605.5 455.277,-605.5"/>
<polygon fill="midnightblue" stroke="midnightblue" points="401.014,-602 391.014,-605.5 401.014,-609 401.014,-602"/>
</g>
<!-- Node13 -->
<g id="node13" class="node"><title>Node13</title>
<g id="a_node13"><a xlink:href="structvnix_1_1units_1_1number_3_01int_01_4.html" target="_top" xlink:title="Specialization of scalar for int. ">
<polygon fill="white" stroke="black" points="455.5,-541.5 455.5,-571.5 555.5,-571.5 555.5,-541.5 455.5,-541.5"/>
<text text-anchor="start" x="463.5" y="-559.5" font-family="Helvetica,sans-Serif" font-size="10.00">vnix::units::number</text>
<text text-anchor="middle" x="505.5" y="-548.5" font-family="Helvetica,sans-Serif" font-size="10.00">&lt; int &gt;</text>
</a>
</g>
</g>
<!-- Node12&#45;&gt;Node13 -->
<g id="edge12" class="edge"><title>Node12&#45;&gt;Node13</title>
<path fill="none" stroke="midnightblue" d="M381.591,-556.5C405.118,-556.5 432.362,-556.5 455.213,-556.5"/>
<polygon fill="midnightblue" stroke="midnightblue" points="381.417,-553 371.417,-556.5 381.417,-560 381.417,-553"/>
</g>
<!-- Node15 -->
<g id="node15" class="node"><title>Node15</title>
<g id="a_node15"><a xlink:href="structvnix_1_1units_1_1number_3_01mv_1_1mat_3_01T_00_01NR_00_01NC_01_4_01_4.html" target="_top" xlink:title="Specialization of scalar for vnix::mv::mat. ">
<polygon fill="white" stroke="black" points="437,-487.5 437,-517.5 574,-517.5 574,-487.5 437,-487.5"/>
<text text-anchor="start" x="445" y="-505.5" font-family="Helvetica,sans-Serif" font-size="10.00">vnix::units::number</text>
<text text-anchor="middle" x="505.5" y="-494.5" font-family="Helvetica,sans-Serif" font-size="10.00">&lt; mv::mat&lt; T, NR, NC &gt; &gt;</text>
</a>
</g>
</g>
<!-- Node14&#45;&gt;Node15 -->
<g id="edge14" class="edge"><title>Node14&#45;&gt;Node15</title>
<path fill="none" stroke="midnightblue" d="M394.684,-502.5C408.485,-502.5 422.993,-502.5 436.778,-502.5"/>
<polygon fill="midnightblue" stroke="midnightblue" points="394.292,-499 384.291,-502.5 394.291,-506 394.292,-499"/>
</g>
<!-- Node17 -->
<g id="node17" class="node"><title>Node17</title>
<g id="a_node17"><a xlink:href="structvnix_1_1units_1_1number_3_01Eigen_1_1CwiseBinaryOp_3_01B_00_01L_00_01R_01_4_01_4.html" target="_top" xlink:title="Specialization of scalar for Eigen::CwiseBinaryOp. ">
<polygon fill="white" stroke="black" points="443,-422 443,-463 568,-463 568,-422 443,-422"/>
<text text-anchor="start" x="451" y="-451" font-family="Helvetica,sans-Serif" font-size="10.00">vnix::units::number</text>
<text text-anchor="start" x="451" y="-440" font-family="Helvetica,sans-Serif" font-size="10.00">&lt; Eigen::CwiseBinaryOp</text>
<text text-anchor="middle" x="505.5" y="-429" font-family="Helvetica,sans-Serif" font-size="10.00">&lt; B, L, R &gt; &gt;</text>
</a>
</g>
</g>
<!-- Node16&#45;&gt;Node17 -->
<g id="edge16" class="edge"><title>Node16&#45;&gt;Node17</title>
<path fill="none" stroke="midnightblue" d="M410.206,-442.5C421.172,-442.5 432.245,-442.5 442.757,-442.5"/>
<polygon fill="midnightblue" stroke="midnightblue" points="410.184,-439 400.184,-442.5 410.184,-446 410.184,-439"/>
</g>
<!-- Node19 -->
<g id="node19" class="node"><title>Node19</title>
<g id="a_node19"><a xlink:href="structvnix_1_1units_1_1number_3_01double_01const_01_6_01_4.html" target="_top" xlink:title="Specialization of scalar for double. ">
<polygon fill="white" stroke="black" points="455.5,-373.5 455.5,-403.5 555.5,-403.5 555.5,-373.5 455.5,-373.5"/>
<text text-anchor="start" x="463.5" y="-391.5" font-family="Helvetica,sans-Serif" font-size="10.00">vnix::units::number</text>
<text text-anchor="middle" x="505.5" y="-380.5" font-family="Helvetica,sans-Serif" font-size="10.00">&lt; double const &amp; &gt;</text>
</a>
</g>
</g>
<!-- Node18&#45;&gt;Node19 -->
<g id="edge18" class="edge"><title>Node18&#45;&gt;Node19</title>
<path fill="none" stroke="midnightblue" d="M404.176,-388.5C421.528,-388.5 439.462,-388.5 455.285,-388.5"/>
<polygon fill="midnightblue" stroke="midnightblue" points="404.048,-385 394.048,-388.5 404.048,-392 404.048,-385"/>
</g>
<!-- Node21 -->
<g id="node21" class="node"><title>Node21</title>
<g id="a_node21"><a xlink:href="structvnix_1_1units_1_1number_3_01Eigen_1_1Matrix_3_01S_00_01R_00_01C_00_01OPT_00_01MR_00_01MC_01_4_01_4.html" target="_top" xlink:title="Specialization of scalar for Eigen::Matrix. ">
<polygon fill="white" stroke="black" points="441.5,-314 441.5,-355 569.5,-355 569.5,-314 441.5,-314"/>
<text text-anchor="start" x="449.5" y="-343" font-family="Helvetica,sans-Serif" font-size="10.00">vnix::units::number</text>
<text text-anchor="start" x="449.5" y="-332" font-family="Helvetica,sans-Serif" font-size="10.00">&lt; Eigen::Matrix&lt; S,</text>
<text text-anchor="middle" x="505.5" y="-321" font-family="Helvetica,sans-Serif" font-size="10.00"> R, C, OPT, MR, MC &gt; &gt;</text>
</a>
</g>
</g>
<!-- Node20&#45;&gt;Node21 -->
<g id="edge20" class="edge"><title>Node20&#45;&gt;Node21</title>
<path fill="none" stroke="midnightblue" d="M409.432,-334.5C420.209,-334.5 431.105,-334.5 441.485,-334.5"/>
<polygon fill="midnightblue" stroke="midnightblue" points="409.156,-331 399.156,-334.5 409.156,-338 409.156,-331"/>
</g>
<!-- Node23 -->
<g id="node23" class="node"><title>Node23</title>
<g id="a_node23"><a xlink:href="structvnix_1_1units_1_1number_3_01double_01_6_01_4.html" target="_top" xlink:title="Specialization of scalar for double. ">
<polygon fill="white" stroke="black" points="455.5,-265.5 455.5,-295.5 555.5,-295.5 555.5,-265.5 455.5,-265.5"/>
<text text-anchor="start" x="463.5" y="-283.5" font-family="Helvetica,sans-Serif" font-size="10.00">vnix::units::number</text>
<text text-anchor="middle" x="505.5" y="-272.5" font-family="Helvetica,sans-Serif" font-size="10.00">&lt; double &amp; &gt;</text>
</a>
</g>
</g>
<!-- Node22&#45;&gt;Node23 -->
<g id="edge22" class="edge"><title>Node22&#45;&gt;Node23</title>
<path fill="none" stroke="midnightblue" d="M391.087,-280.5C412.268,-280.5 435.448,-280.5 455.301,-280.5"/>
<polygon fill="midnightblue" stroke="midnightblue" points="390.873,-277 380.873,-280.5 390.873,-284 390.873,-277"/>
</g>
<!-- Node25 -->
<g id="node25" class="node"><title>Node25</title>
<g id="a_node25"><a xlink:href="structvnix_1_1units_1_1number_3_01long_01double_01_4.html" target="_top" xlink:title="Specialization of scalar for long double. ">
<polygon fill="white" stroke="black" points="455.5,-216.5 455.5,-246.5 555.5,-246.5 555.5,-216.5 455.5,-216.5"/>
<text text-anchor="start" x="463.5" y="-234.5" font-family="Helvetica,sans-Serif" font-size="10.00">vnix::units::number</text>
<text text-anchor="middle" x="505.5" y="-223.5" font-family="Helvetica,sans-Serif" font-size="10.00">&lt; long double &gt;</text>
</a>
</g>
</g>
<!-- Node24&#45;&gt;Node25 -->
<g id="edge24" class="edge"><title>Node24&#45;&gt;Node25</title>
<path fill="none" stroke="midnightblue" d="M396.845,-231.5C416.386,-231.5 437.182,-231.5 455.235,-231.5"/>
<polygon fill="midnightblue" stroke="midnightblue" points="396.763,-228 386.763,-231.5 396.763,-235 396.763,-228"/>
</g>
<!-- Node27 -->
<g id="node27" class="node"><title>Node27</title>
<g id="a_node27"><a xlink:href="structvnix_1_1units_1_1number_3_01long_01double_01const_01_6_01_4.html" target="_top" xlink:title="Specialization of scalar for long double. ">
<polygon fill="white" stroke="black" points="445,-162.5 445,-192.5 566,-192.5 566,-162.5 445,-162.5"/>
<text text-anchor="start" x="453" y="-180.5" font-family="Helvetica,sans-Serif" font-size="10.00">vnix::units::number</text>
<text text-anchor="middle" x="505.5" y="-169.5" font-family="Helvetica,sans-Serif" font-size="10.00">&lt; long double const &amp; &gt;</text>
</a>
</g>
</g>
<!-- Node26&#45;&gt;Node27 -->
<g id="edge26" class="edge"><title>Node26&#45;&gt;Node27</title>
<path fill="none" stroke="midnightblue" d="M392.787,-177.5C409.866,-177.5 428.142,-177.5 444.86,-177.5"/>
<polygon fill="midnightblue" stroke="midnightblue" points="392.332,-174 382.332,-177.5 392.332,-181 392.332,-174"/>
</g>
<!-- Node29 -->
<g id="node29" class="node"><title>Node29</title>
<g id="a_node29"><a xlink:href="structvnix_1_1units_1_1number_3_01int_01const_01_6_01_4.html" target="_top" xlink:title="Specialization of scalar for int. ">
<polygon fill="white" stroke="black" points="455.5,-108.5 455.5,-138.5 555.5,-138.5 555.5,-108.5 455.5,-108.5"/>
<text text-anchor="start" x="463.5" y="-126.5" font-family="Helvetica,sans-Serif" font-size="10.00">vnix::units::number</text>
<text text-anchor="middle" x="505.5" y="-115.5" font-family="Helvetica,sans-Serif" font-size="10.00">&lt; int const &amp; &gt;</text>
</a>
</g>
</g>
<!-- Node28&#45;&gt;Node29 -->
<g id="edge28" class="edge"><title>Node28&#45;&gt;Node29</title>
<path fill="none" stroke="midnightblue" d="M395.278,-123.5C415.294,-123.5 436.75,-123.5 455.301,-123.5"/>
<polygon fill="midnightblue" stroke="midnightblue" points="395.277,-120 385.277,-123.5 395.277,-127 395.277,-120"/>
</g>
<!-- Node31 -->
<g id="node31" class="node"><title>Node31</title>
<g id="a_node31"><a xlink:href="structvnix_1_1units_1_1number_3_01Eigen_1_1Product_3_01L_00_01R_00_01OPT_01_4_01_4.html" target="_top" xlink:title="Specialization of scalar for Eigen::Product. ">
<polygon fill="white" stroke="black" points="452,-49 452,-90 559,-90 559,-49 452,-49"/>
<text text-anchor="start" x="460" y="-78" font-family="Helvetica,sans-Serif" font-size="10.00">vnix::units::number</text>
<text text-anchor="start" x="460" y="-67" font-family="Helvetica,sans-Serif" font-size="10.00">&lt; Eigen::Product&lt; L,</text>
<text text-anchor="middle" x="505.5" y="-56" font-family="Helvetica,sans-Serif" font-size="10.00"> R, OPT &gt; &gt;</text>
</a>
</g>
</g>
<!-- Node30&#45;&gt;Node31 -->
<g id="edge30" class="edge"><title>Node30&#45;&gt;Node31</title>
<path fill="none" stroke="midnightblue" d="M399.688,-69.5C417.182,-69.5 435.518,-69.5 451.875,-69.5"/>
<polygon fill="midnightblue" stroke="midnightblue" points="399.507,-66.0001 389.507,-69.5 399.507,-73.0001 399.507,-66.0001"/>
</g>
<!-- Node33 -->
<g id="node33" class="node"><title>Node33</title>
<g id="a_node33"><a xlink:href="structvnix_1_1units_1_1number_3_01int_01_6_01_4.html" target="_top" xlink:title="Specialization of scalar for int. ">
<polygon fill="white" stroke="black" points="455.5,-0.5 455.5,-30.5 555.5,-30.5 555.5,-0.5 455.5,-0.5"/>
<text text-anchor="start" x="463.5" y="-18.5" font-family="Helvetica,sans-Serif" font-size="10.00">vnix::units::number</text>
<text text-anchor="middle" x="505.5" y="-7.5" font-family="Helvetica,sans-Serif" font-size="10.00">&lt; int &amp; &gt;</text>
</a>
</g>
</g>
<!-- Node32&#45;&gt;Node33 -->
<g id="edge32" class="edge"><title>Node32&#45;&gt;Node33</title>
<path fill="none" stroke="midnightblue" d="M382.047,-15.5C405.553,-15.5 432.703,-15.5 455.456,-15.5"/>
<polygon fill="midnightblue" stroke="midnightblue" points="381.878,-12.0001 371.877,-15.5 381.877,-19.0001 381.878,-12.0001"/>
</g>
</g>
</svg>
