<?xml version="1.0" encoding="UTF-8" standalone="no"?>
<!DOCTYPE svg PUBLIC "-//W3C//DTD SVG 1.1//EN"
 "http://www.w3.org/Graphics/SVG/1.1/DTD/svg11.dtd">
<!-- Generated by graphviz version 2.38.0 (20140413.2041)
 -->
<!-- Title: vnix::units::impl::coulombs::coulombs Pages: 1 -->
<svg width="269pt" height="78pt"
 viewBox="0.00 0.00 269.00 77.50" xmlns="http://www.w3.org/2000/svg" xmlns:xlink="http://www.w3.org/1999/xlink">
<g id="graph0" class="graph" transform="scale(1 1) rotate(0) translate(4 73.5)">
<title>vnix::units::impl::coulombs::coulombs</title>
<polygon fill="white" stroke="none" points="-4,4 -4,-73.5 265,-73.5 265,4 -4,4"/>
<!-- Node1 -->
<g id="node1" class="node"><title>Node1</title>
<polygon fill="#bfbfbf" stroke="black" points="0,-22.5 0,-52.5 107,-52.5 107,-22.5 0,-22.5"/>
<text text-anchor="start" x="8" y="-40.5" font-family="Helvetica,sans-Serif" font-size="10.00">vnix::units::impl::</text>
<text text-anchor="middle" x="53.5" y="-29.5" font-family="Helvetica,sans-Serif" font-size="10.00">coulombs::coulombs</text>
</g>
<!-- Node2 -->
<g id="node2" class="node"><title>Node2</title>
<g id="a_node2"><a xlink:href="namespacevnix_1_1units.html#a7c21c2081677cdfbb0560e81c5be9382" target="_top" xlink:title="Exponents for charge. ">
<polygon fill="white" stroke="black" points="143,-50 143,-69 261,-69 261,-50 143,-50"/>
<text text-anchor="middle" x="202" y="-57" font-family="Helvetica,sans-Serif" font-size="10.00">vnix::units::charge_dim</text>
</a>
</g>
</g>
<!-- Node1&#45;&gt;Node2 -->
<g id="edge1" class="edge"><title>Node1&#45;&gt;Node2</title>
<path fill="none" stroke="midnightblue" d="M107.39,-45.4425C115.637,-46.681 124.258,-47.9756 132.788,-49.2565"/>
<polygon fill="midnightblue" stroke="midnightblue" points="132.322,-52.7258 142.731,-50.7497 133.362,-45.8034 132.322,-52.7258"/>
</g>
<!-- Node3 -->
<g id="node3" class="node"><title>Node3</title>
<g id="a_node3"><a xlink:href="classvnix_1_1units_1_1basic__dim.html#a14314170633ec56f7a71b977f1d6d13e" target="_top" xlink:title="Encode data for this dim into a word. ">
<polygon fill="white" stroke="black" points="156.5,-0.5 156.5,-30.5 247.5,-30.5 247.5,-0.5 156.5,-0.5"/>
<text text-anchor="start" x="164.5" y="-18.5" font-family="Helvetica,sans-Serif" font-size="10.00">vnix::units::basic</text>
<text text-anchor="middle" x="202" y="-7.5" font-family="Helvetica,sans-Serif" font-size="10.00">_dim::encode</text>
</a>
</g>
</g>
<!-- Node1&#45;&gt;Node3 -->
<g id="edge2" class="edge"><title>Node1&#45;&gt;Node3</title>
<path fill="none" stroke="midnightblue" d="M107.39,-29.5575C120.065,-27.654 133.624,-25.6178 146.377,-23.7028"/>
<polygon fill="midnightblue" stroke="midnightblue" points="147.029,-27.1441 156.399,-22.1978 145.99,-20.2218 147.029,-27.1441"/>
</g>
</g>
</svg>
