<?xml version="1.0" encoding="UTF-8" standalone="no"?>
<!DOCTYPE svg PUBLIC "-//W3C//DTD SVG 1.1//EN"
 "http://www.w3.org/Graphics/SVG/1.1/DTD/svg11.dtd">
<!-- Generated by graphviz version 2.38.0 (20140413.2041)
 -->
<!-- Title: vnix::units::impl::millikelvins::millikelvins Pages: 1 -->
<svg width="303pt" height="78pt"
 viewBox="0.00 0.00 303.00 77.50" xmlns="http://www.w3.org/2000/svg" xmlns:xlink="http://www.w3.org/1999/xlink">
<g id="graph0" class="graph" transform="scale(1 1) rotate(0) translate(4 73.5)">
<title>vnix::units::impl::millikelvins::millikelvins</title>
<polygon fill="white" stroke="none" points="-4,4 -4,-73.5 299,-73.5 299,4 -4,4"/>
<!-- Node1 -->
<g id="node1" class="node"><title>Node1</title>
<polygon fill="#bfbfbf" stroke="black" points="0,-22.5 0,-52.5 119,-52.5 119,-22.5 0,-22.5"/>
<text text-anchor="start" x="8" y="-40.5" font-family="Helvetica,sans-Serif" font-size="10.00">vnix::units::impl::</text>
<text text-anchor="middle" x="59.5" y="-29.5" font-family="Helvetica,sans-Serif" font-size="10.00">millikelvins::millikelvins</text>
</g>
<!-- Node2 -->
<g id="node2" class="node"><title>Node2</title>
<g id="a_node2"><a xlink:href="namespacevnix_1_1units.html#af7c82f08a947ec69ecb063c91fa1a208" target="_top" xlink:title="Exponents for temperature. ">
<polygon fill="white" stroke="black" points="155,-50 155,-69 295,-69 295,-50 155,-50"/>
<text text-anchor="middle" x="225" y="-57" font-family="Helvetica,sans-Serif" font-size="10.00">vnix::units::temperature_dim</text>
</a>
</g>
</g>
<!-- Node1&#45;&gt;Node2 -->
<g id="edge1" class="edge"><title>Node1&#45;&gt;Node2</title>
<path fill="none" stroke="midnightblue" d="M119.065,-45.3804C127.43,-46.5058 136.147,-47.6788 144.825,-48.8465"/>
<polygon fill="midnightblue" stroke="midnightblue" points="144.594,-52.3469 154.971,-50.2117 145.527,-45.4094 144.594,-52.3469"/>
</g>
<!-- Node3 -->
<g id="node3" class="node"><title>Node3</title>
<g id="a_node3"><a xlink:href="classvnix_1_1units_1_1basic__dim.html#a14314170633ec56f7a71b977f1d6d13e" target="_top" xlink:title="Encode data for this dim into a word. ">
<polygon fill="white" stroke="black" points="179.5,-0.5 179.5,-30.5 270.5,-30.5 270.5,-0.5 179.5,-0.5"/>
<text text-anchor="start" x="187.5" y="-18.5" font-family="Helvetica,sans-Serif" font-size="10.00">vnix::units::basic</text>
<text text-anchor="middle" x="225" y="-7.5" font-family="Helvetica,sans-Serif" font-size="10.00">_dim::encode</text>
</a>
</g>
</g>
<!-- Node1&#45;&gt;Node3 -->
<g id="edge2" class="edge"><title>Node1&#45;&gt;Node3</title>
<path fill="none" stroke="midnightblue" d="M119.065,-29.6196C135.376,-27.4249 153.03,-25.0495 169.12,-22.8844"/>
<polygon fill="midnightblue" stroke="midnightblue" points="169.995,-26.2984 179.439,-21.496 169.061,-19.3609 169.995,-26.2984"/>
</g>
</g>
</svg>
