<?xml version="1.0" encoding="UTF-8" standalone="no"?>
<!DOCTYPE svg PUBLIC "-//W3C//DTD SVG 1.1//EN"
 "http://www.w3.org/Graphics/SVG/1.1/DTD/svg11.dtd">
<!-- Generated by graphviz version 2.38.0 (20140413.2041)
 -->
<!-- Title: vnix::units::impl::gigajoules::gigajoules Pages: 1 -->
<svg width="254pt" height="137pt"
 viewBox="0.00 0.00 254.00 137.00" xmlns="http://www.w3.org/2000/svg" xmlns:xlink="http://www.w3.org/1999/xlink">
<g id="graph0" class="graph" transform="scale(1 1) rotate(0) translate(4 133)">
<title>vnix::units::impl::gigajoules::gigajoules</title>
<polygon fill="white" stroke="none" points="-4,4 -4,-133 250,-133 250,4 -4,4"/>
<!-- Node1 -->
<g id="node1" class="node"><title>Node1</title>
<polygon fill="#bfbfbf" stroke="black" points="0,-49.5 0,-79.5 110,-79.5 110,-49.5 0,-49.5"/>
<text text-anchor="start" x="8" y="-67.5" font-family="Helvetica,sans-Serif" font-size="10.00">vnix::units::impl::</text>
<text text-anchor="middle" x="55" y="-56.5" font-family="Helvetica,sans-Serif" font-size="10.00">gigajoules::gigajoules</text>
</g>
<!-- Node2 -->
<g id="node2" class="node"><title>Node2</title>
<g id="a_node2"><a xlink:href="structvnix_1_1units_1_1statdim__base.html#acd979076b68cf256d845231674711ff9" target="_top" xlink:title="Exponent for each unit in dimensioned quantity. ">
<polygon fill="white" stroke="black" points="146,-98.5 146,-128.5 246,-128.5 246,-98.5 146,-98.5"/>
<text text-anchor="start" x="154" y="-116.5" font-family="Helvetica,sans-Serif" font-size="10.00">vnix::units::statdim</text>
<text text-anchor="middle" x="196" y="-105.5" font-family="Helvetica,sans-Serif" font-size="10.00">_base::d</text>
</a>
</g>
</g>
<!-- Node1&#45;&gt;Node2 -->
<g id="edge1" class="edge"><title>Node1&#45;&gt;Node2</title>
<path fill="none" stroke="midnightblue" d="M98.8388,-79.6014C112.579,-84.4451 127.958,-89.8664 142.317,-94.9285"/>
<polygon fill="midnightblue" stroke="midnightblue" points="141.469,-98.3403 152.063,-98.3641 143.796,-91.7385 141.469,-98.3403"/>
</g>
<!-- Node3 -->
<g id="node3" class="node"><title>Node3</title>
<g id="a_node3"><a xlink:href="classvnix_1_1units_1_1basic__dim.html#a9663530571be08d149b83a60ab97c25a" target="_top" xlink:title="Add corresponding exponents. ">
<polygon fill="white" stroke="black" points="150.5,-49.5 150.5,-79.5 241.5,-79.5 241.5,-49.5 150.5,-49.5"/>
<text text-anchor="start" x="158.5" y="-67.5" font-family="Helvetica,sans-Serif" font-size="10.00">vnix::units::basic</text>
<text text-anchor="middle" x="196" y="-56.5" font-family="Helvetica,sans-Serif" font-size="10.00">_dim::operator+</text>
</a>
</g>
</g>
<!-- Node1&#45;&gt;Node3 -->
<g id="edge2" class="edge"><title>Node1&#45;&gt;Node3</title>
<path fill="none" stroke="midnightblue" d="M110.139,-64.5C119.983,-64.5 130.26,-64.5 140.125,-64.5"/>
<polygon fill="midnightblue" stroke="midnightblue" points="140.221,-68.0001 150.221,-64.5 140.221,-61.0001 140.221,-68.0001"/>
</g>
<!-- Node4 -->
<g id="node4" class="node"><title>Node4</title>
<g id="a_node4"><a xlink:href="classvnix_1_1units_1_1basic__dim.html#a14314170633ec56f7a71b977f1d6d13e" target="_top" xlink:title="Encode data for this dim into a word. ">
<polygon fill="white" stroke="black" points="150.5,-0.5 150.5,-30.5 241.5,-30.5 241.5,-0.5 150.5,-0.5"/>
<text text-anchor="start" x="158.5" y="-18.5" font-family="Helvetica,sans-Serif" font-size="10.00">vnix::units::basic</text>
<text text-anchor="middle" x="196" y="-7.5" font-family="Helvetica,sans-Serif" font-size="10.00">_dim::encode</text>
</a>
</g>
</g>
<!-- Node1&#45;&gt;Node4 -->
<g id="edge3" class="edge"><title>Node1&#45;&gt;Node4</title>
<path fill="none" stroke="midnightblue" d="M98.8388,-49.3986C112.579,-44.5549 127.958,-39.1336 142.317,-34.0715"/>
<polygon fill="midnightblue" stroke="midnightblue" points="143.796,-37.2615 152.063,-30.6359 141.469,-30.6597 143.796,-37.2615"/>
</g>
</g>
</svg>
