<?xml version="1.0" encoding="UTF-8" standalone="no"?>
<!DOCTYPE svg PUBLIC "-//W3C//DTD SVG 1.1//EN"
 "http://www.w3.org/Graphics/SVG/1.1/DTD/svg11.dtd">
<!-- Generated by graphviz version 2.38.0 (20140413.2041)
 -->
<!-- Title: vnix::units::impl::kilonewtons::kilonewtons Pages: 1 -->
<svg width="270pt" height="186pt"
 viewBox="0.00 0.00 270.00 186.00" xmlns="http://www.w3.org/2000/svg" xmlns:xlink="http://www.w3.org/1999/xlink">
<g id="graph0" class="graph" transform="scale(1 1) rotate(0) translate(4 182)">
<title>vnix::units::impl::kilonewtons::kilonewtons</title>
<polygon fill="white" stroke="none" points="-4,4 -4,-182 266,-182 266,4 -4,4"/>
<!-- Node1 -->
<g id="node1" class="node"><title>Node1</title>
<polygon fill="#bfbfbf" stroke="black" points="0,-73.5 0,-103.5 126,-103.5 126,-73.5 0,-73.5"/>
<text text-anchor="start" x="8" y="-91.5" font-family="Helvetica,sans-Serif" font-size="10.00">vnix::units::impl::</text>
<text text-anchor="middle" x="63" y="-80.5" font-family="Helvetica,sans-Serif" font-size="10.00">kilonewtons::kilonewtons</text>
</g>
<!-- Node2 -->
<g id="node2" class="node"><title>Node2</title>
<g id="a_node2"><a xlink:href="structvnix_1_1units_1_1statdim__base.html#acd979076b68cf256d845231674711ff9" target="_top" xlink:title="Exponent for each unit in dimensioned quantity. ">
<polygon fill="white" stroke="black" points="162,-147.5 162,-177.5 262,-177.5 262,-147.5 162,-147.5"/>
<text text-anchor="start" x="170" y="-165.5" font-family="Helvetica,sans-Serif" font-size="10.00">vnix::units::statdim</text>
<text text-anchor="middle" x="212" y="-154.5" font-family="Helvetica,sans-Serif" font-size="10.00">_base::d</text>
</a>
</g>
</g>
<!-- Node1&#45;&gt;Node2 -->
<g id="edge1" class="edge"><title>Node1&#45;&gt;Node2</title>
<path fill="none" stroke="midnightblue" d="M93.0965,-103.502C112.559,-113.498 138.766,-126.884 162,-138.5 164.923,-139.961 167.948,-141.465 170.995,-142.972"/>
<polygon fill="midnightblue" stroke="midnightblue" points="169.601,-146.188 180.118,-147.469 172.696,-139.909 169.601,-146.188"/>
</g>
<!-- Node3 -->
<g id="node3" class="node"><title>Node3</title>
<g id="a_node3"><a xlink:href="classvnix_1_1units_1_1basic__dim.html#a9663530571be08d149b83a60ab97c25a" target="_top" xlink:title="Add corresponding exponents. ">
<polygon fill="white" stroke="black" points="166.5,-98.5 166.5,-128.5 257.5,-128.5 257.5,-98.5 166.5,-98.5"/>
<text text-anchor="start" x="174.5" y="-116.5" font-family="Helvetica,sans-Serif" font-size="10.00">vnix::units::basic</text>
<text text-anchor="middle" x="212" y="-105.5" font-family="Helvetica,sans-Serif" font-size="10.00">_dim::operator+</text>
</a>
</g>
</g>
<!-- Node1&#45;&gt;Node3 -->
<g id="edge2" class="edge"><title>Node1&#45;&gt;Node3</title>
<path fill="none" stroke="midnightblue" d="M126.341,-99.1023C136.331,-100.801 146.601,-102.548 156.392,-104.213"/>
<polygon fill="midnightblue" stroke="midnightblue" points="155.945,-107.687 166.39,-105.913 157.119,-100.786 155.945,-107.687"/>
</g>
<!-- Node4 -->
<g id="node4" class="node"><title>Node4</title>
<g id="a_node4"><a xlink:href="classvnix_1_1units_1_1basic__dim.html#a0555c91aa04966d3f07340d689317c37" target="_top" xlink:title="Subtract corresponding exponents. ">
<polygon fill="white" stroke="black" points="166.5,-49.5 166.5,-79.5 257.5,-79.5 257.5,-49.5 166.5,-49.5"/>
<text text-anchor="start" x="174.5" y="-67.5" font-family="Helvetica,sans-Serif" font-size="10.00">vnix::units::basic</text>
<text text-anchor="middle" x="212" y="-56.5" font-family="Helvetica,sans-Serif" font-size="10.00">_dim::operator&#45;</text>
</a>
</g>
</g>
<!-- Node1&#45;&gt;Node4 -->
<g id="edge3" class="edge"><title>Node1&#45;&gt;Node4</title>
<path fill="none" stroke="midnightblue" d="M126.341,-78.3218C136.331,-76.6909 146.601,-75.0141 156.392,-73.4155"/>
<polygon fill="midnightblue" stroke="midnightblue" points="157.085,-76.8489 166.39,-71.7832 155.957,-69.9404 157.085,-76.8489"/>
</g>
<!-- Node5 -->
<g id="node5" class="node"><title>Node5</title>
<g id="a_node5"><a xlink:href="classvnix_1_1units_1_1basic__dim.html#a14314170633ec56f7a71b977f1d6d13e" target="_top" xlink:title="Encode data for this dim into a word. ">
<polygon fill="white" stroke="black" points="166.5,-0.5 166.5,-30.5 257.5,-30.5 257.5,-0.5 166.5,-0.5"/>
<text text-anchor="start" x="174.5" y="-18.5" font-family="Helvetica,sans-Serif" font-size="10.00">vnix::units::basic</text>
<text text-anchor="middle" x="212" y="-7.5" font-family="Helvetica,sans-Serif" font-size="10.00">_dim::encode</text>
</a>
</g>
</g>
<!-- Node1&#45;&gt;Node5 -->
<g id="edge4" class="edge"><title>Node1&#45;&gt;Node5</title>
<path fill="none" stroke="midnightblue" d="M94.4585,-73.3744C116.731,-62.3139 147.145,-47.2105 171.318,-35.2062"/>
<polygon fill="midnightblue" stroke="midnightblue" points="173.181,-38.1888 180.581,-30.6063 170.067,-31.9193 173.181,-38.1888"/>
</g>
</g>
</svg>
