<?xml version="1.0" encoding="UTF-8" standalone="no"?>
<!DOCTYPE svg PUBLIC "-//W3C//DTD SVG 1.1//EN"
 "http://www.w3.org/Graphics/SVG/1.1/DTD/svg11.dtd">
<!-- Generated by graphviz version 2.38.0 (20140413.2041)
 -->
<!-- Title: vnix::int_types&lt; NB &gt; Pages: 1 -->
<svg width="260pt" height="106pt"
 viewBox="0.00 0.00 260.00 106.00" xmlns="http://www.w3.org/2000/svg" xmlns:xlink="http://www.w3.org/1999/xlink">
<g id="graph0" class="graph" transform="scale(1 1) rotate(0) translate(4 102)">
<title>vnix::int_types&lt; NB &gt;</title>
<polygon fill="white" stroke="none" points="-4,4 -4,-102 256,-102 256,4 -4,4"/>
<!-- Node1 -->
<g id="node1" class="node"><title>Node1</title>
<polygon fill="#bfbfbf" stroke="black" points="67,-78.5 67,-97.5 180,-97.5 180,-78.5 67,-78.5"/>
<text text-anchor="middle" x="123.5" y="-85.5" font-family="Helvetica,sans-Serif" font-size="10.00">vnix::int_types&lt; NB &gt;</text>
</g>
<!-- Node2 -->
<g id="node2" class="node"><title>Node2</title>
<g id="a_node2"><a xlink:href="structvnix_1_1int__types.html" target="_top" xlink:title="vnix::int_types\&lt; NUM\l_BITS \&gt;">
<polygon fill="white" stroke="black" points="0,-0.5 0,-30.5 113,-30.5 113,-0.5 0,-0.5"/>
<text text-anchor="start" x="8" y="-18.5" font-family="Helvetica,sans-Serif" font-size="10.00">vnix::int_types&lt; NUM</text>
<text text-anchor="middle" x="56.5" y="-7.5" font-family="Helvetica,sans-Serif" font-size="10.00">_BITS &gt;</text>
</a>
</g>
</g>
<!-- Node1&#45;&gt;Node2 -->
<g id="edge1" class="edge"><title>Node1&#45;&gt;Node2</title>
<path fill="none" stroke="orange" stroke-dasharray="5,2" d="M107.112,-70.8325C103.584,-67.2904 99.8953,-63.5406 96.5,-60 87.2686,-50.3735 77.0979,-39.3064 69.3224,-30.7443"/>
<polygon fill="orange" stroke="orange" points="104.849,-73.5179 114.405,-78.0933 109.788,-68.5574 104.849,-73.5179"/>
<text text-anchor="middle" x="133" y="-52" font-family="Helvetica,sans-Serif" font-size="10.00"> &lt; NUM_BITS &gt;</text>
</g>
<!-- Node3 -->
<g id="node3" class="node"><title>Node3</title>
<g id="a_node3"><a xlink:href="structvnix_1_1int__types.html" target="_top" xlink:title="vnix::int_types\&lt; BITS \&gt;">
<polygon fill="white" stroke="black" points="131,-6 131,-25 252,-25 252,-6 131,-6"/>
<text text-anchor="middle" x="191.5" y="-13" font-family="Helvetica,sans-Serif" font-size="10.00">vnix::int_types&lt; BITS &gt;</text>
</a>
</g>
</g>
<!-- Node1&#45;&gt;Node3 -->
<g id="edge2" class="edge"><title>Node1&#45;&gt;Node3</title>
<path fill="none" stroke="orange" stroke-dasharray="5,2" d="M152.456,-73.4215C158.576,-69.6628 164.644,-65.1696 169.5,-60 179.118,-49.7605 185.513,-34.5098 188.821,-25.0523"/>
<polygon fill="orange" stroke="orange" points="150.596,-70.4514 143.587,-78.3962 154.021,-76.5566 150.596,-70.4514"/>
<text text-anchor="middle" x="198.5" y="-52" font-family="Helvetica,sans-Serif" font-size="10.00"> &lt; BITS &gt;</text>
</g>
</g>
</svg>
