<?xml version="1.0" encoding="UTF-8" standalone="no"?>
<!DOCTYPE svg PUBLIC "-//W3C//DTD SVG 1.1//EN"
 "http://www.w3.org/Graphics/SVG/1.1/DTD/svg11.dtd">
<!-- Generated by graphviz version 2.38.0 (20140413.2041)
 -->
<!-- Title: vnix::units::impl::milliwatts::milliwatts Pages: 1 -->
<svg width="249pt" height="137pt"
 viewBox="0.00 0.00 249.00 137.00" xmlns="http://www.w3.org/2000/svg" xmlns:xlink="http://www.w3.org/1999/xlink">
<g id="graph0" class="graph" transform="scale(1 1) rotate(0) translate(4 133)">
<title>vnix::units::impl::milliwatts::milliwatts</title>
<polygon fill="white" stroke="none" points="-4,4 -4,-133 245,-133 245,4 -4,4"/>
<!-- Node1 -->
<g id="node1" class="node"><title>Node1</title>
<polygon fill="#bfbfbf" stroke="black" points="0,-49.5 0,-79.5 105,-79.5 105,-49.5 0,-49.5"/>
<text text-anchor="start" x="8" y="-67.5" font-family="Helvetica,sans-Serif" font-size="10.00">vnix::units::impl::</text>
<text text-anchor="middle" x="52.5" y="-56.5" font-family="Helvetica,sans-Serif" font-size="10.00">milliwatts::milliwatts</text>
</g>
<!-- Node2 -->
<g id="node2" class="node"><title>Node2</title>
<g id="a_node2"><a xlink:href="structvnix_1_1units_1_1statdim__base.html#acd979076b68cf256d845231674711ff9" target="_top" xlink:title="Exponent for each unit in dimensioned quantity. ">
<polygon fill="white" stroke="black" points="141,-98.5 141,-128.5 241,-128.5 241,-98.5 141,-98.5"/>
<text text-anchor="start" x="149" y="-116.5" font-family="Helvetica,sans-Serif" font-size="10.00">vnix::units::statdim</text>
<text text-anchor="middle" x="191" y="-105.5" font-family="Helvetica,sans-Serif" font-size="10.00">_base::d</text>
</a>
</g>
</g>
<!-- Node1&#45;&gt;Node2 -->
<g id="edge1" class="edge"><title>Node1&#45;&gt;Node2</title>
<path fill="none" stroke="midnightblue" d="M95.5683,-79.6014C109.061,-84.4451 124.164,-89.8664 138.265,-94.9285"/>
<polygon fill="midnightblue" stroke="midnightblue" points="137.241,-98.2795 147.836,-98.3641 139.606,-91.6912 137.241,-98.2795"/>
</g>
<!-- Node3 -->
<g id="node3" class="node"><title>Node3</title>
<g id="a_node3"><a xlink:href="classvnix_1_1units_1_1basic__dim.html#a0555c91aa04966d3f07340d689317c37" target="_top" xlink:title="Subtract corresponding exponents. ">
<polygon fill="white" stroke="black" points="145.5,-49.5 145.5,-79.5 236.5,-79.5 236.5,-49.5 145.5,-49.5"/>
<text text-anchor="start" x="153.5" y="-67.5" font-family="Helvetica,sans-Serif" font-size="10.00">vnix::units::basic</text>
<text text-anchor="middle" x="191" y="-56.5" font-family="Helvetica,sans-Serif" font-size="10.00">_dim::operator&#45;</text>
</a>
</g>
</g>
<!-- Node1&#45;&gt;Node3 -->
<g id="edge2" class="edge"><title>Node1&#45;&gt;Node3</title>
<path fill="none" stroke="midnightblue" d="M105.105,-64.5C114.967,-64.5 125.322,-64.5 135.278,-64.5"/>
<polygon fill="midnightblue" stroke="midnightblue" points="135.47,-68.0001 145.47,-64.5 135.47,-61.0001 135.47,-68.0001"/>
</g>
<!-- Node4 -->
<g id="node4" class="node"><title>Node4</title>
<g id="a_node4"><a xlink:href="classvnix_1_1units_1_1basic__dim.html#a14314170633ec56f7a71b977f1d6d13e" target="_top" xlink:title="Encode data for this dim into a word. ">
<polygon fill="white" stroke="black" points="145.5,-0.5 145.5,-30.5 236.5,-30.5 236.5,-0.5 145.5,-0.5"/>
<text text-anchor="start" x="153.5" y="-18.5" font-family="Helvetica,sans-Serif" font-size="10.00">vnix::units::basic</text>
<text text-anchor="middle" x="191" y="-7.5" font-family="Helvetica,sans-Serif" font-size="10.00">_dim::encode</text>
</a>
</g>
</g>
<!-- Node1&#45;&gt;Node4 -->
<g id="edge3" class="edge"><title>Node1&#45;&gt;Node4</title>
<path fill="none" stroke="midnightblue" d="M95.5683,-49.3986C109.061,-44.5549 124.164,-39.1336 138.265,-34.0715"/>
<polygon fill="midnightblue" stroke="midnightblue" points="139.606,-37.3088 147.836,-30.6359 137.241,-30.7205 139.606,-37.3088"/>
</g>
</g>
</svg>
