<?xml version="1.0" encoding="UTF-8" standalone="no"?>
<!DOCTYPE svg PUBLIC "-//W3C//DTD SVG 1.1//EN"
 "http://www.w3.org/Graphics/SVG/1.1/DTD/svg11.dtd">
<!-- Generated by graphviz version 2.38.0 (20140413.2041)
 -->
<!-- Title: vnix::mv::mat&lt; T, NR, NC &gt; Pages: 1 -->
<svg width="198pt" height="240pt"
 viewBox="0.00 0.00 197.50 240.00" xmlns="http://www.w3.org/2000/svg" xmlns:xlink="http://www.w3.org/1999/xlink">
<g id="graph0" class="graph" transform="scale(1 1) rotate(0) translate(4 236)">
<title>vnix::mv::mat&lt; T, NR, NC &gt;</title>
<polygon fill="white" stroke="none" points="-4,4 -4,-236 193.5,-236 193.5,4 -4,4"/>
<!-- Node1 -->
<g id="node1" class="node"><title>Node1</title>
<polygon fill="#bfbfbf" stroke="black" points="4.5,-0.5 4.5,-30.5 120.5,-30.5 120.5,-0.5 4.5,-0.5"/>
<text text-anchor="start" x="12.5" y="-18.5" font-family="Helvetica,sans-Serif" font-size="10.00">vnix::mv::mat&lt; T, NR,</text>
<text text-anchor="middle" x="62.5" y="-7.5" font-family="Helvetica,sans-Serif" font-size="10.00"> NC &gt;</text>
</g>
<!-- Node2 -->
<g id="node2" class="node"><title>Node2</title>
<polygon fill="white" stroke="#bfbfbf" points="-7.10543e-15,-78.5 -7.10543e-15,-97.5 125,-97.5 125,-78.5 -7.10543e-15,-78.5"/>
<text text-anchor="middle" x="62.5" y="-85.5" font-family="Helvetica,sans-Serif" font-size="10.00">std::array&lt; T, NR *NC &gt;</text>
</g>
<!-- Node2&#45;&gt;Node1 -->
<g id="edge1" class="edge"><title>Node2&#45;&gt;Node1</title>
<path fill="none" stroke="#9a32cd" stroke-dasharray="5,2" d="M62.5,-68.2362C62.5,-56.4079 62.5,-41.3829 62.5,-30.5762"/>
<polygon fill="#9a32cd" stroke="#9a32cd" points="59.0001,-68.3553 62.5,-78.3553 66.0001,-68.3554 59.0001,-68.3553"/>
<text text-anchor="middle" x="67" y="-52" font-family="Helvetica,sans-Serif" font-size="10.00"> a</text>
</g>
<!-- Node3 -->
<g id="node3" class="node"><title>Node3</title>
<polygon fill="white" stroke="#bfbfbf" points="65,-212.5 65,-231.5 94,-231.5 94,-212.5 65,-212.5"/>
<text text-anchor="middle" x="79.5" y="-219.5" font-family="Helvetica,sans-Serif" font-size="10.00">T</text>
</g>
<!-- Node3&#45;&gt;Node2 -->
<g id="edge2" class="edge"><title>Node3&#45;&gt;Node2</title>
<path fill="none" stroke="#9a32cd" stroke-dasharray="5,2" d="M69.6449,-203.154C64.3,-192.444 58.2399,-178.348 55.5,-165 50.5446,-140.858 56.4853,-111.677 60.1046,-97.5244"/>
<polygon fill="#9a32cd" stroke="#9a32cd" points="66.6723,-205.022 74.4184,-212.25 72.8707,-201.769 66.6723,-205.022"/>
<text text-anchor="middle" x="77" y="-152.5" font-family="Helvetica,sans-Serif" font-size="10.00"> elements</text>
</g>
<!-- Node4 -->
<g id="node4" class="node"><title>Node4</title>
<g id="a_node4"><a xlink:title="STL class. ">
<polygon fill="white" stroke="#bfbfbf" points="107.5,-145.5 107.5,-164.5 189.5,-164.5 189.5,-145.5 107.5,-145.5"/>
<text text-anchor="middle" x="148.5" y="-152.5" font-family="Helvetica,sans-Serif" font-size="10.00">std::array&lt; T &gt;</text>
</a>
</g>
</g>
<!-- Node3&#45;&gt;Node4 -->
<g id="edge4" class="edge"><title>Node3&#45;&gt;Node4</title>
<path fill="none" stroke="#9a32cd" stroke-dasharray="5,2" d="M96.1063,-205.356C109.671,-192.578 128.34,-174.992 139.342,-164.627"/>
<polygon fill="#9a32cd" stroke="#9a32cd" points="93.6846,-202.829 88.8056,-212.234 98.4845,-207.924 93.6846,-202.829"/>
<text text-anchor="middle" x="139" y="-186" font-family="Helvetica,sans-Serif" font-size="10.00"> elements</text>
</g>
<!-- Node4&#45;&gt;Node2 -->
<g id="edge3" class="edge"><title>Node4&#45;&gt;Node2</title>
<path fill="none" stroke="orange" stroke-dasharray="5,2" d="M128.744,-139.068C111.768,-126.238 87.8836,-108.185 73.9146,-97.6273"/>
<polygon fill="orange" stroke="orange" points="126.814,-141.996 136.902,-145.234 131.034,-136.412 126.814,-141.996"/>
<text text-anchor="middle" x="145.5" y="-119" font-family="Helvetica,sans-Serif" font-size="10.00"> &lt; T, NR *NC &gt;</text>
</g>
</g>
</svg>
