<?xml version="1.0" encoding="UTF-8" standalone="no"?>
<!DOCTYPE svg PUBLIC "-//W3C//DTD SVG 1.1//EN"
 "http://www.w3.org/Graphics/SVG/1.1/DTD/svg11.dtd">
<!-- Generated by graphviz version 2.38.0 (20140413.2041)
 -->
<!-- Title: vnix::units::impl::seconds::seconds Pages: 1 -->
<svg width="247pt" height="78pt"
 viewBox="0.00 0.00 247.00 77.50" xmlns="http://www.w3.org/2000/svg" xmlns:xlink="http://www.w3.org/1999/xlink">
<g id="graph0" class="graph" transform="scale(1 1) rotate(0) translate(4 73.5)">
<title>vnix::units::impl::seconds::seconds</title>
<polygon fill="white" stroke="none" points="-4,4 -4,-73.5 243,-73.5 243,4 -4,4"/>
<!-- Node1 -->
<g id="node1" class="node"><title>Node1</title>
<polygon fill="#bfbfbf" stroke="black" points="0,-22.5 0,-52.5 96,-52.5 96,-22.5 0,-22.5"/>
<text text-anchor="start" x="8" y="-40.5" font-family="Helvetica,sans-Serif" font-size="10.00">vnix::units::impl::</text>
<text text-anchor="middle" x="48" y="-29.5" font-family="Helvetica,sans-Serif" font-size="10.00">seconds::seconds</text>
</g>
<!-- Node2 -->
<g id="node2" class="node"><title>Node2</title>
<g id="a_node2"><a xlink:href="namespacevnix_1_1units.html#a4a057e7f5504a728b74e59d250fb77a4" target="_top" xlink:title="Exponents for time. ">
<polygon fill="white" stroke="black" points="132,-50 132,-69 239,-69 239,-50 132,-50"/>
<text text-anchor="middle" x="185.5" y="-57" font-family="Helvetica,sans-Serif" font-size="10.00">vnix::units::time_dim</text>
</a>
</g>
</g>
<!-- Node1&#45;&gt;Node2 -->
<g id="edge1" class="edge"><title>Node1&#45;&gt;Node2</title>
<path fill="none" stroke="midnightblue" d="M96.011,-45.1328C104.252,-46.4708 112.946,-47.8823 121.537,-49.2771"/>
<polygon fill="midnightblue" stroke="midnightblue" points="121.109,-52.7535 131.541,-50.9014 122.231,-45.844 121.109,-52.7535"/>
</g>
<!-- Node3 -->
<g id="node3" class="node"><title>Node3</title>
<g id="a_node3"><a xlink:href="classvnix_1_1units_1_1basic__dim.html#a14314170633ec56f7a71b977f1d6d13e" target="_top" xlink:title="Encode data for this dim into a word. ">
<polygon fill="white" stroke="black" points="140,-0.5 140,-30.5 231,-30.5 231,-0.5 140,-0.5"/>
<text text-anchor="start" x="148" y="-18.5" font-family="Helvetica,sans-Serif" font-size="10.00">vnix::units::basic</text>
<text text-anchor="middle" x="185.5" y="-7.5" font-family="Helvetica,sans-Serif" font-size="10.00">_dim::encode</text>
</a>
</g>
</g>
<!-- Node1&#45;&gt;Node3 -->
<g id="edge2" class="edge"><title>Node1&#45;&gt;Node3</title>
<path fill="none" stroke="midnightblue" d="M96.011,-29.8672C106.896,-28.0999 118.572,-26.2042 129.756,-24.3884"/>
<polygon fill="midnightblue" stroke="midnightblue" points="130.542,-27.8066 139.852,-22.7491 129.42,-20.8971 130.542,-27.8066"/>
</g>
</g>
</svg>
