<?xml version="1.0" encoding="UTF-8" standalone="no"?>
<!DOCTYPE svg PUBLIC "-//W3C//DTD SVG 1.1//EN"
 "http://www.w3.org/Graphics/SVG/1.1/DTD/svg11.dtd">
<!-- Generated by graphviz version 2.38.0 (20140413.2041)
 -->
<!-- Title: vnix::units::impl::dynes::dynes Pages: 1 -->
<svg width="236pt" height="186pt"
 viewBox="0.00 0.00 236.00 186.00" xmlns="http://www.w3.org/2000/svg" xmlns:xlink="http://www.w3.org/1999/xlink">
<g id="graph0" class="graph" transform="scale(1 1) rotate(0) translate(4 182)">
<title>vnix::units::impl::dynes::dynes</title>
<polygon fill="white" stroke="none" points="-4,4 -4,-182 232,-182 232,4 -4,4"/>
<!-- Node1 -->
<g id="node1" class="node"><title>Node1</title>
<polygon fill="#bfbfbf" stroke="black" points="0,-73.5 0,-103.5 92,-103.5 92,-73.5 0,-73.5"/>
<text text-anchor="start" x="8" y="-91.5" font-family="Helvetica,sans-Serif" font-size="10.00">vnix::units::impl::</text>
<text text-anchor="middle" x="46" y="-80.5" font-family="Helvetica,sans-Serif" font-size="10.00">dynes::dynes</text>
</g>
<!-- Node2 -->
<g id="node2" class="node"><title>Node2</title>
<g id="a_node2"><a xlink:href="structvnix_1_1units_1_1statdim__base.html#acd979076b68cf256d845231674711ff9" target="_top" xlink:title="Exponent for each unit in dimensioned quantity. ">
<polygon fill="white" stroke="black" points="128,-147.5 128,-177.5 228,-177.5 228,-147.5 128,-147.5"/>
<text text-anchor="start" x="136" y="-165.5" font-family="Helvetica,sans-Serif" font-size="10.00">vnix::units::statdim</text>
<text text-anchor="middle" x="178" y="-154.5" font-family="Helvetica,sans-Serif" font-size="10.00">_base::d</text>
</a>
</g>
</g>
<!-- Node1&#45;&gt;Node2 -->
<g id="edge1" class="edge"><title>Node1&#45;&gt;Node2</title>
<path fill="none" stroke="midnightblue" d="M70.0365,-103.553C86.0549,-113.813 108.033,-127.482 128,-138.5 130.651,-139.963 133.405,-141.435 136.193,-142.891"/>
<polygon fill="midnightblue" stroke="midnightblue" points="134.639,-146.027 145.137,-147.455 137.82,-139.792 134.639,-146.027"/>
</g>
<!-- Node3 -->
<g id="node3" class="node"><title>Node3</title>
<g id="a_node3"><a xlink:href="classvnix_1_1units_1_1basic__dim.html#a9663530571be08d149b83a60ab97c25a" target="_top" xlink:title="Add corresponding exponents. ">
<polygon fill="white" stroke="black" points="132.5,-98.5 132.5,-128.5 223.5,-128.5 223.5,-98.5 132.5,-98.5"/>
<text text-anchor="start" x="140.5" y="-116.5" font-family="Helvetica,sans-Serif" font-size="10.00">vnix::units::basic</text>
<text text-anchor="middle" x="178" y="-105.5" font-family="Helvetica,sans-Serif" font-size="10.00">_dim::operator+</text>
</a>
</g>
</g>
<!-- Node1&#45;&gt;Node3 -->
<g id="edge2" class="edge"><title>Node1&#45;&gt;Node3</title>
<path fill="none" stroke="midnightblue" d="M92.1029,-97.1736C101.893,-99.0563 112.35,-101.067 122.459,-103.011"/>
<polygon fill="midnightblue" stroke="midnightblue" points="121.935,-106.475 132.416,-104.926 123.257,-99.6006 121.935,-106.475"/>
</g>
<!-- Node4 -->
<g id="node4" class="node"><title>Node4</title>
<g id="a_node4"><a xlink:href="classvnix_1_1units_1_1basic__dim.html#a0555c91aa04966d3f07340d689317c37" target="_top" xlink:title="Subtract corresponding exponents. ">
<polygon fill="white" stroke="black" points="132.5,-49.5 132.5,-79.5 223.5,-79.5 223.5,-49.5 132.5,-49.5"/>
<text text-anchor="start" x="140.5" y="-67.5" font-family="Helvetica,sans-Serif" font-size="10.00">vnix::units::basic</text>
<text text-anchor="middle" x="178" y="-56.5" font-family="Helvetica,sans-Serif" font-size="10.00">_dim::operator&#45;</text>
</a>
</g>
</g>
<!-- Node1&#45;&gt;Node4 -->
<g id="edge3" class="edge"><title>Node1&#45;&gt;Node4</title>
<path fill="none" stroke="midnightblue" d="M92.1029,-80.1733C101.893,-78.3659 112.35,-76.4355 122.459,-74.569"/>
<polygon fill="midnightblue" stroke="midnightblue" points="123.218,-77.9882 132.416,-72.7308 121.947,-71.1046 123.218,-77.9882"/>
</g>
<!-- Node5 -->
<g id="node5" class="node"><title>Node5</title>
<g id="a_node5"><a xlink:href="classvnix_1_1units_1_1basic__dim.html#a14314170633ec56f7a71b977f1d6d13e" target="_top" xlink:title="Encode data for this dim into a word. ">
<polygon fill="white" stroke="black" points="132.5,-0.5 132.5,-30.5 223.5,-30.5 223.5,-0.5 132.5,-0.5"/>
<text text-anchor="start" x="140.5" y="-18.5" font-family="Helvetica,sans-Serif" font-size="10.00">vnix::units::basic</text>
<text text-anchor="middle" x="178" y="-7.5" font-family="Helvetica,sans-Serif" font-size="10.00">_dim::encode</text>
</a>
</g>
</g>
<!-- Node1&#45;&gt;Node5 -->
<g id="edge4" class="edge"><title>Node1&#45;&gt;Node5</title>
<path fill="none" stroke="midnightblue" d="M71.5816,-73.3852C87.5194,-63.722 108.813,-51.0659 128,-40.5 131.2,-38.7379 134.537,-36.9443 137.9,-35.1678"/>
<polygon fill="midnightblue" stroke="midnightblue" points="139.532,-38.2643 146.783,-30.5392 136.297,-32.0566 139.532,-38.2643"/>
</g>
</g>
</svg>
