<?xml version="1.0" encoding="UTF-8" standalone="no"?>
<!DOCTYPE svg PUBLIC "-//W3C//DTD SVG 1.1//EN"
 "http://www.w3.org/Graphics/SVG/1.1/DTD/svg11.dtd">
<!-- Generated by graphviz version 2.38.0 (20140413.2041)
 -->
<!-- Title: vnix::units::impl::millinewtons::millinewtons Pages: 1 -->
<svg width="275pt" height="186pt"
 viewBox="0.00 0.00 275.00 186.00" xmlns="http://www.w3.org/2000/svg" xmlns:xlink="http://www.w3.org/1999/xlink">
<g id="graph0" class="graph" transform="scale(1 1) rotate(0) translate(4 182)">
<title>vnix::units::impl::millinewtons::millinewtons</title>
<polygon fill="white" stroke="none" points="-4,4 -4,-182 271,-182 271,4 -4,4"/>
<!-- Node1 -->
<g id="node1" class="node"><title>Node1</title>
<polygon fill="#bfbfbf" stroke="black" points="0,-73.5 0,-103.5 131,-103.5 131,-73.5 0,-73.5"/>
<text text-anchor="start" x="8" y="-91.5" font-family="Helvetica,sans-Serif" font-size="10.00">vnix::units::impl::</text>
<text text-anchor="middle" x="65.5" y="-80.5" font-family="Helvetica,sans-Serif" font-size="10.00">millinewtons::millinewtons</text>
</g>
<!-- Node2 -->
<g id="node2" class="node"><title>Node2</title>
<g id="a_node2"><a xlink:href="structvnix_1_1units_1_1statdim__base.html#acd979076b68cf256d845231674711ff9" target="_top" xlink:title="Exponent for each unit in dimensioned quantity. ">
<polygon fill="white" stroke="black" points="167,-147.5 167,-177.5 267,-177.5 267,-147.5 167,-147.5"/>
<text text-anchor="start" x="175" y="-165.5" font-family="Helvetica,sans-Serif" font-size="10.00">vnix::units::statdim</text>
<text text-anchor="middle" x="217" y="-154.5" font-family="Helvetica,sans-Serif" font-size="10.00">_base::d</text>
</a>
</g>
</g>
<!-- Node1&#45;&gt;Node2 -->
<g id="edge1" class="edge"><title>Node1&#45;&gt;Node2</title>
<path fill="none" stroke="midnightblue" d="M96.8211,-103.646C116.751,-113.587 143.409,-126.854 167,-138.5 169.93,-139.947 172.961,-141.439 176.011,-142.939"/>
<polygon fill="midnightblue" stroke="midnightblue" points="174.623,-146.156 185.142,-147.422 177.708,-139.873 174.623,-146.156"/>
</g>
<!-- Node3 -->
<g id="node3" class="node"><title>Node3</title>
<g id="a_node3"><a xlink:href="classvnix_1_1units_1_1basic__dim.html#a9663530571be08d149b83a60ab97c25a" target="_top" xlink:title="Add corresponding exponents. ">
<polygon fill="white" stroke="black" points="171.5,-98.5 171.5,-128.5 262.5,-128.5 262.5,-98.5 171.5,-98.5"/>
<text text-anchor="start" x="179.5" y="-116.5" font-family="Helvetica,sans-Serif" font-size="10.00">vnix::units::basic</text>
<text text-anchor="middle" x="217" y="-105.5" font-family="Helvetica,sans-Serif" font-size="10.00">_dim::operator+</text>
</a>
</g>
</g>
<!-- Node1&#45;&gt;Node3 -->
<g id="edge2" class="edge"><title>Node1&#45;&gt;Node3</title>
<path fill="none" stroke="midnightblue" d="M131.203,-99.32C141.277,-101.005 151.599,-102.731 161.419,-104.373"/>
<polygon fill="midnightblue" stroke="midnightblue" points="160.999,-107.851 171.439,-106.048 162.154,-100.947 160.999,-107.851"/>
</g>
<!-- Node4 -->
<g id="node4" class="node"><title>Node4</title>
<g id="a_node4"><a xlink:href="classvnix_1_1units_1_1basic__dim.html#a0555c91aa04966d3f07340d689317c37" target="_top" xlink:title="Subtract corresponding exponents. ">
<polygon fill="white" stroke="black" points="171.5,-49.5 171.5,-79.5 262.5,-79.5 262.5,-49.5 171.5,-49.5"/>
<text text-anchor="start" x="179.5" y="-67.5" font-family="Helvetica,sans-Serif" font-size="10.00">vnix::units::basic</text>
<text text-anchor="middle" x="217" y="-56.5" font-family="Helvetica,sans-Serif" font-size="10.00">_dim::operator&#45;</text>
</a>
</g>
</g>
<!-- Node1&#45;&gt;Node4 -->
<g id="edge3" class="edge"><title>Node1&#45;&gt;Node4</title>
<path fill="none" stroke="midnightblue" d="M131.203,-78.1128C141.277,-76.4956 151.599,-74.8386 161.419,-73.2622"/>
<polygon fill="midnightblue" stroke="midnightblue" points="162.12,-76.6945 171.439,-71.6536 161.011,-69.783 162.12,-76.6945"/>
</g>
<!-- Node5 -->
<g id="node5" class="node"><title>Node5</title>
<g id="a_node5"><a xlink:href="classvnix_1_1units_1_1basic__dim.html#a14314170633ec56f7a71b977f1d6d13e" target="_top" xlink:title="Encode data for this dim into a word. ">
<polygon fill="white" stroke="black" points="171.5,-0.5 171.5,-30.5 262.5,-30.5 262.5,-0.5 171.5,-0.5"/>
<text text-anchor="start" x="179.5" y="-18.5" font-family="Helvetica,sans-Serif" font-size="10.00">vnix::units::basic</text>
<text text-anchor="middle" x="217" y="-7.5" font-family="Helvetica,sans-Serif" font-size="10.00">_dim::encode</text>
</a>
</g>
</g>
<!-- Node1&#45;&gt;Node5 -->
<g id="edge4" class="edge"><title>Node1&#45;&gt;Node5</title>
<path fill="none" stroke="midnightblue" d="M97.4765,-73.3744C120.228,-62.265 151.332,-47.0768 175.969,-35.047"/>
<polygon fill="midnightblue" stroke="midnightblue" points="177.613,-38.1392 185.063,-30.6063 174.541,-31.849 177.613,-38.1392"/>
</g>
</g>
</svg>
