<?xml version="1.0" encoding="UTF-8" standalone="no"?>
<!DOCTYPE svg PUBLIC "-//W3C//DTD SVG 1.1//EN"
 "http://www.w3.org/Graphics/SVG/1.1/DTD/svg11.dtd">
<!-- Generated by graphviz version 2.38.0 (20140413.2041)
 -->
<!-- Title: vnix::units::impl::nanoseconds::nanoseconds Pages: 1 -->
<svg width="289pt" height="78pt"
 viewBox="0.00 0.00 289.00 77.50" xmlns="http://www.w3.org/2000/svg" xmlns:xlink="http://www.w3.org/1999/xlink">
<g id="graph0" class="graph" transform="scale(1 1) rotate(0) translate(4 73.5)">
<title>vnix::units::impl::nanoseconds::nanoseconds</title>
<polygon fill="white" stroke="none" points="-4,4 -4,-73.5 285,-73.5 285,4 -4,4"/>
<!-- Node1 -->
<g id="node1" class="node"><title>Node1</title>
<polygon fill="#bfbfbf" stroke="black" points="0,-22.5 0,-52.5 138,-52.5 138,-22.5 0,-22.5"/>
<text text-anchor="start" x="8" y="-40.5" font-family="Helvetica,sans-Serif" font-size="10.00">vnix::units::impl::</text>
<text text-anchor="middle" x="69" y="-29.5" font-family="Helvetica,sans-Serif" font-size="10.00">nanoseconds::nanoseconds</text>
</g>
<!-- Node2 -->
<g id="node2" class="node"><title>Node2</title>
<g id="a_node2"><a xlink:href="namespacevnix_1_1units.html#a4a057e7f5504a728b74e59d250fb77a4" target="_top" xlink:title="Exponents for time. ">
<polygon fill="white" stroke="black" points="174,-50 174,-69 281,-69 281,-50 174,-50"/>
<text text-anchor="middle" x="227.5" y="-57" font-family="Helvetica,sans-Serif" font-size="10.00">vnix::units::time_dim</text>
</a>
</g>
</g>
<!-- Node1&#45;&gt;Node2 -->
<g id="edge1" class="edge"><title>Node1&#45;&gt;Node2</title>
<path fill="none" stroke="midnightblue" d="M138.188,-47.0855C146.621,-48.2709 155.212,-49.4786 163.561,-50.6523"/>
<polygon fill="midnightblue" stroke="midnightblue" points="163.208,-54.1371 173.598,-52.0633 164.183,-47.2052 163.208,-54.1371"/>
</g>
<!-- Node3 -->
<g id="node3" class="node"><title>Node3</title>
<g id="a_node3"><a xlink:href="classvnix_1_1units_1_1basic__dim.html#a14314170633ec56f7a71b977f1d6d13e" target="_top" xlink:title="Encode data for this dim into a word. ">
<polygon fill="white" stroke="black" points="182,-0.5 182,-30.5 273,-30.5 273,-0.5 182,-0.5"/>
<text text-anchor="start" x="190" y="-18.5" font-family="Helvetica,sans-Serif" font-size="10.00">vnix::units::basic</text>
<text text-anchor="middle" x="227.5" y="-7.5" font-family="Helvetica,sans-Serif" font-size="10.00">_dim::encode</text>
</a>
</g>
</g>
<!-- Node1&#45;&gt;Node3 -->
<g id="edge2" class="edge"><title>Node1&#45;&gt;Node3</title>
<path fill="none" stroke="midnightblue" d="M138.188,-27.9145C149.424,-26.335 160.941,-24.716 171.792,-23.1906"/>
<polygon fill="midnightblue" stroke="midnightblue" points="172.546,-26.6192 181.961,-21.7611 171.571,-19.6873 172.546,-26.6192"/>
</g>
</g>
</svg>
