<?xml version="1.0" encoding="UTF-8" standalone="no"?>
<!DOCTYPE svg PUBLIC "-//W3C//DTD SVG 1.1//EN"
 "http://www.w3.org/Graphics/SVG/1.1/DTD/svg11.dtd">
<!-- Generated by graphviz version 2.38.0 (20140413.2041)
 -->
<!-- Title: vnix::units::number&lt; long double &amp; &gt; Pages: 1 -->
<svg width="155pt" height="252pt"
 viewBox="0.00 0.00 154.50 252.00" xmlns="http://www.w3.org/2000/svg" xmlns:xlink="http://www.w3.org/1999/xlink">
<g id="graph0" class="graph" transform="scale(1 1) rotate(0) translate(4 248)">
<title>vnix::units::number&lt; long double &amp; &gt;</title>
<polygon fill="white" stroke="none" points="-4,4 -4,-248 150.5,-248 150.5,4 -4,4"/>
<!-- Node1 -->
<g id="node1" class="node"><title>Node1</title>
<polygon fill="#bfbfbf" stroke="black" points="15.5,-0.5 15.5,-30.5 115.5,-30.5 115.5,-0.5 15.5,-0.5"/>
<text text-anchor="start" x="23.5" y="-18.5" font-family="Helvetica,sans-Serif" font-size="10.00">vnix::units::number</text>
<text text-anchor="middle" x="65.5" y="-7.5" font-family="Helvetica,sans-Serif" font-size="10.00">&lt; long double &amp; &gt;</text>
</g>
<!-- Node2 -->
<g id="node2" class="node"><title>Node2</title>
<g id="a_node2"><a xlink:href="structvnix_1_1units_1_1basic__number.html" target="_top" xlink:title="vnix::units::basic\l_number\&lt; long double &amp; \&gt;">
<polygon fill="white" stroke="black" points="0,-68.5 0,-98.5 131,-98.5 131,-68.5 0,-68.5"/>
<text text-anchor="start" x="8" y="-86.5" font-family="Helvetica,sans-Serif" font-size="10.00">vnix::units::basic</text>
<text text-anchor="middle" x="65.5" y="-75.5" font-family="Helvetica,sans-Serif" font-size="10.00">_number&lt; long double &amp; &gt;</text>
</a>
</g>
</g>
<!-- Node2&#45;&gt;Node1 -->
<g id="edge1" class="edge"><title>Node2&#45;&gt;Node1</title>
<path fill="none" stroke="midnightblue" d="M65.5,-58.0322C65.5,-48.8606 65.5,-38.7449 65.5,-30.7931"/>
<polygon fill="midnightblue" stroke="midnightblue" points="62.0001,-58.1789 65.5,-68.179 69.0001,-58.179 62.0001,-58.1789"/>
</g>
<!-- Node3 -->
<g id="node3" class="node"><title>Node3</title>
<g id="a_node3"><a xlink:href="structvnix_1_1units_1_1basic__number.html" target="_top" xlink:title="Base&#45;struct for wrapper to disambiguate scalar from dimval and protected storage for numeric value as...">
<polygon fill="white" stroke="black" points="20,-146.5 20,-176.5 111,-176.5 111,-146.5 20,-146.5"/>
<text text-anchor="start" x="28" y="-164.5" font-family="Helvetica,sans-Serif" font-size="10.00">vnix::units::basic</text>
<text text-anchor="middle" x="65.5" y="-153.5" font-family="Helvetica,sans-Serif" font-size="10.00">_number&lt; T &gt;</text>
</a>
</g>
</g>
<!-- Node3&#45;&gt;Node2 -->
<g id="edge2" class="edge"><title>Node3&#45;&gt;Node2</title>
<path fill="none" stroke="orange" stroke-dasharray="5,2" d="M65.5,-136.09C65.5,-123.757 65.5,-109.224 65.5,-98.7309"/>
<polygon fill="orange" stroke="orange" points="62.0001,-136.205 65.5,-146.205 69.0001,-136.205 62.0001,-136.205"/>
<text text-anchor="middle" x="106" y="-120" font-family="Helvetica,sans-Serif" font-size="10.00"> &lt; long double &amp; &gt;</text>
</g>
<!-- Node4 -->
<g id="node4" class="node"><title>Node4</title>
<polygon fill="white" stroke="#bfbfbf" points="51,-224.5 51,-243.5 80,-243.5 80,-224.5 51,-224.5"/>
<text text-anchor="middle" x="65.5" y="-231.5" font-family="Helvetica,sans-Serif" font-size="10.00">T</text>
</g>
<!-- Node4&#45;&gt;Node3 -->
<g id="edge3" class="edge"><title>Node4&#45;&gt;Node3</title>
<path fill="none" stroke="#9a32cd" stroke-dasharray="5,2" d="M65.5,-214.236C65.5,-202.408 65.5,-187.383 65.5,-176.576"/>
<polygon fill="#9a32cd" stroke="#9a32cd" points="62.0001,-214.355 65.5,-224.355 69.0001,-214.355 62.0001,-214.355"/>
<text text-anchor="middle" x="72.5" y="-198" font-family="Helvetica,sans-Serif" font-size="10.00"> v_</text>
</g>
</g>
</svg>
