<?xml version="1.0" encoding="UTF-8" standalone="no"?>
<!DOCTYPE svg PUBLIC "-//W3C//DTD SVG 1.1//EN"
 "http://www.w3.org/Graphics/SVG/1.1/DTD/svg11.dtd">
<!-- Generated by graphviz version 2.38.0 (20140413.2041)
 -->
<!-- Title: vnix::units::impl::picocoulombs::picocoulombs Pages: 1 -->
<svg width="305pt" height="78pt"
 viewBox="0.00 0.00 305.00 77.50" xmlns="http://www.w3.org/2000/svg" xmlns:xlink="http://www.w3.org/1999/xlink">
<g id="graph0" class="graph" transform="scale(1 1) rotate(0) translate(4 73.5)">
<title>vnix::units::impl::picocoulombs::picocoulombs</title>
<polygon fill="white" stroke="none" points="-4,4 -4,-73.5 301,-73.5 301,4 -4,4"/>
<!-- Node1 -->
<g id="node1" class="node"><title>Node1</title>
<polygon fill="#bfbfbf" stroke="black" points="0,-22.5 0,-52.5 143,-52.5 143,-22.5 0,-22.5"/>
<text text-anchor="start" x="8" y="-40.5" font-family="Helvetica,sans-Serif" font-size="10.00">vnix::units::impl::</text>
<text text-anchor="middle" x="71.5" y="-29.5" font-family="Helvetica,sans-Serif" font-size="10.00">picocoulombs::picocoulombs</text>
</g>
<!-- Node2 -->
<g id="node2" class="node"><title>Node2</title>
<g id="a_node2"><a xlink:href="namespacevnix_1_1units.html#a7c21c2081677cdfbb0560e81c5be9382" target="_top" xlink:title="Exponents for charge. ">
<polygon fill="white" stroke="black" points="179,-50 179,-69 297,-69 297,-50 179,-50"/>
<text text-anchor="middle" x="238" y="-57" font-family="Helvetica,sans-Serif" font-size="10.00">vnix::units::charge_dim</text>
</a>
</g>
</g>
<!-- Node1&#45;&gt;Node2 -->
<g id="edge1" class="edge"><title>Node1&#45;&gt;Node2</title>
<path fill="none" stroke="midnightblue" d="M143.217,-46.9577C151.699,-48.092 160.347,-49.2486 168.792,-50.378"/>
<polygon fill="midnightblue" stroke="midnightblue" points="168.592,-53.8822 178.967,-51.7388 169.52,-46.944 168.592,-53.8822"/>
</g>
<!-- Node3 -->
<g id="node3" class="node"><title>Node3</title>
<g id="a_node3"><a xlink:href="classvnix_1_1units_1_1basic__dim.html#a14314170633ec56f7a71b977f1d6d13e" target="_top" xlink:title="Encode data for this dim into a word. ">
<polygon fill="white" stroke="black" points="192.5,-0.5 192.5,-30.5 283.5,-30.5 283.5,-0.5 192.5,-0.5"/>
<text text-anchor="start" x="200.5" y="-18.5" font-family="Helvetica,sans-Serif" font-size="10.00">vnix::units::basic</text>
<text text-anchor="middle" x="238" y="-7.5" font-family="Helvetica,sans-Serif" font-size="10.00">_dim::encode</text>
</a>
</g>
</g>
<!-- Node1&#45;&gt;Node3 -->
<g id="edge2" class="edge"><title>Node1&#45;&gt;Node3</title>
<path fill="none" stroke="midnightblue" d="M143.217,-28.0423C156.28,-26.2954 169.737,-24.4956 182.238,-22.8238"/>
<polygon fill="midnightblue" stroke="midnightblue" points="183.036,-26.2483 192.484,-21.4535 182.108,-19.3101 183.036,-26.2483"/>
</g>
</g>
</svg>
