<?xml version="1.0" encoding="UTF-8" standalone="no"?>
<!DOCTYPE svg PUBLIC "-//W3C//DTD SVG 1.1//EN"
 "http://www.w3.org/Graphics/SVG/1.1/DTD/svg11.dtd">
<!-- Generated by graphviz version 2.38.0 (20140413.2041)
 -->
<!-- Title: vnix::units::impl::meters::meters Pages: 1 -->
<svg width="251pt" height="78pt"
 viewBox="0.00 0.00 251.00 77.50" xmlns="http://www.w3.org/2000/svg" xmlns:xlink="http://www.w3.org/1999/xlink">
<g id="graph0" class="graph" transform="scale(1 1) rotate(0) translate(4 73.5)">
<title>vnix::units::impl::meters::meters</title>
<polygon fill="white" stroke="none" points="-4,4 -4,-73.5 247,-73.5 247,4 -4,4"/>
<!-- Node1 -->
<g id="node1" class="node"><title>Node1</title>
<polygon fill="#bfbfbf" stroke="black" points="0,-22.5 0,-52.5 92,-52.5 92,-22.5 0,-22.5"/>
<text text-anchor="start" x="8" y="-40.5" font-family="Helvetica,sans-Serif" font-size="10.00">vnix::units::impl::</text>
<text text-anchor="middle" x="46" y="-29.5" font-family="Helvetica,sans-Serif" font-size="10.00">meters::meters</text>
</g>
<!-- Node2 -->
<g id="node2" class="node"><title>Node2</title>
<g id="a_node2"><a xlink:href="namespacevnix_1_1units.html#a650217999c720672e8da47c579bb4211" target="_top" xlink:title="Exponents for length. ">
<polygon fill="white" stroke="black" points="128,-50 128,-69 243,-69 243,-50 128,-50"/>
<text text-anchor="middle" x="185.5" y="-57" font-family="Helvetica,sans-Serif" font-size="10.00">vnix::units::length_dim</text>
</a>
</g>
</g>
<!-- Node1&#45;&gt;Node2 -->
<g id="edge1" class="edge"><title>Node1&#45;&gt;Node2</title>
<path fill="none" stroke="midnightblue" d="M92.0226,-44.7036C100.242,-46.0186 108.976,-47.4162 117.67,-48.8072"/>
<polygon fill="midnightblue" stroke="midnightblue" points="117.396,-52.3078 127.823,-50.4317 118.502,-45.3957 117.396,-52.3078"/>
</g>
<!-- Node3 -->
<g id="node3" class="node"><title>Node3</title>
<g id="a_node3"><a xlink:href="classvnix_1_1units_1_1basic__dim.html#a14314170633ec56f7a71b977f1d6d13e" target="_top" xlink:title="Encode data for this dim into a word. ">
<polygon fill="white" stroke="black" points="140,-0.5 140,-30.5 231,-30.5 231,-0.5 140,-0.5"/>
<text text-anchor="start" x="148" y="-18.5" font-family="Helvetica,sans-Serif" font-size="10.00">vnix::units::basic</text>
<text text-anchor="middle" x="185.5" y="-7.5" font-family="Helvetica,sans-Serif" font-size="10.00">_dim::encode</text>
</a>
</g>
</g>
<!-- Node1&#45;&gt;Node3 -->
<g id="edge2" class="edge"><title>Node1&#45;&gt;Node3</title>
<path fill="none" stroke="midnightblue" d="M92.0226,-30.2964C104.136,-28.3583 117.369,-26.241 129.94,-24.2296"/>
<polygon fill="midnightblue" stroke="midnightblue" points="130.524,-27.6807 139.846,-22.6447 129.418,-20.7686 130.524,-27.6807"/>
</g>
</g>
</svg>
