<?xml version="1.0" encoding="UTF-8" standalone="no"?>
<!DOCTYPE svg PUBLIC "-//W3C//DTD SVG 1.1//EN"
 "http://www.w3.org/Graphics/SVG/1.1/DTD/svg11.dtd">
<!-- Generated by graphviz version 2.38.0 (20140413.2041)
 -->
<!-- Title: vnix::units::impl::microcoulombs::microcoulombs Pages: 1 -->
<svg width="317pt" height="78pt"
 viewBox="0.00 0.00 317.00 77.50" xmlns="http://www.w3.org/2000/svg" xmlns:xlink="http://www.w3.org/1999/xlink">
<g id="graph0" class="graph" transform="scale(1 1) rotate(0) translate(4 73.5)">
<title>vnix::units::impl::microcoulombs::microcoulombs</title>
<polygon fill="white" stroke="none" points="-4,4 -4,-73.5 313,-73.5 313,4 -4,4"/>
<!-- Node1 -->
<g id="node1" class="node"><title>Node1</title>
<polygon fill="#bfbfbf" stroke="black" points="0,-22.5 0,-52.5 155,-52.5 155,-22.5 0,-22.5"/>
<text text-anchor="start" x="8" y="-40.5" font-family="Helvetica,sans-Serif" font-size="10.00">vnix::units::impl::</text>
<text text-anchor="middle" x="77.5" y="-29.5" font-family="Helvetica,sans-Serif" font-size="10.00">microcoulombs::microcoulombs</text>
</g>
<!-- Node2 -->
<g id="node2" class="node"><title>Node2</title>
<g id="a_node2"><a xlink:href="namespacevnix_1_1units.html#a7c21c2081677cdfbb0560e81c5be9382" target="_top" xlink:title="Exponents for charge. ">
<polygon fill="white" stroke="black" points="191,-50 191,-69 309,-69 309,-50 191,-50"/>
<text text-anchor="middle" x="250" y="-57" font-family="Helvetica,sans-Serif" font-size="10.00">vnix::units::charge_dim</text>
</a>
</g>
</g>
<!-- Node1&#45;&gt;Node2 -->
<g id="edge1" class="edge"><title>Node1&#45;&gt;Node2</title>
<path fill="none" stroke="midnightblue" d="M155.271,-47.4059C163.754,-48.5005 172.35,-49.6097 180.719,-50.6896"/>
<polygon fill="midnightblue" stroke="midnightblue" points="180.426,-54.1807 190.792,-51.9893 181.322,-47.2383 180.426,-54.1807"/>
</g>
<!-- Node3 -->
<g id="node3" class="node"><title>Node3</title>
<g id="a_node3"><a xlink:href="classvnix_1_1units_1_1basic__dim.html#a14314170633ec56f7a71b977f1d6d13e" target="_top" xlink:title="Encode data for this dim into a word. ">
<polygon fill="white" stroke="black" points="204.5,-0.5 204.5,-30.5 295.5,-30.5 295.5,-0.5 204.5,-0.5"/>
<text text-anchor="start" x="212.5" y="-18.5" font-family="Helvetica,sans-Serif" font-size="10.00">vnix::units::basic</text>
<text text-anchor="middle" x="250" y="-7.5" font-family="Helvetica,sans-Serif" font-size="10.00">_dim::encode</text>
</a>
</g>
</g>
<!-- Node1&#45;&gt;Node3 -->
<g id="edge2" class="edge"><title>Node1&#45;&gt;Node3</title>
<path fill="none" stroke="midnightblue" d="M155.271,-27.5941C168.391,-25.9012 181.782,-24.1733 194.183,-22.5731"/>
<polygon fill="midnightblue" stroke="midnightblue" points="194.871,-26.0135 204.341,-21.2625 193.975,-19.0711 194.871,-26.0135"/>
</g>
</g>
</svg>
