<?xml version="1.0" encoding="UTF-8" standalone="no"?>
<!DOCTYPE svg PUBLIC "-//W3C//DTD SVG 1.1//EN"
 "http://www.w3.org/Graphics/SVG/1.1/DTD/svg11.dtd">
<!-- Generated by graphviz version 2.38.0 (20140413.2041)
 -->
<!-- Title: vnix::units::impl::femtoseconds::femtoseconds Pages: 1 -->
<svg width="297pt" height="78pt"
 viewBox="0.00 0.00 297.00 77.50" xmlns="http://www.w3.org/2000/svg" xmlns:xlink="http://www.w3.org/1999/xlink">
<g id="graph0" class="graph" transform="scale(1 1) rotate(0) translate(4 73.5)">
<title>vnix::units::impl::femtoseconds::femtoseconds</title>
<polygon fill="white" stroke="none" points="-4,4 -4,-73.5 293,-73.5 293,4 -4,4"/>
<!-- Node1 -->
<g id="node1" class="node"><title>Node1</title>
<polygon fill="#bfbfbf" stroke="black" points="0,-22.5 0,-52.5 146,-52.5 146,-22.5 0,-22.5"/>
<text text-anchor="start" x="8" y="-40.5" font-family="Helvetica,sans-Serif" font-size="10.00">vnix::units::impl::</text>
<text text-anchor="middle" x="73" y="-29.5" font-family="Helvetica,sans-Serif" font-size="10.00">femtoseconds::femtoseconds</text>
</g>
<!-- Node2 -->
<g id="node2" class="node"><title>Node2</title>
<g id="a_node2"><a xlink:href="namespacevnix_1_1units.html#a4a057e7f5504a728b74e59d250fb77a4" target="_top" xlink:title="Exponents for time. ">
<polygon fill="white" stroke="black" points="182,-50 182,-69 289,-69 289,-50 182,-50"/>
<text text-anchor="middle" x="235.5" y="-57" font-family="Helvetica,sans-Serif" font-size="10.00">vnix::units::time_dim</text>
</a>
</g>
</g>
<!-- Node1&#45;&gt;Node2 -->
<g id="edge1" class="edge"><title>Node1&#45;&gt;Node2</title>
<path fill="none" stroke="midnightblue" d="M146.268,-47.4059C154.786,-48.5735 163.425,-49.7577 171.797,-50.9052"/>
<polygon fill="midnightblue" stroke="midnightblue" points="171.466,-54.3925 181.849,-52.283 172.417,-47.4574 171.466,-54.3925"/>
</g>
<!-- Node3 -->
<g id="node3" class="node"><title>Node3</title>
<g id="a_node3"><a xlink:href="classvnix_1_1units_1_1basic__dim.html#a14314170633ec56f7a71b977f1d6d13e" target="_top" xlink:title="Encode data for this dim into a word. ">
<polygon fill="white" stroke="black" points="190,-0.5 190,-30.5 281,-30.5 281,-0.5 190,-0.5"/>
<text text-anchor="start" x="198" y="-18.5" font-family="Helvetica,sans-Serif" font-size="10.00">vnix::units::basic</text>
<text text-anchor="middle" x="235.5" y="-7.5" font-family="Helvetica,sans-Serif" font-size="10.00">_dim::encode</text>
</a>
</g>
</g>
<!-- Node1&#45;&gt;Node3 -->
<g id="edge2" class="edge"><title>Node1&#45;&gt;Node3</title>
<path fill="none" stroke="midnightblue" d="M146.268,-27.5941C157.492,-26.0557 168.926,-24.4884 179.68,-23.0143"/>
<polygon fill="midnightblue" stroke="midnightblue" points="180.321,-26.4592 189.753,-21.6335 179.371,-19.524 180.321,-26.4592"/>
</g>
</g>
</svg>
