<?xml version="1.0" encoding="UTF-8" standalone="no"?>
<!DOCTYPE svg PUBLIC "-//W3C//DTD SVG 1.1//EN"
 "http://www.w3.org/Graphics/SVG/1.1/DTD/svg11.dtd">
<!-- Generated by graphviz version 2.38.0 (20140413.2041)
 -->
<!-- Title: vnix::units::number&lt; double &amp; &gt; Pages: 1 -->
<svg width="123pt" height="252pt"
 viewBox="0.00 0.00 123.00 252.00" xmlns="http://www.w3.org/2000/svg" xmlns:xlink="http://www.w3.org/1999/xlink">
<g id="graph0" class="graph" transform="scale(1 1) rotate(0) translate(4 248)">
<title>vnix::units::number&lt; double &amp; &gt;</title>
<polygon fill="white" stroke="none" points="-4,4 -4,-248 119,-248 119,4 -4,4"/>
<!-- Node1 -->
<g id="node1" class="node"><title>Node1</title>
<polygon fill="#bfbfbf" stroke="black" points="5,-0.5 5,-30.5 105,-30.5 105,-0.5 5,-0.5"/>
<text text-anchor="start" x="13" y="-18.5" font-family="Helvetica,sans-Serif" font-size="10.00">vnix::units::number</text>
<text text-anchor="middle" x="55" y="-7.5" font-family="Helvetica,sans-Serif" font-size="10.00">&lt; double &amp; &gt;</text>
</g>
<!-- Node2 -->
<g id="node2" class="node"><title>Node2</title>
<g id="a_node2"><a xlink:href="structvnix_1_1units_1_1basic__number.html" target="_top" xlink:title="vnix::units::basic\l_number\&lt; double &amp; \&gt;">
<polygon fill="white" stroke="black" points="0,-68.5 0,-98.5 110,-98.5 110,-68.5 0,-68.5"/>
<text text-anchor="start" x="8" y="-86.5" font-family="Helvetica,sans-Serif" font-size="10.00">vnix::units::basic</text>
<text text-anchor="middle" x="55" y="-75.5" font-family="Helvetica,sans-Serif" font-size="10.00">_number&lt; double &amp; &gt;</text>
</a>
</g>
</g>
<!-- Node2&#45;&gt;Node1 -->
<g id="edge1" class="edge"><title>Node2&#45;&gt;Node1</title>
<path fill="none" stroke="midnightblue" d="M55,-58.0322C55,-48.8606 55,-38.7449 55,-30.7931"/>
<polygon fill="midnightblue" stroke="midnightblue" points="51.5001,-58.1789 55,-68.179 58.5001,-58.179 51.5001,-58.1789"/>
</g>
<!-- Node3 -->
<g id="node3" class="node"><title>Node3</title>
<g id="a_node3"><a xlink:href="structvnix_1_1units_1_1basic__number.html" target="_top" xlink:title="Base&#45;struct for wrapper to disambiguate scalar from dimval and protected storage for numeric value as...">
<polygon fill="white" stroke="black" points="9.5,-146.5 9.5,-176.5 100.5,-176.5 100.5,-146.5 9.5,-146.5"/>
<text text-anchor="start" x="17.5" y="-164.5" font-family="Helvetica,sans-Serif" font-size="10.00">vnix::units::basic</text>
<text text-anchor="middle" x="55" y="-153.5" font-family="Helvetica,sans-Serif" font-size="10.00">_number&lt; T &gt;</text>
</a>
</g>
</g>
<!-- Node3&#45;&gt;Node2 -->
<g id="edge2" class="edge"><title>Node3&#45;&gt;Node2</title>
<path fill="none" stroke="orange" stroke-dasharray="5,2" d="M55,-136.09C55,-123.757 55,-109.224 55,-98.7309"/>
<polygon fill="orange" stroke="orange" points="51.5001,-136.205 55,-146.205 58.5001,-136.205 51.5001,-136.205"/>
<text text-anchor="middle" x="85" y="-120" font-family="Helvetica,sans-Serif" font-size="10.00"> &lt; double &amp; &gt;</text>
</g>
<!-- Node4 -->
<g id="node4" class="node"><title>Node4</title>
<polygon fill="white" stroke="#bfbfbf" points="40.5,-224.5 40.5,-243.5 69.5,-243.5 69.5,-224.5 40.5,-224.5"/>
<text text-anchor="middle" x="55" y="-231.5" font-family="Helvetica,sans-Serif" font-size="10.00">T</text>
</g>
<!-- Node4&#45;&gt;Node3 -->
<g id="edge3" class="edge"><title>Node4&#45;&gt;Node3</title>
<path fill="none" stroke="#9a32cd" stroke-dasharray="5,2" d="M55,-214.236C55,-202.408 55,-187.383 55,-176.576"/>
<polygon fill="#9a32cd" stroke="#9a32cd" points="51.5001,-214.355 55,-224.355 58.5001,-214.355 51.5001,-214.355"/>
<text text-anchor="middle" x="62" y="-198" font-family="Helvetica,sans-Serif" font-size="10.00"> v_</text>
</g>
</g>
</svg>
