<?xml version="1.0" encoding="UTF-8" standalone="no"?>
<!DOCTYPE svg PUBLIC "-//W3C//DTD SVG 1.1//EN"
 "http://www.w3.org/Graphics/SVG/1.1/DTD/svg11.dtd">
<!-- Generated by graphviz version 2.38.0 (20140413.2041)
 -->
<!-- Title: vnix::units::basic_dim&lt; DBO &gt;::divd Pages: 1 -->
<svg width="228pt" height="475pt"
 viewBox="0.00 0.00 228.00 475.00" xmlns="http://www.w3.org/2000/svg" xmlns:xlink="http://www.w3.org/1999/xlink">
<g id="graph0" class="graph" transform="scale(1 1) rotate(0) translate(4 471)">
<title>vnix::units::basic_dim&lt; DBO &gt;::divd</title>
<polygon fill="white" stroke="none" points="-4,4 -4,-471 224,-471 224,4 -4,4"/>
<!-- Node1 -->
<g id="node1" class="node"><title>Node1</title>
<polygon fill="#bfbfbf" stroke="black" points="42,-0.5 42,-30.5 143,-30.5 143,-0.5 42,-0.5"/>
<text text-anchor="start" x="50" y="-18.5" font-family="Helvetica,sans-Serif" font-size="10.00">vnix::units::basic</text>
<text text-anchor="middle" x="92.5" y="-7.5" font-family="Helvetica,sans-Serif" font-size="10.00">_dim&lt; DBO &gt;::divd</text>
</g>
<!-- Node2 -->
<g id="node2" class="node"><title>Node2</title>
<g id="a_node2"><a xlink:href="classvnix_1_1rat_1_1rational.html" target="_top" xlink:title="vnix::rat::rational\l\&lt; 4, 2 \&gt;">
<polygon fill="white" stroke="black" points="48,-78.5 48,-108.5 137,-108.5 137,-78.5 48,-78.5"/>
<text text-anchor="start" x="56" y="-96.5" font-family="Helvetica,sans-Serif" font-size="10.00">vnix::rat::rational</text>
<text text-anchor="middle" x="92.5" y="-85.5" font-family="Helvetica,sans-Serif" font-size="10.00">&lt; 4, 2 &gt;</text>
</a>
</g>
</g>
<!-- Node2&#45;&gt;Node1 -->
<g id="edge1" class="edge"><title>Node2&#45;&gt;Node1</title>
<path fill="none" stroke="#9a32cd" stroke-dasharray="5,2" d="M92.5,-68.0898C92.5,-55.7565 92.5,-41.2237 92.5,-30.7309"/>
<polygon fill="#9a32cd" stroke="#9a32cd" points="89.0001,-68.2049 92.5,-78.205 96.0001,-68.205 89.0001,-68.2049"/>
<text text-anchor="middle" x="96" y="-52" font-family="Helvetica,sans-Serif" font-size="10.00"> f</text>
</g>
<!-- Node3 -->
<g id="node3" class="node"><title>Node3</title>
<g id="a_node3"><a xlink:href="classvnix_1_1rat_1_1encoding.html" target="_top" xlink:title="vnix::rat::encoding\l\&lt; NB, DB \&gt;">
<polygon fill="white" stroke="black" points="30,-224.5 30,-254.5 127,-254.5 127,-224.5 30,-224.5"/>
<text text-anchor="start" x="38" y="-242.5" font-family="Helvetica,sans-Serif" font-size="10.00">vnix::rat::encoding</text>
<text text-anchor="middle" x="78.5" y="-231.5" font-family="Helvetica,sans-Serif" font-size="10.00">&lt; NB, DB &gt;</text>
</a>
</g>
</g>
<!-- Node3&#45;&gt;Node2 -->
<g id="edge2" class="edge"><title>Node3&#45;&gt;Node2</title>
<path fill="none" stroke="midnightblue" d="M80.8591,-214.133C82.4503,-197.707 84.5984,-175.55 86.5,-156 88.0786,-139.77 89.8978,-121.132 91.1154,-108.667"/>
<polygon fill="midnightblue" stroke="midnightblue" points="77.3367,-214.195 79.8564,-224.486 84.3041,-214.87 77.3367,-214.195"/>
</g>
<!-- Node7 -->
<g id="node7" class="node"><title>Node7</title>
<g id="a_node7"><a xlink:href="classvnix_1_1rat_1_1rational.html" target="_top" xlink:title="Model of a fixed&#45;precision rational number. ">
<polygon fill="white" stroke="black" points="95,-156.5 95,-186.5 184,-186.5 184,-156.5 95,-156.5"/>
<text text-anchor="start" x="103" y="-174.5" font-family="Helvetica,sans-Serif" font-size="10.00">vnix::rat::rational</text>
<text text-anchor="middle" x="139.5" y="-163.5" font-family="Helvetica,sans-Serif" font-size="10.00">&lt; NB, DB &gt;</text>
</a>
</g>
</g>
<!-- Node3&#45;&gt;Node7 -->
<g id="edge8" class="edge"><title>Node3&#45;&gt;Node7</title>
<path fill="none" stroke="midnightblue" d="M98.6542,-216.694C107.743,-206.86 118.221,-195.523 126.29,-186.793"/>
<polygon fill="midnightblue" stroke="midnightblue" points="95.9532,-214.46 91.7361,-224.179 101.094,-219.211 95.9532,-214.46"/>
</g>
<!-- Node4 -->
<g id="node4" class="node"><title>Node4</title>
<g id="a_node4"><a xlink:href="structvnix_1_1int__types.html" target="_top" xlink:title="vnix::int_types\&lt; BITS \&gt;">
<polygon fill="white" stroke="black" points="0,-380.5 0,-399.5 121,-399.5 121,-380.5 0,-380.5"/>
<text text-anchor="middle" x="60.5" y="-387.5" font-family="Helvetica,sans-Serif" font-size="10.00">vnix::int_types&lt; BITS &gt;</text>
</a>
</g>
</g>
<!-- Node4&#45;&gt;Node3 -->
<g id="edge3" class="edge"><title>Node4&#45;&gt;Node3</title>
<path fill="none" stroke="#9a32cd" stroke-dasharray="5,2" d="M56.0945,-370.37C52.5841,-352.641 48.9474,-325.289 53.5,-302 56.8168,-285.033 64.8298,-266.835 70.8969,-254.673"/>
<polygon fill="#9a32cd" stroke="#9a32cd" points="52.7013,-371.238 58.2427,-380.268 59.542,-369.753 52.7013,-371.238"/>
<text text-anchor="middle" x="60.5" y="-315" font-family="Helvetica,sans-Serif" font-size="10.00"> c_</text>
</g>
<!-- Node6 -->
<g id="node6" class="node"><title>Node6</title>
<g id="a_node6"><a xlink:href="classvnix_1_1rat_1_1encoding.html" target="_top" xlink:title="Encoding of numerator and denominator into unsigned word. ">
<polygon fill="white" stroke="black" points="77,-302.5 77,-332.5 220,-332.5 220,-302.5 77,-302.5"/>
<text text-anchor="start" x="85" y="-320.5" font-family="Helvetica,sans-Serif" font-size="10.00">vnix::rat::encoding</text>
<text text-anchor="middle" x="148.5" y="-309.5" font-family="Helvetica,sans-Serif" font-size="10.00">&lt; NMR_BITS, DNM_BITS &gt;</text>
</a>
</g>
</g>
<!-- Node4&#45;&gt;Node6 -->
<g id="edge6" class="edge"><title>Node4&#45;&gt;Node6</title>
<path fill="none" stroke="#9a32cd" stroke-dasharray="5,2" d="M79.4925,-373.784C94.763,-361.551 116.05,-344.497 130.93,-332.576"/>
<polygon fill="#9a32cd" stroke="#9a32cd" points="76.9066,-371.371 71.2905,-380.355 81.2832,-376.834 76.9066,-371.371"/>
<text text-anchor="middle" x="113.5" y="-354" font-family="Helvetica,sans-Serif" font-size="10.00"> c_</text>
</g>
<!-- Node5 -->
<g id="node5" class="node"><title>Node5</title>
<g id="a_node5"><a xlink:href="structvnix_1_1int__types.html" target="_top" xlink:title="Smallest integer types for holding certain number of bits. ">
<polygon fill="white" stroke="black" points="4,-447.5 4,-466.5 117,-466.5 117,-447.5 4,-447.5"/>
<text text-anchor="middle" x="60.5" y="-454.5" font-family="Helvetica,sans-Serif" font-size="10.00">vnix::int_types&lt; NB &gt;</text>
</a>
</g>
</g>
<!-- Node5&#45;&gt;Node4 -->
<g id="edge4" class="edge"><title>Node5&#45;&gt;Node4</title>
<path fill="none" stroke="orange" stroke-dasharray="5,2" d="M60.5,-437.037C60.5,-424.67 60.5,-409.12 60.5,-399.627"/>
<polygon fill="orange" stroke="orange" points="57.0001,-437.234 60.5,-447.234 64.0001,-437.234 57.0001,-437.234"/>
<text text-anchor="middle" x="82.5" y="-421" font-family="Helvetica,sans-Serif" font-size="10.00"> &lt; BITS &gt;</text>
</g>
<!-- Node6&#45;&gt;Node3 -->
<g id="edge5" class="edge"><title>Node6&#45;&gt;Node3</title>
<path fill="none" stroke="orange" stroke-dasharray="5,2" d="M128.394,-294.671C116.569,-281.832 101.955,-265.966 91.6074,-254.731"/>
<polygon fill="orange" stroke="orange" points="125.984,-297.221 135.334,-302.205 131.133,-292.478 125.984,-297.221"/>
<text text-anchor="middle" x="145.5" y="-276" font-family="Helvetica,sans-Serif" font-size="10.00"> &lt; NB, DB &gt;</text>
</g>
<!-- Node7&#45;&gt;Node2 -->
<g id="edge7" class="edge"><title>Node7&#45;&gt;Node2</title>
<path fill="none" stroke="orange" stroke-dasharray="5,2" d="M125.322,-147.574C117.507,-134.937 108.052,-119.648 101.301,-108.731"/>
<polygon fill="orange" stroke="orange" points="122.423,-149.541 130.66,-156.205 128.377,-145.859 122.423,-149.541"/>
<text text-anchor="middle" x="137.5" y="-130" font-family="Helvetica,sans-Serif" font-size="10.00"> &lt; 4, 2 &gt;</text>
</g>
</g>
</svg>
