<?xml version="1.0" encoding="UTF-8" standalone="no"?>
<!DOCTYPE svg PUBLIC "-//W3C//DTD SVG 1.1//EN"
 "http://www.w3.org/Graphics/SVG/1.1/DTD/svg11.dtd">
<!-- Generated by graphviz version 2.38.0 (20140413.2041)
 -->
<!-- Title: vnix::units::number&lt; Eigen::CwiseBinaryOp&lt; B, L, R &gt; &gt; Pages: 1 -->
<svg width="195pt" height="285pt"
 viewBox="0.00 0.00 194.50 285.00" xmlns="http://www.w3.org/2000/svg" xmlns:xlink="http://www.w3.org/1999/xlink">
<g id="graph0" class="graph" transform="scale(1 1) rotate(0) translate(4 281)">
<title>vnix::units::number&lt; Eigen::CwiseBinaryOp&lt; B, L, R &gt; &gt;</title>
<polygon fill="white" stroke="none" points="-4,4 -4,-281 190.5,-281 190.5,4 -4,4"/>
<!-- Node1 -->
<g id="node1" class="node"><title>Node1</title>
<polygon fill="#bfbfbf" stroke="black" points="12,-0.5 12,-41.5 137,-41.5 137,-0.5 12,-0.5"/>
<text text-anchor="start" x="20" y="-29.5" font-family="Helvetica,sans-Serif" font-size="10.00">vnix::units::number</text>
<text text-anchor="start" x="20" y="-18.5" font-family="Helvetica,sans-Serif" font-size="10.00">&lt; Eigen::CwiseBinaryOp</text>
<text text-anchor="middle" x="74.5" y="-7.5" font-family="Helvetica,sans-Serif" font-size="10.00">&lt; B, L, R &gt; &gt;</text>
</g>
<!-- Node2 -->
<g id="node2" class="node"><title>Node2</title>
<g id="a_node2"><a xlink:href="structvnix_1_1units_1_1basic__number.html" target="_top" xlink:title="vnix::units::basic\l_number\&lt; Eigen::CwiseBinary\lOp\&lt; B, L, R \&gt; \&gt;">
<polygon fill="white" stroke="black" points="-1.42109e-14,-79.5 -1.42109e-14,-120.5 149,-120.5 149,-79.5 -1.42109e-14,-79.5"/>
<text text-anchor="start" x="8" y="-108.5" font-family="Helvetica,sans-Serif" font-size="10.00">vnix::units::basic</text>
<text text-anchor="start" x="8" y="-97.5" font-family="Helvetica,sans-Serif" font-size="10.00">_number&lt; Eigen::CwiseBinary</text>
<text text-anchor="middle" x="74.5" y="-86.5" font-family="Helvetica,sans-Serif" font-size="10.00">Op&lt; B, L, R &gt; &gt;</text>
</a>
</g>
</g>
<!-- Node2&#45;&gt;Node1 -->
<g id="edge1" class="edge"><title>Node2&#45;&gt;Node1</title>
<path fill="none" stroke="midnightblue" d="M74.5,-68.9057C74.5,-59.7917 74.5,-50.017 74.5,-41.7622"/>
<polygon fill="midnightblue" stroke="midnightblue" points="71.0001,-69.1706 74.5,-79.1706 78.0001,-69.1706 71.0001,-69.1706"/>
</g>
<!-- Node3 -->
<g id="node3" class="node"><title>Node3</title>
<g id="a_node3"><a xlink:href="structvnix_1_1units_1_1basic__number.html" target="_top" xlink:title="Base&#45;struct for wrapper to disambiguate scalar from dimval and protected storage for numeric value as...">
<polygon fill="white" stroke="black" points="29,-179.5 29,-209.5 120,-209.5 120,-179.5 29,-179.5"/>
<text text-anchor="start" x="37" y="-197.5" font-family="Helvetica,sans-Serif" font-size="10.00">vnix::units::basic</text>
<text text-anchor="middle" x="74.5" y="-186.5" font-family="Helvetica,sans-Serif" font-size="10.00">_number&lt; T &gt;</text>
</a>
</g>
</g>
<!-- Node3&#45;&gt;Node2 -->
<g id="edge2" class="edge"><title>Node3&#45;&gt;Node2</title>
<path fill="none" stroke="orange" stroke-dasharray="5,2" d="M74.5,-169.282C74.5,-154.138 74.5,-134.882 74.5,-120.682"/>
<polygon fill="orange" stroke="orange" points="71.0001,-169.451 74.5,-179.451 78.0001,-169.451 71.0001,-169.451"/>
<text text-anchor="start" x="74.5" y="-153" font-family="Helvetica,sans-Serif" font-size="10.00"> &lt; Eigen::CwiseBinaryOp</text>
<text text-anchor="middle" x="130.5" y="-142" font-family="Helvetica,sans-Serif" font-size="10.00">&lt; B, L, R &gt; &gt;</text>
</g>
<!-- Node4 -->
<g id="node4" class="node"><title>Node4</title>
<polygon fill="white" stroke="#bfbfbf" points="60,-257.5 60,-276.5 89,-276.5 89,-257.5 60,-257.5"/>
<text text-anchor="middle" x="74.5" y="-264.5" font-family="Helvetica,sans-Serif" font-size="10.00">T</text>
</g>
<!-- Node4&#45;&gt;Node3 -->
<g id="edge3" class="edge"><title>Node4&#45;&gt;Node3</title>
<path fill="none" stroke="#9a32cd" stroke-dasharray="5,2" d="M74.5,-247.236C74.5,-235.408 74.5,-220.383 74.5,-209.576"/>
<polygon fill="#9a32cd" stroke="#9a32cd" points="71.0001,-247.355 74.5,-257.355 78.0001,-247.355 71.0001,-247.355"/>
<text text-anchor="middle" x="81.5" y="-231" font-family="Helvetica,sans-Serif" font-size="10.00"> v_</text>
</g>
</g>
</svg>
