<?xml version="1.0" encoding="UTF-8" standalone="no"?>
<!DOCTYPE svg PUBLIC "-//W3C//DTD SVG 1.1//EN"
 "http://www.w3.org/Graphics/SVG/1.1/DTD/svg11.dtd">
<!-- Generated by graphviz version 2.38.0 (20140413.2041)
 -->
<!-- Title: vnix::units::basic_number&lt; T &gt; Pages: 1 -->
<svg width="99pt" height="106pt"
 viewBox="0.00 0.00 99.00 106.00" xmlns="http://www.w3.org/2000/svg" xmlns:xlink="http://www.w3.org/1999/xlink">
<g id="graph0" class="graph" transform="scale(1 1) rotate(0) translate(4 102)">
<title>vnix::units::basic_number&lt; T &gt;</title>
<polygon fill="white" stroke="none" points="-4,4 -4,-102 95,-102 95,4 -4,4"/>
<!-- Node1 -->
<g id="node1" class="node"><title>Node1</title>
<polygon fill="#bfbfbf" stroke="black" points="0,-0.5 0,-30.5 91,-30.5 91,-0.5 0,-0.5"/>
<text text-anchor="start" x="8" y="-18.5" font-family="Helvetica,sans-Serif" font-size="10.00">vnix::units::basic</text>
<text text-anchor="middle" x="45.5" y="-7.5" font-family="Helvetica,sans-Serif" font-size="10.00">_number&lt; T &gt;</text>
</g>
<!-- Node2 -->
<g id="node2" class="node"><title>Node2</title>
<polygon fill="white" stroke="#bfbfbf" points="31,-78.5 31,-97.5 60,-97.5 60,-78.5 31,-78.5"/>
<text text-anchor="middle" x="45.5" y="-85.5" font-family="Helvetica,sans-Serif" font-size="10.00">T</text>
</g>
<!-- Node2&#45;&gt;Node1 -->
<g id="edge1" class="edge"><title>Node2&#45;&gt;Node1</title>
<path fill="none" stroke="#9a32cd" stroke-dasharray="5,2" d="M45.5,-68.2362C45.5,-56.4079 45.5,-41.3829 45.5,-30.5762"/>
<polygon fill="#9a32cd" stroke="#9a32cd" points="42.0001,-68.3553 45.5,-78.3553 49.0001,-68.3554 42.0001,-68.3553"/>
<text text-anchor="middle" x="52.5" y="-52" font-family="Helvetica,sans-Serif" font-size="10.00"> v_</text>
</g>
</g>
</svg>
