<?xml version="1.0" encoding="UTF-8" standalone="no"?>
<!DOCTYPE svg PUBLIC "-//W3C//DTD SVG 1.1//EN"
 "http://www.w3.org/Graphics/SVG/1.1/DTD/svg11.dtd">
<!-- Generated by graphviz version 2.38.0 (20140413.2041)
 -->
<!-- Title: vnix::units::number&lt; Eigen::Product&lt; L, R, OPT &gt; &gt; Pages: 1 -->
<svg width="166pt" height="218pt"
 viewBox="0.00 0.00 166.00 218.00" xmlns="http://www.w3.org/2000/svg" xmlns:xlink="http://www.w3.org/1999/xlink">
<g id="graph0" class="graph" transform="scale(1 1) rotate(0) translate(4 214)">
<title>vnix::units::number&lt; Eigen::Product&lt; L, R, OPT &gt; &gt;</title>
<polygon fill="white" stroke="none" points="-4,4 -4,-214 162,-214 162,4 -4,4"/>
<!-- Node1 -->
<g id="node1" class="node"><title>Node1</title>
<polygon fill="#bfbfbf" stroke="black" points="10.5,-0.5 10.5,-41.5 117.5,-41.5 117.5,-0.5 10.5,-0.5"/>
<text text-anchor="start" x="18.5" y="-29.5" font-family="Helvetica,sans-Serif" font-size="10.00">vnix::units::number</text>
<text text-anchor="start" x="18.5" y="-18.5" font-family="Helvetica,sans-Serif" font-size="10.00">&lt; Eigen::Product&lt; L,</text>
<text text-anchor="middle" x="64" y="-7.5" font-family="Helvetica,sans-Serif" font-size="10.00"> R, OPT &gt; &gt;</text>
</g>
<!-- Node2 -->
<g id="node2" class="node"><title>Node2</title>
<g id="a_node2"><a xlink:href="structvnix_1_1units_1_1basic__number.html" target="_top" xlink:title="vnix::units::basic\l_number\&lt; Eigen::Product\l\&lt; L, R, OPT \&gt; \&gt;">
<polygon fill="white" stroke="black" points="0,-79.5 0,-120.5 128,-120.5 128,-79.5 0,-79.5"/>
<text text-anchor="start" x="8" y="-108.5" font-family="Helvetica,sans-Serif" font-size="10.00">vnix::units::basic</text>
<text text-anchor="start" x="8" y="-97.5" font-family="Helvetica,sans-Serif" font-size="10.00">_number&lt; Eigen::Product</text>
<text text-anchor="middle" x="64" y="-86.5" font-family="Helvetica,sans-Serif" font-size="10.00">&lt; L, R, OPT &gt; &gt;</text>
</a>
</g>
</g>
<!-- Node2&#45;&gt;Node1 -->
<g id="edge1" class="edge"><title>Node2&#45;&gt;Node1</title>
<path fill="none" stroke="midnightblue" d="M64,-68.9057C64,-59.7917 64,-50.017 64,-41.7622"/>
<polygon fill="midnightblue" stroke="midnightblue" points="60.5001,-69.1706 64,-79.1706 67.5001,-69.1706 60.5001,-69.1706"/>
</g>
<!-- Node3 -->
<g id="node3" class="node"><title>Node3</title>
<g id="a_node3"><a xlink:href="structvnix_1_1units_1_1basic__number.html" target="_top" xlink:title="Base&#45;struct for wrapper to disambiguate scalar from dimval and protected storage for numeric value as...">
<polygon fill="white" stroke="black" points="18.5,-179.5 18.5,-209.5 109.5,-209.5 109.5,-179.5 18.5,-179.5"/>
<text text-anchor="start" x="26.5" y="-197.5" font-family="Helvetica,sans-Serif" font-size="10.00">vnix::units::basic</text>
<text text-anchor="middle" x="64" y="-186.5" font-family="Helvetica,sans-Serif" font-size="10.00">_number&lt; T &gt;</text>
</a>
</g>
</g>
<!-- Node3&#45;&gt;Node2 -->
<g id="edge2" class="edge"><title>Node3&#45;&gt;Node2</title>
<path fill="none" stroke="orange" stroke-dasharray="5,2" d="M64,-169.282C64,-154.138 64,-134.882 64,-120.682"/>
<polygon fill="orange" stroke="orange" points="60.5001,-169.451 64,-179.451 67.5001,-169.451 60.5001,-169.451"/>
<text text-anchor="start" x="64" y="-153" font-family="Helvetica,sans-Serif" font-size="10.00"> &lt; Eigen::Product&lt; L,</text>
<text text-anchor="middle" x="111" y="-142" font-family="Helvetica,sans-Serif" font-size="10.00"> R, OPT &gt; &gt;</text>
</g>
</g>
</svg>
