<?xml version="1.0" encoding="UTF-8" standalone="no"?>
<!DOCTYPE svg PUBLIC "-//W3C//DTD SVG 1.1//EN"
 "http://www.w3.org/Graphics/SVG/1.1/DTD/svg11.dtd">
<!-- Generated by graphviz version 2.38.0 (20140413.2041)
 -->
<!-- Title: vnix::units::number&lt; int const &amp; &gt; Pages: 1 -->
<svg width="137pt" height="252pt"
 viewBox="0.00 0.00 136.50 252.00" xmlns="http://www.w3.org/2000/svg" xmlns:xlink="http://www.w3.org/1999/xlink">
<g id="graph0" class="graph" transform="scale(1 1) rotate(0) translate(4 248)">
<title>vnix::units::number&lt; int const &amp; &gt;</title>
<polygon fill="white" stroke="none" points="-4,4 -4,-248 132.5,-248 132.5,4 -4,4"/>
<!-- Node1 -->
<g id="node1" class="node"><title>Node1</title>
<polygon fill="#bfbfbf" stroke="black" points="9.5,-0.5 9.5,-30.5 109.5,-30.5 109.5,-0.5 9.5,-0.5"/>
<text text-anchor="start" x="17.5" y="-18.5" font-family="Helvetica,sans-Serif" font-size="10.00">vnix::units::number</text>
<text text-anchor="middle" x="59.5" y="-7.5" font-family="Helvetica,sans-Serif" font-size="10.00">&lt; int const &amp; &gt;</text>
</g>
<!-- Node2 -->
<g id="node2" class="node"><title>Node2</title>
<g id="a_node2"><a xlink:href="structvnix_1_1units_1_1basic__number.html" target="_top" xlink:title="vnix::units::basic\l_number\&lt; int const &amp; \&gt;">
<polygon fill="white" stroke="black" points="0,-68.5 0,-98.5 119,-98.5 119,-68.5 0,-68.5"/>
<text text-anchor="start" x="8" y="-86.5" font-family="Helvetica,sans-Serif" font-size="10.00">vnix::units::basic</text>
<text text-anchor="middle" x="59.5" y="-75.5" font-family="Helvetica,sans-Serif" font-size="10.00">_number&lt; int const &amp; &gt;</text>
</a>
</g>
</g>
<!-- Node2&#45;&gt;Node1 -->
<g id="edge1" class="edge"><title>Node2&#45;&gt;Node1</title>
<path fill="none" stroke="midnightblue" d="M59.5,-58.0322C59.5,-48.8606 59.5,-38.7449 59.5,-30.7931"/>
<polygon fill="midnightblue" stroke="midnightblue" points="56.0001,-58.1789 59.5,-68.179 63.0001,-58.179 56.0001,-58.1789"/>
</g>
<!-- Node3 -->
<g id="node3" class="node"><title>Node3</title>
<g id="a_node3"><a xlink:href="structvnix_1_1units_1_1basic__number.html" target="_top" xlink:title="Base&#45;struct for wrapper to disambiguate scalar from dimval and protected storage for numeric value as...">
<polygon fill="white" stroke="black" points="14,-146.5 14,-176.5 105,-176.5 105,-146.5 14,-146.5"/>
<text text-anchor="start" x="22" y="-164.5" font-family="Helvetica,sans-Serif" font-size="10.00">vnix::units::basic</text>
<text text-anchor="middle" x="59.5" y="-153.5" font-family="Helvetica,sans-Serif" font-size="10.00">_number&lt; T &gt;</text>
</a>
</g>
</g>
<!-- Node3&#45;&gt;Node2 -->
<g id="edge2" class="edge"><title>Node3&#45;&gt;Node2</title>
<path fill="none" stroke="orange" stroke-dasharray="5,2" d="M59.5,-136.09C59.5,-123.757 59.5,-109.224 59.5,-98.7309"/>
<polygon fill="orange" stroke="orange" points="56.0001,-136.205 59.5,-146.205 63.0001,-136.205 56.0001,-136.205"/>
<text text-anchor="middle" x="94" y="-120" font-family="Helvetica,sans-Serif" font-size="10.00"> &lt; int const &amp; &gt;</text>
</g>
<!-- Node4 -->
<g id="node4" class="node"><title>Node4</title>
<polygon fill="white" stroke="#bfbfbf" points="45,-224.5 45,-243.5 74,-243.5 74,-224.5 45,-224.5"/>
<text text-anchor="middle" x="59.5" y="-231.5" font-family="Helvetica,sans-Serif" font-size="10.00">T</text>
</g>
<!-- Node4&#45;&gt;Node3 -->
<g id="edge3" class="edge"><title>Node4&#45;&gt;Node3</title>
<path fill="none" stroke="#9a32cd" stroke-dasharray="5,2" d="M59.5,-214.236C59.5,-202.408 59.5,-187.383 59.5,-176.576"/>
<polygon fill="#9a32cd" stroke="#9a32cd" points="56.0001,-214.355 59.5,-224.355 63.0001,-214.355 56.0001,-214.355"/>
<text text-anchor="middle" x="66.5" y="-198" font-family="Helvetica,sans-Serif" font-size="10.00"> v_</text>
</g>
</g>
</svg>
