<?xml version="1.0" encoding="UTF-8" standalone="no"?>
<!DOCTYPE svg PUBLIC "-//W3C//DTD SVG 1.1//EN"
 "http://www.w3.org/Graphics/SVG/1.1/DTD/svg11.dtd">
<!-- Generated by graphviz version 2.38.0 (20140413.2041)
 -->
<!-- Title: vnix::units::number&lt; Eigen::Matrix&lt; S, R, C, OPT, MR, MC &gt; &gt; Pages: 1 -->
<svg width="194pt" height="218pt"
 viewBox="0.00 0.00 193.50 218.00" xmlns="http://www.w3.org/2000/svg" xmlns:xlink="http://www.w3.org/1999/xlink">
<g id="graph0" class="graph" transform="scale(1 1) rotate(0) translate(4 214)">
<title>vnix::units::number&lt; Eigen::Matrix&lt; S, R, C, OPT, MR, MC &gt; &gt;</title>
<polygon fill="white" stroke="none" points="-4,4 -4,-214 189.5,-214 189.5,4 -4,4"/>
<!-- Node1 -->
<g id="node1" class="node"><title>Node1</title>
<polygon fill="#bfbfbf" stroke="black" points="9.5,-0.5 9.5,-41.5 137.5,-41.5 137.5,-0.5 9.5,-0.5"/>
<text text-anchor="start" x="17.5" y="-29.5" font-family="Helvetica,sans-Serif" font-size="10.00">vnix::units::number</text>
<text text-anchor="start" x="17.5" y="-18.5" font-family="Helvetica,sans-Serif" font-size="10.00">&lt; Eigen::Matrix&lt; S,</text>
<text text-anchor="middle" x="73.5" y="-7.5" font-family="Helvetica,sans-Serif" font-size="10.00"> R, C, OPT, MR, MC &gt; &gt;</text>
</g>
<!-- Node2 -->
<g id="node2" class="node"><title>Node2</title>
<g id="a_node2"><a xlink:href="structvnix_1_1units_1_1basic__number.html" target="_top" xlink:title="vnix::units::basic\l_number\&lt; Eigen::Matrix\l\&lt; S, R, C, OPT, MR, MC \&gt; \&gt;">
<polygon fill="white" stroke="black" points="0,-79.5 0,-120.5 147,-120.5 147,-79.5 0,-79.5"/>
<text text-anchor="start" x="8" y="-108.5" font-family="Helvetica,sans-Serif" font-size="10.00">vnix::units::basic</text>
<text text-anchor="start" x="8" y="-97.5" font-family="Helvetica,sans-Serif" font-size="10.00">_number&lt; Eigen::Matrix</text>
<text text-anchor="middle" x="73.5" y="-86.5" font-family="Helvetica,sans-Serif" font-size="10.00">&lt; S, R, C, OPT, MR, MC &gt; &gt;</text>
</a>
</g>
</g>
<!-- Node2&#45;&gt;Node1 -->
<g id="edge1" class="edge"><title>Node2&#45;&gt;Node1</title>
<path fill="none" stroke="midnightblue" d="M73.5,-68.9057C73.5,-59.7917 73.5,-50.017 73.5,-41.7622"/>
<polygon fill="midnightblue" stroke="midnightblue" points="70.0001,-69.1706 73.5,-79.1706 77.0001,-69.1706 70.0001,-69.1706"/>
</g>
<!-- Node3 -->
<g id="node3" class="node"><title>Node3</title>
<g id="a_node3"><a xlink:href="structvnix_1_1units_1_1basic__number.html" target="_top" xlink:title="Base&#45;struct for wrapper to disambiguate scalar from dimval and protected storage for numeric value as...">
<polygon fill="white" stroke="black" points="28,-179.5 28,-209.5 119,-209.5 119,-179.5 28,-179.5"/>
<text text-anchor="start" x="36" y="-197.5" font-family="Helvetica,sans-Serif" font-size="10.00">vnix::units::basic</text>
<text text-anchor="middle" x="73.5" y="-186.5" font-family="Helvetica,sans-Serif" font-size="10.00">_number&lt; T &gt;</text>
</a>
</g>
</g>
<!-- Node3&#45;&gt;Node2 -->
<g id="edge2" class="edge"><title>Node3&#45;&gt;Node2</title>
<path fill="none" stroke="orange" stroke-dasharray="5,2" d="M73.5,-169.282C73.5,-154.138 73.5,-134.882 73.5,-120.682"/>
<polygon fill="orange" stroke="orange" points="70.0001,-169.451 73.5,-179.451 77.0001,-169.451 70.0001,-169.451"/>
<text text-anchor="start" x="73.5" y="-153" font-family="Helvetica,sans-Serif" font-size="10.00"> &lt; Eigen::Matrix&lt; S,</text>
<text text-anchor="middle" x="129.5" y="-142" font-family="Helvetica,sans-Serif" font-size="10.00"> R, C, OPT, MR, MC &gt; &gt;</text>
</g>
</g>
</svg>
