<?xml version="1.0" encoding="UTF-8" standalone="no"?>
<!DOCTYPE svg PUBLIC "-//W3C//DTD SVG 1.1//EN"
 "http://www.w3.org/Graphics/SVG/1.1/DTD/svg11.dtd">
<!-- Generated by graphviz version 2.38.0 (20140413.2041)
 -->
<!-- Title: vnix::units::impl::newtons::newtons Pages: 1 -->
<svg width="240pt" height="186pt"
 viewBox="0.00 0.00 240.00 186.00" xmlns="http://www.w3.org/2000/svg" xmlns:xlink="http://www.w3.org/1999/xlink">
<g id="graph0" class="graph" transform="scale(1 1) rotate(0) translate(4 182)">
<title>vnix::units::impl::newtons::newtons</title>
<polygon fill="white" stroke="none" points="-4,4 -4,-182 236,-182 236,4 -4,4"/>
<!-- Node1 -->
<g id="node1" class="node"><title>Node1</title>
<polygon fill="#bfbfbf" stroke="black" points="0,-73.5 0,-103.5 96,-103.5 96,-73.5 0,-73.5"/>
<text text-anchor="start" x="8" y="-91.5" font-family="Helvetica,sans-Serif" font-size="10.00">vnix::units::impl::</text>
<text text-anchor="middle" x="48" y="-80.5" font-family="Helvetica,sans-Serif" font-size="10.00">newtons::newtons</text>
</g>
<!-- Node2 -->
<g id="node2" class="node"><title>Node2</title>
<g id="a_node2"><a xlink:href="structvnix_1_1units_1_1statdim__base.html#acd979076b68cf256d845231674711ff9" target="_top" xlink:title="Exponent for each unit in dimensioned quantity. ">
<polygon fill="white" stroke="black" points="132,-147.5 132,-177.5 232,-177.5 232,-147.5 132,-147.5"/>
<text text-anchor="start" x="140" y="-165.5" font-family="Helvetica,sans-Serif" font-size="10.00">vnix::units::statdim</text>
<text text-anchor="middle" x="182" y="-154.5" font-family="Helvetica,sans-Serif" font-size="10.00">_base::d</text>
</a>
</g>
</g>
<!-- Node1&#45;&gt;Node2 -->
<g id="edge1" class="edge"><title>Node1&#45;&gt;Node2</title>
<path fill="none" stroke="midnightblue" d="M73.011,-103.721C89.4141,-113.93 111.762,-127.475 132,-138.5 134.659,-139.949 137.418,-141.41 140.211,-142.858"/>
<polygon fill="midnightblue" stroke="midnightblue" points="138.663,-145.997 149.164,-147.406 141.833,-139.756 138.663,-145.997"/>
</g>
<!-- Node3 -->
<g id="node3" class="node"><title>Node3</title>
<g id="a_node3"><a xlink:href="classvnix_1_1units_1_1basic__dim.html#a9663530571be08d149b83a60ab97c25a" target="_top" xlink:title="Add corresponding exponents. ">
<polygon fill="white" stroke="black" points="136.5,-98.5 136.5,-128.5 227.5,-128.5 227.5,-98.5 136.5,-98.5"/>
<text text-anchor="start" x="144.5" y="-116.5" font-family="Helvetica,sans-Serif" font-size="10.00">vnix::units::basic</text>
<text text-anchor="middle" x="182" y="-105.5" font-family="Helvetica,sans-Serif" font-size="10.00">_dim::operator+</text>
</a>
</g>
</g>
<!-- Node1&#45;&gt;Node3 -->
<g id="edge2" class="edge"><title>Node1&#45;&gt;Node3</title>
<path fill="none" stroke="midnightblue" d="M96.2822,-97.455C106.047,-99.3044 116.408,-101.267 126.408,-103.161"/>
<polygon fill="midnightblue" stroke="midnightblue" points="125.777,-106.603 136.253,-105.025 127.079,-99.7254 125.777,-106.603"/>
</g>
<!-- Node4 -->
<g id="node4" class="node"><title>Node4</title>
<g id="a_node4"><a xlink:href="classvnix_1_1units_1_1basic__dim.html#a0555c91aa04966d3f07340d689317c37" target="_top" xlink:title="Subtract corresponding exponents. ">
<polygon fill="white" stroke="black" points="136.5,-49.5 136.5,-79.5 227.5,-79.5 227.5,-49.5 136.5,-49.5"/>
<text text-anchor="start" x="144.5" y="-67.5" font-family="Helvetica,sans-Serif" font-size="10.00">vnix::units::basic</text>
<text text-anchor="middle" x="182" y="-56.5" font-family="Helvetica,sans-Serif" font-size="10.00">_dim::operator&#45;</text>
</a>
</g>
</g>
<!-- Node1&#45;&gt;Node4 -->
<g id="edge3" class="edge"><title>Node1&#45;&gt;Node4</title>
<path fill="none" stroke="midnightblue" d="M96.2822,-79.9032C106.047,-78.1278 116.408,-76.244 126.408,-74.4257"/>
<polygon fill="midnightblue" stroke="midnightblue" points="127.041,-77.8682 136.253,-72.6358 125.788,-70.9812 127.041,-77.8682"/>
</g>
<!-- Node5 -->
<g id="node5" class="node"><title>Node5</title>
<g id="a_node5"><a xlink:href="classvnix_1_1units_1_1basic__dim.html#a14314170633ec56f7a71b977f1d6d13e" target="_top" xlink:title="Encode data for this dim into a word. ">
<polygon fill="white" stroke="black" points="136.5,-0.5 136.5,-30.5 227.5,-30.5 227.5,-0.5 136.5,-0.5"/>
<text text-anchor="start" x="144.5" y="-18.5" font-family="Helvetica,sans-Serif" font-size="10.00">vnix::units::basic</text>
<text text-anchor="middle" x="182" y="-7.5" font-family="Helvetica,sans-Serif" font-size="10.00">_dim::encode</text>
</a>
</g>
</g>
<!-- Node1&#45;&gt;Node5 -->
<g id="edge4" class="edge"><title>Node1&#45;&gt;Node5</title>
<path fill="none" stroke="midnightblue" d="M74.2329,-73.4463C90.5819,-63.8075 112.404,-51.1556 132,-40.5 135.209,-38.7549 138.553,-36.9732 141.92,-35.2048"/>
<polygon fill="midnightblue" stroke="midnightblue" points="143.548,-38.3035 150.81,-30.5889 140.322,-32.0911 143.548,-38.3035"/>
</g>
</g>
</svg>
