<?xml version="1.0" encoding="UTF-8" standalone="no"?>
<!DOCTYPE svg PUBLIC "-//W3C//DTD SVG 1.1//EN"
 "http://www.w3.org/Graphics/SVG/1.1/DTD/svg11.dtd">
<!-- Generated by graphviz version 2.38.0 (20140413.2041)
 -->
<!-- Title: vnix::units::number&lt; int &gt; Pages: 1 -->
<svg width="108pt" height="185pt"
 viewBox="0.00 0.00 108.00 185.00" xmlns="http://www.w3.org/2000/svg" xmlns:xlink="http://www.w3.org/1999/xlink">
<g id="graph0" class="graph" transform="scale(1 1) rotate(0) translate(4 181)">
<title>vnix::units::number&lt; int &gt;</title>
<polygon fill="white" stroke="none" points="-4,4 -4,-181 104,-181 104,4 -4,4"/>
<!-- Node1 -->
<g id="node1" class="node"><title>Node1</title>
<polygon fill="#bfbfbf" stroke="black" points="0,-0.5 0,-30.5 100,-30.5 100,-0.5 0,-0.5"/>
<text text-anchor="start" x="8" y="-18.5" font-family="Helvetica,sans-Serif" font-size="10.00">vnix::units::number</text>
<text text-anchor="middle" x="50" y="-7.5" font-family="Helvetica,sans-Serif" font-size="10.00">&lt; int &gt;</text>
</g>
<!-- Node2 -->
<g id="node2" class="node"><title>Node2</title>
<g id="a_node2"><a xlink:href="structvnix_1_1units_1_1basic__number.html" target="_top" xlink:title="vnix::units::basic\l_number\&lt; int \&gt;">
<polygon fill="white" stroke="black" points="4.5,-68.5 4.5,-98.5 95.5,-98.5 95.5,-68.5 4.5,-68.5"/>
<text text-anchor="start" x="12.5" y="-86.5" font-family="Helvetica,sans-Serif" font-size="10.00">vnix::units::basic</text>
<text text-anchor="middle" x="50" y="-75.5" font-family="Helvetica,sans-Serif" font-size="10.00">_number&lt; int &gt;</text>
</a>
</g>
</g>
<!-- Node2&#45;&gt;Node1 -->
<g id="edge1" class="edge"><title>Node2&#45;&gt;Node1</title>
<path fill="none" stroke="midnightblue" d="M50,-58.0322C50,-48.8606 50,-38.7449 50,-30.7931"/>
<polygon fill="midnightblue" stroke="midnightblue" points="46.5001,-58.1789 50,-68.179 53.5001,-58.179 46.5001,-58.1789"/>
</g>
<!-- Node3 -->
<g id="node3" class="node"><title>Node3</title>
<g id="a_node3"><a xlink:href="structvnix_1_1units_1_1basic__number.html" target="_top" xlink:title="Base&#45;struct for wrapper to disambiguate scalar from dimval and protected storage for numeric value as...">
<polygon fill="white" stroke="black" points="4.5,-146.5 4.5,-176.5 95.5,-176.5 95.5,-146.5 4.5,-146.5"/>
<text text-anchor="start" x="12.5" y="-164.5" font-family="Helvetica,sans-Serif" font-size="10.00">vnix::units::basic</text>
<text text-anchor="middle" x="50" y="-153.5" font-family="Helvetica,sans-Serif" font-size="10.00">_number&lt; T &gt;</text>
</a>
</g>
</g>
<!-- Node3&#45;&gt;Node2 -->
<g id="edge2" class="edge"><title>Node3&#45;&gt;Node2</title>
<path fill="none" stroke="orange" stroke-dasharray="5,2" d="M50,-136.09C50,-123.757 50,-109.224 50,-98.7309"/>
<polygon fill="orange" stroke="orange" points="46.5001,-136.205 50,-146.205 53.5001,-136.205 46.5001,-136.205"/>
<text text-anchor="middle" x="66" y="-120" font-family="Helvetica,sans-Serif" font-size="10.00"> &lt; int &gt;</text>
</g>
</g>
</svg>
