<?xml version="1.0" encoding="UTF-8" standalone="no"?>
<!DOCTYPE svg PUBLIC "-//W3C//DTD SVG 1.1//EN"
 "http://www.w3.org/Graphics/SVG/1.1/DTD/svg11.dtd">
<!-- Generated by graphviz version 2.38.0 (20140413.2041)
 -->
<!-- Title: vnix::units::statdim_base::d Pages: 1 -->
<svg width="419pt" height="1940pt"
 viewBox="0.00 0.00 419.00 1940.00" xmlns="http://www.w3.org/2000/svg" xmlns:xlink="http://www.w3.org/1999/xlink">
<g id="graph0" class="graph" transform="scale(1 1) rotate(0) translate(4 1936)">
<title>vnix::units::statdim_base::d</title>
<polygon fill="white" stroke="none" points="-4,4 -4,-1936 415,-1936 415,4 -4,4"/>
<!-- Node1 -->
<g id="node1" class="node"><title>Node1</title>
<polygon fill="#bfbfbf" stroke="black" points="0,-955.5 0,-985.5 100,-985.5 100,-955.5 0,-955.5"/>
<text text-anchor="start" x="8" y="-973.5" font-family="Helvetica,sans-Serif" font-size="10.00">vnix::units::statdim</text>
<text text-anchor="middle" x="50" y="-962.5" font-family="Helvetica,sans-Serif" font-size="10.00">_base::d</text>
</g>
<!-- Node2 -->
<g id="node2" class="node"><title>Node2</title>
<g id="a_node2"><a xlink:href="structvnix_1_1units_1_1statdim__base.html#ad0dbe5878e8ffbad36abd4855c07a5b6" target="_top" xlink:title="Check for compatibility on contruction from dim. ">
<polygon fill="white" stroke="black" points="136,-1901.5 136,-1931.5 300,-1931.5 300,-1901.5 136,-1901.5"/>
<text text-anchor="start" x="144" y="-1919.5" font-family="Helvetica,sans-Serif" font-size="10.00">vnix::units::statdim</text>
<text text-anchor="middle" x="218" y="-1908.5" font-family="Helvetica,sans-Serif" font-size="10.00">_base&lt; nul_code &gt;::statdim_base</text>
</a>
</g>
</g>
<!-- Node1&#45;&gt;Node2 -->
<g id="edge1" class="edge"><title>Node1&#45;&gt;Node2</title>
<path fill="none" stroke="midnightblue" d="M51.661,-995.739C55.5654,-1136.54 77.4737,-1821.2 136,-1892.5 138.792,-1895.9 142.042,-1898.83 145.604,-1901.36"/>
<polygon fill="midnightblue" stroke="midnightblue" points="55.1537,-995.421 51.383,-985.52 48.1563,-995.611 55.1537,-995.421"/>
</g>
<!-- Node3 -->
<g id="node3" class="node"><title>Node3</title>
<g id="a_node3"><a xlink:href="structvnix_1_1units_1_1statdim__base.html#af7c50c56e88d8e886628f8085df1984e" target="_top" xlink:title="Throw if dimension be non&#45;null. ">
<polygon fill="white" stroke="black" points="149,-1852.5 149,-1882.5 287,-1882.5 287,-1852.5 149,-1852.5"/>
<text text-anchor="start" x="157" y="-1870.5" font-family="Helvetica,sans-Serif" font-size="10.00">vnix::units::statdim</text>
<text text-anchor="middle" x="218" y="-1859.5" font-family="Helvetica,sans-Serif" font-size="10.00">_base&lt; nul_code &gt;::number</text>
</a>
</g>
</g>
<!-- Node1&#45;&gt;Node3 -->
<g id="edge2" class="edge"><title>Node1&#45;&gt;Node3</title>
<path fill="none" stroke="midnightblue" d="M51.8107,-996.101C56.3702,-1133.15 80.6167,-1776.38 136,-1843.5 139.641,-1847.91 144.052,-1851.54 148.914,-1854.51"/>
<polygon fill="midnightblue" stroke="midnightblue" points="55.2978,-995.647 51.4726,-985.767 48.3016,-995.876 55.2978,-995.647"/>
</g>
<!-- Node4 -->
<g id="node4" class="node"><title>Node4</title>
<g id="a_node4"><a xlink:href="structvnix_1_1units_1_1statdim__base.html#a467c2dca759e36542934a8fb4fa6ee61" target="_top" xlink:title="Dimension for product of dimensioned values. ">
<polygon fill="white" stroke="black" points="155.5,-1803.5 155.5,-1833.5 280.5,-1833.5 280.5,-1803.5 155.5,-1803.5"/>
<text text-anchor="start" x="163.5" y="-1821.5" font-family="Helvetica,sans-Serif" font-size="10.00">vnix::units::statdim</text>
<text text-anchor="middle" x="218" y="-1810.5" font-family="Helvetica,sans-Serif" font-size="10.00">_base&lt; nul_code &gt;::prod</text>
</a>
</g>
</g>
<!-- Node1&#45;&gt;Node4 -->
<g id="edge3" class="edge"><title>Node1&#45;&gt;Node4</title>
<path fill="none" stroke="midnightblue" d="M51.9588,-995.897C57.1572,-1127.84 83.678,-1731.46 136,-1794.5 141.152,-1800.71 147.829,-1805.36 155.138,-1808.83"/>
<polygon fill="midnightblue" stroke="midnightblue" points="55.4439,-995.444 51.5585,-985.587 48.4492,-995.715 55.4439,-995.444"/>
</g>
<!-- Node5 -->
<g id="node5" class="node"><title>Node5</title>
<g id="a_node5"><a xlink:href="structvnix_1_1units_1_1statdim__base.html#a8b28e82a0bfa0f5f898fbdaa61029940" target="_top" xlink:title="Dimension for quotient of dimensioned values. ">
<polygon fill="white" stroke="black" points="155.5,-1754.5 155.5,-1784.5 280.5,-1784.5 280.5,-1754.5 155.5,-1754.5"/>
<text text-anchor="start" x="163.5" y="-1772.5" font-family="Helvetica,sans-Serif" font-size="10.00">vnix::units::statdim</text>
<text text-anchor="middle" x="218" y="-1761.5" font-family="Helvetica,sans-Serif" font-size="10.00">_base&lt; nul_code &gt;::quot</text>
</a>
</g>
</g>
<!-- Node1&#45;&gt;Node5 -->
<g id="edge4" class="edge"><title>Node1&#45;&gt;Node5</title>
<path fill="none" stroke="midnightblue" d="M52.1368,-995.978C58.0339,-1123.27 86.7722,-1686.58 136,-1745.5 141.172,-1751.69 147.86,-1756.33 155.175,-1759.8"/>
<polygon fill="midnightblue" stroke="midnightblue" points="55.6187,-995.5 51.6654,-985.67 48.626,-995.819 55.6187,-995.5"/>
</g>
<!-- Node6 -->
<g id="node6" class="node"><title>Node6</title>
<g id="a_node6"><a xlink:href="structvnix_1_1units_1_1statdim__base.html#aa926d3e97910964a5db96043a0003d80" target="_top" xlink:title="Dimension for rational power of dimensioned value. ">
<polygon fill="white" stroke="black" points="156,-1705.5 156,-1735.5 280,-1735.5 280,-1705.5 156,-1705.5"/>
<text text-anchor="start" x="164" y="-1723.5" font-family="Helvetica,sans-Serif" font-size="10.00">vnix::units::statdim</text>
<text text-anchor="middle" x="218" y="-1712.5" font-family="Helvetica,sans-Serif" font-size="10.00">_base&lt; nul_code &gt;::pow</text>
</a>
</g>
</g>
<!-- Node1&#45;&gt;Node6 -->
<g id="edge5" class="edge"><title>Node1&#45;&gt;Node6</title>
<path fill="none" stroke="midnightblue" d="M52.3308,-995.901C58.948,-1118.08 89.8401,-1641.66 136,-1696.5 141.289,-1702.78 148.14,-1707.47 155.617,-1710.95"/>
<polygon fill="midnightblue" stroke="midnightblue" points="55.8122,-995.457 51.7824,-985.658 48.8222,-995.831 55.8122,-995.457"/>
</g>
<!-- Node7 -->
<g id="node7" class="node"><title>Node7</title>
<g id="a_node7"><a xlink:href="structvnix_1_1units_1_1statdim__base.html#a583b008e4d47a3c43ac9a42c2e9c47a6" target="_top" xlink:title="Dimension for square&#45;root of dimensioned value. ">
<polygon fill="white" stroke="black" points="157,-1656.5 157,-1686.5 279,-1686.5 279,-1656.5 157,-1656.5"/>
<text text-anchor="start" x="165" y="-1674.5" font-family="Helvetica,sans-Serif" font-size="10.00">vnix::units::statdim</text>
<text text-anchor="middle" x="218" y="-1663.5" font-family="Helvetica,sans-Serif" font-size="10.00">_base&lt; nul_code &gt;::sqrt</text>
</a>
</g>
</g>
<!-- Node1&#45;&gt;Node7 -->
<g id="edge6" class="edge"><title>Node1&#45;&gt;Node7</title>
<path fill="none" stroke="midnightblue" d="M50.6174,-995.836C49.4625,-1106.53 50.3998,-1546.66 136,-1647.5 141.6,-1654.1 148.921,-1658.93 156.872,-1662.46"/>
<polygon fill="midnightblue" stroke="midnightblue" points="54.1196,-995.665 50.7404,-985.624 47.1201,-995.581 54.1196,-995.665"/>
</g>
<!-- Node8 -->
<g id="node8" class="node"><title>Node8</title>
<g id="a_node8"><a xlink:href="structvnix_1_1units_1_1statdim__base.html#a8f8abe8591ffd36b2b51d86ff5b40f99" target="_top" xlink:title="Test for comparison of dimensioned values. ">
<polygon fill="white" stroke="black" points="168,-1607.5 168,-1637.5 268,-1637.5 268,-1607.5 168,-1607.5"/>
<text text-anchor="start" x="176" y="-1625.5" font-family="Helvetica,sans-Serif" font-size="10.00">vnix::units::statdim</text>
<text text-anchor="middle" x="218" y="-1614.5" font-family="Helvetica,sans-Serif" font-size="10.00">_base::comparison</text>
</a>
</g>
</g>
<!-- Node1&#45;&gt;Node8 -->
<g id="edge7" class="edge"><title>Node1&#45;&gt;Node8</title>
<path fill="none" stroke="midnightblue" d="M50.8938,-995.685C50.9604,-1101.1 56.4719,-1505.72 136,-1598.5 144.113,-1607.97 155.769,-1613.79 167.72,-1617.35"/>
<polygon fill="midnightblue" stroke="midnightblue" points="54.3937,-995.648 50.9041,-985.645 47.3937,-995.641 54.3937,-995.648"/>
</g>
<!-- Node9 -->
<g id="node9" class="node"><title>Node9</title>
<g id="a_node9"><a xlink:href="structvnix_1_1units_1_1statdim__base.html#a1befd7a6604e4f170df45a7a634a4ac2" target="_top" xlink:title="Dimension for sum of dimensioned values. ">
<polygon fill="white" stroke="black" points="168,-1558.5 168,-1588.5 268,-1588.5 268,-1558.5 168,-1558.5"/>
<text text-anchor="start" x="176" y="-1576.5" font-family="Helvetica,sans-Serif" font-size="10.00">vnix::units::statdim</text>
<text text-anchor="middle" x="218" y="-1565.5" font-family="Helvetica,sans-Serif" font-size="10.00">_base::sum</text>
</a>
</g>
</g>
<!-- Node1&#45;&gt;Node9 -->
<g id="edge8" class="edge"><title>Node1&#45;&gt;Node9</title>
<path fill="none" stroke="midnightblue" d="M51.4269,-995.856C53.591,-1095.31 66.2129,-1457.5 136,-1543.5 144.032,-1553.4 155.66,-1560.03 167.61,-1564.47"/>
<polygon fill="midnightblue" stroke="midnightblue" points="54.9203,-995.487 51.2207,-985.559 47.9217,-995.627 54.9203,-995.487"/>
</g>
<!-- Node10 -->
<g id="node10" class="node"><title>Node10</title>
<g id="a_node10"><a xlink:href="statdim-base-test_8cpp.html#a95fc148edfd36651685893df8bb3eaaa" target="_top" xlink:title="TEST_CASE">
<polygon fill="white" stroke="black" points="336,-1520 336,-1539 411,-1539 411,-1520 336,-1520"/>
<text text-anchor="middle" x="373.5" y="-1527" font-family="Helvetica,sans-Serif" font-size="10.00">TEST_CASE</text>
</a>
</g>
</g>
<!-- Node1&#45;&gt;Node10 -->
<g id="edge45" class="edge"><title>Node1&#45;&gt;Node10</title>
<path fill="none" stroke="midnightblue" d="M51.0295,-995.613C51.7062,-1092.43 59.5087,-1439.61 136,-1510.5 190.079,-1560.62 284.158,-1549.94 335.86,-1538.98"/>
<polygon fill="midnightblue" stroke="midnightblue" points="54.5293,-995.547 50.9795,-985.564 47.5294,-995.582 54.5293,-995.547"/>
</g>
<!-- Node11 -->
<g id="node11" class="node"><title>Node11</title>
<g id="a_node11"><a xlink:href="structvnix_1_1units_1_1statdim__base.html#a3ddefd8c3787a5a8830765b434cdabfc" target="_top" xlink:title="Dimension for difference of dimensioned values. ">
<polygon fill="white" stroke="black" points="168,-1470.5 168,-1500.5 268,-1500.5 268,-1470.5 168,-1470.5"/>
<text text-anchor="start" x="176" y="-1488.5" font-family="Helvetica,sans-Serif" font-size="10.00">vnix::units::statdim</text>
<text text-anchor="middle" x="218" y="-1477.5" font-family="Helvetica,sans-Serif" font-size="10.00">_base::diff</text>
</a>
</g>
</g>
<!-- Node1&#45;&gt;Node11 -->
<g id="edge10" class="edge"><title>Node1&#45;&gt;Node11</title>
<path fill="none" stroke="midnightblue" d="M51.9498,-995.792C55.8459,-1086.13 73.4853,-1391.23 136,-1461.5 144.287,-1470.81 156,-1476.59 167.951,-1480.15"/>
<polygon fill="midnightblue" stroke="midnightblue" points="55.4404,-995.489 51.5317,-985.641 48.4463,-995.777 55.4404,-995.489"/>
</g>
<!-- Node12 -->
<g id="node12" class="node"><title>Node12</title>
<g id="a_node12"><a xlink:href="structvnix_1_1units_1_1statdim__base.html#afc4b5217b097b3e6cb47a2bc8ecad319" target="_top" xlink:title="Dimension for product of dimensioned values. ">
<polygon fill="white" stroke="black" points="168,-1421.5 168,-1451.5 268,-1451.5 268,-1421.5 168,-1421.5"/>
<text text-anchor="start" x="176" y="-1439.5" font-family="Helvetica,sans-Serif" font-size="10.00">vnix::units::statdim</text>
<text text-anchor="middle" x="218" y="-1428.5" font-family="Helvetica,sans-Serif" font-size="10.00">_base::prod</text>
</a>
</g>
</g>
<!-- Node1&#45;&gt;Node12 -->
<g id="edge12" class="edge"><title>Node1&#45;&gt;Node12</title>
<path fill="none" stroke="midnightblue" d="M52.4759,-995.7C57.9088,-1079.97 79.4967,-1350.16 136,-1412.5 144.274,-1421.63 155.839,-1427.35 167.645,-1430.92"/>
<polygon fill="midnightblue" stroke="midnightblue" points="55.9561,-995.272 51.8401,-985.509 48.9697,-995.708 55.9561,-995.272"/>
</g>
<!-- Node14 -->
<g id="node14" class="node"><title>Node14</title>
<g id="a_node14"><a xlink:href="structvnix_1_1units_1_1statdim__base.html#a243297d22c3c03affdbf112b2264664c" target="_top" xlink:title="Dimension for quotient of dimensioned values. ">
<polygon fill="white" stroke="black" points="168,-1372.5 168,-1402.5 268,-1402.5 268,-1372.5 168,-1372.5"/>
<text text-anchor="start" x="176" y="-1390.5" font-family="Helvetica,sans-Serif" font-size="10.00">vnix::units::statdim</text>
<text text-anchor="middle" x="218" y="-1379.5" font-family="Helvetica,sans-Serif" font-size="10.00">_base::quot</text>
</a>
</g>
</g>
<!-- Node1&#45;&gt;Node14 -->
<g id="edge14" class="edge"><title>Node1&#45;&gt;Node14</title>
<path fill="none" stroke="midnightblue" d="M53.1547,-995.924C60.2791,-1074.13 85.5475,-1309.11 136,-1363.5 144.379,-1372.53 155.98,-1378.22 167.787,-1381.79"/>
<polygon fill="midnightblue" stroke="midnightblue" points="56.6055,-995.214 52.2344,-985.563 49.633,-995.833 56.6055,-995.214"/>
</g>
<!-- Node15 -->
<g id="node15" class="node"><title>Node15</title>
<g id="a_node15"><a xlink:href="structvnix_1_1units_1_1statdim__base.html#aed21dfa8317daf91d9a0b9c5d893f57b" target="_top" xlink:title="Dimension for rational power of dimensioned value. ">
<polygon fill="white" stroke="black" points="168,-1323.5 168,-1353.5 268,-1353.5 268,-1323.5 168,-1323.5"/>
<text text-anchor="start" x="176" y="-1341.5" font-family="Helvetica,sans-Serif" font-size="10.00">vnix::units::statdim</text>
<text text-anchor="middle" x="218" y="-1330.5" font-family="Helvetica,sans-Serif" font-size="10.00">_base::pow</text>
</a>
</g>
</g>
<!-- Node1&#45;&gt;Node15 -->
<g id="edge16" class="edge"><title>Node1&#45;&gt;Node15</title>
<path fill="none" stroke="midnightblue" d="M54.0141,-996.016C62.9584,-1067.57 91.5313,-1267.95 136,-1314.5 144.51,-1323.41 156.156,-1329.06 167.964,-1332.62"/>
<polygon fill="midnightblue" stroke="midnightblue" points="57.4381,-995.181 52.7477,-985.681 50.4901,-996.033 57.4381,-995.181"/>
</g>
<!-- Node17 -->
<g id="node17" class="node"><title>Node17</title>
<g id="a_node17"><a xlink:href="structvnix_1_1units_1_1impl_1_1feet.html#a0b97922ae11ef679a2b16982ab9191b7" target="_top" xlink:title="Initialize from number of feet. ">
<polygon fill="white" stroke="black" points="172,-1274.5 172,-1304.5 264,-1304.5 264,-1274.5 172,-1274.5"/>
<text text-anchor="start" x="180" y="-1292.5" font-family="Helvetica,sans-Serif" font-size="10.00">vnix::units::impl::</text>
<text text-anchor="middle" x="218" y="-1281.5" font-family="Helvetica,sans-Serif" font-size="10.00">feet::feet</text>
</a>
</g>
</g>
<!-- Node1&#45;&gt;Node17 -->
<g id="edge18" class="edge"><title>Node1&#45;&gt;Node17</title>
<path fill="none" stroke="midnightblue" d="M50.6414,-995.679C51.2523,-1052.13 60.8492,-1189.78 136,-1265.5 145.609,-1275.18 158.926,-1281 171.989,-1284.48"/>
<polygon fill="midnightblue" stroke="midnightblue" points="54.1412,-995.507 50.6223,-985.514 47.1412,-995.521 54.1412,-995.507"/>
</g>
<!-- Node18 -->
<g id="node18" class="node"><title>Node18</title>
<g id="a_node18"><a xlink:href="structvnix_1_1units_1_1impl_1_1kilofeet.html#ada43d6c4258ffc6f8c86235f520c6b05" target="_top" xlink:title="Initialize from number of kilofeet. ">
<polygon fill="white" stroke="black" points="172,-1225.5 172,-1255.5 264,-1255.5 264,-1225.5 172,-1225.5"/>
<text text-anchor="start" x="180" y="-1243.5" font-family="Helvetica,sans-Serif" font-size="10.00">vnix::units::impl::</text>
<text text-anchor="middle" x="218" y="-1232.5" font-family="Helvetica,sans-Serif" font-size="10.00">kilofeet::kilofeet</text>
</a>
</g>
</g>
<!-- Node1&#45;&gt;Node18 -->
<g id="edge19" class="edge"><title>Node1&#45;&gt;Node18</title>
<path fill="none" stroke="midnightblue" d="M52.3749,-995.903C56.4489,-1045.53 72.5473,-1155.82 136,-1216.5 145.752,-1225.83 158.956,-1231.55 171.871,-1235.05"/>
<polygon fill="midnightblue" stroke="midnightblue" points="55.8516,-995.453 51.6416,-985.731 48.8697,-995.956 55.8516,-995.453"/>
</g>
<!-- Node19 -->
<g id="node19" class="node"><title>Node19</title>
<g id="a_node19"><a xlink:href="structvnix_1_1units_1_1impl_1_1inches.html#a5529e3545b9108a4ea16d149b4dfd936" target="_top" xlink:title="Initialize from number of inches. ">
<polygon fill="white" stroke="black" points="172,-1176.5 172,-1206.5 264,-1206.5 264,-1176.5 172,-1176.5"/>
<text text-anchor="start" x="180" y="-1194.5" font-family="Helvetica,sans-Serif" font-size="10.00">vnix::units::impl::</text>
<text text-anchor="middle" x="218" y="-1183.5" font-family="Helvetica,sans-Serif" font-size="10.00">inches::inches</text>
</a>
</g>
</g>
<!-- Node1&#45;&gt;Node19 -->
<g id="edge20" class="edge"><title>Node1&#45;&gt;Node19</title>
<path fill="none" stroke="midnightblue" d="M54.8158,-995.507C62.5122,-1037.28 83.8406,-1121.22 136,-1167.5 145.983,-1176.36 159.104,-1181.95 171.87,-1185.48"/>
<polygon fill="midnightblue" stroke="midnightblue" points="58.2571,-994.867 53.1044,-985.61 51.3595,-996.06 58.2571,-994.867"/>
</g>
<!-- Node20 -->
<g id="node20" class="node"><title>Node20</title>
<g id="a_node20"><a xlink:href="structvnix_1_1units_1_1impl_1_1yards.html#a211f27af54d8eb0193d0f79e0e028af0" target="_top" xlink:title="Initialize from number of yards. ">
<polygon fill="white" stroke="black" points="172,-1127.5 172,-1157.5 264,-1157.5 264,-1127.5 172,-1127.5"/>
<text text-anchor="start" x="180" y="-1145.5" font-family="Helvetica,sans-Serif" font-size="10.00">vnix::units::impl::</text>
<text text-anchor="middle" x="218" y="-1134.5" font-family="Helvetica,sans-Serif" font-size="10.00">yards::yards</text>
</a>
</g>
</g>
<!-- Node1&#45;&gt;Node20 -->
<g id="edge21" class="edge"><title>Node1&#45;&gt;Node20</title>
<path fill="none" stroke="midnightblue" d="M58.7356,-995.378C70.2637,-1028.37 95.0938,-1086.17 136,-1118.5 146.242,-1126.59 159.152,-1131.96 171.638,-1135.52"/>
<polygon fill="midnightblue" stroke="midnightblue" points="61.9553,-993.97 55.4566,-985.603 55.3188,-996.197 61.9553,-993.97"/>
</g>
<!-- Node21 -->
<g id="node21" class="node"><title>Node21</title>
<g id="a_node21"><a xlink:href="structvnix_1_1units_1_1impl_1_1miles.html#aba9f1fa6bb7ffbe6f64604b338ccf2ae" target="_top" xlink:title="Initialize from number of miles. ">
<polygon fill="white" stroke="black" points="172,-1078.5 172,-1108.5 264,-1108.5 264,-1078.5 172,-1078.5"/>
<text text-anchor="start" x="180" y="-1096.5" font-family="Helvetica,sans-Serif" font-size="10.00">vnix::units::impl::</text>
<text text-anchor="middle" x="218" y="-1085.5" font-family="Helvetica,sans-Serif" font-size="10.00">miles::miles</text>
</a>
</g>
</g>
<!-- Node1&#45;&gt;Node21 -->
<g id="edge22" class="edge"><title>Node1&#45;&gt;Node21</title>
<path fill="none" stroke="midnightblue" d="M65.5666,-994.276C80.5553,-1016.81 105.919,-1050.02 136,-1069.5 146.71,-1076.44 159.496,-1081.43 171.709,-1085"/>
<polygon fill="midnightblue" stroke="midnightblue" points="68.3471,-992.13 59.9769,-985.635 62.4696,-995.932 68.3471,-992.13"/>
</g>
<!-- Node22 -->
<g id="node22" class="node"><title>Node22</title>
<g id="a_node22"><a xlink:href="structvnix_1_1units_1_1impl_1_1newtons.html#a86bdc8cc8223dd92a350eee791da6b88" target="_top" xlink:title="Initialize from number of newtons. ">
<polygon fill="white" stroke="black" points="170,-1029.5 170,-1059.5 266,-1059.5 266,-1029.5 170,-1029.5"/>
<text text-anchor="start" x="178" y="-1047.5" font-family="Helvetica,sans-Serif" font-size="10.00">vnix::units::impl::</text>
<text text-anchor="middle" x="218" y="-1036.5" font-family="Helvetica,sans-Serif" font-size="10.00">newtons::newtons</text>
</a>
</g>
</g>
<!-- Node1&#45;&gt;Node22 -->
<g id="edge23" class="edge"><title>Node1&#45;&gt;Node22</title>
<path fill="none" stroke="midnightblue" d="M82.0381,-991.23C97.7315,-1001.06 117.361,-1012.4 136,-1020.5 146.627,-1025.12 158.409,-1029.17 169.621,-1032.57"/>
<polygon fill="midnightblue" stroke="midnightblue" points="83.6034,-988.077 73.2901,-985.651 79.8393,-993.979 83.6034,-988.077"/>
</g>
<!-- Node23 -->
<g id="node23" class="node"><title>Node23</title>
<g id="a_node23"><a xlink:href="structvnix_1_1units_1_1impl_1_1millinewtons.html#ac260fb05b138f861e949c114a29dd50a" target="_top" xlink:title="Initialize from number of millinewtons. ">
<polygon fill="white" stroke="black" points="152.5,-980.5 152.5,-1010.5 283.5,-1010.5 283.5,-980.5 152.5,-980.5"/>
<text text-anchor="start" x="160.5" y="-998.5" font-family="Helvetica,sans-Serif" font-size="10.00">vnix::units::impl::</text>
<text text-anchor="middle" x="218" y="-987.5" font-family="Helvetica,sans-Serif" font-size="10.00">millinewtons::millinewtons</text>
</a>
</g>
</g>
<!-- Node1&#45;&gt;Node23 -->
<g id="edge24" class="edge"><title>Node1&#45;&gt;Node23</title>
<path fill="none" stroke="midnightblue" d="M110.547,-979.468C124.142,-981.515 138.652,-983.701 152.446,-985.778"/>
<polygon fill="midnightblue" stroke="midnightblue" points="110.766,-975.961 100.356,-977.933 109.723,-982.883 110.766,-975.961"/>
</g>
<!-- Node24 -->
<g id="node24" class="node"><title>Node24</title>
<g id="a_node24"><a xlink:href="structvnix_1_1units_1_1impl_1_1micronewtons.html#ab77fa6b9c459a4975d90cb9bb6a5b6d2" target="_top" xlink:title="Initialize from number of micronewtons. ">
<polygon fill="white" stroke="black" points="146,-931.5 146,-961.5 290,-961.5 290,-931.5 146,-931.5"/>
<text text-anchor="start" x="154" y="-949.5" font-family="Helvetica,sans-Serif" font-size="10.00">vnix::units::impl::</text>
<text text-anchor="middle" x="218" y="-938.5" font-family="Helvetica,sans-Serif" font-size="10.00">micronewtons::micronewtons</text>
</a>
</g>
</g>
<!-- Node1&#45;&gt;Node24 -->
<g id="edge25" class="edge"><title>Node1&#45;&gt;Node24</title>
<path fill="none" stroke="midnightblue" d="M110.255,-961.933C121.741,-960.272 133.891,-958.516 145.716,-956.806"/>
<polygon fill="midnightblue" stroke="midnightblue" points="109.752,-958.469 100.356,-963.364 110.754,-965.397 109.752,-958.469"/>
</g>
<!-- Node25 -->
<g id="node25" class="node"><title>Node25</title>
<g id="a_node25"><a xlink:href="structvnix_1_1units_1_1impl_1_1kilonewtons.html#acaf4b9fded90dff6391efe4df8651365" target="_top" xlink:title="Initialize from number of kilonewtons. ">
<polygon fill="white" stroke="black" points="155,-882.5 155,-912.5 281,-912.5 281,-882.5 155,-882.5"/>
<text text-anchor="start" x="163" y="-900.5" font-family="Helvetica,sans-Serif" font-size="10.00">vnix::units::impl::</text>
<text text-anchor="middle" x="218" y="-889.5" font-family="Helvetica,sans-Serif" font-size="10.00">kilonewtons::kilonewtons</text>
</a>
</g>
</g>
<!-- Node1&#45;&gt;Node25 -->
<g id="edge26" class="edge"><title>Node1&#45;&gt;Node25</title>
<path fill="none" stroke="midnightblue" d="M83.1811,-950.159C98.7352,-940.897 117.914,-930.29 136,-922.5 144.38,-918.89 153.452,-915.563 162.39,-912.592"/>
<polygon fill="midnightblue" stroke="midnightblue" points="81.2213,-947.254 74.4777,-955.426 84.8453,-953.243 81.2213,-947.254"/>
</g>
<!-- Node26 -->
<g id="node26" class="node"><title>Node26</title>
<g id="a_node26"><a xlink:href="structvnix_1_1units_1_1impl_1_1meganewtons.html#af5586da6d8663052a8798271e5d73d58" target="_top" xlink:title="Initialize from number of meganewtons. ">
<polygon fill="white" stroke="black" points="146,-833.5 146,-863.5 290,-863.5 290,-833.5 146,-833.5"/>
<text text-anchor="start" x="154" y="-851.5" font-family="Helvetica,sans-Serif" font-size="10.00">vnix::units::impl::</text>
<text text-anchor="middle" x="218" y="-840.5" font-family="Helvetica,sans-Serif" font-size="10.00">meganewtons::meganewtons</text>
</a>
</g>
</g>
<!-- Node1&#45;&gt;Node26 -->
<g id="edge27" class="edge"><title>Node1&#45;&gt;Node26</title>
<path fill="none" stroke="midnightblue" d="M65.9769,-946.918C81.1132,-924.909 106.444,-892.666 136,-873.5 141.927,-869.656 148.479,-866.375 155.213,-863.581"/>
<polygon fill="midnightblue" stroke="midnightblue" points="62.9724,-945.114 60.3167,-955.371 68.7889,-949.009 62.9724,-945.114"/>
</g>
<!-- Node27 -->
<g id="node27" class="node"><title>Node27</title>
<g id="a_node27"><a xlink:href="structvnix_1_1units_1_1impl_1_1dynes.html#ae6d880d929bce7137ff8a0f24dd84898" target="_top" xlink:title="Initialize from number of dynes. ">
<polygon fill="white" stroke="black" points="172,-784.5 172,-814.5 264,-814.5 264,-784.5 172,-784.5"/>
<text text-anchor="start" x="180" y="-802.5" font-family="Helvetica,sans-Serif" font-size="10.00">vnix::units::impl::</text>
<text text-anchor="middle" x="218" y="-791.5" font-family="Helvetica,sans-Serif" font-size="10.00">dynes::dynes</text>
</a>
</g>
</g>
<!-- Node1&#45;&gt;Node27 -->
<g id="edge28" class="edge"><title>Node1&#45;&gt;Node27</title>
<path fill="none" stroke="midnightblue" d="M59.0638,-945.521C70.8345,-912.969 95.8027,-856.443 136,-824.5 146.255,-816.351 159.169,-810.847 171.655,-807.133"/>
<polygon fill="midnightblue" stroke="midnightblue" points="55.6815,-944.591 55.7032,-955.186 62.2933,-946.89 55.6815,-944.591"/>
</g>
<!-- Node28 -->
<g id="node28" class="node"><title>Node28</title>
<g id="a_node28"><a xlink:href="structvnix_1_1units_1_1impl_1_1joules.html#abb135218b2ea2658f2a98c86ecd261b5" target="_top" xlink:title="Initialize from number of joules. ">
<polygon fill="white" stroke="black" points="172,-735.5 172,-765.5 264,-765.5 264,-735.5 172,-735.5"/>
<text text-anchor="start" x="180" y="-753.5" font-family="Helvetica,sans-Serif" font-size="10.00">vnix::units::impl::</text>
<text text-anchor="middle" x="218" y="-742.5" font-family="Helvetica,sans-Serif" font-size="10.00">joules::joules</text>
</a>
</g>
</g>
<!-- Node1&#45;&gt;Node28 -->
<g id="edge29" class="edge"><title>Node1&#45;&gt;Node28</title>
<path fill="none" stroke="midnightblue" d="M55.0594,-945.236C63.0441,-903.785 84.6969,-821.37 136,-775.5 145.984,-766.573 159.105,-760.834 171.871,-757.144"/>
<polygon fill="midnightblue" stroke="midnightblue" points="51.5728,-944.848 53.2349,-955.312 58.4608,-946.096 51.5728,-944.848"/>
</g>
<!-- Node29 -->
<g id="node29" class="node"><title>Node29</title>
<g id="a_node29"><a xlink:href="structvnix_1_1units_1_1impl_1_1millijoules.html#a8182475936e9f5ea938db7a2027b243b" target="_top" xlink:title="Initialize from number of millijoules. ">
<polygon fill="white" stroke="black" points="164,-686.5 164,-716.5 272,-716.5 272,-686.5 164,-686.5"/>
<text text-anchor="start" x="172" y="-704.5" font-family="Helvetica,sans-Serif" font-size="10.00">vnix::units::impl::</text>
<text text-anchor="middle" x="218" y="-693.5" font-family="Helvetica,sans-Serif" font-size="10.00">millijoules::millijoules</text>
</a>
</g>
</g>
<!-- Node1&#45;&gt;Node29 -->
<g id="edge30" class="edge"><title>Node1&#45;&gt;Node29</title>
<path fill="none" stroke="midnightblue" d="M52.5014,-945.361C56.7988,-896.234 73.2731,-787.018 136,-726.5 143.732,-719.041 153.64,-713.803 163.856,-710.126"/>
<polygon fill="midnightblue" stroke="midnightblue" points="49.0043,-945.188 51.7205,-955.429 55.9834,-945.73 49.0043,-945.188"/>
</g>
<!-- Node30 -->
<g id="node30" class="node"><title>Node30</title>
<g id="a_node30"><a xlink:href="structvnix_1_1units_1_1impl_1_1microjoules.html#a61860e9d7daa56d0ce4b564dd3988d6b" target="_top" xlink:title="Initialize from number of microjoules. ">
<polygon fill="white" stroke="black" points="157,-637.5 157,-667.5 279,-667.5 279,-637.5 157,-637.5"/>
<text text-anchor="start" x="165" y="-655.5" font-family="Helvetica,sans-Serif" font-size="10.00">vnix::units::impl::</text>
<text text-anchor="middle" x="218" y="-644.5" font-family="Helvetica,sans-Serif" font-size="10.00">microjoules::microjoules</text>
</a>
</g>
</g>
<!-- Node1&#45;&gt;Node30 -->
<g id="edge31" class="edge"><title>Node1&#45;&gt;Node30</title>
<path fill="none" stroke="midnightblue" d="M50.7658,-945.153C51.6612,-888.955 61.8517,-752.921 136,-677.5 141.881,-671.518 149.159,-666.961 156.92,-663.49"/>
<polygon fill="midnightblue" stroke="midnightblue" points="47.265,-945.262 50.6945,-955.287 54.2649,-945.312 47.265,-945.262"/>
</g>
<!-- Node31 -->
<g id="node31" class="node"><title>Node31</title>
<g id="a_node31"><a xlink:href="structvnix_1_1units_1_1impl_1_1kilojoules.html#a777e5a6d44461e324dbcddec07d7ded2" target="_top" xlink:title="Initialize from number of kilojoules. ">
<polygon fill="white" stroke="black" points="166,-588.5 166,-618.5 270,-618.5 270,-588.5 166,-588.5"/>
<text text-anchor="start" x="174" y="-606.5" font-family="Helvetica,sans-Serif" font-size="10.00">vnix::units::impl::</text>
<text text-anchor="middle" x="218" y="-595.5" font-family="Helvetica,sans-Serif" font-size="10.00">kilojoules::kilojoules</text>
</a>
</g>
</g>
<!-- Node1&#45;&gt;Node31 -->
<g id="edge32" class="edge"><title>Node1&#45;&gt;Node31</title>
<path fill="none" stroke="midnightblue" d="M54.0614,-945.156C63.1315,-874.081 92.0058,-675.019 136,-628.5 143.989,-620.053 154.761,-614.438 165.837,-610.713"/>
<polygon fill="midnightblue" stroke="midnightblue" points="50.5457,-945.064 52.7765,-955.421 57.4915,-945.934 50.5457,-945.064"/>
</g>
<!-- Node32 -->
<g id="node32" class="node"><title>Node32</title>
<g id="a_node32"><a xlink:href="structvnix_1_1units_1_1impl_1_1megajoules.html#a8e232804834d3c3ce3a13e5214eca954" target="_top" xlink:title="Initialize from number of megajoules. ">
<polygon fill="white" stroke="black" points="157,-539.5 157,-569.5 279,-569.5 279,-539.5 157,-539.5"/>
<text text-anchor="start" x="165" y="-557.5" font-family="Helvetica,sans-Serif" font-size="10.00">vnix::units::impl::</text>
<text text-anchor="middle" x="218" y="-546.5" font-family="Helvetica,sans-Serif" font-size="10.00">megajoules::megajoules</text>
</a>
</g>
</g>
<!-- Node1&#45;&gt;Node32 -->
<g id="edge33" class="edge"><title>Node1&#45;&gt;Node32</title>
<path fill="none" stroke="midnightblue" d="M53.249,-944.704C60.5718,-866.444 86.1829,-633.759 136,-579.5 141.773,-573.212 149.088,-568.491 156.95,-564.948"/>
<polygon fill="midnightblue" stroke="midnightblue" points="49.7246,-944.813 52.3006,-955.09 56.6956,-945.45 49.7246,-944.813"/>
</g>
<!-- Node33 -->
<g id="node33" class="node"><title>Node33</title>
<g id="a_node33"><a xlink:href="structvnix_1_1units_1_1impl_1_1gigajoules.html#a7146419d76689900b5c3348affcbbc84" target="_top" xlink:title="Initialize from number of gigajoules. ">
<polygon fill="white" stroke="black" points="163,-490.5 163,-520.5 273,-520.5 273,-490.5 163,-490.5"/>
<text text-anchor="start" x="171" y="-508.5" font-family="Helvetica,sans-Serif" font-size="10.00">vnix::units::impl::</text>
<text text-anchor="middle" x="218" y="-497.5" font-family="Helvetica,sans-Serif" font-size="10.00">gigajoules::gigajoules</text>
</a>
</g>
</g>
<!-- Node1&#45;&gt;Node33 -->
<g id="edge34" class="edge"><title>Node1&#45;&gt;Node33</title>
<path fill="none" stroke="midnightblue" d="M52.5566,-944.875C58.1885,-860.426 80.1931,-592.718 136,-530.5 143.075,-522.612 152.578,-517.183 162.583,-513.455"/>
<polygon fill="midnightblue" stroke="midnightblue" points="49.0477,-944.902 51.8955,-955.107 56.0331,-945.353 49.0477,-944.902"/>
</g>
<!-- Node34 -->
<g id="node34" class="node"><title>Node34</title>
<g id="a_node34"><a xlink:href="structvnix_1_1units_1_1impl_1_1ergs.html#ae492c283304e67cf4589ffaf017a53c0" target="_top" xlink:title="Initialize from number of ergs. ">
<polygon fill="white" stroke="black" points="172,-441.5 172,-471.5 264,-471.5 264,-441.5 172,-441.5"/>
<text text-anchor="start" x="180" y="-459.5" font-family="Helvetica,sans-Serif" font-size="10.00">vnix::units::impl::</text>
<text text-anchor="middle" x="218" y="-448.5" font-family="Helvetica,sans-Serif" font-size="10.00">ergs::ergs</text>
</a>
</g>
</g>
<!-- Node1&#45;&gt;Node34 -->
<g id="edge35" class="edge"><title>Node1&#45;&gt;Node34</title>
<path fill="none" stroke="midnightblue" d="M51.992,-945.334C56.0327,-855.443 74.1052,-551.819 136,-481.5 145.14,-471.116 158.489,-464.987 171.724,-461.388"/>
<polygon fill="midnightblue" stroke="midnightblue" points="48.4906,-945.293 51.5575,-955.434 55.4842,-945.594 48.4906,-945.293"/>
</g>
<!-- Node35 -->
<g id="node35" class="node"><title>Node35</title>
<g id="a_node35"><a xlink:href="structvnix_1_1units_1_1impl_1_1watts.html#a63d99868e9e204ae2023d0c2a134657e" target="_top" xlink:title="Initialize from number of watts. ">
<polygon fill="white" stroke="black" points="172,-392.5 172,-422.5 264,-422.5 264,-392.5 172,-392.5"/>
<text text-anchor="start" x="180" y="-410.5" font-family="Helvetica,sans-Serif" font-size="10.00">vnix::units::impl::</text>
<text text-anchor="middle" x="218" y="-399.5" font-family="Helvetica,sans-Serif" font-size="10.00">watts::watts</text>
</a>
</g>
</g>
<!-- Node1&#45;&gt;Node35 -->
<g id="edge36" class="edge"><title>Node1&#45;&gt;Node35</title>
<path fill="none" stroke="midnightblue" d="M51.5611,-945.037C54.183,-849.076 68.164,-510.777 136,-432.5 145.06,-422.046 158.388,-415.898 171.627,-412.304"/>
<polygon fill="midnightblue" stroke="midnightblue" points="48.0565,-945.178 51.3005,-955.264 55.0542,-945.357 48.0565,-945.178"/>
</g>
<!-- Node36 -->
<g id="node36" class="node"><title>Node36</title>
<g id="a_node36"><a xlink:href="structvnix_1_1units_1_1impl_1_1milliwatts.html#a46020e7ddda8217578cfe1dab07e1aa2" target="_top" xlink:title="Initialize from number of milliwatts. ">
<polygon fill="white" stroke="black" points="165.5,-343.5 165.5,-373.5 270.5,-373.5 270.5,-343.5 165.5,-343.5"/>
<text text-anchor="start" x="173.5" y="-361.5" font-family="Helvetica,sans-Serif" font-size="10.00">vnix::units::impl::</text>
<text text-anchor="middle" x="218" y="-350.5" font-family="Helvetica,sans-Serif" font-size="10.00">milliwatts::milliwatts</text>
</a>
</g>
</g>
<!-- Node1&#45;&gt;Node36 -->
<g id="edge37" class="edge"><title>Node1&#45;&gt;Node36</title>
<path fill="none" stroke="midnightblue" d="M51.1891,-945.055C52.4531,-843.678 62.1289,-469.859 136,-383.5 143.558,-374.665 154.164,-368.902 165.219,-365.156"/>
<polygon fill="midnightblue" stroke="midnightblue" points="47.687,-945.242 51.0795,-955.278 54.6866,-945.317 47.687,-945.242"/>
</g>
<!-- Node37 -->
<g id="node37" class="node"><title>Node37</title>
<g id="a_node37"><a xlink:href="structvnix_1_1units_1_1impl_1_1microwatts.html#a3331a3875c9e014fd7ab7c43251408b6" target="_top" xlink:title="Initialize from number of microwatts. ">
<polygon fill="white" stroke="black" points="158.5,-294.5 158.5,-324.5 277.5,-324.5 277.5,-294.5 158.5,-294.5"/>
<text text-anchor="start" x="166.5" y="-312.5" font-family="Helvetica,sans-Serif" font-size="10.00">vnix::units::impl::</text>
<text text-anchor="middle" x="218" y="-301.5" font-family="Helvetica,sans-Serif" font-size="10.00">microwatts::microwatts</text>
</a>
</g>
</g>
<!-- Node1&#45;&gt;Node37 -->
<g id="edge38" class="edge"><title>Node1&#45;&gt;Node37</title>
<path fill="none" stroke="midnightblue" d="M50.8737,-945.367C50.8477,-839.258 56.0016,-429.065 136,-334.5 141.893,-327.534 149.683,-322.475 158.105,-318.809"/>
<polygon fill="midnightblue" stroke="midnightblue" points="47.3738,-945.469 50.8929,-955.462 54.3738,-945.455 47.3738,-945.469"/>
</g>
<!-- Node38 -->
<g id="node38" class="node"><title>Node38</title>
<g id="a_node38"><a xlink:href="structvnix_1_1units_1_1impl_1_1kilowatts.html#ac799ba4bc29b1f3289d582963f46597f" target="_top" xlink:title="Initialize from number of kilowatts. ">
<polygon fill="white" stroke="black" points="167.5,-245.5 167.5,-275.5 268.5,-275.5 268.5,-245.5 167.5,-245.5"/>
<text text-anchor="start" x="175.5" y="-263.5" font-family="Helvetica,sans-Serif" font-size="10.00">vnix::units::impl::</text>
<text text-anchor="middle" x="218" y="-252.5" font-family="Helvetica,sans-Serif" font-size="10.00">kilowatts::kilowatts</text>
</a>
</g>
</g>
<!-- Node1&#45;&gt;Node38 -->
<g id="edge39" class="edge"><title>Node1&#45;&gt;Node38</title>
<path fill="none" stroke="midnightblue" d="M50.6006,-944.891C49.3748,-832.999 50.0562,-388.067 136,-285.5 143.94,-276.024 155.39,-270.076 167.192,-266.359"/>
<polygon fill="midnightblue" stroke="midnightblue" points="47.1048,-945.258 50.7302,-955.213 54.1043,-945.17 47.1048,-945.258"/>
</g>
<!-- Node39 -->
<g id="node39" class="node"><title>Node39</title>
<g id="a_node39"><a xlink:href="structvnix_1_1units_1_1impl_1_1megawatts.html#ad5baba90922f36ba1d3f8bfceab8acb1" target="_top" xlink:title="Initialize from number of megawatts. ">
<polygon fill="white" stroke="black" points="158.5,-196.5 158.5,-226.5 277.5,-226.5 277.5,-196.5 158.5,-196.5"/>
<text text-anchor="start" x="166.5" y="-214.5" font-family="Helvetica,sans-Serif" font-size="10.00">vnix::units::impl::</text>
<text text-anchor="middle" x="218" y="-203.5" font-family="Helvetica,sans-Serif" font-size="10.00">megawatts::megawatts</text>
</a>
</g>
</g>
<!-- Node1&#45;&gt;Node39 -->
<g id="edge40" class="edge"><title>Node1&#45;&gt;Node39</title>
<path fill="none" stroke="midnightblue" d="M52.3245,-944.831C58.9122,-821.362 89.6876,-292.231 136,-236.5 141.926,-229.369 149.841,-224.234 158.406,-220.544"/>
<polygon fill="midnightblue" stroke="midnightblue" points="48.8103,-945.011 51.7786,-955.182 55.8005,-945.38 48.8103,-945.011"/>
</g>
<!-- Node40 -->
<g id="node40" class="node"><title>Node40</title>
<g id="a_node40"><a xlink:href="structvnix_1_1units_1_1impl_1_1gigawatts.html#aac3e42f94a9cea30bff1acce7fe1ec65" target="_top" xlink:title="Initialize from number of gigawatts. ">
<polygon fill="white" stroke="black" points="164.5,-147.5 164.5,-177.5 271.5,-177.5 271.5,-147.5 164.5,-147.5"/>
<text text-anchor="start" x="172.5" y="-165.5" font-family="Helvetica,sans-Serif" font-size="10.00">vnix::units::impl::</text>
<text text-anchor="middle" x="218" y="-154.5" font-family="Helvetica,sans-Serif" font-size="10.00">gigawatts::gigawatts</text>
</a>
</g>
</g>
<!-- Node1&#45;&gt;Node40 -->
<g id="edge41" class="edge"><title>Node1&#45;&gt;Node40</title>
<path fill="none" stroke="midnightblue" d="M52.1141,-945.157C57.9464,-817.364 86.5909,-247.392 136,-187.5 143.211,-178.759 153.413,-173.014 164.153,-169.254"/>
<polygon fill="midnightblue" stroke="midnightblue" points="48.6162,-945.033 51.6623,-955.181 55.6091,-945.348 48.6162,-945.033"/>
</g>
<!-- Node41 -->
<g id="node41" class="node"><title>Node41</title>
<g id="a_node41"><a xlink:href="structvnix_1_1units_1_1impl_1_1amperes.html#a1e48288384b1da2b666774d3e2cb557f" target="_top" xlink:title="Initialize from number of amperes. ">
<polygon fill="white" stroke="black" points="169,-98.5 169,-128.5 267,-128.5 267,-98.5 169,-98.5"/>
<text text-anchor="start" x="177" y="-116.5" font-family="Helvetica,sans-Serif" font-size="10.00">vnix::units::impl::</text>
<text text-anchor="middle" x="218" y="-105.5" font-family="Helvetica,sans-Serif" font-size="10.00">amperes::amperes</text>
</a>
</g>
</g>
<!-- Node1&#45;&gt;Node41 -->
<g id="edge42" class="edge"><title>Node1&#45;&gt;Node41</title>
<path fill="none" stroke="midnightblue" d="M51.9393,-945.268C57.0798,-812.925 83.5148,-202.532 136,-138.5 144.21,-128.484 156.347,-122.4 168.741,-118.728"/>
<polygon fill="midnightblue" stroke="midnightblue" points="48.4414,-945.147 51.5561,-955.274 55.4363,-945.415 48.4414,-945.147"/>
</g>
<!-- Node42 -->
<g id="node42" class="node"><title>Node42</title>
<g id="a_node42"><a xlink:href="structvnix_1_1units_1_1impl_1_1milliamperes.html#ab1b617aa3bedbfc0746f0bf7bfef313c" target="_top" xlink:title="Initialize from number of milliamperes. ">
<polygon fill="white" stroke="black" points="152,-49.5 152,-79.5 284,-79.5 284,-49.5 152,-49.5"/>
<text text-anchor="start" x="160" y="-67.5" font-family="Helvetica,sans-Serif" font-size="10.00">vnix::units::impl::</text>
<text text-anchor="middle" x="218" y="-56.5" font-family="Helvetica,sans-Serif" font-size="10.00">milliamperes::milliamperes</text>
</a>
</g>
</g>
<!-- Node1&#45;&gt;Node42 -->
<g id="edge43" class="edge"><title>Node1&#45;&gt;Node42</title>
<path fill="none" stroke="midnightblue" d="M51.7932,-945.115C56.2997,-807.81 80.4686,-157.639 136,-89.5 140.37,-84.1381 145.865,-79.9024 151.926,-76.56"/>
<polygon fill="midnightblue" stroke="midnightblue" points="48.284,-945.347 51.4595,-955.455 55.2804,-945.573 48.284,-945.347"/>
</g>
<!-- Node43 -->
<g id="node43" class="node"><title>Node43</title>
<g id="a_node43"><a xlink:href="structvnix_1_1units_1_1impl_1_1microamperes.html#a0b8fe05fe15087b189b9d7b0efe5777f" target="_top" xlink:title="Initialize from number of microamperes. ">
<polygon fill="white" stroke="black" points="145,-0.5 145,-30.5 291,-30.5 291,-0.5 145,-0.5"/>
<text text-anchor="start" x="153" y="-18.5" font-family="Helvetica,sans-Serif" font-size="10.00">vnix::units::impl::</text>
<text text-anchor="middle" x="218" y="-7.5" font-family="Helvetica,sans-Serif" font-size="10.00">microamperes::microamperes</text>
</a>
</g>
</g>
<!-- Node1&#45;&gt;Node43 -->
<g id="edge44" class="edge"><title>Node1&#45;&gt;Node43</title>
<path fill="none" stroke="midnightblue" d="M51.6588,-945.053C55.5514,-803.09 77.4062,-112.767 136,-40.5 139.151,-36.6132 142.894,-33.3179 147.016,-30.5255"/>
<polygon fill="midnightblue" stroke="midnightblue" points="48.1519,-945.266 51.3817,-955.357 55.1494,-945.454 48.1519,-945.266"/>
</g>
<!-- Node9&#45;&gt;Node10 -->
<g id="edge9" class="edge"><title>Node9&#45;&gt;Node10</title>
<path fill="none" stroke="midnightblue" d="M278.091,-1556.56C298.803,-1550.62 321.329,-1544.17 339.181,-1539.05"/>
<polygon fill="midnightblue" stroke="midnightblue" points="277.062,-1553.22 268.413,-1559.34 278.991,-1559.94 277.062,-1553.22"/>
</g>
<!-- Node11&#45;&gt;Node10 -->
<g id="edge11" class="edge"><title>Node11&#45;&gt;Node10</title>
<path fill="none" stroke="midnightblue" d="M278.091,-1502.44C298.803,-1508.38 321.329,-1514.83 339.181,-1519.95"/>
<polygon fill="midnightblue" stroke="midnightblue" points="278.991,-1499.06 268.413,-1499.66 277.062,-1505.78 278.991,-1499.06"/>
</g>
<!-- Node13 -->
<g id="node13" class="node"><title>Node13</title>
<g id="a_node13"><a xlink:href="statdim-base-test_8cpp.html#a68e3a7a324c9e858052f4d2856df5163" target="_top" xlink:title="TEST_CASE">
<polygon fill="white" stroke="black" points="336,-1402 336,-1421 411,-1421 411,-1402 336,-1402"/>
<text text-anchor="middle" x="373.5" y="-1409" font-family="Helvetica,sans-Serif" font-size="10.00">TEST_CASE</text>
</a>
</g>
</g>
<!-- Node12&#45;&gt;Node13 -->
<g id="edge13" class="edge"><title>Node12&#45;&gt;Node13</title>
<path fill="none" stroke="midnightblue" d="M278.368,-1426.83C297.73,-1423.68 318.65,-1420.27 335.84,-1417.47"/>
<polygon fill="midnightblue" stroke="midnightblue" points="277.721,-1423.39 268.413,-1428.45 278.846,-1430.3 277.721,-1423.39"/>
</g>
<!-- Node14&#45;&gt;Node13 -->
<g id="edge15" class="edge"><title>Node14&#45;&gt;Node13</title>
<path fill="none" stroke="midnightblue" d="M278.368,-1396.78C297.73,-1399.81 318.65,-1403.08 335.84,-1405.77"/>
<polygon fill="midnightblue" stroke="midnightblue" points="278.834,-1393.31 268.413,-1395.23 277.753,-1400.23 278.834,-1393.31"/>
</g>
<!-- Node16 -->
<g id="node16" class="node"><title>Node16</title>
<g id="a_node16"><a xlink:href="statdim-base-test_8cpp.html#a770fa09337bbabe5784759483b7cf967" target="_top" xlink:title="TEST_CASE">
<polygon fill="white" stroke="black" points="336,-1329 336,-1348 411,-1348 411,-1329 336,-1329"/>
<text text-anchor="middle" x="373.5" y="-1336" font-family="Helvetica,sans-Serif" font-size="10.00">TEST_CASE</text>
</a>
</g>
</g>
<!-- Node15&#45;&gt;Node16 -->
<g id="edge17" class="edge"><title>Node15&#45;&gt;Node16</title>
<path fill="none" stroke="midnightblue" d="M278.635,-1338.5C297.922,-1338.5 318.729,-1338.5 335.84,-1338.5"/>
<polygon fill="midnightblue" stroke="midnightblue" points="278.413,-1335 268.413,-1338.5 278.413,-1342 278.413,-1335"/>
</g>
</g>
</svg>
