<?xml version="1.0" encoding="UTF-8" standalone="no"?>
<!DOCTYPE svg PUBLIC "-//W3C//DTD SVG 1.1//EN"
 "http://www.w3.org/Graphics/SVG/1.1/DTD/svg11.dtd">
<!-- Generated by graphviz version 2.38.0 (20140413.2041)
 -->
<!-- Title: vnix::units::impl::nanokelvins::nanokelvins Pages: 1 -->
<svg width="310pt" height="78pt"
 viewBox="0.00 0.00 310.00 77.50" xmlns="http://www.w3.org/2000/svg" xmlns:xlink="http://www.w3.org/1999/xlink">
<g id="graph0" class="graph" transform="scale(1 1) rotate(0) translate(4 73.5)">
<title>vnix::units::impl::nanokelvins::nanokelvins</title>
<polygon fill="white" stroke="none" points="-4,4 -4,-73.5 306,-73.5 306,4 -4,4"/>
<!-- Node1 -->
<g id="node1" class="node"><title>Node1</title>
<polygon fill="#bfbfbf" stroke="black" points="0,-22.5 0,-52.5 126,-52.5 126,-22.5 0,-22.5"/>
<text text-anchor="start" x="8" y="-40.5" font-family="Helvetica,sans-Serif" font-size="10.00">vnix::units::impl::</text>
<text text-anchor="middle" x="63" y="-29.5" font-family="Helvetica,sans-Serif" font-size="10.00">nanokelvins::nanokelvins</text>
</g>
<!-- Node2 -->
<g id="node2" class="node"><title>Node2</title>
<g id="a_node2"><a xlink:href="namespacevnix_1_1units.html#af7c82f08a947ec69ecb063c91fa1a208" target="_top" xlink:title="Exponents for temperature. ">
<polygon fill="white" stroke="black" points="162,-50 162,-69 302,-69 302,-50 162,-50"/>
<text text-anchor="middle" x="232" y="-57" font-family="Helvetica,sans-Serif" font-size="10.00">vnix::units::temperature_dim</text>
</a>
</g>
</g>
<!-- Node1&#45;&gt;Node2 -->
<g id="edge1" class="edge"><title>Node1&#45;&gt;Node2</title>
<path fill="none" stroke="midnightblue" d="M126.185,-45.692C134.516,-46.7896 143.151,-47.9271 151.727,-49.0568"/>
<polygon fill="midnightblue" stroke="midnightblue" points="151.373,-52.5404 161.745,-50.3766 152.288,-45.6004 151.373,-52.5404"/>
</g>
<!-- Node3 -->
<g id="node3" class="node"><title>Node3</title>
<g id="a_node3"><a xlink:href="classvnix_1_1units_1_1basic__dim.html#a14314170633ec56f7a71b977f1d6d13e" target="_top" xlink:title="Encode data for this dim into a word. ">
<polygon fill="white" stroke="black" points="186.5,-0.5 186.5,-30.5 277.5,-30.5 277.5,-0.5 186.5,-0.5"/>
<text text-anchor="start" x="194.5" y="-18.5" font-family="Helvetica,sans-Serif" font-size="10.00">vnix::units::basic</text>
<text text-anchor="middle" x="232" y="-7.5" font-family="Helvetica,sans-Serif" font-size="10.00">_dim::encode</text>
</a>
</g>
</g>
<!-- Node1&#45;&gt;Node3 -->
<g id="edge2" class="edge"><title>Node1&#45;&gt;Node3</title>
<path fill="none" stroke="midnightblue" d="M126.185,-29.308C142.616,-27.1434 160.228,-24.8233 176.235,-22.7145"/>
<polygon fill="midnightblue" stroke="midnightblue" points="177.037,-26.1393 186.494,-21.3631 176.122,-19.1992 177.037,-26.1393"/>
</g>
</g>
</svg>
